<?xml version="1.0" encoding="utf-8"?>
<!-- Generator: Adobe Illustrator 18.1.1, SVG Export Plug-In . SVG Version: 6.00 Build 0)  -->
<!DOCTYPE svg PUBLIC "-//W3C//DTD SVG 1.1//EN" "http://www.w3.org/Graphics/SVG/1.1/DTD/svg11.dtd">
<svg version="1.1" id="Layer_1" xmlns="http://www.w3.org/2000/svg" xmlns:xlink="http://www.w3.org/1999/xlink" x="0px" y="0px"
	 viewBox="0 0 55 65" enable-background="new 0 0 55 65" xml:space="preserve">
<g>
	<path fill="#FFFFFF" d="M31.1,26.9c-0.5-0.4-0.9-0.8-1.2-1.1c-0.3-0.3-0.7-0.7-1-1.1l-0.1-0.1c-0.1-0.1-0.1-0.1-0.2-0.2l-0.7,1.4
		C28,25.9,28,26,28.1,26l0.1,0.1c0.4,0.4,0.8,0.8,1.2,1.2c0.3,0.3,0.6,0.5,0.9,0.8l1.4-0.8C31.4,27.2,31.2,27.1,31.1,26.9z"/>
	<path fill="#FFFFFF" d="M31.7,19.4c-0.2,0.2-0.4,0.5-0.6,0.9c0.3,0.3,0.6,0.6,0.9,0.9c0.2,0.2,0.4,0.4,0.7,0.6
		c0.4-0.2,0.9-0.3,1.3-0.3c-0.6-0.6-1.1-1-1.5-1.4C32.2,19.8,32,19.6,31.7,19.4z"/>
	<path fill="#FFFFFF" d="M25.7,16.3c-0.1,0.1-0.1,0.1-0.2,0.2l0,0c0,0-0.1,0.1-0.1,0.1c-0.1,0.1-0.2,0.2-0.3,0.3
		c-0.1,0.1-0.1,0.2-0.2,0.2c-0.1,0.1-0.2,0.2-0.2,0.2c0.3,0.1,0.7,0.3,1,0.6c0.1-0.1,0.2-0.2,0.3-0.3l0,0c0,0,0-0.1,0.1-0.1
		c0.1-0.1,0.1-0.1,0.2-0.2l0.2-0.2c0.1-0.1,0.1-0.2,0.2-0.3c0,0,0,0,0-0.1c-0.3-0.4-0.4-0.7-0.4-1.1C26,16,26,16.1,25.9,16.1
		L25.7,16.3z"/>
	<path fill="#FFFFFF" d="M26,12.7c0,0.1,0,0.1,0,0.2c0,0,0,0,0,0.1c0,0,0,0.1,0,0.1c0,0.1,0,0.2,0,0.3c0,0.1,0,0.2,0.1,0.3l0,0
		c0,0,0,0,0,0.1c0,0,0,0,0,0l0,0c0,0,0,0.1,0,0.1c0,0.1,0.1,0.1,0.1,0.2c0,0,0,0.1,0.1,0.1l0,0.1c0,0,0,0.1,0.1,0.1
		c0,0,0,0.1,0.1,0.1c0,0,0,0.1,0.1,0.1l0.1,0.1c0.1,0.1,0,0.2,0,0.3c0,0,0,0.1,0,0.1c0,0-0.2,0.8,0.2,1.4c0.1-0.1,0.1-0.2,0.2-0.2
		l0-4.4c-0.2-0.1-0.4-0.2-0.6-0.3l0.1-0.3l-0.1,0.2l-0.3-0.2c-0.1,0-0.1-0.1-0.2-0.1l-0.1-0.1c-0.1,0-0.1-0.1-0.2-0.1L25.6,11
		c-0.1,0-0.1-0.1-0.2-0.1c-0.1,0-0.2-0.1-0.3-0.1c0.2,0.4,0.5,1,0.6,1.6c0,0,0.1,0,0.1,0C25.9,12.5,26,12.6,26,12.7z"/>
	<path fill="#FFFFFF" d="M27.2,37.2c-0.1,0.3-0.1,0.9,0.1,1.6C27.5,38.3,27.4,37.6,27.2,37.2z"/>
	<path fill="#FFFFFF" d="M24.2,20.3c0.1,0.1,0.1,0.3,0.2,0.4l0,0.1c0.1,0.2,0.2,0.3,0.2,0.5c0.1,0.1,0.1,0.2,0.2,0.3l0,0
		c0,0,0,0.1,0.1,0.1c0.1,0.1,0.1,0.2,0.2,0.3c0.2,0.4,0.5,0.7,0.7,1c-0.1-0.4-0.2-0.9-0.3-1.3C25.2,21.3,24.7,20.8,24.2,20.3z"/>
	<path fill="#FFFFFF" d="M28.3,23.8C28.3,23.8,28.3,23.8,28.3,23.8C28.3,23.8,28.3,23.8,28.3,23.8C28.3,23.8,28.3,23.8,28.3,23.8
		c0.1-0.1,0.1-0.2,0.2-0.2c0,0,0-0.1,0-0.1c0-0.6,0.2-1.5,0.5-2.4c-0.2,0.3-0.5,0.7-0.8,1c-0.2,0.2-0.3,0.4-0.5,0.6l0.1,2.2
		L28.3,23.8C28.2,23.8,28.3,23.8,28.3,23.8z"/>
	<path fill="#FFFFFF" d="M41.9,43.7C41.9,43.7,41.9,43.7,41.9,43.7l0.1-0.1c0,0,0-0.1,0.1-0.1c0-0.1,0.1-0.1,0.1-0.2
		c0,0,0-0.1,0.1-0.1c0,0,0-0.1,0.1-0.1c0,0,0.1-0.1,0.1-0.2c0,0,0,0,0,0c-0.1-0.1-0.2-0.1-0.3-0.1c-0.3-0.1-0.6-0.2-0.9-0.2
		c0,0,0,0.1,0,0.1l0,0c0,0.1-0.1,0.1-0.1,0.2c0,0,0,0.1-0.1,0.1c0,0.1,0,0.1-0.1,0.2c0,0.1-0.1,0.1-0.1,0.2c0,0-0.1,0.1-0.1,0.1
		c0,0-0.1,0.1-0.1,0.1c0,0.1-0.1,0.1-0.1,0.2c0,0,0,0.1-0.1,0.1c0,0,0,0.1,0,0.1l0,0.1c0,0,0,0,0,0.1l-0.1,0.1
		c0,0.1-0.1,0.2-0.1,0.2l-0.1,0.1c0,0.1-0.1,0.1-0.2,0.2c0,0-0.1,0.1-0.1,0.1c0,0.1-0.1,0.1-0.1,0.2c0,0.1-0.1,0.1-0.1,0.2l-0.1,0.1
		c-0.2,0.3-0.4,0.5-0.7,0.8c0.3,0,0.8,0,1.1,0.1c0.4-0.5,0.8-0.9,1.1-1.3l0.1-0.1c0-0.1,0.1-0.1,0.1-0.2c0-0.1,0.1-0.1,0.1-0.2
		c0,0,0.1-0.1,0.1-0.1c0.1-0.1,0.1-0.1,0.1-0.2l0-0.1c0-0.1,0.1-0.1,0.1-0.2L41.9,43.7z"/>
	<path fill="#FFFFFF" d="M22,20.1c-0.1,0.1-0.2,0.2-0.3,0.3c-0.1,0.1-0.2,0.2-0.4,0.3c-0.1,0.1-0.2,0.2-0.3,0.3
		c0.4,0,0.9,0.2,1.4,0.5c0,0,0,0,0,0c0.1-0.1,0.2-0.2,0.3-0.3c0.1-0.1,0.2-0.2,0.3-0.3c0.1-0.1,0.2-0.2,0.3-0.3
		c0.1-0.1,0.2-0.2,0.3-0.3l0.1-0.1c0.1-0.1,0.2-0.1,0.3-0.1c0,0,0,0,0,0c-0.5-0.4-0.9-0.7-1.2-0.9c-0.1,0.1-0.1,0.1-0.2,0.2
		c-0.1,0.1-0.2,0.2-0.3,0.3C22.2,19.9,22.1,20,22,20.1z"/>
	<path fill="#FFFFFF" d="M22.8,18C22.8,18,22.8,18,22.8,18c0,0.1,0,0.1,0.1,0.2l0,0.1c0,0.1,0.1,0.3,0.2,0.4l0,0c0,0,0,0,0,0
		c0.3,0.2,1.3,0.9,2.1,1.7c0-0.1,0-0.1,0-0.2c-0.9-0.9-2-2.4-2.6-3.4c0,0.1,0,0.2,0.1,0.3C22.6,17.5,22.7,17.7,22.8,18z"/>
	<path fill="#FFFFFF" d="M31,30.3L31,30.3c-0.2,0.3-0.3,0.4-0.5,0.6c1.2-0.6,2.5-1.1,2.8-1.2c0.1-0.1,0.2-0.3,0.3-0.4
		c0.5-0.7,0.9-1.3,1.2-2c0.1-0.2,0.2-0.5,0.3-0.7c-0.9,0.9-2.4,2.2-3.7,2.8c0.1,0.1,0.1,0.3,0,0.4C31.4,29.9,31.2,30.1,31,30.3z"/>
	<path fill="#FFFFFF" d="M27.1,22.7c-0.1-0.1-0.2-0.2-0.3-0.3c-0.3-0.3-0.5-0.7-0.8-1.1c0,0,0,0.1,0,0.1c0.2,0.9,0.4,1.7,0.6,2.2
		c0,0.1,0,0.2-0.1,0.3l0.7,1L27.1,22.7z"/>
	<path fill="#FFFFFF" d="M18.8,40c0.2,0.2,0.4,0.5,0.6,0.7c0.4,0.5,0.9,1,1.5,1.6c0.3,0.3,0.5,0.5,0.8,0.8c0.3-0.2,0.6-0.4,0.9-0.6
		c0.1-0.1,0.2-0.2,0.4-0.2c0.2-0.1,0.3-0.2,0.5-0.3c0.1-0.1,0.3-0.2,0.4-0.3c0.1,0,0.1-0.1,0.2-0.1c-1.3-0.9-2.6-0.6-2.6-0.6
		c0,0,0,0-0.1,0c0,0,0,0,0,0c0,0,0,0,0,0c0,0,0,0,0,0c0,0,0,0,0,0c0,0,0,0,0,0c0,0,0,0,0,0c0,0,0,0,0,0c0,0,0,0,0,0c0,0,0,0,0,0
		c0,0,0,0,0,0c-0.2-0.1-0.3-0.3-0.4-0.4c0,0-0.1,0-0.1,0c0,0-0.1,0-0.1,0c-0.9-0.4-1.6-0.8-2.1-1.1C18.5,39.6,18.6,39.8,18.8,40z"/>
	<path fill="#FFFFFF" d="M14.6,48.6C14.6,48.6,14.6,48.6,14.6,48.6c0.3-0.3,0.6-0.6,1-0.9c0,0,0,0,0,0c-0.1-0.1-0.1-0.2-0.1-0.2
		c0-0.1,0.1-0.2,0.1-0.2c0.2-0.1,0.5-0.3,0.7-0.4c-0.3-0.1-0.7-0.2-1-0.2c-0.6,0.5-1.3,1.1-1.8,1.6l0,0c0,0,0,0.1-0.1,0.1l0,0
		c0,0.1-0.1,0.2-0.2,0.3C13.7,48.5,14.2,48.4,14.6,48.6z"/>
	<path fill="#FFFFFF" d="M36.5,32.5c-0.3-0.2-0.5-0.4-0.7-0.6c-0.6-0.4-1-0.8-1.5-1.1c-0.3-0.2-0.5-0.4-0.8-0.6c-1,0.4-3,1.2-4,2
		c2-0.4,2.6-1,2.6-1c0,0,0,0,0,0c0,0,0,0,0,0c0,0,0,0,0,0c0,0,0,0,0,0c0,0,0,0,0,0c0,0,0,0,0,0c0,0,0,0,0,0c0,0,0,0,0,0c0,0,0,0,0,0
		c0,0,0,0,0,0c0,0,0,0,0,0c0,0,0,0,0,0c0,0,0,0,0,0c0,0,0,0,0,0c0,0,0,0,0,0c0,0,0,0,0,0c0,0,0,0,0,0c0.4,0.3,0.8,0.6,1.2,0.9
		c0.2,0.2,0.4,0.3,0.7,0.5c0,0,0,0,0.1,0C35.1,32.4,35.9,32.4,36.5,32.5z"/>
	<path fill="#FFFFFF" d="M40.8,47.4c0,0-0.1-0.1-0.1-0.1c-0.1-0.1-0.2-0.2-0.3-0.3c-0.1-0.1-0.2-0.1-0.2-0.2
		c-0.2-0.1-1.1-0.1-1.8-0.2c-0.1,0-0.1,0.1-0.2,0.1c0,0-0.1,0-0.1,0c-0.6-0.3-1.2-0.7-1.8-1c-1-0.6-2.1-1.2-3.1-1.8
		c-0.1,0.1-0.3,0.3-0.4,0.4c-0.1,0-0.1,0.1-0.2,0.1c0,0,0.1,0.1,0.1,0.1c0.1,0.1,0.3,0.2,0.5,0.3c0.1-0.1,0.2-0.2,0.4-0.3
		c0.1-0.1,0.2-0.1,0.3,0c1.1,0.7,2.2,1.3,3.3,1.9c0.6,0.3,1.2,0.7,1.8,1c0.1,0,0.1,0.1,0.1,0.2c0,0,0,0.1,0,0.1c0,0,0.1,0.1,0.1,0.1
		c0.1,0.1,0.1,0.1,0.2,0.2l0,0c0.1,0.1,0.2,0.2,0.3,0.3l0,0c0,0,0,0,0,0C40.1,48,40.5,47.7,40.8,47.4z"/>
	<path fill="#FFFFFF" d="M24.7,38.8c-0.1,0.1-0.3,0.2-0.4,0.3c-0.1,0.1-0.3,0.2-0.4,0.3c-0.1,0.1-0.3,0.2-0.5,0.3
		c-0.2,0.1-0.3,0.2-0.5,0.3c-0.1,0.1-0.2,0.2-0.4,0.2c-0.1,0-0.1,0.1-0.2,0.1c0.6,0.1,1.3,0.3,2.1,0.9c0,0,0,0,0,0
		c0,0,0.1-0.1,0.1-0.1l0.1-0.1c0.5-0.3,0.9-0.7,1.4-1.1c0,0,0,0,0,0c0.1-0.1,0.2-0.2,0.3-0.2l0.2-0.2c0.1-0.1,0.2-0.1,0.2-0.2
		c-0.4-0.8-0.4-1.6-0.3-2l0,0c-0.1,0.1-0.2,0.2-0.3,0.3l0,0c-0.5,0.4-1,0.8-1.5,1.1L24.7,38.8z"/>
	<path fill="#FFFFFF" d="M40.8,40.4c0-0.1,0-0.2,0-0.2c0-0.1,0.1-0.2,0.1-0.2c0.2-0.1,0.3-0.3,0.5-0.4l-1.7,0.1
		C40.2,39.9,40.6,40.2,40.8,40.4C40.8,40.4,40.8,40.4,40.8,40.4z"/>
	<path fill="#FFFFFF" d="M21.1,16.3l0.9-0.7c0,0,0,0,0,0c0,0,0,0,0,0c0,0,0,0,0,0c0,0,0,0,0,0c0,0,0,0,0.1,0c0,0,0,0,0,0
		c0,0,0,0,0.1,0c0,0,0,0,0,0c0,0,0,0,0.1,0c0,0,0,0,0,0c0,0,0,0,0,0c0,0,0,0,0.1,0c0,0,0,0,0,0c0,0,0,0,0,0.1c0,0,1.2,2,2.3,3.4
		c0,0,0,0,0,0c0,0,0,0,0,0c0,0,0,0,0,0c0,0,0,0,0,0c0,0,0,0,0,0c0,0,0,0,0,0c0,0,0,0,0,0c0.1-0.1,0.3-0.3,0.4-0.4
		c-0.3-0.3-0.9-0.6-1.2-0.6c0,0,0,0-0.1,0c0,0,0,0,0,0c0,0,0,0,0,0c0,0,0,0,0,0c0,0,0,0,0,0c0,0,0,0,0,0c0,0,0,0,0-0.1c0,0,0,0,0,0
		l0,0c0,0,0,0,0,0l-0.1-0.1c-0.1-0.1-0.1-0.3-0.2-0.4l0-0.1c0-0.1,0-0.1-0.1-0.2c-0.1-0.3-0.2-0.5-0.2-0.8c-0.6-0.7-1.3-1.5-1.6-1.8
		l-1.7,1.4c-0.1,0.1-0.2,0.2-0.3,0.2C20.3,16,20.8,16.1,21.1,16.3z"/>
	<path fill="#FFFFFF" d="M24,33.2c0.1,0.1,0.1,0.2,0.2,0.2c0.1,0.1,0.2,0.2,0.3,0.4c0.5,0.5,1,1.1,1.7,1.6l0,0
		c0.1,0.1,0.2,0.2,0.3,0.3c0.2,0.2,0.5,0.4,0.7,0.6c0.3-0.3,0.7-0.6,1-0.9c0.7-0.6,1.2-1.1,1.8-1.7c0.5-0.5,0.9-0.9,1.3-1.5
		c-0.6,0.2-1.5,0.5-2.7,0.6c-0.1,0.1-0.1,0.1-0.2,0.2c-0.3,0.2-0.6,0.5-0.8,0.7c-0.1,0-0.1,0.1-0.2,0.1c-0.1,0-0.1,0-0.2-0.1l0,0
		c-0.2-0.2-0.4-0.3-0.6-0.5c-0.1-0.1-0.2-0.1-0.2-0.2l0,0c0,0-0.1-0.1-0.1-0.1c0,0,0,0,0,0c-0.1,0-1.6-0.2-3-0.8
		c0.1,0.1,0.2,0.3,0.4,0.4C23.6,32.8,23.8,33,24,33.2z"/>
	<path fill="#FFFFFF" d="M20.8,44.3c0.1,0,0.2,0,0.2,0.1c0.2,0.2,0.4,0.3,0.6,0.5c0.2,0.2,0.4,0.3,0.5,0.5c0.2,0.1,0.3,0.3,0.5,0.4
		c0.1,0.1,0.3,0.2,0.5,0.4c0.1,0.1,0.3,0.2,0.4,0.3c0.1,0.1,0.3,0.2,0.4,0.3c0.7,0.5,1.7,1.1,2.9,1.8c0,0,0.1,0.1,0.1,0.1
		c0,0,0,0,0,0l0.1-0.1c0.1-0.1,0.2-0.1,0.3,0c0,0,0.1,0.1,0.1,0.1c0,0,0.1-0.1,0.1-0.1c1.2-0.7,2.1-1.3,2.9-1.8l0,0
		c0.1-0.1,0.2-0.1,0.3-0.2c-0.3,0-0.7-0.1-1-0.1c-0.7,0.4-1.4,0.9-2.4,1.5c0,0-0.1,0-0.1,0c-0.1,0-0.1,0-0.1,0
		c-0.6-0.3-1.1-0.7-1.5-0.9c-0.1-0.1-0.2-0.1-0.3-0.2c-1.8-1.2-2.6-1.9-3.8-3c-0.2,0.2-0.4,0.3-0.6,0.4
		C20.9,44.2,20.8,44.3,20.8,44.3z"/>
	<path fill="#FFFFFF" d="M23.3,14.9c0-0.1,0-0.3,0-0.4c0,0,0-0.1,0-0.1c0,0,0,0,0,0c-0.4-0.7-0.6-1.4-0.7-1.9
		c-0.1,0.1-0.1,0.1-0.1,0.2c0,0,0,0,0,0c0,0,0,0.1,0,0.1c0,0,0,0,0,0.1l0,0c0,0,0,0,0,0.1l0,0c0,0,0,0.1,0,0.1l0,0
		c-0.1,0.2-0.1,0.3-0.1,0.5c0,0.1,0,0.1,0,0.2c0.2,0.2,0.6,0.5,1.2,1.3C23.3,15.1,23.3,15,23.3,14.9C23.3,15,23.3,15,23.3,14.9
		L23.3,14.9z"/>
	<path fill="#FFFFFF" d="M34.1,40.2c-0.3,0.2-0.5,0.5-0.8,0.7c0,0,0,0,0,0c0,0,0,0,0,0c0,0,0,0,0,0c0,0,0,0,0,0c0,0,0,0,0,0
		c0,0,0,0,0,0c0,0,0,0,0,0c0,0,0,0,0,0c0,0,0,0,0,0c0,0,0,0,0,0c0,0,0,0,0,0c0,0-1.5-0.2-2.3,0.8c0.4,0.3,0.8,0.5,1.3,0.8
		c0.1,0.1,0.2,0.1,0.3,0.2c0.2,0.1,0.4,0.3,0.7,0.4l0,0c0.2-0.2,0.4-0.3,0.6-0.5c0.3-0.3,0.6-0.5,0.8-0.8c0.4-0.4,0.8-0.8,1.1-1.2
		c0.4-0.5,0.8-1,1.2-1.6l0.1-0.2c0.1-0.1,0.1-0.2,0.2-0.3l-1.4,0.1c-0.2,0.2-0.4,0.5-0.7,0.7C34.7,39.7,34.4,39.9,34.1,40.2z"/>
	<path fill="#FFFFFF" d="M21.3,25.4c-0.2-0.4-0.4-0.8-0.5-1.2c0-0.1-0.1-0.2-0.1-0.3c0-0.1-0.1-0.3-0.1-0.4c-1.2-1.2-2-2.5-2.4-3.4
		c0,0.1,0,0.3,0,0.4c0,0.1,0,0.2,0,0.3c0,0.4,0.1,0.7,0.1,1.2c0,0.1,0,0.2,0.1,0.3c0,0.1,0.1,0.2,0.1,0.4l3.1,3.2
		C21.4,25.7,21.4,25.6,21.3,25.4z"/>
	<path fill="#FFFFFF" d="M38,33.3C38,33.3,38,33.3,38,33.3C38,33.3,38,33.3,38,33.3C38,33.3,38,33.3,38,33.3c-0.1,0-0.1,0-0.1,0
		c0,0,0,0,0,0c0,0,0,0,0,0c0,0,0,0,0,0c0,0,0,0,0,0c0,0,0,0-0.1,0l0,0l0,0l0,0c0,0,0,0,0,0c0,0,0,0,0,0c0,0,0,0,0,0c0,0,0,0,0,0
		c0,0,0,0,0,0c0,0-1.5-0.5-2.8-0.3c0.2,0.1,0.4,0.3,0.6,0.4c0.6,0.5,1.4,1,2.3,1.7c0.1,0.1,0.2,0.3,0.1,0.4
		c-0.1,0.2-0.2,0.4-0.4,0.6l1.2-0.4c0,0,0.1,0,0.1,0c0.2-0.3,0.3-0.7,0.5-1c0.1-0.3,0.3-0.6,0.4-0.9c0.1-0.3,0.2-0.6,0.3-0.9
		c0.1-0.5,0.2-0.9,0.3-1.3c-0.4,0.6-1.1,1.2-2.1,1.6C38.1,33.3,38.1,33.3,38,33.3z"/>
	<path fill="#FFFFFF" d="M37.2,23.9c-0.1-0.1-0.2-0.2-0.3-0.3c-0.1-0.1-0.2-0.2-0.4-0.3l-0.1-0.1c0,0-0.1,0-0.1,0
		c-0.5,0.2-1.7,0.5-2.3,1.2c0,0,0,0,0,0c-0.1,0.3-0.2,0.6-0.4,0.9c-0.3,0.6-0.6,1.1-1.1,1.8c-0.1,0.1-0.2,0.3-0.3,0.4c0,0,0,0,0,0
		l0,0c0,0,0,0,0,0c0,0,0,0,0,0c0,0,0,0,0,0c0,0,0,0,0,0l-1.5,0.9c0,0,0,0,0.1,0.1c0.1,0.1,0.3,0.2,0.4,0.3c1.7-0.7,4.2-3.2,4.6-3.6
		l0,0c0,0,0-0.1,0-0.1c0-0.1,0.1-0.2,0.2-0.2c0.1,0,0.2,0,0.3,0.1l0.5,0.4c0.6-0.4,1.3-0.5,1.8-0.5C38.1,24.7,37.7,24.4,37.2,23.9z"
		/>
	<path fill="#FFFFFF" d="M31.8,40.2c-0.7-0.4-1.4-0.8-2-1.3c-0.3-0.2-0.6-0.5-1-0.7c-0.3-0.2-0.5-0.4-0.8-0.6c0,0-0.1-0.1-0.1-0.1
		c0.1,0.6,0.2,1.3-0.2,1.9c0.2,0.2,0.5,0.4,0.7,0.6c0.3,0.2,0.6,0.4,0.8,0.6c0.3,0.2,0.6,0.5,1,0.7c0.1,0,0.1,0.1,0.2,0.1
		c0.5-0.6,1.2-0.9,1.8-1c0,0,0,0,0,0C32,40.3,31.9,40.3,31.8,40.2z"/>
	<path fill="#FFFFFF" d="M33.9,15.5c-0.1-0.1-0.2-0.1-0.3-0.2c-0.2-0.1-0.3-0.3-0.5-0.4c-0.2-0.1-0.4-0.3-0.6-0.5L31.1,16
		c0,0.2-0.1,0.3-0.2,0.5c-0.1,0.2-0.1,0.4-0.2,0.6c0.6-0.7,1.2-1.2,1.4-1.4c0-0.1,0.1-0.1,0.1-0.1c0.1-0.1,0.2,0,0.3,0
		c0.3,0.2,0.6,0.5,0.8,0.6c0.1,0.1,0.2,0.2,0.3,0.3c0.2-0.3,0.5-0.5,0.7-0.6C34.2,15.8,34.1,15.7,33.9,15.5z"/>
	<path fill="#FFFFFF" d="M18.5,25.3C18.5,25.3,18.5,25.3,18.5,25.3C18.5,25.3,18.5,25.3,18.5,25.3C18.5,25.3,18.5,25.3,18.5,25.3
		c0.1,0,0.1,0,0.1-0.1c0,0,0,0,0,0c0,0,0,0,0.1,0c0,0,0,0,0,0c0,0,0,0,0.1,0c0,0,0,0,0,0c0,0,0,0,0,0c0,0,0,0,0,0c0,0,0,0,0,0
		c0,0,0,0,0,0c0,0,0,0,0,0c0,0,0,0,0,0c0,0,0.8,1.1,4.5,3.7c0.2-0.2,0.4-0.4,0.7-0.6c0.1-0.1,0.2-0.2,0.3-0.3l0,0
		c-0.6-0.4-1.2-0.6-1.6-0.6c0,0,0,0,0,0c0,0,0,0,0,0c0,0-0.1,0-0.1,0c-0.1,0-0.2,0-0.2,0c-0.1,0-0.1,0-0.2-0.1l-4.1-4.2l-1.5,1.3
		c-0.3,0.2-0.5,0.4-0.6,0.5c0.6,0,1.3,0.2,1.9,0.8L18.5,25.3C18.5,25.3,18.5,25.3,18.5,25.3z"/>
	<path fill="#FFFFFF" d="M31,13.9l0.2,0.1c0.1,0.1,0.1,0.1,0.1,0.2l0,0c0,0.1,0,0.2,0,0.3c0,0.1,0,0.2,0,0.3c0,0,0,0,0,0l0.9-1
		c0-0.2-0.1-0.4-0.1-0.5c0-0.1-0.1-0.2-0.1-0.3c0-0.1-0.1-0.2-0.1-0.3c0-0.1-0.1-0.2-0.2-0.2c0,0-0.1-0.1-0.1-0.1
		c-0.1,0.3-0.4,0.7-0.9,1.2C30.8,13.8,30.9,13.8,31,13.9z"/>
	<path fill="#FFFFFF" d="M51,42C50.9,42,50.9,42,51,42c-1.5,2-4.4,4.7-8.5,8c-3,2.4-5.7,4.3-5.8,4.4c-0.1,0-0.1,0.1-0.2,0.1l0,0
		c-0.1,0.1-0.2,0.1-0.3,0.2c-0.1,0.1-0.3,0.2-0.5,0.3l-0.1,0l-0.1,0c-0.4,0.2-0.7,0.4-1.1,0.6c-0.1,0.1-0.3,0.1-0.4,0.2
		c-0.3,0.2-0.7,0.3-1,0.5c0,0,0,0,0,0l0,0c0,0,0,0,0,0c-0.2,0.1-0.4,0.2-0.7,0.2c0,0,0,0,0,0c-0.1,0-0.2,0.1-0.3,0.1c0,0,0,0,0,0
		l-0.3,0.1c-0.1,0-0.1,0-0.2,0.1c0,0,0,0,0,0l-0.1,0c0,0,0,0,0,0L31.1,57c0,0,0,0,0,0c0,0,0,0,0,0L30.8,57c0,0,0,0,0,0
		c-0.1,0-0.3,0.1-0.4,0.1c-0.1,0-0.3,0.1-0.4,0.1l-0.1,0c-0.1,0-0.2,0-0.3,0.1l0,0c0,0,0,0-0.1,0l0,0c0,0,0,0,0,0c0,0,0,0,0,0l0,0
		c0,0,0,0,0,0c-0.2,0-0.3,0-0.4,0c-0.1,0-0.2,0-0.4,0c-0.2,0-0.3,0-0.4,0c-0.1,0-0.1,0-0.2,0l-0.3,0c0,0,0,0,0,0l-0.1,0c0,0,0,0,0,0
		l0,0c0,0,0,0,0,0c0,0,0,0,0,0c0,0,0,0,0,0l-0.2,0l-0.2,0c0,0,0,0,0,0c0,0,0,0,0,0c0,0,0,0,0,0l-0.1,0c-0.1,0-0.3,0-0.4,0
		c-0.2,0-0.3,0-0.4,0l-0.1,0c-0.1,0-0.1,0-0.2,0l0,0c0,0,0,0,0,0c-0.2,0-0.3,0-0.4,0l-0.1,0c-0.1,0-0.2,0-0.3,0l-0.1,0
		c-0.1,0-0.2,0-0.2,0l-0.3-0.1c-0.1,0-0.2,0-0.3-0.1l-0.1,0c-0.1,0-0.2,0-0.3-0.1c0,0,0,0,0,0c0,0,0,0,0,0l0,0c0,0,0,0,0,0
		c0,0,0,0,0,0c0,0,0,0,0,0c0,0,0,0,0,0l0,0l-0.1,0c0,0,0,0,0,0c0,0,0,0,0,0L23,56.8c-0.3-0.1-0.5-0.2-0.7-0.2c0,0,0,0,0,0l0,0
		c-0.2-0.1-0.4-0.1-0.5-0.2l-0.2-0.1c-0.4-0.2-0.7-0.3-0.9-0.4c-0.3-0.1-0.6-0.3-1.1-0.6c0,0,0,0,0,0c0,0,0,0,0,0l-0.1-0.1
		c-0.1,0-0.1-0.1-0.2-0.1l-0.1-0.1l0,0l-0.1,0c0,0-0.1,0-0.1,0c0,0,0,0,0,0L18.9,55c0,0,0,0,0,0c0,0,0,0,0,0c0,0,0,0,0,0l-0.1,0
		c0,0,0,0,0,0c-0.5-0.4-1-0.7-1.4-1c0,0,0,0,0,0c-0.4-0.3-0.6-0.6-0.8-0.7c0,0,0,0,0,0L16.5,53c0,0-0.1-0.1-0.1-0.1l0,0l0.1-0.1
		c0,0,0,0,0,0l-0.1,0.1c-0.1-0.1-0.1-0.1-0.2-0.2l-0.1-0.1c-0.1-0.1-0.2-0.2-0.4-0.4l-0.1-0.1c0,0,0,0,0,0l0,0l0,0c0,0,0,0,0,0
		c-0.4-0.5-0.9-1.2-1.3-1.7l-0.1-0.1c0,0,0,0,0,0l0,0c0,0,0,0,0,0l0,0c0,0,0,0,0,0c0-0.1-0.1-0.1-0.1-0.2c-0.1-0.1-0.1-0.2,0-0.2
		c0-0.1,0-0.2-0.1-0.3c0,0,0,0,0,0l0,0c0,0,0,0,0,0c0,0,0,0,0,0c0,0,0,0,0,0c0-0.1,0-0.2,0-0.3c-0.4,0.1-0.8,0.3-1,0.5
		c0,0,0,0-0.1,0c0,0,0,0,0,0c0,0,0,0-0.1,0c0,0,0,0,0,0c0,0,0,0,0,0c0,0,0,0,0,0c0,0,0,0-0.1,0c0,0,0,0,0,0c0,0,0,0,0,0c0,0,0,0,0,0
		c0,0,0,0,0,0c0,0,0,0,0,0c0,0,0,0,0,0c0,0,0,0,0,0c0,0,0,0,0,0c-0.2-0.3-0.3-0.6-0.4-1c0-0.1-0.1-0.2-0.1-0.2
		c-0.1-0.4-0.3-0.7-0.5-1.1c-0.2-0.4-0.4-0.8-0.5-1.2c-0.2-0.5-0.3-0.9-0.4-1.4c-0.1-0.4-0.1-0.7-0.2-1.1c0,0,0,0,0,0
		c0,0,0-0.1,0-0.1l0-0.1c0,0,0,0,0-0.1c0-1,0.7-1.7,1.3-2.3c0,0,0,0,0,0c0,0,0,0,0,0c0.1-0.1,0.3-0.1,0.4,0c0,0,0.5,0.5,1.2,0.9
		c-0.1-0.2-0.2-0.4-0.2-0.6c0-0.1,0-0.2,0.1-0.3c0.3-0.2,0.4-0.3,1.8-1.3l0.3-0.2c-1.5-1-3.5-0.5-3.5-0.5c0,0,0,0,0,0c0,0,0,0,0,0
		c0,0,0,0,0,0c0,0,0,0,0,0c0,0,0,0,0,0c0,0,0,0,0,0c0,0,0,0,0,0c0,0,0,0,0,0c0,0,0,0-0.1,0c0,0,0,0,0,0c0,0,0,0,0,0c0,0,0,0,0,0
		c0,0,0,0,0,0c0,0,0,0,0,0c0,0,0,0,0,0c0,0,0,0,0,0c-0.2-0.8-0.4-1.6-0.5-2.5l0,0c0-0.1,0-0.2,0-0.3l0,0c0-0.1,0-0.2,0-0.3l0-0.1
		c0-0.1,0-0.1,0-0.2l0,0c0-0.7,0.1-1.5,0.2-2.4c0,0,0,0,0-0.1c0.1-0.2,0.1-0.3,0.2-0.5l0,0c0.2-0.4,0.4-0.8,0.7-1.1
		c0.1-0.1,0.1-0.2,0.2-0.3l0,0c0.2-0.2,0.3-0.4,0.6-0.6c0.2-0.2,0.4-0.4,0.7-0.7c0,0,0,0,0,0c0,0,0,0,0,0c0,0,0,0,0,0c0,0,0,0,0,0
		c0,0,0,0,0.1,0c0,0,0,0,0,0c0,0,0,0,0.1,0c0,0,0,0,0,0c0,0,0,0,0.1,0l0,0c0,0,0,0,0,0c0,0,0,0,0.1,0c0,0,0,0,0,0c0,0,0,0,0,0
		c0,0,0,0,0,0c0,0,0,0,0,0.1c0,0,2,4.1,3.6,5.1c0.4-0.3,0.8-0.6,1.1-0.9c0.1-0.1,0.2-0.2,0.3-0.2c0.1-0.1,0.2-0.2,0.4-0.3
		c-0.8-0.1-2,0.2-2.5,0.3c0,0,0,0,0,0c0,0,0,0-0.1,0l0,0c0,0,0,0-0.1,0c0,0,0,0,0,0c0,0,0,0,0,0c0,0,0,0,0,0c0,0,0,0,0,0
		c0,0,0,0,0,0c0,0,0,0,0,0c0,0,0,0,0,0c0,0,0,0,0,0c0,0,0,0,0,0c0,0,0,0,0,0c-0.1-0.2-0.2-0.4-0.3-0.7l0,0l-0.1-0.1
		c-0.2-0.4-0.4-0.8-0.5-1.2c-0.2-0.4-0.3-0.9-0.4-1.3c0-0.2-0.1-0.4-0.1-0.6c-0.1-0.3-0.1-0.6-0.1-1c0-0.1,0-0.2,0.1-0.2
		c0.3-0.2,0.4-0.4,0.7-0.6c0.2-0.2,0.4-0.4,0.8-0.7l0.9-0.8c-0.9-0.8-2.1-0.5-2.2-0.5c0,0,0,0,0,0c0,0,0,0,0,0c0,0,0,0,0,0
		c0,0,0,0,0,0c0,0,0,0,0,0c0,0,0,0,0,0c0,0,0,0,0,0c0,0,0,0,0,0c0,0,0,0,0,0c0,0,0,0,0,0c0,0,0,0-0.1,0c0,0,0,0,0,0c0,0,0,0,0-0.1
		c0,0,0,0,0,0c0,0,0,0,0,0c0,0,0,0,0,0c0,0,0,0,0,0c0,0,0,0,0-0.1c0,0,0,0,0,0c0-0.4,0-0.8,0-1.2c0-1,0.2-1.9,0.7-3.1c0,0,0,0,0-0.1
		c0.1-0.1,0.2-0.3,0.3-0.4l0-0.1c0,0,0.1-0.1,0.1-0.1c0,0,0.1-0.1,0.1-0.1l0,0c0,0,0.1-0.1,0.1-0.1l0.1-0.1c0.2-0.2,0.5-0.5,0.8-0.8
		c0.2-0.2,0.4-0.4,0.7-0.6c0,0,0,0,0,0c0,0,0,0,0,0c0,0,0,0,0,0c0,0,0,0,0,0c0,0,0,0,0,0c0,0,0,0,0,0c0,0,0,0,0,0c0,0,0,0,0.1,0
		c0,0,0,0,0,0c0,0,0,0,0,0c0,0,0,0,0,0c0,0,0,0,0,0c0,0,0,0,0,0c0,0,0,0,0,0c0,0,0,0,0,0c0,0,0,0,0,0c0,0,0,0,0,0c0,0,0,0,0,0
		c0,0,0,0,0,0c0,0,0,0,0,0c0,0,0,0,0,0c0,0,0,0,0,0c0,0,0.3,0.8,0.9,1.9c-0.1-0.4-0.1-0.7-0.1-1c0-0.1,0-0.2,0-0.3
		c0-0.3,0-0.6,0.1-0.9c0-0.2,0.1-0.4,0.1-0.6c0-0.1,0-0.1,0.1-0.2c0.1-0.1,0.2-0.1,0.3-0.2c0.1-0.1,0.3-0.2,0.6-0.4l0.5-0.4
		c-0.3-0.1-0.7-0.2-1.4-0.3c-0.1,0-0.1,0-0.2,0c0,0,0,0-0.1,0c-0.1,0-0.2-0.1-0.2-0.2c0,0,0,0,0,0c0,0,0,0,0,0c0,0,0,0,0,0
		c0,0,0,0,0,0c0,0,0,0,0,0c0,0,0,0,0,0c0.1-0.3,0.2-0.7,0.3-1c0.1-0.4,0.3-0.7,0.5-1l0-0.1c0.2-0.3,0.4-0.6,0.7-1c0,0,0,0,0.1-0.1
		c0.1-0.1,0.1-0.1,0.2-0.2c0,0,0.1-0.1,0.1-0.1c0.1,0,0.1-0.1,0.2-0.1l0.1,0c0.1,0,0.1-0.1,0.2-0.1c0.1,0,0.1-0.1,0.2-0.1
		c0.2-0.1,0.5-0.3,0.8-0.4c0.2-0.1,0.4-0.2,0.6-0.3c0,0,0,0,0,0c0,0,0,0,0,0c0,0,0,0,0,0c0,0,0,0,0,0c0,0,0,0,0,0c0,0,0,0,0,0
		c0,0,0,0,0,0c0,0,0,0,0,0c0,0,0,0,0,0c0,0,0,0,0,0c0,0,0,0,0,0c0,0,0.1,0,0.1,0.1c0,0,0,0,0,0c0,0,0,0,0,0c0,0,0,0,0,0c0,0,0,0,0,0
		c0,0,0,0,0,0c0,0,0,0,0,0c0,0,0,0,0,0c0,0,0,0,0,0c0,0,0,0,0,0c0,0,0,0,0,0c0,0,0,1.1,0.6,2.2c0.1,0,0.1-0.1,0.2-0.1l0.1-0.1
		c0.1-0.1,0.2-0.2,0.3-0.3c0.1-0.1,0.3-0.2,0.4-0.3l0.2,0.2l-0.2-0.2l0.3-0.2l0.2,0.2l-0.2-0.2l0.1-0.1c0,0,0,0,0.1-0.1
		c-0.2-1.4-1.2-2.5-1.2-2.5c0,0,0,0,0,0c0,0,0,0,0,0c0,0,0,0,0,0c0,0,0,0,0,0c0,0,0,0,0-0.1c0,0,0,0,0,0c0,0,0,0,0,0c0,0,0,0,0-0.1
		c0,0,0,0,0,0c0,0,0,0,0,0c0,0,0,0,0,0c0,0,0,0,0,0c0,0,0,0,0,0c0,0,0,0,0,0c0,0,0,0,0,0c0,0,0,0,0,0c0.1-0.1,0.3-0.2,0.4-0.3
		c0,0,0,0,0,0l0,0c0.1-0.1,0.2-0.1,0.3-0.2c0.1-0.1,0.2-0.1,0.3-0.2c0,0,0.1-0.1,0.1-0.1c0.1,0,0.1-0.1,0.2-0.1
		c0.3-0.2,0.7-0.4,1.1-0.6l0,0c0.1,0,0.1-0.1,0.2-0.1C26.9,8.1,27,8,27.2,8l0,0c0.1,0,0.2,0,0.3,0c0.2,0.1,0.5,0.2,0.7,0.3
		c0.4,0.2,0.8,0.4,1.1,0.6c0.3,0.2,0.6,0.4,1,0.6l0.1,0c0.1,0.1,0.3,0.2,0.4,0.3c0.1,0,0.1,0.1,0.1,0.2c0.1,0.1,0.1,0.2,0,0.3
		c0,0-0.8,1.3-0.9,2.7c0.1,0.1,0.2,0.1,0.2,0.2c0.1,0,0.1,0.1,0.2,0.1c0,0,0,0,0-0.1c0.9-0.8,0.8-1.3,0.8-1.4c0-0.2,0.1-0.3,0.2-0.3
		c0.1,0,0.1,0,0.2,0l0,0c0.3,0.1,0.5,0.2,0.7,0.3c0,0,0.1,0,0.1,0.1c0,0,0.1,0,0.1,0.1c0.1,0,0.1,0.1,0.2,0.1c0,0,0.1,0,0.1,0.1
		l0.1,0.1c0,0,0.1,0,0.1,0.1l0,0c0.1,0.1,0.2,0.1,0.2,0.2l0.1,0.1c0.1,0,0.1,0.1,0.2,0.1c0,0,0.1,0.1,0.1,0.1l0.1,0
		c0.1,0,0.1,0.1,0.2,0.1c0,0,0,0,0.1,0.1c0.1,0.1,0.2,0.2,0.2,0.3c0.1,0.1,0.2,0.3,0.3,0.4c0.1,0.1,0.1,0.2,0.2,0.3c0,0,0,0,0,0l0,0
		c0.3,0.6,0.6,1.2,0.8,2l0,0c0,0,0,0,0,0c0,0,0,0,0,0c0,0,0,0,0,0c0,0,0,0,0,0c0,0,0,0,0,0c0,0,0,0,0,0c0,0,0,0,0,0c0,0,0,0,0,0
		c0,0,0,0,0,0c0,0,0,0,0,0c0,0,0,0,0,0c0,0,0,0,0,0c0,0,0,0,0,0c0,0,0,0,0,0c0,0,0,0,0,0c0,0,0,0,0,0c0,0,0,0-0.1,0c0,0,0,0,0,0
		c0,0,0,0-0.1,0c0,0,0,0,0,0c0,0,0,0,0,0c0,0,0,0,0,0c0,0,0,0,0,0c0,0,0,0,0,0c-0.1,0-0.6-0.2-0.9,0.4c0.4,0.3,0.7,0.6,1.1,0.9
		c0,0,0.1,0.1,0.1,0.2c0,0.1,0,0.2,0,0.3c0,0.2,0.1,0.4,0.1,0.6c0,0.1,0,0.2,0,0.2c0,0.1,0,0.1,0,0.2l0,0c0,0.3,0,0.5,0,0.7l0,0
		c0,0,0,0.1,0,0.1c0,0,0,0,0,0c0.3-0.5,0.7-1,0.8-1.2c0,0,0,0,0,0c0,0,0,0,0,0c0,0,0,0,0,0c0,0,0,0,0,0c0,0,0,0,0,0c0,0,0,0,0,0
		c0,0,0,0,0,0c0,0,0,0,0,0c0,0,0,0,0,0c0,0,0,0,0,0c0,0,0,0,0,0c0,0,0,0,0,0c0,0,0,0,0.1,0c0,0,0,0,0,0c0,0,0,0,0,0c0,0,0,0,0,0
		c0,0,0,0,0,0c0,0,0,0,0,0c0,0,0,0,0,0c0,0,0,0,0,0c0,0,0,0,0,0c0,0,0,0,0,0l0.2,0.2c0.1,0.1,0.2,0.2,0.3,0.3l0.1,0.1
		c0.4,0.4,0.7,0.7,0.9,1l0.1,0.1c0,0,0.1,0.1,0.1,0.1l0.1,0.1c0.1,0.2,0.3,0.4,0.4,0.5c0,0,0,0,0,0.1l0,0.1c0.1,0.3,0.2,0.5,0.2,0.7
		c0.2,0.5,0.3,0.9,0.3,1.4c0,0.1,0,0.3,0.1,0.5c0,0.2,0,0.4,0,0.7c0,0.1,0,0.1,0,0.2l0,0.1c0,0.2,0,0.4,0,0.6c0,0,0,0,0,0
		c0,0,0,0,0,0c0,0,0,0,0,0c0,0,0,0,0,0.1c0,0,0,0,0,0c0,0,0,0,0,0c0,0,0,0,0,0c0,0,0,0,0,0c0,0,0,0-0.1,0.1c0,0,0,0,0,0
		c0,0,0,0-0.1,0c0,0,0,0,0,0c0,0,0,0,0,0c0,0,0,0,0,0c0,0,0,0,0,0c0,0,0,0,0,0c0,0,0,0,0,0c0,0,0,0,0,0c0,0,0,0,0,0c0,0,0,0,0,0
		c0,0,0,0,0,0c0,0,0,0,0,0c0,0,0,0,0,0c0,0-1.1-0.5-2.1,0.1c0,0,0.1,0.1,0.1,0.1c1.2,1,1.6,1.5,2.2,2.1c0.1,0.1,0.1,0.1,0.1,0.2
		l0,0.2c0,0.1,0,0.3,0,0.4c-0.1,0.5-0.1,1.1-0.4,1.8c-0.1,0.2-0.2,0.5-0.3,0.7c-0.1,0.2-0.2,0.5-0.3,0.8c0,0.1-0.1,0.2-0.1,0.3
		c1.6-0.8,2.1-2.5,2.1-2.6c0,0,0,0,0,0c0,0,0,0,0,0c0,0,0,0,0-0.1c0,0,0,0,0,0c0,0,0,0,0,0c0,0,0,0,0,0c0,0,0,0,0.1,0c0,0,0,0,0,0
		c0,0,0,0,0,0c0,0,0,0,0.1,0c0,0,0,0,0,0c0,0,0,0,0.1,0c0,0,0,0,0,0l0,0c0,0,0,0,0.1,0c0,0,0,0,0,0c0,0,0,0,0,0c0,0,0,0,0,0
		c0.2,0.2,0.3,0.3,0.5,0.5c0.1,0.1,0.2,0.2,0.3,0.4l0.1,0.1c0.1,0.1,0.2,0.2,0.2,0.3c0.1,0.1,0.1,0.1,0.1,0.2
		c0.1,0.1,0.1,0.2,0.2,0.2c0,0,0.1,0.1,0.1,0.1c0.1,0.1,0.1,0.2,0.2,0.3l0,0c0,0,0,0,0,0l0,0c0.1,0.1,0.1,0.2,0.2,0.3
		c0.1,0.1,0.1,0.2,0.2,0.4l0,0c0,0,0,0.1,0.1,0.1c0,0,0,0.1,0,0.1l0,0.1c0,0,0,0.1,0.1,0.1c0,0,0,0,0,0.1c0,0.2,0,0.3,0.1,0.5
		c0,0.4,0.1,0.7,0.1,1c0,0.5,0,0.9,0,1.4l0,0.1c0,0,0,0.1,0,0.1c0,0.1,0,0.2,0,0.3c0,0.1,0,0.3-0.1,0.5c0,0.1,0,0.2,0,0.3l0,0
		c0,0.1,0,0.2,0,0.3l0,0c0,0.2-0.1,0.4-0.2,0.7c0.1,0,0.2,0,0.3,0c0.1,0,0.2,0.1,0.3,0.2c0,0.1,0.1,0.1,0.2,0.1c0.4,0,0.9,0,1.3,0
		c0.5,0,1,0,1.5,0c0.2,0,0.4,0,0.6,0c1.1,0,2.4,0.2,3.2,1C51.4,40.3,51.2,41.3,51,42z"/>
	<path fill="#FFFFFF" d="M14.3,31.5c0.1,0.5,0.3,1.1,0.5,1.6c0.2,0.5,0.4,1,0.6,1.5l0.1,0.1c0.1,0.3,0.3,0.5,0.4,0.8
		c0,0,0.1,0,0.1,0.1c0,0,0.6,0.5,1.5,1.2c0-0.1-0.1-0.1-0.1-0.2l-0.1-0.1c-0.2-0.3-0.3-0.5-0.5-0.8c-0.1-0.1,0-0.3,0.1-0.4
		c0.1-0.1,0.2-0.1,0.3-0.2c-1-0.8-2.1-2.5-2.8-3.7C14.3,31.4,14.3,31.4,14.3,31.5z"/>
	<path fill="#FFFFFF" d="M17.1,38C17.1,38,17.1,38,17.1,38C17.1,38,17.2,38,17.1,38C17.2,38,17.2,38,17.1,38c0.1,0,0.1,0,0.1,0
		c0,0,0,0,0,0c0,0,0,0,0,0c0,0,0,0,0,0c0,0,0,0,0,0c0,0,0,0,0,0c0,0,0,0,0,0c0,0,0,0,0,0c0,0,0,0,0,0c0,0,0,0,0,0c0,0,0,0,0,0
		c0,0,0,0,0,0c0,0,0,0,0,0c0,0,0,0,0,0c0,0,0.5,0.5,2.1,1.4c-0.4-0.4-0.7-0.8-1-1.2c-0.1-0.1-0.2-0.2-0.3-0.3c0,0-0.1,0-0.1,0
		c-0.1,0-0.1,0-0.2-0.1c-1.2-1-2.2-1.7-2.4-1.9l-2,1.5c-0.4,0.3-0.7,0.5-0.9,0.6c0.9,0,2.1,0.1,3,0.8L17.1,38z"/>
	<path fill="#FFFFFF" d="M30.2,19.3c0,0.1-0.1,0.2-0.3,0.2c-0.2,0.6-0.6,2.1-0.8,3.3c0,0,0.1-0.1,0.1-0.1c0-0.1,0-0.1,0-0.2
		c0.5-1.3,2-3.4,2.2-3.6c0.1-0.3,0.3-0.6,0.4-0.9c0.1-0.3,0.1-0.5,0.2-0.7c0-0.2,0.1-0.5,0.1-0.7C31.5,17.1,30.5,18.2,30.2,19.3z"/>
	<path fill="#FFFFFF" d="M12.7,42.2c0,0.1,0.1,0.1,0.1,0.2l0,0.1c0.5,1.2,1.2,2.1,2.6,3.6c0.2,0,0.4,0.1,0.7,0.1
		c-1.2-1.4-1.9-2.3-2.4-3.4c0,0,0,0,0,0c-0.4-0.2-0.8-0.5-1.1-0.7C12.7,42.1,12.7,42.2,12.7,42.2z"/>
	<path fill="#FFFFFF" d="M29.9,10.6c-0.4,0.2-0.7,0.4-1.1,0.6c-0.3,0.2-0.6,0.3-0.9,0.5l0,0c-0.1,0.1-0.2,0.1-0.3,0.2l0,4.4
		c0,0,0,0.1,0.1,0.1c0.3-0.6,0.1-1.1,0.1-1.4c0-0.1-0.1-0.2-0.1-0.4c0,0,0,0,0,0c0,0,0,0,0,0c0,0,0,0,0-0.1c0,0,0,0,0,0
		c0,0,0,0,0-0.1c0,0,0,0,0,0c0.1-0.1,0.2-0.3,0.2-0.4c0,0,0-0.1,0.1-0.1c0.1-0.1,0.1-0.2,0.1-0.3l0-0.1c0,0,0,0,0,0l0,0
		c0.1-0.3,0.2-0.5,0.2-0.7l0-0.1c0-0.1,0-0.2,0-0.3c0-0.1,0.1-0.2,0.2-0.3c0.1,0,0.2,0,0.3,0.1c0.1,0.1,0.2,0.2,0.4,0.3
		C29.5,11.8,29.7,11.1,29.9,10.6C29.9,10.6,29.9,10.6,29.9,10.6z"/>
	<path fill="#FFFFFF" d="M21.3,22.4l0.2-0.2c0.1-0.1,0.3-0.2,0.4-0.3c-0.7-0.5-1.4-0.3-1.7-0.2c-0.1,0.1-0.1,0.1-0.2,0.2
		c0.3,0.3,0.5,0.7,0.8,1C21,22.7,21.2,22.6,21.3,22.4z"/>
	<path fill="#FFFFFF" d="M35.3,21.2c0,0.2-0.1,0.4-0.1,0.7c0,0.1-0.1,0.2-0.2,0.2c0,0-0.1,0-0.1,0c-0.1,0-0.1,0-0.2-0.1l0,0
		c-0.4,0-1.1,0-1.5,0.2c0.2,0.2,0.5,0.4,0.7,0.6l0.4,0.3c0.1,0.1,0.1,0.2,0.1,0.3c0.6-0.4,1.4-0.6,1.8-0.7c0,0,0,0,0.1,0
		c0-0.2,0.1-0.3,0.1-0.5c0,0,0-0.1,0-0.1l0,0c0-0.1,0-0.1,0-0.1c0-0.2,0.1-0.4,0.1-0.6l0-0.1c0,0,0-0.1,0-0.1l0,0l0,0
		c0-0.2,0-0.4,0-0.7c0,0,0,0,0,0l0,0c0,0,0-0.1,0-0.1c0-0.1,0-0.1,0-0.2c0,0,0,0,0,0C36.1,20.3,35.7,20.9,35.3,21.2z"/>
	<path fill="#FFFFFF" d="M30.1,17.6c-0.1-0.1-0.2-0.2-0.3-0.3c-0.3-0.3-0.7-0.7-1-1.1c-0.1-0.1-0.2-0.2-0.3-0.4
		c0,0.3-0.1,0.7-0.4,1.2c0.1,0.2,0.3,0.4,0.5,0.6c0.4,0.4,0.7,0.8,1,1.1c0,0,0.1,0.1,0.1,0.2c0.2-0.4,0.4-0.8,0.6-1.1c0,0,0,0,0,0
		C30.3,17.7,30.2,17.6,30.1,17.6z"/>
	<path fill="#FFFFFF" d="M21,32c0.2-0.1,0.4-0.3,0.5-0.5c0.1-0.1,0.3-0.2,0.4-0.4c0,0,0,0,0,0c0,0,0,0,0,0c0,0,0,0,0,0c0,0,0,0,0,0
		c0,0,0,0,0,0c0,0,0,0,0,0c0,0,0,0,0,0c0,0,0,0,0,0c0,0,0,0,0,0c0,0,0,0,0,0c0,0,0,0,0,0c0,0,0,0,0,0c0,0,0,0,0,0c0,0,0,0,0,0
		c0,0,0,0,0,0c0.7,0.5,1.7,0.8,2.6,1c-1-0.6-3-1.4-3.9-1.7l-0.2,0.2c-0.1,0.1-0.3,0.2-0.4,0.4c-0.1,0.1-0.3,0.2-0.5,0.4
		c-0.4,0.3-0.7,0.6-1.1,0.9c-0.1,0.1-0.2,0.1-0.2,0.2c-0.2,0.1-0.3,0.2-0.5,0.4c0.7-0.1,1.5-0.2,2,0c0.1-0.1,0.3-0.2,0.4-0.4
		C20.6,32.3,20.8,32.2,21,32z"/>
	<path fill="#FFFFFF" d="M19.8,27.7c0.3,0.7,0.7,1.3,1,1.7c0.1,0.1,0.2,0.3,0.3,0.4c0.4,0.1,2.1,0.8,3.4,1.4
		c-0.1-0.1-0.2-0.3-0.4-0.5c-0.1-0.1-0.2-0.3-0.3-0.4l-0.1-0.1c-0.2-0.2-0.3-0.4-0.5-0.6c-2-1.4-3.2-2.3-3.9-3
		C19.5,27,19.6,27.3,19.8,27.7z"/>
	<path fill="#FFFFFF" d="M24.8,27.8c0.1-0.1,0.2-0.2,0.3-0.3c0.1-0.1,0.1-0.1,0.2-0.2c0.1-0.1,0.2-0.2,0.3-0.3l0.1-0.1
		c0.1-0.1,0.2-0.2,0.2-0.2l0.3-0.4l0.2,0.2l-0.2-0.2l0,0c0.2-0.2,0.5-0.5,0.7-0.8l-0.8-1.2c-0.2,0.2-0.3,0.4-0.5,0.6l-0.2-0.2
		l0.2,0.2c0,0,0,0,0,0l-0.3,0.3c-0.1,0.1-0.1,0.1-0.2,0.2L25,25.6c-0.1,0.1-0.2,0.2-0.2,0.2c0,0-0.1,0.1-0.2,0.1
		c-0.1,0.1-0.2,0.1-0.2,0.2c-0.1,0.1-0.2,0.2-0.4,0.3l0,0c-0.1,0.1-0.2,0.2-0.3,0.2c-0.1,0.1-0.2,0.2-0.3,0.3
		C23.8,27.3,24.3,27.5,24.8,27.8C24.8,27.8,24.8,27.8,24.8,27.8z"/>
	<path fill="#FFFFFF" d="M37.6,38C37.6,38,37.6,38,37.6,38C37.6,38,37.6,38,37.6,38C37.6,38,37.6,38,37.6,38
		C37.6,38,37.7,38,37.6,38c0.1,0,0.1,0,0.1,0c0,0,0,0,0,0c0,0,0,0,0,0c0,0,0,0,0,0l0.2,0.2c0.2,0.2,0.4,0.3,0.6,0.4l0.4,0.3
		c0.1,0.1,0.1,0.1,0.2,0.2c0.1-0.1,0.1-0.1,0.2-0.1l2.4-0.1c0-0.1,0-0.1,0-0.2c0,0,0-0.1,0-0.1c-0.4-0.4-0.9-0.8-1.8-1.5l-0.4-0.3
		c-0.2-0.1-0.4-0.3-0.6-0.4l-0.1-0.1c0,0,0,0,0,0l-1.7,0.6c0,0-0.1,0-0.1,0c0,0,0,0-0.1,0c-0.3,0.4-0.6,0.8-0.9,1.2L37.6,38z"/>
	<path d="M47.5,38.5c-0.2,0-0.4,0-0.6,0c-0.5,0-1,0-1.5,0c-0.4,0-0.9,0-1.3,0c-0.1,0-0.2,0-0.2-0.1c-0.1-0.1-0.2-0.2-0.3-0.2
		c-0.1,0-0.2,0-0.3,0c0.1-0.2,0.1-0.5,0.2-0.7l0,0c0-0.1,0-0.2,0-0.3l0,0c0-0.1,0-0.2,0-0.3c0-0.2,0-0.3,0.1-0.5c0-0.1,0-0.2,0-0.3
		c0,0,0-0.1,0-0.1l0-0.1c0-0.4,0-0.9,0-1.4c0-0.3-0.1-0.6-0.1-1c0-0.2,0-0.3-0.1-0.5c0,0,0-0.1,0-0.1c0,0,0-0.1-0.1-0.1l0-0.1
		c0,0,0-0.1,0-0.1c0,0,0-0.1-0.1-0.1l0,0c-0.1-0.1-0.1-0.3-0.2-0.4c-0.1-0.1-0.1-0.2-0.2-0.3l0,0c0,0,0,0,0,0l0,0
		c-0.1-0.1-0.1-0.2-0.2-0.3c0,0-0.1-0.1-0.1-0.1c-0.1-0.1-0.1-0.2-0.2-0.2c0-0.1-0.1-0.1-0.1-0.2c-0.1-0.1-0.2-0.2-0.2-0.3l-0.1-0.1
		c-0.1-0.1-0.2-0.2-0.3-0.4c-0.1-0.2-0.3-0.3-0.5-0.5c0,0,0,0,0,0c0,0,0,0,0,0c0,0,0,0,0,0c0,0,0,0-0.1,0l0,0c0,0,0,0,0,0
		c0,0,0,0-0.1,0c0,0,0,0,0,0c0,0,0,0-0.1,0c0,0,0,0,0,0c0,0,0,0,0,0c0,0,0,0-0.1,0c0,0,0,0,0,0c0,0,0,0,0,0c0,0,0,0,0,0
		c0,0,0,0,0,0.1c0,0,0,0,0,0c0,0,0,0,0,0c0,0-0.5,1.7-2.1,2.6c0-0.1,0.1-0.2,0.1-0.3c0.1-0.3,0.2-0.5,0.3-0.8
		c0.1-0.3,0.2-0.5,0.3-0.7c0.2-0.7,0.3-1.3,0.4-1.8c0-0.1,0-0.3,0-0.4l0-0.2c0-0.1,0-0.2-0.1-0.2c-0.6-0.6-1.1-1.1-2.2-2.1
		c0,0-0.1-0.1-0.1-0.1c1-0.6,2.1-0.2,2.1-0.1c0,0,0,0,0,0c0,0,0,0,0,0c0,0,0,0,0,0c0,0,0,0,0,0c0,0,0,0,0,0c0,0,0,0,0,0c0,0,0,0,0,0
		c0,0,0,0,0,0c0,0,0,0,0,0c0,0,0,0,0,0c0,0,0,0,0,0c0,0,0,0,0,0c0,0,0,0,0.1,0c0,0,0,0,0,0c0,0,0,0,0.1-0.1c0,0,0,0,0,0c0,0,0,0,0,0
		c0,0,0,0,0,0c0,0,0,0,0,0c0,0,0,0,0-0.1c0,0,0,0,0,0c0,0,0,0,0,0c0,0,0,0,0,0c0-0.2,0-0.4,0-0.6l0-0.1c0-0.1,0-0.1,0-0.2
		c0-0.2,0-0.5,0-0.7c0-0.2,0-0.3-0.1-0.5c-0.1-0.4-0.2-0.9-0.3-1.4c-0.1-0.2-0.1-0.4-0.2-0.7l0-0.1c0,0,0-0.1,0-0.1
		c-0.1-0.2-0.2-0.3-0.4-0.5l-0.1-0.1c0,0-0.1-0.1-0.1-0.1l-0.1-0.1c-0.2-0.3-0.5-0.6-0.9-1l-0.1-0.1c-0.1-0.1-0.2-0.2-0.3-0.3
		l-0.2-0.2c0,0,0,0,0,0c0,0,0,0,0,0c0,0,0,0,0,0c0,0,0,0,0,0c0,0,0,0,0,0c0,0,0,0,0,0c0,0,0,0,0,0c0,0,0,0,0,0c0,0,0,0,0,0
		c0,0,0,0-0.1,0c0,0,0,0,0,0c0,0,0,0,0,0c0,0,0,0,0,0c0,0,0,0,0,0c0,0,0,0,0,0c0,0,0,0,0,0c0,0,0,0,0,0c0,0,0,0,0,0c0,0,0,0,0,0
		c0,0,0,0,0,0c0,0,0,0,0,0c0,0,0,0,0,0c-0.2,0.3-0.5,0.8-0.8,1.2c0,0,0,0,0,0c0,0,0-0.1,0-0.1l0,0c0-0.2,0-0.5,0-0.7l0,0
		c0-0.1,0-0.1,0-0.2c0-0.1,0-0.2,0-0.2c0-0.2,0-0.4-0.1-0.6c0-0.1,0-0.2,0-0.3c0-0.1,0-0.1-0.1-0.2c-0.4-0.3-0.7-0.6-1.1-0.9
		c0.3-0.6,0.9-0.4,0.9-0.4c0,0,0,0,0,0c0,0,0,0,0,0c0,0,0,0,0,0c0,0,0,0,0,0c0,0,0,0,0,0c0,0,0,0,0.1,0c0,0,0,0,0,0c0,0,0,0,0.1,0
		c0,0,0,0,0,0c0,0,0,0,0,0c0,0,0,0,0,0c0,0,0,0,0,0c0,0,0,0,0,0c0,0,0,0,0,0c0,0,0,0,0,0c0,0,0,0,0,0c0,0,0,0,0,0c0,0,0,0,0,0
		c0,0,0,0,0,0c0,0,0,0,0,0c0,0,0,0,0,0c0,0,0,0,0,0c0,0,0,0,0,0c0,0,0,0,0,0l0,0c-0.2-0.8-0.4-1.4-0.8-2l0,0c0,0,0,0,0,0
		c-0.1-0.1-0.1-0.2-0.2-0.3c-0.1-0.1-0.2-0.3-0.3-0.4c-0.1-0.1-0.2-0.2-0.2-0.3c0,0,0,0-0.1-0.1c-0.1,0-0.1-0.1-0.2-0.1l-0.1,0
		c0,0-0.1-0.1-0.1-0.1c-0.1,0-0.1-0.1-0.2-0.1l-0.1-0.1c-0.1-0.1-0.2-0.1-0.2-0.2l0,0c0,0-0.1,0-0.1-0.1l-0.1-0.1c0,0-0.1,0-0.1-0.1
		c-0.1,0-0.1-0.1-0.2-0.1c0,0-0.1,0-0.1-0.1c0,0-0.1,0-0.1-0.1c-0.2-0.1-0.4-0.2-0.7-0.3l0,0c-0.1,0-0.1-0.1-0.2,0
		c-0.2,0-0.3,0.2-0.2,0.3c0,0,0.1,0.6-0.8,1.4c0,0,0,0,0,0.1c-0.1,0-0.1-0.1-0.2-0.1c-0.1-0.1-0.2-0.1-0.2-0.2
		c0.1-1.4,0.9-2.7,0.9-2.7c0.1-0.1,0.1-0.2,0-0.3c0-0.1-0.1-0.2-0.1-0.2c-0.1-0.1-0.3-0.2-0.4-0.3l-0.1,0c-0.3-0.2-0.6-0.4-1-0.6
		c-0.3-0.2-0.7-0.4-1.1-0.6c-0.2-0.1-0.4-0.2-0.7-0.3c-0.1,0-0.2,0-0.3,0l0,0C27,8,26.9,8.1,26.7,8.2c-0.1,0-0.1,0.1-0.2,0.1l0,0
		c-0.4,0.2-0.7,0.4-1.1,0.6c-0.1,0-0.1,0.1-0.2,0.1c0,0-0.1,0.1-0.1,0.1c-0.1,0.1-0.2,0.1-0.3,0.2c-0.1,0.1-0.2,0.1-0.3,0.2l0,0
		c0,0,0,0,0,0c-0.1,0.1-0.3,0.2-0.4,0.3c0,0,0,0,0,0c0,0,0,0,0,0c0,0,0,0,0,0c0,0,0,0,0,0c0,0,0,0,0,0c0,0,0,0,0,0c0,0,0,0,0,0
		c0,0,0,0,0,0c0,0,0,0,0,0.1c0,0,0,0,0,0c0,0,0,0,0,0c0,0,0,0,0,0.1c0,0,0,0,0,0c0,0,0,0,0,0c0,0,0,0,0,0c0,0,0,0,0,0
		c0,0,1,1.2,1.2,2.5c0,0,0,0-0.1,0.1l-0.1,0.1l0.2,0.2l-0.2-0.2l-0.3,0.2l0.2,0.2l-0.2-0.2c-0.1,0.1-0.3,0.2-0.4,0.3
		c-0.1,0.1-0.2,0.2-0.3,0.3l-0.1,0.1c-0.1,0-0.1,0.1-0.2,0.1c-0.6-1.1-0.6-2.2-0.6-2.2c0,0,0,0,0,0c0,0,0,0,0,0c0,0,0,0,0,0
		c0,0,0,0,0,0c0,0,0,0,0,0c0,0,0,0,0,0c0,0,0,0,0,0c0,0,0,0,0,0c0,0,0,0,0,0c0,0,0,0,0,0c0,0-0.1,0-0.1-0.1c0,0,0,0,0,0c0,0,0,0,0,0
		c0,0,0,0,0,0c0,0,0,0,0,0c0,0,0,0,0,0c0,0,0,0,0,0c0,0,0,0,0,0c0,0,0,0,0,0c0,0,0,0,0,0c0,0,0,0,0,0c0,0,0,0,0,0
		c-0.2,0.1-0.4,0.2-0.6,0.3c-0.3,0.1-0.5,0.3-0.8,0.4c-0.1,0-0.1,0.1-0.2,0.1c-0.1,0-0.1,0.1-0.2,0.1l-0.1,0c-0.1,0-0.1,0.1-0.2,0.1
		c0,0-0.1,0.1-0.1,0.1c-0.1,0-0.1,0.1-0.2,0.2c0,0,0,0-0.1,0.1c-0.3,0.4-0.5,0.7-0.7,1l0,0.1c-0.2,0.3-0.3,0.7-0.5,1
		c-0.1,0.3-0.2,0.7-0.3,1c0,0,0,0,0,0c0,0,0,0,0,0c0,0,0,0,0,0c0,0,0,0,0,0c0,0,0,0,0,0c0,0,0,0,0,0c0,0.1,0.1,0.2,0.2,0.2
		c0,0,0,0,0.1,0c0.1,0,0.1,0,0.2,0c0.7,0,1.1,0.1,1.4,0.3l-0.5,0.4c-0.3,0.2-0.4,0.4-0.6,0.4c-0.1,0.1-0.2,0.1-0.3,0.2
		c-0.1,0-0.1,0.1-0.1,0.2c0,0.2-0.1,0.4-0.1,0.6c0,0.3-0.1,0.6-0.1,0.9c0,0.1,0,0.2,0,0.3c0,0.3,0,0.6,0.1,1
		c-0.6-1.1-0.9-1.8-0.9-1.9c0,0,0,0,0,0c0,0,0,0,0,0c0,0,0,0,0,0c0,0,0,0,0,0c0,0,0,0,0,0c0,0,0,0,0,0c0,0,0,0,0,0c0,0,0,0,0,0
		c0,0,0,0,0,0c0,0,0,0,0,0c0,0,0,0,0,0c0,0,0,0,0,0c0,0,0,0,0,0c0,0,0,0,0,0c0,0,0,0-0.1,0c0,0,0,0,0,0c0,0,0,0,0,0c0,0,0,0,0,0
		c0,0,0,0,0,0c0,0,0,0,0,0c0,0,0,0,0,0c0,0,0,0,0,0c-0.3,0.2-0.5,0.4-0.7,0.6c-0.3,0.3-0.5,0.5-0.8,0.8l-0.1,0.1
		c0,0-0.1,0.1-0.1,0.1l0,0c0,0-0.1,0.1-0.1,0.1c0,0-0.1,0.1-0.1,0.1l0,0.1c-0.1,0.1-0.2,0.3-0.3,0.4c0,0,0,0,0,0.1
		c-0.4,1.2-0.6,2.1-0.7,3.1c0,0.4,0,0.8,0,1.2c0,0,0,0,0,0c0,0,0,0,0,0.1c0,0,0,0,0,0c0,0,0,0,0,0c0,0,0,0,0,0c0,0,0,0,0,0
		c0,0,0,0,0,0.1c0,0,0,0,0,0c0,0,0,0,0.1,0c0,0,0,0,0,0c0,0,0,0,0,0c0,0,0,0,0,0c0,0,0,0,0,0c0,0,0,0,0,0c0,0,0,0,0,0c0,0,0,0,0,0
		c0,0,0,0,0,0c0,0,0,0,0,0c0,0,0,0,0,0c0.1,0,1.3-0.3,2.2,0.5L16.5,27c-0.3,0.3-0.6,0.5-0.8,0.7c-0.3,0.2-0.4,0.4-0.7,0.6
		C15,28.4,15,28.4,15,28.5c0,0.3,0.1,0.7,0.1,1c0,0.2,0.1,0.4,0.1,0.6c0.1,0.5,0.2,0.9,0.4,1.3c0.1,0.4,0.3,0.8,0.5,1.2l0.1,0.1l0,0
		c0.1,0.2,0.2,0.5,0.3,0.7c0,0,0,0,0,0c0,0,0,0,0,0c0,0,0,0,0,0c0,0,0,0,0,0c0,0,0,0,0,0c0,0,0,0,0,0c0,0,0,0,0,0c0,0,0,0,0,0
		c0,0,0,0,0,0c0,0,0,0,0,0c0,0,0,0,0.1,0l0,0c0,0,0,0,0.1,0c0,0,0,0,0,0c0.5-0.1,1.8-0.4,2.5-0.3c-0.1,0.1-0.2,0.2-0.4,0.3
		c-0.1,0.1-0.2,0.2-0.3,0.2c-0.4,0.3-0.7,0.6-1.1,0.9c-1.6-1-3.6-5-3.6-5.1c0,0,0,0,0-0.1c0,0,0,0,0,0c0,0,0,0,0,0c0,0,0,0,0,0
		c0,0,0,0-0.1,0c0,0,0,0,0,0l0,0c0,0,0,0-0.1,0c0,0,0,0,0,0c0,0,0,0-0.1,0c0,0,0,0,0,0c0,0,0,0-0.1,0c0,0,0,0,0,0c0,0,0,0,0,0
		c0,0,0,0,0,0c0,0,0,0,0,0c-0.3,0.3-0.5,0.5-0.7,0.7c-0.2,0.2-0.4,0.4-0.6,0.6l0,0c-0.1,0.1-0.1,0.2-0.2,0.3
		c-0.3,0.4-0.5,0.7-0.7,1.1l0,0c-0.1,0.1-0.1,0.3-0.2,0.5c0,0,0,0,0,0.1c-0.2,0.9-0.2,1.7-0.2,2.4l0,0c0,0.1,0,0.1,0,0.2l0,0.1
		c0,0.1,0,0.2,0,0.3l0,0c0,0.1,0,0.2,0,0.3l0,0c0.1,0.9,0.3,1.8,0.5,2.5c0,0,0,0,0,0c0,0,0,0,0,0c0,0,0,0,0,0c0,0,0,0,0,0
		c0,0,0,0,0,0c0,0,0,0,0,0c0,0,0,0,0,0c0,0,0,0,0.1,0c0,0,0,0,0,0c0,0,0,0,0,0c0,0,0,0,0,0c0,0,0,0,0,0c0,0,0,0,0,0c0,0,0,0,0,0
		c0,0,0,0,0,0c0,0,0,0,0,0c0,0,2.1-0.5,3.5,0.5L15,39.6c-1.4,1-1.5,1.1-1.8,1.3c-0.1,0.1-0.1,0.2-0.1,0.3c0.1,0.2,0.2,0.4,0.2,0.6
		c-0.7-0.5-1.2-0.9-1.2-0.9c-0.1-0.1-0.3-0.1-0.4,0c0,0,0,0,0,0c0,0,0,0,0,0c-0.6,0.6-1.3,1.3-1.3,2.3c0,0,0,0,0,0.1l0,0.1
		c0,0,0,0.1,0,0.1c0,0,0,0,0,0c0,0.4,0.1,0.7,0.2,1.1c0.1,0.5,0.2,0.9,0.4,1.4c0.1,0.4,0.3,0.8,0.5,1.2c0.2,0.4,0.3,0.7,0.5,1.1
		c0,0.1,0.1,0.2,0.1,0.2c0.1,0.3,0.2,0.7,0.4,1c0,0,0,0,0,0c0,0,0,0,0,0c0,0,0,0,0,0c0,0,0,0,0,0c0,0,0,0,0,0c0,0,0,0,0,0
		c0,0,0,0,0,0c0,0,0,0,0,0c0,0,0,0,0.1,0c0,0,0,0,0,0c0,0,0,0,0,0c0,0,0,0,0,0c0,0,0,0,0.1,0c0,0,0,0,0,0c0,0,0,0,0.1,0
		c0.2-0.2,0.7-0.5,1-0.5c0,0.1,0,0.2,0,0.3c0,0,0,0,0,0c0,0,0,0,0,0c0,0,0,0,0,0l0,0c0,0,0,0,0,0c0,0.1,0,0.2,0.1,0.3
		c0,0.1,0,0.2,0,0.2c0,0.1,0.1,0.1,0.1,0.2c0,0,0,0,0,0l0,0c0,0,0,0,0,0l0,0c0,0,0,0,0,0l0.1,0.1c0.4,0.5,0.9,1.2,1.3,1.7
		c0,0,0,0,0,0l0,0l0,0c0,0,0,0,0,0l0.1,0.1c0.1,0.2,0.2,0.3,0.4,0.4l0.1,0.1c0.1,0.1,0.1,0.1,0.2,0.2l0.1-0.1c0,0,0,0,0,0l-0.1,0.1
		l0,0c0,0,0.1,0.1,0.1,0.1l0.1,0.1c0,0,0,0,0,0c0.2,0.2,0.5,0.4,0.8,0.7c0,0,0,0,0,0c0.4,0.3,0.9,0.7,1.4,1c0,0,0,0,0,0l0.1,0
		c0,0,0,0,0,0c0,0,0,0,0,0c0,0,0,0,0,0L19,55c0,0,0,0,0,0c0,0,0.1,0,0.1,0l0.1,0l0,0l0.1,0.1c0.1,0,0.1,0.1,0.2,0.1l0.1,0.1
		c0,0,0,0,0,0c0,0,0,0,0,0c0.5,0.3,0.8,0.4,1.1,0.6c0.2,0.1,0.5,0.2,0.9,0.4l0.2,0.1c0.1,0,0.3,0.1,0.5,0.2l0,0c0,0,0,0,0,0
		c0.2,0.1,0.4,0.1,0.7,0.2l0.6,0.1c0,0,0,0,0,0c0,0,0,0,0,0l0.1,0l0,0c0,0,0,0,0,0c0,0,0,0,0,0c0,0,0,0,0,0c0,0,0,0,0,0l0,0
		c0,0,0,0,0,0c0,0,0,0,0,0c0.1,0,0.2,0,0.3,0.1l0.1,0c0.1,0,0.2,0,0.3,0.1l0.3,0.1c0.1,0,0.1,0,0.2,0l0.1,0c0.1,0,0.2,0,0.3,0l0.1,0
		c0.1,0,0.2,0,0.4,0c0,0,0,0,0,0l0,0c0.1,0,0.1,0,0.2,0l0.1,0c0.1,0,0.2,0,0.4,0c0.1,0,0.3,0,0.4,0l0.1,0c0,0,0,0,0,0c0,0,0,0,0,0
		c0,0,0,0,0,0l0.2,0l0.2,0c0,0,0,0,0,0c0,0,0,0,0,0c0,0,0,0,0,0l0,0c0,0,0,0,0,0l0.1,0c0,0,0,0,0,0l0.3,0c0.1,0,0.1,0,0.2,0
		c0.1,0,0.2,0,0.4,0c0.2,0,0.2,0,0.4,0c0.1,0,0.2,0,0.4,0c0,0,0,0,0,0l0,0c0,0,0,0,0,0c0,0,0,0,0,0l0,0c0,0,0,0,0.1,0l0,0
		c0.1,0,0.2,0,0.3-0.1l0.1,0c0.1,0,0.3,0,0.4-0.1c0.2,0,0.3-0.1,0.4-0.1c0,0,0,0,0,0l0.3-0.1c0,0,0,0,0,0c0,0,0,0,0,0l0.3-0.1
		c0,0,0,0,0,0l0.1,0c0,0,0,0,0,0c0.1,0,0.1,0,0.2-0.1l0.3-0.1c0,0,0,0,0,0c0.1,0,0.2-0.1,0.3-0.1c0,0,0,0,0,0
		c0.2-0.1,0.4-0.2,0.7-0.2c0,0,0,0,0,0l0,0c0,0,0,0,0,0c0.4-0.1,0.7-0.3,1-0.5c0.1-0.1,0.3-0.1,0.4-0.2c0.4-0.2,0.7-0.4,1.1-0.6
		l0.1,0l0.1,0c0.2-0.1,0.3-0.2,0.5-0.3c0.1-0.1,0.2-0.2,0.3-0.2l0,0c0.1,0,0.1-0.1,0.2-0.1c0.1-0.1,2.7-1.9,5.8-4.4
		c4.1-3.3,7-5.9,8.5-7.9c0,0,0-0.1,0-0.1c0.2-0.7,0.4-1.7-0.3-2.4C49.9,38.7,48.6,38.6,47.5,38.5z M32.9,55.8
		C32.9,55.8,32.8,55.8,32.9,55.8C32.8,55.8,32.8,55.8,32.9,55.8L32.9,55.8C32.8,55.8,32.8,55.8,32.9,55.8
		C32.8,55.8,32.8,55.8,32.9,55.8c-0.3,0.1-0.5,0.2-0.7,0.3l-0.1,0c0,0,0,0,0,0c0,0-0.1,0-0.1,0c0,0,0,0,0,0l0,0c0,0,0,0,0,0l0,0
		c0,0,0,0,0,0c0,0,0,0,0,0c0,0,0,0,0,0l-0.1,0l0,0c0,0,0,0,0,0l-0.1,0c-0.1,0-0.1,0-0.2,0.1l-0.1,0c0,0-0.1-0.1-0.1-0.1
		c0,0,0,0,0.1,0c0.4-0.2,0.7-0.3,1.1-0.5c0,0,0.1,0,0.1,0c0.2-0.1,0.3-0.2,0.5-0.2c0,0,0.1,0,0.1,0c0.2-0.1,0.3-0.2,0.5-0.3
		c0,0,0,0,0,0l0,0l0.3-0.1c0,0,0,0,0,0c0.1,0,0.1-0.1,0.2-0.1c0.4-0.2,0.8-0.4,1.1-0.7c0.1,0.1,0.2,0.2,0.3,0.3
		c-0.1,0-0.1,0.1-0.2,0.1l-0.1,0c-0.4,0.2-0.7,0.4-1,0.6c-0.1,0.1-0.3,0.1-0.4,0.2C33.5,55.5,33.2,55.7,32.9,55.8z M11.6,45.8
		c-0.1-0.4-0.3-0.9-0.4-1.3c-0.1-0.4-0.1-0.7-0.2-1.1c0,0,0,0,0,0c0,0,0-0.1,0-0.1l0,0c0-0.6,0.4-1.2,0.8-1.7
		c0.1,0.3,0.2,0.6,0.3,0.8c0,0.1,0.1,0.1,0.1,0.2l0,0.1c0.5,1.2,1.2,2.2,2.6,3.6c-0.6,0.5-1.2,1-1.7,1.6l0,0c0,0,0,0.1-0.1,0.1l0,0
		c-0.1,0.1-0.2,0.4-0.3,0.6c0-0.1-0.1-0.2-0.1-0.2c0-0.1-0.1-0.2-0.1-0.2c-0.1-0.4-0.3-0.8-0.5-1.2C11.9,46.6,11.7,46.2,11.6,45.8z
		 M15.7,29.4c0-0.3-0.1-0.5-0.1-0.8c0.2-0.2,0.4-0.3,0.6-0.5c0.2-0.2,0.4-0.4,0.8-0.7l1.6-1.4c0,0,0,0.1,0,0.1
		c0,0.1,0.1,0.3,0.1,0.4c0.2,0.5,0.4,0.9,0.6,1.4c0.4,0.7,0.7,1.3,1,1.8c0.1,0.1,0.1,0.2,0.2,0.3l-0.2,0.1c-0.1,0.1-0.3,0.2-0.4,0.4
		c-0.1,0.1-0.3,0.2-0.4,0.4c-0.3,0.3-0.7,0.6-1.1,0.9c-0.1,0.1-0.2,0.1-0.2,0.2c-0.4,0.3-0.8,0.6-1.2,0.9c-0.1-0.1-0.1-0.2-0.2-0.4
		c0,0,0,0,0,0l-0.1-0.1c-0.2-0.4-0.4-0.8-0.5-1.2c-0.1-0.4-0.3-0.8-0.4-1.3C15.7,29.8,15.7,29.6,15.7,29.4z M15.5,24.2
		c0-0.9,0.2-1.7,0.6-2.9c0.1-0.1,0.2-0.2,0.3-0.4l0-0.1c0,0,0.1-0.1,0.1-0.1c0,0,0.1-0.1,0.1-0.1c0,0,0,0,0,0c0,0,0.1-0.1,0.1-0.1
		l0.1-0.1c0.2-0.2,0.4-0.5,0.7-0.7c0,0,0,0,0.1-0.1c0,0.3,0,0.5,0,0.8c0,0.1,0,0.2,0,0.3c0,0.4,0.1,0.8,0.2,1.3c0,0.1,0,0.2,0.1,0.3
		c0,0.1,0,0.2,0.1,0.3l-1.6,1.4c-0.3,0.3-0.5,0.4-0.7,0.6c0,0-0.1,0.1-0.1,0.1C15.5,24.6,15.5,24.4,15.5,24.2z M18.4,22.7
		c0-0.1-0.1-0.3-0.1-0.4c0-0.1,0-0.2-0.1-0.3c-0.1-0.4-0.1-0.8-0.1-1.2c0-0.1,0-0.2,0-0.3c0-0.1,0-0.3,0-0.4
		c0.4,0.9,1.2,2.1,2.4,3.4c0,0.1,0.1,0.3,0.1,0.4c0,0.1,0.1,0.2,0.1,0.3c0.2,0.4,0.3,0.8,0.5,1.2c0.1,0.2,0.1,0.3,0.2,0.4L18.4,22.7
		z M19.6,15.3c0.1-0.3,0.3-0.6,0.4-0.9l0,0l0,0c0.2-0.3,0.4-0.6,0.6-0.9c0.1,0,0.1-0.1,0.2-0.1c0,0,0.1-0.1,0.1-0.1
		c0.1,0,0.1-0.1,0.2-0.1l0.1,0c0.1,0,0.1-0.1,0.2-0.1c0.1,0,0.1-0.1,0.2-0.1c0.1,0,0.1-0.1,0.2-0.1l0,0c0,0,0,0.1,0,0.1l0,0
		c0,0,0,0.1,0,0.1l0,0c-0.1,0.2-0.1,0.4-0.2,0.6c0,0.1,0,0.2-0.1,0.3L19.6,15.3C19.7,15.3,19.7,15.3,19.6,15.3
		C19.6,15.3,19.6,15.3,19.6,15.3z M24.9,10C25,9.9,25,9.8,25.1,9.8c0.1-0.1,0.2-0.1,0.3-0.2c0,0,0.1-0.1,0.1-0.1
		c0.1,0,0.1-0.1,0.2-0.1c0.3-0.2,0.6-0.4,1-0.6l0,0c0.1,0,0.1-0.1,0.2-0.1c0.1-0.1,0.2-0.1,0.3-0.2c0.2,0.1,0.4,0.2,0.5,0.3
		c0.4,0.2,0.8,0.4,1.1,0.6c0.3,0.2,0.6,0.4,0.9,0.6l0,0c-0.1,0-0.1,0.1-0.2,0.1c-0.4,0.2-0.8,0.4-1.1,0.6c-0.3,0.2-0.6,0.3-0.9,0.6
		l0,0c-0.1,0-0.1,0.1-0.2,0.1c0,0,0,0,0,0c0,0,0,0,0,0c0,0,0,0-0.1,0c-0.2-0.1-0.3-0.2-0.5-0.3c0,0,0,0,0,0l-0.3-0.2
		c-0.1,0-0.1-0.1-0.2-0.1l-0.1-0.1c-0.1,0-0.1-0.1-0.2-0.1l-0.1-0.1c-0.1,0-0.1-0.1-0.2-0.1c-0.1-0.1-0.2-0.1-0.3-0.2l0,0
		c-0.1,0-0.2-0.1-0.2-0.1C25,10.1,24.9,10,24.9,10L24.9,10z M37.9,20.9C37.9,20.9,37.9,20.9,37.9,20.9l0.2,0.2
		c0.1,0.2,0.2,0.3,0.3,0.5l0,0.1c0.1,0.2,0.2,0.5,0.2,0.6c0.1,0.5,0.2,0.9,0.3,1.3c0,0.1,0,0.3,0.1,0.4c0,0.2,0,0.4,0,0.6
		c0,0.1,0,0.1,0,0.2c-0.4-0.4-0.8-0.7-1.5-1.4c-0.1-0.1-0.2-0.2-0.3-0.3c-0.1-0.1-0.2-0.2-0.4-0.3l-0.1-0.1c0-0.2,0.1-0.4,0.1-0.5
		c0,0,0-0.1,0-0.1l-0.3,0l0.3,0c0,0,0-0.1,0-0.1c0-0.2,0.1-0.4,0.1-0.7c0,0,0,0,0-0.1l0,0c0,0,0-0.1,0-0.1l0,0c0-0.2,0-0.5,0-0.7
		l0,0c0-0.1,0-0.1,0-0.1c0-0.1,0-0.1,0-0.2c0.3,0.3,0.6,0.6,0.9,0.9L37.9,20.9z M38.9,28.4L38.9,28.4c0,0.2,0,0.3,0,0.5
		c-0.1,0.5-0.1,1-0.3,1.7c-0.1,0.2-0.1,0.5-0.2,0.7c-0.1,0.2-0.2,0.5-0.3,0.7c-0.1,0.2-0.2,0.4-0.3,0.6c-0.6-0.4-1.1-0.8-1.6-1.2
		c-0.6-0.4-1-0.8-1.5-1.1c-0.2-0.2-0.5-0.4-0.7-0.6c0.1-0.1,0.1-0.1,0.2-0.2c0.5-0.7,0.9-1.3,1.3-2.1c0.2-0.4,0.4-0.8,0.5-1.2
		c0-0.1,0.1-0.2,0.1-0.3c0-0.1,0-0.1,0.1-0.2l0.3,0.3c0.1,0.1,0.3,0.2,0.4,0.3C37.9,27.4,38.3,27.9,38.9,28.4z M41.4,31.1
		C41.4,31.1,41.4,31.2,41.4,31.1c0.1,0.1,0.2,0.2,0.2,0.3c0,0.1,0.1,0.1,0.1,0.2c0.1,0.1,0.1,0.2,0.2,0.2c0,0,0.1,0.1,0.1,0.1
		c0.1,0.1,0.1,0.2,0.2,0.3l0,0.1c0,0,0,0,0,0c0.1,0.1,0.1,0.2,0.2,0.3c0.1,0.1,0.1,0.2,0.2,0.3l0,0c0,0,0,0.1,0.1,0.1
		c0,0,0,0.1,0,0.1l0.1,0.1c0,0,0,0.1,0,0.1c0,0.2,0,0.3,0.1,0.5c0,0.4,0.1,0.7,0.1,1c0,0.5,0,0.9,0,1.3l0,0.1c0,0,0,0.1,0,0.1
		c0,0.1,0,0.2,0,0.3c0,0.1,0,0.3-0.1,0.4c0,0.1,0,0.2,0,0.2l0,0c0,0.1,0,0.2,0,0.2l0,0c-0.1,0.3-0.1,0.6-0.2,0.9
		c-0.5-0.4-1-0.9-2.2-1.8l-0.1-0.1c0,0,0,0,0,0l-0.3-0.3c-0.2-0.1-0.4-0.3-0.6-0.4l0,0c0.2-0.3,0.3-0.6,0.5-0.9
		c0.1-0.3,0.3-0.6,0.4-0.9c0.1-0.3,0.2-0.6,0.3-0.9c0.3-0.9,0.4-1.7,0.4-2.3c0,0,0-0.1,0-0.1c0,0,0,0,0,0
		C41.1,30.9,41.2,31,41.4,31.1L41.4,31.1z M27.3,57.1L27.3,57.1L27.3,57.1L27.3,57.1L27.3,57.1z M19.9,53.7c0.4-0.4,1-0.8,1.8-1.3
		c0,0,0,0,0,0c0.4,0.3,0.8,0.5,1.2,0.8l0.1,0.1c0.1,0.1,0.2,0.1,0.3,0.2c0.8,0.5,1.5,1,2.2,1.4c-1.2,0.6-1.5,0.8-1.7,0.9
		c-0.7-0.3-1.7-0.7-2.8-1.4C20.7,54.2,20.3,54,19.9,53.7z M13.7,42.8C13.7,42.8,13.7,42.8,13.7,42.8c0.5,1.1,1.2,2.1,2.4,3.4
		c-0.3-0.1-0.6-0.1-0.7-0.1c-1.4-1.5-2-2.4-2.6-3.6l0-0.1c0-0.1-0.1-0.1-0.1-0.2c0-0.1-0.1-0.1-0.1-0.2
		C12.9,42.3,13.3,42.5,13.7,42.8z M20,32.8c-0.5-0.2-1.3-0.1-2,0c0.2-0.1,0.3-0.2,0.5-0.4c0.1-0.1,0.2-0.1,0.2-0.2
		c0.4-0.3,0.8-0.6,1.1-0.9c0.2-0.1,0.3-0.2,0.5-0.4c0.2-0.1,0.3-0.2,0.4-0.4l0.2-0.2c0.9,0.3,2.9,1.1,3.9,1.7
		c-0.8-0.2-1.8-0.5-2.6-1c0,0,0,0,0,0c0,0,0,0,0,0c0,0,0,0,0,0c0,0,0,0,0,0c0,0,0,0,0,0c0,0,0,0,0,0c0,0,0,0,0,0c0,0,0,0,0,0
		c0,0,0,0,0,0c0,0,0,0,0,0c0,0,0,0,0,0c0,0,0,0,0,0c0,0,0,0,0,0c0,0,0,0,0,0c0,0,0,0,0,0c-0.2,0.1-0.3,0.3-0.4,0.4
		c-0.2,0.2-0.4,0.3-0.5,0.5c-0.2,0.2-0.4,0.3-0.6,0.5C20.3,32.6,20.1,32.7,20,32.8z M36.9,36l-0.1,0.1l0,0c-0.4,0.6-0.7,1.1-1.2,1.6
		c-0.3,0.4-0.7,0.8-1.1,1.2c-0.3,0.3-0.5,0.5-0.8,0.8c-0.2,0.2-0.4,0.4-0.6,0.5l0,0c-0.2-0.1-0.5-0.3-0.7-0.4
		c-0.1-0.1-0.2-0.1-0.3-0.2c-0.7-0.4-1.3-0.8-1.9-1.3c-0.3-0.2-0.6-0.5-1-0.7c-0.3-0.2-0.5-0.4-0.8-0.6c-0.2-0.2-0.4-0.4-0.7-0.5
		c0.3-0.2,0.5-0.5,0.8-0.7c0.7-0.6,1.2-1.2,1.8-1.7c0.5-0.5,1-1.1,1.5-1.7l0.1-0.1c0.2-0.2,0.3-0.4,0.5-0.6c0.3,0.2,0.6,0.5,0.9,0.7
		c0.5,0.4,1,0.8,1.8,1.4c0.6,0.4,1.3,1,2.1,1.6C37.1,35.7,37,35.9,36.9,36z M37.1,36.9C37.1,36.9,37.1,36.9,37.1,36.9l1.8-0.6
		c0,0,0,0,0,0l0.1,0.1c0.2,0.2,0.4,0.3,0.6,0.4l0.4,0.3c0.9,0.7,1.4,1.1,1.8,1.5c0,0,0,0.1,0,0.1c0,0.1,0,0.1,0,0.2L39.4,39
		c-0.1,0-0.2,0.1-0.2,0.1c-0.1-0.1-0.1-0.1-0.2-0.2l-0.4-0.3c-0.2-0.1-0.4-0.3-0.6-0.4L37.8,38c0,0,0,0,0,0c0,0,0,0,0,0c0,0,0,0,0,0
		c0,0,0,0,0,0c0,0,0,0,0,0c0,0,0,0,0,0c0,0,0,0,0,0c0,0,0,0,0,0l-1.4,0.1C36.4,37.7,36.7,37.3,37.1,36.9C37,36.9,37,36.9,37.1,36.9z
		 M30.6,55.8c-0.6-0.3-1.1-0.6-1.7-0.9c0,0-0.1,0-0.1,0c0.9-0.5,1.7-1,2.5-1.4c0.1-0.1,0.2-0.1,0.4-0.2c0.3-0.2,0.5-0.3,0.8-0.5
		l0.3-0.2c0,0,0,0,0.1-0.1l0.3,0.2c0.1,0.1,0.3,0.2,0.4,0.2l0.1,0.1c0.3,0.2,0.5,0.3,0.6,0.4c0.2,0.1,0.3,0.2,0.4,0.3
		c0,0,0.1,0,0.1,0.1l0,0c-0.3,0.2-0.6,0.4-1,0.6c-0.1,0-0.1,0.1-0.2,0.1l-0.3,0.2C32.5,55,31.6,55.4,30.6,55.8z M27.3,56.8
		c-0.1,0-0.1,0-0.2,0c-0.4-0.1-0.8-0.2-1.2-0.3c-0.4-0.1-0.8-0.3-1.3-0.4c0.3-0.1,0.7-0.4,1.6-0.8c0.3,0.2,0.6,0.3,0.9,0.5
		c0,0,0.1,0,0.1,0c0,0,0.1,0,0.1,0c0.3-0.2,0.6-0.3,0.9-0.5c0.1,0.1,0.3,0.1,0.4,0.2c0,0,0,0,0.1,0c0.1,0.1,0.3,0.2,0.4,0.2
		c0.1,0,0.1,0.1,0.2,0.1c0.1,0.1,0.3,0.1,0.4,0.2c0,0,0.1,0,0.1,0.1c-0.5,0.2-0.9,0.3-1.3,0.4C27.7,56.8,27.4,56.8,27.3,56.8z
		 M23.2,29.7c0.1,0.2,0.3,0.4,0.5,0.6l0.1,0.1c0.1,0.1,0.2,0.3,0.3,0.4c0.1,0.2,0.3,0.3,0.4,0.5c-1.3-0.6-3-1.2-3.4-1.4
		c-0.1-0.1-0.2-0.3-0.3-0.4c-0.3-0.5-0.7-1-1-1.7c-0.2-0.3-0.3-0.7-0.4-1C20,27.3,21.2,28.3,23.2,29.7z M26.1,33
		C26.1,33,26.1,33,26.1,33c0.1,0,0.1,0.1,0.2,0.1l0,0c0.1,0.1,0.2,0.1,0.2,0.2c0.2,0.2,0.4,0.3,0.6,0.5l0,0c0.1,0,0.1,0.1,0.2,0.1
		c0.1,0,0.1,0,0.2-0.1c0.3-0.3,0.6-0.5,0.8-0.7c0.1-0.1,0.1-0.1,0.2-0.2c1.2-0.2,2.1-0.4,2.7-0.6c-0.5,0.5-0.9,1-1.3,1.5
		c-0.5,0.6-1.1,1.1-1.8,1.7c-0.3,0.3-0.7,0.6-1,0.9c-0.2-0.2-0.4-0.4-0.7-0.6c-0.1-0.1-0.2-0.2-0.3-0.3l0,0
		c-0.6-0.6-1.2-1.1-1.7-1.6c-0.1-0.1-0.2-0.2-0.3-0.4c-0.1-0.1-0.1-0.2-0.2-0.2c-0.2-0.2-0.3-0.4-0.5-0.6c-0.1-0.1-0.2-0.3-0.4-0.4
		C24.5,32.7,26,32.9,26.1,33z M31.5,29.3c1.3-0.6,2.7-1.9,3.7-2.8c-0.1,0.2-0.2,0.5-0.3,0.7c-0.4,0.7-0.7,1.3-1.2,2
		c-0.1,0.1-0.2,0.2-0.3,0.4c-0.3,0.1-1.6,0.6-2.8,1.2c0.1-0.1,0.3-0.3,0.4-0.5l0.1-0.1c0.2-0.2,0.3-0.4,0.5-0.6
		C31.6,29.6,31.6,29.4,31.5,29.3z M16.2,47.6c0.5-0.3,1-0.6,1.5-0.8c1-0.6,2.1-1.2,3.1-1.8c0.1,0.1,0.3,0.3,0.4,0.4
		c0.2,0.2,0.4,0.3,0.5,0.5c0.2,0.1,0.3,0.3,0.5,0.4c0.2,0.1,0.3,0.2,0.5,0.4c0.1,0.1,0.3,0.2,0.4,0.3c0.1,0.1,0.3,0.2,0.4,0.3
		c0.7,0.5,1.5,1,2.5,1.6c-0.2,0.2-0.5,0.3-0.8,0.5l-0.2,0.2c-0.1,0-0.1,0.1-0.2,0.1c-0.2,0.1-0.4,0.3-0.6,0.4L24,50.2
		c-0.1,0.1-0.2,0.1-0.3,0.2c-0.1,0.1-0.2,0.1-0.3,0.2l-0.1,0.1c-0.5,0.3-1,0.7-1.6,1l-0.4,0.3c-1.6-1.1-2.8-2-3.8-3l-0.2-0.2
		c-0.2-0.2-0.4-0.4-0.6-0.6C16.6,48,16.4,47.8,16.2,47.6z M24.6,41.8c0.1-0.1,0.3-0.2,0.4-0.3l0.1-0.1c0.5-0.3,0.9-0.7,1.4-1.1
		l-0.2-0.2l0.2,0.2c0.1-0.1,0.2-0.2,0.3-0.3L27,40c0.1-0.1,0.1-0.1,0.2-0.2c0.3,0.2,0.5,0.4,0.8,0.6c0.3,0.2,0.6,0.4,0.8,0.6
		c0.3,0.2,0.6,0.5,1,0.7c0.6,0.4,1.2,0.8,2,1.3c0.1,0.1,0.2,0.1,0.3,0.2c0.2,0.1,0.4,0.2,0.5,0.3c-0.1,0.1-0.2,0.2-0.3,0.2
		c-0.2,0.2-0.4,0.3-0.5,0.5c-0.2,0.1-0.3,0.3-0.5,0.4c-0.2,0.1-0.3,0.2-0.5,0.4c-0.1,0.1-0.3,0.2-0.4,0.3c-0.1,0.1-0.3,0.2-0.4,0.3
		c-0.7,0.5-1.6,1-2.7,1.7c-0.5-0.3-0.9-0.6-1.4-0.8c-0.1-0.1-0.2-0.1-0.3-0.2c-1.7-1.1-2.5-1.8-3.6-2.8c0.3-0.2,0.5-0.3,0.8-0.5
		c0.1-0.1,0.2-0.2,0.4-0.2c0.2-0.1,0.3-0.2,0.5-0.3c0.1-0.1,0.3-0.2,0.5-0.3C24.3,42,24.4,41.9,24.6,41.8z M27.2,37.2
		c0.1,0.4,0.3,1.1,0.1,1.6C27.1,38.1,27.1,37.5,27.2,37.2z M35.6,38.7l1.4-0.1c-0.1,0.1-0.1,0.2-0.2,0.3L36.8,39
		c-0.4,0.6-0.7,1.1-1.2,1.6c-0.3,0.4-0.7,0.8-1.1,1.2c-0.2,0.2-0.5,0.5-0.8,0.8c-0.2,0.2-0.4,0.4-0.6,0.5l0,0
		c-0.2-0.1-0.5-0.3-0.7-0.4c-0.1-0.1-0.2-0.1-0.3-0.2c-0.5-0.3-0.9-0.5-1.3-0.8c0.8-1,2.2-0.8,2.3-0.8c0,0,0,0,0,0c0,0,0,0,0,0
		c0,0,0,0,0,0c0,0,0,0,0,0c0,0,0,0,0,0c0,0,0,0,0,0c0,0,0,0,0,0c0,0,0,0,0,0c0,0,0,0,0,0c0,0,0,0,0,0c0,0,0,0,0,0
		c0.3-0.2,0.5-0.4,0.8-0.7c0.3-0.3,0.6-0.6,0.9-0.8C35.2,39.2,35.4,38.9,35.6,38.7z M39.7,48.3C39.7,48.3,39.7,48.2,39.7,48.3
		L39.7,48.3c-0.1-0.2-0.2-0.2-0.3-0.3l0,0c-0.1-0.1-0.1-0.1-0.2-0.2c0,0-0.1-0.1-0.1-0.1c0,0,0-0.1,0-0.1c0-0.1-0.1-0.2-0.1-0.2
		c-0.6-0.3-1.2-0.7-1.8-1c-1.1-0.6-2.2-1.2-3.3-1.9c-0.1-0.1-0.2-0.1-0.3,0c-0.1,0.1-0.3,0.2-0.4,0.3c-0.2-0.1-0.3-0.1-0.5-0.3
		c0,0-0.1-0.1-0.1-0.1c0.1,0,0.1-0.1,0.2-0.1c0.1-0.1,0.3-0.2,0.4-0.4c1,0.6,2.1,1.2,3.1,1.8c0.6,0.3,1.2,0.7,1.8,1c0,0,0.1,0,0.1,0
		c0.1,0,0.1,0,0.2-0.1c0.7,0,1.6,0.1,1.8,0.2c0.1,0.1,0.2,0.1,0.2,0.2c0.1,0.1,0.2,0.2,0.3,0.3c0,0,0.1,0.1,0.1,0.1
		C40.5,47.7,40.1,48,39.7,48.3z M33.2,51.9l-0.4-0.3c-0.6-0.4-1.1-0.7-1.6-1l-0.4-0.3c-0.1-0.1-0.2-0.1-0.3-0.2L30.1,50
		c-0.2-0.1-0.4-0.3-0.6-0.4c-0.1,0-0.1-0.1-0.2-0.1l-0.2-0.2c-0.3-0.2-0.5-0.4-0.8-0.5c1.1-0.6,1.9-1.1,2.5-1.6c0,0,0,0,0,0
		c0.2-0.1,0.3-0.2,0.4-0.3c0.2-0.1,0.3-0.2,0.4-0.3c0.2-0.1,0.3-0.2,0.5-0.4c0.2-0.1,0.3-0.3,0.5-0.4c0.2-0.2,0.4-0.3,0.5-0.5
		c0.1-0.1,0.3-0.2,0.4-0.4c1,0.6,2.1,1.2,3.1,1.8c0.5,0.3,1,0.6,1.5,0.8c-0.2,0.2-0.3,0.4-0.5,0.6c-0.2,0.2-0.4,0.4-0.6,0.6L37,48.9
		C36,49.9,34.8,50.9,33.2,51.9z M41.6,44.2c0,0.1-0.1,0.1-0.1,0.2c0,0,0,0.1-0.1,0.1c0,0.1-0.1,0.1-0.1,0.2c0,0.1-0.1,0.1-0.1,0.2
		L41,44.9c-0.3,0.4-0.7,0.8-1.1,1.3c-0.3,0-0.8-0.1-1.1-0.1c0.2-0.3,0.5-0.6,0.7-0.8l0.1-0.1c0-0.1,0.1-0.1,0.1-0.2
		c0-0.1,0.1-0.1,0.1-0.2c0,0,0.1-0.1,0.1-0.1c0.1-0.1,0.1-0.1,0.2-0.2l0.1-0.1c0.1-0.1,0.1-0.2,0.1-0.2l0.1-0.1c0,0,0,0,0-0.1l0-0.1
		c0,0,0-0.1,0-0.1c0,0,0-0.1,0.1-0.1c0-0.1,0.1-0.1,0.1-0.2c0,0,0.1-0.1,0.1-0.1c0,0,0.1-0.1,0.1-0.1c0-0.1,0.1-0.1,0.1-0.2
		c0-0.1,0.1-0.1,0.1-0.2c0,0,0-0.1,0.1-0.1c0-0.1,0.1-0.1,0.1-0.2l0,0c0,0,0-0.1,0-0.1c0.3,0.1,0.6,0.1,0.9,0.2
		c0.1,0,0.2,0.1,0.3,0.1c0,0,0,0,0,0c0,0.1,0,0.1-0.1,0.2c0,0,0,0.1-0.1,0.1c0,0,0,0.1-0.1,0.1c0,0.1-0.1,0.1-0.1,0.2
		c0,0,0,0.1-0.1,0.1l0,0c0,0,0,0.1,0,0.1l-0.1,0.2C41.7,44,41.7,44,41.6,44.2L41.6,44.2z M40.9,41.6c-0.1,0.3-0.2,0.6-0.3,0.8l0,0
		c0,0.1-0.1,0.1-0.1,0.2c0,0,0,0.1-0.1,0.1c0,0,0,0.1-0.1,0.1c0,0.1,0,0.1-0.1,0.2c0,0,0,0.1-0.1,0.1c0,0,0,0.1-0.1,0.1
		c0,0.1-0.1,0.1-0.1,0.2c0,0,0,0.1-0.1,0.1c0,0,0,0,0,0.1l-0.1,0.2c0,0.1-0.1,0.1-0.1,0.2l0,0.1c0,0.1-0.1,0.1-0.1,0.2
		c0,0,0,0.1-0.1,0.1c0,0.1-0.1,0.1-0.1,0.2c0,0.1-0.1,0.1-0.1,0.2l-0.1,0.1c-0.3,0.3-0.6,0.7-1,1.1c-0.5-0.3-1.1-0.6-1.6-0.9
		c-1-0.5-2-1.1-2.9-1.7c0.2-0.1,0.3-0.3,0.5-0.4c0.3-0.3,0.6-0.5,0.8-0.8c0.4-0.4,0.8-0.8,1.2-1.3c0.4-0.5,0.8-1,1.2-1.7l0.1-0.2
		c0.1-0.2,0.2-0.3,0.3-0.5c0.2,0.1,0.4,0.3,0.5,0.4l0.4,0.3c1.3,1,1.8,1.4,2.4,1.9C41,41.4,40.9,41.5,40.9,41.6z M30.3,41.4
		c-0.1,0-0.1-0.1-0.2-0.1c-0.3-0.2-0.6-0.5-1-0.7c-0.3-0.2-0.5-0.4-0.8-0.6c-0.2-0.2-0.5-0.4-0.7-0.6c0.4-0.6,0.3-1.3,0.2-1.9
		c0,0,0.1,0.1,0.1,0.1c0.3,0.2,0.6,0.4,0.8,0.6c0.3,0.3,0.7,0.5,1,0.7c0.6,0.4,1.2,0.8,2,1.3c0.1,0.1,0.2,0.1,0.3,0.2c0,0,0,0,0,0
		C31.5,40.5,30.8,40.8,30.3,41.4z M24.6,50.9c0.2-0.2,0.5-0.3,0.7-0.4c0.5-0.3,0.8-0.5,1.1-0.7c0.2-0.1,0.3-0.2,0.5-0.3
		c0.1-0.1,0.3-0.2,0.4-0.3c0.3,0.2,0.6,0.4,1,0.7l0.2,0.2c0.1,0,0.1,0.1,0.2,0.1c0.2,0.1,0.4,0.3,0.6,0.4l0.3,0.2
		c0.1,0.1,0.2,0.2,0.4,0.2c0.1,0.1,0.2,0.1,0.3,0.2l0.1,0.1c0.5,0.3,1,0.7,1.6,1c0.1,0,0.1,0.1,0.2,0.1c-0.2,0.2-0.5,0.3-0.7,0.5
		c-0.1,0.1-0.2,0.1-0.3,0.2c-1.1,0.7-2.3,1.4-3.8,2.2c-1.1-0.6-2.3-1.3-3.6-2.1c-0.1-0.1-0.2-0.1-0.3-0.2l-0.1-0.1
		c-0.3-0.2-0.6-0.4-0.9-0.6L24.6,50.9z M41.8,47.6C41.8,47.6,41.8,47.5,41.8,47.6L41.8,47.6c-0.1-0.1-0.2-0.2-0.2-0.2
		c-0.1-0.1-0.2-0.2-0.3-0.3c-0.1-0.1-0.1-0.1-0.2-0.2c-0.1-0.1-0.2-0.2-0.3-0.3c-0.1-0.1-0.2-0.1-0.2-0.2c0.4-0.4,0.7-0.8,0.9-1.1
		l0.1-0.1c0-0.1,0.1-0.1,0.1-0.2c0-0.1,0.1-0.1,0.1-0.2c0,0,0.1-0.1,0.1-0.1c0.1-0.1,0.1-0.1,0.2-0.2l0.1-0.1
		c0.1-0.1,0.1-0.2,0.1-0.2l0.1-0.1c0,0,0,0,0-0.1c0,0,0-0.1,0.1-0.1l0,0c0,0,0-0.1,0.1-0.1c0-0.1,0.1-0.1,0.1-0.2
		c0,0,0.1-0.1,0.1-0.1c0,0,0.1-0.1,0.1-0.1c0-0.1,0.1-0.1,0.1-0.2c0-0.1,0.1-0.1,0.1-0.2c0,0,0-0.1,0.1-0.1c0-0.1,0.1-0.1,0.1-0.2
		l0,0c0.1-0.3,0.2-0.5,0.3-0.9c0.1,0.1,0.1,0.1,0.1,0.2c0.3,0.4,0.5,0.6,0.6,0.9c0,0,0,0,0,0c0,0,0,0,0,0c0,0.1,0,0.1,0.1,0.2
		c0,0,0,0,0,0.1l0,0c0,0.1,0,0.1,0,0.2c0,0,0,0,0,0c0,0,0,0,0,0l0,0c0,0,0,0,0,0l0,0.2c0,0,0,0,0,0c0,0.1,0,0.3-0.1,0.4
		c-0.2,1-0.4,1.7-0.8,2.6l-0.1,0.1c0,0,0,0.1,0,0.1l0,0l0.3,0.1L43.2,47c-0.2,0.5-0.5,0.9-0.8,1.5c-0.1-0.1-0.1-0.2-0.2-0.3
		c0,0,0-0.1-0.1-0.1c0-0.1-0.1-0.1-0.2-0.2C41.9,47.7,41.9,47.7,41.8,47.6z M41.5,39.5c-0.1,0.2-0.3,0.3-0.5,0.4
		c-0.1,0-0.1,0.1-0.1,0.2c0,0.1,0,0.2,0,0.2c0,0,0,0,0,0.1c-0.3-0.2-0.6-0.5-1.1-0.9L41.5,39.5z M21.5,43.8c1.1,1.1,1.9,1.8,3.8,3
		c0.1,0.1,0.2,0.1,0.3,0.2c0.5,0.3,0.9,0.6,1.5,0.9c0,0,0.1,0,0.1,0c0.1,0,0.1,0,0.1,0c1-0.6,1.8-1.1,2.4-1.5c0.3,0.1,0.7,0.1,1,0.1
		c-0.1,0.1-0.2,0.1-0.3,0.2l0,0c-0.7,0.5-1.6,1.1-2.9,1.8c0,0-0.1,0.1-0.1,0.1c0,0-0.1-0.1-0.1-0.1c-0.1-0.1-0.2-0.1-0.3,0l-0.1,0.1
		c0,0,0,0,0,0c0,0-0.1-0.1-0.1-0.1c-1.2-0.7-2.1-1.3-2.9-1.8c-0.1-0.1-0.3-0.2-0.4-0.3c-0.2-0.1-0.3-0.2-0.4-0.3
		c-0.2-0.1-0.3-0.2-0.5-0.4c-0.2-0.1-0.3-0.3-0.5-0.4c-0.2-0.1-0.4-0.3-0.5-0.5c-0.2-0.2-0.4-0.3-0.6-0.5c-0.1-0.1-0.2-0.1-0.2-0.1
		c0.1,0,0.1-0.1,0.2-0.1C21.1,44.1,21.3,44,21.5,43.8z M35.4,53.5c-0.1,0-0.1-0.1-0.2-0.2l0,0c0,0-0.1,0-0.1-0.1
		c-0.1-0.1-0.3-0.2-0.4-0.3c-0.2-0.1-0.4-0.3-0.7-0.4l-0.1-0.1c0,0-0.1-0.1-0.1-0.1c1.5-1,2.7-2,3.7-3l0.2-0.2
		c0.2-0.2,0.4-0.4,0.6-0.6c0.2-0.2,0.3-0.3,0.5-0.5c0,0,0.1,0.1,0.1,0.1c0.1,0.1,0.1,0.1,0.2,0.2l0,0c0.1,0.1,0.2,0.2,0.3,0.3l0,0
		c0,0,0.1,0.1,0.1,0.1l0,0c0,0,0,0,0.1,0.1c0.1,0.1,0.1,0.1,0.2,0.2c0.1,0.1,0.1,0.1,0.1,0.2c0,0,0,0,0,0.1c0.1,0.2,0.2,0.4,0.3,0.6
		c-0.4,0.5-0.8,1-1.4,1.6c-0.1,0.1-0.2,0.3-0.4,0.4c-0.7,0.7-1.5,1.4-2.5,2C35.7,53.7,35.5,53.6,35.4,53.5z M33.6,32.1
		c-0.4-0.3-0.8-0.6-1.2-0.9c0,0,0,0,0,0c0,0,0,0,0,0c0,0,0,0,0,0c0,0,0,0,0,0c0,0,0,0,0,0c0,0,0,0,0,0c0,0,0,0,0,0c0,0,0,0,0,0
		c0,0,0,0,0,0c0,0,0,0,0,0c0,0,0,0,0,0c0,0,0,0,0,0c0,0,0,0,0,0c0,0,0,0,0,0c0,0,0,0,0,0c0,0,0,0,0,0c0,0,0,0,0,0c0,0-0.7,0.6-2.6,1
		c1-0.8,3-1.6,4-2c0.3,0.2,0.5,0.4,0.8,0.6c0.4,0.3,0.9,0.7,1.5,1.1c0.2,0.2,0.5,0.4,0.7,0.6c-0.6-0.1-1.4-0.1-2.1,0.1
		c0,0,0,0-0.1,0C34.1,32.5,33.9,32.3,33.6,32.1z M26.3,37.6c0.1-0.1,0.2-0.2,0.3-0.3l0,0c-0.1,0.5-0.1,1.2,0.3,2
		c-0.1,0.1-0.2,0.1-0.2,0.2l-0.2,0.2c-0.1,0.1-0.2,0.2-0.3,0.2c0,0,0,0,0,0c-0.5,0.4-1,0.7-1.4,1.1l-0.1,0.1c-0.1,0-0.1,0.1-0.1,0.1
		c0,0,0,0,0,0c-0.8-0.6-1.5-0.8-2.1-0.9c0.1,0,0.1-0.1,0.2-0.1c0.1-0.1,0.2-0.2,0.4-0.2c0.2-0.1,0.4-0.2,0.5-0.3
		c0.2-0.1,0.3-0.2,0.5-0.3c0.2-0.1,0.3-0.2,0.4-0.3c0.1-0.1,0.3-0.2,0.4-0.3l0.1-0.1C25.3,38.3,25.7,38,26.3,37.6L26.3,37.6z
		 M20.5,40.4c0,0,0.1,0,0.1,0c0,0,0.1,0,0.1,0c0.1,0.1,0.3,0.2,0.4,0.4c0,0,0,0,0,0c0,0,0,0,0,0c0,0,0,0,0,0c0,0,0,0,0,0
		c0,0,0,0,0,0c0,0,0,0,0,0c0,0,0,0,0,0c0,0,0,0,0,0c0,0,0,0,0,0c0,0,0,0,0,0c0,0,0,0,0.1,0c0,0,1.3-0.3,2.6,0.6
		c-0.1,0-0.1,0.1-0.2,0.1c-0.1,0.1-0.3,0.2-0.4,0.3c-0.2,0.1-0.3,0.2-0.5,0.3c-0.1,0.1-0.2,0.2-0.4,0.2c-0.3,0.2-0.6,0.4-0.9,0.6
		c-0.3-0.3-0.5-0.5-0.8-0.8c-0.6-0.6-1-1.1-1.5-1.6c-0.2-0.2-0.4-0.5-0.6-0.7c-0.1-0.2-0.3-0.4-0.4-0.6C18.9,39.7,19.5,40,20.5,40.4
		z M13.5,48.4L13.5,48.4C13.5,48.4,13.6,48.3,13.5,48.4l0.1-0.1c0.5-0.6,1.2-1.1,1.8-1.6c0.3,0,0.7,0.1,1,0.2
		c-0.3,0.1-0.5,0.3-0.7,0.4c-0.1,0-0.1,0.1-0.1,0.2c0,0.1,0,0.2,0.1,0.2c0,0,0,0,0,0c-0.3,0.3-0.7,0.6-0.9,0.9c0,0,0,0,0,0
		c-0.4-0.2-0.9-0.1-1.3,0.1C13.4,48.6,13.5,48.5,13.5,48.4z M14.9,49.2L14.9,49.2C14.9,49.2,15,49.2,14.9,49.2l0.1-0.1
		c0.3-0.3,0.6-0.6,1-1c0.1,0.1,0.2,0.3,0.3,0.4c0.2,0.2,0.4,0.4,0.6,0.6l0.2,0.2c1,1,2.2,1.9,3.8,3c-0.5,0.4-1,0.7-1.3,1l0,0
		c0,0-0.1,0-0.1,0.1l0,0c-0.2,0.2-0.4,0.3-0.5,0.5c-0.7-0.5-1.8-1.3-2.8-2.4c-0.5-0.6-1-1.1-1.5-1.7C14.7,49.6,14.8,49.4,14.9,49.2z
		 M25.4,24.8l-0.2-0.2l-0.3,0.3c-0.1,0.1-0.1,0.1-0.2,0.2l-0.1,0.1c-0.1,0.1-0.2,0.2-0.2,0.2c0,0-0.1,0.1-0.1,0.1
		c-0.1,0.1-0.2,0.1-0.2,0.2c-0.1,0.1-0.2,0.2-0.4,0.3l0,0c-0.1,0.1-0.2,0.2-0.3,0.2c-0.2,0.1-0.3,0.3-0.5,0.4c0-0.1-0.1-0.1-0.1-0.2
		c-0.3-0.4-0.6-0.9-0.9-1.5c-0.2-0.4-0.3-0.7-0.5-1.2c0-0.1-0.1-0.2-0.1-0.3c0-0.1-0.1-0.2-0.1-0.3c0.2-0.2,0.4-0.4,0.6-0.5l0.2-0.2
		c0.2-0.2,0.3-0.3,0.5-0.4c0.1-0.1,0.2-0.2,0.4-0.3c0.1-0.1,0.2-0.2,0.3-0.3c0.1-0.1,0.2-0.2,0.4-0.3c0.1-0.1,0.2-0.2,0.3-0.3
		c0,0,0.1-0.1,0.1-0.1c0,0,0,0,0,0l0,0.1c0.1,0.2,0.2,0.3,0.3,0.5c0.1,0.1,0.1,0.2,0.2,0.3l0,0c0,0,0,0.1,0.1,0.1
		c0.1,0.1,0.1,0.2,0.2,0.3c0.4,0.6,0.7,1,1,1.4c0.1,0.1,0.1,0.1,0.2,0.2c-0.2,0.2-0.4,0.4-0.6,0.6L25.4,24.8z M23.3,15.1
		c-0.6-0.7-1-1.1-1.2-1.3c0-0.1,0-0.2,0-0.2c0-0.2,0.1-0.3,0.1-0.5l0,0c0,0,0-0.1,0-0.1l0,0c0,0,0,0,0-0.1l0,0c0,0,0,0,0-0.1
		c0,0,0,0,0-0.1c0,0,0,0,0,0c0-0.1,0.1-0.1,0.1-0.2c0.1,0.5,0.3,1.2,0.7,1.9c0,0,0,0,0,0c0,0,0,0.1,0,0.1c0,0.1,0,0.3,0,0.4l0,0.1
		c0,0,0,0,0,0C23.3,15,23.3,15.1,23.3,15.1z M21.8,14.3c0.3,0.3,1,1,1.6,1.8c0,0.3,0.1,0.5,0.2,0.8c0,0.1,0,0.1,0.1,0.2l0,0.1
		c0,0.1,0.1,0.3,0.2,0.4l0.1,0.1c0,0,0,0,0,0l0,0c0,0,0,0,0,0c0,0,0,0,0,0.1c0,0,0,0,0,0c0,0,0,0,0,0c0,0,0,0,0,0c0,0,0,0,0,0
		c0,0,0,0,0,0c0,0,0,0,0.1,0c0.3,0.1,0.9,0.3,1.2,0.6c-0.1,0.1-0.3,0.3-0.4,0.4c0,0,0,0,0,0c0,0,0,0,0,0c0,0,0,0,0,0c0,0,0,0,0,0
		c0,0,0,0,0,0c0,0,0,0,0,0c0,0,0,0,0,0c-1.2-1.4-2.3-3.4-2.3-3.4c0,0,0,0,0-0.1c0,0,0,0,0,0c0,0,0,0-0.1,0c0,0,0,0,0,0c0,0,0,0,0,0
		c0,0,0,0-0.1,0c0,0,0,0,0,0c0,0,0,0-0.1,0c0,0,0,0,0,0c0,0,0,0-0.1,0c0,0,0,0,0,0c0,0,0,0,0,0c0,0,0,0,0,0c0,0,0,0,0,0l-0.9,0.7
		c-0.3-0.3-0.8-0.4-1.3-0.4c0.1-0.1,0.2-0.1,0.3-0.2L21.8,14.3z M26.1,15.9c0,0.3,0.1,0.7,0.4,1.1c0,0,0,0,0,0.1
		c-0.1,0.1-0.1,0.2-0.2,0.3l-0.2,0.2c-0.1,0.1-0.1,0.1-0.2,0.2c0,0,0,0.1-0.1,0.1l0,0c-0.1,0.1-0.2,0.2-0.3,0.3
		c-0.3-0.3-0.7-0.5-1-0.6c0.1-0.1,0.2-0.2,0.2-0.2c0.1-0.1,0.2-0.2,0.2-0.2c0.1-0.1,0.2-0.2,0.3-0.3c0,0,0.1-0.1,0.1-0.1l0,0
		c0.1-0.1,0.1-0.2,0.2-0.2l0.2-0.2C26,16.1,26,16,26.1,15.9z M25.8,12.4c-0.1-0.6-0.4-1.2-0.6-1.6c0.1,0,0.2,0.1,0.3,0.1
		c0.1,0,0.1,0.1,0.2,0.1l0.1,0.1c0.1,0,0.1,0.1,0.2,0.1l0.1,0.1c0.1,0,0.1,0.1,0.2,0.1l0.3,0.2l0.1-0.2l-0.1,0.3
		c0.2,0.1,0.4,0.2,0.6,0.3l0,4.4c-0.1,0.1-0.1,0.2-0.2,0.2c-0.4-0.6-0.2-1.4-0.2-1.4c0,0,0-0.1,0-0.1c0-0.1,0-0.2,0-0.3l-0.1-0.1
		c0,0-0.1-0.1-0.1-0.1c0,0,0-0.1-0.1-0.1c0,0-0.1-0.1-0.1-0.1l0-0.1c0,0,0-0.1-0.1-0.1c0-0.1,0-0.1-0.1-0.2c0,0,0-0.1,0-0.1l0,0
		c0,0,0,0,0,0c0,0,0,0,0-0.1l0,0c0-0.1-0.1-0.2-0.1-0.3c0-0.1,0-0.2,0-0.3c0,0,0-0.1,0-0.1c0,0,0,0,0-0.1c0-0.1,0-0.1,0-0.2
		C26,12.6,25.9,12.5,25.8,12.4C25.8,12.4,25.8,12.4,25.8,12.4z M33.7,17.3c0.4,0.3,0.6,0.5,1,0.9c0,0.1,0,0.1,0,0.1
		c0,0.2,0.1,0.4,0.1,0.5c0,0.1,0,0.1,0,0.2c0,0,0,0.1,0,0.1l0,0c0,0.2,0,0.4,0,0.7l0,0c0,0,0,0.1,0,0.1l0,0.1c0,0.2,0,0.4-0.1,0.6
		l0,0c0,0,0,0.1,0,0.1c0,0,0,0,0,0c-0.1,0.1-0.1,0.2-0.1,0.3c-0.7-0.7-1.3-1.2-1.8-1.6c-0.3-0.3-0.5-0.5-0.8-0.8
		c0.1-0.3,0.2-0.5,0.3-0.8c0.1-0.3,0.2-0.5,0.2-0.8c0-0.3,0.1-0.5,0.1-0.8c0,0,0,0,0-0.1c0.1,0.1,0.2,0.2,0.3,0.2
		c0.2,0.2,0.4,0.3,0.5,0.4C33.6,17.2,33.7,17.3,33.7,17.3z M29.3,27.3c-0.4-0.4-0.8-0.8-1.2-1.2L28.1,26C28,26,28,25.9,27.9,25.9
		l0.7-1.4c0.1,0.1,0.1,0.1,0.2,0.2l0.1,0.1c0.4,0.4,0.7,0.7,1,1.1c0.4,0.4,0.8,0.7,1.2,1.1c0.1,0.1,0.3,0.2,0.4,0.4l-1.4,0.8
		C29.8,27.8,29.6,27.6,29.3,27.3z M32.7,21.7c-0.2-0.2-0.5-0.4-0.7-0.6c-0.3-0.3-0.6-0.6-0.9-0.9c0.3-0.4,0.5-0.7,0.6-0.9
		c0.2,0.2,0.5,0.4,0.7,0.7c0.4,0.4,0.9,0.8,1.5,1.4C33.6,21.5,33,21.5,32.7,21.7z M25.5,21.7c0.1,0.5,0.2,0.9,0.3,1.3
		c-0.2-0.3-0.5-0.6-0.7-1c-0.1-0.1-0.1-0.2-0.2-0.3c0,0,0-0.1-0.1-0.1l0,0c-0.1-0.1-0.1-0.2-0.2-0.3c-0.1-0.2-0.2-0.3-0.2-0.5l0-0.1
		c-0.1-0.1-0.1-0.3-0.2-0.4C24.7,20.8,25.2,21.3,25.5,21.7z M27.6,22.7c0.2-0.2,0.3-0.4,0.5-0.6c0.3-0.4,0.5-0.7,0.8-1
		c-0.2,0.9-0.4,1.8-0.5,2.4c0,0,0,0.1,0,0.1c0,0.1-0.1,0.1-0.1,0.2c0,0,0,0,0,0c0,0,0,0,0,0c0,0,0,0,0,0c0,0,0,0,0,0L27.7,25
		L27.6,22.7z M29.2,19.5L29.2,19.5c-0.3,0.5-0.5,0.8-0.7,1.2c-0.2,0.4-0.5,0.7-0.8,1.1c-0.1,0.1-0.2,0.3-0.3,0.4
		c0,0-0.1-0.1-0.1-0.1c-0.3-0.4-0.6-0.8-1-1.4c-0.1-0.1-0.1-0.2-0.2-0.3c0,0-0.1-0.1-0.1-0.1c-0.1-0.1-0.1-0.2-0.2-0.3
		c-0.1-0.2-0.2-0.3-0.2-0.5l0-0.1c0-0.1-0.1-0.1-0.1-0.2c0.1-0.1,0.3-0.3,0.4-0.4c0.1-0.1,0.1-0.2,0.2-0.2c0.1-0.1,0.2-0.2,0.3-0.3
		l0,0c0,0,0.1-0.1,0.1-0.1c0.1-0.1,0.1-0.2,0.2-0.2l0.1-0.1c0,0,0-0.1,0.1-0.1c0.2-0.2,0.3-0.4,0.5-0.7l0,0c0,0,0,0,0,0
		c0.2,0.3,0.4,0.6,0.8,1c0.4,0.4,0.7,0.8,1,1.1c0.1,0.1,0.1,0.1,0.2,0.2C29.3,19.3,29.3,19.4,29.2,19.5z M25.1,20.3
		c0,0.1,0,0.1,0,0.2c-0.8-0.8-1.8-1.5-2.1-1.7c0,0,0,0,0,0l0,0c-0.1-0.2-0.1-0.3-0.2-0.4l0-0.1c0-0.1,0-0.1-0.1-0.1c0,0,0,0,0,0
		c-0.1-0.3-0.2-0.5-0.2-0.8c0-0.1,0-0.2-0.1-0.3C23.1,17.8,24.2,19.4,25.1,20.3z M22.8,19.3c0.2,0.2,0.7,0.5,1.2,0.9c0,0,0,0,0,0
		c-0.1,0-0.2,0-0.3,0.1l-0.1,0.1c-0.1,0.1-0.2,0.2-0.3,0.3c-0.1,0.1-0.2,0.2-0.3,0.3c-0.1,0.1-0.2,0.2-0.3,0.3
		c-0.1,0.1-0.2,0.2-0.3,0.3c0,0,0,0,0,0c-0.5-0.3-1-0.5-1.4-0.5c0.1-0.1,0.2-0.2,0.3-0.3c0.1-0.1,0.2-0.2,0.4-0.3
		c0.1-0.1,0.2-0.2,0.3-0.3c0.1-0.1,0.2-0.2,0.4-0.3c0.1-0.1,0.2-0.2,0.3-0.3C22.7,19.4,22.8,19.4,22.8,19.3z M26.4,23.8
		c0.1-0.1,0.1-0.2,0.1-0.3c-0.1-0.4-0.3-1.3-0.6-2.2c0,0,0-0.1,0-0.1c0.3,0.4,0.6,0.8,0.8,1.1c0.1,0.1,0.2,0.2,0.3,0.3l0.1,2.1
		L26.4,23.8z M31.9,26.9c-0.2-0.1-0.3-0.3-0.5-0.4c-0.5-0.4-0.8-0.7-1.2-1.1c-0.3-0.3-0.7-0.7-1-1.1l-0.1-0.1
		c-0.1-0.1-0.2-0.2-0.3-0.3c0.1-0.2,0.3-0.3,0.4-0.5c0.3-0.4,0.6-0.8,0.9-1.2c0.3-0.4,0.5-0.7,0.7-1.1l0-0.1c0,0,0-0.1,0.1-0.1
		c0.2,0.2,0.4,0.4,0.7,0.6c0.5,0.4,1,0.9,1.9,1.6l0.2,0.2c0,0.1-0.1,0.2-0.1,0.4c0,0.1-0.1,0.2-0.1,0.2c-0.1,0.4-0.3,0.7-0.4,1
		c-0.3,0.5-0.6,1.1-1.1,1.7C32,26.8,32,26.9,31.9,26.9z M36.4,19.9c0,0.1,0,0.1,0,0.2c0,0,0,0.1,0,0.1l0,0c0,0,0,0,0,0
		c0,0.2,0,0.4,0,0.7l0,0l0,0c0,0,0,0.1,0,0.1l0,0.1c0,0.2,0,0.4-0.1,0.6c0,0,0,0.1,0,0.1l0,0c0,0,0,0.1,0,0.1c0,0.2-0.1,0.3-0.1,0.5
		c0,0,0,0-0.1,0c-0.4,0.1-1.1,0.3-1.8,0.7c0-0.1,0-0.2-0.1-0.3l-0.4-0.3c-0.3-0.2-0.5-0.5-0.7-0.6c0.4-0.1,1.1-0.2,1.5-0.2l0,0
		c0.1,0,0.1,0.1,0.2,0.1c0,0,0.1,0,0.1,0c0.1,0,0.2-0.1,0.2-0.2c0.1-0.2,0.1-0.5,0.1-0.7C35.7,20.9,36.1,20.3,36.4,19.9
		C36.4,19.9,36.4,19.9,36.4,19.9z M32,17.2c0,0.2-0.1,0.5-0.2,0.7c-0.1,0.3-0.2,0.5-0.4,0.9c-0.2,0.3-1.7,2.3-2.2,3.6
		c0,0.1,0,0.1,0,0.2c0,0-0.1,0.1-0.1,0.1c0.2-1.1,0.6-2.7,0.8-3.3c0.1,0,0.2-0.1,0.3-0.2c0.3-1.1,1.3-2.2,1.9-2.8
		C32.1,16.8,32,17,32,17.2z M29,12.2c-0.1-0.1-0.2-0.1-0.3-0.1c-0.1,0-0.2,0.1-0.2,0.3c0,0.1,0,0.2,0,0.3l0,0.1
		c0,0.2-0.1,0.5-0.2,0.7l0,0c0,0,0,0,0,0l0,0.1c0,0.1-0.1,0.2-0.1,0.3c0,0,0,0.1-0.1,0.1c-0.1,0.1-0.2,0.3-0.2,0.4c0,0,0,0,0,0
		c0,0,0,0,0,0.1c0,0,0,0,0,0c0,0,0,0,0,0.1c0,0,0,0,0,0c0,0,0,0,0,0c0,0.1,0,0.2,0.1,0.4c0.1,0.3,0.2,0.8-0.1,1.4c0,0,0-0.1-0.1-0.1
		l0-4.4c0.1-0.1,0.2-0.1,0.3-0.2l0,0c0.3-0.2,0.6-0.4,0.9-0.5c0.3-0.2,0.7-0.4,1.1-0.6c0,0,0,0,0,0c-0.2,0.5-0.5,1.2-0.6,1.9
		C29.2,12.4,29.1,12.3,29,12.2z M20.2,21.7c0.3-0.1,1-0.2,1.7,0.2c-0.1,0.1-0.2,0.2-0.4,0.3l-0.2,0.2c-0.2,0.1-0.3,0.3-0.5,0.5
		c-0.3-0.3-0.6-0.7-0.8-1C20,21.9,20.1,21.8,20.2,21.7z M29.7,18.8c-0.1-0.1-0.1-0.1-0.1-0.2c-0.3-0.3-0.7-0.7-1-1.1
		c-0.2-0.2-0.4-0.4-0.5-0.6c0.3-0.4,0.4-0.8,0.4-1.2c0.1,0.1,0.2,0.2,0.3,0.4c0.4,0.4,0.7,0.8,1,1.1c0.1,0.1,0.2,0.2,0.3,0.3
		c0.1,0.1,0.1,0.1,0.2,0.1c0,0,0,0,0,0C30.1,18,29.9,18.4,29.7,18.8z M30.6,14.4L30.6,14.4c0.1,0.1,0.1,0.2,0.1,0.3
		c0,0.1,0,0.2,0,0.3c0,0.3,0,0.5-0.1,0.7c0,0,0,0,0,0c0,0.2-0.1,0.5-0.2,0.7c-0.1,0.2-0.1,0.3-0.2,0.5c0,0,0,0,0,0
		c-0.3-0.3-0.7-0.7-1-1.1c-0.3-0.3-0.5-0.6-0.8-1c0,0-0.1-0.1-0.1-0.2c0.1-0.1,0.1-0.2,0.2-0.3c0,0,0-0.1,0.1-0.1
		c0.1-0.1,0.1-0.2,0.2-0.3l0-0.1c0,0,0,0,0-0.1c0,0,0,0,0,0l0,0c0.1-0.2,0.2-0.4,0.2-0.6c0.1,0.1,0.2,0.2,0.3,0.3c0,0,0,0,0.1,0.1
		c0.1,0.1,0.2,0.2,0.3,0.3c0.1,0.1,0.3,0.2,0.4,0.3C30.3,14.1,30.4,14.2,30.6,14.4z M21.9,16.4c0,0.1,0,0.3,0,0.4
		c0,0.1,0,0.3,0.1,0.4c0,0.3,0.1,0.6,0.2,0.9c0,0,0,0,0,0c0,0.1,0,0.1,0.1,0.2l0,0.1c0,0.1,0.1,0.3,0.2,0.4
		c-0.1,0.1-0.2,0.2-0.2,0.2c-0.1,0.1-0.2,0.2-0.3,0.3c-0.1,0.1-0.2,0.2-0.3,0.3c-0.1,0.1-0.2,0.2-0.3,0.3c-0.1,0.1-0.2,0.2-0.3,0.3
		c-0.1,0.1-0.3,0.3-0.5,0.4l-0.2,0.2c-0.1,0.1-0.2,0.2-0.4,0.3c0,0,0,0,0,0c0-0.1,0-0.2-0.1-0.3c-0.1-0.4-0.1-0.8-0.1-1.2
		c0-0.1,0-0.2,0-0.3c0-0.3,0-0.6,0.1-0.9c0-0.2,0-0.3,0.1-0.5c0.1,0,0.1-0.1,0.2-0.2c0.1-0.1,0.3-0.2,0.6-0.4L21.9,16.4z M23.7,26.9
		c0.1-0.1,0.2-0.2,0.3-0.2l0,0c0.1-0.1,0.3-0.2,0.4-0.3c0.1-0.1,0.2-0.2,0.2-0.2c0.1,0,0.1-0.1,0.2-0.1c0.1-0.1,0.2-0.2,0.2-0.2
		l0.1-0.1c0.1-0.1,0.1-0.1,0.2-0.2l0.3-0.3c0,0,0,0,0,0l-0.2-0.2l0.2,0.2c0.2-0.2,0.4-0.4,0.5-0.6l0.8,1.2c-0.2,0.3-0.5,0.5-0.7,0.8
		l0,0l0.2,0.2l0.2,0.2c0.2-0.2,0.4-0.5,0.6-0.7c0.1,0.1,0.2,0.2,0.3,0.3l0.1,0.1c0.4,0.5,0.8,0.8,1.2,1.2c0.4,0.4,0.9,0.8,1.4,1.3
		c0.2,0.2,0.4,0.4,0.6,0.5c-0.1,0.1-0.2,0.3-0.3,0.4L30.5,30c-0.4,0.5-0.8,0.9-1.2,1.3c-0.4,0.4-0.9,0.9-1.4,1.3
		c-0.2,0.2-0.4,0.4-0.6,0.6c-0.1-0.1-0.3-0.2-0.4-0.4c-0.1-0.1-0.2-0.1-0.2-0.2l0,0c-0.5-0.5-0.9-0.9-1.3-1.3
		c-0.1-0.1-0.2-0.2-0.3-0.3C25,31,25,30.9,24.9,30.9c-0.1-0.1-0.2-0.3-0.4-0.5c-0.1-0.1-0.2-0.3-0.3-0.4l-0.1-0.1
		c-0.1-0.1-0.2-0.3-0.3-0.4c0.2-0.2,0.4-0.4,0.6-0.6c0.1-0.1,0.2-0.2,0.3-0.3l0.1,0c0.1-0.1,0.3-0.3,0.4-0.4
		c0.1-0.1,0.2-0.2,0.3-0.3c0.1-0.1,0.1-0.1,0.2-0.2c0.1-0.1,0.2-0.2,0.3-0.3l0.1-0.1c0.1-0.1,0.2-0.2,0.2-0.2l0.4-0.4c0,0,0,0,0,0
		l-0.2-0.2l-0.2-0.2l-0.3,0.4c-0.1,0.1-0.2,0.2-0.2,0.2l-0.1,0.1c-0.1,0.1-0.2,0.2-0.3,0.3c-0.1,0.1-0.1,0.1-0.2,0.2
		c-0.1,0.1-0.2,0.2-0.3,0.3c0,0,0,0,0,0c-0.5-0.4-1-0.6-1.4-0.7C23.5,27,23.6,27,23.7,26.9z M20.8,32.9c0.2-0.2,0.4-0.3,0.6-0.5
		c0.2-0.2,0.4-0.3,0.6-0.5c0.1-0.1,0.1-0.1,0.2-0.2c0.1,0.2,0.3,0.4,0.4,0.6l0,0l0.1,0.1c0.1,0.2,0.3,0.3,0.4,0.5
		c0.2,0.2,0.3,0.4,0.5,0.6c0.1,0.1,0.1,0.2,0.2,0.2c0.1,0.1,0.2,0.2,0.3,0.4c0.5,0.5,1,1.1,1.7,1.7l0,0c0.1,0.1,0.2,0.2,0.3,0.3
		c0.2,0.2,0.3,0.3,0.5,0.4l-0.3,0.3c-0.1,0.1-0.2,0.2-0.3,0.3l0.2,0.2l-0.2-0.2c-0.5,0.4-1,0.7-1.4,1.1l-0.1,0.1
		c-0.1,0.1-0.2,0.2-0.4,0.3c-0.1,0.1-0.3,0.2-0.4,0.3c-0.1,0.1-0.3,0.2-0.4,0.3c-0.2,0.1-0.3,0.2-0.5,0.3c-0.1,0.1-0.2,0.2-0.4,0.2
		c-0.3,0.2-0.6,0.4-0.9,0.6c-0.3-0.3-0.6-0.5-0.8-0.8c-0.6-0.6-1-1.1-1.5-1.6c-0.2-0.2-0.4-0.5-0.6-0.7c-0.2-0.3-0.4-0.6-0.7-1
		l-0.1-0.1c-0.1-0.2-0.2-0.4-0.4-0.6c0.6-0.5,1.2-0.9,1.7-1.3c0.1-0.1,0.2-0.2,0.3-0.2C19.9,33.6,20.3,33.3,20.8,32.9z M12.7,38.2
		c0.2-0.2,0.5-0.4,0.9-0.6l2-1.5c0.2,0.1,1.2,0.9,2.4,1.9c0.1,0,0.1,0.1,0.2,0.1c0,0,0.1,0,0.1,0c0.1,0.1,0.2,0.2,0.3,0.3
		c0.3,0.4,0.7,0.8,1,1.2c-1.7-0.8-2.1-1.4-2.1-1.4c0,0,0,0,0,0c0,0,0,0,0,0c0,0,0,0,0,0c0,0,0,0,0,0c0,0,0,0,0,0c0,0,0,0,0,0
		c0,0,0,0,0,0c0,0,0,0,0,0c0,0,0,0,0,0c0,0,0,0,0,0c0,0,0,0,0,0c0,0,0,0,0,0c0,0,0,0,0,0c0,0,0,0,0,0c0,0,0,0,0,0c0,0,0,0,0,0
		c0,0,0,0,0,0l-1.4,1C14.8,38.2,13.6,38.1,12.7,38.2z M17.2,38.6c0.1,0.2,0.2,0.4,0.3,0.5l0.1,0.1c0.2,0.4,0.5,0.7,0.7,1
		c0.2,0.3,0.4,0.5,0.6,0.7c0.4,0.6,0.9,1.1,1.5,1.7c0.2,0.2,0.5,0.5,0.7,0.7c-0.2,0.1-0.3,0.2-0.5,0.3c-0.3,0.2-0.5,0.3-0.7,0.5
		c-0.2,0.1-0.4,0.2-0.6,0.3c-0.2,0.1-0.3,0.2-0.5,0.3c-0.2,0.1-0.3,0.2-0.5,0.3c-0.3,0.2-0.6,0.3-0.9,0.5L16.7,46
		c-1.3-1.5-2-2.4-2.5-3.6l0-0.1c0,0,0-0.1-0.1-0.1l0,0c-0.1-0.3-0.3-0.6-0.4-1c0.2-0.2,0.5-0.4,1.6-1.2L17.2,38.6z M24,56.5
		C24,56.5,24,56.5,24,56.5c0,0,0.1,0,0.1,0c0,0,0,0,0,0C24.1,56.5,24,56.5,24,56.5C24,56.5,24,56.5,24,56.5z M30.6,56.5
		C30.6,56.5,30.6,56.5,30.6,56.5C30.6,56.5,30.5,56.5,30.6,56.5C30.5,56.5,30.6,56.5,30.6,56.5z M40.3,31.7
		c-0.1,0.4-0.2,0.8-0.3,1.3c-0.1,0.3-0.2,0.6-0.3,0.9c-0.1,0.3-0.2,0.6-0.4,0.9c-0.2,0.3-0.3,0.7-0.5,1c0,0-0.1,0-0.1,0l-1.2,0.4
		c0.1-0.2,0.2-0.4,0.4-0.6c0.1-0.1,0-0.3-0.1-0.4c-0.9-0.7-1.6-1.2-2.3-1.7c-0.2-0.2-0.4-0.3-0.6-0.4c1.3-0.2,2.8,0.3,2.8,0.3
		c0,0,0,0,0,0c0,0,0,0,0,0c0,0,0,0,0,0c0,0,0,0,0,0c0,0,0,0,0,0l0,0l0,0l0,0c0,0,0,0,0.1,0c0,0,0,0,0,0c0,0,0,0,0,0c0,0,0,0,0,0
		c0,0,0,0,0,0c0,0,0,0,0,0c0,0,0,0,0,0c0,0,0,0,0,0c0,0,0,0,0.1,0c0,0,0.1,0,0.1,0C39.1,32.9,39.8,32.3,40.3,31.7z M36.6,25.5
		l-0.5-0.4C36,25,35.9,25,35.8,25c-0.1,0-0.2,0.1-0.2,0.2c0,0,0,0.1,0,0.1l0,0c-0.4,0.4-2.8,2.9-4.6,3.6c-0.1-0.1-0.3-0.2-0.4-0.3
		c0,0,0,0-0.1-0.1l1.5-0.9c0,0,0,0,0,0c0,0,0,0,0,0c0,0,0,0,0,0c0,0,0,0,0,0l0,0c0,0,0,0,0,0c0.1-0.1,0.2-0.3,0.3-0.4
		c0.5-0.7,0.8-1.3,1.1-1.8c0.1-0.3,0.3-0.6,0.4-0.9c0,0,0,0,0,0c0.6-0.7,1.7-1,2.3-1.2c0,0,0.1,0,0.1,0l0.1,0.1
		c0.1,0.1,0.2,0.2,0.4,0.3c0.1,0.1,0.2,0.2,0.3,0.3c0.6,0.5,0.9,0.8,1.2,1.1C37.9,25,37.2,25.1,36.6,25.5z M33.7,16.5
		c-0.1-0.1-0.2-0.2-0.3-0.3c-0.2-0.2-0.5-0.4-0.8-0.6c-0.1-0.1-0.2-0.1-0.3,0c-0.1,0-0.1,0.1-0.1,0.1c-0.2,0.2-0.8,0.7-1.4,1.4
		c0.1-0.2,0.2-0.4,0.2-0.6c0.1-0.2,0.1-0.4,0.2-0.5l1.4-1.6c0.2,0.2,0.4,0.3,0.6,0.5c0.2,0.2,0.4,0.3,0.5,0.4
		c0.1,0.1,0.2,0.2,0.3,0.2c0.2,0.2,0.3,0.3,0.5,0.4C34.1,16,33.9,16.2,33.7,16.5z M32.5,12.8l0.1,0.1c0,0,0.1,0,0.1,0l0,0
		c0.1,0,0.2,0.1,0.2,0.1l0,0l0,0l0.1,0c0.1,0,0.1,0.1,0.2,0.1c0,0,0.1,0.1,0.1,0.1l0.1,0c0,0,0.1,0.1,0.1,0.1
		c0.1,0.1,0.1,0.2,0.2,0.3c0.1,0.1,0.2,0.3,0.3,0.4c0.1,0.1,0.1,0.2,0.2,0.3l0,0.1c0.2,0.3,0.3,0.6,0.4,0.9
		c-0.1-0.1-0.2-0.2-0.3-0.3c-0.1-0.1-0.2-0.1-0.3-0.2c-0.2-0.1-0.3-0.3-0.5-0.4c-0.2-0.2-0.4-0.3-0.7-0.6c0-0.2-0.1-0.4-0.2-0.6
		c0-0.1-0.1-0.2-0.1-0.3C32.5,12.9,32.4,12.8,32.5,12.8C32.4,12.7,32.5,12.8,32.5,12.8z M31.6,12.5c0,0,0.1,0.1,0.1,0.1
		c0.1,0.1,0.1,0.2,0.2,0.2c0.1,0.1,0.1,0.2,0.1,0.3c0,0.1,0.1,0.2,0.1,0.3c0.1,0.2,0.1,0.3,0.1,0.5l-0.9,1c0,0,0,0,0,0
		c0-0.1,0-0.2,0-0.3c0-0.1,0-0.2,0-0.3l0,0c0-0.1,0-0.2-0.1-0.2L31,13.9c-0.1-0.1-0.2-0.1-0.3-0.2C31.2,13.2,31.5,12.8,31.6,12.5z
		 M25.2,13.6L25.2,13.6L25.2,13.6l0.3-0.3c0,0,0,0,0,0l0,0c0,0.1,0,0.1,0,0.2c0,0.1,0.1,0.2,0.1,0.3l0,0c0,0,0,0,0,0.1
		c0,0,0,0,0,0.1l0,0c0,0,0,0.1,0,0.1c0,0,0,0,0,0c0,0.1,0.1,0.1,0.1,0.2c0,0,0,0.1,0.1,0.2l0,0.1c0,0,0.1,0.1,0.1,0.2
		c0,0,0,0.1,0.1,0.1c0,0,0,0.1,0.1,0.1C26.1,14.9,26,15,26,15.1l0,0c-0.2,0.2-0.3,0.4-0.5,0.6L25.3,16c-0.1,0.1-0.1,0.1-0.2,0.2l0,0
		c0,0-0.1,0.1-0.1,0.1c-0.1,0.1-0.2,0.2-0.3,0.3c-0.1,0.1-0.1,0.2-0.2,0.2c-0.1,0.1-0.1,0.2-0.2,0.2c0,0,0-0.1-0.1-0.1l0-0.1
		c0-0.1,0-0.1-0.1-0.2c-0.1-0.3-0.2-0.5-0.2-0.8c0-0.1,0-0.3-0.1-0.4c0-0.2,0-0.3,0-0.5l0,0c0,0,0,0,0,0l0-0.1c0-0.1,0-0.2,0-0.2
		c0.2-0.1,0.3-0.2,0.4-0.4l0.1-0.1c0.1-0.1,0.2-0.2,0.3-0.3C24.9,13.8,25,13.7,25.2,13.6z M16,25.1c0.2-0.1,0.3-0.3,0.6-0.5l1.5-1.3
		l4.1,4.2c0,0.1,0.1,0.1,0.2,0.1c0,0,0.1,0,0.2,0c0,0,0.1,0,0.1,0c0,0,0,0,0,0c0,0,0,0,0,0c0.4,0.1,1,0.2,1.6,0.6l0,0
		c-0.1,0.1-0.2,0.2-0.3,0.3c-0.2,0.2-0.4,0.4-0.7,0.6c-3.7-2.6-4.5-3.7-4.5-3.7c0,0,0,0,0,0c0,0,0,0,0,0c0,0,0,0,0,0c0,0,0,0,0,0
		c0,0,0,0,0,0c0,0,0,0,0,0c0,0,0,0,0,0c0,0,0,0-0.1,0c0,0,0,0,0,0c0,0,0,0-0.1,0c0,0,0,0,0,0c0,0,0,0,0,0c0,0,0,0,0,0c0,0,0,0,0,0
		c0,0,0,0,0,0c0,0,0,0,0,0l-0.6,0.5C17.3,25.2,16.6,25.1,16,25.1z M17.1,35c-0.1,0.1-0.2,0.1-0.3,0.2c-0.1,0.1-0.2,0.3-0.1,0.4
		c0.2,0.3,0.3,0.5,0.5,0.8l0.1,0.1c0,0.1,0.1,0.1,0.1,0.2C16.6,36,16,35.5,16,35.5c0,0-0.1,0-0.1-0.1c-0.1-0.3-0.3-0.5-0.4-0.8
		l-0.1-0.1c-0.3-0.5-0.5-1-0.6-1.5c-0.2-0.5-0.3-1-0.5-1.6c0-0.1,0-0.1,0-0.2C15,32.5,16.1,34.2,17.1,35z M11.8,32.5
		c0.2-0.4,0.4-0.7,0.7-1c0.1-0.1,0.1-0.2,0.2-0.2l0,0c0.2-0.2,0.3-0.4,0.5-0.6c0.1-0.1,0.2-0.2,0.3-0.3c0,0.2,0.1,0.4,0.1,0.6
		c0,0.2,0.1,0.5,0.1,0.7c0.1,0.6,0.3,1.1,0.5,1.7c0.2,0.5,0.4,1,0.6,1.5l0.1,0.2c0.1,0.2,0.2,0.4,0.3,0.6l-2,1.4
		c-0.9,0.6-1.2,0.9-1.4,1.1c-0.2-0.7-0.3-1.3-0.4-2l0,0c0-0.1,0-0.2,0-0.3l0,0c0-0.1,0-0.2,0-0.3l0-0.1c0-0.1,0-0.1,0-0.2l0,0
		c0-0.7,0.1-1.4,0.2-2.3C11.7,32.8,11.7,32.6,11.8,32.5l-0.3-0.1L11.8,32.5z M19.5,54.6L19.5,54.6c-0.1,0-0.1-0.1-0.1-0.1
		c0,0,0,0,0,0c0,0,0,0,0,0l-0.1-0.1c0,0,0,0,0,0l0,0l0,0l0,0l0,0c0,0,0,0-0.1,0c0.1-0.1,0.2-0.2,0.3-0.3c0.1,0,0.1,0.1,0.2,0.1
		c0.1,0,0.1,0.1,0.2,0.1c0.1,0.1,0.2,0.1,0.3,0.2c0.1,0,0.1,0.1,0.2,0.1c0.2,0.1,0.3,0.2,0.5,0.3l0,0c0,0,0,0,0,0
		c0.2,0.1,0.3,0.2,0.5,0.3c0.7,0.4,1.4,0.7,2.1,1c0,0-0.1,0.1-0.1,0.1l0,0c0,0,0,0,0,0l-0.1,0c-0.3-0.1-0.5-0.1-0.7-0.2l0,0
		c-0.2-0.1-0.4-0.1-0.5-0.2l-0.1-0.1c-0.4-0.2-0.6-0.3-0.9-0.4c-0.3-0.1-0.6-0.3-1-0.5l-0.1-0.1c-0.1,0-0.1-0.1-0.2-0.1L19.5,54.6
		l-0.1,0.3L19.5,54.6z"/>
	<path fill="#FFFFFF" d="M24.1,56.5c0,0-0.1,0-0.1,0c0,0,0,0,0,0c0,0,0,0,0,0C24,56.5,24.1,56.5,24.1,56.5
		C24.1,56.5,24.1,56.5,24.1,56.5z"/>
	<path fill="#FFFFFF" d="M19.5,54.6l0.1,0.1c0.1,0,0.1,0.1,0.2,0.1l0.1,0.1c0.5,0.3,0.7,0.4,1,0.5c0.2,0.1,0.5,0.2,0.9,0.4l0.1,0.1
		c0.1,0,0.3,0.1,0.5,0.2l0,0c0.2,0.1,0.4,0.1,0.7,0.2l0.1,0c0,0,0,0,0,0l0,0c0,0,0.1-0.1,0.1-0.1c-0.7-0.3-1.4-0.7-2.1-1
		c-0.2-0.1-0.3-0.2-0.5-0.3c0,0,0,0,0,0l0,0c-0.2-0.1-0.3-0.2-0.5-0.3c-0.1,0-0.1-0.1-0.2-0.1c-0.1-0.1-0.2-0.1-0.3-0.2
		c-0.1,0-0.1-0.1-0.2-0.1c-0.1,0-0.1-0.1-0.2-0.1c-0.1,0.1-0.2,0.2-0.3,0.3c0,0,0,0,0.1,0l0,0l0,0l0,0l0,0c0,0,0,0,0,0l0.1,0.1
		c0,0,0,0,0,0c0,0,0,0,0,0C19.4,54.6,19.4,54.6,19.5,54.6L19.5,54.6l-0.2,0.2L19.5,54.6z"/>
	<path fill="#FFFFFF" d="M30.6,56.5C30.6,56.5,30.5,56.5,30.6,56.5C30.5,56.5,30.6,56.5,30.6,56.5C30.6,56.5,30.6,56.5,30.6,56.5z"
		/>
	<path fill="#FFFFFF" d="M29.9,56.1c0,0-0.1,0-0.1-0.1c-0.1-0.1-0.3-0.1-0.4-0.2c-0.1,0-0.1-0.1-0.2-0.1c-0.2-0.1-0.3-0.2-0.4-0.2
		c0,0,0,0-0.1,0c-0.1-0.1-0.3-0.1-0.4-0.2c-0.3,0.2-0.6,0.3-0.9,0.5c0,0-0.1,0-0.1,0c0,0-0.1,0-0.1,0c-0.3-0.2-0.6-0.3-0.9-0.5
		c-0.8,0.4-1.3,0.7-1.6,0.8c0.5,0.2,0.9,0.3,1.3,0.4c0.4,0.1,0.8,0.2,1.2,0.3c0.1,0,0.1,0,0.2,0c0.1,0,0.4,0,1.3-0.3
		C29,56.4,29.4,56.3,29.9,56.1z"/>
	<polygon fill="#FFFFFF" points="27.3,57.1 27.3,57.1 27.3,57.1 27.3,57.1 	"/>
	<path fill="#FFFFFF" d="M34.2,55.2c0.3-0.2,0.7-0.4,1-0.6l0.1,0c0.1,0,0.1-0.1,0.2-0.1c-0.1-0.1-0.2-0.2-0.3-0.3
		c-0.4,0.2-0.7,0.5-1.1,0.7c-0.1,0-0.1,0.1-0.2,0.1c0,0,0,0,0,0l-0.3,0.1l0,0c0,0,0,0,0,0c-0.2,0.1-0.3,0.2-0.5,0.3c0,0-0.1,0-0.1,0
		c-0.2,0.1-0.3,0.2-0.5,0.2c0,0-0.1,0-0.1,0c-0.4,0.2-0.7,0.3-1.1,0.5c0,0,0,0-0.1,0c0,0,0.1,0.1,0.1,0.1l0.1,0c0.1,0,0.1,0,0.2-0.1
		l0.1,0c0,0,0,0,0,0l0,0l0.1,0c0,0,0,0,0,0c0,0,0,0,0,0c0,0,0,0,0,0l0,0c0,0,0,0,0,0l0,0c0,0,0,0,0,0c0,0,0.1,0,0.1,0c0,0,0,0,0,0
		l0.1,0c0.2-0.1,0.4-0.2,0.7-0.2c0,0,0,0,0,0c0,0,0,0,0,0l0,0c0,0,0,0,0,0c0,0,0,0,0,0c0.3-0.1,0.7-0.3,1-0.4
		C34,55.3,34.1,55.2,34.2,55.2z"/>
	<path fill="#FFFFFF" d="M23.9,55.8c0.2-0.1,0.4-0.3,1.7-0.9c-0.7-0.4-1.4-0.9-2.2-1.4c-0.1-0.1-0.2-0.1-0.3-0.2L23,53.3
		c-0.5-0.3-0.8-0.6-1.2-0.8c0,0,0,0,0,0c-0.7,0.5-1.3,0.9-1.8,1.3c0.4,0.2,0.8,0.5,1.1,0.7C22.3,55.1,23.3,55.5,23.9,55.8z"/>
	<path fill="#FFFFFF" d="M33.6,54.4c0.1,0,0.2-0.1,0.2-0.1c0.4-0.2,0.7-0.4,1-0.6l0,0c0,0-0.1,0-0.1-0.1c-0.1-0.1-0.3-0.2-0.4-0.3
		c-0.2-0.1-0.4-0.3-0.6-0.4l-0.1-0.1c-0.1-0.1-0.2-0.2-0.4-0.2l-0.3-0.2c0,0,0,0-0.1,0.1l-0.3,0.2c-0.3,0.2-0.5,0.3-0.8,0.5
		c-0.1,0.1-0.2,0.1-0.4,0.2c-0.8,0.5-1.6,0.9-2.5,1.4c0,0,0.1,0,0.1,0c0.5,0.3,1.1,0.6,1.7,0.9c1-0.4,1.8-0.8,2.7-1.2L33.6,54.4z"/>
	<path fill="#FFFFFF" d="M16.1,51.5c1,1.1,2.1,1.8,2.8,2.4c0.1-0.1,0.3-0.3,0.5-0.5l0,0c0,0,0,0,0.1-0.1l0,0c0.3-0.3,0.8-0.6,1.3-1
		c-1.5-1.1-2.7-2-3.8-3l-0.2-0.2c-0.2-0.2-0.4-0.4-0.6-0.6c-0.1-0.1-0.2-0.3-0.3-0.4c-0.4,0.3-0.7,0.6-1,1l0,0c0,0,0,0-0.1,0.1l0,0
		c-0.2,0.2-0.2,0.4-0.3,0.5C15.1,50.4,15.6,50.9,16.1,51.5z"/>
	<path fill="#FFFFFF" d="M23.4,52.9c0.1,0.1,0.2,0.1,0.3,0.2c1.3,0.8,2.5,1.5,3.6,2.1c1.5-0.8,2.7-1.5,3.8-2.2
		c0.1-0.1,0.2-0.1,0.3-0.2c0.3-0.2,0.5-0.3,0.7-0.5c-0.1,0-0.1-0.1-0.2-0.1c-0.6-0.4-1.1-0.7-1.6-1l-0.1-0.1
		C30,51,30,50.9,29.9,50.9c-0.1-0.1-0.2-0.2-0.4-0.2l-0.3-0.2c-0.2-0.1-0.4-0.3-0.6-0.4c-0.1,0-0.1-0.1-0.2-0.1l-0.2-0.2
		c-0.4-0.3-0.7-0.5-1-0.7c-0.2,0.1-0.3,0.2-0.4,0.3c-0.2,0.1-0.3,0.2-0.5,0.3c-0.3,0.2-0.6,0.4-1.1,0.7c-0.2,0.1-0.4,0.3-0.7,0.4
		l-2.1,1.4c0.3,0.2,0.5,0.4,0.9,0.6L23.4,52.9z"/>
	<path fill="#FFFFFF" d="M35.8,53.9c0.9-0.7,1.7-1.3,2.5-2c0.1-0.1,0.2-0.2,0.4-0.4c0.6-0.6,1-1.2,1.4-1.6c-0.1-0.2-0.1-0.4-0.3-0.6
		c0,0,0,0,0-0.1c0-0.1-0.1-0.1-0.1-0.2c0-0.1-0.1-0.1-0.2-0.2c0,0,0,0-0.1-0.1l0,0c0,0,0-0.1-0.1-0.1l0,0c-0.1-0.1-0.2-0.2-0.3-0.3
		l0,0c-0.1-0.1-0.1-0.1-0.2-0.2c0,0-0.1-0.1-0.1-0.1c-0.2,0.2-0.3,0.3-0.5,0.5c-0.2,0.2-0.4,0.4-0.6,0.6l-0.2,0.2
		c-1,1-2.2,1.9-3.7,3c0,0,0.1,0.1,0.1,0.1l0.1,0.1c0.3,0.2,0.5,0.3,0.7,0.4c0.2,0.1,0.3,0.2,0.4,0.3c0,0,0.1,0,0.1,0.1l0,0
		c0.1,0.1,0.1,0.1,0.2,0.2C35.5,53.6,35.7,53.7,35.8,53.9z"/>
	<path fill="#FFFFFF" d="M12.6,48.4c0,0.1,0.1,0.2,0.1,0.2c0.1-0.2,0.2-0.5,0.3-0.6l0,0c0,0,0-0.1,0.1-0.1l0,0
		c0.5-0.6,1.1-1.1,1.7-1.6c-1.3-1.4-2-2.5-2.6-3.6l0-0.1c0-0.1-0.1-0.1-0.1-0.2c-0.1-0.3-0.2-0.5-0.3-0.8c-0.5,0.5-0.8,1-0.8,1.7
		l0,0c0,0,0,0.1,0,0.1c0,0,0,0,0,0c0,0.3,0.1,0.7,0.2,1.1c0.1,0.4,0.2,0.9,0.4,1.3c0.1,0.4,0.3,0.8,0.5,1.2c0.2,0.4,0.4,0.8,0.5,1.2
		C12.6,48.3,12.6,48.3,12.6,48.4z"/>
	<path fill="#FFFFFF" d="M37.2,48.8c0.2-0.2,0.4-0.4,0.6-0.6c0.2-0.2,0.3-0.4,0.5-0.6c-0.5-0.3-1-0.6-1.5-0.8
		c-1-0.6-2.1-1.2-3.1-1.8c-0.1,0.1-0.3,0.3-0.4,0.4c-0.2,0.2-0.4,0.3-0.5,0.5c-0.2,0.1-0.3,0.3-0.5,0.4c-0.2,0.1-0.3,0.2-0.5,0.4
		c-0.1,0.1-0.3,0.2-0.4,0.3c-0.1,0.1-0.3,0.2-0.4,0.3c0,0,0,0,0,0c-0.7,0.5-1.5,1-2.5,1.6c0.2,0.2,0.5,0.4,0.8,0.5l0.2,0.2
		c0.1,0,0.1,0.1,0.2,0.1c0.2,0.1,0.4,0.3,0.6,0.4l0.3,0.2c0.1,0.1,0.2,0.1,0.3,0.2l0.4,0.3c0.5,0.3,1,0.7,1.6,1l0.4,0.3
		c1.6-1.1,2.8-2,3.8-3L37.2,48.8z"/>
	<path fill="#FFFFFF" d="M17.3,48.8l0.2,0.2c1,1,2.2,1.9,3.8,3l0.4-0.3c0.6-0.4,1.1-0.7,1.6-1l0.1-0.1c0.1-0.1,0.2-0.1,0.3-0.2
		c0.1-0.1,0.2-0.1,0.3-0.2l0.3-0.2c0.2-0.1,0.4-0.3,0.6-0.4c0.1,0,0.1-0.1,0.2-0.1l0.2-0.2c0.3-0.2,0.5-0.4,0.8-0.5
		c-1.1-0.6-1.9-1.1-2.5-1.6c-0.2-0.1-0.3-0.2-0.4-0.3c-0.2-0.1-0.3-0.2-0.4-0.3c-0.2-0.1-0.3-0.2-0.5-0.4c-0.2-0.1-0.3-0.3-0.5-0.4
		c-0.2-0.2-0.4-0.3-0.5-0.5c-0.1-0.1-0.3-0.2-0.4-0.4c-1,0.6-2.1,1.2-3.1,1.8c-0.5,0.3-1,0.6-1.5,0.8c0.2,0.2,0.3,0.4,0.5,0.6
		C16.9,48.4,17.1,48.6,17.3,48.8z"/>
	<path fill="#FFFFFF" d="M42.1,48C42.1,48,42.2,48.1,42.1,48c0.1,0.2,0.2,0.3,0.2,0.4c0.3-0.5,0.6-1,0.8-1.5l0.3,0.1L43.2,47l0,0
		c0,0,0-0.1,0-0.1l0.1-0.1c0.4-0.9,0.6-1.6,0.8-2.6c0-0.1,0-0.3,0.1-0.4c0,0,0,0,0,0l0-0.2c0,0,0,0,0,0l0,0c0,0,0,0,0,0c0,0,0,0,0,0
		c0-0.1,0-0.1,0-0.2l0,0c0,0,0,0,0-0.1c0-0.1,0-0.1-0.1-0.2c0,0,0,0,0,0c0,0,0,0,0,0c-0.1-0.2-0.3-0.5-0.6-0.9
		c0-0.1-0.1-0.1-0.1-0.2c-0.1,0.3-0.2,0.6-0.3,0.9l0,0c0,0.1-0.1,0.1-0.1,0.2c0,0,0,0.1-0.1,0.1c0,0.1,0,0.1-0.1,0.2
		c0,0.1-0.1,0.1-0.1,0.2c0,0-0.1,0.1-0.1,0.1c0,0-0.1,0.1-0.1,0.1c0,0.1-0.1,0.1-0.1,0.2c0,0,0,0.1-0.1,0.1l0,0c0,0,0,0.1-0.1,0.1
		c0,0,0,0,0,0.1l-0.1,0.1c0,0.1-0.1,0.2-0.1,0.2L42,44.5c-0.1,0.1-0.1,0.1-0.2,0.2c0,0-0.1,0.1-0.1,0.1c0,0.1-0.1,0.1-0.1,0.2
		c0,0.1-0.1,0.1-0.1,0.2l-0.1,0.1c-0.3,0.3-0.6,0.7-0.9,1.1c0.1,0.1,0.2,0.1,0.2,0.2c0.1,0.1,0.2,0.2,0.3,0.3
		c0.1,0.1,0.2,0.1,0.2,0.2c0.1,0.1,0.2,0.2,0.3,0.3c0,0,0.1,0.1,0.1,0.1l0,0c0,0,0,0,0.1,0.1c0.1,0.1,0.1,0.1,0.2,0.2
		C42,47.9,42.1,47.9,42.1,48z"/>
	<path fill="#FFFFFF" d="M14.1,42.2L14.1,42.2c0,0.1,0.1,0.1,0.1,0.2l0,0.1c0.5,1.2,1.2,2.1,2.5,3.6l0.6-0.3
		c0.4-0.2,0.7-0.4,0.9-0.5c0.2-0.1,0.4-0.2,0.5-0.3c0.2-0.1,0.4-0.2,0.5-0.3c0.2-0.1,0.4-0.2,0.6-0.3c0.3-0.2,0.5-0.3,0.7-0.5
		c0.2-0.1,0.3-0.2,0.5-0.3c-0.2-0.2-0.5-0.5-0.7-0.7c-0.6-0.6-1.1-1.1-1.5-1.7c-0.2-0.2-0.4-0.5-0.6-0.7c-0.2-0.3-0.5-0.6-0.7-1
		l-0.1-0.1c-0.1-0.2-0.2-0.4-0.3-0.5L15.3,40c-1.1,0.8-1.4,1-1.6,1.2C13.8,41.6,14,41.9,14.1,42.2z"/>
	<path fill="#FFFFFF" d="M23.7,42.4c-0.2,0.1-0.3,0.2-0.5,0.3c-0.1,0.1-0.2,0.2-0.4,0.2c-0.3,0.2-0.5,0.3-0.8,0.5
		c1.1,1,1.8,1.7,3.6,2.8c0.1,0.1,0.2,0.1,0.3,0.2c0.4,0.3,0.9,0.5,1.4,0.8c1.2-0.7,2-1.2,2.7-1.7c0.2-0.1,0.3-0.2,0.4-0.3
		c0.2-0.1,0.3-0.2,0.4-0.3c0.2-0.1,0.3-0.2,0.5-0.4c0.2-0.1,0.3-0.3,0.5-0.4c0.2-0.1,0.4-0.3,0.5-0.5c0.1-0.1,0.2-0.2,0.3-0.2
		c-0.2-0.1-0.4-0.2-0.5-0.3c-0.1-0.1-0.2-0.1-0.3-0.2c-0.7-0.4-1.4-0.8-2-1.3c-0.3-0.2-0.6-0.5-1-0.7c-0.3-0.2-0.5-0.4-0.8-0.6
		c-0.2-0.2-0.5-0.4-0.8-0.6c-0.1,0.1-0.2,0.1-0.2,0.2l-0.2,0.2c-0.1,0.1-0.2,0.2-0.3,0.3l-0.2-0.2l0.2,0.2c-0.5,0.4-1,0.8-1.4,1.1
		L25,41.6c-0.1,0.1-0.3,0.2-0.4,0.3c-0.1,0.1-0.3,0.2-0.4,0.3C24,42.2,23.8,42.3,23.7,42.4z"/>
	<path fill="#FFFFFF" d="M38.6,39.4l-0.4-0.3c-0.2-0.1-0.3-0.3-0.5-0.4c-0.1,0.2-0.2,0.3-0.3,0.5l-0.1,0.2c-0.4,0.6-0.8,1.1-1.2,1.7
		c-0.4,0.4-0.7,0.8-1.2,1.3c-0.3,0.2-0.5,0.5-0.8,0.8c-0.2,0.1-0.3,0.3-0.5,0.4c1,0.6,2,1.2,2.9,1.7c0.5,0.3,1.1,0.6,1.6,0.9
		c0.4-0.4,0.7-0.8,1-1.1l0.1-0.1c0-0.1,0.1-0.1,0.1-0.2c0-0.1,0.1-0.1,0.1-0.2c0,0,0.1-0.1,0.1-0.1c0.1-0.1,0.1-0.1,0.1-0.2l0-0.1
		c0.1-0.1,0.1-0.1,0.1-0.2l0.1-0.2c0,0,0,0,0-0.1c0,0,0-0.1,0.1-0.1c0-0.1,0.1-0.1,0.1-0.2c0,0,0-0.1,0.1-0.1c0,0,0-0.1,0.1-0.1
		c0,0,0.1-0.1,0.1-0.2c0,0,0-0.1,0.1-0.1c0,0,0-0.1,0.1-0.1c0-0.1,0.1-0.1,0.1-0.2l0,0c0.1-0.2,0.2-0.5,0.3-0.8
		c0-0.1,0.1-0.2,0.1-0.3C40.4,40.8,39.9,40.4,38.6,39.4z"/>
	<path fill="#FFFFFF" d="M11.8,32.5c-0.1,0.1-0.1,0.3-0.2,0.4c-0.1,0.9-0.2,1.6-0.2,2.3l0,0c0,0.1,0,0.1,0,0.2l0,0.1
		c0,0.1,0,0.2,0,0.3l0,0c0,0.1,0,0.2,0,0.3l0,0c0.1,0.7,0.2,1.3,0.4,2c0.2-0.2,0.6-0.4,1.4-1.1l2-1.4c-0.1-0.2-0.2-0.4-0.3-0.6
		l-0.1-0.2c-0.3-0.5-0.5-1-0.6-1.5c-0.2-0.5-0.4-1.1-0.5-1.7c0-0.2-0.1-0.5-0.1-0.7c0-0.2-0.1-0.4-0.1-0.6c-0.1,0.1-0.2,0.2-0.3,0.3
		c-0.2,0.2-0.4,0.4-0.5,0.6l0,0c-0.1,0.1-0.1,0.2-0.2,0.2C12.2,31.8,12,32.1,11.8,32.5l-0.3-0.1L11.8,32.5z"/>
	<path fill="#FFFFFF" d="M19.1,34.2c-0.5,0.4-1.1,0.8-1.7,1.3c0.1,0.2,0.2,0.4,0.4,0.6l0.1,0.1c0.2,0.3,0.4,0.7,0.7,1
		c0.2,0.3,0.4,0.5,0.6,0.7c0.4,0.5,0.9,1,1.5,1.6c0.2,0.2,0.5,0.5,0.8,0.8c0.3-0.2,0.6-0.4,0.9-0.6c0.1-0.1,0.2-0.2,0.4-0.2
		c0.2-0.1,0.3-0.2,0.5-0.3c0.2-0.1,0.3-0.2,0.4-0.3c0.2-0.1,0.3-0.2,0.4-0.3c0.1-0.1,0.3-0.2,0.4-0.3l0.1-0.1
		c0.5-0.3,0.9-0.7,1.4-1.1l0.2,0.2l-0.2-0.2c0.1-0.1,0.2-0.2,0.3-0.3l0.3-0.3c-0.2-0.1-0.3-0.3-0.5-0.4c-0.1-0.1-0.2-0.2-0.3-0.3
		l0,0c-0.6-0.6-1.2-1.1-1.7-1.7c-0.1-0.1-0.2-0.2-0.3-0.4c-0.1-0.1-0.1-0.2-0.2-0.2c-0.2-0.2-0.3-0.4-0.5-0.6
		c-0.1-0.2-0.3-0.4-0.4-0.5l-0.1-0.1l0,0c-0.1-0.2-0.3-0.4-0.4-0.6C22,31.9,22,31.9,21.9,32c-0.2,0.2-0.4,0.3-0.6,0.5
		c-0.2,0.2-0.4,0.3-0.6,0.5c-0.4,0.4-0.9,0.7-1.4,1.1C19.3,34.1,19.2,34.2,19.1,34.2z"/>
	<path fill="#FFFFFF" d="M35.1,34c-0.8-0.6-1.3-1-1.8-1.4c-0.3-0.3-0.6-0.5-0.9-0.7c-0.1,0.2-0.3,0.4-0.5,0.6l-0.1,0.1
		c-0.5,0.6-1,1.1-1.5,1.7c-0.5,0.6-1.1,1.1-1.8,1.7c-0.3,0.2-0.5,0.5-0.8,0.7c0.2,0.2,0.4,0.4,0.7,0.5c0.3,0.2,0.5,0.4,0.8,0.6
		c0.3,0.3,0.6,0.5,1,0.7c0.6,0.4,1.2,0.8,1.9,1.3c0.1,0.1,0.2,0.1,0.3,0.2c0.2,0.1,0.5,0.3,0.7,0.4l0,0c0.2-0.2,0.4-0.3,0.6-0.5
		c0.3-0.3,0.6-0.5,0.8-0.8c0.4-0.4,0.8-0.8,1.1-1.2c0.4-0.5,0.8-1,1.2-1.6l0,0l0.1-0.1c0.1-0.2,0.2-0.3,0.3-0.5
		C36.4,34.9,35.7,34.4,35.1,34z"/>
	<path fill="#FFFFFF" d="M41,30.7c0,0,0,0.1,0,0.1c-0.1,0.6-0.2,1.4-0.4,2.3c-0.1,0.3-0.2,0.6-0.3,0.9c-0.1,0.3-0.2,0.6-0.4,0.9
		c-0.1,0.3-0.3,0.6-0.5,0.9l0,0c0.2,0.2,0.4,0.3,0.6,0.4l0.3,0.3c0,0,0,0,0,0l0.1,0.1c1.2,0.9,1.7,1.3,2.2,1.8
		c0.1-0.3,0.2-0.6,0.2-0.9l0,0c0-0.1,0-0.2,0-0.2l0,0c0-0.1,0-0.2,0-0.2c0-0.2,0-0.3,0.1-0.4c0-0.1,0-0.2,0-0.3c0-0.1,0-0.1,0-0.1
		l0-0.1c0-0.4,0-0.9,0-1.3c0-0.3-0.1-0.6-0.1-1c0-0.2,0-0.3-0.1-0.5c0,0,0-0.1,0-0.1l-0.1-0.1c0,0,0-0.1,0-0.1c0,0,0-0.1-0.1-0.1
		l0,0c-0.1-0.1-0.1-0.2-0.2-0.3c-0.1-0.1-0.1-0.2-0.2-0.3c0,0,0,0,0,0l0-0.1c-0.1-0.1-0.1-0.2-0.2-0.3c0,0-0.1-0.1-0.1-0.1
		c-0.1-0.1-0.1-0.2-0.2-0.2c0-0.1-0.1-0.1-0.1-0.2c-0.1-0.1-0.2-0.2-0.2-0.3c0,0,0,0,0,0l-0.1-0.1C41.2,31,41.1,30.9,41,30.7
		C41,30.7,41,30.7,41,30.7z"/>
	<path fill="#FFFFFF" d="M16.6,32.4l0.1,0.1c0,0,0,0,0,0c0.1,0.1,0.1,0.2,0.2,0.4c0.5-0.3,0.9-0.6,1.2-0.9c0.1-0.1,0.2-0.1,0.2-0.2
		c0.4-0.3,0.8-0.6,1.1-0.9c0.2-0.1,0.3-0.2,0.4-0.4c0.2-0.1,0.3-0.2,0.4-0.4l0.2-0.1c-0.1-0.1-0.1-0.2-0.2-0.3
		c-0.3-0.5-0.7-1.1-1-1.8c-0.2-0.5-0.4-0.9-0.6-1.4c0-0.1-0.1-0.3-0.1-0.4c0,0,0-0.1,0-0.1l-1.6,1.4c-0.3,0.3-0.6,0.5-0.8,0.7
		c-0.2,0.2-0.4,0.3-0.6,0.5c0,0.3,0.1,0.5,0.1,0.8c0,0.2,0.1,0.4,0.1,0.5c0.1,0.4,0.2,0.9,0.4,1.3C16.3,31.6,16.4,32,16.6,32.4z"/>
	<path fill="#FFFFFF" d="M26.7,26.8C26.7,26.8,26.7,26.8,26.7,26.8l-0.4,0.4c-0.1,0.1-0.2,0.2-0.2,0.2l-0.1,0.1
		c-0.1,0.1-0.2,0.2-0.3,0.3c-0.1,0.1-0.1,0.1-0.2,0.2c-0.1,0.1-0.2,0.2-0.3,0.3c-0.1,0.1-0.3,0.3-0.4,0.4l-0.1,0
		c-0.1,0.1-0.2,0.2-0.3,0.3c-0.2,0.2-0.4,0.4-0.6,0.6c0.1,0.1,0.2,0.3,0.3,0.4l0.1,0.1c0.1,0.1,0.2,0.3,0.3,0.4
		c0.1,0.2,0.3,0.3,0.4,0.5c0.1,0.1,0.1,0.1,0.2,0.2c0.1,0.1,0.2,0.2,0.3,0.3c0.4,0.4,0.8,0.8,1.3,1.3l0,0c0.1,0.1,0.2,0.1,0.2,0.2
		c0.1,0.1,0.3,0.2,0.4,0.4c0.2-0.2,0.4-0.4,0.6-0.6c0.5-0.5,1-0.9,1.4-1.3c0.4-0.4,0.8-0.8,1.2-1.3l0.1-0.1c0.1-0.1,0.2-0.3,0.3-0.4
		c-0.2-0.2-0.4-0.4-0.6-0.5c-0.5-0.5-1-0.9-1.4-1.3c-0.4-0.4-0.8-0.8-1.2-1.2l-0.1-0.1c-0.1-0.1-0.2-0.2-0.3-0.3
		C27.1,26.3,26.9,26.6,26.7,26.8l-0.2-0.2L26.7,26.8z"/>
	<path fill="#FFFFFF" d="M25.3,10.2L25.3,10.2c0.2,0.1,0.3,0.1,0.4,0.2c0.1,0,0.1,0.1,0.2,0.1l0.1,0.1c0.1,0,0.1,0.1,0.2,0.1
		l0.1,0.1c0.1,0,0.1,0.1,0.2,0.1l0.3,0.2c0,0,0,0,0,0c0.2,0.1,0.3,0.2,0.5,0.3c0,0,0,0,0.1,0c0,0,0,0,0,0c0,0,0,0,0,0
		c0.1,0,0.1-0.1,0.2-0.1l0,0c0.3-0.2,0.6-0.4,0.9-0.6c0.3-0.2,0.7-0.4,1.1-0.6c0.1,0,0.1-0.1,0.2-0.1l0,0c-0.3-0.2-0.6-0.4-0.9-0.6
		c-0.3-0.2-0.7-0.4-1.1-0.6c-0.2-0.1-0.3-0.2-0.5-0.3c-0.1,0.1-0.2,0.1-0.3,0.2c-0.1,0-0.1,0.1-0.2,0.1l0,0c-0.4,0.2-0.7,0.4-1,0.6
		c-0.1,0-0.1,0.1-0.2,0.1c0,0-0.1,0.1-0.1,0.1c-0.1,0.1-0.2,0.1-0.3,0.2C25,9.8,25,9.9,24.9,10l0,0c0.1,0,0.2,0.1,0.2,0.1
		C25.1,10.2,25.2,10.2,25.3,10.2z"/>
	<path fill="#FFFFFF" d="M36.4,26.1l-0.3-0.3c0,0.1,0,0.1-0.1,0.2c0,0.1-0.1,0.2-0.1,0.3c-0.2,0.4-0.3,0.8-0.5,1.2
		c-0.4,0.8-0.8,1.4-1.3,2.1c-0.1,0.1-0.1,0.1-0.2,0.2c0.2,0.2,0.5,0.4,0.7,0.6c0.4,0.3,0.9,0.7,1.5,1.1c0.5,0.3,1,0.7,1.6,1.2
		c0.1-0.2,0.2-0.4,0.3-0.6c0.1-0.2,0.2-0.5,0.3-0.7c0.1-0.2,0.2-0.5,0.2-0.7c0.2-0.7,0.3-1.3,0.3-1.7c0-0.1,0-0.3,0-0.4l0-0.1
		c-0.6-0.6-1-1-2.1-2C36.7,26.3,36.5,26.2,36.4,26.1z"/>
	<path fill="#FFFFFF" d="M16.3,24.1l1.6-1.4c0-0.1,0-0.2-0.1-0.3c0-0.1,0-0.2-0.1-0.3c-0.1-0.5-0.1-0.9-0.2-1.3c0-0.1,0-0.2,0-0.3
		c0-0.3,0-0.5,0-0.8c0,0,0,0-0.1,0.1c-0.3,0.3-0.5,0.5-0.7,0.7l-0.1,0.1c0,0-0.1,0.1-0.1,0.1c0,0,0,0,0,0c0,0-0.1,0.1-0.1,0.1
		c0,0-0.1,0.1-0.1,0.1l0,0.1c-0.1,0.1-0.2,0.3-0.3,0.4c-0.4,1.1-0.6,2-0.6,2.9c0,0.2,0,0.3,0,0.5c0,0,0.1-0.1,0.1-0.1
		C15.7,24.5,16,24.3,16.3,24.1z"/>
	<path fill="#FFFFFF" d="M25.8,23.9c-0.1-0.1-0.1-0.1-0.2-0.2c-0.3-0.4-0.7-0.8-1-1.4c-0.1-0.1-0.1-0.2-0.2-0.3c0,0,0-0.1-0.1-0.1
		l0,0c-0.1-0.1-0.1-0.2-0.2-0.3C24,21.4,24,21.2,23.9,21l0-0.1c0,0,0,0,0,0c0,0-0.1,0.1-0.1,0.1c-0.1,0.1-0.2,0.2-0.3,0.3
		c-0.1,0.1-0.2,0.2-0.4,0.3c-0.1,0.1-0.2,0.2-0.3,0.3c-0.1,0.1-0.2,0.2-0.4,0.3c-0.2,0.1-0.3,0.3-0.5,0.4l-0.2,0.2
		c-0.2,0.2-0.4,0.3-0.6,0.5c0,0.1,0.1,0.2,0.1,0.3c0,0.1,0.1,0.2,0.1,0.3c0.1,0.4,0.3,0.8,0.5,1.2c0.3,0.6,0.6,1.1,0.9,1.5
		c0,0.1,0.1,0.1,0.1,0.2c0.2-0.1,0.3-0.3,0.5-0.4c0.1-0.1,0.2-0.2,0.3-0.2l0,0c0.1-0.1,0.2-0.2,0.4-0.3c0.1-0.1,0.2-0.1,0.2-0.2
		c0.1,0,0.1-0.1,0.1-0.1c0.1-0.1,0.2-0.2,0.2-0.2l0.1-0.1c0.1-0.1,0.1-0.1,0.2-0.2l0.3-0.3l0.2,0.2l-0.2-0.2
		C25.4,24.4,25.6,24.2,25.8,23.9z"/>
	<path fill="#FFFFFF" d="M33.5,24c0-0.1,0.1-0.2,0.1-0.2c0-0.1,0.1-0.2,0.1-0.4l-0.2-0.2c-0.9-0.8-1.4-1.2-1.9-1.6
		c-0.2-0.2-0.5-0.4-0.7-0.6c0,0,0,0.1-0.1,0.1l0,0.1c-0.2,0.4-0.4,0.8-0.7,1.1c-0.2,0.4-0.5,0.7-0.9,1.2c-0.1,0.2-0.3,0.3-0.4,0.5
		c0.1,0.1,0.2,0.2,0.3,0.3l0.1,0.1c0.3,0.4,0.7,0.7,1,1.1c0.4,0.4,0.7,0.7,1.2,1.1c0.2,0.1,0.3,0.3,0.5,0.4c0,0,0.1-0.1,0.1-0.1
		c0.5-0.7,0.8-1.2,1.1-1.7C33.3,24.7,33.4,24.4,33.5,24z"/>
	<path fill="#FFFFFF" d="M36.9,19.9c0,0.1,0,0.2,0,0.2c0,0,0,0.1,0,0.1l0,0c0,0.3,0,0.5,0,0.7l0,0c0,0,0,0.1,0,0.1l0,0
		c0,0,0,0,0,0.1c0,0.2,0,0.4-0.1,0.7c0,0,0,0.1,0,0.1l-0.3,0l0.3,0c0,0.1,0,0.1,0,0.1c0,0.2-0.1,0.4-0.1,0.5l0.1,0.1
		c0.1,0.1,0.2,0.2,0.4,0.3c0.1,0.1,0.2,0.2,0.3,0.3c0.7,0.6,1.1,1,1.5,1.4c0-0.1,0-0.1,0-0.2c0-0.2,0-0.4,0-0.6c0-0.1,0-0.3-0.1-0.4
		c-0.1-0.4-0.2-0.8-0.3-1.3c-0.1-0.2-0.1-0.4-0.2-0.6l0-0.1c-0.1-0.1-0.2-0.3-0.3-0.5L38,21c0,0-0.1-0.1-0.1-0.1l-0.1-0.1
		C37.6,20.5,37.3,20.2,36.9,19.9z"/>
	<path fill="#FFFFFF" d="M20,18c-0.1,0.1-0.1,0.1-0.2,0.2c0,0.2-0.1,0.3-0.1,0.5c0,0.3-0.1,0.6-0.1,0.9c0,0.1,0,0.2,0,0.3
		c0,0.4,0.1,0.7,0.1,1.2c0,0.1,0,0.2,0.1,0.3c0,0,0,0,0,0c0.1-0.1,0.2-0.2,0.4-0.3l0.2-0.2c0.2-0.2,0.3-0.3,0.5-0.4
		c0.1-0.1,0.2-0.2,0.3-0.3c0.1-0.1,0.2-0.2,0.3-0.3c0.1-0.1,0.2-0.2,0.3-0.3c0.1-0.1,0.2-0.2,0.3-0.3c0.1-0.1,0.2-0.2,0.2-0.2
		c-0.1-0.2-0.1-0.3-0.2-0.4l0-0.1c0-0.1,0-0.1-0.1-0.2c0,0,0,0,0,0c-0.1-0.3-0.2-0.6-0.2-0.9c0-0.2,0-0.3-0.1-0.4c0-0.1,0-0.3,0-0.4
		l-1.4,1.1C20.2,17.8,20.1,17.9,20,18z"/>
	<path fill="#FFFFFF" d="M28.1,17.9c-0.3-0.4-0.6-0.7-0.8-1c0,0,0,0,0,0l0,0c-0.2,0.2-0.3,0.5-0.5,0.7c0,0,0,0.1-0.1,0.1l-0.1,0.1
		c-0.1,0.1-0.1,0.2-0.2,0.2c0,0-0.1,0.1-0.1,0.1l0,0c-0.1,0.1-0.2,0.2-0.3,0.3c-0.1,0.1-0.1,0.2-0.2,0.2c-0.1,0.1-0.3,0.3-0.4,0.4
		c0,0.1,0.1,0.1,0.1,0.2l0,0.1c0.1,0.2,0.2,0.3,0.2,0.5c0.1,0.1,0.1,0.2,0.2,0.3c0,0,0.1,0.1,0.1,0.1c0.1,0.1,0.1,0.2,0.2,0.3
		c0.3,0.5,0.7,1,1,1.4c0,0,0.1,0.1,0.1,0.1c0.1-0.1,0.2-0.3,0.3-0.4c0.3-0.4,0.6-0.8,0.8-1.1c0.2-0.4,0.4-0.7,0.6-1.1l0-0.1
		c0-0.1,0.1-0.2,0.1-0.3c-0.1-0.1-0.1-0.1-0.2-0.2C28.9,18.7,28.5,18.3,28.1,17.9z"/>
	<path fill="#FFFFFF" d="M33,16.7c-0.1-0.1-0.2-0.2-0.3-0.2c0,0,0,0,0,0.1c0,0.3,0,0.5-0.1,0.8c0,0.3-0.1,0.5-0.2,0.8
		c-0.1,0.2-0.2,0.5-0.3,0.8c0.3,0.3,0.5,0.5,0.8,0.8c0.5,0.4,1,0.9,1.8,1.6c0-0.1,0-0.2,0.1-0.3c0,0,0,0,0,0c0,0,0-0.1,0-0.1l0,0
		c0-0.2,0.1-0.4,0.1-0.6l0-0.1c0,0,0-0.1,0-0.1l0,0c0-0.2,0-0.4,0-0.7l0,0c0,0,0-0.1,0-0.1c0-0.1,0-0.1,0-0.2c0-0.2,0-0.3-0.1-0.5
		c0,0,0-0.1,0-0.1c-0.4-0.3-0.6-0.6-1-0.9c-0.1-0.1-0.2-0.1-0.3-0.2C33.3,17,33.1,16.9,33,16.7z"/>
	<path fill="#FFFFFF" d="M21.5,13.8c0-0.1,0-0.2,0.1-0.3c0-0.2,0.1-0.4,0.2-0.6l0,0c0,0,0-0.1,0-0.1l0,0c0,0,0-0.1,0-0.1l0,0
		c-0.1,0-0.1,0.1-0.2,0.1c-0.1,0-0.1,0.1-0.2,0.1c-0.1,0-0.1,0.1-0.2,0.1l-0.1,0c-0.1,0-0.1,0.1-0.2,0.1c0,0-0.1,0.1-0.1,0.1
		c-0.1,0-0.1,0.1-0.2,0.1c-0.3,0.3-0.5,0.6-0.6,0.9l0,0l0,0c-0.2,0.3-0.3,0.6-0.4,0.9c0,0,0,0.1,0,0.1c0,0,0.1-0.1,0.1-0.1
		L21.5,13.8z"/>
	<path fill="#FFFFFF" d="M24.4,14.2l-0.1,0.1c-0.1,0.1-0.3,0.2-0.4,0.4c0,0.1,0,0.2,0,0.2l0,0.1c0,0,0,0,0,0l0,0c0,0.2,0,0.3,0,0.5
		c0,0.1,0,0.3,0.1,0.4c0,0.3,0.1,0.5,0.2,0.8c0,0.1,0,0.1,0.1,0.2l0,0.1c0,0,0,0.1,0.1,0.1c0.1-0.1,0.2-0.2,0.2-0.2
		c0.1-0.1,0.1-0.2,0.2-0.2c0.1-0.1,0.2-0.2,0.3-0.3c0,0,0.1-0.1,0.1-0.1l0,0c0.1-0.1,0.1-0.1,0.2-0.2l0.2-0.2
		c0.2-0.2,0.3-0.4,0.5-0.6l0,0c0.1-0.1,0.1-0.2,0.2-0.2c0,0,0-0.1-0.1-0.1c0,0,0-0.1-0.1-0.1c0-0.1-0.1-0.1-0.1-0.2l0-0.1
		c0-0.1-0.1-0.1-0.1-0.2c0-0.1-0.1-0.1-0.1-0.2c0,0,0,0,0,0c0,0,0-0.1,0-0.1l0,0c0,0,0,0,0-0.1c0,0,0,0,0-0.1l0,0
		c0-0.1-0.1-0.2-0.1-0.3c0-0.1,0-0.1,0-0.2l0,0c0,0,0,0,0,0l-0.3,0.2l0,0l0,0c-0.1,0.1-0.3,0.2-0.4,0.4C24.7,14,24.5,14.1,24.4,14.2
		z"/>
	<path fill="#FFFFFF" d="M29.4,13.4C29.4,13.4,29.4,13.3,29.4,13.4c-0.2-0.2-0.3-0.3-0.4-0.4c0,0.2-0.1,0.4-0.2,0.6l0,0c0,0,0,0,0,0
		c0,0,0,0,0,0.1l0,0.1c-0.1,0.1-0.1,0.2-0.2,0.3c0,0,0,0.1-0.1,0.1c-0.1,0.1-0.1,0.2-0.2,0.3c0,0.1,0.1,0.1,0.1,0.2
		c0.2,0.4,0.5,0.7,0.8,1c0.4,0.4,0.7,0.8,1,1.1c0,0,0,0,0,0c0.1-0.2,0.1-0.4,0.2-0.5c0.1-0.3,0.2-0.5,0.2-0.7c0,0,0,0,0,0
		c0-0.2,0.1-0.5,0.1-0.7c0-0.1,0-0.2,0-0.3c0-0.1,0-0.1,0-0.2l-0.1-0.1c-0.2-0.1-0.3-0.3-0.5-0.4c-0.2-0.1-0.3-0.2-0.4-0.3
		C29.6,13.5,29.5,13.5,29.4,13.4z"/>
	<path fill="#FFFFFF" d="M32.6,13.2c0.1,0.2,0.1,0.4,0.2,0.6c0.3,0.2,0.5,0.4,0.7,0.6c0.2,0.2,0.4,0.3,0.5,0.4
		c0.1,0.1,0.2,0.2,0.3,0.2c0.1,0.1,0.2,0.2,0.3,0.3c-0.1-0.3-0.3-0.6-0.4-0.9l0-0.1c-0.1-0.1-0.1-0.2-0.2-0.3
		c-0.1-0.1-0.2-0.2-0.3-0.4c-0.1-0.1-0.1-0.2-0.2-0.3c0,0-0.1-0.1-0.1-0.1l-0.1,0c0,0-0.1-0.1-0.1-0.1c-0.1,0-0.1-0.1-0.2-0.1
		l-0.1,0l0,0l0,0c-0.1-0.1-0.2-0.1-0.2-0.1l0,0c0,0-0.1,0-0.1,0l-0.1-0.1c0,0,0,0-0.1,0c0,0.1,0.1,0.1,0.1,0.2
		C32.5,13,32.6,13.1,32.6,13.2z"/>
</g>
</svg>
