<?xml version="1.0" encoding="utf-8"?>
<!-- Generator: Adobe Illustrator 18.1.1, SVG Export Plug-In . SVG Version: 6.00 Build 0)  -->
<!DOCTYPE svg PUBLIC "-//W3C//DTD SVG 1.1//EN" "http://www.w3.org/Graphics/SVG/1.1/DTD/svg11.dtd">
<svg version="1.1" id="Layer_1" xmlns="http://www.w3.org/2000/svg" xmlns:xlink="http://www.w3.org/1999/xlink" x="0px" y="0px"
	 viewBox="0 0 55 65" enable-background="new 0 0 55 65" xml:space="preserve">
<g>
	<g>
		<g enable-background="new    ">
			<g>
				<g>
					<polygon fill="#FFFFFF" points="5.9,43.6 38.5,23.3 40.3,23.1 7.7,43.4 					"/>
					<path fill="#231F20" d="M5.9,43.9c-0.1,0-0.2-0.1-0.2-0.1c0-0.1,0-0.2,0.1-0.3l32.6-20.3c0,0,0.1,0,0.1,0l1.8-0.2
						c0.1,0,0.2,0,0.2,0.1c0,0.1,0,0.2-0.1,0.3L7.8,43.6c0,0-0.1,0-0.1,0L5.9,43.9C5.9,43.9,5.9,43.9,5.9,43.9z M38.6,23.5L6.9,43.3
						l0.7-0.1l31.7-19.7L38.6,23.5z"/>
				</g>
			</g>
			<g>
				<g>
					<polygon fill="#FFFFFF" points="5.9,43.6 7.7,43.4 9.5,45.6 9.6,47.9 7.8,48.2 6,46 					"/>
					<path fill="#231F20" d="M7.8,48.4c-0.1,0-0.1,0-0.2-0.1l-1.9-2.1c0,0-0.1-0.1-0.1-0.1l-0.1-2.4c0-0.1,0.1-0.2,0.2-0.2l1.8-0.2
						c0.1,0,0.1,0,0.2,0.1l1.9,2.1c0,0,0.1,0.1,0.1,0.1l0.1,2.4c0,0.1-0.1,0.2-0.2,0.2L7.8,48.4C7.9,48.4,7.9,48.4,7.8,48.4z
						 M6.2,45.9l1.7,2l1.4-0.2l-0.1-2.1l-1.7-2l-1.4,0.2L6.2,45.9z"/>
				</g>
				<g>
					<polygon fill="#FFFFFF" points="8.9,47.3 8.1,47.4 6.7,45.7 6.7,44.3 7.4,44.2 8.8,45.8 					"/>
					<path fill="#231F20" d="M8.1,47.6c-0.1,0-0.1,0-0.2-0.1l-1.4-1.7c0,0-0.1-0.1-0.1-0.1l0-1.5c0-0.1,0.1-0.2,0.2-0.2l0.7-0.1
						c0.1,0,0.1,0,0.2,0.1L9,45.7c0,0,0.1,0.1,0.1,0.1l0,1.5c0,0.1-0.1,0.2-0.2,0.2L8.1,47.6C8.2,47.6,8.1,47.6,8.1,47.6z M6.9,45.7
						l1.3,1.5l0.4-0.1l0-1.2l-1.3-1.5l-0.4,0.1L6.9,45.7z"/>
				</g>
			</g>
			<g>
				<g>
					<polygon fill="#FFFFFF" points="7.7,43.4 40.3,23.1 42.2,25.2 9.5,45.6 					"/>
					<path fill="#231F20" d="M9.5,45.8c-0.1,0-0.1,0-0.2-0.1l-1.9-2.1c0,0-0.1-0.1-0.1-0.2c0-0.1,0-0.1,0.1-0.2l32.6-20.3
						c0.1-0.1,0.2,0,0.3,0l1.9,2.1c0,0,0.1,0.1,0.1,0.2c0,0.1,0,0.1-0.1,0.2L9.7,45.8C9.6,45.8,9.6,45.8,9.5,45.8z M8,43.5l1.6,1.8
						l32.2-20.1l-1.6-1.8L8,43.5z"/>
				</g>
			</g>
			<g>
				<g>
					<polygon fill="#FFFFFF" points="9.5,45.6 42.2,25.2 42.2,27.6 9.6,47.9 					"/>
					<path fill="#231F20" d="M9.6,48.2c0,0-0.1,0-0.1,0c-0.1,0-0.1-0.1-0.1-0.2l-0.1-2.4c0-0.1,0-0.2,0.1-0.2L42,25
						c0.1,0,0.2,0,0.2,0c0.1,0,0.1,0.1,0.1,0.2l0.1,2.4c0,0.1,0,0.2-0.1,0.2L9.7,48.1C9.7,48.2,9.7,48.2,9.6,48.2z M9.8,45.7
						l0.1,1.9l32.2-20l-0.1-1.9L9.8,45.7z"/>
				</g>
			</g>
		</g>
	</g>
	<g>
		<g>
			<polygon fill="#FFFFFF" points="0.3,50.4 0.3,50.4 7.7,43.4 5.9,43.6 			"/>
			<path fill="#231F20" d="M0.3,50.6c-0.1,0-0.1,0-0.2-0.1c-0.1-0.1-0.1-0.2,0-0.3l5.6-6.8c0,0,0.1-0.1,0.1-0.1l1.8-0.2
				c0.1,0,0.2,0,0.2,0.1c0,0.1,0,0.2,0,0.3l-7.3,7C0.5,50.6,0.4,50.6,0.3,50.6z M6,43.9l-3.2,3.8l4.2-4L6,43.9z"/>
		</g>
		<g>
			<polygon fill="#FFFFFF" points="9.5,45.6 7.7,43.4 0.3,50.4 			"/>
			<path fill="#231F20" d="M0.3,50.6c-0.1,0-0.1,0-0.2-0.1c-0.1-0.1-0.1-0.2,0-0.3l7.3-7c0,0,0.1-0.1,0.2-0.1c0.1,0,0.1,0,0.2,0.1
				l1.9,2.1c0,0.1,0.1,0.1,0.1,0.2c0,0.1-0.1,0.1-0.1,0.2l-9.2,4.8C0.4,50.6,0.4,50.6,0.3,50.6z M7.7,43.7l-6,5.7l7.5-4L7.7,43.7z"
				/>
		</g>
		<g>
			<polygon fill="#FFFFFF" points="0.3,50.4 0.3,50.4 0.3,50.4 			"/>
			<path fill="#231F20" d="M0.4,50.6c-0.1,0-0.2-0.1-0.2-0.2s0.1-0.2,0.2-0.2h0c0.1,0,0.2,0.1,0.2,0.2S0.5,50.6,0.4,50.6z"/>
		</g>
		<g>
			<polygon fill="#FFFFFF" points="0.3,50.4 9.6,47.9 9.5,45.6 0.3,50.4 			"/>
			<path fill="#231F20" d="M0.3,50.6c-0.1,0-0.2-0.1-0.2-0.1c0-0.1,0-0.2,0.1-0.3l9.2-4.8c0.1,0,0.2,0,0.2,0c0.1,0,0.1,0.1,0.1,0.2
				l0.1,2.4c0,0.1-0.1,0.2-0.2,0.2L0.3,50.6C0.4,50.6,0.4,50.6,0.3,50.6z M9.3,45.9l-7.1,3.8l7.2-1.9L9.3,45.9z"/>
		</g>
		<g>
			<polygon fill="#FFFFFF" points="0.3,50.4 0.3,50.4 0.3,50.4 			"/>
			<path fill="#231F20" d="M0.4,50.6c-0.1,0-0.2-0.1-0.2-0.2s0.1-0.2,0.2-0.2h0c0.1,0,0.2,0.1,0.2,0.2S0.5,50.6,0.4,50.6z"/>
		</g>
		<g>
			<rect x="0.3" y="50.4" fill="#FFFFFF" width="0" height="0"/>
			<path fill="#231F20" d="M0.4,50.6c-0.1,0-0.2-0.1-0.2-0.2s0.1-0.2,0.2-0.2h0c0.1,0,0.2,0.1,0.2,0.2S0.5,50.6,0.4,50.6z"/>
		</g>
	</g>
	<g>
		<polygon fill="#231F20" points="3,47.1 3.7,47.2 4.5,48.2 4.6,49.3 0.3,50.4 		"/>
		<path fill="#231F20" d="M0.3,50.6c-0.1,0-0.1,0-0.2-0.1c-0.1-0.1,0-0.2,0-0.3L2.9,47c0.1-0.1,0.1-0.1,0.2-0.1L3.7,47
			c0.1,0,0.1,0,0.1,0.1l0.8,1c0,0,0,0.1,0,0.1l0.1,1c0,0.1-0.1,0.2-0.2,0.2L0.3,50.6C0.4,50.6,0.4,50.6,0.3,50.6z M3.1,47.3L1,50
			l3.4-0.9l-0.1-0.8l-0.7-0.9L3.1,47.3z"/>
	</g>
	<g>
		<polygon fill="#231F20" points="42.2,27.6 47.7,23.3 44.8,22.5 41.1,24 42.2,25.2 		"/>
		<path fill="#231F20" d="M42.2,27.8C42.2,27.8,42.2,27.8,42.2,27.8c-0.2-0.1-0.2-0.1-0.2-0.2l-0.1-2.3l-1-1.2c0-0.1-0.1-0.1,0-0.2
			c0-0.1,0.1-0.1,0.1-0.2l3.7-1.5c0,0,0.1,0,0.1,0l2.9,0.8c0.1,0,0.1,0.1,0.2,0.2c0,0.1,0,0.2-0.1,0.2l-5.4,4.3
			C42.3,27.8,42.3,27.8,42.2,27.8z M41.5,24.1l0.8,1c0,0,0.1,0.1,0.1,0.1l0.1,1.9l4.8-3.7l-2.4-0.7L41.5,24.1z"/>
	</g>
	<g>
		<polyline fill="#231F20" points="40.9,50 54.8,38 48.8,36.1 37.2,36.2 		"/>
		<path fill="#231F20" d="M40.9,50.2c-0.1,0-0.1,0-0.2-0.1c-0.1-0.1-0.1-0.2,0-0.3l13.6-11.7l-5.6-1.8l-11.5,0.1c0,0,0,0,0,0
			c-0.1,0-0.2-0.1-0.2-0.2c0-0.1,0.1-0.2,0.2-0.2l11.6-0.1c0,0,0,0,0.1,0l6,1.9c0.1,0,0.1,0.1,0.2,0.2c0,0.1,0,0.2-0.1,0.2L41,50.2
			C41,50.2,41,50.2,40.9,50.2z"/>
	</g>
	<g enable-background="new    ">
		<defs>
			<path id="SVGID_1_" enable-background="new    " d="M40,37.7c-0.1-0.1-0.3-0.2-0.5-0.3l-3.9-2.6c0.1,0.1,0.2,0.1,0.3,0.2
				C37.3,35.8,38.6,36.8,40,37.7z"/>
		</defs>
		<defs>
			<path id="SVGID_2_" enable-background="new    " d="M40,37.9c0,0-0.1,0-0.1,0l0,0l0,0c-0.1-0.1-0.3-0.2-0.5-0.3c0,0,0,0,0,0
				l-3.9-2.6c-0.1-0.1-0.1-0.2-0.1-0.3c0.1-0.1,0.2-0.1,0.3-0.1c0.1,0.1,0.2,0.1,0.3,0.2l4.1,2.7c0.1,0,0.1,0.1,0.1,0.2
				C40.2,37.8,40.1,37.9,40,37.9C40,37.9,40,37.9,40,37.9z"/>
		</defs>
		<use xlink:href="#SVGID_1_"  overflow="visible" fill="#FFFFFF"/>
		<use xlink:href="#SVGID_2_"  overflow="visible" fill="#231F20"/>
		<clipPath id="SVGID_4_">
			<use xlink:href="#SVGID_1_"  overflow="visible"/>
		</clipPath>
		<clipPath id="SVGID_5_" clip-path="url(#SVGID_4_)">
			<use xlink:href="#SVGID_2_"  overflow="visible"/>
		</clipPath>
		<g clip-path="url(#SVGID_5_)" enable-background="new    ">
			<g>
				<path fill="#FFFFFF" d="M40,37.7l-4.1-2.7c-0.1-0.1-0.2-0.1-0.3-0.2l3.9,2.6C39.7,37.5,39.9,37.6,40,37.7"/>
				<path fill="#231F20" d="M40,37.9c0,0-0.1,0-0.1,0c-0.1-0.1-0.3-0.2-0.5-0.3c0,0,0,0,0,0l-3.9-2.6c-0.1-0.1-0.1-0.2-0.1-0.3
					c0.1-0.1,0.2-0.1,0.3-0.1c0.1,0.1,0.2,0.1,0.3,0.2l4.1,2.7c0,0,0,0,0,0l0,0c0.1,0.1,0.1,0.2,0.1,0.3
					C40.1,37.9,40.1,37.9,40,37.9z"/>
			</g>
		</g>
	</g>
	<g enable-background="new    ">
		<defs>
			<path id="SVGID_6_" enable-background="new    " d="M25,35c0.2-0.1,0.3-0.2,0.5-0.3c2.9-1.6,7.4-1.6,10.2,0.1l3.9,2.6
				c-4.8-2.9-12.8-3-17.8-0.2c-0.3,0.2-0.6,0.3-0.9,0.5C22.3,36.8,23.6,35.9,25,35z"/>
		</defs>
		<defs>
			<path id="SVGID_7_" enable-background="new    " d="M20.9,38c-0.1,0-0.1,0-0.2-0.1c-0.1-0.1,0-0.2,0.1-0.3l4.1-2.8
				c0.2-0.1,0.3-0.2,0.5-0.3c1.4-0.8,3.2-1.2,5.1-1.2c2,0,3.9,0.5,5.3,1.3c0,0,0,0,0,0l3.9,2.6c0.1,0.1,0.1,0.2,0.1,0.3
				c-0.1,0.1-0.2,0.1-0.3,0.1c-2.3-1.4-5.5-2.2-8.9-2.2c-3.2,0-6.3,0.7-8.6,2c-0.3,0.2-0.6,0.3-0.8,0.5l0,0C21,37.9,21,38,20.9,38z
				 M30.5,33.7c-1.8,0-3.6,0.4-4.9,1.1c-0.2,0.1-0.3,0.2-0.5,0.3L23.8,36c2-0.7,4.3-1.1,6.7-1.1c2.4,0,4.6,0.4,6.6,1.1l-1.5-1
				C34.2,34.2,32.4,33.7,30.5,33.7z"/>
		</defs>
		<use xlink:href="#SVGID_6_"  overflow="visible" fill="#FFFFFF"/>
		<use xlink:href="#SVGID_7_"  overflow="visible" fill="#231F20"/>
		<clipPath id="SVGID_8_">
			<use xlink:href="#SVGID_6_"  overflow="visible"/>
		</clipPath>
		<clipPath id="SVGID_9_" clip-path="url(#SVGID_8_)">
			<use xlink:href="#SVGID_7_"  overflow="visible"/>
		</clipPath>
		<g clip-path="url(#SVGID_9_)" enable-background="new    ">
			<g>
				<path fill="#FFFFFF" d="M39.5,37.4l-3.9-2.6c-2.7-1.7-7.3-1.7-10.2-0.1c-0.2,0.1-0.3,0.2-0.5,0.3l-4.1,2.8
					c0.3-0.2,0.6-0.4,0.9-0.5C26.8,34.4,34.7,34.5,39.5,37.4"/>
				<path fill="#231F20" d="M20.9,38c-0.1,0-0.1,0-0.2-0.1c-0.1-0.1,0-0.2,0.1-0.3l4.1-2.8c0.2-0.1,0.3-0.2,0.5-0.3
					c1.4-0.8,3.2-1.2,5.1-1.2c2,0,3.9,0.5,5.3,1.3c0,0,0,0,0,0l3.9,2.6c0.1,0,0.1,0.1,0.1,0.2c0,0.1-0.1,0.2-0.2,0.2
					c0,0-0.1,0-0.1,0c-2.3-1.4-5.5-2.2-8.9-2.2c-3.2,0-6.3,0.7-8.6,2c-0.3,0.2-0.6,0.3-0.8,0.5l0,0C21,37.9,21,38,20.9,38z
					 M30.5,33.7c-1.8,0-3.6,0.4-4.9,1.1c-0.2,0.1-0.3,0.2-0.5,0.3L23.8,36c2-0.7,4.3-1.1,6.7-1.1c2.4,0,4.6,0.4,6.6,1.1l-1.5-1
					C34.2,34.2,32.4,33.7,30.5,33.7z"/>
			</g>
		</g>
	</g>
	<g enable-background="new    ">
		<g>
			<path fill="#FFFFFF" d="M20.9,37.7L25,35c-1,0.7-1.6,1.5-1.7,2.4L18,41.9C18.1,40.4,19.1,38.9,20.9,37.7"/>
			<path fill="#231F20" d="M18,42.1c0,0-0.1,0-0.1,0c-0.1,0-0.1-0.1-0.1-0.2c0.2-1.6,1.3-3.1,3.1-4.3l4.1-2.8c0.1-0.1,0.2,0,0.3,0.1
				c0.1,0.1,0,0.2-0.1,0.3l0,0c-0.9,0.6-1.5,1.4-1.6,2.2c0,0.1,0,0.1-0.1,0.1l-5.3,4.6C18.1,42.1,18,42.1,18,42.1z M23.4,36.3
				L21,37.9c-1.4,1-2.4,2.1-2.7,3.4l4.8-4.1C23.1,36.9,23.2,36.6,23.4,36.3z"/>
		</g>
		<g>
			<path fill="#FFFFFF" d="M18,41.9l5.3-4.6c0,0.3,0,0.6,0.1,0.9L18,43.5C17.9,43,17.9,42.4,18,41.9"/>
			<path fill="#231F20" d="M18,43.7C18,43.7,18,43.7,18,43.7c-0.1,0-0.2-0.1-0.2-0.2c-0.1-0.6-0.2-1.1-0.1-1.7c0-0.1,0-0.1,0.1-0.1
				l5.3-4.6c0.1-0.1,0.2-0.1,0.3,0c0.1,0,0.1,0.1,0.1,0.2c0,0.3,0,0.6,0,0.8c0,0.1,0,0.2-0.1,0.2l-5.3,5.2
				C18.2,43.7,18.1,43.7,18,43.7z M18.2,42c0,0.3,0,0.7,0,1l4.9-4.9c0-0.1,0-0.2,0-0.3L18.2,42z"/>
		</g>
		<g>
			<path fill="#FFFFFF" d="M42.8,43.7l-5.3-5.3c0-0.1,0.1-0.2,0.1-0.3l5.4,5.1C42.9,43.4,42.9,43.6,42.8,43.7"/>
			<path fill="#231F20" d="M42.8,44c-0.1,0-0.1,0-0.2-0.1l-5.3-5.3c-0.1-0.1-0.1-0.1-0.1-0.2c0-0.1,0.1-0.2,0.1-0.3
				c0-0.1,0.1-0.1,0.2-0.2c0.1,0,0.2,0,0.2,0.1l5.4,5.1c0.1,0.1,0.1,0.1,0.1,0.2c0,0.2-0.1,0.4-0.1,0.5C43,43.9,43,43.9,42.8,44
				C42.9,44,42.8,44,42.8,44z M42.6,43.2L42.6,43.2C42.7,43.3,42.7,43.3,42.6,43.2L42.6,43.2z"/>
		</g>
		<g>
			<path fill="#FFFFFF" d="M43,43.2l-5.4-5.1c0-0.1,0-0.2,0-0.3l5.4,4.9C43,42.9,43,43.1,43,43.2"/>
			<path fill="#231F20" d="M43,43.4c-0.1,0-0.1,0-0.2-0.1l-5.4-5.1c-0.1-0.1-0.1-0.1-0.1-0.2c0-0.1,0-0.2,0-0.3
				c0-0.1,0.1-0.2,0.1-0.2c0.1,0,0.2,0,0.2,0l5.4,4.9c0.1,0,0.1,0.1,0.1,0.2c0,0.2,0,0.4-0.1,0.5C43.2,43.3,43.1,43.4,43,43.4
				C43,43.4,43,43.4,43,43.4z"/>
		</g>
		<g>
			<path fill="#FFFFFF" d="M43,42.7l-5.4-4.9c0-0.1,0-0.2,0-0.3l5.4,4.7C43,42.4,43,42.6,43,42.7"/>
			<path fill="#231F20" d="M43,42.9c-0.1,0-0.1,0-0.2-0.1L37.5,38c-0.1,0-0.1-0.1-0.1-0.2c0-0.1,0-0.2,0-0.3c0-0.1,0-0.2,0.1-0.2
				c0.1,0,0.2,0,0.2,0l5.4,4.7c0,0,0.1,0.1,0.1,0.2c0,0.2,0,0.3,0,0.5C43.2,42.8,43.2,42.9,43,42.9C43.1,42.9,43.1,42.9,43,42.9z"/>
		</g>
		<g>
			<path fill="#FFFFFF" d="M43,42.2l-5.4-4.7c0-0.1,0-0.2,0-0.3l5.4,4.5C43,41.9,43,42.1,43,42.2"/>
			<path fill="#231F20" d="M43,42.5c-0.1,0-0.1,0-0.1-0.1l-5.4-4.7c0,0-0.1-0.1-0.1-0.2c0-0.1,0-0.2,0-0.2c0-0.1,0-0.2,0.1-0.2
				c0.1,0,0.2,0,0.3,0l5.4,4.5c0,0,0.1,0.1,0.1,0.1c0,0.2,0,0.3,0,0.5c0,0,0,0,0,0C43.3,42.4,43.2,42.5,43,42.5
				C43,42.5,43,42.5,43,42.5z"/>
		</g>
		<g>
			<path fill="#FFFFFF" d="M43,41.8l-5.4-4.5c0-0.1,0-0.2-0.1-0.3l5.3,4.3C42.9,41.4,43,41.6,43,41.8"/>
			<path fill="#231F20" d="M43,42c-0.1,0-0.1,0-0.1-0.1l-5.4-4.5c0,0-0.1-0.1-0.1-0.1c0-0.1,0-0.2-0.1-0.2c0-0.1,0-0.2,0.1-0.2
				c0.1-0.1,0.2,0,0.3,0l5.3,4.3c0,0,0.1,0.1,0.1,0.1c0,0.2,0.1,0.3,0.1,0.5c0,0,0,0,0,0.1C43.2,41.9,43.1,42,43,42
				C43,42,43,42,43,42z"/>
		</g>
		<g>
			<path fill="#FFFFFF" d="M42.9,41.3L37.6,37c0-0.1-0.1-0.2-0.1-0.3l5.3,4.1C42.8,41,42.8,41.1,42.9,41.3"/>
			<path fill="#231F20" d="M42.9,41.5c-0.1,0-0.1,0-0.1,0l-5.3-4.3c0,0-0.1-0.1-0.1-0.1c0-0.1,0-0.2-0.1-0.2c0-0.1,0-0.2,0.1-0.3
				c0.1-0.1,0.2-0.1,0.3,0l5.3,4.1c0,0,0.1,0.1,0.1,0.1c0.1,0.2,0.1,0.3,0.2,0.5c0,0,0,0.1,0,0.1C43.1,41.4,43,41.5,42.9,41.5
				C42.9,41.5,42.9,41.5,42.9,41.5z"/>
		</g>
		<g>
			<path fill="#FFFFFF" d="M42.7,40.8l-5.3-4.1c0-0.1-0.1-0.2-0.1-0.3l5.2,3.9C42.6,40.5,42.7,40.7,42.7,40.8"/>
			<path fill="#231F20" d="M42.7,41L42.7,41c-0.1,0-0.1,0-0.1,0l-5.3-4.1c0,0-0.1-0.1-0.1-0.1c0-0.1-0.1-0.2-0.1-0.2
				c0-0.1,0-0.2,0.1-0.3c0.1-0.1,0.2-0.1,0.3,0l5.2,3.9c0,0,0,0,0.1,0.1c0.1,0.1,0.1,0.3,0.2,0.5c0,0,0,0.1,0,0.1
				C43,40.9,42.9,41,42.7,41z"/>
		</g>
		<g>
			<path fill="#FFFFFF" d="M42.5,40.4l-5.2-3.9c0-0.1-0.1-0.2-0.1-0.3l5.1,3.7C42.4,40.1,42.5,40.2,42.5,40.4"/>
			<path fill="#231F20" d="M42.5,40.6c0,0-0.1,0-0.1,0l-5.2-3.9c0,0,0,0-0.1-0.1c0-0.1-0.1-0.2-0.1-0.2c-0.1-0.1,0-0.2,0-0.3
				c0.1-0.1,0.2-0.1,0.3,0l5.1,3.7c0,0,0,0,0.1,0.1c0.1,0.1,0.2,0.3,0.3,0.5c0,0,0,0.1,0,0.1C42.8,40.5,42.7,40.6,42.5,40.6
				C42.5,40.6,42.5,40.6,42.5,40.6z"/>
		</g>
		<g>
			<path fill="#FFFFFF" d="M42.3,39.9l-5.1-3.7c-0.1-0.1-0.1-0.2-0.2-0.3l4.9,3.5C42.1,39.6,42.2,39.8,42.3,39.9"/>
			<path fill="#231F20" d="M42.3,40.1c0,0-0.1,0-0.1,0l-5.1-3.7c0,0,0,0-0.1-0.1c-0.1-0.1-0.1-0.2-0.2-0.2c-0.1-0.1-0.1-0.2,0-0.3
				c0.1-0.1,0.2-0.1,0.3,0l4.9,3.5c0,0,0,0,0,0c0.1,0.1,0.2,0.3,0.3,0.4c0,0,0.1,0.1,0.1,0.1C42.5,40,42.4,40.1,42.3,40.1
				C42.3,40.1,42.3,40.1,42.3,40.1z"/>
		</g>
		<g>
			<path fill="#FFFFFF" d="M42,39.5L37,35.9c-0.1-0.1-0.1-0.2-0.2-0.3l4.8,3.3C41.7,39.1,41.8,39.3,42,39.5"/>
			<path fill="#231F20" d="M42,39.7c0,0-0.1,0-0.1,0l-4.9-3.5c0,0,0,0,0,0c-0.1-0.1-0.1-0.2-0.2-0.2c-0.1-0.1-0.1-0.2,0-0.3
				c0.1-0.1,0.2-0.1,0.3,0l4.8,3.3c0,0,0,0,0,0c0.1,0.1,0.3,0.3,0.4,0.5c0,0,0.1,0.1,0.1,0.2C42.2,39.6,42.1,39.7,42,39.7
				C42,39.7,42,39.7,42,39.7z"/>
		</g>
		<g>
			<path fill="#FFFFFF" d="M41.6,39l-4.8-3.3c-0.1-0.1-0.2-0.2-0.3-0.3l4.6,3.1C41.3,38.7,41.4,38.8,41.6,39"/>
			<path fill="#231F20" d="M41.6,39.2c0,0-0.1,0-0.1,0l-4.8-3.3c0,0,0,0,0,0c-0.1-0.1-0.2-0.2-0.2-0.2c-0.1-0.1-0.1-0.2,0-0.3
				c0.1-0.1,0.2-0.1,0.3,0l4.6,3.1c0,0,0,0,0,0c0.2,0.1,0.3,0.3,0.5,0.5c0,0,0.1,0.1,0.1,0.2C41.8,39.1,41.7,39.2,41.6,39.2
				L41.6,39.2C41.6,39.2,41.6,39.2,41.6,39.2z"/>
		</g>
		<g>
			<path fill="#FFFFFF" d="M41.1,38.5l-4.6-3.1c-0.1-0.1-0.2-0.2-0.3-0.3l4.3,2.9C40.8,38.2,40.9,38.4,41.1,38.5"/>
			<path fill="#231F20" d="M41.1,38.8c0,0-0.1,0-0.1,0l-4.6-3.1c0,0,0,0,0,0c-0.1-0.1-0.2-0.2-0.3-0.3c-0.1-0.1-0.1-0.2,0-0.3
				c0.1-0.1,0.2-0.1,0.3-0.1l4.3,2.9c0,0,0,0,0,0c0.2,0.1,0.4,0.3,0.5,0.5c0.1,0,0.1,0.1,0.1,0.2C41.3,38.7,41.2,38.8,41.1,38.8
				C41.1,38.8,41.1,38.8,41.1,38.8z"/>
		</g>
		<g>
			<path fill="#FFFFFF" d="M40.6,38.1l-4.3-2.9c-0.1-0.1-0.2-0.2-0.3-0.2l4.1,2.7C40.2,37.8,40.4,37.9,40.6,38.1"/>
			<path fill="#231F20" d="M40.6,38.3c0,0-0.1,0-0.1,0l-4.3-2.9c0,0,0,0,0,0c-0.1-0.1-0.2-0.1-0.3-0.2c-0.1-0.1-0.1-0.2-0.1-0.3
				c0.1-0.1,0.2-0.1,0.3-0.1v0c0,0,0,0,0,0l4.1,2.7c0.2,0.1,0.4,0.3,0.6,0.4c0.1,0,0.1,0.1,0.1,0.2C40.8,38.2,40.7,38.3,40.6,38.3
				C40.6,38.3,40.6,38.3,40.6,38.3z"/>
		</g>
	</g>
	<g>
		<path fill="#FFFFFF" d="M38.2,51.9c0.1-0.1,0.1-0.1,0.2-0.2c0.1-0.1,0.1-0.1,0.2-0.2c0.1-0.1,0.2-0.2,0.3-0.3
			C39,51.1,39,51,39.1,51c0.1-0.1,0.2-0.2,0.3-0.4c0,0,0.1-0.1,0.1-0.1l0,0c1.1-1.9,0.4-4-2.1-5.6c-0.9-0.5-1.9-0.9-3-1.2
			c0.1,0,0.2,0.1,0.4,0.1l1.4-4.2c0.5,0.1,1,0.3,1.5,0.5c0.7,0.3,1.4,0.6,2.1,1l0-3.7c-0.6-0.4-1.3-0.7-2.1-1
			c-0.5-0.2-1-0.4-1.5-0.5c-0.4-0.1-0.9-0.2-1.3-0.3c-0.4-0.1-0.8-0.2-1.2-0.2c-0.4-0.1-0.8-0.1-1.2-0.1c-0.4,0-0.8-0.1-1.2-0.1
			c-0.4,0-0.8,0-1.3,0c-0.5,0-0.9,0-1.4,0.1c-0.5,0.1-1.1,0.1-1.6,0.2c-0.8,0.1-1.5,0.3-2.2,0.5c-1,0.3-1.9,0.7-2.7,1.2
			c-0.2,0.1-0.4,0.2-0.6,0.4c-0.6,0.4-1,0.7-1.4,1.1c-0.3,0.3-0.5,0.5-0.7,0.8l0,3.7c0.2-0.3,0.5-0.6,0.7-0.8
			c0.4-0.4,0.9-0.8,1.4-1.1c0.2-0.1,0.4-0.2,0.6-0.4c0.8-0.5,1.8-0.9,2.7-1.2c0.2-0.1,0.4-0.1,0.6-0.2l1.3,4.2
			c0.1,0,0.3-0.1,0.4-0.1c0,0,0.1,0,0.1,0c-1.1,0.3-2.1,0.6-3,1.1c-3.4,1.9-3.8,5-1.1,7.1c-0.5-0.2-1-0.5-1.4-0.7l0,0l0,0l2.3,1.3
			c0.5,0.3,1,0.5,1.6,0.8l0,0c0,0,0.1,0,0.1,0c0.3,0.1,0.6,0.2,0.9,0.3c0.1,0,0.2,0.1,0.3,0.1c0.4,0.1,0.7,0.2,1.1,0.2c0,0,0,0,0,0
			c0.1,0,0.3,0,0.4,0.1c0.2,0,0.3,0.1,0.5,0.1c0.1,0,0.3,0,0.4,0c0.2,0,0.3,0,0.5,0c0.1,0,0.3,0,0.4,0c0.2,0,0.3,0,0.5,0
			c0.1,0,0.3,0,0.4,0c0.2,0,0.3,0,0.5,0c0,0,0,0,0.1,0c0.3,0,0.5,0,0.8-0.1c0,0,0,0,0.1,0c0.3,0,0.5-0.1,0.8-0.1c0.1,0,0.2,0,0.3,0
			c0.2,0,0.4-0.1,0.5-0.1c0.1,0,0.2,0,0.3-0.1c0.2,0,0.3-0.1,0.5-0.1c0.1,0,0.2-0.1,0.3-0.1c0.2,0,0.3-0.1,0.5-0.2
			c0.1,0,0.2-0.1,0.3-0.1c0.2-0.1,0.3-0.1,0.5-0.2c0.1,0,0.2-0.1,0.2-0.1c0.2-0.1,0.5-0.2,0.7-0.3c0.1,0,0.1-0.1,0.2-0.1
			c0.7-0.4,1.5-0.9,2.2-1.3c-0.1,0.1-0.2,0.1-0.3,0.2C38.9,51.5,38.5,51.7,38.2,51.9z M36,39.6C36,39.6,36,39.6,36,39.6
			C36,39.6,36,39.6,36,39.6L36,39.6z M34.7,39.2C34.7,39.2,34.7,39.2,34.7,39.2C34.7,39.2,34.6,39.2,34.7,39.2
			C34.6,39.2,34.6,39.2,34.7,39.2z M33.4,39C33.4,39,33.4,39,33.4,39C33.4,39,33.4,39,33.4,39C33.4,39,33.4,39,33.4,39z M28.5,43.3
			c0.1,0,0.1,0,0.2,0c0.1,0,0.1,0,0.2,0c-0.3,0-0.6,0.1-0.9,0.1c0.1,0,0.2,0,0.2,0C28.3,43.4,28.4,43.4,28.5,43.3z M28.9,43.3
			c0.1,0,0.1,0,0.2,0c0.1,0,0.1,0,0.2,0c0,0,0.1,0,0.1,0s0.1,0,0.1,0c0,0,0.1,0,0.1,0c0,0,0,0,0.1,0C29.5,43.3,29.2,43.3,28.9,43.3
			C28.9,43.3,28.9,43.3,28.9,43.3z M29.9,43.2c0,0,0.1,0,0.1,0c0,0,0.1,0,0.1,0c0,0,0.1,0,0.1,0c0,0,0.1,0,0.1,0c0,0,0.1,0,0.1,0
			c0,0,0.1,0,0.1,0C30.4,43.2,30.1,43.2,29.9,43.2C29.8,43.2,29.8,43.2,29.9,43.2z M30.7,43.2c0.1,0,0.1,0,0.2,0c0.1,0,0.1,0,0.2,0
			c0.1,0,0.1,0,0.2,0c0.1,0,0.1,0,0.2,0c0.1,0,0.1,0,0.2,0c0,0,0,0,0,0C31.3,43.2,31,43.2,30.7,43.2C30.7,43.2,30.7,43.2,30.7,43.2z
			 M31.7,43.3c0.1,0,0.1,0,0.2,0c0.1,0,0.1,0,0.2,0c0.1,0,0.2,0,0.2,0c0,0,0.1,0,0.1,0c-0.3,0-0.6-0.1-0.9-0.1
			C31.6,43.3,31.7,43.3,31.7,43.3z M32.2,38.9C32.2,38.9,32.2,38.9,32.2,38.9C32.2,38.9,32.2,38.9,32.2,38.9
			C32.2,38.9,32.2,38.9,32.2,38.9z M31,38.8C31,38.8,31,38.8,31,38.8C31,38.8,31,38.8,31,38.8C31,38.8,31,38.8,31,38.8z M29.7,38.9
			C29.7,38.9,29.7,38.9,29.7,38.9C29.7,38.9,29.7,38.9,29.7,38.9C29.7,38.9,29.7,38.9,29.7,38.9z M28.3,38.9
			C28.3,38.9,28.3,38.9,28.3,38.9C28.3,38.9,28.3,38.9,28.3,38.9C28.3,38.9,28.3,38.9,28.3,38.9z M25.6,39.4L25.6,39.4
			c0.4-0.1,0.8-0.2,1.1-0.2c0.1,0,0.1,0,0.2,0C26.5,39.2,26,39.3,25.6,39.4z M27.9,43.4C28,43.4,28,43.4,27.9,43.4c0,0-0.1,0-0.1,0
			C27.9,43.4,27.9,43.4,27.9,43.4z M32.8,50.2c0,0.1-0.1,0.1-0.2,0.2c0,0-0.1,0.1-0.1,0.1c-0.1,0.1-0.2,0.2-0.4,0.3
			c-0.1,0.1-0.2,0.1-0.4,0.2c0,0-0.1,0-0.1,0c-0.1,0-0.2,0.1-0.3,0.1c-0.1,0-0.1,0-0.2,0c-0.1,0-0.2,0-0.3,0c-0.1,0-0.1,0-0.2,0
			c-0.1,0-0.2,0-0.3,0c-0.1,0-0.2,0-0.2,0c-0.1,0-0.2,0-0.2,0c-0.1,0-0.2,0-0.2,0c-0.1,0-0.1,0-0.2,0c-0.2,0-0.4-0.1-0.5-0.1
			c-0.2-0.1-0.3-0.1-0.5-0.2c-1-0.6-0.9-1.5,0.1-2.1c1-0.6,2.6-0.5,3.6,0C33,49.1,33.2,49.7,32.8,50.2z M32.5,43.3c0,0,0.1,0,0.1,0
			c0.1,0,0.2,0,0.2,0c0.1,0,0.2,0,0.3,0c0.1,0,0.1,0,0.2,0C33.1,43.4,32.8,43.4,32.5,43.3z M33.4,43.5
			C33.4,43.5,33.4,43.5,33.4,43.5c0.2,0,0.3,0.1,0.4,0.1c0.1,0,0.3,0.1,0.4,0.1c0,0,0,0,0,0C33.9,43.6,33.7,43.5,33.4,43.5z"/>
		<path fill="#231F20" d="M30.4,54.4L30.4,54.4c-0.2,0-0.3,0-0.4,0l-0.2,0c-0.1,0-0.2,0-0.3,0c-0.1,0-0.2,0-0.4,0l-0.1,0
			c0,0-0.1,0-0.1,0c-0.1,0-0.2,0-0.3,0c-0.1,0-0.2,0-0.4-0.1l-0.1,0c0,0-0.1,0-0.1,0c-0.1,0-0.2,0-0.2,0c0,0,0,0,0,0
			c-0.4-0.1-0.7-0.1-1.1-0.3c-0.1,0-0.1,0-0.2-0.1l-0.1,0c-0.3-0.1-0.6-0.2-0.9-0.3c0,0,0,0-0.1,0c0,0-0.1,0-0.1,0c0,0,0,0,0,0
			c-0.6-0.2-1.1-0.5-1.6-0.8l-2.1-1.2c-0.1,0-0.1-0.1-0.2-0.1l0,0c-0.1-0.1-0.1-0.2-0.1-0.3c0.1-0.1,0.2-0.2,0.3-0.1l0,0
			c0,0,0,0,0,0l0,0c0,0,0,0,0,0l0.2,0.1c-0.6-0.8-0.9-1.7-0.9-2.7c0.1-1.5,1.2-2.8,3-3.8c0.7-0.4,1.5-0.7,2.3-1L25,39.8
			c-0.1,0-0.3,0.1-0.4,0.1c-1,0.3-1.9,0.7-2.7,1.1c-0.2,0.1-0.4,0.2-0.6,0.3c-0.5,0.3-1,0.7-1.4,1.1c-0.3,0.3-0.5,0.5-0.7,0.8
			c-0.1,0.1-0.2,0.1-0.3,0.1c-0.1,0-0.2-0.1-0.2-0.2l0-3.7c0,0,0-0.1,0-0.1c0.2-0.3,0.5-0.6,0.8-0.9c0.4-0.4,0.9-0.8,1.5-1.2
			c0.2-0.1,0.4-0.2,0.6-0.4c0.8-0.5,1.8-0.9,2.8-1.2c0.7-0.2,1.5-0.4,2.3-0.6c0.5-0.1,1.1-0.2,1.6-0.2c0.5,0,0.9-0.1,1.4-0.1
			c0.4,0,0.9,0,1.3,0c0.4,0,0.8,0,1.2,0.1c0.4,0,0.8,0.1,1.2,0.1c0.4,0.1,0.8,0.1,1.3,0.2c0.5,0.1,0.9,0.2,1.3,0.3
			c0.5,0.1,1,0.3,1.5,0.5c0.8,0.3,1.5,0.6,2.1,1c0.1,0,0.1,0.1,0.1,0.2l0,3.6c0,0,0,0,0,0c0,0.1-0.1,0.2-0.2,0.2c0,0,0,0,0,0
			c0,0-0.1,0-0.1,0c-0.6-0.4-1.3-0.7-2-1c-0.4-0.2-0.8-0.3-1.3-0.4l-1.2,3.8c0.9,0.3,1.8,0.6,2.5,1.1c1.3,0.8,2.1,1.7,2.5,2.8
			c0.4,1,0.3,2.1-0.3,3.1c0,0,0,0,0,0.1c0,0,0,0.1-0.1,0.1c0,0,0,0,0,0c-0.1,0.1-0.1,0.2-0.2,0.3c0,0,0,0,0,0l0,0
			c0.1-0.1,0.2,0,0.3,0.1c0.1,0.1,0,0.2-0.1,0.3c0,0,0,0,0,0l-2.2,1.3c-0.1,0-0.1,0.1-0.2,0.1c-0.2,0.1-0.4,0.2-0.7,0.4
			c-0.1,0-0.1,0-0.2,0.1c0,0-0.1,0-0.1,0c-0.1,0.1-0.3,0.1-0.5,0.2c-0.1,0-0.2,0.1-0.2,0.1l-0.1,0c-0.2,0.1-0.3,0.1-0.5,0.2
			c-0.1,0-0.2,0.1-0.3,0.1c-0.2,0-0.3,0.1-0.5,0.1l0,0c-0.1,0-0.2,0-0.3,0.1c-0.2,0-0.3,0.1-0.6,0.1c0,0-0.1,0-0.1,0
			c-0.1,0-0.1,0-0.2,0c-0.3,0-0.5,0.1-0.8,0.1l0,0c0,0,0,0,0,0c-0.3,0-0.5,0-0.8,0.1c0,0,0,0,0,0l0,0c-0.1,0-0.2,0-0.4,0l-0.3,0
			C30.6,54.4,30.5,54.4,30.4,54.4z M25.4,53C25.4,53.1,25.4,53.1,25.4,53C25.4,53.1,25.4,53.1,25.4,53c0.4,0.1,0.7,0.2,1,0.3l0.1,0
			c0.1,0,0.1,0,0.2,0.1c0.4,0.1,0.7,0.2,1.1,0.2c0,0,0,0,0,0c0.1,0,0.1,0,0.2,0c0,0,0.1,0,0.1,0l0.1,0c0.1,0,0.2,0,0.3,0
			c0.1,0,0.2,0,0.3,0c0,0,0.1,0,0.1,0l0.1,0c0.1,0,0.2,0,0.3,0c0.1,0,0.2,0,0.3,0c0,0,0.1,0,0.1,0l0.1,0c0.1,0,0.2,0,0.4,0l0,0
			c0.1,0,0.2,0,0.3,0l0.3,0c0.1,0,0.2,0,0.4,0c0,0,0,0,0,0l0,0c0.3,0,0.5,0,0.8-0.1l0,0c0,0,0,0,0,0c0.3,0,0.5-0.1,0.8-0.1
			c0.1,0,0.1,0,0.2,0c0,0,0.1,0,0.1,0c0.2,0,0.4-0.1,0.5-0.1c0.1,0,0.2,0,0.3-0.1l0,0c0.2,0,0.3-0.1,0.5-0.1c0.1,0,0.2-0.1,0.3-0.1
			c0.1,0,0.3-0.1,0.5-0.2l0.1,0c0.1,0,0.2-0.1,0.2-0.1c0.2-0.1,0.4-0.1,0.5-0.2c0,0,0.1,0,0.1,0c0,0,0.1,0,0.1-0.1
			c0.2-0.1,0.5-0.2,0.7-0.3c0.1,0,0.1-0.1,0.2-0.1l0.8-0.5c0-0.1,0-0.1,0.1-0.1c0.1-0.1,0.1-0.1,0.2-0.2c0.1-0.1,0.1-0.1,0.2-0.2
			l0,0c0.1-0.1,0.2-0.2,0.3-0.3c0.1-0.1,0.1-0.1,0.2-0.2c0.1-0.1,0.2-0.2,0.2-0.3c0,0,0,0,0.1-0.1c0,0,0,0,0,0c0,0,0,0,0,0
			c1.1-1.8,0.3-3.8-2-5.3c-0.9-0.5-1.9-0.9-3-1.2c0,0,0,0,0,0c0,0,0,0,0,0c0,0,0,0,0,0l0,0l0,0c-0.3-0.1-0.5-0.1-0.8-0.2
			c0,0,0,0,0,0c0,0,0,0,0,0l0,0c-0.3,0-0.6-0.1-0.8-0.1l0,0l0,0c0,0,0,0,0,0c0,0,0,0,0,0c-0.3,0-0.6-0.1-0.9-0.1c0,0,0,0,0,0
			c0,0,0,0,0,0c0,0,0,0,0,0l0,0c-0.3,0-0.6,0-0.9,0l0,0c0,0,0,0,0,0c0,0,0,0,0,0c-0.3,0-0.6,0-0.9,0h0l0,0c0,0,0,0,0,0c0,0,0,0,0,0
			h0h0c-0.3,0-0.6,0-0.9,0.1l0,0h0c0,0,0,0,0,0c0,0,0,0,0,0h0c0,0,0,0,0,0c-0.3,0-0.6,0.1-0.9,0.1l0,0c0,0,0,0,0,0c0,0,0,0,0,0
			c0,0,0,0,0,0l0,0c0,0,0,0-0.1,0c0,0-0.1,0-0.1,0c-0.1,0-0.2-0.1-0.3-0.2c0-0.1,0.1-0.2,0.2-0.3h0l0,0c0,0,0,0,0,0c0,0,0,0,0,0
			c0,0,0,0,0.1,0l0,0c0,0,0,0,0,0c0,0,0,0,0,0c0,0,0,0,0,0c0,0,0,0,0,0c0.1,0,0.2,0,0.2,0c0.1,0,0.2,0,0.3,0c0.1,0,0.1,0,0.2,0
			c0.1,0,0.1,0,0.2,0c0,0,0,0,0,0c0,0,0,0,0,0l0,0c0.1,0,0.1,0,0.2,0c0.1,0,0.1,0,0.2,0c0.1,0,0.1,0,0.2,0c0.1,0,0.1,0,0.2,0
			c0.1,0,0.1,0,0.2,0l0.1,0c0,0,0,0,0,0c0,0,0,0,0,0l0.1,0c0.1,0,0.1,0,0.2,0c0,0,0.1,0,0.1,0c0,0,0.1,0,0.1,0c0,0,0.1,0,0.1,0
			l0.1,0l0.2,0c0,0,0,0,0,0h0c0,0,0,0,0,0c0,0,0,0,0,0l0,0c0.1,0,0.1,0,0.2,0c0.1,0,0.1,0,0.2,0c0.1,0,0.1,0,0.2,0
			c0.1,0,0.1,0,0.2,0c0.1,0,0.1,0,0.2,0l0,0l0,0l0,0l0,0l0,0l0,0c0,0,0,0,0,0h0l0,0c0,0,0,0,0,0h0c0,0,0,0,0,0c0,0,0,0,0,0
			c0,0,0,0,0,0h0c0,0,0,0,0,0l0,0l0,0h0l0,0l0,0h0c0,0,0,0,0,0c0.1,0,0.1,0,0.2,0c0.1,0,0.1,0,0.2,0c0.1,0,0.1,0,0.2,0
			c0.1,0,0.2,0,0.2,0l0.1,0v0h0c0,0,0,0,0,0c0,0,0,0,0,0l0.1,0c0.1,0,0.2,0,0.2,0c0.1,0,0.2,0,0.3,0c0.1,0,0.1,0,0.2,0l0,0
			c0,0,0,0,0,0c0,0,0,0,0,0l0.1,0c0.1,0,0.2,0,0.4,0.1c0.1,0,0.3,0.1,0.4,0.1l0,0c0,0,0,0,0,0c0,0,0,0,0,0c0.1,0,0.1,0,0.2,0
			l1.3-3.9c0,0,0,0,0-0.1c0-0.1,0.2-0.2,0.3-0.2c0,0,0,0,0,0l0,0c0,0,0,0,0,0c0.5,0.1,1,0.3,1.5,0.5c0.6,0.2,1.2,0.5,1.7,0.8l0-3.2
			c-0.6-0.3-1.2-0.7-1.9-0.9c-0.5-0.2-1-0.4-1.5-0.5c-0.4-0.1-0.9-0.2-1.3-0.3c-0.4-0.1-0.8-0.2-1.2-0.2c-0.4-0.1-0.8-0.1-1.2-0.1
			c-0.4,0-0.8-0.1-1.2-0.1c-0.4,0-0.8,0-1.3,0c-0.5,0-0.9,0-1.4,0.1c-0.5,0.1-1,0.1-1.6,0.2c-0.8,0.1-1.5,0.3-2.2,0.5
			c-1,0.3-1.9,0.7-2.7,1.1c-0.2,0.1-0.4,0.2-0.6,0.3c-0.5,0.3-1,0.7-1.4,1.1c-0.3,0.2-0.5,0.5-0.7,0.7l0,3c0.1-0.1,0.2-0.3,0.4-0.4
			c0.4-0.4,0.9-0.8,1.5-1.2c0.2-0.1,0.4-0.2,0.6-0.4c0.8-0.5,1.8-0.9,2.8-1.2c0.1,0,0.3-0.1,0.4-0.1c0.1,0,0.1,0,0.2,0
			c0.1,0,0.2,0,0.3,0.1l1.3,4c0.1,0,0.1,0,0.2,0c0,0,0.1,0,0.1,0c0,0,0,0,0,0c0,0,0,0,0,0c0.1,0,0.2,0,0.3,0.2c0,0.1,0,0.2-0.2,0.3
			c0,0,0,0,0,0c-1.1,0.3-2.1,0.6-2.9,1.1c-1.7,0.9-2.7,2.2-2.8,3.5c-0.1,1.2,0.5,2.3,1.7,3.3c0,0,0.1,0.1,0.1,0.1l0.7,0.4
			C24.3,52.6,24.8,52.8,25.4,53C25.3,53,25.4,53,25.4,53z M30.5,51.3c0,0-0.1,0-0.1,0c-0.1,0-0.2,0-0.2,0c-0.1,0-0.2,0-0.3,0
			c-0.1,0-0.1,0-0.2,0c-0.2,0-0.4-0.1-0.6-0.2c-0.2-0.1-0.4-0.2-0.5-0.2c-0.5-0.3-0.8-0.8-0.8-1.2c0-0.5,0.3-0.9,0.9-1.2
			c0.5-0.3,1.2-0.4,1.9-0.4c0.7,0,1.4,0.2,1.9,0.5c0.4,0.3,0.7,0.6,0.8,1c0.1,0.3,0,0.6-0.2,0.9c0,0.1-0.1,0.1-0.2,0.2c0,0,0,0,0,0
			c0,0,0,0-0.1,0.1c-0.1,0.1-0.3,0.2-0.4,0.3c-0.1,0.1-0.3,0.1-0.4,0.2c0,0-0.1,0-0.1,0c0,0,0,0,0,0c-0.1,0-0.2,0.1-0.3,0.1
			c0,0-0.1,0-0.1,0l0,0c-0.1,0-0.2,0-0.3,0c-0.1,0-0.1,0-0.2,0c-0.1,0-0.2,0-0.3,0C30.5,51.3,30.5,51.3,30.5,51.3z M30.5,48.4
			c-0.6,0-1.2,0.1-1.6,0.4c-0.4,0.2-0.7,0.5-0.7,0.8c0,0.3,0.2,0.6,0.6,0.8c0.1,0.1,0.3,0.1,0.4,0.2c0.1,0.1,0.3,0.1,0.5,0.1
			c0.1,0,0.1,0,0.2,0c0.1,0,0.1,0,0.2,0c0.1,0,0.2,0,0.2,0c0.1,0,0.2,0,0.2,0c0.1,0,0.2,0,0.2,0c0.1,0,0.1,0,0.2,0
			c0.1,0,0.2,0,0.3,0l0,0c0,0,0.1,0,0.1,0c0.1,0,0.2-0.1,0.3-0.1c0,0,0,0,0.1,0c0,0,0,0,0.1,0c0.1-0.1,0.2-0.1,0.3-0.2
			c0.1-0.1,0.2-0.1,0.3-0.2c0,0,0,0,0,0c0,0,0,0,0,0c0.1-0.1,0.1-0.1,0.1-0.2c0.1-0.2,0.2-0.4,0.1-0.5c-0.1-0.2-0.3-0.5-0.6-0.7
			C31.8,48.6,31.1,48.4,30.5,48.4z M25.6,39.6c-0.1,0-0.2-0.1-0.2-0.2c0-0.1,0-0.2,0.1-0.3c0,0,0,0,0,0l0.1,0
			c0.4-0.1,0.7-0.2,1.1-0.2c0,0,0.1,0,0.1,0c0,0,0,0,0.1,0l0,0h0c0.1,0,0.2,0.1,0.3,0.2c0,0.1-0.1,0.2-0.2,0.3
			c-0.5,0.1-0.9,0.2-1.2,0.2l0,0L25.6,39.6C25.7,39.6,25.6,39.6,25.6,39.6z M34.7,39.5C34.7,39.5,34.7,39.5,34.7,39.5L34.7,39.5
			L34.7,39.5l-0.1,0h0c-0.1,0-0.2-0.1-0.2-0.3c0-0.1,0.1-0.2,0.3-0.2l0,0c0,0,0,0,0,0c0,0,0,0,0,0c0.1,0,0.2,0.1,0.2,0.3
			C34.9,39.4,34.8,39.5,34.7,39.5z M33.4,39.3C33.4,39.3,33.4,39.3,33.4,39.3L33.4,39.3c-0.2,0-0.3-0.1-0.3-0.3
			c0-0.1,0.1-0.2,0.3-0.2c0,0,0,0,0,0l0,0c0.1,0,0.2,0.1,0.2,0.3C33.7,39.2,33.6,39.3,33.4,39.3z M28.3,39.2c-0.1,0-0.2-0.1-0.2-0.2
			c0-0.1,0.1-0.2,0.2-0.2c0,0,0,0,0,0c0,0,0,0,0,0c0.1,0,0.2,0.1,0.2,0.2C28.6,39,28.5,39.2,28.3,39.2
			C28.4,39.2,28.4,39.2,28.3,39.2L28.3,39.2C28.4,39.2,28.4,39.2,28.3,39.2C28.3,39.2,28.3,39.2,28.3,39.2L28.3,39.2
			C28.3,39.2,28.3,39.2,28.3,39.2C28.3,39.2,28.3,39.2,28.3,39.2z M32.2,39.1C32.2,39.1,32.2,39.1,32.2,39.1L32.2,39.1
			C32.2,39.1,32.2,39.1,32.2,39.1C32.2,39.1,32.2,39.1,32.2,39.1L32.2,39.1c-0.2,0-0.2-0.1-0.2-0.2c0-0.1,0.1-0.2,0.2-0.2
			c0,0,0,0,0,0c0,0,0,0,0,0c0.1,0,0.2,0.1,0.2,0.2C32.4,39,32.3,39.1,32.2,39.1z M29.7,39.1c-0.1,0-0.2-0.1-0.2-0.2
			c0-0.1,0.1-0.2,0.2-0.2c0,0,0,0,0,0c0.1,0,0.2,0.1,0.2,0.2C29.9,39,29.8,39.1,29.7,39.1L29.7,39.1C29.7,39.1,29.7,39.1,29.7,39.1z
			 M31,39.1C31,39.1,31,39.1,31,39.1L31,39.1C31,39.1,31,39.1,31,39.1L31,39.1l0-0.4c0,0,0,0,0,0l0,0c0,0,0,0,0,0
			c0.1,0,0.2,0.1,0.2,0.2C31.2,39,31.1,39.1,31,39.1z"/>
	</g>
	<g>
		<path fill="#FFFFFF" d="M43,44.9l0-0.6c0-0.2,0-0.4,0-0.6l0-1.2c0-0.2,0-0.3,0-0.5c0,0,0,0,0,0c0-0.2-0.1-0.4-0.1-0.6
			c0,0,0-0.1,0-0.1c0-0.2-0.1-0.3-0.2-0.5c0,0,0-0.1-0.1-0.1c-0.1-0.2-0.1-0.3-0.2-0.5c0-0.1-0.1-0.1-0.1-0.2
			c-0.1-0.1-0.2-0.3-0.3-0.4c-0.1-0.1-0.1-0.2-0.2-0.3c-0.1-0.1-0.2-0.2-0.3-0.3c-0.1-0.1-0.2-0.2-0.3-0.3c-0.1-0.1-0.2-0.2-0.3-0.3
			c-0.1-0.1-0.2-0.2-0.4-0.3c-0.1-0.1-0.2-0.2-0.4-0.3c-0.1,0-0.1-0.1-0.2-0.1c-1-0.7-2-1.3-3-2l-0.2-0.3c0,0,0,0,0-0.1l-0.4-0.8
			c0,0,0-0.1-0.1-0.1c0,0,0-0.1,0-0.1l-0.3-0.7c0-0.1-0.1-0.2-0.1-0.2c-0.1-0.2-0.2-0.5-0.3-0.7c0-0.1-0.1-0.2-0.1-0.3
			c-0.1-0.2-0.2-0.5-0.3-0.7c-0.1-0.2-0.2-0.4-0.3-0.6l0-0.1c0-0.1-0.1-0.2-0.1-0.3c0,0,0-0.1-0.1-0.2c0.6-2.2,1.3-4.5,1.9-6.7
			c0-0.1,0.1-0.3,0.1-0.4c0,0,0-0.1,0-0.1c0-0.1,0-0.2,0-0.3c0-0.1,0-0.1,0-0.2c0-0.1,0-0.2-0.1-0.2c0-0.1,0-0.1-0.1-0.2
			c0-0.1-0.1-0.2-0.1-0.2c0-0.1-0.1-0.1-0.1-0.2c0-0.1-0.1-0.1-0.1-0.2c0-0.1-0.1-0.1-0.1-0.2c-0.1-0.1-0.1-0.1-0.2-0.2
			c-0.1-0.1-0.1-0.1-0.2-0.2c-0.1-0.1-0.1-0.1-0.2-0.2c-0.1-0.1-0.1-0.1-0.2-0.2c0,0-0.1-0.1-0.1-0.1c-0.1-0.1-0.2-0.1-0.3-0.2
			c-0.1-0.1-0.2-0.1-0.3-0.2c0,0,0,0-0.1,0c-0.1,0-0.2-0.1-0.3-0.1c-0.1,0-0.1-0.1-0.2-0.1c0,0,0,0-0.1,0c-0.1,0-0.1-0.1-0.2-0.1
			c-0.1,0-0.1-0.1-0.2-0.1c0,0-0.1,0-0.1,0c-0.1,0-0.1,0-0.2-0.1c-0.1,0-0.1,0-0.2-0.1c-0.1,0-0.1,0-0.2,0c-0.1,0-0.1,0-0.2,0
			c0,0-0.1,0-0.1,0c-0.1,0-0.2,0-0.3-0.1c0,0-0.1,0-0.1,0c0,0,0,0,0,0c-0.1,0-0.3,0-0.4-0.1c0,0,0,0-0.1,0c0,0-0.1,0-0.1,0
			c-0.1,0-0.2,0-0.2,0c-0.1,0-0.1,0-0.2,0c-0.1,0-0.1,0-0.2,0c0,0-0.1,0-0.1,0c-0.1,0-0.2,0-0.3,0c0,0-0.1,0-0.1,0c0,0,0,0,0,0
			c-0.2,0-0.3,0-0.5,0c0,0,0,0,0,0c-0.1,0-0.1,0-0.2,0c-0.1,0-0.2,0-0.3,0c0,0-0.1,0-0.1,0c-0.1,0-0.2,0-0.3,0c-0.1,0-0.2,0-0.2,0
			c0,0-0.1,0-0.1,0c-0.1,0-0.3,0-0.4,0.1c-0.1,0-0.1,0-0.2,0c0,0,0,0,0,0c-0.2,0-0.4,0.1-0.6,0.2c0,0-0.1,0-0.1,0
			c-0.2,0.1-0.3,0.1-0.5,0.2c0,0-0.1,0-0.1,0c-0.1,0-0.2,0.1-0.3,0.1c0,0,0,0,0,0c-0.2,0.1-0.3,0.2-0.5,0.2
			c-0.2,0.1-0.3,0.2-0.5,0.3c0,0-0.1,0.1-0.1,0.1c0,0-0.1,0.1-0.1,0.1c0,0-0.1,0.1-0.1,0.1c-0.1,0.1-0.1,0.1-0.2,0.2
			c0,0-0.1,0-0.1,0.1c0,0.1-0.1,0.1-0.1,0.2c0,0-0.1,0.1-0.1,0.1c0,0,0,0,0,0c-0.1,0.1-0.1,0.2-0.2,0.3c0,0,0,0,0,0c0,0,0,0,0,0
			c0,0.1-0.1,0.1-0.1,0.2c0,0,0,0.1,0,0.1c0,0,0,0.1,0,0.1c0,0,0,0,0,0.1c0,0.1,0,0.2-0.1,0.3c0,0,0,0,0,0c0,0,0,0,0,0.1
			c0,0.1,0,0.1,0,0.2c0,0.1,0,0.1,0,0.2c0,0,0,0,0,0c0,0,0,0,0,0c0,0.1,0,0.2,0,0.3c0,0,0,0.1,0,0.1l0,0l0,0c0.7,2.2,1.3,4.5,2,6.7
			c0,0,0,0.1-0.1,0.1L26,30.9c0,0,0,0.1-0.1,0.1c-0.1,0.2-0.2,0.5-0.3,0.7c-0.1,0.2-0.2,0.5-0.3,0.7c0,0.1-0.1,0.2-0.1,0.3
			c-0.1,0.2-0.2,0.5-0.3,0.7c-0.1,0.2-0.2,0.5-0.3,0.7c0,0.1-0.1,0.2-0.1,0.3l-0.4,0.8c0,0,0,0,0,0c-0.1,0.1-0.1,0.3-0.2,0.4l0,0.1
			c-1,0.7-2,1.4-3,2c0,0,0,0,0,0c-0.1,0-0.1,0.1-0.2,0.1c-0.2,0.1-0.4,0.3-0.6,0.4c-0.1,0.1-0.2,0.2-0.3,0.2
			c-0.1,0.1-0.3,0.2-0.4,0.4c-0.1,0.1-0.2,0.2-0.2,0.3c-0.1,0.1-0.2,0.2-0.3,0.3l0,0c0,0,0,0.1-0.1,0.1c0,0,0,0.1-0.1,0.1
			c-0.1,0.1-0.1,0.2-0.2,0.3c0,0,0,0,0,0c0,0.1-0.1,0.1-0.1,0.2c0,0,0,0,0,0c0,0.1-0.1,0.1-0.1,0.2c0,0.1-0.1,0.2-0.1,0.3
			c0,0.1-0.1,0.1-0.1,0.2c0,0,0,0,0,0c0,0.1,0,0.1-0.1,0.2c0,0.1,0,0.1-0.1,0.2c0,0.1-0.1,0.2-0.1,0.3c0,0,0,0,0,0
			c0,0.1,0,0.1,0,0.2c0,0.1,0,0.1,0,0.2c0,0.1,0,0.2,0,0.3c0,0,0,0.1,0,0.1v0l0,0c0,0.4,0,0.8,0,1.2l0,0.6c0,0.2,0,0.4,0,0.6l0,1.2
			c0,0.1,0,0.1,0,0.2c0,0.1,0,0.2,0,0.2c0,0.2,0,0.3,0.1,0.5c0,0.2,0.1,0.3,0.1,0.5c0,0,0,0,0,0c0,0,0,0,0,0c0,0.1,0.1,0.3,0.2,0.4
			c0,0,0,0.1,0.1,0.1c0,0.1,0.1,0.1,0.1,0.2c0,0.1,0.1,0.1,0.1,0.2c0.1,0.1,0.1,0.2,0.2,0.3c0,0,0,0.1,0.1,0.1c0,0,0,0,0,0
			c0.1,0.2,0.2,0.3,0.4,0.5c0,0,0,0,0.1,0.1c0,0,0.1,0.1,0.1,0.1c0.1,0.1,0.2,0.2,0.2,0.3c0.1,0.1,0.1,0.1,0.2,0.1
			c0.1,0.1,0.1,0.1,0.2,0.2c0.1,0,0.1,0.1,0.1,0.1l0.1,0c0.4,0.3,0.8,0.6,1.2,0.9c0.3,0.2,0.6,0.4,1,0.5c0.1,0.1,0.2,0.1,0.3,0.2
			c0.2,0.1,0.5,0.2,0.7,0.3c0,0,0,0,0.1,0c0.1,0,0.1,0,0.2,0.1c0.4,0.1,0.8,0.3,1.2,0.4c0.1,0,0.1,0,0.2,0.1c0.1,0,0.2,0,0.2,0.1
			c0.3,0.1,0.5,0.1,0.8,0.2c0.1,0,0.2,0.1,0.3,0.1c0.1,0,0.1,0,0.2,0c0.2,0,0.5,0.1,0.7,0.1c0.1,0,0.3,0,0.4,0.1c0,0,0.1,0,0.1,0
			c0.2,0,0.4,0,0.6,0.1c0.1,0,0.3,0,0.4,0c0,0,0.1,0,0.1,0c0.2,0,0.4,0,0.6,0c0.2,0,0.3,0,0.5,0c0,0,0.1,0,0.1,0c0.2,0,0.5,0,0.7,0
			c0.1,0,0.3,0,0.4,0c0,0,0.1,0,0.1,0c0.4,0,0.9,0,1.3-0.1c0,0,0,0,0,0c0,0,0,0,0,0c0.5,0,0.9-0.1,1.4-0.2c0.1,0,0.1,0,0.2,0
			c0.1,0,0.3-0.1,0.4-0.1c0.2,0,0.4-0.1,0.6-0.1c0.2,0,0.4-0.1,0.6-0.1c0.2,0,0.4-0.1,0.5-0.2c0.1,0,0.1,0,0.2-0.1
			c0.1,0,0.2-0.1,0.2-0.1c0.3-0.1,0.6-0.2,0.9-0.3c0.1,0,0.2-0.1,0.4-0.2c0.4-0.2,0.8-0.4,1.2-0.6c0.2-0.1,0.4-0.2,0.6-0.4
			c0.1,0,0.1-0.1,0.2-0.1c0.1-0.1,0.2-0.2,0.4-0.3c0.1-0.1,0.3-0.2,0.4-0.3c0.1-0.1,0.2-0.2,0.3-0.3c0.1-0.1,0.1-0.1,0.2-0.2
			c0.1-0.1,0.2-0.2,0.2-0.2c0,0,0.1-0.1,0.1-0.1c0.1-0.2,0.3-0.3,0.4-0.5c0.2-0.2,0.3-0.5,0.5-0.7c0.1-0.1,0.1-0.2,0.1-0.3
			c0-0.1,0.1-0.2,0.1-0.3c0-0.1,0.1-0.1,0.1-0.2c0-0.1,0-0.1,0.1-0.2c0,0,0,0,0,0l0,0c0-0.1,0.1-0.2,0.1-0.3c0,0,0-0.1,0-0.1
			c0,0,0,0,0,0c0,0,0-0.1,0-0.1c0-0.1,0-0.2,0-0.2c0-0.1,0-0.2,0-0.3l0-0.1v0l0,0.1c0,0,0-0.1,0-0.1C43,45.7,43,45.3,43,44.9z"/>
		<path fill="#231F20" d="M30.3,53.6c-0.1,0-0.1,0-0.2,0l0,0l0,0c0,0,0,0,0,0l0,0c-0.1,0-0.2,0-0.3,0c-0.1,0-0.1,0-0.2,0l-0.1,0
			c-0.2,0-0.4,0-0.5,0c0,0,0,0-0.1,0c0,0-0.1,0-0.1,0c-0.1,0-0.2,0-0.3,0c-0.1,0-0.1,0-0.2,0l-0.1,0c-0.2,0-0.4,0-0.6-0.1
			c0,0,0,0-0.1,0c0,0-0.1,0-0.1,0c-0.1,0-0.2,0-0.2,0c-0.1,0-0.1,0-0.2,0c-0.2,0-0.5-0.1-0.7-0.1c0,0,0,0-0.1,0c0,0-0.1,0-0.1,0
			c-0.1,0-0.1,0-0.2,0c0,0-0.1,0-0.1,0c-0.3-0.1-0.6-0.1-0.8-0.2c0,0-0.1,0-0.1,0c0,0-0.1,0-0.1,0c0,0-0.1,0-0.1,0c0,0-0.1,0-0.1,0
			c-0.4-0.1-0.8-0.2-1.2-0.4c0,0,0,0-0.1,0c0,0-0.1,0-0.1,0c0,0,0,0,0,0c0,0,0,0,0,0c-0.2-0.1-0.4-0.2-0.7-0.3l0,0
			c0,0-0.1,0-0.1-0.1c-0.1,0-0.1-0.1-0.2-0.1c-0.3-0.2-0.7-0.3-1-0.5c-0.4-0.2-0.8-0.5-1.2-0.9l-0.1,0c0,0,0,0,0,0
			c0,0-0.1-0.1-0.1-0.1c0,0,0,0-0.1-0.1c-0.1-0.1-0.1-0.1-0.2-0.2c0,0,0,0-0.1-0.1c0,0-0.1-0.1-0.1-0.1c-0.1-0.1-0.1-0.1-0.2-0.2
			l-0.1-0.1c0,0,0,0,0-0.1c0,0-0.1-0.1-0.1-0.1c0,0,0,0,0,0c0,0,0,0,0,0c-0.1-0.2-0.3-0.3-0.4-0.5c0,0,0,0,0,0l0,0
			c0,0,0-0.1-0.1-0.1c0,0,0,0,0,0l0-0.1c-0.1-0.1-0.1-0.2-0.2-0.2c0,0,0-0.1-0.1-0.1c0,0,0,0,0-0.1c0-0.1-0.1-0.1-0.1-0.2
			c0,0,0,0,0,0c0,0,0-0.1,0-0.1c-0.1-0.1-0.1-0.3-0.2-0.5c0,0,0,0,0,0c0,0,0,0,0,0c-0.1-0.2-0.1-0.3-0.1-0.5c0-0.2-0.1-0.3-0.1-0.5
			c0-0.1,0-0.1,0-0.2c0,0,0-0.1,0-0.1c0,0,0,0,0-0.1c0,0,0-0.1,0-0.1l0-3.7c0,0,0-0.1,0-0.1c0-0.1,0-0.2,0-0.2c0,0,0-0.1,0-0.1
			c0,0,0,0,0-0.1c0,0,0-0.1,0-0.1c0,0,0,0,0-0.1c0,0,0-0.1,0-0.1c0,0,0,0,0-0.1c0-0.1,0-0.1,0-0.2c0,0,0-0.1,0-0.1l0,0
			c0-0.1,0-0.1,0.1-0.2c0,0,0,0,0-0.1c0,0,0-0.1,0-0.1c0,0,0,0,0,0c0,0,0-0.1,0.1-0.1c0,0,0,0,0-0.1c0-0.1,0.1-0.2,0.1-0.3
			c0,0,0-0.1,0-0.1c0,0,0-0.1,0.1-0.2c0,0,0,0,0,0c0-0.1,0.1-0.1,0.1-0.2l0.1-0.1c0.1-0.1,0.1-0.2,0.2-0.3l0,0c0,0,0,0,0.1-0.1
			c0,0,0,0,0,0c0,0,0,0,0-0.1c0,0,0,0,0,0c0.1-0.1,0.2-0.2,0.2-0.3l0-0.1c0.1-0.1,0.1-0.2,0.2-0.2c0.1-0.1,0.3-0.3,0.4-0.4
			c0,0,0.1-0.1,0.1-0.1c0.1-0.1,0.1-0.1,0.2-0.2c0.2-0.2,0.4-0.3,0.6-0.4c0,0,0.1,0,0.1-0.1c0,0,0.1-0.1,0.1-0.1c0,0,0,0,0,0l2.9-2
			l2.2-5L24,23.9c0,0,0,0,0,0c0,0,0-0.1,0-0.1c0-0.1,0-0.2,0-0.3c0,0,0,0,0,0c0,0,0,0,0,0l0,0c0-0.1,0-0.1,0-0.2c0,0,0-0.1,0-0.1
			l0-0.1c0,0,0,0,0-0.1c0,0,0,0,0,0c0-0.1,0-0.2,0.1-0.3c0,0,0,0,0-0.1c0,0,0,0,0,0c0,0,0,0,0-0.1l0,0c0,0,0,0,0,0c0,0,0-0.1,0-0.1
			c0-0.1,0.1-0.2,0.1-0.2l0,0c0,0,0,0,0,0c0,0,0,0,0,0c0.1-0.1,0.1-0.2,0.2-0.3c0,0,0,0,0,0c0,0,0,0,0,0c0,0,0.1-0.1,0.1-0.1l0,0
			c0,0,0,0,0-0.1c0,0,0.1-0.1,0.1-0.1c0,0,0,0,0.1-0.1c0,0,0,0,0,0c0.1-0.1,0.2-0.1,0.2-0.2c0,0,0,0,0,0c0,0,0.1-0.1,0.1-0.1
			c0,0,0.1,0,0.1-0.1c0,0,0,0,0,0c0,0,0.1-0.1,0.1-0.1c0.2-0.1,0.3-0.2,0.5-0.3c0.2-0.1,0.3-0.2,0.5-0.3c0,0,0,0,0,0
			c0.1,0,0.2-0.1,0.3-0.1c0,0,0,0,0.1,0c0,0,0,0,0,0c0.2-0.1,0.3-0.1,0.5-0.2c0,0,0,0,0.1,0c0,0,0.1,0,0.1,0
			c0.2-0.1,0.4-0.1,0.7-0.2c0,0,0,0,0,0c0,0,0.1,0,0.1,0c0,0,0,0,0.1,0c0.1,0,0.3-0.1,0.4-0.1c0,0,0,0,0,0c0,0,0,0,0.1,0
			c0,0,0.1,0,0.1,0c0,0,0.1,0,0.1,0l0.1,0c0.1,0,0.1,0,0.2,0c0,0,0,0,0,0c0,0,0,0,0.1,0c0.1,0,0.2,0,0.3,0l0.1,0c0,0,0.1,0,0.1,0
			l0,0c0,0,0,0,0,0c0.1,0,0.3,0,0.4,0l0.1,0c0,0,0,0,0.1,0l0.1,0c0.1,0,0.2,0,0.3,0c0,0,0,0,0.1,0c0,0,0,0,0,0c0.1,0,0.1,0,0.2,0
			l0.1,0c0,0,0.1,0,0.1,0c0.1,0,0.1,0,0.2,0l0.1,0c0,0,0.1,0,0.1,0l0,0c0,0,0,0,0,0c0.2,0,0.3,0,0.5,0.1l0,0c0,0,0,0,0.1,0l0,0
			c0.1,0,0.2,0,0.3,0.1c0,0,0,0,0.1,0c0,0,0,0,0,0c0.1,0,0.1,0,0.2,0l0,0c0,0,0,0,0.1,0c0,0,0.1,0,0.1,0c0,0,0.1,0,0.1,0
			c0,0,0,0,0.1,0c0.1,0,0.1,0,0.2,0.1c0,0,0,0,0,0c0,0,0,0,0.1,0c0,0,0.1,0,0.1,0.1c0,0,0,0,0.1,0l0.1,0c0.1,0,0.1,0,0.2,0.1
			c0,0,0,0,0,0c0,0,0,0,0,0c0,0,0.1,0,0.1,0.1c0,0,0,0,0.1,0l0,0c0.1,0,0.2,0.1,0.3,0.1c0,0,0,0,0,0c0,0,0,0,0,0
			c0.1,0.1,0.2,0.1,0.4,0.2c0.1,0.1,0.2,0.1,0.3,0.2c0,0,0.1,0,0.1,0.1c0,0,0,0,0,0c0.1,0.1,0.1,0.1,0.2,0.2
			c0.1,0.1,0.2,0.1,0.2,0.2c0.1,0.1,0.1,0.1,0.2,0.2c0.1,0.1,0.1,0.2,0.2,0.2l0,0c0,0.1,0.1,0.1,0.1,0.2c0.1,0.1,0.1,0.2,0.1,0.2
			l0,0c0,0,0.1,0.1,0.1,0.1c0,0.1,0.1,0.2,0.1,0.2l0,0.1c0,0,0,0.1,0,0.1c0,0.1,0,0.2,0.1,0.2l0,0c0,0,0,0,0,0c0,0,0,0.1,0,0.1
			c0,0.1,0,0.2,0,0.3c0,0,0,0,0,0c0,0,0,0.1,0,0.1c0,0.2,0,0.3-0.1,0.4l-1.9,6.6l2.2,5l3,2c0,0,0.1,0.1,0.1,0.1c0,0,0,0,0.1,0.1
			c0.1,0.1,0.2,0.2,0.4,0.3c0.1,0.1,0.3,0.2,0.4,0.3c0.1,0.1,0.2,0.2,0.3,0.3c0.1,0.1,0.2,0.2,0.3,0.3c0.1,0.1,0.2,0.2,0.3,0.3
			c0.1,0.1,0.1,0.2,0.2,0.3c0.1,0.1,0.2,0.3,0.3,0.4c0,0.1,0.1,0.1,0.1,0.2c0.1,0.2,0.2,0.3,0.2,0.5c0,0,0,0.1,0,0.1l0,0
			c0.1,0.2,0.1,0.4,0.2,0.5c0,0,0,0,0,0.1l0,0c0.1,0.2,0.1,0.4,0.1,0.6c0,0,0,0,0,0l0,0.1c0,0.1,0,0.3,0,0.4l0,3.7c0,0,0,0,0,0.1
			c0,0,0,0,0,0c0,0,0,0,0,0c0,0.1,0,0.1,0,0.2c0,0,0,0.1,0,0.1c0,0,0,0.1,0,0.1c0,0.1,0,0.1,0,0.2l0,0c0,0,0,0.1,0,0.1c0,0,0,0,0,0
			c0,0,0,0.1,0,0.1c0,0,0,0,0,0l0,0.1c0,0.1,0,0.2-0.1,0.3c0,0,0,0,0,0.1c0,0,0,0,0,0c0,0,0,0.1,0,0.1c0,0,0,0.1-0.1,0.1
			c0,0,0,0,0,0.1c0,0.1-0.1,0.2-0.1,0.2l0,0c0,0,0,0.1,0,0.1c0,0.1-0.1,0.1-0.1,0.2c-0.1,0.3-0.3,0.5-0.5,0.8
			c-0.1,0.2-0.3,0.3-0.4,0.5c0,0,0,0-0.1,0.1l-0.1,0.1c-0.1,0.1-0.1,0.1-0.2,0.2c0,0-0.1,0.1-0.1,0.1c0,0-0.1,0-0.1,0.1
			c-0.1,0.1-0.2,0.2-0.3,0.3c-0.1,0.1-0.3,0.2-0.4,0.3c-0.1,0.1-0.2,0.2-0.4,0.3c0,0,0,0-0.1,0c0,0-0.1,0-0.1,0.1
			c-0.2,0.1-0.4,0.2-0.6,0.4c-0.3,0.2-0.7,0.4-1.2,0.6c-0.1,0-0.2,0.1-0.3,0.1l-0.1,0c-0.3,0.1-0.6,0.2-1,0.4c0,0-0.1,0-0.1,0
			c0,0-0.1,0-0.1,0.1c0,0-0.1,0-0.1,0c0,0-0.1,0-0.1,0c-0.2,0.1-0.4,0.1-0.5,0.2l0,0c-0.2,0-0.4,0.1-0.6,0.1c-0.2,0-0.4,0.1-0.6,0.1
			c-0.1,0-0.1,0-0.2,0c-0.1,0-0.2,0-0.2,0c0,0-0.1,0-0.1,0c0,0,0,0-0.1,0c-0.5,0.1-1,0.2-1.4,0.2c0,0,0,0,0,0c0,0,0,0,0,0
			c-0.4,0-0.8,0.1-1.3,0.1c0,0,0,0,0,0c0,0,0,0-0.1,0c-0.1,0-0.1,0-0.2,0l-0.1,0c0,0-0.1,0-0.1,0l-0.1,0
			C30.6,53.6,30.4,53.6,30.3,53.6z M30.1,53.2L30.1,53.2c0.2,0,0.4,0,0.7,0l0.1,0c0,0,0.1,0,0.1,0l0.1,0c0.1,0,0.1,0,0.2,0
			c0,0,0,0,0,0c0,0,0,0,0,0c0.5,0,0.9,0,1.3-0.1c0,0,0,0,0,0c0,0,0,0,0,0c0.4,0,0.9-0.1,1.4-0.2c0,0,0.1,0,0.1,0c0,0,0,0,0.1,0
			c0.1,0,0.1,0,0.2,0c0.1,0,0.1,0,0.2,0c0.2,0,0.4-0.1,0.6-0.1c0.2,0,0.4-0.1,0.6-0.1l0,0c0.2,0,0.4-0.1,0.5-0.1c0,0,0.1,0,0.1,0
			c0,0,0.1,0,0.1,0c0,0,0.1,0,0.1,0c0,0,0.1,0,0.1,0c0.3-0.1,0.6-0.2,0.9-0.3l0.1,0c0.1,0,0.2-0.1,0.3-0.1c0.5-0.2,0.8-0.4,1.2-0.6
			c0.2-0.1,0.4-0.2,0.6-0.3c0,0,0,0,0.1-0.1c0,0,0.1,0,0.1-0.1c0.1-0.1,0.2-0.2,0.4-0.2c0.2-0.1,0.3-0.2,0.4-0.3
			c0.1-0.1,0.2-0.2,0.3-0.3c0,0,0.1-0.1,0.1-0.1c0,0,0.1-0.1,0.1-0.1c0.1-0.1,0.1-0.1,0.2-0.2l0.1-0.1c0,0,0,0,0,0c0,0,0,0,0.1-0.1
			c0.2-0.2,0.3-0.3,0.4-0.5c0.2-0.2,0.3-0.5,0.5-0.7c0,0,0-0.1,0.1-0.2c0,0,0-0.1,0.1-0.1l0,0c0-0.1,0.1-0.1,0.1-0.2
			c0,0,0-0.1,0-0.1c0,0,0,0,0-0.1c0,0,0-0.1,0-0.1c0,0,0-0.1,0-0.1c0,0,0,0,0,0c0,0,0,0,0-0.1c0-0.1,0-0.1,0-0.2l0-0.1
			c0,0,0-0.1,0-0.1c0,0,0,0,0,0c0,0,0,0,0,0c0,0,0,0,0-0.1l0,0c0,0,0-0.1,0-0.1c0,0,0-0.1,0-0.1c0,0,0-0.1,0-0.1c0-0.1,0-0.1,0-0.2
			l0-0.1v0c0,0,0,0,0,0l0-3.7c0-0.1,0-0.3,0-0.4l0-0.1c0-0.2-0.1-0.4-0.1-0.6c0,0,0,0,0,0c0,0,0,0,0,0c0-0.2-0.1-0.3-0.2-0.5l0,0
			c0,0,0-0.1,0-0.1c-0.1-0.1-0.1-0.3-0.2-0.4c0-0.1-0.1-0.1-0.1-0.2c-0.1-0.1-0.2-0.2-0.3-0.4c-0.1-0.1-0.1-0.2-0.2-0.2
			c-0.1-0.1-0.2-0.2-0.3-0.3c-0.1-0.1-0.2-0.2-0.3-0.3c-0.1-0.1-0.2-0.2-0.3-0.3c-0.1-0.1-0.2-0.2-0.3-0.3c-0.1-0.1-0.2-0.2-0.3-0.3
			c0,0-0.1,0-0.1-0.1c0,0-0.1,0-0.1-0.1l-3-2c0,0-0.1-0.1-0.1-0.1l-2.3-5.1c0,0,0-0.1,0-0.2l1.9-6.7c0-0.1,0.1-0.2,0.1-0.4
			c0,0,0,0,0-0.1c0,0,0,0,0-0.1c0-0.1,0-0.2,0-0.2c0,0,0-0.1,0-0.1c0,0,0,0,0-0.1l0,0c0-0.1,0-0.1,0-0.2c0,0,0-0.1,0-0.1l0-0.1
			c0-0.1-0.1-0.1-0.1-0.2c0,0,0-0.1-0.1-0.1l0,0c0-0.1-0.1-0.1-0.1-0.2c0,0-0.1-0.1-0.1-0.1l0,0c0-0.1-0.1-0.1-0.2-0.2
			c0-0.1-0.1-0.1-0.2-0.2c-0.1-0.1-0.1-0.1-0.2-0.2c-0.1,0-0.1-0.1-0.2-0.1c0,0,0,0-0.1,0c0,0,0,0-0.1,0C35,21,34.9,21,34.8,20.9
			c-0.1-0.1-0.2-0.1-0.3-0.2c0,0,0,0,0,0c0,0,0,0,0,0c-0.1,0-0.2-0.1-0.2-0.1l0,0c0,0-0.1,0-0.1,0c0,0-0.1,0-0.1,0c0,0,0,0,0,0
			c0,0,0,0,0,0c0,0-0.1,0-0.1-0.1l-0.1,0c0,0-0.1,0-0.1,0c0,0-0.1,0-0.1,0c0,0,0,0,0,0c0,0,0,0-0.1,0c-0.1,0-0.1,0-0.2-0.1
			c0,0,0,0-0.1,0c0,0-0.1,0-0.1,0c0,0-0.1,0-0.1,0c0,0,0,0-0.1,0l0,0c0,0-0.1,0-0.1,0c0,0,0,0,0,0c0,0,0,0,0,0c-0.1,0-0.2,0-0.3-0.1
			l0,0c0,0,0,0,0,0l0,0c-0.1,0-0.3,0-0.4-0.1l-0.1,0c0,0-0.1,0-0.1,0l-0.1,0c-0.1,0-0.1,0-0.2,0c0,0-0.1,0-0.1,0l-0.1,0
			c-0.1,0-0.1,0-0.2,0c0,0,0,0-0.1,0c0,0,0,0-0.1,0c-0.1,0-0.2,0-0.3,0l-0.1,0c0,0,0,0-0.1,0l-0.1,0c-0.1,0-0.3,0-0.4,0l0,0
			c0,0-0.1,0-0.1,0c0,0,0,0-0.1,0l-0.1,0c-0.1,0-0.2,0-0.2,0c0,0,0,0,0,0c0,0,0,0,0,0c-0.1,0-0.1,0-0.2,0l-0.1,0c0,0-0.1,0-0.1,0
			c0,0-0.1,0-0.1,0c0,0,0,0,0,0c0,0,0,0,0,0c-0.2,0-0.3,0.1-0.4,0.1c0,0-0.1,0-0.1,0s-0.1,0-0.1,0c0,0,0,0,0,0
			c-0.2,0-0.4,0.1-0.6,0.2c0,0,0,0-0.1,0c0,0,0,0-0.1,0c-0.2,0.1-0.3,0.1-0.5,0.2c0,0,0,0,0,0c0,0,0,0,0,0c-0.1,0-0.2,0.1-0.3,0.1
			c0,0,0,0,0,0c-0.2,0.1-0.3,0.2-0.5,0.2c-0.1,0.1-0.3,0.2-0.5,0.3c0,0-0.1,0.1-0.1,0.1c0,0,0,0-0.1,0c0,0,0,0-0.1,0
			c0,0,0,0-0.1,0.1c0,0,0,0-0.1,0.1c-0.1,0.1-0.1,0.1-0.2,0.2c0,0,0,0,0,0c0,0,0,0,0,0c0,0-0.1,0.1-0.1,0.1c0,0,0,0,0,0.1l0,0
			c0,0,0,0-0.1,0.1c0,0,0,0,0,0c0,0,0,0,0,0c-0.1,0.1-0.1,0.2-0.2,0.3c0,0,0,0,0,0l0,0c0,0,0,0,0,0c0,0.1-0.1,0.1-0.1,0.2
			c0,0,0,0,0,0.1c0,0,0,0,0,0.1l0,0c0,0,0,0,0,0.1c0,0,0,0,0,0c0,0,0,0,0,0c0,0.1,0,0.2-0.1,0.2c0,0,0,0,0,0c0,0,0,0,0,0l0,0.1
			c0,0,0,0.1,0,0.1c0,0.1,0,0.1,0,0.2c0,0,0,0,0,0l0,0c0,0,0,0,0,0c0,0.1,0,0.2,0,0.2c0,0,0,0.1,0,0.1l2,6.7c0,0.1,0,0.1,0,0.2
			l-2.3,5.1c0,0,0,0.1-0.1,0.1l-3,2c0,0,0,0,0,0c0,0-0.1,0-0.1,0.1c0,0-0.1,0-0.1,0.1c-0.2,0.1-0.4,0.3-0.5,0.4
			c-0.1,0-0.1,0.1-0.2,0.1c0,0-0.1,0.1-0.1,0.1c-0.1,0.1-0.3,0.2-0.4,0.4c-0.1,0.1-0.1,0.1-0.2,0.2l0,0.1c-0.1,0.1-0.2,0.2-0.3,0.3
			c0,0,0,0,0,0c0,0,0,0,0,0c0,0,0,0,0,0.1l0,0c-0.1,0.1-0.1,0.2-0.2,0.3l-0.1,0.1c0,0-0.1,0.1-0.1,0.1c0,0,0,0,0,0
			c0,0,0,0.1-0.1,0.1c0,0,0,0.1,0,0.1c0,0.1-0.1,0.2-0.1,0.2c0,0,0,0.1,0,0.1c0,0,0,0.1,0,0.1c0,0,0,0,0,0c0,0,0,0.1,0,0.1
			c0,0,0,0.1,0,0.1c0,0.1,0,0.1,0,0.2l0,0c0,0,0,0.1,0,0.1c0,0,0,0.1,0,0.1c0,0,0,0,0,0c0,0,0,0.1,0,0.1c0,0,0,0,0,0.1
			c0,0,0,0.1,0,0.1c0,0,0,0.1,0,0.1c0,0,0,0.1,0,0.1c0,0.1,0,0.1,0,0.2c0,0,0,0.1,0,0.1l0,3.7c0,0,0,0,0,0.1c0,0,0,0,0,0.1
			c0,0,0,0.1,0,0.1c0,0,0,0.1,0,0.1c0,0.2,0,0.3,0.1,0.5c0,0.1,0.1,0.3,0.1,0.4c0,0,0,0,0,0c0,0,0,0,0,0c0,0.1,0.1,0.3,0.2,0.4
			c0,0,0,0,0,0.1c0,0,0,0,0,0.1c0,0.1,0.1,0.1,0.1,0.2c0,0,0,0.1,0,0.1c0,0,0,0.1,0,0.1c0,0.1,0.1,0.1,0.1,0.2l0,0.1c0,0,0,0,0,0.1
			c0,0,0,0,0,0.1c0,0,0,0,0,0l0,0c0.1,0.1,0.2,0.3,0.3,0.4c0,0,0,0,0,0c0,0,0,0,0,0c0,0,0,0.1,0.1,0.1c0,0,0,0,0.1,0.1l0.1,0.1
			c0.1,0.1,0.1,0.1,0.2,0.2c0,0,0.1,0.1,0.1,0.1c0,0,0.1,0,0.1,0.1c0.1,0.1,0.1,0.1,0.2,0.2c0,0,0,0,0.1,0.1c0,0,0,0,0.1,0.1l0,0
			c0,0,0,0,0,0c0.4,0.3,0.8,0.6,1.2,0.8c0.3,0.2,0.6,0.3,0.9,0.5c0.1,0,0.1,0.1,0.2,0.1c0,0,0.1,0,0.1,0.1l0,0
			c0.2,0.1,0.4,0.2,0.6,0.3c0,0,0,0,0,0c0,0,0,0,0,0c0,0,0,0,0.1,0c0,0,0.1,0,0.1,0c0.4,0.1,0.7,0.3,1.1,0.4c0,0,0.1,0,0.1,0
			c0,0,0.1,0,0.1,0c0,0,0.1,0,0.1,0c0,0,0.1,0,0.1,0c0.2,0.1,0.5,0.1,0.8,0.2c0,0,0.1,0,0.1,0c0.1,0,0.1,0,0.2,0c0,0,0.1,0,0.1,0
			c0,0,0.1,0,0.1,0c0.2,0,0.5,0.1,0.7,0.1c0.1,0,0.1,0,0.2,0c0.1,0,0.1,0,0.2,0c0,0,0,0,0.1,0c0,0,0.1,0,0.1,0c0.2,0,0.4,0,0.5,0.1
			l0.1,0c0.1,0,0.1,0,0.2,0c0.1,0,0.2,0,0.3,0c0,0,0,0,0.1,0c0,0,0,0,0.1,0c0.2,0,0.4,0,0.5,0l0.1,0c0.1,0,0.1,0,0.2,0
			C29.8,53.2,29.9,53.2,30.1,53.2L30.1,53.2L30.1,53.2C30.1,53.2,30.1,53.2,30.1,53.2z"/>
	</g>
	<g>
		<path fill="#FFFFFF" d="M36.7,21.4c0-0.9-0.6-1.8-1.8-2.5c-0.2-0.1-0.3-0.2-0.5-0.3c-0.1,0-0.1,0-0.2-0.1
			c-0.1-0.1-0.2-0.1-0.3-0.2c0,0,0,0,0,0c0,0,0,0,0,0c-0.2-0.1-0.4-0.2-0.6-0.2c0,0-0.1,0-0.1,0c0,0-0.1,0-0.1,0
			C33,18,32.8,18,32.7,18c0,0-0.1,0-0.1,0c0,0-0.1,0-0.1,0c-0.1,0-0.2,0-0.3-0.1c-0.1,0-0.1,0-0.2,0c0,0-0.1,0-0.1,0
			c-0.1,0-0.2,0-0.3,0c-0.1,0-0.1,0-0.2,0c0,0-0.1,0-0.1,0c-0.1,0-0.2,0-0.3,0c-0.1,0-0.1,0-0.2,0c0,0-0.1,0-0.1,0
			c-0.1,0-0.2,0-0.3,0c-0.1,0-0.1,0-0.2,0c0,0-0.1,0-0.1,0c-0.1,0-0.3,0-0.4,0c-0.1,0-0.1,0-0.2,0c0,0,0,0,0,0
			c-0.2,0-0.5,0.1-0.7,0.1c0,0,0,0,0,0c0,0,0,0-0.1,0c-0.3,0.1-0.6,0.1-0.9,0.2c0,0,0,0-0.1,0c0,0,0,0,0,0c-0.3,0.1-0.5,0.2-0.7,0.3
			c-0.1,0-0.1,0-0.2,0.1c-0.2,0.1-0.5,0.2-0.7,0.3c-0.2,0.1-0.3,0.2-0.5,0.3c0,0,0,0,0,0c-0.1,0.1-0.2,0.2-0.4,0.3
			c0,0-0.1,0.1-0.1,0.1c-0.1,0.1-0.1,0.1-0.2,0.2c0,0,0,0,0,0c-0.1,0.1-0.2,0.2-0.3,0.3c0,0,0,0,0,0.1c0,0,0,0,0,0
			c-0.1,0.1-0.1,0.2-0.2,0.3c0,0,0,0,0,0c0,0,0,0,0,0c0,0,0,0.1,0,0.1c0,0.1-0.1,0.2-0.1,0.2c0,0,0,0,0,0c0,0,0,0.1,0,0.1
			c0,0.1-0.1,0.2-0.1,0.3c0,0,0,0,0,0c0,0,0,0.1,0,0.1c0,0.1,0,0.1,0,0.2c0,0,0,0,0,0c0,0.6,0,1.2,0,1.9c0,0.9,0.6,1.8,1.7,2.5
			c0.2,0.1,0.3,0.2,0.5,0.3c0.1,0,0.1,0.1,0.2,0.1c0.1,0.1,0.2,0.1,0.4,0.2c0,0,0,0,0,0c0,0,0.1,0,0.1,0c0.2,0.1,0.4,0.1,0.5,0.2
			c0,0,0.1,0,0.1,0c0,0,0.1,0,0.1,0c0.1,0,0.3,0.1,0.4,0.1c0.1,0,0.1,0,0.2,0c0,0,0,0,0.1,0c0.1,0,0.2,0,0.4,0.1c0.1,0,0.1,0,0.2,0
			c0,0,0,0,0,0c0.1,0,0.2,0,0.4,0c0.1,0,0.2,0,0.2,0c0,0,0,0,0,0c0.1,0,0.3,0,0.4,0c0.1,0,0.1,0,0.2,0c0,0,0,0,0,0
			c0.2,0,0.4,0,0.6,0c0,0,0,0,0,0c0,0,0,0,0.1,0c0.2,0,0.4,0,0.6,0c0,0,0,0,0.1,0c0,0,0.1,0,0.1,0c0.2,0,0.4-0.1,0.6-0.1
			c0,0,0.1,0,0.1,0c0,0,0.1,0,0.1,0c0.1,0,0.3-0.1,0.4-0.1c0.1,0,0.1,0,0.2-0.1c0.2,0,0.3-0.1,0.5-0.2c0,0,0.1,0,0.1,0c0,0,0,0,0,0
			c0.1,0,0.2-0.1,0.4-0.1c0.1,0,0.1,0,0.2-0.1c0.2-0.1,0.3-0.2,0.5-0.2c0,0,0,0,0,0c0,0,0.1,0,0.1-0.1c0.1-0.1,0.2-0.1,0.3-0.2
			c0.1,0,0.1-0.1,0.2-0.1c0.1-0.1,0.2-0.1,0.3-0.2c0,0,0,0,0.1,0c0,0,0,0,0.1-0.1c0.1-0.1,0.2-0.2,0.3-0.3c0,0,0,0,0.1-0.1
			c0,0,0,0,0-0.1c0.1-0.1,0.1-0.1,0.2-0.2c0,0,0-0.1,0.1-0.1c0,0,0,0,0,0c0-0.1,0.1-0.1,0.1-0.2c0,0,0-0.1,0.1-0.1c0,0,0,0,0,0
			c0-0.1,0-0.1,0.1-0.2c0,0,0-0.1,0-0.1c0,0,0,0,0,0c0-0.1,0-0.1,0-0.2c0,0,0-0.1,0-0.1c0,0,0,0,0-0.1l0-0.9
			C36.7,22,36.7,21.7,36.7,21.4z M24.3,22.3C24.3,22.3,24.3,22.3,24.3,22.3c0-0.1,0-0.1,0.1-0.1c0,0,0,0,0,0
			c0.1-0.1,0.1-0.2,0.2-0.3c0,0,0,0,0.1-0.1c0.1-0.1,0.2-0.2,0.3-0.3c0.1-0.1,0.1-0.1,0.2-0.2c0,0,0.1-0.1,0.1-0.1
			c0.1-0.1,0.2-0.2,0.4-0.3c0.1-0.1,0.3-0.2,0.5-0.3c0.2-0.1,0.5-0.2,0.7-0.3c0.1,0,0.1,0,0.2-0.1c0.2-0.1,0.5-0.2,0.7-0.3
			c0,0,0.1,0,0.1,0c0.3-0.1,0.6-0.1,0.9-0.2c0,0,0.1,0,0.1,0c0.2,0,0.5-0.1,0.7-0.1c0.1,0,0.2,0,0.2,0c0.1,0,0.3,0,0.4,0
			c0.1,0,0.2,0,0.3,0c0.1,0,0.2,0,0.3,0c0.1,0,0.2,0,0.3,0c0.1,0,0.2,0,0.3,0c0.1,0,0.2,0,0.3,0c0.1,0,0.2,0,0.3,0
			c0.1,0,0.2,0,0.3,0c0.1,0,0.2,0,0.3,0.1c0.1,0,0.2,0,0.3,0.1c0.1,0,0.3,0.1,0.4,0.1c0.1,0,0.1,0,0.2,0.1c0.2,0.1,0.4,0.1,0.6,0.2
			c0,0,0,0,0,0c0.1,0,0.2,0.1,0.3,0.1c0.1,0,0.1,0.1,0.2,0.1c0.2,0.1,0.3,0.2,0.5,0.3c0.8,0.5,1.3,1,1.5,1.6c0,0.1-0.1,0.1-0.1,0.2
			c0,0-0.1,0.1-0.1,0.1c0,0.1-0.1,0.2-0.2,0.2c0,0-0.1,0.1-0.1,0.1c-0.1,0.1-0.2,0.2-0.3,0.3c0,0-0.1,0.1-0.1,0.1
			c-0.1,0.1-0.2,0.1-0.2,0.2c-0.1,0-0.1,0.1-0.2,0.1c-0.1,0.1-0.2,0.1-0.3,0.2c-0.1,0-0.1,0.1-0.1,0.1c-0.2,0.1-0.3,0.2-0.5,0.2
			c-0.1,0-0.1,0-0.2,0.1c-0.1,0-0.2,0.1-0.3,0.1c0,0-0.1,0-0.1,0c-0.2,0.1-0.3,0.1-0.5,0.2c-0.1,0-0.1,0-0.2,0.1
			c-0.1,0-0.3,0.1-0.4,0.1c-0.1,0-0.1,0-0.2,0c-0.2,0-0.4,0.1-0.6,0.1c-0.1,0-0.1,0-0.2,0c-0.2,0-0.4,0-0.6,0c0,0,0,0-0.1,0
			c-0.2,0-0.4,0-0.6,0c-0.1,0-0.2,0-0.2,0c-0.1,0-0.3,0-0.4,0c-0.1,0-0.2,0-0.3,0c-0.1,0-0.2,0-0.4,0c-0.1,0-0.2,0-0.2,0
			c-0.1,0-0.2,0-0.4-0.1c-0.1,0-0.1,0-0.2,0c-0.1,0-0.3-0.1-0.4-0.1c-0.1,0-0.1,0-0.2-0.1c-0.2-0.1-0.4-0.1-0.5-0.2
			c-0.1,0-0.1,0-0.2-0.1c-0.1,0-0.2-0.1-0.4-0.2c-0.1,0-0.1,0-0.2-0.1c-0.2-0.1-0.3-0.2-0.5-0.3C25.1,23.5,24.6,22.9,24.3,22.3z"/>
		<path fill="#231F20" d="M30.4,27.1c0,0-0.1,0-0.1,0l0,0c-0.1,0-0.1,0-0.1,0c0,0-0.1,0-0.1,0l-0.1,0c-0.1,0-0.2,0-0.3,0
			c0,0,0,0,0,0c0,0-0.1,0-0.1,0c0,0-0.1,0-0.1,0l-0.1,0c-0.1,0-0.2,0-0.3,0l0,0c0,0,0,0,0,0c0,0-0.1,0-0.1,0c0,0-0.1,0-0.1,0l0,0
			c-0.1,0-0.2,0-0.3-0.1l0,0c0,0,0,0,0,0c0,0-0.1,0-0.1,0c0,0,0,0-0.1,0c-0.2,0-0.3-0.1-0.4-0.1c0,0,0,0,0,0c0,0,0,0-0.1,0
			c0,0,0,0-0.1,0c0,0,0,0,0,0c-0.2-0.1-0.4-0.1-0.6-0.2c0,0,0,0,0,0c0,0,0,0-0.1,0c0,0,0,0,0,0l0,0c-0.1,0-0.2-0.1-0.4-0.2
			c0,0,0,0-0.1,0c0,0-0.1,0-0.1-0.1c-0.2-0.1-0.4-0.2-0.5-0.3c-1.2-0.7-1.8-1.7-1.9-2.7l0-1.9c0,0,0,0,0,0c0-0.1,0-0.1,0-0.2
			c0,0,0,0,0-0.1c0,0,0,0,0,0c0,0,0-0.1,0-0.1c0,0,0,0,0,0c0-0.1,0-0.2,0.1-0.3c0,0,0,0,0,0c0,0,0,0,0-0.1c0,0,0,0,0,0
			c0-0.1,0.1-0.1,0.1-0.2l0,0c0,0,0,0,0,0c0,0,0-0.1,0-0.1c0,0,0,0,0,0c0,0,0,0,0,0c0.1-0.1,0.1-0.2,0.2-0.3c0,0,0,0,0,0
			c0,0,0,0,0,0c0,0,0,0,0,0c0.1-0.1,0.2-0.2,0.3-0.3c0,0,0,0,0,0c0,0,0.1-0.1,0.1-0.1l0,0c0,0,0,0,0,0c0,0,0,0,0.1-0.1
			c0.1-0.1,0.2-0.2,0.4-0.3c0,0,0,0,0,0c0.2-0.1,0.3-0.2,0.5-0.3c0.2-0.1,0.4-0.2,0.7-0.3l0,0c0,0,0.1,0,0.1-0.1
			c0.3-0.1,0.5-0.2,0.8-0.3c0,0,0,0,0,0c0,0,0,0,0.1,0c0,0,0,0,0,0c0.3-0.1,0.6-0.1,0.9-0.2l0,0c0,0,0,0,0,0c0,0,0,0,0,0
			c0.2,0,0.5-0.1,0.7-0.1l0,0c0,0,0,0,0,0c0,0,0.1,0,0.1,0c0,0,0.1,0,0.1,0c0.1,0,0.3,0,0.4,0c0,0,0,0,0,0c0,0,0,0,0.1,0
			c0,0,0,0,0.1,0l0.1,0l0,0c0.1,0,0.2,0,0.3,0l0,0l0.1,0l0,0c0,0,0.1,0,0.1,0c0,0,0.1,0,0.1,0c0.1,0,0.2,0,0.3,0c0,0,0,0,0,0
			c0,0,0,0,0.1,0c0,0,0.1,0,0.1,0c0,0,0.1,0,0.1,0c0.1,0,0.2,0,0.3,0c0,0,0,0,0,0c0,0,0,0,0.1,0c0,0,0.1,0,0.1,0c0,0,0,0,0.1,0
			c0.1,0,0.2,0,0.3,0.1c0,0,0,0,0,0c0,0,0,0,0.1,0c0,0,0.1,0,0.1,0c0,0,0,0,0.1,0c0.1,0,0.3,0.1,0.4,0.1c0,0,0,0,0.1,0
			c0,0,0.1,0,0.1,0c0,0,0,0,0.1,0c0,0,0,0,0,0c0.3,0.1,0.5,0.1,0.7,0.2c0,0,0,0,0,0c0,0,0,0,0,0c0.1,0,0.2,0.1,0.3,0.1l0,0
			c0,0,0,0,0.1,0c0,0,0.1,0,0.1,0c0.2,0.1,0.3,0.2,0.5,0.3c1.2,0.7,1.9,1.7,1.9,2.7l0,1.9c0,0,0,0,0,0.1c0,0,0,0.1,0,0.1
			c0,0,0,0,0,0l0,0c0,0.1,0,0.1,0,0.2c0,0,0,0,0,0c0,0,0,0.1,0,0.1c0,0,0,0,0,0l0,0c0,0.1,0,0.1,0,0.2c0,0,0,0,0,0c0,0,0,0.1,0,0.1
			c0,0,0,0,0,0l0,0c0,0.1-0.1,0.1-0.1,0.2c0,0,0,0,0,0c0,0,0,0.1-0.1,0.1c0,0,0,0,0,0c0,0.1-0.1,0.2-0.2,0.2c0,0,0,0,0,0
			c0,0,0,0,0,0.1c0,0,0,0-0.1,0.1c0,0,0,0,0,0c-0.1,0.1-0.2,0.2-0.3,0.3c0,0,0,0,0,0c0,0,0,0-0.1,0.1c0,0,0,0,0,0l0,0
			c-0.1,0.1-0.2,0.1-0.3,0.2l0,0c0,0-0.1,0.1-0.1,0.1c-0.1,0.1-0.2,0.2-0.4,0.2c0,0,0,0,0,0c0,0,0,0-0.1,0l0,0
			c-0.2,0.1-0.3,0.2-0.5,0.3c0,0-0.1,0-0.1,0c0,0,0,0-0.1,0l0,0c-0.1,0-0.2,0.1-0.3,0.1c0,0,0,0,0,0c0,0,0,0-0.1,0c0,0,0,0,0,0
			c-0.2,0.1-0.4,0.1-0.5,0.2c0,0-0.1,0-0.1,0l-0.1,0c-0.2,0-0.3,0.1-0.4,0.1c0,0,0,0,0,0c0,0,0,0-0.1,0c0,0-0.1,0-0.1,0c0,0,0,0,0,0
			C32.2,27,32,27,31.8,27c0,0,0,0,0,0c0,0,0,0-0.1,0c0,0,0,0,0,0l0,0c-0.2,0-0.4,0-0.6,0l0,0c0,0,0,0,0,0c0,0,0,0,0,0
			C30.7,27.1,30.6,27.1,30.4,27.1z M30.3,26.7c0,0,0.1,0,0.1,0c0.2,0,0.3,0,0.5,0c0,0,0,0,0,0c0,0,0,0,0,0c0,0,0,0,0,0
			c0.2,0,0.4,0,0.6,0c0,0,0,0,0,0l0,0c0,0,0,0,0,0c0,0,0,0,0.1,0c0.2,0,0.4-0.1,0.6-0.1c0,0,0,0,0.1,0c0,0,0,0,0,0c0,0,0,0,0,0
			c0,0,0,0,0.1,0c0.1,0,0.2-0.1,0.4-0.1l0.1,0c0,0,0.1,0,0.1,0c0.2,0,0.3-0.1,0.5-0.2c0,0,0,0,0,0c0,0,0,0,0,0c0,0,0,0,0,0
			c0.1,0,0.2-0.1,0.3-0.1l0,0c0,0,0.1,0,0.1,0c0,0,0.1,0,0.1,0c0.2-0.1,0.3-0.2,0.5-0.2l0,0c0,0,0,0,0.1,0c0,0,0,0,0.1,0
			c0.1-0.1,0.2-0.1,0.3-0.2c0,0,0.1,0,0.1-0.1c0,0,0,0,0.1,0c0.1-0.1,0.2-0.1,0.2-0.2c0,0,0,0,0,0l0,0c0,0,0,0,0,0c0,0,0,0,0,0
			c0.1-0.1,0.2-0.2,0.3-0.3c0,0,0,0,0,0c0,0,0,0,0,0c0,0,0,0,0,0c0,0,0,0,0,0c0.1-0.1,0.1-0.1,0.1-0.2c0,0,0,0,0-0.1c0,0,0,0,0,0
			c0,0,0,0,0,0c0,0,0-0.1,0.1-0.2l0,0c0,0,0,0,0-0.1c0,0,0,0,0,0c0,0,0,0,0,0c0,0,0-0.1,0-0.1l0,0c0,0,0,0,0-0.1c0,0,0,0,0-0.1
			c0,0,0,0,0,0c0,0,0-0.1,0-0.1l0,0c0,0,0,0,0-0.1c0,0,0,0,0-0.1c0,0,0,0,0-0.1l0-0.4c0,0.1-0.1,0.1-0.1,0.2c0,0-0.1,0.1-0.1,0.1
			l0,0c-0.1,0.1-0.2,0.2-0.3,0.3l0,0c0,0-0.1,0.1-0.1,0.1c-0.1,0.1-0.2,0.1-0.3,0.2c0,0,0,0-0.1,0c0,0-0.1,0.1-0.1,0.1
			C35.3,24,35.2,24,35,24.1c0,0,0,0-0.1,0c0,0-0.1,0-0.1,0.1c-0.2,0.1-0.3,0.2-0.5,0.3c0,0-0.1,0-0.1,0c0,0,0,0-0.1,0l0,0
			c-0.1,0-0.2,0.1-0.3,0.1c0,0,0,0-0.1,0c0,0,0,0,0,0c-0.2,0.1-0.4,0.1-0.5,0.2c0,0-0.1,0-0.1,0l-0.1,0c-0.2,0-0.3,0.1-0.4,0.1
			c-0.1,0-0.1,0-0.2,0l0,0c-0.2,0-0.4,0.1-0.6,0.1c0,0,0,0-0.1,0c0,0-0.1,0-0.1,0c-0.2,0-0.4,0-0.6,0l0,0c0,0,0,0,0,0
			c-0.2,0-0.4,0-0.6,0c-0.1,0-0.1,0-0.2,0c0,0-0.1,0-0.1,0l-0.1,0c-0.1,0-0.2,0-0.3,0c-0.1,0-0.1,0-0.2,0c0,0-0.1,0-0.1,0l-0.1,0
			c-0.1,0-0.2,0-0.3,0c-0.1,0-0.1,0-0.2,0l-0.1,0c-0.1,0-0.2,0-0.3-0.1c0,0-0.1,0-0.1,0l-0.1,0c-0.2,0-0.3-0.1-0.4-0.1
			c-0.1,0-0.1,0-0.2,0l0,0c-0.2-0.1-0.4-0.1-0.6-0.2c0,0,0,0-0.1,0c0,0-0.1,0-0.1,0c-0.1,0-0.2-0.1-0.4-0.2c0,0,0,0-0.1,0
			c0,0-0.1,0-0.1-0.1c-0.2-0.1-0.4-0.2-0.5-0.3c-0.6-0.4-1.1-0.8-1.4-1.3l0,0.4c0,0.9,0.6,1.7,1.6,2.3c0.1,0.1,0.3,0.2,0.5,0.3
			c0,0,0.1,0,0.1,0c0,0,0,0,0.1,0c0.1,0.1,0.2,0.1,0.3,0.1c0,0,0,0,0,0l0,0c0,0,0,0,0,0c0,0,0,0,0.1,0c0.2,0.1,0.4,0.1,0.5,0.2
			c0,0,0,0,0.1,0c0,0,0,0,0,0c0,0,0,0,0,0c0,0,0,0,0.1,0c0.1,0,0.2,0.1,0.4,0.1c0,0,0.1,0,0.1,0c0,0,0,0,0.1,0l0,0c0,0,0,0,0,0
			c0.1,0,0.2,0,0.3,0.1l0,0c0,0,0.1,0,0.1,0c0,0,0.1,0,0.1,0l0,0c0,0,0,0,0,0c0.1,0,0.2,0,0.3,0l0.1,0c0,0,0.1,0,0.1,0
			c0,0,0.1,0,0.1,0l0,0c0.1,0,0.2,0,0.3,0l0.1,0c0,0,0.1,0,0.1,0C30.2,26.6,30.2,26.7,30.3,26.7L30.3,26.7z M24.6,22.3
			c0.3,0.5,0.7,1,1.4,1.4c0.1,0.1,0.3,0.2,0.5,0.3c0,0,0.1,0,0.1,0c0,0,0,0,0.1,0c0.1,0.1,0.2,0.1,0.3,0.1c0,0,0.1,0,0.1,0
			c0,0,0,0,0.1,0c0.2,0.1,0.4,0.1,0.5,0.2l0,0c0.1,0,0.1,0,0.2,0c0.1,0,0.2,0.1,0.4,0.1l0.1,0c0,0,0.1,0,0.1,0c0.1,0,0.2,0,0.3,0.1
			l0.1,0c0,0,0.1,0,0.1,0c0.1,0,0.2,0,0.3,0l0.1,0c0,0,0.1,0,0.1,0c0.1,0,0.1,0,0.2,0c0.1,0,0.2,0,0.3,0l0.1,0c0,0,0.1,0,0.1,0
			c0,0,0.1,0,0.1,0c0.2,0,0.4,0,0.6,0c0,0,0,0,0,0c0,0,0,0,0,0c0.2,0,0.4,0,0.6,0c0,0,0.1,0,0.1,0c0,0,0,0,0.1,0
			c0.2,0,0.4-0.1,0.6-0.1l0,0c0.1,0,0.1,0,0.2,0c0.1,0,0.2-0.1,0.4-0.1l0.1,0c0,0,0.1,0,0.1,0c0.2,0,0.3-0.1,0.5-0.2c0,0,0,0,0,0
			c0,0,0,0,0,0c0.1,0,0.2-0.1,0.3-0.1l0,0c0,0,0.1,0,0.1,0c0,0,0.1,0,0.1,0c0.2-0.1,0.3-0.2,0.5-0.2c0,0,0.1,0,0.1,0c0,0,0,0,0.1,0
			c0.1-0.1,0.2-0.1,0.3-0.2c0,0,0.1,0,0.1-0.1c0,0,0,0,0.1,0c0.1-0.1,0.2-0.1,0.2-0.2c0,0,0.1,0,0.1-0.1l0,0
			c0.1-0.1,0.2-0.2,0.3-0.3l0,0c0,0,0.1-0.1,0.1-0.1c0.1-0.1,0.1-0.2,0.1-0.2l0,0c0,0,0-0.1,0.1-0.1c0,0,0,0,0-0.1
			c-0.3-0.5-0.7-1-1.4-1.4c-0.1-0.1-0.3-0.2-0.5-0.2c0,0-0.1,0-0.1,0c0,0-0.1,0-0.1,0l-0.1,0c-0.1,0-0.2-0.1-0.2-0.1c0,0,0,0,0,0
			c-0.2-0.1-0.4-0.1-0.6-0.2c-0.1,0-0.1,0-0.2-0.1c-0.1,0-0.2-0.1-0.4-0.1c-0.1,0-0.2,0-0.2-0.1c-0.1,0-0.2,0-0.3-0.1l0,0
			c-0.1,0-0.2,0-0.3,0c-0.1,0-0.2,0-0.3,0c-0.1,0-0.2,0-0.3,0c-0.1,0-0.2,0-0.3,0c-0.1,0-0.2,0-0.3,0c-0.1,0-0.2,0-0.3,0l0,0
			c-0.1,0-0.2,0-0.2,0c-0.1,0-0.3,0-0.4,0l-0.1,0c0,0-0.1,0-0.1,0c-0.2,0-0.5,0.1-0.7,0.1c0,0,0,0,0,0c0,0,0,0,0,0
			c-0.3,0-0.6,0.1-0.8,0.2c0,0,0,0-0.1,0c0,0,0,0,0,0c-0.2,0.1-0.5,0.1-0.7,0.2c-0.1,0-0.1,0-0.2,0.1c-0.3,0.1-0.5,0.2-0.7,0.3
			c-0.2,0.1-0.3,0.2-0.4,0.3c-0.1,0.1-0.2,0.2-0.3,0.3c0,0,0,0,0,0c0,0,0,0,0,0c-0.1,0.1-0.1,0.1-0.2,0.2c-0.1,0.1-0.2,0.2-0.2,0.3
			c0,0,0,0,0,0c0,0,0,0,0,0C24.7,22.1,24.7,22.2,24.6,22.3C24.6,22.3,24.6,22.3,24.6,22.3C24.6,22.3,24.6,22.3,24.6,22.3z
			 M24.4,21.1C24.4,21.1,24.4,21.1,24.4,21.1C24.4,21.1,24.4,21.1,24.4,21.1c0,0.1,0,0.1,0,0.1c0,0,0,0,0,0.1c0,0,0,0.1,0,0.1l0,0.5
			c0,0,0.1-0.1,0.1-0.1c0,0,0,0,0-0.1c0,0,0,0,0,0c0.1-0.1,0.2-0.2,0.3-0.3c0.1-0.1,0.1-0.1,0.2-0.2c0,0,0,0,0,0c0,0,0,0,0.1-0.1
			c0.1-0.1,0.2-0.2,0.4-0.3c0.2-0.1,0.3-0.2,0.5-0.3c0.2-0.1,0.4-0.2,0.7-0.3c0.1,0,0.1,0,0.2-0.1c0.3-0.1,0.5-0.2,0.8-0.3
			c0,0,0,0,0.1,0c0,0,0,0,0,0c0.3-0.1,0.6-0.1,0.9-0.2c0,0,0,0,0,0c0,0,0,0,0.1,0c0.2,0,0.5-0.1,0.7-0.1c0.1,0,0.1,0,0.2,0l0.1,0
			c0.1,0,0.3,0,0.4,0c0.1,0,0.2,0,0.2,0l0,0c0.1,0,0.2,0,0.3,0c0.1,0,0.2,0,0.3,0c0.1,0,0.2,0,0.3,0c0.1,0,0.2,0,0.3,0
			c0.1,0,0.2,0,0.3,0c0.1,0,0.2,0,0.3,0l0,0c0.1,0,0.2,0,0.3,0.1c0.1,0,0.2,0,0.3,0.1c0.1,0,0.3,0.1,0.4,0.1c0.1,0,0.2,0,0.2,0.1
			c0.2,0.1,0.5,0.1,0.7,0.2c0,0,0,0,0,0c0.1,0,0.2,0.1,0.3,0.1l0.1,0c0,0,0,0,0.1,0c0,0,0.1,0,0.1,0.1c0.2,0.1,0.3,0.2,0.5,0.3
			c0.6,0.4,1.1,0.8,1.4,1.3l0-0.5c0-0.9-0.6-1.7-1.6-2.3c-0.1-0.1-0.3-0.2-0.5-0.2c0,0-0.1,0-0.1,0c0,0,0,0-0.1,0l0,0
			c-0.1,0-0.2-0.1-0.3-0.1c0,0,0,0,0,0c0,0,0,0,0,0c-0.2-0.1-0.4-0.1-0.6-0.2c0,0,0,0-0.1,0c0,0,0,0,0,0c0,0,0,0-0.1,0
			c0,0,0,0-0.1,0c-0.1,0-0.2-0.1-0.4-0.1c0,0,0,0-0.1,0c0,0,0,0-0.1,0c0,0,0,0-0.1,0c0,0,0,0-0.1,0c-0.1,0-0.2,0-0.3-0.1
			c0,0-0.1,0-0.1,0c0,0-0.1,0-0.1,0c0,0,0,0,0,0c0,0,0,0-0.1,0c-0.1,0-0.2,0-0.3,0c0,0-0.1,0-0.1,0c0,0-0.1,0-0.1,0c0,0,0,0,0,0
			c0,0,0,0-0.1,0c-0.1,0-0.2,0-0.3,0c0,0-0.1,0-0.1,0c0,0-0.1,0-0.1,0l0,0l-0.1,0l0,0c-0.1,0-0.2,0-0.3,0l0,0l-0.1,0c0,0,0,0,0,0
			c0,0,0,0,0,0c0,0,0,0,0,0c-0.1,0-0.3,0-0.4,0c0,0-0.1,0-0.1,0c0,0-0.1,0-0.1,0l0,0c0,0,0,0,0,0c-0.2,0-0.5,0.1-0.7,0.1
			c0,0,0,0,0,0l0,0c0,0,0,0,0,0c-0.3,0-0.6,0.1-0.9,0.2c0,0,0,0-0.1,0c0,0,0,0,0,0c0,0,0,0,0,0c-0.2,0.1-0.5,0.1-0.7,0.2
			c0,0-0.1,0-0.1,0.1l0,0c-0.3,0.1-0.5,0.2-0.7,0.3c-0.2,0.1-0.3,0.2-0.5,0.3c0,0,0,0,0,0c-0.1,0.1-0.2,0.2-0.3,0.3c0,0,0,0,0,0
			c0,0,0,0,0,0l0,0c0,0-0.1,0.1-0.1,0.1c0,0,0,0,0,0c-0.1,0.1-0.2,0.2-0.2,0.3c0,0,0,0,0,0c0,0,0,0,0,0c0,0,0,0,0,0
			c-0.1,0.1-0.1,0.2-0.2,0.3c0,0,0,0,0,0l0,0l0,0c0,0,0,0,0,0c0,0,0,0,0,0.1l0,0c0,0.1-0.1,0.1-0.1,0.2c0,0,0,0,0,0c0,0,0,0,0,0
			c0,0,0,0,0,0.1C24.4,20.9,24.4,21,24.4,21.1z"/>
	</g>
	<g>
		<g>
			<path fill="#FFFFFF" d="M35,18.8c2.4,1.4,2.3,3.8-0.2,5.2s-6.5,1.4-8.9-0.1s-2.3-3.8,0.2-5.2S32.6,17.4,35,18.8z"/>
			<path fill="#231F20" d="M30.4,25.2c-1.8,0-3.4-0.4-4.6-1.1c-1.2-0.7-1.9-1.7-1.9-2.8c0-1.1,0.7-2.1,2.1-2.8
				c1.2-0.7,2.8-1.1,4.5-1.1c1.8,0,3.4,0.4,4.6,1.1c1.2,0.7,1.9,1.7,1.9,2.8c0,1.1-0.7,2.1-2.1,2.8C33.7,24.9,32.1,25.2,30.4,25.2z
				 M30.4,18c-1.6,0-3.1,0.4-4.3,1c-1.2,0.6-1.8,1.5-1.8,2.4c0,0.9,0.6,1.7,1.6,2.4c1.2,0.7,2.7,1.1,4.4,1.1c1.6,0,3.1-0.4,4.3-1
				c1.2-0.6,1.8-1.5,1.8-2.4c0-0.9-0.6-1.7-1.6-2.4C33.7,18.3,32.1,18,30.4,18z"/>
		</g>
		<g>
			<path fill="#FFFFFF" d="M30.4,23.3c-1.4,0-2.7-0.3-3.6-0.9c-0.7-0.4-0.9-0.8-0.9-1.1c0-0.3,0.3-0.7,1.1-1.1
				c0.9-0.5,2.2-0.8,3.5-0.8c1.4,0,2.7,0.3,3.6,0.9c0.7,0.4,0.9,0.8,0.9,1.1c0,0.3-0.3,0.7-1.1,1.1C33,23,31.7,23.3,30.4,23.3z"/>
			<path fill="#231F20" d="M30.4,23.5c-1.4,0-2.8-0.3-3.8-0.9c-0.7-0.4-1-0.9-1-1.3c0-0.3,0.3-0.9,1.2-1.3c1-0.5,2.3-0.8,3.7-0.8
				c1.4,0,2.8,0.3,3.8,0.9c0.7,0.4,1,0.9,1,1.3c0,0.3-0.3,0.9-1.2,1.3C33.1,23.2,31.8,23.5,30.4,23.5z M30.4,19.7
				c-1.3,0-2.6,0.3-3.4,0.8c-0.8,0.4-0.9,0.8-0.9,0.9c0,0.1,0.2,0.5,0.8,0.9c0.9,0.5,2.2,0.8,3.5,0.8c1.3,0,2.6-0.3,3.4-0.8
				c0.8-0.4,0.9-0.8,0.9-0.9c0-0.1-0.2-0.5-0.8-0.9C33.1,20,31.8,19.7,30.4,19.7z"/>
		</g>
	</g>
	<g>
		<path fill="#FFFFFF" d="M27.9,40.8c-1.4,1-2.6,2.2-3.6,3.7c-0.1,0.2-0.2,0.4,0,0.6c0.1,0.1,0.2,0.1,0.4,0c1-0.3,1.8-0.9,2.6-1.6
			c-0.6,0.4-1.1,1-1.5,1.6c0.8-0.3,1.5-0.7,2.2-1.2c-1,1.4-2,2.7-2.9,4.2c-0.1,0.2-0.3,0.5-0.2,0.8c0.1-0.1,0.3-0.2,0.4-0.4
			c1.4-1.5,2.8-3.1,4.4-4.4c-0.1,0.3-0.2,0.6-0.4,0.9c0.5-0.2,0.9-0.5,1.3-0.8c-0.1,0.2-0.1,0.5-0.2,0.7c0.3-0.1,0.5-0.3,0.8-0.4
			c0,0.1,0,0.2-0.1,0.3c0.4-0.1,0.9-0.1,1.4-0.1c1.5-0.1,2.9-0.7,4.3-0.3"/>
		<path fill="#231F20" d="M24.9,49.2C24.9,49.2,24.8,49.2,24.9,49.2c-0.1,0-0.2-0.1-0.2-0.2c-0.1-0.4,0.1-0.7,0.3-1
			c0.7-1.1,1.4-2.2,2.2-3.2c-0.4,0.2-0.8,0.4-1.2,0.5c-0.1,0-0.2,0-0.3-0.1c-0.1-0.1-0.1-0.2,0-0.3c0,0,0.1-0.1,0.1-0.1
			c-0.3,0.2-0.7,0.3-1,0.4c-0.1,0-0.4,0.1-0.6-0.1c-0.2-0.2-0.2-0.5,0-0.9c0.9-1.5,2.2-2.8,3.6-3.8c0.1-0.1,0.2,0,0.3,0.1
			c0.1,0.1,0,0.2-0.1,0.3c-1.4,1-2.6,2.2-3.5,3.6c-0.1,0.1-0.1,0.2-0.1,0.3c0,0,0,0,0,0c0,0,0.1,0,0.1,0c1-0.3,1.8-0.9,2.6-1.5
			c0.1-0.1,0.2-0.1,0.3,0c0.1,0.1,0.1,0.2,0,0.3c-0.4,0.3-0.7,0.6-1,0.9c0.5-0.2,1-0.5,1.4-0.9c0.1-0.1,0.2-0.1,0.3,0
			c0.1,0.1,0.1,0.2,0,0.3c-0.9,1.3-1.9,2.6-2.7,4c0.3-0.3,0.7-0.7,1-1.1c1-1,2-2.1,3.1-3.1c0.1-0.1,0.2-0.1,0.3,0
			c0.1,0.1,0.1,0.2,0.1,0.3c0,0.1-0.1,0.2-0.1,0.3c0.2-0.1,0.4-0.3,0.7-0.4c0.1-0.1,0.2-0.1,0.3,0c0.1,0.1,0.1,0.1,0.1,0.2l-0.1,0.3
			l0.4-0.2c0.1,0,0.2,0,0.2,0c0.1,0,0.1,0.1,0.1,0.2c0.2,0,0.4,0,0.7,0c0.1,0,0.3,0,0.4,0c0.5,0,1-0.1,1.4-0.2c1-0.2,2-0.4,3,0
			c0.1,0,0.2,0.2,0.1,0.3c0,0.1-0.2,0.2-0.3,0.1c-0.9-0.3-1.8-0.1-2.7,0.1c-0.5,0.1-1,0.2-1.5,0.2c-0.1,0-0.3,0-0.4,0
			c-0.3,0-0.6,0-0.9,0.1c-0.1,0-0.1,0-0.2-0.1c0,0,0,0,0-0.1l-0.4,0.2c-0.1,0-0.2,0-0.2,0c-0.1-0.1-0.1-0.1-0.1-0.2l0-0.2
			c-0.3,0.2-0.6,0.4-0.9,0.5c-0.1,0-0.2,0-0.3,0C29,45.1,29,45.1,29,45c-0.8,0.7-1.5,1.5-2.2,2.3c-0.4,0.5-0.9,0.9-1.3,1.4
			c-0.1,0.1-0.3,0.3-0.4,0.4C25,49.1,24.9,49.2,24.9,49.2z"/>
	</g>
	<g>
		<path fill="#FFFFFF" d="M36.3,45.3c-0.1-0.1-0.2-0.3-0.3-0.4c-0.4-0.5-0.9-1-1.3-1.4"/>
		<path fill="#231F20" d="M36.3,45.6c-0.1,0-0.1,0-0.2-0.1c-0.1-0.1-0.2-0.2-0.3-0.4l-1.3-1.4c-0.1-0.1-0.1-0.2,0-0.3
			c0.1-0.1,0.2-0.1,0.3,0l1.3,1.4c0.1,0.1,0.2,0.3,0.3,0.4c0.1,0.1,0,0.2-0.1,0.3C36.3,45.5,36.3,45.6,36.3,45.6z"/>
	</g>
	<g>
		<path fill="#FFFFFF" d="M34.6,45.3c0.1-0.1,0.2-0.3,0.3-0.4c0.4-0.5,0.9-1,1.3-1.4"/>
		<path fill="#231F20" d="M34.6,45.6c0,0-0.1,0-0.1,0c-0.1-0.1-0.1-0.2-0.1-0.3c0.1-0.2,0.2-0.3,0.3-0.4l1.3-1.4
			c0.1-0.1,0.2-0.1,0.3,0c0.1,0.1,0.1,0.2,0,0.3l-1.3,1.4c-0.1,0.1-0.2,0.2-0.3,0.4C34.7,45.5,34.7,45.6,34.6,45.6z"/>
	</g>
</g>
</svg>
