<?xml version="1.0" encoding="utf-8"?>
<!-- Generator: Adobe Illustrator 18.1.1, SVG Export Plug-In . SVG Version: 6.00 Build 0)  -->
<!DOCTYPE svg PUBLIC "-//W3C//DTD SVG 1.1//EN" "http://www.w3.org/Graphics/SVG/1.1/DTD/svg11.dtd">
<svg version="1.1" id="Layer_1" xmlns="http://www.w3.org/2000/svg" xmlns:xlink="http://www.w3.org/1999/xlink" x="0px" y="0px"
	 viewBox="0 0 55 65" enable-background="new 0 0 55 65" xml:space="preserve">
<g>
	<g>
		<g enable-background="new    ">
			<g>
				<g>
					<path fill="#231F20" d="M15.5,45.2L8.1,50L15.5,45.2 M55,20.9L42.6,21L20.2,33.2l-3.4,5.2l-1.3,6.9L55,20.9"/>
					<path fill="#231F20" d="M8.1,50.2c-0.1,0-0.2,0-0.2-0.1c0,0,0-0.1,0-0.1c0-0.1,0-0.2,0.1-0.2l7.3-4.7l1.3-6.8c0,0,0-0.1,0-0.1
						L20,33c0,0,0.1-0.1,0.1-0.1l22.4-12.2c0,0,0.1,0,0.1,0L55,20.7c0.1,0,0.2,0.1,0.2,0.2c0,0.1,0,0.2-0.1,0.3L15.6,45.4l-7.4,4.8
						C8.1,50.2,8.1,50.2,8.1,50.2z M17.1,38.4l-1.2,6.3l38.3-23.5l-11.4,0.1L20.4,33.4L17.1,38.4z"/>
				</g>
				<g>
					<polyline fill="#231F20" points="55,20.9 8.1,50 15.5,45.2 23.2,46.2 34.1,42.1 48.9,32.2 55,20.9 					"/>
					<path fill="#231F20" d="M8.1,50.2c-0.1,0-0.2,0-0.2-0.1c-0.1-0.1,0-0.3,0.1-0.3l7.4-4.8c0,0,0.1,0,0.2,0l0.2,0l39.2-24.3
						c0.1-0.1,0.2,0,0.3,0c0.1,0.1,0.1,0.2,0,0.3l-6.1,11.3c0,0,0,0.1-0.1,0.1l-14.8,9.8c0,0,0,0-0.1,0l-10.9,4.1c0,0-0.1,0-0.1,0
						l-7.4-0.9l-7.6,4.7C8.1,50.2,8.1,50.2,8.1,50.2z M16.5,45.1l6.7,0.8L34,41.9l14.8-9.8l5.6-10.4L16.5,45.1z"/>
				</g>
			</g>
		</g>
	</g>
	<g>
		<polyline fill="#FFFFFF" points="21.3,39.2 12.4,39.5 8.3,36.7 6.4,31.6 		"/>
		<path fill="#231F20" d="M12.4,39.7c0,0-0.1,0-0.1,0l-4.2-2.7c0,0-0.1-0.1-0.1-0.1l-1.9-5.1c0-0.1,0-0.3,0.1-0.3
			c0.1,0,0.3,0,0.3,0.1l1.9,5l4,2.7l8.7-0.3c0.1,0,0.3,0.1,0.3,0.2c0,0.1-0.1,0.3-0.2,0.3L12.4,39.7C12.4,39.7,12.4,39.7,12.4,39.7z
			"/>
	</g>
	<g>
		<path fill="#FFFFFF" d="M52.4,18.4L52,15l-2.8,0l-6.6,1.4l-5.6,4.6L32,25.6l-6.3,3.8l-5.4,2.3l-7-1.5l-6.8,1.6l7.6,4.9l8,2.8h7.5
			l8-2.6l9.3-5.2c-0.1,0.3,1.3-2.1,2.8-4.7s3-5.2,3-5.2L52.4,18.4z"/>
		<path fill="#231F20" d="M29.6,39.7h-7.5c0,0-0.1,0-0.1,0l-8-2.8c0,0,0,0-0.1,0L6.3,32c-0.1-0.1-0.1-0.2-0.1-0.3
			c0-0.1,0.1-0.2,0.2-0.2l6.8-1.6c0,0,0.1,0,0.1,0l6.9,1.5l5.3-2.3l6.3-3.8l5.1-4.5l5.6-4.6c0,0,0.1,0,0.1-0.1l6.6-1.4
			c0,0,0,0,0.1,0l2.8,0c0,0,0,0,0,0c0.1,0,0.2,0.1,0.2,0.2l0.7,6.7c0,0.1,0,0.1,0,0.2c0,0-1.5,2.7-3,5.2c-0.8,1.4-1.4,2.5-1.9,3.3
			c-0.9,1.6-0.9,1.6-1.1,1.6l-9.2,5.1c0,0,0,0,0,0L29.6,39.7C29.6,39.7,29.6,39.7,29.6,39.7z M22.1,39.2h7.4l8-2.6l9.3-5.2
			c0.2-0.2,0.7-1.2,2.7-4.6c1.3-2.3,2.7-4.7,2.9-5.1l-0.7-6.4l-2.5,0l-6.5,1.4l-5.5,4.5l-5.1,4.5c0,0,0,0,0,0l-6.3,3.8c0,0,0,0,0,0
			L20.4,32c0,0-0.1,0-0.2,0l-6.9-1.5l-6.2,1.4l7.1,4.6L22.1,39.2z"/>
	</g>
	<g>
		<path fill="#231F20" d="M26.2,33.3C26.2,33.3,26.2,33.3,26.2,33.3l-13-2.8l-6.6,1.4c-0.1,0-0.1,0-0.2,0l-6.2-3.3
			c-0.1-0.1-0.2-0.2-0.1-0.3c0.1-0.1,0.2-0.2,0.3-0.1l6.1,3.2l6.5-1.4c0,0,0.1,0,0.1,0l13,2.8L47,31.4c0.1,0,0.3,0.1,0.3,0.2
			c0,0.1-0.1,0.3-0.2,0.3L26.2,33.3C26.3,33.3,26.3,33.3,26.2,33.3z"/>
	</g>
	<g>
		<path fill="#FFFFFF" d="M52,15c-1.1,1.2-12.2,12.2-12.2,12.2l-9.4,5.5"/>
		<path fill="#231F20" d="M30.4,33c-0.1,0-0.2,0-0.2-0.1c-0.1-0.1,0-0.3,0.1-0.3l9.4-5.5c0.6-0.6,11.1-11.1,12.1-12.2
			c0.1-0.1,0.3-0.1,0.4,0c0.1,0.1,0.1,0.3,0,0.4C51.1,16.4,40.1,27.3,40,27.4c0,0,0,0-0.1,0L30.5,33C30.5,33,30.4,33,30.4,33z"/>
	</g>
	<g>
		<path fill="#231F20" d="M44.5,22.9c-0.1,0-0.2,0-0.2-0.1l-3.3-5c-0.1-0.1,0-0.3,0.1-0.3c0.1-0.1,0.3,0,0.3,0.1l3.2,4.9l8.1-0.9
			c0.1,0,0.3,0.1,0.3,0.2c0,0.1-0.1,0.3-0.2,0.3L44.5,22.9C44.5,22.9,44.5,22.9,44.5,22.9z"/>
	</g>
	<g>
		<polyline fill="#231F20" points="49.3,14.8 44.6,15.8 47.1,19.9 52.6,19 52.1,16.4 		"/>
	</g>
</g>
</svg>
