<?xml version="1.0" encoding="utf-8"?>
<!-- Generator: Adobe Illustrator 18.1.1, SVG Export Plug-In . SVG Version: 6.00 Build 0)  -->
<!DOCTYPE svg PUBLIC "-//W3C//DTD SVG 1.1//EN" "http://www.w3.org/Graphics/SVG/1.1/DTD/svg11.dtd">
<svg version="1.1" id="Layer_1" xmlns="http://www.w3.org/2000/svg" xmlns:xlink="http://www.w3.org/1999/xlink" x="0px" y="0px"
	 viewBox="0 0 55 65" enable-background="new 0 0 55 65" xml:space="preserve">
<g>
	<g>
		<polygon fill="#231F20" points="22.3,38.9 7.5,50.7 28.1,40.8 		"/>
		<path fill="#231F20" d="M7.5,50.9c-0.1,0-0.2,0-0.2-0.1c-0.1-0.1,0-0.3,0.1-0.3l14.8-11.8c0.1-0.1,0.2-0.1,0.2,0l5.8,2
			c0.1,0,0.2,0.1,0.2,0.2c0,0.1-0.1,0.2-0.1,0.2L7.6,50.9C7.5,50.9,7.5,50.9,7.5,50.9z M22.3,39.1L9.4,49.5l18-8.6L22.3,39.1z"/>
	</g>
	<g>
		<polygon fill="#231F20" points="7.5,50.8 41.9,45.7 36.1,43.7 26.5,43.9 7.5,50.8 		"/>
		<path fill="#231F20" d="M7.5,51c-0.1,0-0.2-0.1-0.3-0.2c0-0.1,0-0.3,0.2-0.3l19-6.9c0,0,0.1,0,0.1,0l9.7-0.2c0,0,0.1,0,0.1,0
			l5.8,2c0.1,0,0.2,0.1,0.2,0.3c0,0.1-0.1,0.2-0.2,0.2L7.5,51C7.5,51,7.5,51,7.5,51z M26.5,44.2l-16.5,6l30.9-4.6L36.1,44L26.5,44.2
			z"/>
	</g>
	<g>
		<polygon fill="#231F20" points="28.1,40.8 30.7,45 7.5,50.8 		"/>
		<path fill="#231F20" d="M7.5,51c-0.1,0-0.2-0.1-0.2-0.2c0-0.1,0-0.3,0.1-0.3L28,40.6c0.1-0.1,0.3,0,0.3,0.1l2.6,4.2
			c0,0.1,0.1,0.2,0,0.2c0,0.1-0.1,0.1-0.2,0.2L7.5,51C7.5,51,7.5,51,7.5,51z M28,41.2L9.8,49.9l20.5-5.1L28,41.2z"/>
	</g>
	<g>
		<polygon fill="#FFFFFF" points="32.9,18.1 36.9,32.9 0.6,39.1 		"/>
		<path fill="#231F20" d="M0.6,39.4c-0.1,0-0.2-0.1-0.2-0.2c0-0.1,0-0.2,0.1-0.3l32.4-21c0.1,0,0.2-0.1,0.2,0c0.1,0,0.1,0.1,0.2,0.2
			l4,14.8c0,0.1,0,0.1,0,0.2c0,0.1-0.1,0.1-0.2,0.1L0.6,39.4C0.6,39.4,0.6,39.4,0.6,39.4z M32.8,18.5l-31,20.2l34.8-6L32.8,18.5z"/>
	</g>
	<g>
		<g>
			<polygon fill="#FFFFFF" points="0.6,39.1 32.9,18.1 23.6,14.2 0.6,39.1 			"/>
			<path fill="#231F20" d="M0.6,39.4c-0.1,0-0.1,0-0.2-0.1c-0.1-0.1-0.1-0.2,0-0.3l23-24.9c0.1-0.1,0.2-0.1,0.3-0.1l9.3,3.9
				c0.1,0,0.1,0.1,0.2,0.2c0,0.1,0,0.2-0.1,0.2l-32.4,21C0.7,39.4,0.6,39.4,0.6,39.4z M23.6,14.5L2.1,37.8l30.2-19.6L23.6,14.5z"/>
		</g>
	</g>
	<g>
		<polygon fill="#FFFFFF" points="36.9,32.9 43.3,21 0.6,39.1 		"/>
		<path fill="#231F20" d="M0.6,39.4c-0.1,0-0.2-0.1-0.2-0.2c0-0.1,0-0.3,0.1-0.3l42.8-18.1c0.1,0,0.2,0,0.3,0.1
			c0.1,0.1,0.1,0.2,0,0.3L37.1,33c0,0.1-0.1,0.1-0.2,0.1L0.6,39.4C0.6,39.4,0.6,39.4,0.6,39.4z M42.8,21.6l-40,16.9l34-5.8
			L42.8,21.6z"/>
	</g>
	<g>
		<polygon fill="#FFFFFF" points="0.6,39.1 54.4,24.9 43.3,21 0.6,39.1 		"/>
		<path fill="#231F20" d="M0.6,39.4c-0.1,0-0.2-0.1-0.2-0.2c0-0.1,0-0.3,0.1-0.3l42.8-18.1c0.1,0,0.1,0,0.2,0l11.1,3.9
			c0.1,0,0.2,0.1,0.2,0.3c0,0.1-0.1,0.2-0.2,0.2L0.6,39.4C0.6,39.4,0.6,39.4,0.6,39.4z M43.3,21.3L4,38l49.6-13.1L43.3,21.3z"/>
	</g>
</g>
</svg>
