<?xml version="1.0" encoding="utf-8"?>
<!-- Generator: Adobe Illustrator 18.1.1, SVG Export Plug-In . SVG Version: 6.00 Build 0)  -->
<!DOCTYPE svg PUBLIC "-//W3C//DTD SVG 1.1//EN" "http://www.w3.org/Graphics/SVG/1.1/DTD/svg11.dtd">
<svg version="1.1" id="Layer_1" xmlns="http://www.w3.org/2000/svg" xmlns:xlink="http://www.w3.org/1999/xlink" x="0px" y="0px"
	 viewBox="0 0 55 65" enable-background="new 0 0 55 65" xml:space="preserve">
<g>
	<g>
		<polyline fill="#231F20" points="35.8,55.9 43.7,51.1 46,48.1 46,46.4 43.5,45.5 40.3,45.2 38.5,45.2 		"/>
		<path fill="#231F20" d="M35.8,56.1c-0.1,0-0.2,0-0.2-0.1c-0.1-0.1,0-0.3,0.1-0.3l7.8-4.8l2.2-2.9l0-1.4l-2.2-0.9l-3.2-0.3h-1.8
			c-0.1,0-0.2-0.1-0.2-0.2s0.1-0.2,0.2-0.2h1.8c0,0,0,0,0,0l3.2,0.3c0,0,0,0,0.1,0l2.4,0.9c0.1,0,0.1,0.1,0.2,0.2l0,1.7
			c0,0.1,0,0.1,0,0.1l-2.3,3c0,0,0,0-0.1,0.1l-7.9,4.8C35.9,56.1,35.8,56.1,35.8,56.1z"/>
	</g>
	<g>
		<polygon fill="#FFFFFF" points="38.5,50.5 38.5,42.7 38.1,38.3 36.3,34.5 32.5,31.3 26.8,29.8 21.8,30.9 18,33.8 15.9,37.2 
			15.1,40.5 15,51.5 16.1,54.4 18.9,56.6 23,58 27,58.4 31.5,57.8 35.8,55.9 38.2,53 		"/>
		<path fill="#231F20" d="M27,58.6C27,58.6,27,58.6,27,58.6l-4-0.4c0,0,0,0-0.1,0l-4.1-1.4c0,0,0,0-0.1,0L16,54.6
			c0,0-0.1-0.1-0.1-0.1l-1.1-2.9c0,0,0-0.1,0-0.1l0.1-11c0,0,0,0,0-0.1l0.8-3.3c0,0,0,0,0-0.1l2.1-3.5c0,0,0,0,0.1-0.1l3.8-2.9
			c0,0,0.1,0,0.1,0l5-1.1c0,0,0.1,0,0.1,0l5.8,1.5c0,0,0.1,0,0.1,0l3.7,3.2c0,0,0,0,0.1,0.1l1.8,3.8c0,0,0,0.1,0,0.1l0.4,4.4
			c0,0,0,0,0,0l0,7.8c0,0,0,0,0,0l-0.3,2.6c0,0,0,0.1-0.1,0.1L36,56.1c0,0-0.1,0-0.1,0.1L31.6,58c0,0,0,0-0.1,0L27,58.6
			C27,58.6,27,58.6,27,58.6z M23.1,57.8l4,0.4l4.4-0.6l4.2-1.8l2.3-2.8l0.3-2.5l0-7.7l-0.4-4.3l-1.8-3.7l-3.7-3.2L26.8,30l-4.9,1.1
			l-3.7,2.8l-2.1,3.4l-0.7,3.2l-0.1,10.9l1.1,2.8l2.7,2.1L23.1,57.8z"/>
	</g>
	<g>
		<path fill="#231F20" d="M32.3,57c-0.1,0-0.2-0.1-0.2-0.2v-6.3c0-0.1,0.1-0.2,0.2-0.2c0.1,0,0.2,0.1,0.2,0.2v6.3
			C32.5,56.9,32.4,57,32.3,57z"/>
	</g>
	<g>
		<path fill="#231F20" d="M35.5,56c-0.1,0-0.2-0.1-0.2-0.2V42.5c0-0.1,0.1-0.2,0.2-0.2s0.2,0.1,0.2,0.2v13.2
			C35.8,55.9,35.7,56,35.5,56z"/>
	</g>
	<g>
		<path fill="#231F20" d="M32.3,46.7c-0.1,0-0.2-0.1-0.2-0.2V44c0-0.1,0.1-0.2,0.2-0.2c0.1,0,0.2,0.1,0.2,0.2v2.4
			C32.5,46.6,32.4,46.7,32.3,46.7z"/>
	</g>
	<g>
		<polygon fill="#FFFFFF" points="18.1,24.6 19,19.9 21.9,15.1 25.1,12.4 28.9,11.2 32.2,12 34.8,15.1 35.4,20.6 33.7,25 32,28.1 
			30.8,30.4 30.6,33 29.1,34.3 27.2,34.6 25.1,34.1 24,32.7 24.6,30.1 26.4,25.1 27.6,22.9 28.2,21.5 28.8,19.9 28.9,17.7 
			26.8,19.3 25.7,20.8 24.6,23.6 24.4,25.1 22.8,26.5 20.6,26.6 18.7,25.8 		"/>
		<path fill="#231F20" d="M27.2,34.8C27.2,34.8,27.2,34.8,27.2,34.8l-2.1-0.5c-0.1,0-0.1,0-0.1-0.1l-1.1-1.4c0-0.1-0.1-0.1,0-0.2
			l0.5-2.6c0,0,0,0,0,0l1.8-5c0,0,0,0,0,0l1.2-2.2l0.6-1.4l0.5-1.6l0.1-1.6l-1.7,1.3l-1,1.5l-1,2.7l-0.2,1.5c0,0.1,0,0.1-0.1,0.2
			l-1.7,1.4c0,0-0.1,0-0.1,0.1l-2.2,0.2c0,0-0.1,0-0.1,0L18.6,26c0,0-0.1-0.1-0.1-0.1l-0.6-1.2c0,0,0-0.1,0-0.2l0.9-4.7
			c0,0,0-0.1,0-0.1l2.9-4.8c0,0,0,0,0.1-0.1l3.2-2.7c0,0,0.1,0,0.1,0l3.8-1.2c0,0,0.1,0,0.1,0l3.3,0.8c0,0,0.1,0,0.1,0.1l2.6,3.1
			c0,0,0.1,0.1,0.1,0.1l0.6,5.5c0,0,0,0.1,0,0.1l-1.7,4.4c0,0,0,0,0,0l-1.7,3.1L31,30.4L30.8,33c0,0.1,0,0.1-0.1,0.2l-1.5,1.3
			c0,0-0.1,0-0.1,0.1L27.2,34.8C27.2,34.8,27.2,34.8,27.2,34.8z M25.3,33.9l1.9,0.5l1.8-0.3l1.3-1.2l0.2-2.6c0,0,0-0.1,0-0.1
			l1.2-2.2l1.7-3.1l1.7-4.3l-0.6-5.4l-2.5-3l-3.1-0.8l-3.7,1.2l-3.1,2.6L19.3,20l-0.9,4.6l0.5,1.1l1.7,0.8l2-0.2l1.5-1.3l0.2-1.4
			c0,0,0,0,0-0.1l1.1-2.7c0,0,0,0,0-0.1l1.1-1.5c0,0,0,0,0.1-0.1l2.2-1.6c0.1-0.1,0.2-0.1,0.3,0c0.1,0,0.1,0.1,0.1,0.2L29,19.9
			c0,0,0,0,0,0.1l-0.6,1.6c0,0,0,0,0,0L27.8,23c0,0,0,0,0,0l-1.2,2.1l-1.8,5l-0.5,2.5L25.3,33.9z"/>
	</g>
</g>
</svg>
