<?xml version="1.0" encoding="utf-8"?>
<!-- Generator: Adobe Illustrator 18.1.1, SVG Export Plug-In . SVG Version: 6.00 Build 0)  -->
<!DOCTYPE svg PUBLIC "-//W3C//DTD SVG 1.1//EN" "http://www.w3.org/Graphics/SVG/1.1/DTD/svg11.dtd">
<svg version="1.1" id="Layer_1" xmlns="http://www.w3.org/2000/svg" xmlns:xlink="http://www.w3.org/1999/xlink" x="0px" y="0px"
	 viewBox="0 0 55 65" enable-background="new 0 0 55 65" xml:space="preserve">
<g>
	<g>
		<polygon fill="#231F20" points="32.6,52.7 27.1,55.9 28.9,56.9 34.6,53.7 32.6,52.7 		"/>
		<path fill="#231F20" d="M28.9,57.1c0,0-0.1,0-0.1,0l-1.8-1c-0.1,0-0.1-0.1-0.1-0.2c0-0.1,0-0.2,0.1-0.2l5.6-3.2c0.1,0,0.1,0,0.2,0
			l2,1c0.1,0,0.1,0.1,0.1,0.2c0,0.1,0,0.2-0.1,0.2L29,57.1C28.9,57.1,28.9,57.1,28.9,57.1z M27.5,55.9l1.4,0.7l5.3-3L32.7,53
			L27.5,55.9z"/>
	</g>
	<g>
		<g>
			<g>
				<polygon fill="#FFFFFF" points="39.4,31.3 27.6,38.2 15.6,31.3 27.5,24.4 				"/>
				<path fill="#231F20" d="M27.6,38.4c0,0-0.1,0-0.1,0l-0.4-0.2C27,38.1,27,38,27,37.9c0.1-0.1,0.2-0.1,0.3-0.1l0.3,0.1
					c0.1,0,0.2,0,0.3,0.1c0.1,0.1,0,0.2-0.1,0.3l-0.1,0C27.6,38.4,27.6,38.4,27.6,38.4z M28.3,38c-0.1,0-0.1,0-0.2-0.1
					c-0.1-0.1,0-0.2,0.1-0.3l0.4-0.2c0.1-0.1,0.2,0,0.3,0.1s0,0.2-0.1,0.3L28.4,38C28.4,38,28.3,38,28.3,38z M26.6,37.8
					c0,0-0.1,0-0.1,0L26,37.5c-0.1-0.1-0.1-0.2-0.1-0.3c0.1-0.1,0.2-0.1,0.3-0.1l0.4,0.2c0.1,0.1,0.1,0.2,0.1,0.3
					C26.7,37.8,26.6,37.8,26.6,37.8z M29.4,37.4c-0.1,0-0.1,0-0.2-0.1c-0.1-0.1,0-0.2,0.1-0.3l0.4-0.2c0.1-0.1,0.2,0,0.3,0.1
					c0.1,0.1,0,0.2-0.1,0.3l-0.4,0.2C29.4,37.4,29.4,37.4,29.4,37.4z M25.5,37.2c0,0-0.1,0-0.1,0l-0.4-0.2c-0.1-0.1-0.1-0.2-0.1-0.3
					c0.1-0.1,0.2-0.1,0.3-0.1l0.4,0.2c0.1,0.1,0.1,0.2,0.1,0.3C25.6,37.2,25.6,37.2,25.5,37.2z M30.4,36.7c-0.1,0-0.1,0-0.2-0.1
					c-0.1-0.1,0-0.2,0.1-0.3l0.4-0.2c0.1-0.1,0.2,0,0.3,0.1c0.1,0.1,0,0.2-0.1,0.3l-0.4,0.2C30.5,36.7,30.5,36.7,30.4,36.7z
					 M24.4,36.6c0,0-0.1,0-0.1,0l-0.4-0.2c-0.1-0.1-0.1-0.2-0.1-0.3c0.1-0.1,0.2-0.1,0.3-0.1l0.4,0.2c0.1,0.1,0.1,0.2,0.1,0.3
					C24.6,36.5,24.5,36.6,24.4,36.6z M31.5,36.1c-0.1,0-0.1,0-0.2-0.1c-0.1-0.1,0-0.2,0.1-0.3l0.4-0.2c0.1-0.1,0.2,0,0.3,0.1
					c0.1,0.1,0,0.2-0.1,0.3l-0.4,0.2C31.6,36.1,31.5,36.1,31.5,36.1z M23.3,36c0,0-0.1,0-0.1,0l-0.4-0.2c-0.1-0.1-0.1-0.2-0.1-0.3
					c0.1-0.1,0.2-0.1,0.3-0.1l0.4,0.2c0.1,0.1,0.1,0.2,0.1,0.3C23.5,35.9,23.4,36,23.3,36z M32.6,35.5c-0.1,0-0.1,0-0.2-0.1
					c-0.1-0.1,0-0.2,0.1-0.3l0.4-0.2c0.1-0.1,0.2,0,0.3,0.1c0.1,0.1,0,0.2-0.1,0.3l-0.4,0.2C32.6,35.5,32.6,35.5,32.6,35.5z
					 M22.3,35.3c0,0-0.1,0-0.1,0l-0.4-0.2c-0.1-0.1-0.1-0.2-0.1-0.3c0.1-0.1,0.2-0.1,0.3-0.1l0.4,0.2c0.1,0.1,0.1,0.2,0.1,0.3
					C22.4,35.3,22.3,35.3,22.3,35.3z M33.6,34.9c-0.1,0-0.1,0-0.2-0.1c-0.1-0.1,0-0.2,0.1-0.3l0.4-0.2c0.1-0.1,0.2,0,0.3,0.1
					c0.1,0.1,0,0.2-0.1,0.3l-0.4,0.2C33.7,34.9,33.7,34.9,33.6,34.9z M21.2,34.7c0,0-0.1,0-0.1,0l-0.4-0.2c-0.1-0.1-0.1-0.2-0.1-0.3
					c0.1-0.1,0.2-0.1,0.3-0.1l0.4,0.2c0.1,0.1,0.1,0.2,0.1,0.3C21.3,34.7,21.3,34.7,21.2,34.7z M34.7,34.3c-0.1,0-0.1,0-0.2-0.1
					c-0.1-0.1,0-0.2,0.1-0.3l0.4-0.2c0.1-0.1,0.2,0,0.3,0.1c0.1,0.1,0,0.2-0.1,0.3l-0.4,0.2C34.8,34.2,34.7,34.3,34.7,34.3z
					 M20.1,34.1c0,0-0.1,0-0.1,0l-0.4-0.2c-0.1-0.1-0.1-0.2-0.1-0.3c0.1-0.1,0.2-0.1,0.3-0.1l0.4,0.2c0.1,0.1,0.1,0.2,0.1,0.3
					C20.3,34.1,20.2,34.1,20.1,34.1z M35.8,33.6c-0.1,0-0.1,0-0.2-0.1c-0.1-0.1,0-0.2,0.1-0.3l0.4-0.2c0.1-0.1,0.2,0,0.3,0.1
					c0.1,0.1,0,0.2-0.1,0.3l-0.4,0.2C35.9,33.6,35.8,33.6,35.8,33.6z M19,33.5c0,0-0.1,0-0.1,0l-0.4-0.2c-0.1-0.1-0.1-0.2-0.1-0.3
					c0.1-0.1,0.2-0.1,0.3-0.1l0.4,0.2c0.1,0.1,0.1,0.2,0.1,0.3C19.2,33.4,19.1,33.5,19,33.5z M36.9,33c-0.1,0-0.1,0-0.2-0.1
					c-0.1-0.1,0-0.2,0.1-0.3l0.4-0.2c0.1-0.1,0.2,0,0.3,0.1c0.1,0.1,0,0.2-0.1,0.3L37,33C36.9,33,36.9,33,36.9,33z M18,32.9
					c0,0-0.1,0-0.1,0l-0.4-0.2c-0.1-0.1-0.1-0.2-0.1-0.3c0.1-0.1,0.2-0.1,0.3-0.1l0.4,0.2c0.1,0.1,0.1,0.2,0.1,0.3
					C18.1,32.8,18,32.9,18,32.9z M37.9,32.4c-0.1,0-0.1,0-0.2-0.1c-0.1-0.1,0-0.2,0.1-0.3l0.4-0.2c0.1-0.1,0.2,0,0.3,0.1
					c0.1,0.1,0,0.2-0.1,0.3L38,32.4C38,32.4,38,32.4,37.9,32.4z M16.9,32.2c0,0-0.1,0-0.1,0L16.4,32c-0.1-0.1-0.1-0.2-0.1-0.3
					c0.1-0.1,0.2-0.1,0.3-0.1l0.4,0.2c0.1,0.1,0.1,0.2,0.1,0.3C17,32.2,17,32.2,16.9,32.2z M39,31.8c-0.1,0-0.1,0-0.2-0.1
					c-0.1-0.1,0-0.2,0.1-0.3l0.1-0.1l-0.1,0c-0.1-0.1-0.1-0.2-0.1-0.3c0.1-0.1,0.2-0.1,0.3-0.1l0.4,0.2c0.1,0,0.1,0.1,0.1,0.2
					c0,0.1,0,0.2-0.1,0.2l-0.4,0.2C39.1,31.8,39,31.8,39,31.8z M15.8,31.6c0,0-0.1,0-0.1,0l-0.2-0.1c-0.1,0-0.1-0.1-0.1-0.2
					c0-0.1,0-0.2,0.1-0.2l0.2-0.1c0.1-0.1,0.2,0,0.3,0.1c0.1,0.1,0,0.2,0,0.3c0,0.1,0,0.1,0,0.2C16,31.6,15.9,31.6,15.8,31.6z
					 M16.5,31c-0.1,0-0.1,0-0.2-0.1c-0.1-0.1,0-0.2,0.1-0.3l0.4-0.2c0.1-0.1,0.2,0,0.3,0.1c0.1,0.1,0,0.2-0.1,0.3L16.6,31
					C16.6,31,16.6,31,16.5,31z M38.4,30.9c0,0-0.1,0-0.1,0l-0.4-0.2c-0.1-0.1-0.1-0.2-0.1-0.3c0.1-0.1,0.2-0.1,0.3-0.1l0.4,0.2
					c0.1,0.1,0.1,0.2,0.1,0.3C38.5,30.9,38.5,30.9,38.4,30.9z M17.6,30.4c-0.1,0-0.1,0-0.2-0.1c-0.1-0.1,0-0.2,0.1-0.3l0.4-0.2
					c0.1-0.1,0.2,0,0.3,0.1c0.1,0.1,0,0.2-0.1,0.3l-0.4,0.2C17.7,30.4,17.6,30.4,17.6,30.4z M37.3,30.3c0,0-0.1,0-0.1,0L36.8,30
					c-0.1-0.1-0.1-0.2-0.1-0.3c0.1-0.1,0.2-0.1,0.3-0.1l0.4,0.2c0.1,0.1,0.1,0.2,0.1,0.3C37.5,30.3,37.4,30.3,37.3,30.3z M18.7,29.8
					c-0.1,0-0.1,0-0.2-0.1c-0.1-0.1,0-0.2,0.1-0.3l0.4-0.2c0.1-0.1,0.2,0,0.3,0.1c0.1,0.1,0,0.2-0.1,0.3l-0.4,0.2
					C18.7,29.7,18.7,29.8,18.7,29.8z M36.3,29.7c0,0-0.1,0-0.1,0l-0.4-0.2c-0.1-0.1-0.1-0.2-0.1-0.3c0.1-0.1,0.2-0.1,0.3-0.1
					l0.4,0.2c0.1,0.1,0.1,0.2,0.1,0.3C36.4,29.6,36.3,29.7,36.3,29.7z M19.7,29.1c-0.1,0-0.1,0-0.2-0.1c-0.1-0.1,0-0.2,0.1-0.3
					l0.4-0.2c0.1-0.1,0.2,0,0.3,0.1c0.1,0.1,0,0.2-0.1,0.3l-0.4,0.2C19.8,29.1,19.8,29.1,19.7,29.1z M35.2,29.1c0,0-0.1,0-0.1,0
					l-0.4-0.2c-0.1-0.1-0.1-0.2-0.1-0.3c0.1-0.1,0.2-0.1,0.3-0.1l0.4,0.2c0.1,0.1,0.1,0.2,0.1,0.3C35.3,29,35.3,29.1,35.2,29.1z
					 M20.8,28.5c-0.1,0-0.1,0-0.2-0.1c-0.1-0.1,0-0.2,0.1-0.3l0.4-0.2c0.1-0.1,0.2,0,0.3,0.1c0.1,0.1,0,0.2-0.1,0.3l-0.4,0.2
					C20.9,28.5,20.8,28.5,20.8,28.5z M34.1,28.4c0,0-0.1,0-0.1,0l-0.4-0.2c-0.1-0.1-0.1-0.2-0.1-0.3c0.1-0.1,0.2-0.1,0.3-0.1
					l0.4,0.2c0.1,0.1,0.1,0.2,0.1,0.3C34.3,28.4,34.2,28.4,34.1,28.4z M21.9,27.9c-0.1,0-0.1,0-0.2-0.1c-0.1-0.1,0-0.2,0.1-0.3
					l0.4-0.2c0.1-0.1,0.2,0,0.3,0.1c0.1,0.1,0,0.2-0.1,0.3L22,27.9C21.9,27.9,21.9,27.9,21.9,27.9z M33,27.8c0,0-0.1,0-0.1,0
					l-0.4-0.2c-0.1-0.1-0.1-0.2-0.1-0.3c0.1-0.1,0.2-0.1,0.3-0.1l0.4,0.2c0.1,0.1,0.1,0.2,0.1,0.3C33.2,27.8,33.1,27.8,33,27.8z
					 M22.9,27.3c-0.1,0-0.1,0-0.2-0.1c-0.1-0.1,0-0.2,0.1-0.3l0.4-0.2c0.1-0.1,0.2,0,0.3,0.1c0.1,0.1,0,0.2-0.1,0.3l-0.4,0.2
					C23,27.3,23,27.3,22.9,27.3z M32,27.2c0,0-0.1,0-0.1,0l-0.4-0.2c-0.1-0.1-0.1-0.2-0.1-0.3c0.1-0.1,0.2-0.1,0.3-0.1l0.4,0.2
					c0.1,0.1,0.1,0.2,0.1,0.3C32.1,27.2,32,27.2,32,27.2z M24,26.6c-0.1,0-0.1,0-0.2-0.1c-0.1-0.1,0-0.2,0.1-0.3l0.4-0.2
					c0.1-0.1,0.2,0,0.3,0.1c0.1,0.1,0,0.2-0.1,0.3l-0.4,0.2C24.1,26.6,24.1,26.6,24,26.6z M30.9,26.6c0,0-0.1,0-0.1,0l-0.4-0.2
					c-0.1-0.1-0.1-0.2-0.1-0.3c0.1-0.1,0.2-0.1,0.3-0.1l0.4,0.2c0.1,0.1,0.1,0.2,0.1,0.3C31,26.5,31,26.6,30.9,26.6z M25.1,26
					c-0.1,0-0.1,0-0.2-0.1c-0.1-0.1,0-0.2,0.1-0.3l0.4-0.2c0.1-0.1,0.2,0,0.3,0.1c0.1,0.1,0,0.2-0.1,0.3L25.2,26
					C25.2,26,25.1,26,25.1,26z M29.8,26c0,0-0.1,0-0.1,0l-0.4-0.2c-0.1-0.1-0.1-0.2-0.1-0.3c0.1-0.1,0.2-0.1,0.3-0.1l0.4,0.2
					c0.1,0.1,0.1,0.2,0.1,0.3C30,25.9,29.9,26,29.8,26z M26.2,25.4c-0.1,0-0.1,0-0.2-0.1c-0.1-0.1,0-0.2,0.1-0.3l0.4-0.2
					c0.1-0.1,0.2,0,0.3,0.1c0.1,0.1,0,0.2-0.1,0.3l-0.4,0.2C26.2,25.4,26.2,25.4,26.2,25.4z M28.7,25.3c0,0-0.1,0-0.1,0l-0.4-0.2
					c-0.1-0.1-0.1-0.2-0.1-0.3c0.1-0.1,0.2-0.1,0.3-0.1l0.4,0.2c0.1,0.1,0.1,0.2,0.1,0.3C28.9,25.3,28.8,25.3,28.7,25.3z M27.2,24.8
					c-0.1,0-0.1,0-0.2-0.1c-0.1-0.1,0-0.2,0.1-0.3l0.3-0.1c0.1,0,0.2,0,0.2,0l0.2,0.1c0.1,0.1,0.1,0.2,0.1,0.3
					c-0.1,0.1-0.2,0.1-0.3,0.1l-0.1,0l-0.1,0.1C27.3,24.8,27.3,24.8,27.2,24.8z"/>
			</g>
		</g>
		<g>
			<g>
				<polygon fill="#FFFFFF" points="37.8,18.8 39.4,17.9 37.8,17 36.2,17.9 				"/>
				<path fill="#231F20" d="M37.8,19c-0.1,0-0.2,0-0.2-0.1c-0.1-0.1,0-0.2,0.1-0.3l0.4-0.2c0.1-0.1,0.2,0,0.3,0.1
					c0.1,0.1,0,0.2-0.1,0.3L37.9,19C37.9,19,37.8,19,37.8,19z M37.2,18.7c0,0-0.1,0-0.1,0l-0.4-0.2c-0.1-0.1-0.1-0.2-0.1-0.3
					c0.1-0.1,0.2-0.1,0.3-0.1l0.4,0.2c0.1,0.1,0.1,0.2,0.1,0.3C37.4,18.6,37.3,18.7,37.2,18.7z M38.9,18.4c-0.1,0-0.2,0-0.2-0.1
					c-0.1-0.1,0-0.2,0.1-0.3l0.4-0.2c0.1-0.1,0.2,0,0.3,0.1c0.1,0.1,0,0.2-0.1,0.3L39,18.4C39,18.4,38.9,18.4,38.9,18.4z M36.3,18
					c-0.1,0-0.2,0-0.2-0.1c-0.1-0.1,0-0.2,0.1-0.3l0.4-0.2c0.1-0.1,0.2,0,0.3,0.1c0.1,0.1,0,0.2-0.1,0.3L36.4,18
					C36.3,18,36.3,18,36.3,18z M38.9,17.8c0,0-0.1,0-0.1,0l-0.4-0.2c-0.1-0.1-0.1-0.2-0.1-0.3c0.1-0.1,0.2-0.1,0.3-0.1l0.4,0.2
					c0.1,0.1,0.1,0.2,0.1,0.3C39,17.8,39,17.8,38.9,17.8z M37.4,17.4c-0.1,0-0.2,0-0.2-0.1c-0.1-0.1,0-0.2,0.1-0.3l0.4-0.2
					c0.1-0.1,0.2,0,0.3,0.1c0.1,0.1,0,0.2-0.1,0.3l-0.4,0.2C37.4,17.4,37.4,17.4,37.4,17.4z"/>
			</g>
		</g>
		<g>
			<g>
				<g>
					<polygon fill="#FFFFFF" points="36.2,33.3 36.2,47 37.8,47.9 37.8,34.2 					"/>
					<path fill="#231F20" d="M37.6,48c0,0-0.1,0-0.1,0l-0.4-0.2c-0.1-0.1-0.1-0.2-0.1-0.3c0.1-0.1,0.2-0.1,0.3-0.1l0.4,0.2
						c0.1,0.1,0.1,0.2,0.1,0.3C37.8,47.9,37.7,48,37.6,48z M37.8,47.6C37.8,47.6,37.8,47.6,37.8,47.6c-0.1,0-0.2-0.1-0.2-0.2l0-0.5
						c0-0.1,0.1-0.2,0.2-0.2c0,0,0,0,0,0c0.1,0,0.2,0.1,0.2,0.2l0,0.5C38,47.5,37.9,47.6,37.8,47.6z M36.5,47.4c0,0-0.1,0-0.1,0
						l-0.4-0.2c-0.1,0-0.1-0.1-0.1-0.2l0-0.1c0-0.1,0.1-0.2,0.2-0.2c0,0,0,0,0,0c0.1,0,0.2,0.1,0.2,0.2l0.3,0.1
						c0.1,0.1,0.1,0.2,0.1,0.3C36.7,47.4,36.6,47.4,36.5,47.4z M36.2,46.4L36.2,46.4c-0.1,0-0.2-0.1-0.2-0.2l0-0.5
						c0-0.1,0.1-0.2,0.2-0.2h0c0.1,0,0.2,0.1,0.2,0.2l0,0.5C36.4,46.3,36.3,46.4,36.2,46.4z M37.8,46.3
						C37.8,46.3,37.8,46.3,37.8,46.3c-0.1,0-0.2-0.1-0.2-0.2l0-0.5c0-0.1,0.1-0.2,0.2-0.2c0,0,0,0,0,0c0.1,0,0.2,0.1,0.2,0.2l0,0.5
						C38,46.2,37.9,46.3,37.8,46.3z M36.2,45.1C36.2,45.1,36.2,45.1,36.2,45.1c-0.1,0-0.2-0.1-0.2-0.2l0-0.5c0-0.1,0.1-0.2,0.2-0.2
						c0.1,0,0.2,0.1,0.2,0.2l0,0.5C36.4,45,36.3,45.1,36.2,45.1z M37.8,45.1C37.8,45.1,37.8,45.1,37.8,45.1c-0.1,0-0.2-0.1-0.2-0.2
						l0-0.5c0-0.1,0.1-0.2,0.2-0.2c0,0,0,0,0,0c0.1,0,0.2,0.1,0.2,0.2l0,0.5C38,45,37.9,45.1,37.8,45.1z M36.2,43.9L36.2,43.9
						c-0.1,0-0.2-0.1-0.2-0.2l0-0.5c0-0.1,0.1-0.2,0.2-0.2h0c0.1,0,0.2,0.1,0.2,0.2l0,0.5C36.4,43.8,36.3,43.9,36.2,43.9z
						 M37.8,43.8C37.8,43.8,37.8,43.8,37.8,43.8c-0.1,0-0.2-0.1-0.2-0.2l0-0.5c0-0.1,0.1-0.2,0.2-0.2c0,0,0,0,0,0
						c0.1,0,0.2,0.1,0.2,0.2l0,0.5C38,43.8,37.9,43.8,37.8,43.8z M36.2,42.7C36.2,42.7,36.2,42.7,36.2,42.7c-0.1,0-0.2-0.1-0.2-0.2
						l0-0.5c0-0.1,0.1-0.2,0.2-0.2c0,0,0,0,0,0c0.1,0,0.2,0.1,0.2,0.2l0,0.5C36.4,42.6,36.3,42.7,36.2,42.7z M37.8,42.6
						C37.8,42.6,37.8,42.6,37.8,42.6c-0.1,0-0.2-0.1-0.2-0.2l0-0.5c0-0.1,0.1-0.2,0.2-0.2c0.1,0,0.2,0.1,0.2,0.2l0,0.5
						C38,42.5,37.9,42.6,37.8,42.6z M36.2,41.4L36.2,41.4c-0.1,0-0.2-0.1-0.2-0.2l0-0.5c0-0.1,0.1-0.2,0.2-0.2c0,0,0,0,0,0
						c0.1,0,0.2,0.1,0.2,0.2l0,0.5C36.4,41.3,36.3,41.4,36.2,41.4z M37.8,41.4C37.8,41.4,37.8,41.4,37.8,41.4
						c-0.1,0-0.2-0.1-0.2-0.2l0-0.5c0-0.1,0.1-0.2,0.2-0.2c0,0,0,0,0,0c0.1,0,0.2,0.1,0.2,0.2l0,0.5C38,41.3,37.9,41.4,37.8,41.4z
						 M36.2,40.2C36.2,40.2,36.2,40.2,36.2,40.2c-0.1,0-0.2-0.1-0.2-0.2l0-0.5c0-0.1,0.1-0.2,0.2-0.2c0,0,0,0,0,0
						c0.1,0,0.2,0.1,0.2,0.2l0,0.5C36.4,40.1,36.3,40.2,36.2,40.2z M37.8,40.1C37.8,40.1,37.8,40.1,37.8,40.1
						c-0.1,0-0.2-0.1-0.2-0.2l0-0.5c0-0.1,0.1-0.2,0.2-0.2h0c0.1,0,0.2,0.1,0.2,0.2l0,0.5C38,40,38,40.1,37.8,40.1z M36.2,38.9
						L36.2,38.9c-0.1,0-0.2-0.1-0.2-0.2l0-0.5c0-0.1,0.1-0.2,0.2-0.2c0,0,0,0,0,0c0.1,0,0.2,0.1,0.2,0.2l0,0.5
						C36.4,38.8,36.3,38.9,36.2,38.9z M37.8,38.9C37.8,38.9,37.8,38.9,37.8,38.9c-0.1,0-0.2-0.1-0.2-0.2l0-0.5
						c0-0.1,0.1-0.2,0.2-0.2c0,0,0,0,0,0c0.1,0,0.2,0.1,0.2,0.2l0,0.5C38.1,38.8,38,38.9,37.8,38.9z M36.2,37.7
						C36.2,37.7,36.2,37.7,36.2,37.7c-0.1,0-0.2-0.1-0.2-0.2l0-0.5c0-0.1,0.1-0.2,0.2-0.2c0,0,0,0,0,0c0.1,0,0.2,0.1,0.2,0.2l0,0.5
						C36.4,37.6,36.3,37.7,36.2,37.7z M37.8,37.6C37.8,37.6,37.8,37.6,37.8,37.6c-0.1,0-0.2-0.1-0.2-0.2l0-0.5
						c0-0.1,0.1-0.2,0.2-0.2h0c0.1,0,0.2,0.1,0.2,0.2l0,0.5C38.1,37.6,38,37.6,37.8,37.6z M36.2,36.5C36.2,36.5,36.2,36.5,36.2,36.5
						c-0.1,0-0.2-0.1-0.2-0.2l0-0.5c0-0.1,0.1-0.2,0.2-0.2c0,0,0,0,0,0c0.1,0,0.2,0.1,0.2,0.2l0,0.5C36.4,36.4,36.3,36.5,36.2,36.5z
						 M37.8,36.4C37.8,36.4,37.8,36.4,37.8,36.4c-0.1,0-0.2-0.1-0.2-0.2l0-0.5c0-0.1,0.1-0.2,0.2-0.2c0,0,0,0,0,0
						c0.1,0,0.2,0.1,0.2,0.2l0,0.5C38.1,36.3,38,36.4,37.8,36.4z M36.2,35.2C36.2,35.2,36.2,35.2,36.2,35.2c-0.1,0-0.2-0.1-0.2-0.2
						l0-0.5c0-0.1,0.1-0.2,0.2-0.2c0,0,0,0,0,0c0.1,0,0.2,0.1,0.2,0.2l0,0.5C36.4,35.1,36.3,35.2,36.2,35.2z M37.8,35.2L37.8,35.2
						c-0.1,0-0.2-0.1-0.2-0.2l0-0.5c0-0.1,0.1-0.2,0.2-0.2h0c0.1,0,0.2,0.1,0.2,0.2l0,0.5C38.1,35.1,38,35.2,37.8,35.2z M37.4,34.2
						c0,0-0.1,0-0.1,0l-0.4-0.2c-0.1-0.1-0.1-0.2-0.1-0.3c0.1-0.1,0.2-0.1,0.3-0.1l0.4,0.2c0.1,0.1,0.1,0.2,0.1,0.3
						C37.6,34.1,37.5,34.2,37.4,34.2z M36.2,34C36.2,34,36.2,34,36.2,34c-0.1,0-0.2-0.1-0.2-0.2l0-0.5c0-0.1,0-0.1,0.1-0.2
						c0.1,0,0.1,0,0.2,0l0.2,0.1c0.1,0.1,0.1,0.2,0.1,0.3c0,0.1-0.1,0.1-0.1,0.1l0,0.2C36.4,33.9,36.3,34,36.2,34z"/>
				</g>
			</g>
			<g>
				<g>
					<polygon fill="#FFFFFF" points="37.8,34.2 39.4,33.3 37.8,32.4 36.2,33.3 					"/>
					<path fill="#231F20" d="M37.8,34.4c-0.1,0-0.2,0-0.2-0.1c-0.1-0.1,0-0.2,0.1-0.3l0.4-0.2c0.1-0.1,0.2,0,0.3,0.1
						c0.1,0.1,0,0.2-0.1,0.3L38,34.4C37.9,34.4,37.9,34.4,37.8,34.4z M37.2,34c0,0-0.1,0-0.1,0l-0.4-0.2c-0.1-0.1-0.1-0.2-0.1-0.3
						c0.1-0.1,0.2-0.1,0.3-0.1l0.4,0.2c0.1,0.1,0.1,0.2,0.1,0.3C37.4,34,37.3,34,37.2,34z M38.9,33.8c-0.1,0-0.2,0-0.2-0.1
						c-0.1-0.1,0-0.2,0.1-0.3l0.4-0.2c0.1-0.1,0.2,0,0.3,0.1c0.1,0.1,0,0.2-0.1,0.3L39,33.7C39,33.8,39,33.8,38.9,33.8z M36.2,33.5
						c-0.1,0-0.2,0-0.2-0.1c-0.1-0.1,0-0.2,0.1-0.3l0.4-0.2c0.1-0.1,0.2,0,0.3,0.1c0.1,0.1,0,0.2-0.1,0.3l-0.4,0.2
						C36.3,33.4,36.3,33.5,36.2,33.5z M38.8,33.2c0,0-0.1,0-0.1,0l-0.4-0.2c-0.1-0.1-0.1-0.2-0.1-0.3c0.1-0.1,0.2-0.1,0.3-0.1
						l0.4,0.2c0.1,0.1,0.1,0.2,0.1,0.3C39,33.1,38.9,33.2,38.8,33.2z M37.3,32.9c-0.1,0-0.2,0-0.2-0.1c-0.1-0.1,0-0.2,0.1-0.3
						l0.4-0.2c0.1-0.1,0.2,0,0.3,0.1c0.1,0.1,0,0.2-0.1,0.3l-0.4,0.2C37.4,32.8,37.4,32.9,37.3,32.9z"/>
				</g>
			</g>
		</g>
		<g>
			<g>
				<g>
					<polygon fill="#FFFFFF" points="27.5,26.4 29.1,25.5 29.2,14.8 27.6,15.7 					"/>
					<path fill="#231F20" d="M27.5,26.6c0,0-0.1,0-0.1,0c-0.1,0-0.1-0.1-0.1-0.2l0-0.3c0-0.1,0.1-0.2,0.2-0.2c0,0,0,0,0,0
						c0.1,0,0.2,0.1,0.2,0.2l0.1-0.1c0.1-0.1,0.2,0,0.3,0.1c0.1,0.1,0,0.2-0.1,0.3l-0.4,0.2C27.6,26.6,27.6,26.6,27.5,26.6z
						 M28.6,26c-0.1,0-0.2,0-0.2-0.1c-0.1-0.1,0-0.2,0.1-0.3l0.4-0.2c0.1-0.1,0.2,0,0.3,0.1c0.1,0.1,0,0.2-0.1,0.3L28.7,26
						C28.7,26,28.6,26,28.6,26z M27.5,25.5L27.5,25.5c-0.1,0-0.2-0.1-0.2-0.2l0-0.5c0-0.1,0.1-0.2,0.2-0.2h0c0.1,0,0.2,0.1,0.2,0.2
						l0,0.5C27.7,25.4,27.6,25.5,27.5,25.5z M29.1,25.1L29.1,25.1c-0.1,0-0.2-0.1-0.2-0.2l0-0.5c0-0.1,0.1-0.2,0.2-0.2c0,0,0,0,0,0
						c0.1,0,0.2,0.1,0.2,0.2l0,0.5C29.3,25,29.2,25.1,29.1,25.1z M27.5,24.3L27.5,24.3c-0.1,0-0.2-0.1-0.2-0.2l0-0.5
						c0-0.1,0.1-0.2,0.2-0.2c0,0,0,0,0,0c0.1,0,0.2,0.1,0.2,0.2l0,0.5C27.7,24.2,27.6,24.3,27.5,24.3z M29.1,23.8L29.1,23.8
						c-0.1,0-0.2-0.1-0.2-0.2l0-0.5c0-0.1,0.1-0.2,0.2-0.2c0,0,0,0,0,0c0.1,0,0.2,0.1,0.2,0.2l0,0.5C29.4,23.7,29.3,23.8,29.1,23.8z
						 M27.5,23.1L27.5,23.1c-0.1,0-0.2-0.1-0.2-0.2l0-0.5c0-0.1,0.1-0.2,0.2-0.2h0c0.1,0,0.2,0.1,0.2,0.2l0,0.5
						C27.7,23,27.6,23.1,27.5,23.1z M29.1,22.6L29.1,22.6c-0.1,0-0.2-0.1-0.2-0.2l0-0.5c0-0.1,0.1-0.2,0.2-0.2c0,0,0,0,0,0
						c0.1,0,0.2,0.1,0.2,0.2l0,0.5C29.4,22.5,29.3,22.6,29.1,22.6z M27.5,21.8L27.5,21.8c-0.1,0-0.2-0.1-0.2-0.2l0-0.5
						c0-0.1,0.1-0.2,0.2-0.2h0c0.1,0,0.2,0.1,0.2,0.2l0,0.5C27.8,21.7,27.7,21.8,27.5,21.8z M29.1,21.3L29.1,21.3
						c-0.1,0-0.2-0.1-0.2-0.2l0-0.5c0-0.1,0.1-0.2,0.2-0.2c0,0,0,0,0,0c0.1,0,0.2,0.1,0.2,0.2l0,0.5C29.4,21.2,29.3,21.3,29.1,21.3z
						 M27.5,20.6L27.5,20.6c-0.1,0-0.2-0.1-0.2-0.2l0-0.5c0-0.1,0.1-0.2,0.2-0.2h0c0.1,0,0.2,0.1,0.2,0.2l0,0.5
						C27.8,20.5,27.7,20.6,27.5,20.6z M29.1,20.1L29.1,20.1c-0.1,0-0.2-0.1-0.2-0.2l0-0.5c0-0.1,0.1-0.2,0.2-0.2c0,0,0,0,0,0
						c0.1,0,0.2,0.1,0.2,0.2l0,0.5C29.4,20,29.3,20.1,29.1,20.1z M27.5,19.3L27.5,19.3c-0.1,0-0.2-0.1-0.2-0.2l0-0.5
						c0-0.1,0.1-0.2,0.2-0.2c0,0,0,0,0,0c0.1,0,0.2,0.1,0.2,0.2l0,0.5C27.8,19.2,27.7,19.3,27.5,19.3z M29.2,18.9L29.2,18.9
						c-0.1,0-0.2-0.1-0.2-0.2l0-0.5c0-0.1,0.1-0.2,0.2-0.2c0,0,0,0,0,0c0.1,0,0.2,0.1,0.2,0.2l0,0.5C29.4,18.8,29.3,18.9,29.2,18.9z
						 M27.5,18.1L27.5,18.1c-0.1,0-0.2-0.1-0.2-0.2l0-0.5c0-0.1,0.1-0.2,0.2-0.2h0c0.1,0,0.2,0.1,0.2,0.2l0,0.5
						C27.8,18,27.7,18.1,27.5,18.1z M29.2,17.6L29.2,17.6c-0.1,0-0.2-0.1-0.2-0.2l0-0.5c0-0.1,0.1-0.2,0.2-0.2c0,0,0,0,0,0
						c0.1,0,0.2,0.1,0.2,0.2l0,0.5C29.4,17.5,29.3,17.6,29.2,17.6z M27.5,16.9L27.5,16.9c-0.1,0-0.2-0.1-0.2-0.2l0-0.5
						c0-0.1,0.1-0.2,0.2-0.2c0,0,0,0,0,0c0.1,0,0.2,0.1,0.2,0.2l0,0.5C27.8,16.8,27.7,16.9,27.5,16.9z M29.2,16.4L29.2,16.4
						c-0.1,0-0.2-0.1-0.2-0.2l0-0.5c0-0.1,0.1-0.2,0.2-0.2c0,0,0,0,0,0c0.1,0,0.2,0.1,0.2,0.2l0,0.5C29.4,16.3,29.3,16.4,29.2,16.4z
						 M27.8,15.8c-0.1,0-0.2,0-0.2-0.1c-0.1-0.1,0-0.2,0.1-0.3l0.4-0.2c0.1-0.1,0.2,0,0.3,0.1c0.1,0.1,0,0.2-0.1,0.3l-0.4,0.2
						C27.9,15.7,27.8,15.8,27.8,15.8z M28.9,15.2c-0.1,0-0.2,0-0.2-0.1c-0.1-0.1,0-0.2,0.1-0.3l0.3-0.2c0.1,0,0.2,0,0.2,0
						c0.1,0,0.1,0.1,0.1,0.2l0,0.2c0,0.1-0.1,0.2-0.2,0.2c-0.1,0-0.1,0-0.1,0l-0.1,0C28.9,15.1,28.9,15.2,28.9,15.2z"/>
				</g>
			</g>
			<g>
				<polygon fill="#FFFFFF" points="27.6,38.2 15.6,31.3 15.6,33.2 15.6,33.2 15.6,33.2 15.6,33.3 15.6,33.3 15.6,47 17.2,47.9 
					17.3,34.3 25.9,39.3 25.9,43.6 27.5,44.5 27.6,40.1 27.6,40.1 				"/>
				<path fill="#231F20" d="M17.2,48.1c0,0-0.1,0-0.1,0l-0.3-0.2c-0.1-0.1-0.1-0.2-0.1-0.3c0.1-0.1,0.2-0.1,0.3-0.1l0.1,0.1
					c0,0,0.1,0,0.1,0c0.1,0,0.2,0.1,0.2,0.2l0,0.1c0,0.1,0,0.1-0.1,0.2C17.3,48.1,17.3,48.1,17.2,48.1z M16.2,47.6c0,0-0.1,0-0.1,0
					l-0.4-0.2c-0.1-0.1-0.1-0.2-0.1-0.3c0.1-0.1,0.2-0.1,0.3-0.1l0.4,0.2c0.1,0.1,0.1,0.2,0.1,0.3C16.4,47.5,16.3,47.6,16.2,47.6z
					 M17.2,47.2C17.2,47.2,17.2,47.2,17.2,47.2c-0.1,0-0.2-0.1-0.2-0.2l0-0.5c0-0.1,0.1-0.2,0.2-0.2h0c0.1,0,0.2,0.1,0.2,0.2l0,0.5
					C17.4,47.1,17.3,47.2,17.2,47.2z M15.6,46.7C15.6,46.7,15.6,46.7,15.6,46.7c-0.1,0-0.2-0.1-0.2-0.2l0-0.5c0-0.1,0.1-0.2,0.2-0.2
					c0.1,0,0.2,0.1,0.2,0.2l0,0.5C15.8,46.6,15.7,46.7,15.6,46.7z M17.2,46L17.2,46c-0.1,0-0.2-0.1-0.2-0.2l0-0.5
					c0-0.1,0.1-0.2,0.2-0.2h0c0.1,0,0.2,0.1,0.2,0.2l0,0.5C17.4,45.9,17.3,46,17.2,46z M15.6,45.5C15.6,45.5,15.6,45.5,15.6,45.5
					c-0.1,0-0.2-0.1-0.2-0.2l0-0.5c0-0.1,0.1-0.2,0.2-0.2c0,0,0,0,0,0c0.1,0,0.2,0.1,0.2,0.2l0,0.5C15.8,45.4,15.7,45.5,15.6,45.5z
					 M17.2,44.8C17.2,44.8,17.2,44.8,17.2,44.8c-0.1,0-0.2-0.1-0.2-0.2l0-0.5c0-0.1,0.1-0.2,0.2-0.2c0.1,0,0.2,0.1,0.2,0.2l0,0.5
					C17.4,44.7,17.4,44.8,17.2,44.8z M27.5,44.7c0,0-0.1,0-0.1,0l-0.3-0.2C27,44.4,27,44.3,27,44.2c0.1-0.1,0.2-0.1,0.3-0.1l0.1,0
					c0,0,0.1,0,0.1,0c0.1,0,0.2,0.1,0.2,0.2l0,0.2c0,0.1,0,0.1-0.1,0.2C27.6,44.7,27.6,44.7,27.5,44.7z M15.6,44.2L15.6,44.2
					c-0.1,0-0.2-0.1-0.2-0.2l0-0.5c0-0.1,0.1-0.2,0.2-0.2h0c0.1,0,0.2,0.1,0.2,0.2l0,0.5C15.8,44.1,15.7,44.2,15.6,44.2z M26.6,44.2
					c0,0-0.1,0-0.1,0L26,43.9c-0.1-0.1-0.1-0.2-0.1-0.3c0.1-0.1,0.2-0.1,0.3-0.1l0.4,0.2c0.1,0.1,0.1,0.2,0.1,0.3
					C26.7,44.1,26.6,44.2,26.6,44.2z M27.5,43.8C27.5,43.8,27.5,43.8,27.5,43.8c-0.1,0-0.2-0.1-0.2-0.2l0-0.5c0-0.1,0.1-0.2,0.2-0.2
					c0,0,0,0,0,0c0.1,0,0.2,0.1,0.2,0.2l0,0.5C27.7,43.7,27.6,43.8,27.5,43.8z M17.2,43.5L17.2,43.5c-0.1,0-0.2-0.1-0.2-0.2l0-0.5
					c0-0.1,0.1-0.2,0.2-0.2h0c0.1,0,0.2,0.1,0.2,0.2l0,0.5C17.5,43.4,17.4,43.5,17.2,43.5z M25.9,43.4
					C25.9,43.4,25.9,43.4,25.9,43.4c-0.1,0-0.2-0.1-0.2-0.2l0-0.5c0-0.1,0.1-0.2,0.2-0.2c0,0,0,0,0,0c0.1,0,0.2,0.1,0.2,0.2l0,0.5
					C26.1,43.3,26,43.4,25.9,43.4z M15.6,43C15.6,43,15.6,43,15.6,43c-0.1,0-0.2-0.1-0.2-0.2l0-0.5c0-0.1,0.1-0.2,0.2-0.2h0
					c0.1,0,0.2,0.1,0.2,0.2l0,0.5C15.8,42.9,15.7,43,15.6,43z M27.5,42.6C27.5,42.6,27.5,42.6,27.5,42.6c-0.1,0-0.2-0.1-0.2-0.2
					l0-0.5c0-0.1,0.1-0.2,0.2-0.2c0.1,0,0.2,0.1,0.2,0.2l0,0.5C27.8,42.5,27.7,42.6,27.5,42.6z M17.2,42.3L17.2,42.3
					c-0.1,0-0.2-0.1-0.2-0.2l0-0.5c0-0.1,0.1-0.2,0.2-0.2h0c0.1,0,0.2,0.1,0.2,0.2l0,0.5C17.5,42.2,17.4,42.3,17.2,42.3z M25.9,42.1
					C25.9,42.1,25.9,42.1,25.9,42.1c-0.1,0-0.2-0.1-0.2-0.2l0-0.5c0-0.1,0.1-0.2,0.2-0.2c0,0,0,0,0,0c0.1,0,0.2,0.1,0.2,0.2l0,0.5
					C26.1,42,26,42.1,25.9,42.1z M15.6,41.8L15.6,41.8c-0.1,0-0.2-0.1-0.2-0.2l0-0.5c0-0.1,0.1-0.2,0.2-0.2h0c0.1,0,0.2,0.1,0.2,0.2
					l0,0.5C15.8,41.7,15.7,41.8,15.6,41.8z M27.6,41.3C27.6,41.3,27.5,41.3,27.6,41.3c-0.1,0-0.2-0.1-0.2-0.2l0-0.5
					c0-0.1,0.1-0.2,0.2-0.2c0.1,0,0.2,0.1,0.2,0.2l0,0.5C27.8,41.2,27.7,41.3,27.6,41.3z M17.2,41L17.2,41c-0.1,0-0.2-0.1-0.2-0.2
					l0-0.5c0-0.1,0.1-0.2,0.2-0.2h0c0.1,0,0.2,0.1,0.2,0.2l0,0.5C17.5,40.9,17.4,41,17.2,41z M25.9,40.9
					C25.9,40.9,25.9,40.9,25.9,40.9c-0.1,0-0.2-0.1-0.2-0.2l0-0.5c0-0.1,0.1-0.2,0.2-0.2c0.1,0,0.2,0.1,0.2,0.2l0,0.5
					C26.1,40.8,26,40.9,25.9,40.9z M15.6,40.5L15.6,40.5c-0.1,0-0.2-0.1-0.2-0.2l0-0.5c0-0.1,0.1-0.2,0.2-0.2h0
					c0.1,0,0.2,0.1,0.2,0.2l0,0.5C15.8,40.4,15.7,40.5,15.6,40.5z M27.6,40.1C27.6,40.1,27.6,40.1,27.6,40.1c-0.1,0-0.2-0.1-0.2-0.2
					l0-0.5c0-0.1,0.1-0.2,0.2-0.2c0.1,0,0.2,0.1,0.2,0.2l0,0.5C27.8,40,27.7,40.1,27.6,40.1z M17.2,39.8L17.2,39.8
					c-0.1,0-0.2-0.1-0.2-0.2l0-0.5c0-0.1,0.1-0.2,0.2-0.2h0c0.1,0,0.2,0.1,0.2,0.2l0,0.5C17.5,39.7,17.4,39.8,17.2,39.8z M25.9,39.6
					C25.9,39.6,25.9,39.6,25.9,39.6c-0.1,0-0.2-0.1-0.2-0.2l-0.2-0.1c-0.1-0.1-0.1-0.2-0.1-0.3c0.1-0.1,0.2-0.1,0.3-0.1l0.3,0.2
					c0.1,0,0.1,0.1,0.1,0.2l0,0.1C26.1,39.5,26,39.6,25.9,39.6z M15.6,39.3L15.6,39.3c-0.1,0-0.2-0.1-0.2-0.2l0-0.5
					c0-0.1,0.1-0.2,0.2-0.2c0.1,0,0.2,0.1,0.2,0.2l0,0.5C15.8,39.2,15.7,39.3,15.6,39.3z M24.9,39c0,0-0.1,0-0.1,0l-0.4-0.2
					c-0.1-0.1-0.1-0.2-0.1-0.3c0.1-0.1,0.2-0.1,0.3-0.1l0.4,0.2c0.1,0.1,0.1,0.2,0.1,0.3C25.1,38.9,25,39,24.9,39z M27.6,38.8
					C27.6,38.8,27.6,38.8,27.6,38.8c-0.1,0-0.2-0.1-0.2-0.2l0-0.3L27,38.1c-0.1-0.1-0.1-0.2-0.1-0.3c0.1-0.1,0.2-0.1,0.3-0.1
					l0.4,0.2c0.1,0,0.1,0.1,0.1,0.2l0,0.4C27.8,38.7,27.7,38.8,27.6,38.8z M17.2,38.6L17.2,38.6c-0.1,0-0.2-0.1-0.2-0.2l0-0.5
					c0-0.1,0.1-0.2,0.2-0.2h0c0.1,0,0.2,0.1,0.2,0.2l0,0.5C17.5,38.5,17.4,38.6,17.2,38.6z M23.9,38.3c0,0-0.1,0-0.1,0l-0.4-0.2
					c-0.1-0.1-0.1-0.2-0.1-0.3c0.1-0.1,0.2-0.1,0.3-0.1l0.4,0.2c0.1,0.1,0.1,0.2,0.1,0.3C24,38.3,23.9,38.3,23.9,38.3z M15.6,38
					L15.6,38c-0.1,0-0.2-0.1-0.2-0.2l0-0.5c0-0.1,0.1-0.2,0.2-0.2h0c0.1,0,0.2,0.1,0.2,0.2l0,0.5C15.8,37.9,15.7,38,15.6,38z
					 M26.5,37.8c0,0-0.1,0-0.1,0L26,37.5c-0.1-0.1-0.1-0.2-0.1-0.3c0.1-0.1,0.2-0.1,0.3-0.1l0.4,0.2c0.1,0.1,0.1,0.2,0.1,0.3
					C26.6,37.7,26.6,37.8,26.5,37.8z M22.8,37.7c0,0-0.1,0-0.1,0l-0.4-0.2c-0.1-0.1-0.1-0.2-0.1-0.3c0.1-0.1,0.2-0.1,0.3-0.1
					l0.4,0.2c0.1,0.1,0.1,0.2,0.1,0.3C22.9,37.7,22.9,37.7,22.8,37.7z M17.3,37.3L17.3,37.3c-0.1,0-0.2-0.1-0.2-0.2l0-0.5
					c0-0.1,0.1-0.2,0.2-0.2h0c0.1,0,0.2,0.1,0.2,0.2l0,0.5C17.5,37.2,17.4,37.3,17.3,37.3z M25.4,37.2c0,0-0.1,0-0.1,0l-0.4-0.2
					c-0.1-0.1-0.1-0.2-0.1-0.3c0.1-0.1,0.2-0.1,0.3-0.1l0.4,0.2c0.1,0.1,0.1,0.2,0.1,0.3C25.6,37.1,25.5,37.2,25.4,37.2z M21.7,37.1
					c0,0-0.1,0-0.1,0l-0.4-0.2c-0.1-0.1-0.1-0.2-0.1-0.3c0.1-0.1,0.2-0.1,0.3-0.1l0.4,0.2c0.1,0.1,0.1,0.2,0.1,0.3
					C21.9,37.1,21.8,37.1,21.7,37.1z M15.6,36.8L15.6,36.8c-0.1,0-0.2-0.1-0.2-0.2l0-0.5c0-0.1,0.1-0.2,0.2-0.2h0
					c0.1,0,0.2,0.1,0.2,0.2l0,0.5C15.8,36.7,15.7,36.8,15.6,36.8z M24.3,36.5c0,0-0.1,0-0.1,0l-0.4-0.2c-0.1-0.1-0.1-0.2-0.1-0.3
					c0.1-0.1,0.2-0.1,0.3-0.1l0.4,0.2c0.1,0.1,0.1,0.2,0.1,0.3C24.5,36.5,24.4,36.5,24.3,36.5z M20.6,36.5c0,0-0.1,0-0.1,0l-0.4-0.2
					C20,36.1,20,36,20,35.9c0.1-0.1,0.2-0.1,0.3-0.1l0.4,0.2c0.1,0.1,0.1,0.2,0.1,0.3C20.8,36.4,20.7,36.5,20.6,36.5z M17.3,36.1
					L17.3,36.1c-0.1,0-0.2-0.1-0.2-0.2l0-0.5c0-0.1,0.1-0.2,0.2-0.2h0c0.1,0,0.2,0.1,0.2,0.2l0,0.5C17.5,36,17.4,36.1,17.3,36.1z
					 M23.3,35.9c0,0-0.1,0-0.1,0l-0.4-0.2c-0.1-0.1-0.1-0.2-0.1-0.3c0.1-0.1,0.2-0.1,0.3-0.1l0.4,0.2c0.1,0.1,0.1,0.2,0.1,0.3
					C23.4,35.9,23.3,35.9,23.3,35.9z M19.6,35.9c0,0-0.1,0-0.1,0L19,35.6c-0.1-0.1-0.1-0.2-0.1-0.3c0.1-0.1,0.2-0.1,0.3-0.1l0.4,0.2
					c0.1,0.1,0.1,0.2,0.1,0.3C19.7,35.8,19.6,35.9,19.6,35.9z M15.6,35.6L15.6,35.6c-0.1,0-0.2-0.1-0.2-0.2l0-0.5
					c0-0.1,0.1-0.2,0.2-0.2h0c0.1,0,0.2,0.1,0.2,0.2l0,0.5C15.8,35.5,15.7,35.6,15.6,35.6z M22.2,35.3c0,0-0.1,0-0.1,0L21.7,35
					c-0.1-0.1-0.1-0.2-0.1-0.3c0.1-0.1,0.2-0.1,0.3-0.1l0.4,0.2c0.1,0.1,0.1,0.2,0.1,0.3C22.3,35.3,22.3,35.3,22.2,35.3z M18.5,35.2
					c0,0-0.1,0-0.1,0L18,35c-0.1-0.1-0.1-0.2-0.1-0.3c0.1-0.1,0.2-0.1,0.3-0.1l0.4,0.2c0.1,0.1,0.1,0.2,0.1,0.3
					C18.6,35.2,18.6,35.2,18.5,35.2z M17.3,34.8L17.3,34.8c-0.1,0-0.2-0.1-0.2-0.2l0-0.3c0-0.1,0-0.2,0.1-0.2c0.1,0,0.2,0,0.2,0
					l0.2,0.1c0.1,0.1,0.1,0.2,0.1,0.3c0,0.1-0.1,0.1-0.1,0.1l0,0C17.5,34.7,17.4,34.8,17.3,34.8z M21.1,34.7c0,0-0.1,0-0.1,0
					l-0.4-0.2c-0.1-0.1-0.1-0.2-0.1-0.3c0.1-0.1,0.2-0.1,0.3-0.1l0.4,0.2c0.1,0.1,0.1,0.2,0.1,0.3C21.3,34.6,21.2,34.7,21.1,34.7z
					 M15.6,34.3L15.6,34.3c-0.1,0-0.2-0.1-0.2-0.2l0-0.5c0-0.1,0.1-0.2,0.2-0.2h0c0.1,0,0.2,0.1,0.2,0.2l0,0.5
					C15.8,34.2,15.7,34.3,15.6,34.3z M20,34.1c0,0-0.1,0-0.1,0l-0.4-0.2c-0.1-0.1-0.1-0.2-0.1-0.3c0.1-0.1,0.2-0.1,0.3-0.1l0.4,0.2
					c0.1,0.1,0.1,0.2,0.1,0.3C20.2,34,20.1,34.1,20,34.1z M19,33.4c0,0-0.1,0-0.1,0l-0.4-0.2c-0.1-0.1-0.1-0.2-0.1-0.3
					c0.1-0.1,0.2-0.1,0.3-0.1l0.4,0.2c0.1,0.1,0.1,0.2,0.1,0.3C19.1,33.4,19.1,33.4,19,33.4z M15.6,33.1L15.6,33.1
					c-0.1,0-0.2-0.1-0.2-0.2l0-0.5c0-0.1,0.1-0.2,0.2-0.2h0c0.1,0,0.2,0.1,0.2,0.2l0,0.5C15.8,33,15.7,33.1,15.6,33.1z M17.9,32.8
					c0,0-0.1,0-0.1,0l-0.4-0.2c-0.1-0.1-0.1-0.2-0.1-0.3c0.1-0.1,0.2-0.1,0.3-0.1l0.4,0.2c0.1,0.1,0.1,0.2,0.1,0.3
					C18.1,32.8,18,32.8,17.9,32.8z M16.8,32.2c0,0-0.1,0-0.1,0l-0.4-0.2c-0.1-0.1-0.1-0.2-0.1-0.3c0.1-0.1,0.2-0.1,0.3-0.1l0.4,0.2
					c0.1,0.1,0.1,0.2,0.1,0.3C17,32.2,16.9,32.2,16.8,32.2z M15.6,31.9L15.6,31.9c-0.1,0-0.2-0.1-0.2-0.2l0-0.4c0-0.1,0-0.1,0.1-0.2
					c0.1,0,0.2,0,0.2,0l0.1,0.1c0.1,0.1,0.1,0.2,0.1,0.3c0,0-0.1,0.1-0.1,0.1l0,0.1C15.8,31.8,15.8,31.9,15.6,31.9z"/>
			</g>
		</g>
		<g>
			<g enable-background="new    ">
				<g>
					<polygon fill="#FFFFFF" points="25.9,8.9 25.9,14.8 25.9,14.8 25.8,25.5 27.5,26.4 27.5,20.6 36.2,25.6 36.2,31.6 37.8,32.5 
						37.8,26.5 37.8,26.5 37.8,15.8 					"/>
					<path fill="#231F20" d="M37.8,32.6L37.8,32.6c-0.1,0-0.2-0.1-0.2-0.2l0-0.5c0-0.1,0.1-0.2,0.2-0.2h0c0.1,0,0.2,0.1,0.2,0.2
						l0,0.5C38,32.5,37.9,32.6,37.8,32.6z M37.2,32.4c0,0-0.1,0-0.1,0l-0.4-0.2c-0.1-0.1-0.1-0.2-0.1-0.3c0.1-0.1,0.2-0.1,0.3-0.1
						l0.4,0.2c0.1,0.1,0.1,0.2,0.1,0.3C37.4,32.3,37.3,32.4,37.2,32.4z M36.2,31.8L36.2,31.8c-0.1,0-0.2-0.1-0.2-0.2l0-0.5
						c0-0.1,0.1-0.2,0.2-0.2h0c0.1,0,0.2,0.1,0.2,0.2l0,0.5C36.4,31.7,36.3,31.8,36.2,31.8z M37.8,31.4L37.8,31.4
						c-0.1,0-0.2-0.1-0.2-0.2l0-0.5c0-0.1,0.1-0.2,0.2-0.2h0c0.1,0,0.2,0.1,0.2,0.2l0,0.5C38,31.3,37.9,31.4,37.8,31.4z M36.2,30.5
						C36.2,30.5,36.2,30.5,36.2,30.5c-0.1,0-0.2-0.1-0.2-0.2l0-0.5c0-0.1,0.1-0.2,0.2-0.2c0.1,0,0.2,0.1,0.2,0.2l0,0.5
						C36.4,30.4,36.3,30.5,36.2,30.5z M37.8,30.1L37.8,30.1c-0.1,0-0.2-0.1-0.2-0.2l0-0.5c0-0.1,0.1-0.2,0.2-0.2h0
						c0.1,0,0.2,0.1,0.2,0.2l0,0.5C38,30,37.9,30.1,37.8,30.1z M36.2,29.3L36.2,29.3c-0.1,0-0.2-0.1-0.2-0.2l0-0.5
						c0-0.1,0.1-0.2,0.2-0.2h0c0.1,0,0.2,0.1,0.2,0.2l0,0.5C36.4,29.2,36.3,29.3,36.2,29.3z M37.8,28.9L37.8,28.9
						c-0.1,0-0.2-0.1-0.2-0.2l0-0.5c0-0.1,0.1-0.2,0.2-0.2h0c0.1,0,0.2,0.1,0.2,0.2l0,0.5C38,28.8,37.9,28.9,37.8,28.9z M36.2,28.1
						C36.2,28.1,36.2,28.1,36.2,28.1c-0.1,0-0.2-0.1-0.2-0.2l0-0.5c0-0.1,0.1-0.2,0.2-0.2h0c0.1,0,0.2,0.1,0.2,0.2l0,0.5
						C36.4,28,36.3,28.1,36.2,28.1z M37.8,27.7L37.8,27.7c-0.1,0-0.2-0.1-0.2-0.2l0-0.5c0-0.1,0.1-0.2,0.2-0.2l0,0
						c0.1,0,0.2,0.1,0.2,0.2l0,0.5C38,27.6,37.9,27.7,37.8,27.7z M36.2,26.8L36.2,26.8c-0.1,0-0.2-0.1-0.2-0.2l0-0.5
						c0-0.1,0.1-0.2,0.2-0.2h0c0.1,0,0.2,0.1,0.2,0.2l0,0.5C36.4,26.7,36.3,26.8,36.2,26.8z M37.8,26.4c-0.1,0-0.2-0.1-0.2-0.2v-0.5
						c0-0.1,0.1-0.2,0.2-0.2s0.2,0.1,0.2,0.2v0.5C38,26.3,37.9,26.4,37.8,26.4z M27.5,26.4L27.5,26.4c-0.1,0-0.2-0.1-0.2-0.2l0-0.5
						c0-0.1,0.1-0.2,0.2-0.2c0,0,0,0,0,0c0.1,0,0.2,0.1,0.2,0.2l0,0.5C27.7,26.3,27.6,26.4,27.5,26.4z M27,26.3c0,0-0.1,0-0.1,0
						l-0.4-0.2c-0.1-0.1-0.1-0.2-0.1-0.3c0.1-0.1,0.2-0.1,0.3-0.1l0.4,0.2c0.1,0.1,0.1,0.2,0.1,0.3C27.1,26.3,27,26.3,27,26.3z
						 M25.9,25.7c0,0-0.1,0-0.1,0l-0.1,0c-0.1,0-0.1-0.1-0.1-0.2l0-0.4c0-0.1,0.1-0.2,0.2-0.2h0c0.1,0,0.2,0.1,0.2,0.2l0,0.3
						c0.1,0.1,0.1,0.2,0,0.3C26,25.7,26,25.7,25.9,25.7z M36,25.7c0,0-0.1,0-0.1,0l-0.4-0.2c-0.1-0.1-0.1-0.2-0.1-0.3
						c0.1-0.1,0.2-0.1,0.3-0.1l0.4,0.2c0.1,0.1,0.1,0.2,0.1,0.3C36.1,25.7,36,25.7,36,25.7z M37.8,25.2c-0.1,0-0.2-0.1-0.2-0.2v-0.5
						c0-0.1,0.1-0.2,0.2-0.2s0.2,0.1,0.2,0.2V25C38,25.1,37.9,25.2,37.8,25.2z M27.5,25.2C27.5,25.2,27.5,25.2,27.5,25.2
						c-0.1,0-0.2-0.1-0.2-0.2l0-0.5c0-0.1,0.1-0.2,0.2-0.2c0.1,0,0.2,0.1,0.2,0.2l0,0.5C27.7,25.1,27.6,25.2,27.5,25.2z M34.9,25.1
						c0,0-0.1,0-0.1,0l-0.4-0.2c-0.1-0.1-0.1-0.2-0.1-0.3c0.1-0.1,0.2-0.1,0.3-0.1l0.4,0.2c0.1,0.1,0.1,0.2,0.1,0.3
						C35,25,35,25.1,34.9,25.1z M25.8,24.5L25.8,24.5c-0.1,0-0.2-0.1-0.2-0.2l0-0.5c0-0.1,0.1-0.2,0.2-0.2h0c0.1,0,0.2,0.1,0.2,0.2
						l0,0.5C26,24.4,25.9,24.5,25.8,24.5z M33.8,24.5c0,0-0.1,0-0.1,0l-0.4-0.2c-0.1-0.1-0.1-0.2-0.1-0.3c0.1-0.1,0.2-0.1,0.3-0.1
						l0.4,0.2c0.1,0.1,0.1,0.2,0.1,0.3C34,24.4,33.9,24.5,33.8,24.5z M37.8,24c-0.1,0-0.2-0.1-0.2-0.2v-0.5c0-0.1,0.1-0.2,0.2-0.2
						s0.2,0.1,0.2,0.2v0.5C38,23.9,37.9,24,37.8,24z M27.5,23.9L27.5,23.9c-0.1,0-0.2-0.1-0.2-0.2l0-0.5c0-0.1,0.1-0.2,0.2-0.2
						c0,0,0,0,0,0c0.1,0,0.2,0.1,0.2,0.2l0,0.5C27.7,23.8,27.6,23.9,27.5,23.9z M32.7,23.8c0,0-0.1,0-0.1,0l-0.4-0.2
						c-0.1-0.1-0.1-0.2-0.1-0.3c0.1-0.1,0.2-0.1,0.3-0.1l0.4,0.2c0.1,0.1,0.1,0.2,0.1,0.3C32.9,23.8,32.8,23.8,32.7,23.8z
						 M25.8,23.3C25.8,23.3,25.8,23.3,25.8,23.3c-0.1,0-0.2-0.1-0.2-0.2l0-0.5c0-0.1,0.1-0.2,0.2-0.2h0c0.1,0,0.2,0.1,0.2,0.2l0,0.5
						C26,23.2,25.9,23.3,25.8,23.3z M31.7,23.2c0,0-0.1,0-0.1,0L31.1,23C31,22.9,31,22.8,31,22.7c0.1-0.1,0.2-0.1,0.3-0.1l0.4,0.2
						c0.1,0.1,0.1,0.2,0.1,0.3C31.8,23.2,31.7,23.2,31.7,23.2z M37.8,22.7c-0.1,0-0.2-0.1-0.2-0.2V22c0-0.1,0.1-0.2,0.2-0.2
						S38,21.9,38,22v0.5C38,22.6,37.9,22.7,37.8,22.7z M27.5,22.7C27.5,22.7,27.5,22.7,27.5,22.7c-0.1,0-0.2-0.1-0.2-0.2l0-0.5
						c0-0.1,0.1-0.2,0.2-0.2c0,0,0,0,0,0c0.1,0,0.2,0.1,0.2,0.2l0,0.5C27.7,22.6,27.6,22.7,27.5,22.7z M30.6,22.6c0,0-0.1,0-0.1,0
						L30,22.3c-0.1-0.1-0.1-0.2-0.1-0.3c0.1-0.1,0.2-0.1,0.3-0.1l0.4,0.2c0.1,0.1,0.1,0.2,0.1,0.3C30.7,22.6,30.7,22.6,30.6,22.6z
						 M25.8,22L25.8,22c-0.1,0-0.2-0.1-0.2-0.2l0-0.5c0-0.1,0.1-0.2,0.2-0.2h0c0.1,0,0.2,0.1,0.2,0.2l0,0.5C26,22,25.9,22,25.8,22z
						 M29.5,22c0,0-0.1,0-0.1,0L29,21.7c-0.1-0.1-0.1-0.2-0.1-0.3c0.1-0.1,0.2-0.1,0.3-0.1l0.4,0.2c0.1,0.1,0.1,0.2,0.1,0.3
						C29.7,22,29.6,22,29.5,22z M37.8,21.5c-0.1,0-0.2-0.1-0.2-0.2v-0.5c0-0.1,0.1-0.2,0.2-0.2s0.2,0.1,0.2,0.2v0.5
						C38,21.4,37.9,21.5,37.8,21.5z M27.5,21.5C27.5,21.5,27.5,21.5,27.5,21.5c-0.1,0-0.2-0.1-0.2-0.2l0-0.5c0-0.1,0.1-0.2,0.2-0.2
						c0,0,0,0,0,0c0.1,0,0.2,0.1,0.2,0.2l0,0.5C27.7,21.4,27.6,21.5,27.5,21.5z M28.4,21.4c0,0-0.1,0-0.1,0l-0.4-0.2
						c-0.1-0.1-0.1-0.2-0.1-0.3c0.1-0.1,0.2-0.1,0.3-0.1l0.4,0.2c0.1,0.1,0.1,0.2,0.1,0.3C28.6,21.3,28.5,21.4,28.4,21.4z
						 M25.8,20.8C25.8,20.8,25.8,20.8,25.8,20.8c-0.1,0-0.2-0.1-0.2-0.2l0-0.5c0-0.1,0.1-0.2,0.2-0.2h0c0.1,0,0.2,0.1,0.2,0.2l0,0.5
						C26,20.7,26,20.8,25.8,20.8z M37.8,20.2c-0.1,0-0.2-0.1-0.2-0.2v-0.5c0-0.1,0.1-0.2,0.2-0.2s0.2,0.1,0.2,0.2V20
						C38,20.1,37.9,20.2,37.8,20.2z M25.8,19.6C25.8,19.6,25.8,19.6,25.8,19.6c-0.1,0-0.2-0.1-0.2-0.2l0-0.5c0-0.1,0.1-0.2,0.2-0.2
						h0c0.1,0,0.2,0.1,0.2,0.2l0,0.5C26.1,19.5,26,19.6,25.8,19.6z M37.8,19c-0.1,0-0.2-0.1-0.2-0.2v-0.5c0-0.1,0.1-0.2,0.2-0.2
						s0.2,0.1,0.2,0.2v0.5C38,18.9,37.9,19,37.8,19z M25.8,18.3C25.8,18.3,25.8,18.3,25.8,18.3c-0.1,0-0.2-0.1-0.2-0.2l0-0.5
						c0-0.1,0.1-0.2,0.2-0.2h0c0.1,0,0.2,0.1,0.2,0.2l0,0.5C26.1,18.2,26,18.3,25.8,18.3z M37.8,17.8c-0.1,0-0.2-0.1-0.2-0.2V17
						c0-0.1,0.1-0.2,0.2-0.2S38,16.9,38,17v0.5C38,17.7,37.9,17.8,37.8,17.8z M25.8,17.1C25.8,17.1,25.8,17.1,25.8,17.1
						c-0.1,0-0.2-0.1-0.2-0.2l0-0.5c0-0.1,0.1-0.2,0.2-0.2h0c0.1,0,0.2,0.1,0.2,0.2l0,0.5C26.1,17,26,17.1,25.8,17.1z M37.8,16.5
						c-0.1,0-0.2-0.1-0.2-0.2v-0.4c0-0.1,0-0.2,0-0.2c0.1-0.1,0.2-0.1,0.3-0.1l0,0c0.1,0,0.1,0.1,0.1,0.2v0.5
						C38,16.4,37.9,16.5,37.8,16.5z M25.8,15.8C25.8,15.8,25.8,15.8,25.8,15.8c-0.1,0-0.2-0.1-0.2-0.2l0-0.5c0-0.1,0.1-0.2,0.2-0.2
						h0c0.1,0,0.2,0.1,0.2,0.2l0,0.5C26.1,15.8,26,15.8,25.8,15.8z M37.1,15.7c0,0-0.1,0-0.1,0l-0.4-0.2c-0.1-0.1-0.1-0.2-0.1-0.3
						c0.1-0.1,0.2-0.1,0.3-0.1l0.4,0.2c0.1,0.1,0.1,0.2,0.1,0.3C37.3,15.6,37.2,15.7,37.1,15.7z M36.1,15c0,0-0.1,0-0.1,0l-0.4-0.2
						c-0.1-0.1-0.1-0.2-0.1-0.3c0.1-0.1,0.2-0.1,0.3-0.1l0.4,0.2c0.1,0.1,0.1,0.2,0.1,0.3C36.2,15,36.1,15,36.1,15z M25.9,14.6
						C25.9,14.6,25.9,14.6,25.9,14.6c-0.1,0-0.2-0.1-0.2-0.2l0-0.5c0-0.1,0.1-0.2,0.2-0.2c0,0,0,0,0,0c0.1,0,0.2,0.1,0.2,0.2l0,0.5
						C26.1,14.5,26,14.6,25.9,14.6z M35,14.4c0,0-0.1,0-0.1,0l-0.4-0.2c-0.1-0.1-0.1-0.2-0.1-0.3c0.1-0.1,0.2-0.1,0.3-0.1l0.4,0.2
						c0.1,0.1,0.1,0.2,0.1,0.3C35.1,14.4,35.1,14.4,35,14.4z M33.9,13.8c0,0-0.1,0-0.1,0l-0.4-0.2c-0.1-0.1-0.1-0.2-0.1-0.3
						c0.1-0.1,0.2-0.1,0.3-0.1l0.4,0.2c0.1,0.1,0.1,0.2,0.1,0.3C34.1,13.8,34,13.8,33.9,13.8z M25.9,13.4
						C25.9,13.4,25.9,13.4,25.9,13.4c-0.1,0-0.2-0.1-0.2-0.2l0-0.5c0-0.1,0.1-0.2,0.2-0.2h0c0.1,0,0.2,0.1,0.2,0.2l0,0.5
						C26.1,13.3,26,13.4,25.9,13.4z M32.8,13.2c0,0-0.1,0-0.1,0l-0.4-0.2c-0.1-0.1-0.1-0.2-0.1-0.3c0.1-0.1,0.2-0.1,0.3-0.1l0.4,0.2
						c0.1,0.1,0.1,0.2,0.1,0.3C33,13.1,32.9,13.2,32.8,13.2z M31.8,12.6c0,0-0.1,0-0.1,0l-0.4-0.2c-0.1-0.1-0.1-0.2-0.1-0.3
						c0.1-0.1,0.2-0.1,0.3-0.1l0.4,0.2c0.1,0.1,0.1,0.2,0.1,0.3C31.9,12.5,31.8,12.6,31.8,12.6z M25.9,12.1
						C25.9,12.1,25.9,12.1,25.9,12.1c-0.1,0-0.2-0.1-0.2-0.2l0-0.5c0-0.1,0.1-0.2,0.2-0.2c0,0,0,0,0,0c0.1,0,0.2,0.1,0.2,0.2l0,0.5
						C26.1,12,26,12.1,25.9,12.1z M30.7,11.9c0,0-0.1,0-0.1,0l-0.4-0.2c-0.1-0.1-0.1-0.2-0.1-0.3c0.1-0.1,0.2-0.1,0.3-0.1l0.4,0.2
						c0.1,0.1,0.1,0.2,0.1,0.3C30.8,11.9,30.8,11.9,30.7,11.9z M29.6,11.3c0,0-0.1,0-0.1,0L29.1,11C29,11,28.9,10.9,29,10.7
						c0.1-0.1,0.2-0.1,0.3-0.1l0.4,0.2c0.1,0.1,0.1,0.2,0.1,0.3C29.8,11.3,29.7,11.3,29.6,11.3z M25.9,10.9
						C25.9,10.9,25.9,10.9,25.9,10.9c-0.1,0-0.2-0.1-0.2-0.2l0-0.5c0-0.1,0.1-0.2,0.2-0.2c0,0,0,0,0,0c0.1,0,0.2,0.1,0.2,0.2l0,0.5
						C26.1,10.8,26,10.9,25.9,10.9z M28.5,10.7c0,0-0.1,0-0.1,0L28,10.4c-0.1-0.1-0.1-0.2-0.1-0.3C28,10,28.1,10,28.2,10l0.4,0.2
						c0.1,0.1,0.1,0.2,0.1,0.3C28.7,10.7,28.6,10.7,28.5,10.7z M27.5,10.1c0,0-0.1,0-0.1,0l-0.4-0.2c-0.1-0.1-0.1-0.2-0.1-0.3
						c0.1-0.1,0.2-0.1,0.3-0.1l0.4,0.2c0.1,0.1,0.1,0.2,0.1,0.3C27.6,10,27.5,10.1,27.5,10.1z M25.9,9.7C25.9,9.7,25.9,9.7,25.9,9.7
						c-0.1,0-0.2-0.1-0.2-0.2l0-0.5c0-0.1,0.1-0.2,0.2-0.2c0,0,0,0,0,0c0.1,0,0.1,0,0.2,0.1c0,0,0,0,0,0l0.4,0.2
						c0.1,0.1,0.1,0.2,0.1,0.3c-0.1,0.1-0.2,0.1-0.3,0.1l-0.2-0.1l0,0.1C26.1,9.6,26,9.7,25.9,9.7z"/>
				</g>
				<g>
					<polygon fill="#FFFFFF" points="39.4,19.2 39.4,14.9 37.8,15.8 37.8,26.5 37.8,26.5 37.8,32.2 27.6,38.2 27.6,40.2 27.6,40.2 
						27.5,44.5 29.1,43.6 29.2,39.3 37.8,34.3 37.8,47.9 39.4,47 39.4,33.3 39.4,33.3 39.4,33 39.4,31.3 39.4,19.2 					"/>
					<path fill="#231F20" d="M37.9,48c-0.1,0-0.2,0-0.2-0.1c-0.1-0.1,0-0.2,0.1-0.3l0.4-0.2c0.1-0.1,0.2,0,0.3,0.1
						c0.1,0.1,0,0.2-0.1,0.3L38,48C38,48,38,48,37.9,48z M37.8,47.5L37.8,47.5c-0.1,0-0.2-0.1-0.2-0.2l0-0.5c0-0.1,0.1-0.2,0.2-0.2
						h0c0.1,0,0.2,0.1,0.2,0.2l0,0.5C38,47.4,37.9,47.5,37.8,47.5z M39,47.4c-0.1,0-0.2,0-0.2-0.1c-0.1-0.1,0-0.2,0.1-0.3l0.3-0.2
						c0-0.1,0.1-0.1,0.2-0.1c0.1,0,0.2,0.1,0.2,0.2v0c0,0.1,0,0.2-0.1,0.2l-0.4,0.2C39.1,47.4,39.1,47.4,39,47.4z M39.4,46.4
						c-0.1,0-0.2-0.1-0.2-0.2v-0.5c0-0.1,0.1-0.2,0.2-0.2c0.1,0,0.2,0.1,0.2,0.2v0.5C39.6,46.3,39.5,46.4,39.4,46.4z M37.8,46.2
						L37.8,46.2c-0.1,0-0.2-0.1-0.2-0.2l0-0.5c0-0.1,0.1-0.2,0.2-0.2h0c0.1,0,0.2,0.1,0.2,0.2l0,0.5C38,46.2,37.9,46.2,37.8,46.2z
						 M39.4,45.2c-0.1,0-0.2-0.1-0.2-0.2v-0.5c0-0.1,0.1-0.2,0.2-0.2c0.1,0,0.2,0.1,0.2,0.2V45C39.6,45.1,39.5,45.2,39.4,45.2z
						 M37.8,45L37.8,45c-0.1,0-0.2-0.1-0.2-0.2l0-0.5c0-0.1,0.1-0.2,0.2-0.2h0c0.1,0,0.2,0.1,0.2,0.2l0,0.5C38,44.9,37.9,45,37.8,45
						z M27.7,44.6c-0.1,0-0.2,0-0.2-0.1c-0.1-0.1,0-0.2,0.1-0.3L28,44c0.1-0.1,0.2,0,0.3,0.1c0.1,0.1,0,0.2-0.1,0.3l-0.4,0.2
						C27.7,44.6,27.7,44.6,27.7,44.6z M27.5,44.1C27.5,44.1,27.5,44.1,27.5,44.1c-0.1,0-0.2-0.1-0.2-0.2l0-0.5
						c0-0.1,0.1-0.2,0.2-0.2c0,0,0,0,0,0c0.1,0,0.2,0.1,0.2,0.2l0,0.5C27.7,44,27.6,44.1,27.5,44.1z M28.7,44c-0.1,0-0.2,0-0.2-0.1
						c-0.1-0.1,0-0.2,0.1-0.3l0.3-0.2c0-0.1,0.1-0.1,0.2-0.1c0.1,0,0.2,0.1,0.2,0.2l0,0c0,0.1,0,0.2-0.1,0.2L28.8,44
						C28.8,44,28.8,44,28.7,44z M39.4,44c-0.1,0-0.2-0.1-0.2-0.2v-0.5c0-0.1,0.1-0.2,0.2-0.2c0.1,0,0.2,0.1,0.2,0.2v0.5
						C39.6,43.9,39.5,44,39.4,44z M37.8,43.8L37.8,43.8c-0.1,0-0.2-0.1-0.2-0.2l0-0.5c0-0.1,0.1-0.2,0.2-0.2h0
						c0.1,0,0.2,0.1,0.2,0.2l0,0.5C38,43.7,37.9,43.8,37.8,43.8z M29.1,43C29.1,43,29.1,43,29.1,43c-0.1,0-0.2-0.1-0.2-0.2l0-0.5
						c0-0.1,0.1-0.2,0.2-0.2c0,0,0,0,0,0c0.1,0,0.2,0.1,0.2,0.2l0,0.5C29.4,42.9,29.3,43,29.1,43z M27.5,42.9
						C27.5,42.9,27.5,42.9,27.5,42.9c-0.1,0-0.2-0.1-0.2-0.2l0-0.5c0-0.1,0.1-0.2,0.2-0.2c0,0,0,0,0,0c0.1,0,0.2,0.1,0.2,0.2l0,0.5
						C27.8,42.8,27.7,42.9,27.5,42.9z M39.4,42.7c-0.1,0-0.2-0.1-0.2-0.2V42c0-0.1,0.1-0.2,0.2-0.2c0.1,0,0.2,0.1,0.2,0.2v0.5
						C39.6,42.6,39.5,42.7,39.4,42.7z M37.8,42.5L37.8,42.5c-0.1,0-0.2-0.1-0.2-0.2l0-0.5c0-0.1,0.1-0.2,0.2-0.2h0
						c0.1,0,0.2,0.1,0.2,0.2l0,0.5C38,42.4,37.9,42.5,37.8,42.5z M29.2,41.8C29.2,41.8,29.1,41.8,29.2,41.8c-0.1,0-0.2-0.1-0.2-0.2
						l0-0.5c0-0.1,0.1-0.2,0.2-0.2c0.1,0,0.2,0.1,0.2,0.2l0,0.5C29.4,41.7,29.3,41.8,29.2,41.8z M27.5,41.6
						C27.5,41.6,27.5,41.6,27.5,41.6c-0.1,0-0.2-0.1-0.2-0.2l0-0.5c0-0.1,0.1-0.2,0.2-0.2c0,0,0,0,0,0c0.1,0,0.2,0.1,0.2,0.2l0,0.5
						C27.8,41.5,27.7,41.6,27.5,41.6z M39.4,41.5c-0.1,0-0.2-0.1-0.2-0.2v-0.5c0-0.1,0.1-0.2,0.2-0.2c0.1,0,0.2,0.1,0.2,0.2v0.5
						C39.6,41.4,39.5,41.5,39.4,41.5z M37.8,41.3L37.8,41.3c-0.1,0-0.2-0.1-0.2-0.2l0-0.5c0-0.1,0.1-0.2,0.2-0.2h0
						c0.1,0,0.2,0.1,0.2,0.2l0,0.5C38,41.2,37.9,41.3,37.8,41.3z M29.2,40.5C29.2,40.5,29.2,40.5,29.2,40.5c-0.1,0-0.2-0.1-0.2-0.2
						l0-0.5c0-0.1,0.1-0.2,0.2-0.2c0,0,0,0,0,0c0.1,0,0.2,0.1,0.2,0.2l0,0.5C29.4,40.4,29.3,40.5,29.2,40.5z M27.6,40.4L27.6,40.4
						c-0.1,0-0.2-0.1-0.2-0.2l0-0.5c0-0.1,0.1-0.2,0.2-0.2h0c0.1,0,0.2,0.1,0.2,0.2l0,0.5C27.8,40.3,27.7,40.4,27.6,40.4z
						 M39.4,40.2c-0.1,0-0.2-0.1-0.2-0.2v-0.5c0-0.1,0.1-0.2,0.2-0.2c0.1,0,0.2,0.1,0.2,0.2V40C39.6,40.1,39.5,40.2,39.4,40.2z
						 M37.8,40.1L37.8,40.1c-0.1,0-0.2-0.1-0.2-0.2l0-0.5c0-0.1,0.1-0.2,0.2-0.2h0c0.1,0,0.2,0.1,0.2,0.2l0,0.5
						C38,40,38,40.1,37.8,40.1z M29.4,39.4c-0.1,0-0.1,0-0.2-0.1c-0.1-0.1,0-0.2,0.1-0.3l0.4-0.2c0.1-0.1,0.2,0,0.3,0.1
						c0.1,0.1,0,0.2-0.1,0.3l-0.4,0.2C29.4,39.4,29.4,39.4,29.4,39.4z M27.6,39.2L27.6,39.2c-0.1,0-0.2-0.1-0.2-0.2l0-0.5
						c0-0.1,0.1-0.2,0.2-0.2h0c0.1,0,0.2,0.1,0.2,0.2l0,0.5C27.8,39.1,27.7,39.2,27.6,39.2z M39.4,39c-0.1,0-0.2-0.1-0.2-0.2v-0.5
						c0-0.1,0.1-0.2,0.2-0.2c0.1,0,0.2,0.1,0.2,0.2v0.5C39.6,38.9,39.5,39,39.4,39z M37.8,38.8L37.8,38.8c-0.1,0-0.2-0.1-0.2-0.2
						l0-0.5c0-0.1,0.1-0.2,0.2-0.2h0c0.1,0,0.2,0.1,0.2,0.2l0,0.5C38.1,38.7,38,38.8,37.8,38.8z M30.4,38.8c-0.1,0-0.1,0-0.2-0.1
						c-0.1-0.1,0-0.2,0.1-0.3l0.4-0.2c0.1-0.1,0.2,0,0.3,0.1c0.1,0.1,0,0.2-0.1,0.3l-0.4,0.2C30.5,38.8,30.5,38.8,30.4,38.8z
						 M31.5,38.2c-0.1,0-0.1,0-0.2-0.1c-0.1-0.1,0-0.2,0.1-0.3l0.4-0.2c0.1-0.1,0.2,0,0.3,0.1c0.1,0.1,0,0.2-0.1,0.3l-0.4,0.2
						C31.6,38.2,31.5,38.2,31.5,38.2z M28,38.2c-0.1,0-0.1,0-0.2-0.1c-0.1-0.1,0-0.2,0.1-0.3l0.4-0.2c0.1-0.1,0.2,0,0.3,0.1
						c0.1,0.1,0,0.2-0.1,0.3l-0.4,0.2C28.1,38.1,28,38.2,28,38.2z M39.4,37.8c-0.1,0-0.2-0.1-0.2-0.2V37c0-0.1,0.1-0.2,0.2-0.2
						c0.1,0,0.2,0.1,0.2,0.2v0.5C39.6,37.7,39.5,37.8,39.4,37.8z M37.8,37.6L37.8,37.6c-0.1,0-0.2-0.1-0.2-0.2l0-0.5
						c0-0.1,0.1-0.2,0.2-0.2h0c0.1,0,0.2,0.1,0.2,0.2l0,0.5C38.1,37.5,38,37.6,37.8,37.6z M32.6,37.5c-0.1,0-0.1,0-0.2-0.1
						c-0.1-0.1,0-0.2,0.1-0.3l0.4-0.2c0.1-0.1,0.2,0,0.3,0.1c0.1,0.1,0,0.2-0.1,0.3l-0.4,0.2C32.7,37.5,32.6,37.5,32.6,37.5z
						 M29.1,37.5c-0.1,0-0.1,0-0.2-0.1c-0.1-0.1,0-0.2,0.1-0.3l0.4-0.2c0.1-0.1,0.2,0,0.3,0.1c0.1,0.1,0,0.2-0.1,0.3l-0.4,0.2
						C29.1,37.5,29.1,37.5,29.1,37.5z M33.7,36.9c-0.1,0-0.1,0-0.2-0.1c-0.1-0.1,0-0.2,0.1-0.3l0.4-0.2c0.1-0.1,0.2,0,0.3,0.1
						c0.1,0.1,0,0.2-0.1,0.3l-0.4,0.2C33.7,36.9,33.7,36.9,33.7,36.9z M30.1,36.9c-0.1,0-0.1,0-0.2-0.1c-0.1-0.1,0-0.2,0.1-0.3
						l0.4-0.2c0.1-0.1,0.2,0,0.3,0.1c0.1,0.1,0,0.2-0.1,0.3l-0.4,0.2C30.2,36.9,30.2,36.9,30.1,36.9z M39.4,36.5
						c-0.1,0-0.2-0.1-0.2-0.2v-0.5c0-0.1,0.1-0.2,0.2-0.2c0.1,0,0.2,0.1,0.2,0.2v0.5C39.6,36.4,39.5,36.5,39.4,36.5z M37.8,36.3
						C37.8,36.3,37.8,36.3,37.8,36.3c-0.1,0-0.2-0.1-0.2-0.2l0-0.5c0-0.1,0.1-0.2,0.2-0.2h0c0.1,0,0.2,0.1,0.2,0.2l0,0.5
						C38.1,36.2,38,36.3,37.8,36.3z M34.7,36.3c-0.1,0-0.1,0-0.2-0.1c-0.1-0.1,0-0.2,0.1-0.3l0.4-0.2c0.1-0.1,0.2,0,0.3,0.1
						c0.1,0.1,0,0.2-0.1,0.3l-0.4,0.2C34.8,36.3,34.8,36.3,34.7,36.3z M31.2,36.3c-0.1,0-0.1,0-0.2-0.1c-0.1-0.1,0-0.2,0.1-0.3
						l0.4-0.2c0.1-0.1,0.2,0,0.3,0.1c0.1,0.1,0,0.2-0.1,0.3l-0.4,0.2C31.3,36.3,31.2,36.3,31.2,36.3z M35.8,35.7
						c-0.1,0-0.1,0-0.2-0.1c-0.1-0.1,0-0.2,0.1-0.3l0.4-0.2c0.1-0.1,0.2,0,0.3,0.1c0.1,0.1,0,0.2-0.1,0.3l-0.4,0.2
						C35.9,35.7,35.8,35.7,35.8,35.7z M32.3,35.7c-0.1,0-0.1,0-0.2-0.1c-0.1-0.1,0-0.2,0.1-0.3l0.4-0.2c0.1-0.1,0.2,0,0.3,0.1
						c0.1,0.1,0,0.2-0.1,0.3l-0.4,0.2C32.4,35.7,32.3,35.7,32.3,35.7z M39.4,35.3c-0.1,0-0.2-0.1-0.2-0.2v-0.5
						c0-0.1,0.1-0.2,0.2-0.2c0.1,0,0.2,0.1,0.2,0.2v0.5C39.6,35.2,39.5,35.3,39.4,35.3z M37.8,35.1L37.8,35.1
						c-0.1,0-0.2-0.1-0.2-0.2l0-0.5c0-0.1,0.1-0.2,0.2-0.2h0c0.1,0,0.2,0.1,0.2,0.2l0,0.5C38.1,35,38,35.1,37.8,35.1z M36.9,35.1
						c-0.1,0-0.1,0-0.2-0.1c-0.1-0.1,0-0.2,0.1-0.3l0.4-0.2c0.1-0.1,0.2,0,0.3,0.1c0.1,0.1,0,0.2-0.1,0.3L37,35
						C36.9,35,36.9,35.1,36.9,35.1z M33.4,35c-0.1,0-0.1,0-0.2-0.1c-0.1-0.1,0-0.2,0.1-0.3l0.4-0.2c0.1-0.1,0.2,0,0.3,0.1
						c0.1,0.1,0,0.2-0.1,0.3L33.5,35C33.4,35,33.4,35,33.4,35z M34.4,34.4c-0.1,0-0.1,0-0.2-0.1c-0.1-0.1,0-0.2,0.1-0.3l0.4-0.2
						c0.1-0.1,0.2,0,0.3,0.1c0.1,0.1,0,0.2-0.1,0.3l-0.4,0.2C34.5,34.4,34.5,34.4,34.4,34.4z M39.4,34c-0.1,0-0.2-0.1-0.2-0.2v-0.5
						c0-0.1,0.1-0.2,0.2-0.2c0.1,0,0.2,0.1,0.2,0.2v0.5C39.6,33.9,39.5,34,39.4,34z M35.5,33.8c-0.1,0-0.1,0-0.2-0.1
						c-0.1-0.1,0-0.2,0.1-0.3l0.4-0.2c0.1-0.1,0.2,0,0.3,0.1c0.1,0.1,0,0.2-0.1,0.3l-0.4,0.2C35.6,33.8,35.5,33.8,35.5,33.8z
						 M36.6,33.2c-0.1,0-0.1,0-0.2-0.1c-0.1-0.1,0-0.2,0.1-0.3l0.4-0.2c0.1-0.1,0.2,0,0.3,0.1c0.1,0.1,0,0.2-0.1,0.3l-0.4,0.2
						C36.6,33.2,36.6,33.2,36.6,33.2z M39.4,32.8c-0.1,0-0.2-0.1-0.2-0.2v-0.5c0-0.1,0.1-0.2,0.2-0.2c0.1,0,0.2,0.1,0.2,0.2v0.5
						C39.6,32.7,39.5,32.8,39.4,32.8z M37.6,32.6c-0.1,0-0.1,0-0.2-0.1c-0.1-0.1,0-0.2,0.1-0.3l0.1,0l0-0.2c0-0.1,0.1-0.2,0.2-0.2h0
						c0.1,0,0.2,0.1,0.2,0.2l0,0.3c0,0.1,0,0.2-0.1,0.2l-0.2,0.1C37.7,32.5,37.7,32.6,37.6,32.6z M39.4,31.6c-0.1,0-0.2-0.1-0.2-0.2
						v-0.5c0-0.1,0.1-0.2,0.2-0.2c0.1,0,0.2,0.1,0.2,0.2v0.5C39.6,31.5,39.5,31.6,39.4,31.6z M37.8,31.4c-0.1,0-0.2-0.1-0.2-0.2
						l0-0.5c0-0.1,0.1-0.2,0.2-0.2c0.1,0,0.2,0.1,0.2,0.2l0,0.5C38,31.3,37.9,31.4,37.8,31.4z M39.4,30.3c-0.1,0-0.2-0.1-0.2-0.2
						v-0.5c0-0.1,0.1-0.2,0.2-0.2c0.1,0,0.2,0.1,0.2,0.2v0.5C39.6,30.2,39.5,30.3,39.4,30.3z M37.8,30.2c-0.1,0-0.2-0.1-0.2-0.2
						l0-0.5c0-0.1,0.1-0.2,0.2-0.2h0c0.1,0,0.2,0.1,0.2,0.2l0,0.5C38,30.1,37.9,30.2,37.8,30.2L37.8,30.2z M39.4,29.1
						c-0.1,0-0.2-0.1-0.2-0.2v-0.5c0-0.1,0.1-0.2,0.2-0.2c0.1,0,0.2,0.1,0.2,0.2v0.5C39.6,29,39.5,29.1,39.4,29.1z M37.8,28.9
						c-0.1,0-0.2-0.1-0.2-0.2l0-0.5c0-0.1,0.1-0.2,0.2-0.2c0.1,0,0.2,0.1,0.2,0.2l0,0.5C38,28.8,37.9,28.9,37.8,28.9z M39.4,27.8
						c-0.1,0-0.2-0.1-0.2-0.2v-0.5c0-0.1,0.1-0.2,0.2-0.2c0.1,0,0.2,0.1,0.2,0.2v0.5C39.6,27.7,39.5,27.8,39.4,27.8z M37.8,27.7
						c-0.1,0-0.2-0.1-0.2-0.2l0-0.5c0-0.1,0.1-0.2,0.2-0.2h0c0.1,0,0.2,0.1,0.2,0.2l0,0.5C38,27.6,37.9,27.7,37.8,27.7L37.8,27.7z
						 M39.4,26.6c-0.1,0-0.2-0.1-0.2-0.2v-0.5c0-0.1,0.1-0.2,0.2-0.2c0.1,0,0.2,0.1,0.2,0.2v0.5C39.6,26.5,39.5,26.6,39.4,26.6z
						 M37.8,26.5c-0.1,0-0.2-0.1-0.2-0.2v-0.5c0-0.1,0.1-0.2,0.2-0.2s0.2,0.1,0.2,0.2v0.5C38,26.4,37.9,26.5,37.8,26.5z M39.4,25.4
						c-0.1,0-0.2-0.1-0.2-0.2v-0.5c0-0.1,0.1-0.2,0.2-0.2c0.1,0,0.2,0.1,0.2,0.2v0.5C39.6,25.3,39.5,25.4,39.4,25.4z M37.8,25.3
						c-0.1,0-0.2-0.1-0.2-0.2v-0.5c0-0.1,0.1-0.2,0.2-0.2s0.2,0.1,0.2,0.2v0.5C38,25.2,37.9,25.3,37.8,25.3z M39.4,24.1
						c-0.1,0-0.2-0.1-0.2-0.2v-0.5c0-0.1,0.1-0.2,0.2-0.2c0.1,0,0.2,0.1,0.2,0.2v0.5C39.6,24,39.5,24.1,39.4,24.1z M37.8,24
						c-0.1,0-0.2-0.1-0.2-0.2v-0.5c0-0.1,0.1-0.2,0.2-0.2s0.2,0.1,0.2,0.2v0.5C38,23.9,37.9,24,37.8,24z M39.4,22.9
						c-0.1,0-0.2-0.1-0.2-0.2v-0.5c0-0.1,0.1-0.2,0.2-0.2c0.1,0,0.2,0.1,0.2,0.2v0.5C39.6,22.8,39.5,22.9,39.4,22.9z M37.8,22.8
						c-0.1,0-0.2-0.1-0.2-0.2v-0.5c0-0.1,0.1-0.2,0.2-0.2S38,22,38,22.1v0.5C38,22.7,37.9,22.8,37.8,22.8z M39.4,21.6
						c-0.1,0-0.2-0.1-0.2-0.2v-0.5c0-0.1,0.1-0.2,0.2-0.2c0.1,0,0.2,0.1,0.2,0.2v0.5C39.6,21.5,39.5,21.6,39.4,21.6z M37.8,21.6
						c-0.1,0-0.2-0.1-0.2-0.2v-0.5c0-0.1,0.1-0.2,0.2-0.2s0.2,0.1,0.2,0.2v0.5C38,21.5,37.9,21.6,37.8,21.6z M39.4,20.4
						c-0.1,0-0.2-0.1-0.2-0.2v-0.5c0-0.1,0.1-0.2,0.2-0.2c-0.1,0-0.2-0.1-0.2-0.2v-0.5c0-0.1,0.1-0.2,0.2-0.2c0.1,0,0.2,0.1,0.2,0.2
						v0.5c0,0.1-0.1,0.2-0.2,0.2c0.1,0,0.2,0.1,0.2,0.2v0.5C39.6,20.3,39.5,20.4,39.4,20.4z M37.8,20.3c-0.1,0-0.2-0.1-0.2-0.2v-0.5
						c0-0.1,0.1-0.2,0.2-0.2s0.2,0.1,0.2,0.2v0.5C38,20.2,37.9,20.3,37.8,20.3z M37.8,19.1c-0.1,0-0.2-0.1-0.2-0.2v-0.5
						c0-0.1,0.1-0.2,0.2-0.2s0.2,0.1,0.2,0.2v0.5C38,19,37.9,19.1,37.8,19.1z M39.4,18.2c-0.1,0-0.2-0.1-0.2-0.2v-0.5
						c0-0.1,0.1-0.2,0.2-0.2c0.1,0,0.2,0.1,0.2,0.2V18C39.6,18.1,39.5,18.2,39.4,18.2z M37.8,17.8c-0.1,0-0.2-0.1-0.2-0.2v-0.5
						c0-0.1,0.1-0.2,0.2-0.2S38,17,38,17.1v0.5C38,17.7,37.9,17.8,37.8,17.8z M39.4,17c-0.1,0-0.2-0.1-0.2-0.2v-0.5
						c0-0.1,0.1-0.2,0.2-0.2c0.1,0,0.2,0.1,0.2,0.2v0.5C39.6,16.9,39.5,17,39.4,17z M37.8,16.6c-0.1,0-0.2-0.1-0.2-0.2v-0.5
						c0-0.1,0.1-0.2,0.2-0.2s0.2,0.1,0.2,0.2v0.5C38,16.5,37.9,16.6,37.8,16.6z M39.4,15.7c-0.1,0-0.2-0.1-0.2-0.2V15
						c0-0.1,0.1-0.2,0.2-0.2c0.1,0,0.2,0.1,0.2,0.2v0.5C39.6,15.6,39.5,15.7,39.4,15.7z M38.4,15.7c-0.1,0-0.2,0-0.2-0.1
						c-0.1-0.1,0-0.2,0.1-0.3l0.4-0.2c0.1-0.1,0.2,0,0.3,0.1c0.1,0.1,0,0.2-0.1,0.3l-0.4,0.2C38.5,15.7,38.5,15.7,38.4,15.7z"/>
				</g>
				<g>
					<polyline fill="#FFFFFF" points="17.3,34.2 17.3,47.8 19,47 19,35.3 					"/>
					<path fill="#231F20" d="M17.4,48.1c-0.1,0-0.2,0-0.2-0.1c-0.1-0.1,0-0.2,0.1-0.3l0.4-0.2c0.1-0.1,0.2,0,0.3,0.1
						c0.1,0.1,0,0.2-0.1,0.3L17.5,48C17.4,48,17.4,48.1,17.4,48.1z M18.4,47.5c-0.1,0-0.2,0-0.2-0.1c-0.1-0.1,0-0.2,0.1-0.3l0.4-0.2
						c0.1-0.1,0.2,0,0.3,0.1c0.1,0.1,0,0.2-0.1,0.3l-0.4,0.2C18.5,47.4,18.5,47.5,18.4,47.5z M17.3,47.4c-0.1,0-0.2-0.1-0.2-0.2
						l0-0.5c0-0.1,0.1-0.2,0.2-0.2h0c0.1,0,0.2,0.1,0.2,0.2l0,0.5C17.6,47.3,17.5,47.4,17.3,47.4C17.3,47.4,17.3,47.4,17.3,47.4z
						 M19,46.5c-0.1,0-0.2-0.1-0.2-0.2v-0.5c0-0.1,0.1-0.2,0.2-0.2s0.2,0.1,0.2,0.2v0.5C19.2,46.4,19.1,46.5,19,46.5z M17.3,46.1
						c-0.1,0-0.2-0.1-0.2-0.2l0-0.5c0-0.1,0.1-0.2,0.2-0.2c0,0,0,0,0,0c0.1,0,0.2,0.1,0.2,0.2l0,0.5C17.5,46,17.5,46.1,17.3,46.1
						L17.3,46.1z M19,45.3c-0.1,0-0.2-0.1-0.2-0.2v-0.5c0-0.1,0.1-0.2,0.2-0.2s0.2,0.1,0.2,0.2v0.5C19.2,45.2,19.1,45.3,19,45.3z
						 M17.3,44.9c-0.1,0-0.2-0.1-0.2-0.2l0-0.5c0-0.1,0.1-0.2,0.2-0.2h0c0.1,0,0.2,0.1,0.2,0.2l0,0.5C17.5,44.8,17.4,44.9,17.3,44.9
						C17.3,44.9,17.3,44.9,17.3,44.9z M19,44c-0.1,0-0.2-0.1-0.2-0.2v-0.5c0-0.1,0.1-0.2,0.2-0.2s0.2,0.1,0.2,0.2v0.5
						C19.2,43.9,19.1,44,19,44z M17.3,43.6c-0.1,0-0.2-0.1-0.2-0.2l0-0.5c0-0.1,0.1-0.2,0.2-0.2c0,0,0,0,0,0c0.1,0,0.2,0.1,0.2,0.2
						l0,0.5C17.5,43.5,17.4,43.6,17.3,43.6L17.3,43.6z M19,42.8c-0.1,0-0.2-0.1-0.2-0.2v-0.5c0-0.1,0.1-0.2,0.2-0.2s0.2,0.1,0.2,0.2
						v0.5C19.2,42.7,19.1,42.8,19,42.8z M17.3,42.4c-0.1,0-0.2-0.1-0.2-0.2l0-0.5c0-0.1,0.1-0.2,0.2-0.2h0c0.1,0,0.2,0.1,0.2,0.2
						l0,0.5C17.5,42.3,17.4,42.4,17.3,42.4L17.3,42.4z M19,41.6c-0.1,0-0.2-0.1-0.2-0.2v-0.5c0-0.1,0.1-0.2,0.2-0.2s0.2,0.1,0.2,0.2
						v0.5C19.2,41.5,19.1,41.6,19,41.6z M17.3,41.2c-0.1,0-0.2-0.1-0.2-0.2l0-0.5c0-0.1,0.1-0.2,0.2-0.2h0c0.1,0,0.2,0.1,0.2,0.2
						l0,0.5C17.5,41.1,17.4,41.2,17.3,41.2L17.3,41.2z M19,40.3c-0.1,0-0.2-0.1-0.2-0.2v-0.5c0-0.1,0.1-0.2,0.2-0.2s0.2,0.1,0.2,0.2
						v0.5C19.2,40.2,19.1,40.3,19,40.3z M17.3,39.9c-0.1,0-0.2-0.1-0.2-0.2l0-0.5c0-0.1,0.1-0.2,0.2-0.2c0.1,0,0.2,0.1,0.2,0.2
						l0,0.5C17.5,39.8,17.4,39.9,17.3,39.9C17.3,39.9,17.3,39.9,17.3,39.9z M19,39.1c-0.1,0-0.2-0.1-0.2-0.2v-0.5
						c0-0.1,0.1-0.2,0.2-0.2s0.2,0.1,0.2,0.2v0.5C19.2,39,19.1,39.1,19,39.1z M17.3,38.7c-0.1,0-0.2-0.1-0.2-0.2l0-0.5
						c0-0.1,0.1-0.2,0.2-0.2c0.1,0,0.2,0.1,0.2,0.2l0,0.5C17.5,38.6,17.4,38.7,17.3,38.7L17.3,38.7z M19,37.8
						c-0.1,0-0.2-0.1-0.2-0.2v-0.5c0-0.1,0.1-0.2,0.2-0.2s0.2,0.1,0.2,0.2v0.5C19.2,37.7,19.1,37.8,19,37.8z M17.3,37.4
						c-0.1,0-0.2-0.1-0.2-0.2l0-0.5c0-0.1,0.1-0.2,0.2-0.2c0,0,0,0,0,0c0.1,0,0.2,0.1,0.2,0.2l0,0.5C17.5,37.3,17.4,37.4,17.3,37.4
						C17.3,37.4,17.3,37.4,17.3,37.4z M19,36.6c-0.1,0-0.2-0.1-0.2-0.2v-0.5c0-0.1,0.1-0.2,0.2-0.2s0.2,0.1,0.2,0.2v0.5
						C19.2,36.5,19.1,36.6,19,36.6z M17.3,36.2c-0.1,0-0.2-0.1-0.2-0.2l0-0.5c0-0.1,0.1-0.2,0.2-0.2h0c0.1,0,0.2,0.1,0.2,0.2l0,0.5
						C17.5,36.1,17.4,36.2,17.3,36.2C17.3,36.2,17.3,36.2,17.3,36.2z M17.3,35c-0.1,0-0.2-0.1-0.2-0.2l0-0.5c0-0.1,0.1-0.2,0.2-0.2
						c0,0,0,0,0,0c0.1,0,0.2,0.1,0.2,0.2l0,0.5C17.5,34.9,17.4,35,17.3,35L17.3,35z"/>
				</g>
				<g>
					<g>
						<polygon fill="#FFFFFF" points="37.8,15.8 39.4,14.9 27.5,8.1 25.9,8.9 						"/>
						<path fill="#231F20" d="M37.8,16.1c0,0-0.1,0-0.1,0l-0.2-0.1c-0.1-0.1-0.1-0.2-0.1-0.3c0.1-0.1,0.2-0.1,0.3-0.1l0.1,0.1
							l0.3-0.2c0.1-0.1,0.2,0,0.3,0.1c0.1,0.1,0,0.2-0.1,0.3L37.9,16C37.9,16,37.8,16.1,37.8,16.1z M36.9,15.6c0,0-0.1,0-0.1,0
							l-0.4-0.2c-0.1-0.1-0.1-0.2-0.1-0.3c0.1-0.1,0.2-0.1,0.3-0.1l0.4,0.2c0.1,0.1,0.1,0.2,0.1,0.3C37.1,15.5,37,15.6,36.9,15.6z
							 M38.9,15.5c-0.1,0-0.2,0-0.2-0.1c-0.1-0.1,0-0.2,0.1-0.3l0.4-0.2c0.1-0.1,0.2,0,0.3,0.1c0.1,0.1,0,0.2-0.1,0.3L39,15.4
							C39,15.4,38.9,15.5,38.9,15.5z M35.9,14.9c0,0-0.1,0-0.1,0l-0.4-0.2c-0.1-0.1-0.1-0.2-0.1-0.3c0.1-0.1,0.2-0.1,0.3-0.1
							l0.4,0.2c0.1,0.1,0.1,0.2,0.1,0.3C36,14.9,35.9,14.9,35.9,14.9z M38.9,14.8c0,0-0.1,0-0.1,0l-0.4-0.2
							c-0.1-0.1-0.1-0.2-0.1-0.3c0.1-0.1,0.2-0.1,0.3-0.1l0.4,0.2c0.1,0.1,0.1,0.2,0.1,0.3C39,14.8,39,14.8,38.9,14.8z M34.8,14.3
							c0,0-0.1,0-0.1,0L34.3,14c-0.1-0.1-0.1-0.2-0.1-0.3c0.1-0.1,0.2-0.1,0.3-0.1l0.4,0.2C35,14,35,14.1,35,14.2
							C34.9,14.3,34.9,14.3,34.8,14.3z M37.8,14.2c0,0-0.1,0-0.1,0L37.3,14c-0.1-0.1-0.1-0.2-0.1-0.3c0.1-0.1,0.2-0.1,0.3-0.1
							l0.4,0.2c0.1,0.1,0.1,0.2,0.1,0.3C38,14.2,37.9,14.2,37.8,14.2z M33.7,13.7c0,0-0.1,0-0.1,0l-0.4-0.2
							c-0.1-0.1-0.1-0.2-0.1-0.3c0.1-0.1,0.2-0.1,0.3-0.1l0.4,0.2c0.1,0.1,0.1,0.2,0.1,0.3C33.9,13.7,33.8,13.7,33.7,13.7z
							 M36.7,13.6c0,0-0.1,0-0.1,0l-0.4-0.2c-0.1-0.1-0.1-0.2-0.1-0.3c0.1-0.1,0.2-0.1,0.3-0.1l0.4,0.2c0.1,0.1,0.1,0.2,0.1,0.3
							C36.9,13.6,36.8,13.6,36.7,13.6z M32.6,13.1c0,0-0.1,0-0.1,0l-0.4-0.2C32,12.7,32,12.6,32,12.5c0.1-0.1,0.2-0.1,0.3-0.1
							l0.4,0.2c0.1,0.1,0.1,0.2,0.1,0.3C32.8,13,32.7,13.1,32.6,13.1z M35.7,13c0,0-0.1,0-0.1,0l-0.4-0.2C35,12.7,35,12.5,35,12.4
							c0.1-0.1,0.2-0.1,0.3-0.1l0.4,0.2c0.1,0.1,0.1,0.2,0.1,0.3C35.8,12.9,35.7,13,35.7,13z M31.6,12.5c0,0-0.1,0-0.1,0L31,12.2
							c-0.1-0.1-0.1-0.2-0.1-0.3c0.1-0.1,0.2-0.1,0.3-0.1l0.4,0.2c0.1,0.1,0.1,0.2,0.1,0.3C31.7,12.4,31.6,12.5,31.6,12.5z
							 M34.6,12.4c0,0-0.1,0-0.1,0L34,12.1c-0.1-0.1-0.1-0.2-0.1-0.3c0.1-0.1,0.2-0.1,0.3-0.1l0.4,0.2c0.1,0.1,0.1,0.2,0.1,0.3
							C34.7,12.3,34.7,12.4,34.6,12.4z M30.5,11.8c0,0-0.1,0-0.1,0L30,11.6c-0.1-0.1-0.1-0.2-0.1-0.3c0.1-0.1,0.2-0.1,0.3-0.1
							l0.4,0.2c0.1,0.1,0.1,0.2,0.1,0.3C30.6,11.8,30.6,11.8,30.5,11.8z M33.5,11.7c0,0-0.1,0-0.1,0L33,11.5
							c-0.1-0.1-0.1-0.2-0.1-0.3c0.1-0.1,0.2-0.1,0.3-0.1l0.4,0.2c0.1,0.1,0.1,0.2,0.1,0.3C33.7,11.7,33.6,11.7,33.5,11.7z
							 M29.4,11.2c0,0-0.1,0-0.1,0l-0.4-0.2c-0.1-0.1-0.1-0.2-0.1-0.3c0.1-0.1,0.2-0.1,0.3-0.1l0.4,0.2c0.1,0.1,0.1,0.2,0.1,0.3
							C29.6,11.2,29.5,11.2,29.4,11.2z M32.4,11.1c0,0-0.1,0-0.1,0l-0.4-0.2c-0.1-0.1-0.1-0.2-0.1-0.3c0.1-0.1,0.2-0.1,0.3-0.1
							l0.4,0.2c0.1,0.1,0.1,0.2,0.1,0.3C32.6,11.1,32.5,11.1,32.4,11.1z M28.3,10.6c0,0-0.1,0-0.1,0l-0.4-0.2
							c-0.1-0.1-0.1-0.2-0.1-0.3c0.1-0.1,0.2-0.1,0.3-0.1l0.4,0.2c0.1,0.1,0.1,0.2,0.1,0.3C28.5,10.6,28.4,10.6,28.3,10.6z
							 M31.4,10.5c0,0-0.1,0-0.1,0l-0.4-0.2c-0.1-0.1-0.1-0.2-0.1-0.3c0.1-0.1,0.2-0.1,0.3-0.1l0.4,0.2c0.1,0.1,0.1,0.2,0.1,0.3
							C31.5,10.5,31.4,10.5,31.4,10.5z M27.3,10c0,0-0.1,0-0.1,0l-0.4-0.2c-0.1-0.1-0.1-0.2-0.1-0.3c0.1-0.1,0.2-0.1,0.3-0.1
							l0.4,0.2c0.1,0.1,0.1,0.2,0.1,0.3C27.4,9.9,27.3,10,27.3,10z M30.3,9.9c0,0-0.1,0-0.1,0l-0.4-0.2c-0.1-0.1-0.1-0.2-0.1-0.3
							c0.1-0.1,0.2-0.1,0.3-0.1l0.4,0.2c0.1,0.1,0.1,0.2,0.1,0.3C30.4,9.9,30.4,9.9,30.3,9.9z M26.2,9.4c0,0-0.1,0-0.1,0l-0.3-0.2
							c-0.1,0-0.1-0.1-0.1-0.2c0-0.1,0-0.2,0.1-0.2l0.1-0.1c0.1-0.1,0.2,0,0.3,0.1c0,0,0,0.1,0,0.1l0.1,0.1c0.1,0.1,0.1,0.2,0.1,0.3
							C26.3,9.3,26.3,9.4,26.2,9.4z M29.2,9.3c0,0-0.1,0-0.1,0L28.7,9c-0.1-0.1-0.1-0.2-0.1-0.3c0.1-0.1,0.2-0.1,0.3-0.1l0.4,0.2
							c0.1,0.1,0.1,0.2,0.1,0.3C29.4,9.2,29.3,9.3,29.2,9.3z M26.6,8.7c-0.1,0-0.2,0-0.2-0.1c-0.1-0.1,0-0.2,0.1-0.3L27,8.1
							c0.1-0.1,0.2,0,0.3,0.1c0.1,0.1,0,0.2-0.1,0.3l-0.4,0.2C26.7,8.7,26.7,8.7,26.6,8.7z M28.1,8.7c0,0-0.1,0-0.1,0l-0.4-0.2
							c-0.1-0.1-0.1-0.2-0.1-0.3C27.6,8,27.7,7.9,27.8,8l0.4,0.2c0.1,0.1,0.1,0.2,0.1,0.3C28.3,8.6,28.2,8.7,28.1,8.7z"/>
					</g>
				</g>
			</g>
		</g>
	</g>
	<g>
		<path fill="#FFFFFF" d="M29.9,55.4c0.1-0.6-0.1-1.2-0.8-1.6c-0.9-0.5-2.3-0.4-3.1,0.2c-0.8,0.5-1.4,2.2,0,2.9
			c0.9,0.5,2.3,0.4,3.1-0.2C29.5,56.5,29.9,56,29.9,55.4z"/>
		<path fill="#231F20" d="M27.4,57.5L27.4,57.5c-0.6,0-1.1-0.1-1.5-0.3c-0.6-0.3-0.9-0.8-1-1.4c0-0.7,0.4-1.5,0.9-1.9
			c0.5-0.3,1.2-0.5,1.9-0.5c0.6,0,1.1,0.1,1.5,0.3c0.7,0.4,1,1,0.9,1.8c-0.1,0.6-0.4,1.3-0.9,1.5C28.8,57.3,28.1,57.5,27.4,57.5z
			 M27.8,53.7c-0.6,0-1.2,0.2-1.7,0.4c-0.4,0.2-0.7,0.9-0.7,1.5c0,0.3,0.2,0.8,0.7,1.1c0.3,0.2,0.8,0.3,1.2,0.3
			c0.6,0,1.2-0.2,1.7-0.4c0.3-0.2,0.6-0.7,0.7-1.2c0.1-0.4,0-1-0.7-1.3C28.7,53.8,28.3,53.7,27.8,53.7z"/>
	</g>
	<g>
		<path fill="#FFFFFF" d="M29.9,53.7c0.1-0.6-0.1-1.2-0.8-1.6c-0.9-0.5-2.3-0.4-3.1,0.2c-0.8,0.5-1.4,2.2,0,2.9
			c0.9,0.5,2.3,0.4,3.1-0.2C29.5,54.8,29.9,54.2,29.9,53.7z"/>
		<path fill="#231F20" d="M27.4,55.7L27.4,55.7c-0.6,0-1.1-0.1-1.5-0.3c-0.6-0.3-0.9-0.8-1-1.4c0-0.7,0.4-1.5,0.9-1.9
			c0.5-0.3,1.2-0.5,1.9-0.5c0.6,0,1.1,0.1,1.5,0.3c0.7,0.4,1,1,0.9,1.8c-0.1,0.6-0.4,1.3-0.9,1.5C28.8,55.5,28.1,55.7,27.4,55.7z
			 M27.8,52c-0.6,0-1.2,0.2-1.7,0.4c-0.4,0.2-0.7,0.9-0.7,1.5c0,0.3,0.2,0.8,0.7,1.1c0.3,0.2,0.8,0.3,1.2,0.3c0.6,0,1.2-0.2,1.7-0.4
			c0.3-0.2,0.6-0.7,0.7-1.2c0.1-0.4,0-1-0.7-1.3C28.7,52.1,28.3,52,27.8,52z"/>
	</g>
	<g>
		<path fill="#FFFFFF" d="M29.9,51.9c0.1-0.6-0.1-1.2-0.8-1.6c-0.9-0.5-2.3-0.4-3.1,0.2c-0.8,0.5-1.4,2.2,0,2.9
			c0.9,0.5,2.3,0.4,3.1-0.2C29.5,53.1,29.9,52.5,29.9,51.9z"/>
		<path fill="#231F20" d="M27.4,54L27.4,54c-0.6,0-1.1-0.1-1.5-0.3c-0.6-0.3-0.9-0.8-1-1.4c0-0.7,0.4-1.5,0.9-1.9
			c0.5-0.3,1.2-0.5,1.9-0.5c0.6,0,1.1,0.1,1.5,0.3c0.7,0.4,1,1,0.9,1.8c-0.1,0.6-0.4,1.3-0.9,1.5C28.8,53.8,28.1,54,27.4,54z
			 M27.8,50.3c-0.6,0-1.2,0.2-1.7,0.4c-0.4,0.2-0.7,0.9-0.7,1.5c0,0.3,0.2,0.8,0.7,1.1c0.3,0.2,0.8,0.3,1.2,0.3
			c0.6,0,1.2-0.2,1.7-0.4c0.3-0.2,0.6-0.7,0.7-1.2c0.1-0.4,0-1-0.7-1.3C28.7,50.4,28.3,50.3,27.8,50.3z"/>
	</g>
	<g>
		<path fill="#FFFFFF" d="M29.9,50.2c0.1-0.6-0.1-1.2-0.8-1.6c-0.9-0.5-2.3-0.4-3.1,0.2c-0.8,0.5-1.4,2.2,0,2.9
			c0.9,0.5,2.3,0.4,3.1-0.2C29.5,51.4,29.9,50.8,29.9,50.2z"/>
		<path fill="#231F20" d="M27.4,52.3L27.4,52.3c-0.6,0-1.1-0.1-1.5-0.3c-0.6-0.3-0.9-0.8-1-1.4c0-0.7,0.4-1.5,0.9-1.9
			c0.5-0.3,1.2-0.5,1.9-0.5c0.6,0,1.1,0.1,1.5,0.3c0.7,0.4,1,1,0.9,1.8c-0.1,0.6-0.4,1.3-0.9,1.5C28.8,52.1,28.1,52.3,27.4,52.3z
			 M27.8,48.6c-0.6,0-1.2,0.2-1.7,0.4c-0.4,0.2-0.7,0.9-0.7,1.5c0,0.3,0.2,0.8,0.7,1.1c0.3,0.2,0.8,0.3,1.2,0.3
			c0.6,0,1.2-0.2,1.7-0.4c0.3-0.2,0.6-0.7,0.7-1.2c0.1-0.4,0-1-0.7-1.3C28.7,48.7,28.3,48.6,27.8,48.6z"/>
	</g>
	<g>
		<path fill="#FFFFFF" d="M29.9,48.5c0.1-0.6-0.1-1.2-0.8-1.6c-0.9-0.5-2.3-0.4-3.1,0.2c-0.8,0.5-1.4,2.2,0,2.9
			c0.9,0.5,2.3,0.4,3.1-0.2C29.5,49.6,29.9,49.1,29.9,48.5z"/>
		<path fill="#231F20" d="M27.4,50.6L27.4,50.6c-0.6,0-1.1-0.1-1.5-0.3c-0.6-0.3-0.9-0.8-1-1.4c0-0.7,0.4-1.5,0.9-1.9
			c0.5-0.3,1.2-0.5,1.9-0.5c0.6,0,1.1,0.1,1.5,0.3c0.7,0.4,1,1,0.9,1.8c-0.1,0.6-0.4,1.3-0.9,1.5C28.8,50.4,28.1,50.6,27.4,50.6z
			 M27.8,46.9c-0.6,0-1.2,0.2-1.7,0.4c-0.4,0.2-0.7,0.9-0.7,1.5c0,0.3,0.2,0.8,0.7,1.1c0.3,0.2,0.8,0.3,1.2,0.3
			c0.6,0,1.2-0.2,1.7-0.4c0.3-0.2,0.6-0.7,0.7-1.2c0.1-0.4,0-1-0.7-1.3C28.7,46.9,28.3,46.9,27.8,46.9z"/>
	</g>
	<g>
		<polygon fill="#FFFFFF" points="27.7,45.6 27.2,45.7 27.1,46 27.1,48 27.4,48.2 27.9,48.1 28.1,47.8 28.1,45.8 		"/>
		<path fill="#231F20" d="M27.4,48.4c0,0-0.1,0-0.1,0L27,48.2c-0.1,0-0.1-0.1-0.1-0.2l0-2c0,0,0-0.1,0-0.1l0.1-0.3
			c0-0.1,0.1-0.1,0.2-0.1l0.5-0.1c0,0,0.1,0,0.1,0l0.4,0.2c0.1,0,0.1,0.1,0.1,0.2l0,2c0,0,0,0.1,0,0.1l-0.1,0.3
			c0,0.1-0.1,0.1-0.2,0.1L27.4,48.4C27.5,48.4,27.4,48.4,27.4,48.4z M27.3,47.9l0.2,0.1l0.3,0l0.1-0.1l0-1.8l-0.2-0.1l-0.3,0
			L27.3,46L27.3,47.9z"/>
	</g>
</g>
</svg>
