<?xml version="1.0" encoding="utf-8"?>
<!-- Generator: Adobe Illustrator 18.1.1, SVG Export Plug-In . SVG Version: 6.00 Build 0)  -->
<!DOCTYPE svg PUBLIC "-//W3C//DTD SVG 1.1//EN" "http://www.w3.org/Graphics/SVG/1.1/DTD/svg11.dtd">
<svg version="1.1" id="Layer_1" xmlns="http://www.w3.org/2000/svg" xmlns:xlink="http://www.w3.org/1999/xlink" x="0px" y="0px"
	 viewBox="0 0 55 65" enable-background="new 0 0 55 65" xml:space="preserve">
<g>
	<g>
		<polyline fill="#FFFFFF" points="23.1,21.7 40.3,21.6 38.4,31.4 18.3,30.2 12.2,26.5 		"/>
	</g>
	<g>
		<g>
			<polyline fill="#231F20" points="39.5,53.5 52.6,44 53.6,37.4 43.3,35.9 			"/>
			<path fill="#231F20" d="M39.5,53.8c-0.1,0-0.2,0-0.2-0.1c-0.1-0.1-0.1-0.3,0.1-0.4l13-9.4l1-6.2l-10-1.4c-0.1,0-0.3-0.2-0.2-0.3
				c0-0.1,0.2-0.3,0.3-0.2l10.3,1.4c0.1,0,0.1,0,0.2,0.1c0,0.1,0.1,0.1,0.1,0.2l-1,6.6c0,0.1-0.1,0.1-0.1,0.2l-13.1,9.5
				C39.6,53.7,39.6,53.8,39.5,53.8z"/>
		</g>
		<g>
			<g enable-background="new    ">
				<g>
					<polyline fill="#FFFFFF" points="14.3,18.1 14.3,22.8 13.9,23.5 13.9,18.8 14.3,18.1 					"/>
					<path fill="#231F20" d="M13.9,23.8C13.9,23.8,13.9,23.8,13.9,23.8c-0.2,0-0.3-0.1-0.3-0.3l0-4.7c0,0,0-0.1,0-0.1L14,18
						c0.1-0.1,0.2-0.2,0.3-0.2c0.1,0,0.2,0.1,0.2,0.3l0,4.7c0,0,0,0.1,0,0.1l-0.3,0.7C14.1,23.7,14,23.8,13.9,23.8z"/>
				</g>
				<g>
					<polyline fill="#FFFFFF" points="13.9,18.8 13.9,23.5 13.7,24.2 13.7,19.6 13.9,18.8 					"/>
					<path fill="#231F20" d="M13.7,24.5C13.7,24.5,13.7,24.5,13.7,24.5c-0.2,0-0.3-0.1-0.3-0.3l0-4.7c0,0,0,0,0-0.1l0.2-0.7
						c0-0.1,0.2-0.2,0.3-0.2c0.1,0,0.2,0.1,0.2,0.3l0,4.7c0,0,0,0,0,0.1L14,24.3C14,24.4,13.9,24.5,13.7,24.5z"/>
				</g>
				<g>
					<polyline fill="#FFFFFF" points="13.7,19.6 13.7,24.9 13.7,19.6 					"/>
					<path fill="#231F20" d="M13.7,25.2C13.7,25.2,13.7,25.2,13.7,25.2c-0.2,0-0.3-0.1-0.3-0.3c0,0,0,0,0,0l0.1-5.4
						c0-0.1,0.1-0.3,0.3-0.3c0,0,0,0,0,0c0.1,0,0.3,0.1,0.3,0.3c0,0,0,0,0,0l-0.1,5.4C13.9,25.1,13.8,25.2,13.7,25.2z"/>
				</g>
				<g>
					<polyline fill="#FFFFFF" points="13.7,20.3 13.7,25 13.7,20.3 					"/>
					<path fill="#231F20" d="M13.7,25.3c-0.2,0-0.3-0.1-0.3-0.3l0-4.7c0,0,0,0,0,0c0-0.2,0.1-0.3,0.3-0.3h0c0.2,0,0.3,0.1,0.3,0.3
						l0,4.7v0C13.9,25.2,13.8,25.3,13.7,25.3C13.7,25.3,13.7,25.3,13.7,25.3z"/>
				</g>
			</g>
		</g>
		<g>
			<polygon fill="#FFFFFF" points="39.9,24.9 39.9,24.9 39.9,25 39.9,24.9 			"/>
			<path fill="#231F20" d="M39.9,25.2c-0.1,0-0.1,0-0.2-0.1c-0.1-0.1-0.1-0.3,0-0.4l0.1-0.1c0.1-0.1,0.3-0.1,0.4,0
				c0.1,0.1,0.1,0.3,0,0.4l0,0c0,0,0,0,0,0l0,0C40,25.2,39.9,25.2,39.9,25.2z"/>
		</g>
		<g>
			<polygon fill="#FFFFFF" points="40.3,24.5 40.4,24.4 40.3,24.5 40.3,24.5 			"/>
			<path fill="#231F20" d="M40.3,24.8c-0.1,0-0.1,0-0.2-0.1c-0.1-0.1-0.1-0.3,0-0.4l0.1-0.1c0.1-0.1,0.3-0.1,0.4,0
				c0.1,0.1,0.1,0.3,0,0.4l0,0c0,0,0,0,0,0l-0.1,0.1C40.4,24.8,40.3,24.8,40.3,24.8z"/>
		</g>
		<g>
			<polygon fill="#FFFFFF" points="39.5,25.3 39.6,25.2 39.4,25.4 39.5,25.3 			"/>
			<path fill="#231F20" d="M39.4,25.6c-0.1,0-0.2,0-0.2-0.1c-0.1-0.1-0.1-0.3,0-0.4l0.2-0.2c0.1-0.1,0.3-0.1,0.4,0
				c0.1,0.1,0.1,0.3,0,0.4l-0.1,0.1c0,0,0,0,0,0l-0.1,0.1C39.5,25.6,39.5,25.6,39.4,25.6z"/>
		</g>
		<g>
			<polygon fill="#FFFFFF" points="38,17.3 38.4,22.7 38,17.3 			"/>
			<path fill="#231F20" d="M38.4,23c-0.1,0-0.3-0.1-0.3-0.3l-0.5-5.4c0,0,0,0,0,0c0-0.1,0.1-0.3,0.3-0.3c0.1,0,0.3,0.1,0.3,0.2
				l0.5,5.4c0,0,0,0,0,0C38.7,22.8,38.6,23,38.4,23C38.5,23,38.4,23,38.4,23z"/>
		</g>
		<g>
			<polygon fill="#FFFFFF" points="39.1,25.7 39.1,25.6 39,25.7 39.1,25.7 			"/>
			<path fill="#231F20" d="M39,26c-0.1,0-0.2,0-0.2-0.1c-0.1-0.1-0.1-0.3,0-0.4l0.2-0.2c0.1-0.1,0.3-0.1,0.4,0
				c0.1,0.1,0.1,0.3,0,0.4L39.1,26C39.1,26,39,26,39,26z"/>
		</g>
		<g>
			<polygon fill="#FFFFFF" points="40.7,24 40.7,24 40.6,24.1 40.7,24 			"/>
			<path fill="#231F20" d="M40.6,24.4c-0.1,0-0.1,0-0.2-0.1c-0.1-0.1-0.1-0.3,0-0.4l0.1-0.1c0.1-0.1,0.3-0.1,0.4,0
				c0.1,0.1,0.1,0.3,0.1,0.4l0,0c0,0,0,0,0,0l-0.1,0.1C40.8,24.3,40.7,24.4,40.6,24.4z"/>
		</g>
		<g>
			<polygon fill="#FFFFFF" points="41.8,22.1 41.8,22 41.8,22.1 41.8,22.1 			"/>
			<path fill="#231F20" d="M41.8,22.4C41.7,22.4,41.7,22.4,41.8,22.4c-0.2-0.1-0.3-0.2-0.3-0.4l0-0.1c0-0.1,0.2-0.2,0.3-0.2
				c0.1,0,0.2,0.2,0.2,0.3l0,0.1c0,0,0,0,0,0l0,0C42,22.3,41.9,22.4,41.8,22.4z"/>
		</g>
		<g>
			<polygon fill="#FFFFFF" points="42,21.2 42,21.1 42,21.3 42,21.2 			"/>
			<path fill="#231F20" d="M42,21.5C42,21.5,42,21.5,42,21.5c-0.2,0-0.3-0.2-0.3-0.3l0-0.2c0-0.1,0.2-0.2,0.3-0.2
				c0.1,0,0.3,0.2,0.2,0.3l0,0.1c0,0,0,0,0,0l0,0.1C42.2,21.4,42.1,21.5,42,21.5z"/>
		</g>
		<g>
			<polygon fill="#FFFFFF" points="41,23.6 41,23.6 41,23.7 41,23.6 			"/>
			<path fill="#231F20" d="M41,23.9c-0.1,0-0.1,0-0.2,0c-0.1-0.1-0.2-0.3-0.1-0.4l0.1-0.1c0.1-0.1,0.3-0.2,0.4-0.1
				c0.1,0.1,0.2,0.2,0.1,0.4l0,0c0,0,0,0,0,0l-0.1,0.1C41.1,23.9,41.1,23.9,41,23.9z"/>
		</g>
		<g>
			<polygon fill="#FFFFFF" points="42.1,20.3 42.1,20.1 42.1,20.3 42.1,20.3 			"/>
			<path fill="#231F20" d="M42.1,20.6C42.1,20.6,42.1,20.6,42.1,20.6c-0.2,0-0.3-0.1-0.3-0.3l0-0.2c0-0.2,0.1-0.3,0.3-0.3
				c0.2,0,0.3,0.1,0.3,0.3l0,0.2l0,0C42.3,20.5,42.2,20.6,42.1,20.6z"/>
		</g>
		<g>
			<polygon fill="#FFFFFF" points="41.9,21.7 41.9,21.5 41.9,21.7 41.9,21.7 			"/>
			<path fill="#231F20" d="M41.9,22C41.9,22,41.8,22,41.9,22c-0.2,0-0.3-0.2-0.3-0.3l0-0.2c0-0.1,0.2-0.2,0.3-0.2
				c0.1,0,0.2,0.2,0.2,0.3l0,0.2c0,0,0,0,0,0C42.1,21.9,42,22,41.9,22z"/>
		</g>
		<g>
			<polygon fill="#FFFFFF" points="41.6,22.5 41.6,22.5 41.6,22.5 41.6,22.5 			"/>
			<path fill="#231F20" d="M41.6,22.8c0,0-0.1,0-0.1,0c-0.1-0.1-0.2-0.2-0.1-0.4l0-0.1c0.1-0.1,0.2-0.2,0.4-0.1
				c0.1,0.1,0.2,0.2,0.2,0.4l0,0c0,0,0,0,0,0l0,0C41.8,22.7,41.7,22.8,41.6,22.8z"/>
		</g>
		<g>
			<polygon fill="#FFFFFF" points="42.1,20.8 42.1,20.6 42.1,20.8 42.1,20.8 			"/>
			<path fill="#231F20" d="M42.1,21.1C42,21.1,42,21.1,42.1,21.1c-0.2,0-0.3-0.1-0.3-0.3l0-0.2c0-0.1,0.1-0.3,0.3-0.3
				c0.1,0,0.3,0.1,0.3,0.3l0,0.2c0,0,0,0,0,0l0,0C42.3,21,42.2,21.1,42.1,21.1z"/>
		</g>
		<g>
			<polygon fill="#FFFFFF" points="30.5,11.5 30.5,11.5 30.6,11.6 30.5,11.5 			"/>
			<path fill="#231F20" d="M30.6,11.8C30.6,11.8,30.6,11.8,30.6,11.8l-0.2,0c-0.1,0-0.2-0.2-0.2-0.3c0-0.1,0.1-0.3,0.3-0.2
				c0,0,0,0,0,0l0.1,0c0.1,0,0.2,0.2,0.2,0.3C30.9,11.7,30.8,11.8,30.6,11.8z"/>
		</g>
		<g>
			<polygon fill="#FFFFFF" points="11.9,16.9 11.8,17 11.9,16.8 11.9,16.9 			"/>
			<path fill="#231F20" d="M11.8,17.3c-0.1,0-0.1,0-0.2,0c-0.1-0.1-0.2-0.3-0.1-0.4l0.1-0.1c0,0,0,0,0,0l0.1-0.1
				c0.1-0.1,0.3-0.1,0.4-0.1c0.1,0.1,0.1,0.3,0.1,0.4l-0.1,0.2C12,17.2,11.9,17.3,11.8,17.3z"/>
		</g>
		<g>
			<polygon fill="#FFFFFF" points="12.5,16.1 12.4,16.3 12.5,16.1 12.5,16.1 			"/>
			<path fill="#231F20" d="M12.4,16.6c-0.1,0-0.1,0-0.2-0.1c-0.1-0.1-0.1-0.3,0-0.4l0.2-0.2c0.1-0.1,0.3-0.1,0.4,0
				c0.1,0.1,0.1,0.3,0,0.4l-0.2,0.2C12.5,16.5,12.4,16.6,12.4,16.6z"/>
		</g>
		<g>
			<polygon fill="#FFFFFF" points="12.1,16.6 12,16.7 12.2,16.5 12.1,16.6 			"/>
			<path fill="#231F20" d="M12,17c-0.1,0-0.1,0-0.2-0.1c-0.1-0.1-0.1-0.3-0.1-0.4l0.1-0.1c0,0,0,0,0,0l0.1-0.1
				c0.1-0.1,0.3-0.1,0.4,0c0.1,0.1,0.1,0.3,0,0.4l-0.2,0.2C12.2,16.9,12.1,17,12,17z"/>
		</g>
		<g>
			<polygon fill="#FFFFFF" points="13.3,15.4 13.2,15.4 13.3,15.3 13.3,15.4 			"/>
			<path fill="#231F20" d="M13.2,15.7c-0.1,0-0.1,0-0.2-0.1c-0.1-0.1-0.1-0.3,0-0.4l0.1-0.1c0.1-0.1,0.3-0.1,0.4,0
				c0.1,0.1,0.1,0.3,0,0.4l-0.1,0.1C13.4,15.7,13.3,15.7,13.2,15.7z"/>
		</g>
		<g>
			<polygon fill="#FFFFFF" points="31.6,11.7 31.4,11.7 31.6,11.7 31.6,11.7 			"/>
			<path fill="#231F20" d="M31.6,12L31.3,12c-0.1,0-0.2-0.2-0.2-0.3c0-0.1,0.2-0.2,0.3-0.2l0.3,0.1L31.6,12z"/>
		</g>
		<g>
			<polygon fill="#FFFFFF" points="12.9,15.7 12.7,15.9 13,15.7 12.9,15.7 			"/>
			<path fill="#231F20" d="M12.7,16.2c-0.1,0-0.1,0-0.2-0.1c-0.1-0.1-0.1-0.3,0-0.4l0.2-0.2c0,0,0,0,0,0l0.1-0.1
				c0.1-0.1,0.3-0.1,0.4,0c0.1,0.1,0.1,0.3,0,0.4l-0.3,0.3C12.8,16.1,12.8,16.2,12.7,16.2z"/>
		</g>
		<g>
			<polygon fill="#FFFFFF" points="11.6,17.4 11.5,17.5 11.6,17.3 11.6,17.4 			"/>
			<path fill="#231F20" d="M11.5,17.7c0,0-0.1,0-0.1,0c-0.1-0.1-0.2-0.2-0.1-0.4l0-0.1c0,0,0,0,0,0l0.1-0.1c0.1-0.1,0.2-0.2,0.4-0.1
				c0.1,0.1,0.2,0.2,0.1,0.4l-0.1,0.2C11.7,17.7,11.6,17.7,11.5,17.7z"/>
		</g>
		<g>
			<polygon fill="#FFFFFF" points="10.8,19.4 10.8,19.6 10.8,19.3 10.8,19.4 			"/>
			<path fill="#231F20" d="M10.8,19.8C10.8,19.8,10.7,19.8,10.8,19.8c-0.2,0-0.3-0.2-0.3-0.3l0-0.2c0,0,0,0,0,0l0,0
				c0-0.1,0.2-0.2,0.3-0.2c0.1,0,0.2,0.2,0.2,0.3l0,0.2C11,19.7,10.9,19.8,10.8,19.8z"/>
		</g>
		<g>
			<polygon fill="#FFFFFF" points="11.3,17.9 11.3,18 11.3,17.8 11.3,17.9 			"/>
			<path fill="#231F20" d="M11.3,18.2c0,0-0.1,0-0.1,0C11,18.1,10.9,18,11,17.8l0.1-0.1c0.1-0.1,0.2-0.2,0.4-0.1
				c0.1,0.1,0.2,0.2,0.1,0.4l-0.1,0.1C11.5,18.2,11.4,18.2,11.3,18.2z"/>
		</g>
		<g>
			<polygon fill="#FFFFFF" points="35.7,13 35.7,13 35.7,13 35.7,13 			"/>
			<path fill="#231F20" d="M35.7,13.3c0,0-0.1,0-0.1,0l-0.1,0c-0.1-0.1-0.2-0.2-0.2-0.3c0.1-0.1,0.2-0.2,0.3-0.2c0,0,0,0,0,0l0.1,0
				C36,12.8,36,13,36,13.1C35.9,13.2,35.8,13.3,35.7,13.3z"/>
		</g>
		<g>
			<polygon fill="#FFFFFF" points="10.9,19 10.9,19.1 10.9,18.9 10.9,19 			"/>
			<path fill="#231F20" d="M10.9,19.4C10.8,19.4,10.8,19.4,10.9,19.4c-0.2,0-0.3-0.2-0.3-0.3l0-0.2c0,0,0,0,0,0l0,0
				c0-0.1,0.2-0.2,0.3-0.2c0.1,0,0.2,0.2,0.2,0.3l-0.1,0.2C11.1,19.3,11,19.4,10.9,19.4z"/>
		</g>
		<g>
			<polygon fill="#FFFFFF" points="17.2,13 16.9,13.1 17.2,13 17.2,13 			"/>
			<path fill="#231F20" d="M16.9,13.4c-0.1,0-0.2-0.1-0.3-0.2c-0.1-0.1,0-0.3,0.1-0.4l0.3-0.1l0.2,0.5l-0.3,0.1
				C17,13.4,17,13.4,16.9,13.4z"/>
		</g>
		<g>
			<rect x="22.4" y="11.4" fill="#FFFFFF" width="0" height="0"/>
			<path fill="#231F20" d="M22.4,11.7c-0.2,0-0.3-0.1-0.3-0.3c0-0.2,0.1-0.3,0.3-0.3h0c0.2,0,0.3,0.1,0.3,0.3
				C22.7,11.6,22.5,11.7,22.4,11.7z"/>
		</g>
		<g>
			<polygon fill="#FFFFFF" points="18,12.7 17.8,12.7 18,12.7 18,12.7 			"/>
			<path fill="#231F20" d="M17.8,13c-0.1,0-0.2-0.1-0.3-0.2c-0.1-0.1,0-0.3,0.2-0.4l0,0l0.1,0c0,0,0,0,0,0c0.1,0,0.3,0,0.3,0.2
				c0,0.1,0,0.3-0.2,0.3L17.8,13C17.9,13,17.9,13,17.8,13z"/>
		</g>
		<g>
			<polygon fill="#FFFFFF" points="24.2,11.3 24,11.4 24.2,11.3 24.2,11.3 			"/>
			<path fill="#231F20" d="M24,11.6c-0.1,0-0.3-0.1-0.3-0.2c0-0.2,0.1-0.3,0.2-0.3l0.3,0c0,0,0,0,0,0c0.1,0,0.3,0.1,0.3,0.2
				c0,0.2-0.1,0.3-0.2,0.3L24,11.6C24,11.6,24,11.6,24,11.6z"/>
		</g>
		<g>
			<polygon fill="#FFFFFF" points="18.7,12.4 18.7,12.4 18.8,12.4 18.7,12.4 			"/>
			<path fill="#231F20" d="M18.7,12.7c-0.1,0-0.2-0.1-0.3-0.2c0-0.1,0-0.3,0.2-0.3l0.1,0c0.1,0,0.3,0,0.3,0.2s0,0.3-0.2,0.3
				L18.7,12.7C18.8,12.7,18.7,12.7,18.7,12.7z"/>
		</g>
		<g>
			<rect x="22.4" y="11.4" fill="#FFFFFF" width="0" height="0"/>
			<path fill="#231F20" d="M22.4,11.7c-0.2,0-0.3-0.1-0.3-0.3c0-0.2,0.1-0.3,0.3-0.3h0c0.2,0,0.3,0.1,0.3,0.3
				C22.7,11.6,22.5,11.7,22.4,11.7z"/>
		</g>
		<g>
			<polygon fill="#FFFFFF" points="24.9,11.3 24.9,11.3 25,11.3 24.9,11.3 			"/>
			<path fill="#231F20" d="M24.9,11.6l0-0.5l0.1,0c0.2,0,0.3,0.1,0.3,0.3C25.2,11.4,25.1,11.5,24.9,11.6L24.9,11.6z"/>
		</g>
		<g>
			<polygon fill="#FFFFFF" points="15,14.1 15,14.1 15.5,13.8 15,14.1 			"/>
			<path fill="#231F20" d="M15,14.4c-0.1,0-0.2,0-0.2-0.1c-0.1-0.1,0-0.3,0.1-0.4l0,0c0,0,0,0,0,0l0.5-0.3c0.1-0.1,0.3,0,0.4,0.1
				c0.1,0.1,0,0.3-0.1,0.4l-0.5,0.3C15.1,14.4,15,14.4,15,14.4z"/>
		</g>
		<g>
			<polygon fill="#FFFFFF" points="16.4,13.3 16.2,13.4 16.4,13.3 16.4,13.3 			"/>
			<path fill="#231F20" d="M16.2,13.7c-0.1,0-0.2-0.1-0.2-0.2c-0.1-0.1,0-0.3,0.1-0.4l0.2-0.1v0l0,0l0.2,0.5l-0.2,0.1
				C16.3,13.7,16.3,13.7,16.2,13.7z"/>
		</g>
		<g>
			<polygon fill="#FFFFFF" points="29.6,11.4 29.5,11.4 29.7,11.4 29.6,11.4 			"/>
			<path fill="#231F20" d="M29.7,11.7C29.7,11.7,29.6,11.7,29.7,11.7l-0.2,0c-0.1,0-0.3-0.2-0.2-0.3c0-0.1,0.1-0.3,0.3-0.2l0.2,0
				c0.1,0,0.3,0.2,0.2,0.3C29.9,11.6,29.8,11.7,29.7,11.7z"/>
		</g>
		<g>
			<polygon fill="#FFFFFF" points="26.1,11.2 26,11.2 26.1,11.2 26.1,11.2 			"/>
			<path fill="#231F20" d="M26,11.5c-0.2,0-0.3-0.1-0.3-0.3c0-0.2,0.1-0.3,0.3-0.3l0.1,0l0,0.5L26,11.5C26,11.5,26,11.5,26,11.5z"/>
		</g>
		<g>
			<polygon fill="#FFFFFF" points="13.7,15 13.7,15 13.8,15 13.7,15 			"/>
			<path fill="#231F20" d="M13.7,15.3c-0.1,0-0.2,0-0.2-0.1c-0.1-0.1-0.1-0.3,0-0.4l0.1,0c0.1-0.1,0.3-0.1,0.4,0
				c0.1,0.1,0.1,0.3,0,0.4l-0.1,0C13.8,15.3,13.8,15.3,13.7,15.3z"/>
		</g>
		<g>
			<polygon fill="#FFFFFF" points="26.8,11.2 26.8,11.2 27,11.2 26.8,11.2 			"/>
			<path fill="#231F20" d="M27,11.5C27,11.5,27,11.5,27,11.5l-0.2,0c-0.1,0-0.3-0.1-0.3-0.3c0-0.1,0.1-0.2,0.2-0.3c0,0,0,0,0.1,0
				l0.2,0c0.2,0,0.3,0.1,0.3,0.3C27.3,11.4,27.2,11.5,27,11.5z"/>
		</g>
		<g>
			<polygon fill="#FFFFFF" points="27.8,11.3 27.7,11.3 28,11.3 27.8,11.3 			"/>
			<path fill="#231F20" d="M28,11.6C28,11.6,28,11.6,28,11.6l-0.3,0c-0.1,0-0.3-0.1-0.3-0.3c0-0.1,0.1-0.3,0.3-0.3l0.1,0l0.2,0
				c0.1,0,0.3,0.1,0.3,0.3C28.2,11.4,28.1,11.6,28,11.6z"/>
		</g>
		<g>
			<polygon fill="#FFFFFF" points="28.8,11.3 28.8,11.3 28.8,11.3 28.8,11.3 			"/>
			<path fill="#231F20" d="M28.8,11.6C28.8,11.6,28.8,11.6,28.8,11.6L28.8,11.6C28.8,11.6,28.8,11.6,28.8,11.6L28.8,11.6
				c-0.2,0-0.4-0.2-0.3-0.3c0-0.2,0.1-0.3,0.3-0.3l0.1,0c0.1,0,0.3,0.1,0.3,0.3C29.1,11.5,29,11.6,28.8,11.6z"/>
		</g>
		<g>
			<polygon fill="#FFFFFF" points="37.7,14 37.7,14 37.7,14 37.7,14 37.7,14 			"/>
			<path fill="#231F20" d="M37.7,14.3c0,0-0.1,0-0.1,0l0,0c-0.1-0.1-0.1-0.1-0.1-0.2c0,0,0-0.1,0-0.1c0.1-0.1,0.2-0.2,0.4-0.1
				c0.1,0.1,0.1,0.1,0.1,0.2c0,0,0,0.1,0,0.1C37.9,14.2,37.8,14.3,37.7,14.3z"/>
		</g>
		<g>
			<polygon fill="#FFFFFF" points="30.5,11.5 29.7,11.4 30.5,11.5 			"/>
			<path fill="#231F20" d="M30.5,11.8C30.5,11.8,30.5,11.8,30.5,11.8l-0.9-0.1c-0.1,0-0.2-0.1-0.2-0.3c0,0,0,0,0,0
				c0-0.1,0.2-0.3,0.3-0.2l0.9,0.1c0.1,0,0.2,0.1,0.2,0.3c0,0,0,0,0,0C30.8,11.7,30.7,11.8,30.5,11.8z"/>
		</g>
		<g>
			<polygon fill="#FFFFFF" points="31.4,11.7 30.6,11.6 31.4,11.7 			"/>
			<path fill="#231F20" d="M31.4,12C31.4,12,31.3,12,31.4,12l-0.8-0.1c-0.1,0-0.2-0.1-0.2-0.3c0,0,0,0,0,0c0-0.1,0.2-0.2,0.3-0.2
				l0.7,0.1c0.1,0,0.2,0.1,0.2,0.3c0,0,0,0,0,0C31.6,11.9,31.5,12,31.4,12z"/>
		</g>
		<g>
			<polygon fill="#FFFFFF" points="18,12.7 18.7,12.4 18,12.7 			"/>
			<path fill="#231F20" d="M18,13c-0.1,0-0.2-0.1-0.3-0.2c0,0,0-0.1,0-0.1c0-0.1,0.1-0.2,0.2-0.3l0.8-0.3c0.1,0,0.3,0,0.3,0.2
				c0,0,0,0.1,0,0.1c0,0.1-0.1,0.2-0.2,0.3L18,13C18,12.9,18,13,18,13z"/>
		</g>
		<g>
			<polygon fill="#FFFFFF" points="22.4,11.4 22.4,11.4 22.4,11.4 			"/>
			<path fill="#231F20" d="M22.4,11.7c-0.2,0-0.3-0.1-0.3-0.3c0-0.2,0.1-0.3,0.3-0.3h0c0.2,0,0.3,0.1,0.3,0.3
				C22.7,11.6,22.5,11.7,22.4,11.7z"/>
		</g>
		<g>
			<polygon fill="#FFFFFF" points="28.5,11.3 28.8,11.3 28,11.3 28.5,11.3 			"/>
			<path fill="#231F20" d="M28.8,11.6C28.8,11.6,28.7,11.6,28.8,11.6L28,11.6c-0.2,0-0.3-0.1-0.3-0.3c0-0.2,0.1-0.3,0.3-0.3l0.8,0.1
				c0.1,0,0.3,0.1,0.3,0.3C29,11.5,28.9,11.6,28.8,11.6C28.8,11.6,28.8,11.6,28.8,11.6z"/>
		</g>
		<g>
			<polygon fill="#FFFFFF" points="19.4,12.2 22.4,11.4 18.8,12.4 19.4,12.2 			"/>
			<path fill="#231F20" d="M18.8,12.6c-0.1,0-0.2-0.1-0.3-0.2c0-0.1,0-0.3,0.2-0.3l0.6-0.2c0,0,0,0,0,0l2.9-0.8c0.1,0,0.3,0,0.3,0.2
				c0,0.1,0,0.3-0.2,0.3L18.8,12.6C18.9,12.6,18.9,12.6,18.8,12.6z"/>
		</g>
		<g>
			<polygon fill="#FFFFFF" points="16.4,13.3 16.9,13.1 16.4,13.3 			"/>
			<path fill="#231F20" d="M16.4,13.6c-0.1,0-0.2-0.1-0.2-0.2c0,0,0-0.1,0-0.1c0-0.1,0.1-0.2,0.2-0.2l0.5-0.2c0.1-0.1,0.3,0,0.4,0.1
				c0,0,0,0.1,0,0.1c0,0.1-0.1,0.2-0.2,0.2l-0.5,0.2C16.5,13.6,16.5,13.6,16.4,13.6z"/>
		</g>
		<g>
			<polygon fill="#FFFFFF" points="17.8,12.7 17.2,13 17.8,12.7 			"/>
			<path fill="#231F20" d="M17.2,13.3c-0.1,0-0.2-0.1-0.3-0.2c0,0,0-0.1,0-0.1c0-0.1,0.1-0.2,0.2-0.3l0.6-0.3c0.1-0.1,0.3,0,0.4,0.2
				c0,0,0,0.1,0,0.1c0,0.1-0.1,0.2-0.2,0.3l-0.6,0.3C17.3,13.2,17.2,13.3,17.2,13.3z"/>
		</g>
		<g>
			<polygon fill="#FFFFFF" points="36.7,13.5 37.7,14 35.7,13 36.7,13.5 			"/>
			<path fill="#231F20" d="M37.7,14.3c0,0-0.1,0-0.1,0l-2-1c-0.1-0.1-0.2-0.2-0.1-0.4c0.1-0.1,0.2-0.2,0.4-0.1l1,0.5c0,0,0,0,0,0
				l1,0.5c0.1,0,0.2,0.1,0.2,0.3C38,14.2,37.9,14.3,37.7,14.3C37.7,14.3,37.7,14.3,37.7,14.3z"/>
		</g>
		<g>
			<polygon fill="#FFFFFF" points="12.5,16.1 12.7,15.9 12.5,16.1 			"/>
			<path fill="#231F20" d="M12.5,16.4c-0.1,0-0.1,0-0.2-0.1c-0.1-0.1-0.1-0.1-0.1-0.2c0-0.1,0-0.1,0.1-0.2l0.2-0.2
				c0.1-0.1,0.3-0.1,0.4,0c0.1,0.1,0.1,0.1,0.1,0.2c0,0.1,0,0.1-0.1,0.2l-0.2,0.2C12.7,16.3,12.6,16.4,12.5,16.4z"/>
		</g>
		<g>
			<polygon fill="#FFFFFF" points="26,11.2 25,11.3 26,11.2 			"/>
			<path fill="#231F20" d="M25,11.6c-0.1,0-0.3-0.1-0.3-0.3c0,0,0,0,0,0c0-0.1,0.1-0.3,0.3-0.3l1,0c0.2,0,0.3,0.1,0.3,0.3
				c0,0,0,0,0,0c0,0.1-0.1,0.3-0.3,0.3L25,11.6C25,11.6,25,11.6,25,11.6z"/>
		</g>
		<g>
			<polygon fill="#FFFFFF" points="27.7,11.3 27.7,11.3 27,11.2 27.7,11.3 			"/>
			<path fill="#231F20" d="M27.7,11.5C27.7,11.5,27.7,11.5,27.7,11.5L27.7,11.5l-0.7,0c-0.2,0-0.3-0.1-0.3-0.3
				c0-0.2,0.1-0.3,0.3-0.3l0.6,0c0.1,0,0.3,0.1,0.3,0.3C28,11.4,27.8,11.5,27.7,11.5z"/>
		</g>
		<g>
			<polygon fill="#FFFFFF" points="15.5,13.8 16.2,13.4 15.5,13.8 			"/>
			<path fill="#231F20" d="M15.5,14.1c-0.1,0-0.2-0.1-0.2-0.1c0,0,0-0.1,0-0.1c0-0.1,0.1-0.2,0.1-0.2l0.7-0.4c0.1-0.1,0.3,0,0.4,0.1
				c0,0,0,0.1,0,0.1c0,0.1-0.1,0.2-0.1,0.2L15.7,14C15.6,14.1,15.6,14.1,15.5,14.1z"/>
		</g>
		<g>
			<polygon fill="#FFFFFF" points="11.3,17.8 11.5,17.5 11.3,17.8 			"/>
			<path fill="#231F20" d="M11.3,18.1c0,0-0.1,0-0.1,0c-0.1,0-0.1-0.1-0.1-0.2c0,0,0-0.1,0-0.1l0.2-0.4c0.1-0.1,0.2-0.2,0.4-0.1
				c0.1,0,0.1,0.1,0.1,0.2c0,0,0,0.1,0,0.1L11.6,18C11.5,18,11.4,18.1,11.3,18.1z"/>
		</g>
		<g>
			<polygon fill="#FFFFFF" points="14.3,14.6 15,14.1 13.8,15 14.3,14.6 			"/>
			<path fill="#231F20" d="M13.8,15.2c-0.1,0-0.2,0-0.2-0.1c-0.1-0.1-0.1-0.3,0.1-0.4l0.5-0.4c0,0,0,0,0,0l0.7-0.5
				c0.1-0.1,0.3,0,0.4,0.1c0.1,0.1,0.1,0.3-0.1,0.4l-1.2,0.8C13.9,15.2,13.8,15.2,13.8,15.2z"/>
		</g>
		<g>
			<polygon fill="#FFFFFF" points="28.8,11.3 29.5,11.4 28.8,11.3 			"/>
			<path fill="#231F20" d="M29.5,11.7C29.5,11.7,29.4,11.7,29.5,11.7l-0.7-0.1c-0.1,0-0.2-0.1-0.2-0.3c0,0,0,0,0,0
				c0-0.1,0.1-0.3,0.3-0.2l0.6,0.1c0.1,0,0.2,0.1,0.2,0.3c0,0,0,0,0,0C29.7,11.6,29.6,11.7,29.5,11.7z"/>
		</g>
		<g>
			<polygon fill="#FFFFFF" points="11.6,17.3 11.8,17 11.6,17.3 			"/>
			<path fill="#231F20" d="M11.6,17.6c-0.1,0-0.1,0-0.1,0c-0.1-0.1-0.1-0.1-0.1-0.2c0-0.1,0-0.1,0-0.1l0.2-0.3
				c0.1-0.1,0.3-0.2,0.4-0.1c0.1,0.1,0.1,0.1,0.1,0.2c0,0.1,0,0.1,0,0.1l-0.2,0.3C11.8,17.5,11.7,17.6,11.6,17.6z"/>
		</g>
		<g>
			<polygon fill="#FFFFFF" points="10.7,19.8 10.8,19.6 10.7,19.8 			"/>
			<path fill="#231F20" d="M10.7,20C10.7,20,10.7,20,10.7,20c-0.2,0-0.3-0.1-0.3-0.3c0,0,0,0,0,0l0-0.2c0-0.1,0.2-0.3,0.3-0.2
				c0.1,0,0.2,0.1,0.2,0.3c0,0,0,0,0,0l0,0.2C11,19.9,10.9,20,10.7,20z"/>
		</g>
		<g>
			<polygon fill="#FFFFFF" points="10.9,19.1 10.8,19.3 10.9,19.1 			"/>
			<path fill="#231F20" d="M10.8,19.6C10.8,19.6,10.8,19.6,10.8,19.6c-0.2,0-0.3-0.1-0.3-0.3c0,0,0,0,0-0.1l0-0.2
				c0-0.1,0.2-0.2,0.3-0.2c0.1,0,0.2,0.1,0.2,0.3c0,0,0,0,0,0.1l0,0.2C11,19.5,10.9,19.6,10.8,19.6z"/>
		</g>
		<g>
			<polygon fill="#FFFFFF" points="11,18.5 11.3,18 10.9,18.9 11,18.5 			"/>
			<path fill="#231F20" d="M10.9,19.2C10.9,19.2,10.8,19.2,10.9,19.2c-0.2-0.1-0.3-0.2-0.3-0.4l0.1-0.4c0,0,0,0,0,0l0.2-0.5
				c0.1-0.1,0.2-0.2,0.4-0.2c0.1,0.1,0.2,0.2,0.2,0.3l-0.4,1C11.1,19.1,11,19.2,10.9,19.2z"/>
		</g>
		<g>
			<polygon fill="#FFFFFF" points="24.2,11.3 24.9,11.3 24.2,11.3 			"/>
			<path fill="#231F20" d="M24.2,11.6c-0.1,0-0.3-0.1-0.3-0.3c0,0,0,0,0,0c0-0.1,0.1-0.3,0.3-0.3l0.6,0c0.2,0,0.3,0.1,0.3,0.3
				c0,0,0,0,0,0c0,0.1-0.1,0.3-0.3,0.3L24.2,11.6C24.2,11.6,24.2,11.6,24.2,11.6z"/>
		</g>
		<g>
			<polygon fill="#FFFFFF" points="13.2,15.4 13,15.7 13.2,15.4 			"/>
			<path fill="#231F20" d="M13,15.9c-0.1,0-0.1,0-0.2-0.1c0-0.1-0.1-0.1-0.1-0.2c0-0.1,0-0.1,0.1-0.2l0.3-0.2c0.1-0.1,0.3-0.1,0.4,0
				c0,0.1,0.1,0.1,0.1,0.2c0,0.1,0,0.1-0.1,0.2l-0.3,0.2C13.1,15.9,13,15.9,13,15.9z"/>
		</g>
		<g>
			<polygon fill="#FFFFFF" points="12.2,16.5 12.4,16.3 12.2,16.5 			"/>
			<path fill="#231F20" d="M12.2,16.7c-0.1,0-0.1,0-0.2-0.1c-0.1-0.1-0.1-0.1-0.1-0.2c0-0.1,0-0.1,0.1-0.2l0.1-0.2
				c0.1-0.1,0.3-0.1,0.4,0c0.1,0.1,0.1,0.1,0.1,0.2c0,0.1,0,0.1-0.1,0.2l-0.1,0.2C12.4,16.7,12.3,16.7,12.2,16.7z"/>
		</g>
		<g>
			<polygon fill="#FFFFFF" points="38.4,22.7 38.7,25.9 41,23.6 41.8,22.1 42.1,19.9 37.7,14 38.4,22.7 			"/>
			<path fill="#231F20" d="M38.7,26.2C38.7,26.2,38.6,26.2,38.7,26.2c-0.2-0.1-0.3-0.1-0.3-0.3l-1-11.9c0-0.1,0.1-0.2,0.2-0.3
				c0.1,0,0.2,0,0.3,0.1l4.3,5.8c0,0.1,0.1,0.1,0.1,0.2L42,22.2c0,0,0,0.1,0,0.1l-0.7,1.4c0,0,0,0,0,0.1l-2.3,2.4
				C38.8,26.2,38.8,26.2,38.7,26.2z M38.1,14.9l0.9,10.4l1.9-1.9l0.7-1.4l0.3-2.1L38.1,14.9z"/>
		</g>
		<g>
			<polygon fill="#FFFFFF" points="11.9,16.8 12,16.7 11.9,16.8 			"/>
			<path fill="#231F20" d="M11.9,17.1c-0.1,0-0.1,0-0.2-0.1c-0.1-0.1-0.1-0.1-0.1-0.2c0-0.1,0-0.1,0.1-0.2l0.1-0.1
				c0.1-0.1,0.3-0.1,0.4-0.1c0.1,0.1,0.1,0.1,0.1,0.2c0,0.1,0,0.1-0.1,0.2L12.2,17C12.1,17,12,17.1,11.9,17.1z"/>
		</g>
		<g>
			<polygon fill="#FFFFFF" points="26.1,11.2 26.8,11.2 26.1,11.2 			"/>
			<path fill="#231F20" d="M26.8,11.5L26.8,11.5l-0.7,0c-0.2,0-0.3-0.1-0.3-0.3c0-0.2,0.1-0.3,0.3-0.3h0l0.7,0
				c0.2,0,0.3,0.1,0.3,0.3C27.1,11.4,27,11.5,26.8,11.5z"/>
		</g>
		<g>
			<polygon fill="#FFFFFF" points="13.7,15 13.3,15.3 13.7,15 			"/>
			<path fill="#231F20" d="M13.3,15.6c-0.1,0-0.2,0-0.2-0.1c0-0.1-0.1-0.1-0.1-0.2c0-0.1,0-0.2,0.1-0.2l0.4-0.3
				c0.1-0.1,0.3-0.1,0.4,0c0,0.1,0.1,0.1,0.1,0.2c0,0.1,0,0.2-0.1,0.2l-0.4,0.3C13.5,15.6,13.4,15.6,13.3,15.6z"/>
		</g>
		<g>
			<polyline fill="#FFFFFF" points="17.6,15 35.6,15.2 38,17.3 37.7,14 37.7,14 30.8,11.5 22.4,11.4 14.4,14.4 11.8,17 10.9,18.9 
				10.7,19.8 15.1,26.6 15.1,26.6 			"/>
			<path fill="#231F20" d="M15.1,26.9c-0.1,0-0.2,0-0.2-0.1l-4.3-6.9c0-0.1-0.1-0.1,0-0.2l0.2-0.9c0,0,0,0,0-0.1l0.9-1.9
				c0,0,0-0.1,0.1-0.1l2.6-2.6c0,0,0.1,0,0.1-0.1l7.9-2.9c0,0,0.1,0,0.1,0l8.5,0.1c0,0,0.1,0,0.1,0l6.9,2.5c0.1,0,0.2,0.1,0.2,0.2
				l0.3,3.2c0,0.1,0,0.2-0.1,0.3c-0.1,0.1-0.2,0-0.3,0l-2.3-2l-17.9-0.2c-0.2,0-0.3-0.1-0.3-0.3c0-0.1,0.1-0.3,0.3-0.3c0,0,0,0,0,0
				l18,0.2c0.1,0,0.1,0,0.2,0.1l1.9,1.6l-0.2-2.4l-6.7-2.4l-8.4-0.1l-7.8,2.9l-2.5,2.5L11.2,19L11,19.7l4.3,6.8
				c0.1,0.1,0,0.3-0.1,0.4C15.2,26.9,15.1,26.9,15.1,26.9z"/>
		</g>
		<g>
			<polyline fill="#FFFFFF" points="39,25.7 38.7,25.9 38.4,22.7 35.2,25.6 			"/>
			<path fill="#231F20" d="M38.7,26.2c0,0-0.1,0-0.1,0c-0.1,0-0.2-0.1-0.2-0.2l-0.2-2.7l-2.8,2.6c-0.1,0.1-0.3,0.1-0.4,0
				c-0.1-0.1-0.1-0.3,0-0.4l3.2-2.9c0.1-0.1,0.2-0.1,0.3-0.1c0.1,0,0.2,0.1,0.2,0.2l0.2,2.8c0.1,0,0.2,0,0.2,0.1
				c0.1,0.1,0.1,0.3-0.1,0.4l-0.2,0.2C38.8,26.2,38.8,26.2,38.7,26.2z"/>
		</g>
		<g>
			<polygon fill="#FFFFFF" points="41.4,23 41,23.6 41.6,22.5 41.4,23 			"/>
			<path fill="#231F20" d="M41,23.8c0,0-0.1,0-0.1,0c-0.1-0.1-0.2-0.2-0.1-0.4l0.6-1c0.1-0.1,0.2-0.2,0.4-0.1
				c0.1,0.1,0.2,0.2,0.1,0.4l-0.2,0.4c0,0,0,0,0,0l-0.4,0.6C41.2,23.8,41.1,23.8,41,23.8z"/>
		</g>
		<g>
			<polygon fill="#FFFFFF" points="41.9,21.7 41.8,22 41.9,21.7 			"/>
			<path fill="#231F20" d="M41.8,22.3C41.8,22.3,41.8,22.3,41.8,22.3c-0.2,0-0.3-0.2-0.3-0.3c0,0,0-0.1,0-0.1l0.1-0.3
				c0-0.1,0.2-0.2,0.3-0.2c0.1,0,0.2,0.1,0.2,0.3c0,0,0,0.1,0,0.1l-0.1,0.3C42,22.2,41.9,22.3,41.8,22.3z"/>
		</g>
		<g>
			<polygon fill="#FFFFFF" points="42,21.3 41.9,21.5 42,21.3 			"/>
			<path fill="#231F20" d="M41.9,21.8C41.9,21.8,41.9,21.8,41.9,21.8c-0.2,0-0.3-0.1-0.3-0.3c0,0,0,0,0-0.1l0.1-0.3
				c0-0.1,0.2-0.2,0.3-0.2c0.1,0,0.2,0.1,0.2,0.3c0,0,0,0,0,0.1l-0.1,0.3C42.2,21.7,42.1,21.8,41.9,21.8z"/>
		</g>
		<g>
			<polygon fill="#FFFFFF" points="39.9,25 39.6,25.2 39.9,25 			"/>
			<path fill="#231F20" d="M39.6,25.5c-0.1,0-0.1,0-0.2-0.1c0-0.1-0.1-0.1-0.1-0.2c0-0.1,0-0.1,0.1-0.2l0.3-0.2
				c0.1-0.1,0.3-0.1,0.4,0c0,0.1,0.1,0.1,0.1,0.2c0,0.1,0,0.1-0.1,0.2l-0.3,0.2C39.7,25.4,39.7,25.5,39.6,25.5z"/>
		</g>
		<g>
			<polygon fill="#FFFFFF" points="42.1,19.9 42.1,20.1 42.1,19.9 			"/>
			<path fill="#231F20" d="M42.1,20.4c-0.1,0-0.3-0.1-0.3-0.3l0-0.3c0,0,0,0,0,0c0-0.1,0.1-0.3,0.3-0.3c0.1,0,0.3,0.1,0.3,0.3l0,0.3
				c0,0,0,0,0,0C42.4,20.3,42.2,20.4,42.1,20.4C42.1,20.4,42.1,20.4,42.1,20.4z"/>
		</g>
		<g>
			<polygon fill="#FFFFFF" points="42.1,20.8 42,21.1 42.1,20.8 			"/>
			<path fill="#231F20" d="M42,21.3C42,21.3,42,21.3,42,21.3c-0.2,0-0.3-0.1-0.3-0.3c0,0,0,0,0,0l0-0.3c0-0.1,0.2-0.3,0.3-0.2
				c0.1,0,0.2,0.1,0.2,0.3c0,0,0,0,0,0l0,0.3C42.3,21.2,42.2,21.3,42,21.3z"/>
		</g>
		<g>
			<polygon fill="#FFFFFF" points="40.4,24.4 40.6,24.1 40.4,24.4 			"/>
			<path fill="#231F20" d="M40.4,24.7c-0.1,0-0.1,0-0.2-0.1c-0.1-0.1-0.1-0.1-0.1-0.2c0-0.1,0-0.1,0.1-0.2l0.3-0.3
				c0.1-0.1,0.3-0.1,0.4,0c0.1,0.1,0.1,0.1,0.1,0.2c0,0.1,0,0.1-0.1,0.2l-0.3,0.3C40.5,24.7,40.4,24.7,40.4,24.7z"/>
		</g>
		<g>
			<polygon fill="#FFFFFF" points="40.7,24 41,23.7 40.7,24 			"/>
			<path fill="#231F20" d="M40.7,24.2c-0.1,0-0.1,0-0.2-0.1c-0.1-0.1-0.1-0.1-0.1-0.2c0-0.1,0-0.1,0.1-0.2l0.2-0.3
				c0.1-0.1,0.3-0.2,0.4-0.1c0.1,0.1,0.1,0.1,0.1,0.2c0,0.1,0,0.1-0.1,0.2L41,24.1C40.9,24.2,40.8,24.2,40.7,24.2z"/>
		</g>
		<g>
			<polygon fill="#FFFFFF" points="39.4,25.4 39.1,25.6 39.4,25.4 			"/>
			<path fill="#231F20" d="M39.1,25.9c-0.1,0-0.2,0-0.2-0.1c0-0.1-0.1-0.1-0.1-0.2c0-0.1,0-0.2,0.1-0.2l0.3-0.2
				c0.1-0.1,0.3-0.1,0.4,0c0,0.1,0.1,0.1,0.1,0.2c0,0.1,0,0.2-0.1,0.2l-0.3,0.2C39.3,25.9,39.2,25.9,39.1,25.9z"/>
		</g>
		<g>
			<polygon fill="#FFFFFF" points="42.1,20.3 42.1,20.6 42.1,20.3 			"/>
			<path fill="#231F20" d="M42.1,20.9C42.1,20.9,42.1,20.9,42.1,20.9c-0.2,0-0.3-0.1-0.3-0.3c0,0,0,0,0,0l0-0.3
				c0-0.2,0.1-0.3,0.3-0.3c0.1,0,0.3,0.1,0.3,0.3c0,0,0,0,0,0l0,0.3C42.3,20.8,42.2,20.9,42.1,20.9z"/>
		</g>
		<g>
			<polygon fill="#FFFFFF" points="39.9,24.9 40.3,24.5 39.9,24.9 			"/>
			<path fill="#231F20" d="M39.9,25.2c-0.1,0-0.1,0-0.2-0.1c-0.1-0.1-0.1-0.1-0.1-0.2c0-0.1,0-0.1,0.1-0.2l0.3-0.3
				c0.1-0.1,0.3-0.1,0.4,0c0.1,0.1,0.1,0.1,0.1,0.2c0,0.1,0,0.1-0.1,0.2l-0.3,0.3C40.1,25.1,40,25.2,39.9,25.2z"/>
		</g>
		<g>
			<polygon fill="#FFFFFF" points="41.6,22.5 41.8,22.1 41.6,22.5 			"/>
			<path fill="#231F20" d="M41.6,22.7C41.6,22.7,41.6,22.7,41.6,22.7c-0.2-0.1-0.3-0.2-0.3-0.3c0,0,0-0.1,0-0.1l0.1-0.3
				c0.1-0.1,0.2-0.2,0.4-0.2c0.1,0,0.2,0.1,0.2,0.3c0,0,0,0.1,0,0.1l-0.1,0.3C41.8,22.7,41.7,22.7,41.6,22.7z"/>
		</g>
		<g>
			<g>
				<g>
					<polygon fill="#FFFFFF" points="37.8,10.2 42,14.4 39.2,14.8 35.8,11.4 37.8,10.2 					"/>
					<path fill="#231F20" d="M39.2,15.1c-0.1,0-0.1,0-0.2-0.1l-3.4-3.4c-0.1-0.1-0.1-0.1-0.1-0.2c0-0.1,0.1-0.2,0.1-0.2l2.1-1.2
						c0.1-0.1,0.2,0,0.3,0l4.2,4.2c0.1,0.1,0.1,0.2,0.1,0.3c0,0.1-0.1,0.2-0.2,0.2L39.2,15.1C39.2,15.1,39.2,15.1,39.2,15.1z
						 M36.2,11.5l3.1,3.1l2.2-0.3l-3.6-3.6L36.2,11.5z"/>
				</g>
			</g>
			<g>
				<g>
					<polygon fill="#FFFFFF" points="42,14.4 42,19 39.2,19.4 39.2,14.8 42,14.4 					"/>
					<path fill="#231F20" d="M39.2,19.7c-0.1,0-0.1,0-0.2-0.1c-0.1-0.1-0.1-0.1-0.1-0.2l0-4.6c0-0.1,0.1-0.2,0.2-0.3l2.8-0.4
						c0.1,0,0.2,0,0.2,0.1c0.1,0.1,0.1,0.1,0.1,0.2l0,4.6c0,0.1-0.1,0.2-0.2,0.3L39.2,19.7C39.2,19.7,39.2,19.7,39.2,19.7z M39.5,15
						l0,4.1l2.3-0.4l0-4.1L39.5,15z"/>
				</g>
			</g>
			<g>
				<polygon fill="#FFFFFF" points="39.2,14.8 39.2,19.4 35.8,16 35.8,11.4 39.2,14.8 				"/>
				<path fill="#231F20" d="M39.2,19.7c-0.1,0-0.1,0-0.2-0.1l-3.4-3.4c-0.1-0.1-0.1-0.1-0.1-0.2l0-4.6c0-0.1,0.1-0.2,0.2-0.3
					c0.1,0,0.2,0,0.3,0.1l3.4,3.4c0.1,0.1,0.1,0.1,0.1,0.2l0,4.6c0,0.1-0.1,0.2-0.2,0.3C39.2,19.7,39.2,19.7,39.2,19.7z M36,15.9
					l2.9,2.9l0-3.9L36,12L36,15.9z"/>
			</g>
		</g>
		<g>
			<g>
				<g>
					<polygon fill="#FFFFFF" points="30.6,7.8 30.6,11.5 29.9,13.2 29.9,9.4 30.6,7.8 					"/>
					<path fill="#231F20" d="M29.9,13.4C29.8,13.4,29.8,13.4,29.9,13.4c-0.2,0-0.3-0.1-0.3-0.3l0-3.8c0,0,0-0.1,0-0.1l0.8-1.6
						c0.1-0.1,0.2-0.2,0.3-0.2c0.1,0,0.2,0.1,0.2,0.3l0,3.8c0,0,0,0.1,0,0.1l-0.8,1.6C30.1,13.4,30,13.4,29.9,13.4z M30.1,9.5l0,2.4
						l0.2-0.4l0-2.4L30.1,9.5z"/>
				</g>
			</g>
			<g>
				<g>
					<polygon fill="#FFFFFF" points="30.6,7.8 29.9,9.4 23.1,9.4 22.3,7.8 30.6,7.8 					"/>
					<path fill="#231F20" d="M23.1,9.7c-0.1,0-0.2-0.1-0.2-0.2l-0.8-1.6c0-0.1,0-0.2,0-0.3c0.1-0.1,0.1-0.1,0.2-0.1l8.3,0
						c0.1,0,0.2,0,0.2,0.1c0.1,0.1,0.1,0.2,0,0.3l-0.8,1.6c0,0.1-0.1,0.2-0.2,0.2L23.1,9.7z M22.7,8.1l0.5,1.1l6.4,0l0.5-1.1
						L22.7,8.1z"/>
				</g>
			</g>
			<g>
				<g>
					<polygon fill="#FFFFFF" points="23.1,9.4 23.1,13.2 22.3,11.5 22.3,7.8 23.1,9.4 					"/>
					<path fill="#231F20" d="M23.1,13.4c-0.1,0-0.2-0.1-0.2-0.2l-0.8-1.6c0,0,0-0.1,0-0.1l0-3.8c0-0.1,0.1-0.2,0.2-0.3
						c0.1,0,0.3,0,0.3,0.2l0.8,1.6c0,0,0,0.1,0,0.1l0,3.8C23.3,13.3,23.3,13.4,23.1,13.4C23.1,13.4,23.1,13.4,23.1,13.4z M22.6,11.5
						l0.2,0.5l0-2.5L22.6,9L22.6,11.5z"/>
				</g>
			</g>
		</g>
		<g>
			<g>
				<g>
					<polygon fill="#FFFFFF" points="17.2,11.4 13.8,14.8 11,14.4 15.1,10.2 17.2,11.4 					"/>
					<path fill="#231F20" d="M13.8,15.1C13.8,15.1,13.8,15.1,13.8,15.1L11,14.6c-0.1,0-0.2-0.1-0.2-0.2c0-0.1,0-0.2,0.1-0.3l4.1-4.2
						c0.1-0.1,0.2-0.1,0.3,0l2.1,1.2c0.1,0,0.1,0.1,0.1,0.2c0,0.1,0,0.2-0.1,0.2L14,15C14,15,13.9,15.1,13.8,15.1z M11.6,14.2
						l2.2,0.3l3-3.1l-1.6-0.9L11.6,14.2z"/>
				</g>
			</g>
			<g>
				<polyline fill="#FFFFFF" points="17.2,25.4 13.8,19.2 13.8,14.8 17.2,11.4 17.2,15.2 23.1,13.2 23.1,9.4 29.9,9.4 29.9,13.2 
					35.8,15.3 35.8,11.4 39.2,14.8 39.2,14.8 39.2,19.4 39.2,19.4 38.4,22.7 35.2,25.6 30.7,26.9 				"/>
				<path fill="#231F20" d="M30.7,27.1c-0.1,0-0.2-0.1-0.3-0.2c0-0.1,0-0.3,0.2-0.3l4.4-1.2l3.1-2.8l0.7-3.1l0-4.5L36,12l0,3.3
					c0,0.1,0,0.2-0.1,0.2c-0.1,0.1-0.2,0.1-0.2,0l-5.9-2.1c-0.1,0-0.2-0.1-0.2-0.3l0-3.5h-6.2l0,3.5c0,0.1-0.1,0.2-0.2,0.3l-5.9,2
					c-0.1,0-0.2,0-0.2,0c-0.1-0.1-0.1-0.1-0.1-0.2l0-3.2l-2.8,2.9l0,4.2l3.3,6.2c0.1,0.1,0,0.3-0.1,0.4c-0.1,0.1-0.3,0-0.4-0.1
					l-3.4-6.3c0,0,0-0.1,0-0.1l0-4.4c0-0.1,0-0.1,0.1-0.2l3.4-3.4c0.1-0.1,0.2-0.1,0.3-0.1c0.1,0,0.2,0.1,0.2,0.3l0,3.5l5.3-1.8
					l0-3.6c0-0.2,0.1-0.3,0.3-0.3h6.8c0.1,0,0.1,0,0.2,0.1c0.1,0.1,0.1,0.1,0.1,0.2l0,3.6l5.3,1.9l0-3.5c0-0.1,0.1-0.2,0.2-0.3
					c0.1,0,0.2,0,0.3,0.1l3.4,3.4c0.1,0.1,0.1,0.1,0.1,0.2l0,4.6c0,0,0,0,0,0.1l-0.7,3.3c0,0.1,0,0.1-0.1,0.1l-3.2,2.9
					c0,0-0.1,0-0.1,0.1L30.7,27.1C30.8,27.1,30.8,27.1,30.7,27.1z"/>
			</g>
			<g>
				<g>
					<polygon fill="#FFFFFF" points="13.8,14.8 13.8,18.8 11,18.4 11,14.4 13.8,14.8 					"/>
					<path fill="#231F20" d="M13.8,19.1C13.8,19.1,13.8,19.1,13.8,19.1l-2.9-0.4c-0.1,0-0.2-0.1-0.2-0.3l0-4c0-0.1,0-0.2,0.1-0.2
						c0.1-0.1,0.1-0.1,0.2-0.1l2.8,0.4c0.1,0,0.2,0.1,0.2,0.3l0,4c0,0.1,0,0.2-0.1,0.2C14,19.1,13.9,19.1,13.8,19.1z M11.3,18.2
						l2.3,0.4l0-3.5l-2.3-0.4L11.3,18.2z"/>
				</g>
			</g>
		</g>
		<g>
			<g>
				<polygon fill="#FFFFFF" points="30,24.1 30.7,25.8 22.4,25.8 23.2,24.1 30,24.1 				"/>
				<path fill="#231F20" d="M30.7,26C30.7,26,30.7,26,30.7,26h-8.3c-0.1,0-0.2,0-0.2-0.1c-0.1-0.1-0.1-0.2,0-0.3l0.8-1.6
					c0-0.1,0.1-0.2,0.2-0.2H30c0.1,0,0.2,0.1,0.2,0.2l0.8,1.6c0,0,0,0.1,0,0.1C31,25.9,30.9,26,30.7,26z M22.8,25.5h7.5l-0.5-1.1
					h-6.4L22.8,25.5z"/>
			</g>
		</g>
		<g>
			<g>
				<polygon fill="#FFFFFF" points="17.3,22.1 17.3,25.4 15.2,26.7 15.2,23.3 17.3,22.1 				"/>
				<path fill="#231F20" d="M15.2,26.9c0,0-0.1,0-0.1,0c-0.1,0-0.1-0.1-0.1-0.2l0-3.3c0-0.1,0.1-0.2,0.1-0.2l2.1-1.2
					c0.1,0,0.2,0,0.3,0c0.1,0,0.1,0.1,0.1,0.2l0,3.3c0,0.1-0.1,0.2-0.1,0.2l-2.1,1.2C15.3,26.9,15.2,26.9,15.2,26.9z M15.5,23.5
					l0,2.7l1.5-0.9l0-2.7L15.5,23.5z"/>
			</g>
		</g>
		<g>
			<polygon fill="#FFFFFF" points="44,45.9 42.1,19.7 42.1,20.8 42,19.2 40.3,21.6 37.9,23.3 37.9,26.5 30.7,29.1 30.7,25.8 
				22.4,25.8 22.4,29.1 15.2,26.7 15.2,23.3 11,19.2 10.7,19.8 9,46.9 9.6,49.1 10.9,51.2 16,55 26.7,57.2 32.1,56.6 39.5,53.5 
				41.8,51.5 43.3,49.2 44,45.9 			"/>
			<path fill="#231F20" d="M26.7,57.5C26.7,57.5,26.6,57.5,26.7,57.5L16,55.3c0,0-0.1,0-0.1,0l-5.1-3.8c0,0,0,0-0.1-0.1l-1.3-2.1
				c0,0,0,0,0-0.1L8.7,47c0,0,0-0.1,0-0.1l1.7-27.2c0,0,0-0.1,0-0.1l0.3-0.6c0-0.1,0.1-0.1,0.2-0.2c0.1,0,0.2,0,0.2,0.1l4.2,4.2
				c0.1,0.1,0.1,0.1,0.1,0.2l0,3.2l6.7,2.2l0-3c0-0.2,0.1-0.3,0.3-0.3h8.3c0.1,0,0.1,0,0.2,0.1c0.1,0.1,0.1,0.1,0.1,0.2l0,2.9
				l6.6-2.4l0-2.9c0-0.1,0-0.2,0.1-0.2l2.4-1.8l1.7-2.3c0.1-0.1,0.2-0.1,0.3-0.1c0.1,0,0.2,0.1,0.2,0.3l0,0.5c0,0,0,0,0,0l2,26.2
				c0,0,0,0.1,0,0.1l-0.8,3.3c0,0,0,0.1,0,0.1L42,51.6c0,0,0,0,0,0.1l-2.3,2c0,0,0,0-0.1,0l-7.4,3.1c0,0-0.1,0-0.1,0L26.7,57.5
				C26.7,57.5,26.7,57.5,26.7,57.5z M16.2,54.8l10.5,2.2l5.3-0.6l7.3-3.1l2.2-1.9l1.5-2.2l0.7-3.2l-1.9-25c-0.1,0-0.1-0.1-0.1-0.2
				l0-0.8l-1.2,1.7c0,0,0,0-0.1,0.1l-2.3,1.7l0,3c0,0.1-0.1,0.2-0.2,0.3l-7.2,2.6c-0.1,0-0.2,0-0.2,0c-0.1-0.1-0.1-0.1-0.1-0.2l0-3
				h-7.8l0,3.1c0,0.1,0,0.2-0.1,0.2c-0.1,0.1-0.2,0.1-0.2,0L15.1,27c-0.1,0-0.2-0.1-0.2-0.3l0-3.2l-3.8-3.8L11,19.8L9.3,46.9L9.9,49
				l1.3,2L16.2,54.8z"/>
		</g>
		<g>
			<g>
				<polygon fill="#FFFFFF" points="42,19.2 37.9,23.3 35.8,22.1 39.2,18.7 42,19.2 				"/>
				<path fill="#231F20" d="M37.9,23.6c0,0-0.1,0-0.1,0l-2.1-1.2c-0.1,0-0.1-0.1-0.1-0.2c0-0.1,0-0.2,0.1-0.2l3.4-3.4
					c0.1-0.1,0.1-0.1,0.2-0.1l2.8,0.4c0.1,0,0.2,0.1,0.2,0.2c0,0.1,0,0.2-0.1,0.3l-4.1,4.2C38.1,23.6,38,23.6,37.9,23.6z M36.3,22.1
					l1.6,0.9l3.6-3.6L39.3,19L36.3,22.1z"/>
			</g>
		</g>
		<g>
			<g>
				<polygon fill="#FFFFFF" points="37.9,23.3 37.9,26.4 35.8,25.1 35.8,22.1 37.9,23.3 				"/>
				<path fill="#231F20" d="M37.9,26.6c0,0-0.1,0-0.1,0l-2.1-1.2c-0.1,0-0.1-0.1-0.1-0.2l0-3c0-0.1,0.1-0.2,0.1-0.2
					c0.1,0,0.2,0,0.3,0l2.1,1.2c0.1,0,0.1,0.1,0.1,0.2l0,3c0,0.1-0.1,0.2-0.1,0.2C38,26.6,37.9,26.6,37.9,26.6z M36.1,25l1.5,0.9
					l0-2.4l-1.5-0.9L36.1,25z"/>
			</g>
		</g>
		<g>
			<g>
				<polygon fill="#FFFFFF" points="13.9,18.7 17.3,22.1 15.2,23.3 11,19.2 13.9,18.7 				"/>
				<path fill="#231F20" d="M15.2,23.6c-0.1,0-0.1,0-0.2-0.1l-4.2-4.2c-0.1-0.1-0.1-0.2-0.1-0.3c0-0.1,0.1-0.2,0.2-0.2l2.8-0.4
					c0.1,0,0.2,0,0.2,0.1l3.4,3.4c0.1,0.1,0.1,0.1,0.1,0.2c0,0.1-0.1,0.2-0.1,0.2l-2.1,1.2C15.3,23.6,15.2,23.6,15.2,23.6z
					 M11.6,19.4l3.6,3.6l1.6-0.9L13.8,19L11.6,19.4z"/>
			</g>
		</g>
		<g>
			<path fill="#231F20" d="M36.5,21.6c0,0-0.1,0-0.1,0l-6.4-3.3h-6.8l-6.7,3.1c-0.1,0.1-0.3,0-0.4-0.1c-0.1-0.1,0-0.3,0.1-0.4
				l6.7-3.1c0,0,0.1,0,0.1,0H30c0,0,0.1,0,0.1,0l6.5,3.4c0.1,0.1,0.2,0.2,0.1,0.4C36.7,21.5,36.6,21.6,36.5,21.6z"/>
		</g>
		<g>
			<path fill="none" stroke="#221F1F" stroke-width="5" stroke-linecap="round" stroke-linejoin="round" stroke-miterlimit="10" d="
				M19.5,40.7"/>
		</g>
		<g>
			<path fill="#231F20" d="M19.7,38.5c-0.1,0-0.1,0-0.2-0.1c-0.1-0.1-0.1-0.1-0.1-0.2c0-0.1,0-0.1,0.1-0.2c0.1-0.1,0.3-0.1,0.4,0
				c0.1,0.1,0.1,0.1,0.1,0.2c0,0.1,0,0.1-0.1,0.2C19.9,38.4,19.8,38.5,19.7,38.5z"/>
		</g>
		<g>
			<path fill="#231F20" d="M27.7,48.4c-0.1,0-0.1,0-0.2-0.1c-0.1-0.1-0.1-0.1-0.1-0.2c0-0.1,0-0.1,0.1-0.2c0.1-0.1,0.3-0.1,0.4,0
				c0.1,0.1,0.1,0.1,0.1,0.2c0,0.1,0,0.1-0.1,0.2C27.8,48.3,27.8,48.4,27.7,48.4z"/>
		</g>
		<g>
			<path fill="#231F20" d="M36.3,38.5c-0.1,0-0.1,0-0.2-0.1c-0.1-0.1-0.1-0.1-0.1-0.2c0-0.1,0-0.1,0.1-0.2c0.1-0.1,0.3-0.1,0.4,0
				c0.1,0.1,0.1,0.1,0.1,0.2c0,0.1,0,0.1-0.1,0.2C36.5,38.4,36.4,38.5,36.3,38.5z"/>
		</g>
		<g>
			<path fill="#231F20" d="M38,36.5c-0.1,0-0.1,0-0.2-0.1c-0.1-0.1-0.1-0.1-0.1-0.2c0-0.1,0-0.1,0.1-0.2c0.1-0.1,0.3-0.1,0.4,0
				c0.1,0.1,0.1,0.1,0.1,0.2c0,0.1,0,0.1-0.1,0.2C38.1,36.5,38.1,36.5,38,36.5z"/>
		</g>
		<g>
			<path fill="#231F20" d="M17.8,41c-0.1,0-0.1,0-0.2-0.1c-0.1-0.1-0.1-0.1-0.1-0.2c0-0.1,0-0.1,0.1-0.2c0.1-0.1,0.3-0.1,0.4,0
				c0.1,0.1,0.1,0.1,0.1,0.2c0,0.1,0,0.1-0.1,0.2C18,41,17.9,41,17.8,41z"/>
		</g>
		<g>
			<path fill="#231F20" d="M5.8,48.6c-0.1,0-0.1,0-0.2-0.1c-0.1-0.1-0.1-0.1-0.1-0.2c0-0.1,0-0.1,0.1-0.2C5.7,48,5.8,48,6,48.1
				C6,48.2,6,48.2,6,48.3c0,0.1,0,0.1-0.1,0.2C5.9,48.5,5.8,48.6,5.8,48.6z"/>
		</g>
		<g>
			<path fill="#231F20" d="M4.6,44.6c-0.1,0-0.1,0-0.2-0.1c-0.1-0.1-0.1-0.1-0.1-0.2c0-0.1,0-0.1,0.1-0.2c0.1-0.1,0.3-0.1,0.4,0
				c0.1,0.1,0.1,0.1,0.1,0.2c0,0.1,0,0.1-0.1,0.2C4.7,44.6,4.7,44.6,4.6,44.6z"/>
		</g>
		<g>
			<path fill="#231F20" d="M1.4,47.3c-0.1,0-0.1,0-0.2-0.1c-0.1-0.1-0.1-0.1-0.1-0.2c0-0.1,0-0.1,0.1-0.2c0.1-0.1,0.3-0.1,0.4,0
				C1.6,46.9,1.7,47,1.7,47c0,0.1,0,0.1-0.1,0.2C1.5,47.3,1.5,47.3,1.4,47.3z"/>
		</g>
		<g>
			<path fill="#231F20" d="M16.2,36.5c-0.1,0-0.1,0-0.2-0.1c-0.1-0.1-0.1-0.1-0.1-0.2c0-0.1,0-0.1,0.1-0.2c0.1-0.1,0.3-0.1,0.4,0
				c0.1,0.1,0.1,0.1,0.1,0.2c0,0.1,0,0.1-0.1,0.2C16.4,36.5,16.3,36.5,16.2,36.5z"/>
		</g>
		<g>
			<line fill="#FFFFFF" x1="17.3" y1="25.4" x2="22" y2="26.9"/>
			<path fill="#231F20" d="M22,27.1C22,27.1,22,27.1,22,27.1l-4.8-1.4c-0.1,0-0.2-0.2-0.2-0.3c0-0.1,0.2-0.2,0.3-0.2l4.8,1.4
				c0.1,0,0.2,0.2,0.2,0.3C22.2,27.1,22.1,27.1,22,27.1z"/>
		</g>
	</g>
</g>
</svg>
