<?xml version="1.0" encoding="utf-8"?>
<!-- Generator: Adobe Illustrator 18.1.1, SVG Export Plug-In . SVG Version: 6.00 Build 0)  -->
<!DOCTYPE svg PUBLIC "-//W3C//DTD SVG 1.1//EN" "http://www.w3.org/Graphics/SVG/1.1/DTD/svg11.dtd">
<svg version="1.1" id="Layer_1" xmlns="http://www.w3.org/2000/svg" xmlns:xlink="http://www.w3.org/1999/xlink" x="0px" y="0px"
	 viewBox="0 0 55 65" enable-background="new 0 0 55 65" xml:space="preserve">
<g>
	<g>
		<g>
			<g>
				<path fill="#231F20" d="M49.6,28.3c1.2-1,2.6-2.1,3.3-3.6c0.6-1.1,1-4.2-0.3-5.1L49.2,23"/>
			</g>
		</g>
		<g>
			<g>
				<path fill="#231F20" d="M49.6,28.6c-0.1,0-0.2,0-0.2-0.1c-0.1-0.1-0.1-0.3,0-0.4l0.1-0.1c1.2-1,2.4-2,3.1-3.3
					c0.5-1,0.9-3.7,0-4.6l-3.3,3.2c-0.1,0.1-0.3,0.1-0.4,0c-0.1-0.1-0.1-0.3,0-0.4l3.4-3.4c0.1-0.1,0.2-0.1,0.3,0
					c1.4,1,0.9,4.3,0.3,5.5c-0.7,1.5-2,2.5-3.2,3.5l-0.1,0.1C49.7,28.6,49.6,28.6,49.6,28.6z"/>
			</g>
		</g>
	</g>
	<g>
		<g>
			<g>
				<path fill="#231F20" d="M38.5,18.5c0,0,5.9-3.2,9.4-1.1l-4.6,3.7l1.5-0.1l-2,4.7l-5.1-1.2l-1.7-2.2"/>
			</g>
		</g>
		<g>
			<g>
				<path fill="#231F20" d="M42.7,26C42.6,26,42.6,26,42.7,26l-5.2-1.2c-0.1,0-0.1,0-0.2-0.1l-1.7-2.2c-0.1-0.1-0.1-0.3,0-0.4
					c0.1-0.1,0.3-0.1,0.4,0l1.7,2.2l4.8,1.1l1.8-4.1l-1.1,0c-0.1,0-0.2-0.1-0.3-0.2c0-0.1,0-0.2,0.1-0.3l4.3-3.5
					c-3.4-1.5-8.7,1.3-8.8,1.3c-0.1,0.1-0.3,0-0.4-0.1c-0.1-0.1,0-0.3,0.1-0.4c0.1,0,1.5-0.8,3.4-1.3c2.6-0.7,4.7-0.7,6.2,0.2
					c0.1,0,0.1,0.1,0.1,0.2c0,0.1,0,0.2-0.1,0.2l-4,3.2l0.7,0c0.1,0,0.2,0,0.2,0.1c0.1,0.1,0.1,0.2,0,0.3l-2,4.7
					C42.9,26,42.8,26,42.7,26z"/>
			</g>
		</g>
	</g>
	<g>
		<g>
			<g>
				<g>
					<polygon fill="#FFFFFF" points="45.4,15.6 40.7,19.6 40.7,21.8 45.4,17.8 					"/>
				</g>
			</g>
			<g>
				<g>
					<path fill="#231F20" d="M40.7,22.1c0,0-0.1,0-0.1,0c-0.1,0-0.2-0.1-0.2-0.2l0-2.2c0-0.1,0-0.1,0.1-0.2l4.7-4.1
						c0.1-0.1,0.2-0.1,0.3,0c0.1,0,0.2,0.1,0.2,0.2l0,2.2c0,0.1,0,0.1-0.1,0.2L40.9,22C40.8,22.1,40.8,22.1,40.7,22.1z M41,19.7
						l0,1.5l4.2-3.6l0-1.5L41,19.7z"/>
				</g>
			</g>
		</g>
		<g>
			<g>
				<g>
					<path fill="#FFFFFF" d="M51.6,22.3C51.6,22.3,51.6,22.3,51.6,22.3l0-1.5c0,0,0,0.1,0,0.1c0,0,0,0,0,0c0,0.1,0,0.2,0,0.2
						c0,0,0,0,0,0c0,0.1,0,0.2,0,0.3c0,0,0,0,0,0c0,0,0,0,0,0c0,0.1,0,0.2-0.1,0.2c0,0,0,0,0,0.1c0,0.1-0.1,0.2-0.1,0.3c0,0,0,0,0,0
						c0,0,0,0,0,0c0,0.1-0.1,0.2-0.1,0.3c0,0,0,0,0,0c0,0.1-0.1,0.2-0.2,0.3c0,0,0,0,0,0c0,0,0,0,0,0c-0.1,0.1-0.1,0.2-0.2,0.4
						c0,0,0,0,0,0.1c-0.1,0.1-0.2,0.3-0.3,0.4c0,0,0,0,0,0c0,0,0,0,0,0c-0.1,0.1-0.1,0.1-0.2,0.2c0,0,0,0.1-0.1,0.1
						c-0.1,0.1-0.2,0.2-0.3,0.3c-0.1,0.1-0.1,0.2-0.2,0.2c0,0,0,0-0.1,0.1c0,0-0.1,0.1-0.1,0.1c0,0-0.1,0.1-0.1,0.1
						c-0.1,0.1-0.2,0.2-0.4,0.3c0,0-0.1,0.1-0.1,0.1c-0.1,0.1-0.2,0.1-0.2,0.2c0,0,0,0,0,0c0,0-0.1,0.1-0.1,0.1
						c-0.1,0.1-0.2,0.1-0.3,0.2c-0.1,0-0.1,0.1-0.2,0.1c-0.1,0-0.2,0.1-0.3,0.1c-0.1,0-0.1,0-0.2,0.1c-0.1,0-0.3,0.1-0.4,0.1
						c0,0-0.1,0-0.1,0c0,0,0,0,0,0c0,0-0.1,0-0.1,0c-0.2,0.1-0.3,0.1-0.5,0.1c-0.1,0-0.2,0-0.2,0.1c-0.2,0-0.3,0.1-0.5,0.1
						c0,0-0.1,0-0.1,0c-0.1,0-0.2,0-0.3,0c-0.1,0-0.1,0-0.2,0c-0.3,0-0.5,0.1-0.8,0.1c0,0-0.1,0-0.1,0c-0.1,0-0.1,0-0.2,0
						c-0.2,0-0.3,0.1-0.5,0.1c-0.1,0-0.2,0-0.3,0.1c-0.2,0-0.3,0.1-0.5,0.1c-0.1,0-0.1,0-0.2,0c-0.2,0.1-0.5,0.1-0.7,0.2
						c0,0-0.1,0-0.1,0c-0.2,0.1-0.4,0.1-0.5,0.2c0,0-0.1,0-0.1,0c0,0-0.1,0-0.1,0c-0.2,0.1-0.5,0.2-0.7,0.2c0,0-0.1,0-0.1,0
						c-0.3,0.1-0.5,0.2-0.8,0.3c-0.1,0-0.1,0-0.2,0.1c-0.5,0.2-1,0.4-1.5,0.7c-0.1,0-0.1,0.1-0.2,0.1c-0.2,0.1-0.5,0.2-0.7,0.4
						c0,0-0.1,0-0.1,0c-0.2,0.1-0.4,0.2-0.6,0.3c0,0-0.1,0.1-0.1,0.1c-0.2,0.1-0.4,0.3-0.7,0.4c0,0-0.1,0.1-0.1,0.1
						c-0.2,0.1-0.4,0.2-0.6,0.3c0,0,0,0-0.1,0c0,0,0,0,0,0c-0.2,0.1-0.5,0.3-0.7,0.4c0,0-0.1,0.1-0.1,0.1c-0.2,0.1-0.4,0.3-0.7,0.4
						c0,0,0,0-0.1,0c-0.2,0.1-0.4,0.3-0.6,0.4c0,0-0.1,0-0.1,0.1c-0.2,0.1-0.4,0.3-0.7,0.4c-0.3,0.2-0.5,0.3-0.8,0.5c0,0,0,0,0,0
						c-0.2,0.1-0.4,0.3-0.6,0.4c0,0-0.1,0.1-0.1,0.1c-0.2,0.1-0.4,0.3-0.6,0.4c0,0-0.1,0.1-0.1,0.1c-0.2,0.1-0.4,0.3-0.7,0.4
						c-2.8,1.7-5.6,3.4-8.3,5.2c-3.6,2.2-7.1,4.4-10.7,6.7c-0.1,0.1-0.3,0.2-0.4,0.2c0,0-0.1,0-0.1,0.1c-0.1,0.1-0.2,0.1-0.4,0.1
						c0,0-0.1,0-0.1,0c0,0,0,0-0.1,0c-0.1,0-0.2,0-0.2,0.1c-0.1,0-0.1,0-0.2,0c-0.1,0-0.2,0-0.3,0.1c-0.1,0-0.1,0-0.2,0c0,0,0,0,0,0
						c-0.2,0-0.4,0.1-0.5,0.1c0,0,0,0,0,0c0,0-0.1,0-0.1,0c-0.1,0-0.2,0-0.3,0c0,0-0.1,0-0.1,0c0,0-0.1,0-0.1,0c-0.1,0-0.2,0-0.3,0
						c0,0-0.1,0-0.1,0c0,0-0.1,0-0.1,0c-0.1,0-0.2,0-0.2,0c0,0-0.1,0-0.1,0c0,0-0.1,0-0.1,0c-0.1,0-0.2,0-0.2,0c0,0-0.1,0-0.1,0
						c0,0-0.1,0-0.1,0c-0.1,0-0.2,0-0.2,0c0,0-0.1,0-0.1,0c0,0-0.1,0-0.1,0c-0.1,0-0.2,0-0.3-0.1c0,0-0.1,0-0.1,0c0,0,0,0,0,0
						c-0.2-0.1-0.3-0.1-0.5-0.2c0,0,0,0,0,0c-0.1,0-0.1-0.1-0.2-0.1c0,0-0.1,0-0.1-0.1c-0.1-0.1-0.2-0.1-0.3-0.2
						c-0.2-0.1-0.4-0.3-0.6-0.4c-0.2-0.2-0.3-0.3-0.4-0.5c-0.1-0.2-0.2-0.3-0.3-0.5c-0.1-0.2-0.1-0.3-0.1-0.5l0,2.2c0,0,0,0,0,0
						l0,0.2c0,0.7,0.5,1.4,1.4,2c0.1,0.1,0.2,0.1,0.3,0.2c0,0,0.1,0,0.1,0.1c0.1,0,0.1,0.1,0.2,0.1c0,0,0,0,0,0
						c0.2,0.1,0.3,0.1,0.5,0.2c0,0,0,0,0,0c0,0,0.1,0,0.1,0c0.1,0,0.2,0.1,0.3,0.1c0,0,0.1,0,0.1,0c0,0,0.1,0,0.1,0
						c0.1,0,0.2,0,0.2,0c0,0,0.1,0,0.1,0c0,0,0.1,0,0.1,0c0.1,0,0.2,0,0.2,0c0,0,0.1,0,0.1,0c0,0,0.1,0,0.1,0c0.1,0,0.2,0,0.2,0
						c0,0,0.1,0,0.1,0c0,0,0.1,0,0.1,0c0.1,0,0.2,0,0.3,0c0,0,0.1,0,0.1,0c0,0,0.1,0,0.1,0c0.1,0,0.2,0,0.3,0c0,0,0.1,0,0.1,0
						c0,0,0,0,0,0c0.2,0,0.4,0,0.5-0.1c0,0,0,0,0,0c0.1,0,0.1,0,0.1,0c0.1,0,0.2,0,0.3,0c0.1,0,0.1,0,0.2,0c0.1,0,0.2,0,0.2-0.1
						c0,0,0,0,0.1,0c0,0,0.1,0,0.1,0c0.1,0,0.2-0.1,0.4-0.1c0,0,0.1,0,0.1-0.1c0.2-0.1,0.3-0.1,0.4-0.2c3.6-2.1,7.1-4.3,10.7-6.4
						c2.7-1.7,5.5-3.3,8.3-5c0.2-0.1,0.4-0.3,0.7-0.4c0,0,0.1-0.1,0.1-0.1c0.2-0.1,0.4-0.3,0.6-0.4c0,0,0.1-0.1,0.1-0.1
						c0.2-0.1,0.4-0.3,0.6-0.4c0,0,0,0,0,0c0.2-0.2,0.5-0.3,0.7-0.5c0.2-0.1,0.4-0.3,0.7-0.4c0,0,0.1,0,0.1-0.1
						c0.2-0.1,0.4-0.3,0.6-0.4c0,0,0,0,0.1,0c0.2-0.1,0.4-0.3,0.7-0.4c0,0,0.1-0.1,0.1-0.1c0.2-0.1,0.5-0.3,0.7-0.4c0,0,0,0,0,0
						c0,0,0,0,0.1,0c0.2-0.1,0.4-0.2,0.6-0.3c0,0,0.1,0,0.1-0.1c0.2-0.1,0.4-0.2,0.7-0.4c0,0,0.1-0.1,0.1-0.1
						c0.2-0.1,0.4-0.2,0.6-0.3c0,0,0.1,0,0.1,0c0.2-0.1,0.5-0.2,0.7-0.3c0.1,0,0.1-0.1,0.2-0.1c0.5-0.2,1-0.4,1.5-0.6
						c0.1,0,0.1,0,0.2-0.1c0.3-0.1,0.5-0.2,0.8-0.3c0,0,0.1,0,0.1,0c0.2-0.1,0.5-0.2,0.7-0.2c0,0,0.1,0,0.1,0c0,0,0.1,0,0.1,0
						c0.2-0.1,0.4-0.1,0.5-0.2c0,0,0.1,0,0.1,0c0.2-0.1,0.5-0.1,0.7-0.2c0.1,0,0.1,0,0.2,0c0.2,0,0.3-0.1,0.5-0.1c0.1,0,0.2,0,0.3,0
						c0.2,0,0.3-0.1,0.5-0.1c0.1,0,0.1,0,0.2,0c0,0,0.1,0,0.1,0c0.3,0,0.5-0.1,0.8-0.1c0.1,0,0.1,0,0.2,0c0.1,0,0.2,0,0.3,0
						c0,0,0.1,0,0.1,0c0.2,0,0.3-0.1,0.5-0.1c0.1,0,0.2,0,0.2-0.1c0.2,0,0.3-0.1,0.5-0.1c0,0,0.1,0,0.1,0c0,0,0,0,0,0
						c0,0,0.1,0,0.1,0c0.1,0,0.3-0.1,0.4-0.1c0.1,0,0.1,0,0.2-0.1c0.1,0,0.2-0.1,0.3-0.1c0.1,0,0.1-0.1,0.2-0.1
						c0.1,0,0.2-0.1,0.3-0.2c0,0,0.1,0,0.1-0.1c0,0,0,0,0,0c0.1,0,0.2-0.1,0.2-0.1c0,0,0.1-0.1,0.1-0.1c0.1-0.1,0.3-0.2,0.4-0.3
						c0,0,0.1-0.1,0.1-0.1c0,0,0.1-0.1,0.1-0.1c0,0,0,0,0.1-0.1c0.1-0.1,0.1-0.2,0.2-0.2c0.1-0.1,0.2-0.2,0.3-0.3c0,0,0-0.1,0.1-0.1
						c0.1-0.1,0.1-0.1,0.2-0.2c0,0,0,0,0,0c0,0,0,0,0,0c0.1-0.1,0.2-0.3,0.3-0.4c0,0,0,0,0-0.1c0.1-0.1,0.2-0.2,0.2-0.4c0,0,0,0,0,0
						c0,0,0,0,0,0c0.1-0.1,0.1-0.2,0.2-0.3c0,0,0,0,0,0c0-0.1,0.1-0.2,0.1-0.3c0,0,0,0,0,0c0,0,0,0,0,0c0-0.1,0.1-0.2,0.1-0.3
						c0,0,0,0,0-0.1c0-0.1,0-0.2,0.1-0.2c0,0,0,0,0,0c0,0,0,0,0,0c0-0.1,0-0.2,0-0.3c0,0,0,0,0,0c0-0.1,0-0.2,0-0.2c0,0,0-0.1,0-0.1
						c0,0,0,0,0,0l0-2.2C51.6,22.2,51.6,22.2,51.6,22.3C51.6,22.2,51.6,22.3,51.6,22.3z"/>
				</g>
			</g>
			<g>
				<g>
					<path fill="#231F20" d="M6.4,49.8L6.4,49.8c-0.1,0-0.2,0-0.3,0c0,0,0,0-0.1,0l-0.1,0c0,0-0.1,0-0.1,0c-0.1,0-0.2,0-0.2,0
						c0,0,0,0-0.1,0l-0.1,0c0,0-0.1,0-0.1,0c-0.1,0-0.2,0-0.2,0c0,0-0.1,0-0.1,0l-0.1,0c0,0,0,0-0.1,0c-0.1,0-0.2,0-0.3-0.1
						c0,0-0.1,0-0.1,0l-0.1,0c-0.1,0-0.2-0.1-0.3-0.1l0,0c0,0-0.1,0-0.1,0l0,0c-0.2-0.1-0.4-0.1-0.5-0.2l0,0c-0.1,0-0.2-0.1-0.2-0.1
						l0,0c0,0-0.1,0-0.1,0C3,49,2.9,48.9,2.8,48.9c-1-0.6-1.5-1.4-1.5-2.2l0-0.2c0,0,0,0,0,0l0-2.2c0-0.1,0.1-0.3,0.3-0.3h0
						c0.1,0,0.3,0.1,0.3,0.3l0,0v0c0,0.1,0,0.3,0.1,0.4c0,0.1,0.1,0.3,0.2,0.4c0.1,0.1,0.2,0.3,0.4,0.4c0.2,0.1,0.4,0.3,0.6,0.4
						c0.1,0.1,0.2,0.1,0.3,0.2c0,0,0,0,0.1,0c0,0,0,0,0.1,0l0.1,0c0,0,0.1,0,0.1,0.1c0,0,0,0,0,0c0.1,0.1,0.3,0.1,0.5,0.2
						c0,0,0,0,0,0c0,0,0,0,0.1,0c0,0,0,0,0.1,0c0.1,0,0.2,0,0.3,0.1c0,0,0,0,0,0c0,0,0,0,0,0c0,0,0,0,0.1,0c0,0,0,0,0.1,0
						c0.1,0,0.2,0,0.2,0c0,0,0,0,0.1,0c0,0,0,0,0,0c0,0,0,0,0.1,0c0,0,0,0,0.1,0c0.1,0,0.2,0,0.2,0c0,0,0,0,0.1,0c0,0,0,0,0.1,0
						c0,0,0,0,0,0c0,0,0,0,0.1,0c0.1,0,0.2,0,0.2,0c0,0,0,0,0.1,0c0,0,0,0,0.1,0l0,0l0.1,0l0.1,0c0.1,0,0.1,0,0.2,0l0,0l0.1,0
						c0,0,0,0,0,0c0,0,0,0,0,0c0,0,0,0,0,0c0.1,0,0.2,0,0.3,0c0,0,0,0,0.1,0c0,0,0,0,0.1,0c0,0,0,0,0,0c0.2,0,0.3,0,0.5-0.1
						c0,0,0,0,0,0c0,0,0,0,0.1,0c0,0,0,0,0.1,0l0,0c0.1,0,0.1,0,0.2,0c0,0,0.1,0,0.1,0l0.1,0c0.1,0,0.1,0,0.2-0.1c0,0,0,0,0,0l0,0
						c0,0,0,0,0,0c0,0,0,0,0.1,0c0.1,0,0.2-0.1,0.4-0.1l0,0c0,0,0.1,0,0.1,0c0.2-0.1,0.3-0.1,0.4-0.2c3.5-2.2,7.1-4.4,10.7-6.6
						c1.8-1.2,3.7-2.3,5.5-3.5c0.9-0.6,1.9-1.1,2.8-1.7c0.2-0.1,0.4-0.3,0.7-0.4l0.1-0.1c0.2-0.1,0.4-0.3,0.6-0.4l0.1-0.1
						c0.2-0.1,0.4-0.3,0.6-0.4l0.8-0.5c0.2-0.1,0.4-0.3,0.7-0.4l0.1-0.1c0.2-0.1,0.4-0.3,0.6-0.4l0.1,0c0.2-0.1,0.4-0.3,0.7-0.4
						l0.1-0.1c0.2-0.1,0.5-0.3,0.7-0.4l0.1-0.1c0.2-0.1,0.4-0.2,0.6-0.4l0.1-0.1c0.2-0.1,0.4-0.3,0.7-0.4l0.1-0.1
						c0.2-0.1,0.4-0.2,0.6-0.3l0.1,0c0.2-0.1,0.5-0.2,0.7-0.4l0.2-0.1c0.5-0.2,1-0.5,1.5-0.7c0.1,0,0.1,0,0.2-0.1
						c0.3-0.1,0.5-0.2,0.8-0.3l0.1,0c0.2-0.1,0.5-0.2,0.7-0.2l0.2-0.1c0.2-0.1,0.4-0.1,0.5-0.2l0.1,0c0,0,0.1,0,0.1,0
						c0.2-0.1,0.5-0.1,0.7-0.2c0,0,0.1,0,0.1,0l0.1,0c0.2,0,0.3-0.1,0.5-0.1c0.1,0,0.2,0,0.2-0.1c0.2,0,0.3-0.1,0.5-0.1
						c0.1,0,0.1,0,0.2,0l0.1,0c0.3-0.1,0.6-0.1,0.8-0.1c0.1,0,0.1,0,0.2,0c0.1,0,0.2,0,0.3,0c0,0,0,0,0.1,0c0,0,0,0,0.1,0
						c0.2,0,0.3-0.1,0.5-0.1l0.1,0c0.1,0,0.1,0,0.2,0c0.2,0,0.3-0.1,0.5-0.1c0,0,0,0,0.1,0c0,0,0,0,0.1,0l0,0c0,0,0,0,0.1,0l0.1,0
						c0.1,0,0.3-0.1,0.4-0.1c0,0,0.1,0,0.1-0.1l0,0c0.1,0,0.2-0.1,0.3-0.1c0.1,0,0.1-0.1,0.2-0.1c0.1,0,0.2-0.1,0.3-0.2l0,0
						c0,0,0.1,0,0.1,0c0,0,0,0,0,0l0,0c0.1,0,0.1-0.1,0.2-0.1l0.1,0c0,0,0,0,0.1,0c0,0,0,0,0.1,0c0.1-0.1,0.3-0.2,0.4-0.3
						c0,0,0.1-0.1,0.1-0.1c0,0,0,0,0.1-0.1l0.1-0.1c0,0,0,0,0,0c0.1-0.1,0.1-0.2,0.2-0.2c0,0,0,0,0,0c0.1-0.1,0.2-0.2,0.3-0.3
						l0.1-0.1c0.1-0.1,0.1-0.1,0.2-0.2l0,0c0,0,0,0,0,0c0.1-0.1,0.2-0.2,0.3-0.4l0-0.1c0.1-0.1,0.2-0.2,0.2-0.4c0,0,0,0,0,0
						c0,0,0,0,0,0c0.1-0.1,0.1-0.2,0.2-0.3l0,0c0-0.1,0.1-0.2,0.1-0.3c0,0,0,0,0,0c0,0,0,0,0,0c0-0.1,0.1-0.2,0.1-0.3l0,0
						c0-0.1,0-0.1,0.1-0.2c0,0,0,0,0,0c0,0,0,0,0,0c0-0.1,0-0.2,0-0.2l0,0c0-0.1,0-0.1,0-0.2c0,0,0,0,0,0c0,0,0-0.1,0-0.1
						c0-0.1,0.1-0.3,0.3-0.3h0c0.1,0,0.3,0.1,0.3,0.3v0v0l0,1.3c0,0,0,0,0,0v0v0l0,2.2c0,0,0,0,0,0c0,0,0,0.1,0,0.1
						c0,0.1,0,0.2,0,0.3l0,0c0,0.1,0,0.2,0,0.3c0,0,0,0,0,0l0,0.1c0,0.1,0,0.2-0.1,0.3l0,0.1c0,0.1-0.1,0.2-0.1,0.3l0,0.1
						c0,0.1-0.1,0.2-0.1,0.3l0,0c0,0.1-0.1,0.2-0.2,0.3l0,0.1c-0.1,0.1-0.2,0.3-0.2,0.4l0,0.1c-0.1,0.1-0.2,0.3-0.3,0.4l-0.1,0.1
						c-0.1,0.1-0.1,0.1-0.2,0.2l0,0c0,0,0,0-0.1,0.1c-0.1,0.1-0.2,0.2-0.3,0.3c-0.1,0.1-0.1,0.2-0.2,0.2c0,0,0,0-0.1,0.1l0,0
						c0,0-0.1,0.1-0.1,0.1l0,0c0,0,0,0,0,0c0,0-0.1,0-0.1,0.1c-0.1,0.1-0.3,0.2-0.4,0.3c0,0-0.1,0-0.1,0.1c0,0,0,0,0,0
						c-0.1,0.1-0.2,0.1-0.2,0.2l0,0c0,0,0,0,0,0c0,0-0.1,0-0.1,0.1l0,0c-0.1,0.1-0.2,0.1-0.3,0.2c-0.1,0-0.1,0.1-0.2,0.1
						c-0.1,0-0.2,0.1-0.3,0.1l0,0c0,0-0.1,0-0.1,0.1c-0.1,0-0.2,0.1-0.4,0.1l-0.1,0c0,0-0.1,0-0.1,0c0,0,0,0,0,0c0,0-0.1,0-0.1,0
						l-0.1,0c-0.2,0.1-0.4,0.1-0.5,0.1c-0.1,0-0.1,0-0.2,0l-0.1,0c-0.2,0-0.3,0.1-0.5,0.1c0,0-0.1,0-0.1,0l0,0c0,0-0.1,0-0.1,0
						c-0.1,0-0.1,0-0.2,0c-0.1,0-0.1,0-0.2,0c-0.2,0-0.5,0.1-0.8,0.1c0,0,0,0-0.1,0c0,0,0,0,0,0c0,0-0.1,0-0.1,0c0,0-0.1,0-0.1,0
						c-0.2,0-0.3,0.1-0.5,0.1l0,0c-0.1,0-0.2,0-0.2,0c-0.2,0-0.3,0.1-0.5,0.1l-0.1,0c0,0-0.1,0-0.1,0c-0.2,0.1-0.5,0.1-0.7,0.2
						c0,0,0,0-0.1,0l-0.1,0c-0.2,0-0.4,0.1-0.5,0.1l-0.1,0c0,0,0,0,0,0c0,0,0,0-0.1,0c-0.2,0.1-0.5,0.2-0.7,0.2l-0.1,0
						c-0.2,0.1-0.5,0.2-0.8,0.3c-0.1,0-0.1,0-0.2,0.1c-0.5,0.2-1,0.4-1.5,0.6l0,0c0,0-0.1,0-0.1,0.1c-0.3,0.1-0.5,0.2-0.7,0.3
						l-0.1,0c-0.2,0.1-0.4,0.2-0.6,0.3L36,33.1c-0.2,0.1-0.4,0.2-0.7,0.4l-0.1,0.1c-0.2,0.1-0.4,0.2-0.6,0.3L34.6,34
						c-0.2,0.1-0.5,0.3-0.7,0.4l-0.1,0.1c-0.2,0.1-0.4,0.3-0.7,0.4l-0.1,0c-0.2,0.1-0.4,0.3-0.6,0.4l-0.1,0.1
						c-0.2,0.1-0.4,0.3-0.7,0.4l-0.8,0.5c-0.2,0.1-0.4,0.3-0.6,0.4l-0.1,0.1c-0.2,0.1-0.4,0.3-0.6,0.4l-0.1,0.1
						c-0.2,0.1-0.4,0.3-0.7,0.4c-0.9,0.6-1.9,1.1-2.8,1.6c-1.8,1.1-3.7,2.2-5.5,3.3c-3.5,2.1-7,4.2-10.5,6.3L9.7,49
						c-0.1,0.1-0.3,0.2-0.5,0.2c0,0-0.1,0-0.1,0l0,0c-0.1,0-0.3,0.1-0.4,0.1l0,0c0,0,0,0-0.1,0l0,0c0,0,0,0,0,0
						c-0.1,0-0.2,0-0.2,0.1l-0.1,0c0,0-0.1,0-0.1,0c-0.1,0-0.2,0-0.2,0l-0.1,0c0,0-0.1,0-0.1,0l0,0c-0.2,0-0.4,0-0.6,0.1l0,0
						c0,0-0.1,0-0.1,0l0,0c-0.1,0-0.2,0-0.3,0l0,0l0,0l0,0C6.5,49.8,6.5,49.8,6.4,49.8z M1.8,46.4C1.8,46.4,1.8,46.5,1.8,46.4l0,0.2
						c0,0.6,0.4,1.2,1.3,1.7c0.1,0.1,0.2,0.1,0.3,0.2c0,0,0,0,0.1,0c0,0,0,0,0.1,0c0.1,0,0.1,0.1,0.2,0.1l0,0
						c0.2,0.1,0.3,0.1,0.5,0.2l0,0c0,0,0.1,0,0.1,0l0,0C4.5,49,4.6,49,4.6,49l0.1,0c0,0,0.1,0,0.1,0c0.1,0,0.2,0,0.2,0
						c0,0,0,0,0.1,0l0.1,0c0,0,0,0,0.1,0c0.1,0,0.2,0,0.2,0c0,0,0,0,0.1,0l0.1,0c0,0,0,0,0.1,0c0.1,0,0.2,0,0.2,0c0,0,0.1,0,0.1,0
						l0.1,0c0,0,0,0,0.1,0c0.1,0,0.2,0,0.2,0l0,0l0.1,0l0,0l0,0c0.1,0,0.2,0,0.3,0l0,0c0,0,0.1,0,0.1,0l0,0c0.2,0,0.3,0,0.5-0.1l0,0
						c0,0,0.1,0,0.1,0l0.1,0c0.1,0,0.1,0,0.2,0c0,0,0.1,0,0.1,0l0.1,0c0.1,0,0.2,0,0.2-0.1l0,0c0,0,0,0,0,0c0,0,0,0,0,0l0,0
						c0.1,0,0.2-0.1,0.4-0.1l0,0c0,0,0.1,0,0.1,0c0.2-0.1,0.3-0.1,0.4-0.2l0.2-0.1c3.5-2.1,7-4.2,10.5-6.3c1.8-1.1,3.7-2.2,5.5-3.3
						c0.9-0.5,1.9-1.1,2.8-1.6c0.2-0.1,0.4-0.3,0.7-0.4l0.1-0.1c0.2-0.1,0.4-0.3,0.6-0.4l0.1-0.1c0.2-0.1,0.4-0.3,0.6-0.4l0.8-0.5
						c0.2-0.1,0.4-0.3,0.7-0.4l0.1-0.1c0.2-0.1,0.4-0.3,0.6-0.4l0.1,0c0.2-0.1,0.4-0.3,0.7-0.4l0.1-0.1c0.2-0.1,0.5-0.3,0.7-0.4
						l0.1-0.1c0.2-0.1,0.4-0.2,0.6-0.3l0.1-0.1c0.2-0.1,0.4-0.2,0.7-0.4l0.1-0.1c0.2-0.1,0.4-0.2,0.6-0.3l0.1,0
						c0.2-0.1,0.5-0.2,0.7-0.3c0.1,0,0.1,0,0.2-0.1l0,0c0.5-0.2,1-0.4,1.5-0.6c0.1,0,0.1,0,0.2-0.1c0.3-0.1,0.5-0.2,0.8-0.3l0.1,0
						c0.2-0.1,0.5-0.2,0.7-0.2l0,0c0,0,0,0,0.1,0c0,0,0,0,0,0l0,0c0.2-0.1,0.4-0.1,0.5-0.2l0.1,0c0,0,0.1,0,0.1,0
						c0.2-0.1,0.5-0.1,0.7-0.2c0,0,0.1,0,0.1,0l0.1,0c0.2,0,0.3-0.1,0.5-0.1c0.1,0,0.2,0,0.2,0l0,0c0.2,0,0.3-0.1,0.5-0.1
						c0,0,0,0,0.1,0c0,0,0.1,0,0.1,0c0,0,0,0,0.1,0l0,0c0.3,0,0.6-0.1,0.8-0.1c0.1,0,0.1,0,0.2,0c0.1,0,0.1,0,0.2,0c0,0,0.1,0,0.1,0
						l0,0c0,0,0.1,0,0.1,0c0.2,0,0.3-0.1,0.5-0.1l0.1,0c0.1,0,0.1,0,0.2,0c0.2,0,0.3-0.1,0.5-0.1c0,0,0,0,0.1,0c0,0,0,0,0.1,0
						c0,0,0,0,0,0c0,0,0.1,0,0.1,0l0.1,0c0.1,0,0.3-0.1,0.4-0.1c0,0,0.1,0,0.1-0.1l0,0c0.1,0,0.2-0.1,0.3-0.1c0.1,0,0.1,0,0.2-0.1
						c0.1,0,0.2-0.1,0.3-0.1l0.1,0c0,0,0.1,0,0.1,0l0,0c0,0,0,0,0,0c0.1,0,0.2-0.1,0.2-0.1c0,0,0,0,0.1,0c0,0,0,0,0.1,0
						c0.1-0.1,0.3-0.2,0.4-0.3c0,0,0,0,0.1-0.1c0,0,0,0,0,0l0,0c0,0,0.1,0,0.1-0.1l0,0c0,0,0,0,0,0c0.1-0.1,0.1-0.1,0.2-0.2
						c0,0,0,0,0,0c0.1-0.1,0.2-0.2,0.3-0.3c0,0,0,0,0.1-0.1l0,0c0.1-0.1,0.1-0.1,0.2-0.2l0,0c0,0,0,0,0,0c0.1-0.1,0.2-0.2,0.3-0.4
						l0-0.1c0.1-0.1,0.2-0.2,0.2-0.3l0-0.1c0.1-0.1,0.1-0.2,0.2-0.3l0,0c0-0.1,0.1-0.2,0.1-0.3l0,0c0,0,0,0,0,0
						c0-0.1,0.1-0.2,0.1-0.3l0,0c0-0.1,0-0.1,0.1-0.2l0,0c0,0,0,0,0,0c0-0.1,0-0.2,0-0.2l0,0c0-0.1,0-0.1,0-0.2c0,0,0-0.1,0-0.1l0,0
						l0,0l0-1.6c0,0,0,0.1-0.1,0.1c0,0,0,0,0,0c0,0,0,0,0,0c-0.1,0.1-0.2,0.3-0.2,0.4l0,0.1c-0.1,0.1-0.2,0.3-0.3,0.4c0,0,0,0,0,0
						c0,0,0,0,0,0l0,0c-0.1,0.1-0.1,0.2-0.2,0.2l0,0c0,0,0,0-0.1,0.1c-0.1,0.1-0.2,0.2-0.3,0.3c-0.1,0.1-0.1,0.2-0.2,0.2
						c0,0,0,0-0.1,0.1l-0.1,0.1c0,0-0.1,0.1-0.1,0.1c0,0-0.1,0.1-0.1,0.1c-0.1,0.1-0.3,0.2-0.4,0.3c0,0-0.1,0-0.1,0.1c0,0,0,0-0.1,0
						l-0.1,0c-0.1,0-0.1,0.1-0.2,0.1c0,0,0,0,0,0l0,0c0,0-0.1,0-0.1,0.1l0,0c-0.1,0.1-0.2,0.1-0.3,0.2c-0.1,0-0.1,0.1-0.2,0.1
						c-0.1,0-0.2,0.1-0.3,0.1l0,0c0,0-0.1,0-0.1,0.1c-0.1,0-0.2,0.1-0.4,0.1l-0.1,0c0,0-0.1,0-0.1,0c0,0,0,0,0,0c0,0-0.1,0-0.1,0
						c0,0,0,0,0,0c-0.2,0.1-0.4,0.1-0.5,0.1c-0.1,0-0.1,0-0.2,0l0,0c-0.2,0-0.3,0.1-0.5,0.1c0,0,0,0-0.1,0c0,0-0.1,0-0.1,0
						c-0.1,0-0.2,0-0.3,0c-0.1,0-0.1,0-0.2,0c-0.2,0-0.5,0.1-0.8,0.1l-0.2,0c-0.2,0-0.3,0.1-0.5,0.1c-0.1,0-0.2,0-0.2,0.1
						c-0.2,0-0.3,0.1-0.5,0.1l-0.1,0c0,0-0.1,0-0.1,0c-0.2,0.1-0.5,0.1-0.7,0.2c0,0,0,0-0.1,0l-0.1,0c-0.2,0.1-0.4,0.1-0.5,0.2
						L41,27.7c-0.3,0.1-0.5,0.2-0.7,0.2l-0.1,0c-0.2,0.1-0.5,0.2-0.8,0.3c-0.1,0-0.1,0-0.2,0.1c-0.5,0.2-1,0.4-1.5,0.7l-0.2,0.1
						c-0.3,0.1-0.5,0.2-0.7,0.4l-0.1,0c-0.2,0.1-0.4,0.2-0.6,0.3l-0.1,0.1c-0.2,0.1-0.4,0.3-0.7,0.4l-0.1,0.1
						c-0.2,0.1-0.4,0.2-0.6,0.3l-0.1,0.1c-0.2,0.1-0.5,0.3-0.7,0.4l-0.1,0.1c-0.2,0.1-0.4,0.3-0.7,0.4l-0.1,0
						c-0.2,0.1-0.4,0.3-0.6,0.4l-0.1,0.1c-0.2,0.1-0.4,0.3-0.7,0.4l-0.8,0.5c-0.2,0.1-0.4,0.3-0.6,0.4l-0.1,0.1
						c-0.2,0.1-0.4,0.3-0.6,0.4l-0.1,0.1c-0.2,0.1-0.4,0.3-0.7,0.4c-0.9,0.6-1.9,1.2-2.8,1.7c-1.8,1.1-3.7,2.3-5.5,3.4
						c-3.6,2.2-7.1,4.4-10.7,6.7c-0.1,0.1-0.3,0.2-0.5,0.2c0,0-0.1,0-0.1,0.1l0,0c-0.1,0.1-0.3,0.1-0.4,0.1c0,0,0,0,0,0
						c0,0,0,0-0.1,0c0,0,0,0,0,0l0,0c-0.1,0-0.2,0-0.2,0.1l-0.1,0c0,0-0.1,0-0.1,0C8,47,8,47,7.9,47.1l0,0c0,0,0,0-0.1,0
						c0,0-0.1,0-0.1,0c0,0,0,0,0,0c-0.2,0-0.4,0.1-0.5,0.1c0,0,0,0,0,0c0,0-0.1,0-0.1,0c0,0,0,0,0,0c-0.1,0-0.2,0-0.3,0l0,0
						c0,0,0,0-0.1,0c0,0,0,0-0.1,0l-0.1,0l0,0c-0.1,0-0.2,0-0.3,0l-0.1,0l0,0c0,0-0.1,0-0.1,0c0,0,0,0,0,0c-0.1,0-0.2,0-0.2,0
						c0,0,0,0,0,0c0,0,0,0-0.1,0c0,0,0,0-0.1,0c0,0,0,0,0,0c-0.1,0-0.2,0-0.2,0c0,0,0,0,0,0c0,0,0,0-0.1,0c0,0,0,0-0.1,0
						c0,0,0,0,0,0c-0.1,0-0.2,0-0.3,0c0,0,0,0,0,0c0,0-0.1,0-0.1,0c0,0,0,0-0.1,0c0,0,0,0,0,0c-0.1,0-0.2,0-0.3-0.1c0,0,0,0,0,0
						c0,0-0.1,0-0.1,0c0,0,0,0,0,0c-0.2-0.1-0.4-0.1-0.5-0.2c0,0,0,0,0,0c-0.1,0-0.1,0-0.2-0.1l-0.1,0c0,0-0.1,0-0.1,0
						c-0.1-0.1-0.2-0.1-0.4-0.2c-0.2-0.1-0.5-0.3-0.6-0.5c-0.1-0.1-0.2-0.2-0.3-0.4L1.8,46.4z"/>
				</g>
			</g>
		</g>
		<g>
			<g>
				<g>
					<path fill="#FFFFFF" d="M3.8,46.4C3.8,46.4,3.8,46.3,3.8,46.4C3.8,46.3,3.8,46.3,3.8,46.4c0-0.1,0-0.1,0-0.1c0,0,0,0,0-0.1
						c0,0,0,0,0,0c0,0,0,0,0,0c0,0,0-0.1,0-0.1c0,0,0,0,0,0c0,0,0,0,0,0c0,0,0-0.1,0.1-0.1c0,0,0,0,0,0c0,0,0,0,0,0
						c0,0,0.1-0.1,0.1-0.1c0,0,0,0,0,0c0,0,0,0,0,0c0,0,0,0,0.1-0.1c0,0,0,0,0.1-0.1c0,0,0.1,0,0.1-0.1c0,0,0,0,0.1,0c0,0,0,0,0,0
						c0.1-0.1,0.2-0.1,0.3-0.2c0,0,0.1,0,0.1,0c0,0,0.1,0,0.1,0c0,0,0.1,0,0.1,0c0.1,0,0.2,0,0.2-0.1c0,0,0.1,0,0.1,0
						c0.1,0,0.1,0,0.2,0c0,0,0,0,0.1,0c0,0,0,0,0,0c0.1,0,0.2,0,0.3,0c0,0,0.1,0,0.1,0c0,0,0,0,0.1,0c0,0,0,0,0.1,0
						c0.1,0,0.2,0,0.2,0c0,0,0.1,0,0.1,0c0,0,0,0,0.1,0c0,0,0.1,0,0.1,0c0.1,0,0.2,0,0.2,0c0,0,0,0,0.1,0c0,0,0,0,0.1,0
						c0,0,0.1,0,0.1,0c0.1,0,0.1,0,0.2,0.1c0,0,0,0,0.1,0c0,0,0,0,0,0c0.1,0,0.2,0.1,0.4,0.2c0.4,0.2,0.6,0.5,0.7,0.7
						c0,0.1,0,0.2,0,0.3l0-2.2c0-0.4-0.2-0.7-0.7-1c-0.1-0.1-0.2-0.1-0.4-0.2c0,0,0,0,0,0c0,0,0,0-0.1,0c-0.1,0-0.1,0-0.2-0.1
						c0,0-0.1,0-0.1,0c0,0,0,0-0.1,0c0,0,0,0-0.1,0c-0.1,0-0.2,0-0.2,0c0,0-0.1,0-0.1,0c0,0,0,0-0.1,0c0,0-0.1,0-0.1,0
						c-0.1,0-0.2,0-0.2,0c0,0,0,0-0.1,0c0,0,0,0-0.1,0c0,0-0.1,0-0.1,0c-0.1,0-0.2,0-0.3,0c0,0,0,0,0,0c0,0,0,0-0.1,0
						c-0.1,0-0.1,0-0.2,0c0,0-0.1,0-0.1,0c-0.1,0-0.2,0-0.2,0.1c0,0-0.1,0-0.1,0c0,0-0.1,0-0.1,0c0,0-0.1,0-0.1,0
						c-0.1,0-0.2,0.1-0.3,0.2c0,0,0,0,0,0c0,0,0,0-0.1,0c0,0-0.1,0-0.1,0.1c0,0,0,0-0.1,0.1c0,0-0.1,0-0.1,0.1c0,0,0,0,0,0
						c0,0,0,0,0,0c0,0-0.1,0.1-0.1,0.1c0,0,0,0,0,0c0,0,0,0,0,0c0,0,0,0.1-0.1,0.1c0,0,0,0,0,0c0,0,0,0,0,0c0,0,0,0.1,0,0.1
						c0,0,0,0,0,0c0,0,0,0,0,0c0,0,0,0,0,0.1c0,0,0,0,0,0.1c0,0,0,0,0,0c0,0,0,0.1,0,0.1c0,0,0,0,0,0.1c0,0,0,0,0,0L3.8,46.4
						C3.8,46.4,3.8,46.4,3.8,46.4C3.8,46.4,3.8,46.4,3.8,46.4z"/>
				</g>
			</g>
			<g>
				<g>
					<path fill="#231F20" d="M8.7,46.7L8.7,46.7c-0.1,0-0.3-0.1-0.3-0.3l0,0c0-0.1,0-0.1,0-0.2c-0.1-0.2-0.3-0.4-0.6-0.6
						c-0.1-0.1-0.2-0.1-0.3-0.1c0,0,0,0,0,0c0,0,0,0,0,0c0,0,0,0,0,0l0,0c-0.1,0-0.1,0-0.2-0.1c0,0,0,0-0.1,0l-0.1,0c0,0,0,0,0,0
						c0,0,0,0,0,0c0,0,0,0,0,0c-0.1,0-0.1,0-0.2,0c0,0,0,0,0,0l-0.1,0c0,0,0,0,0,0c-0.1,0-0.2,0-0.2,0l-0.1,0l0,0l-0.1,0l-0.1,0
						c0,0,0,0,0,0c-0.1,0-0.2,0-0.3,0c0,0,0,0,0,0c0,0,0,0,0,0l-0.1,0c-0.1,0-0.1,0-0.2,0c0,0,0,0,0,0c0,0,0,0-0.1,0
						c-0.1,0-0.1,0-0.2,0.1c0,0,0,0-0.1,0c0,0,0,0,0,0c0,0,0,0,0,0c0,0,0,0,0,0c0,0-0.1,0-0.1,0c-0.1,0.1-0.2,0.1-0.3,0.1l0,0
						c0,0,0,0,0,0l0,0c0,0,0,0-0.1,0c0,0,0,0,0,0l0,0c0,0,0,0,0,0c0,0,0,0,0,0c0,0,0,0,0,0c0,0-0.1,0.1-0.1,0.1c0,0,0,0,0,0
						c0,0,0,0,0,0c0,0,0,0,0,0.1c0,0,0,0,0,0c0,0,0,0,0,0c0,0,0,0,0,0.1c0,0,0,0,0,0c0,0,0,0,0,0c0,0,0,0,0,0l0,0c0,0,0,0,0,0
						c0,0,0,0,0,0c0,0,0,0,0,0l0,0c0,0,0,0,0,0l0,0c0,0.1-0.1,0.3-0.3,0.3c0,0,0,0,0,0c-0.1,0-0.3-0.1-0.3-0.3l0-2.2c0,0,0,0,0,0
						c0,0,0,0,0-0.1l0,0c0,0,0-0.1,0-0.1c0,0,0,0,0,0c0,0,0,0,0-0.1l0,0c0,0,0-0.1,0-0.1c0,0,0,0,0,0c0,0,0,0,0,0l0,0
						c0,0,0-0.1,0-0.1c0,0,0,0,0,0c0,0,0,0,0,0c0,0,0-0.1,0.1-0.1c0,0,0,0,0,0c0,0,0,0,0,0c0,0,0.1-0.1,0.1-0.1c0,0,0,0,0,0
						c0,0,0,0,0,0c0,0,0,0,0.1-0.1l0,0c0,0,0,0,0.1,0c0,0,0.1,0,0.1-0.1l0,0c0,0,0,0,0.1,0c0,0,0,0,0,0c0.1-0.1,0.2-0.1,0.4-0.2
						c0,0,0.1,0,0.1,0c0,0,0,0,0.1,0c0,0,0,0,0,0c0,0,0.1,0,0.1,0c0.1,0,0.2,0,0.3-0.1c0,0,0,0,0.1,0l0.1,0c0.1,0,0.1,0,0.2,0l0,0
						c0,0,0,0,0.1,0c0,0,0,0,0,0c0.1,0,0.2,0,0.3,0c0,0,0,0,0,0c0,0,0.1,0,0.1,0l0.1,0l0,0c0,0,0,0,0.1,0l0,0c0.1,0,0.2,0,0.3,0
						c0,0,0,0,0,0c0,0,0,0,0.1,0l0.1,0c0,0,0,0,0.1,0c0,0,0,0,0,0c0.1,0,0.2,0,0.3,0l0,0c0,0,0,0,0.1,0c0,0,0,0,0.1,0l0,0
						c0,0,0.1,0,0.1,0c0,0,0,0,0,0l0,0c0.1,0,0.1,0,0.2,0.1l0,0c0,0,0,0,0,0c0,0,0,0,0,0C7.9,42.9,8,43,8.1,43
						c0.6,0.3,0.9,0.8,0.9,1.2l0,2.2C8.9,46.6,8.8,46.7,8.7,46.7z M6.3,44.8L6.3,44.8c0.1,0,0.2,0,0.3,0c0,0,0,0,0.1,0l0.1,0
						c0,0,0,0,0.1,0c0.1,0,0.2,0,0.3,0c0,0,0,0,0,0l0,0c0,0,0,0,0.1,0l0.1,0c0,0,0.1,0,0.1,0c0.1,0,0.2,0,0.2,0.1l0,0c0,0,0,0,0,0
						c0,0,0,0,0,0c0.1,0.1,0.3,0.1,0.4,0.2c0.1,0.1,0.2,0.1,0.3,0.2l0-1.2c0-0.3-0.2-0.6-0.6-0.8c-0.1-0.1-0.2-0.1-0.3-0.1
						c0,0,0,0,0,0c0,0,0,0,0,0c0,0,0,0,0,0c-0.1,0-0.1,0-0.2,0l0,0c0,0,0,0-0.1,0c0,0,0,0-0.1,0l-0.1,0c0,0,0,0,0,0
						c-0.1,0-0.1,0-0.2,0c0,0,0,0-0.1,0c0,0,0,0,0,0l-0.1,0c0,0,0,0,0,0c0,0,0,0-0.1,0c-0.1,0-0.2,0-0.2,0c0,0,0,0,0,0c0,0,0,0,0,0
						l0,0l-0.1,0c0,0,0,0,0,0c0,0,0,0-0.1,0c-0.1,0-0.2,0-0.3,0c0,0,0,0,0,0c0,0,0,0,0,0l0,0c0,0-0.1,0-0.1,0l-0.1,0c0,0,0,0,0,0
						c-0.1,0-0.2,0-0.2,0.1c0,0-0.1,0-0.1,0c0,0,0,0-0.1,0c0,0,0,0,0,0c0,0-0.1,0-0.1,0c-0.1,0.1-0.2,0.1-0.3,0.1c0,0,0,0,0,0
						c0,0,0,0,0,0l0,0c0,0,0,0-0.1,0c0,0,0,0,0,0l0,0c0,0,0,0,0,0c0,0,0,0,0,0l0,0c0,0-0.1,0.1-0.1,0.1l0,0c0,0,0,0,0,0.1
						c0,0,0,0,0,0c0,0,0,0,0,0c0,0,0,0,0,0l0,0c0,0,0,0,0,0c0,0,0,0,0,0c0,0,0,0,0,0l0,0l0,0c0,0,0,0,0,0c0,0,0,0,0,0c0,0,0,0,0,0
						l0,0c0,0,0,0,0,0c0,0,0,0,0,0l0,1.2c0,0,0,0,0,0l0,0c0,0,0,0,0.1,0c0,0,0.1,0,0.1-0.1l0,0c0,0,0,0,0.1,0l0,0
						c0.1-0.1,0.2-0.1,0.4-0.2c0,0,0.1,0,0.1,0c0,0,0,0,0,0c0,0,0,0,0.1,0C5,45,5,45,5,45c0,0,0,0,0,0c0.1,0,0.2,0,0.3-0.1
						c0,0,0,0,0,0c0,0,0,0,0.1,0c0.1,0,0.1,0,0.2,0l0.1,0c0,0,0,0,0.1,0c0,0,0,0,0,0c0.1,0,0.2,0,0.3,0c0,0,0,0,0.1,0l0.1,0
						L6.3,44.8L6.3,44.8L6.3,44.8z"/>
				</g>
			</g>
		</g>
	</g>
	<g>
		<g>
			<g>
				<g>
					<path fill="#FFFFFF" d="M49.4,24.8c-1,0.9-2.5,1.4-4.2,1.7c-0.1,0-0.1,0-0.2,0c-7.1,1-11.8,4.9-16.5,7.9
						c-2.8,1.7-5.6,3.4-8.3,5.2c-3.6,2.2-7.1,4.4-10.7,6.7c-1.8,1.1-4.8,1.1-6.6,0c-1.8-1.1-1.8-2.8,0-3.8c3.3-1.9,6.8-3.7,10.2-5.6
						c3-1.6,6-3.2,9-4.9c2.8-1.5,6.1-3.1,8-5.1c1.2-1.3,1.6-2.7,1.4-4.1c-0.2-1.5-0.6-3.2,0.9-4.5c0.2-0.2,0.4-0.3,0.6-0.5l1.4,0.5
						c3.4-2.4,7.1-2.9,11-2.7l-4.7,4.1c0.2,0.5,0.3,0.7,0.4,1.2l2,0.8c0.8-0.1,1.3-0.1,2.1-0.2l4.7-4.1c1.9,2,2.5,4.2,0,6.9
						C49.8,24.4,49.6,24.6,49.4,24.8z M4.5,45.3c1,0.6,2.5,0.6,3.4,0c0.9-0.6,0.9-1.4,0-2c-1-0.6-2.5-0.6-3.4,0
						C3.6,43.8,3.6,44.7,4.5,45.3"/>
				</g>
			</g>
			<g>
				<g>
					<path fill="#231F20" d="M6.2,47.2c-1.3,0-2.5-0.3-3.4-0.8c-1-0.6-1.5-1.3-1.5-2.2c0-0.8,0.5-1.6,1.5-2.1
						c3.4-1.9,6.8-3.8,10.2-5.6c3-1.6,6-3.2,9-4.9c0.4-0.2,0.8-0.4,1.2-0.6c2.5-1.3,5.1-2.7,6.8-4.4c1.1-1.1,1.5-2.4,1.3-3.9l0-0.2
						c-0.2-1.5-0.5-3.2,1-4.5c0.2-0.2,0.4-0.3,0.7-0.5c0.1,0,0.2-0.1,0.2,0l1.3,0.5c2.6-1.8,5.5-2.7,9.3-2.7c0.6,0,1.2,0,1.8,0.1
						c0.1,0,0.2,0.1,0.2,0.2c0,0.1,0,0.2-0.1,0.3L41,19.7c0.1,0.2,0.1,0.3,0.2,0.4c0.1,0.2,0.1,0.3,0.2,0.5l1.8,0.7l2-0.2l4.6-4
						c0.1-0.1,0.3-0.1,0.4,0c2.4,2.5,2.3,4.8,0,7.3c-0.2,0.2-0.3,0.4-0.5,0.5c-1,0.9-2.5,1.5-4.4,1.8c-0.1,0-0.1,0-0.2,0
						c-5.8,0.8-9.8,3.5-13.8,6.1c-0.9,0.6-1.7,1.2-2.6,1.7c-0.9,0.6-1.9,1.2-2.8,1.7c-1.8,1.1-3.7,2.3-5.5,3.4
						c-3.6,2.2-7.1,4.4-10.7,6.6l0,0C8.8,46.9,7.5,47.2,6.2,47.2z M33,18c-0.2,0.1-0.3,0.2-0.5,0.4c-1.3,1.2-1.1,2.6-0.9,4l0,0.2
						c0.3,1.7-0.2,3.1-1.4,4.4c-1.7,1.7-4.3,3.1-6.9,4.5c-0.4,0.2-0.8,0.4-1.2,0.6c-3,1.6-6,3.2-9,4.9C9.9,38.8,6.4,40.7,3,42.6
						c-0.8,0.5-1.2,1.1-1.2,1.7c0,0.6,0.4,1.2,1.2,1.7c0.8,0.5,2,0.8,3.2,0.8c1.2,0,2.3-0.3,3.2-0.8l0,0c3.6-2.2,7.1-4.4,10.6-6.6
						c1.8-1.2,3.7-2.3,5.5-3.5c0.9-0.6,1.9-1.1,2.8-1.7c0.9-0.5,1.7-1.1,2.6-1.7c4-2.6,8.1-5.4,14-6.2c0.1,0,0.1,0,0.2,0
						c1.8-0.3,3.2-0.8,4.1-1.7c0.2-0.1,0.3-0.3,0.5-0.5c0,0,0,0,0,0c2.1-2.2,2.2-4.2,0.2-6.4l-4.5,3.9c0,0-0.1,0.1-0.1,0.1l-2.1,0.2
						c0,0-0.1,0-0.1,0l-2-0.8c-0.1,0-0.1-0.1-0.2-0.2c-0.1-0.2-0.1-0.4-0.2-0.6c-0.1-0.2-0.1-0.4-0.2-0.6c0-0.1,0-0.2,0.1-0.3
						l4.2-3.6c-0.4,0-0.8,0-1.1,0c-3.7,0-6.5,0.9-9.1,2.7c-0.1,0.1-0.2,0.1-0.2,0L33,18z M6.2,45.9c-0.7,0-1.4-0.2-1.9-0.4
						c-0.5-0.3-0.9-0.8-0.9-1.2c0-0.5,0.3-0.9,0.8-1.2c0.5-0.3,1.2-0.4,1.9-0.4c0.7,0,1.4,0.2,1.9,0.4c0.5,0.3,0.9,0.8,0.9,1.2
						c0,0.5-0.3,0.9-0.8,1.2C7.6,45.8,6.9,45.9,6.2,45.9z M6.2,43.1c-0.6,0-1.2,0.1-1.6,0.4c-0.4,0.2-0.6,0.5-0.6,0.8
						c0,0.3,0.2,0.6,0.6,0.8c0.4,0.2,1,0.4,1.6,0.4c0.6,0,1.2-0.1,1.6-0.4c0.4-0.2,0.6-0.5,0.6-0.8c0-0.3-0.2-0.6-0.6-0.8
						C7.4,43.2,6.8,43.1,6.2,43.1z"/>
				</g>
			</g>
		</g>
	</g>
	<g>
		<g>
			<g>
				<path fill="#231F20" d="M43,22.9C43,22.9,43,22.9,43,22.9l-6.7-2.6c-0.1,0-0.2-0.2-0.1-0.3c0-0.1,0.2-0.2,0.3-0.1l6.6,2.5
					c0.1,0,0.2,0.2,0.1,0.3C43.2,22.8,43.1,22.9,43,22.9z"/>
			</g>
		</g>
	</g>
	<g>
		<g>
			<g>
				<rect x="23.2" y="17.8" fill="#231F20" width="3.5" height="28.5"/>
			</g>
		</g>
		<g>
			<g>
				<path fill="#231F20" d="M26.7,46.6h-3.5c-0.1,0-0.3-0.1-0.3-0.3V17.8c0-0.1,0.1-0.3,0.3-0.3h3.5c0.1,0,0.3,0.1,0.3,0.3v28.5
					C27,46.5,26.9,46.6,26.7,46.6z M23.5,46.1h3v-28h-3V46.1z"/>
			</g>
		</g>
	</g>
	<g>
		<g>
			<g>
				
					<rect x="11.1" y="30.3" transform="matrix(-0.8906 -0.4547 0.4547 -0.8906 32.8178 72.0542)" fill="#231F20" width="28" height="3.5"/>
			</g>
		</g>
		<g>
			<g>
				<path fill="#231F20" d="M36.7,40.3c0,0-0.1,0-0.1,0L11.7,27.5c-0.1-0.1-0.2-0.2-0.1-0.4l1.6-3.1c0-0.1,0.1-0.1,0.2-0.1
					c0.1,0,0.1,0,0.2,0l24.9,12.7c0.1,0.1,0.2,0.2,0.1,0.4L37,40.1C36.9,40.2,36.9,40.2,36.7,40.3C36.8,40.3,36.8,40.3,36.7,40.3z
					 M12.2,27.2l24.5,12.5L38,37L13.5,24.5L12.2,27.2z"/>
			</g>
		</g>
	</g>
</g>
</svg>
