<?xml version="1.0" encoding="utf-8"?>
<!-- Generator: Adobe Illustrator 18.1.1, SVG Export Plug-In . SVG Version: 6.00 Build 0)  -->
<!DOCTYPE svg PUBLIC "-//W3C//DTD SVG 1.1//EN" "http://www.w3.org/Graphics/SVG/1.1/DTD/svg11.dtd">
<svg version="1.1" id="Layer_1" xmlns="http://www.w3.org/2000/svg" xmlns:xlink="http://www.w3.org/1999/xlink" x="0px" y="0px"
	 viewBox="0 0 55 65" enable-background="new 0 0 55 65" xml:space="preserve">
<g>
	<g>
		<g>
			<g>
				<polygon fill="#FFFFFF" points="33.5,15.2 32,13.3 32.5,11 34.7,9.9 36.8,11 37.4,13.3 35.9,15.2 				"/>
			</g>
			<g>
				<path fill="#231F20" d="M35.9,15.4h-2.4c-0.1,0-0.2,0-0.2-0.1l-1.5-1.9c-0.1-0.1-0.1-0.2-0.1-0.2l0.5-2.3c0-0.1,0.1-0.2,0.2-0.2
					l2.1-1c0.1,0,0.2,0,0.2,0l2.1,1c0.1,0,0.1,0.1,0.2,0.2l0.5,2.3c0,0.1,0,0.2-0.1,0.2l-1.5,1.9C36,15.4,36,15.4,35.9,15.4z
					 M33.6,14.9h2.1l1.3-1.7l-0.5-2.1l-1.9-0.9l-1.9,0.9l-0.5,2.1L33.6,14.9z"/>
			</g>
		</g>
		<g>
			<g>
				<polygon fill="#FFFFFF" points="36.7,20.8 39.3,24 38.3,28 34.7,30.4 31,28 30.1,24 32.6,20.8 				"/>
			</g>
			<g>
				<path fill="#231F20" d="M34.7,30.7c-0.1,0-0.1,0-0.2,0l-3.7-2.4c-0.1,0-0.1-0.1-0.1-0.2l-0.9-4c0-0.1,0-0.2,0.1-0.2l2.5-3.2
					c0.1-0.1,0.1-0.1,0.2-0.1h4.1c0.1,0,0.2,0,0.2,0.1l2.5,3.2c0.1,0.1,0.1,0.2,0.1,0.2l-0.9,4c0,0.1-0.1,0.1-0.1,0.2l-3.7,2.4
					C34.8,30.7,34.7,30.7,34.7,30.7z M31.2,27.8l3.4,2.3l3.4-2.3l0.9-3.7l-2.4-3h-3.8l-2.4,3L31.2,27.8z"/>
			</g>
		</g>
		<g>
			<g>
				<polygon fill="#FFFFFF" points="33.1,20.8 31.1,18.3 31.8,15.2 34.7,13.8 37.6,15.2 38.3,18.3 36.3,20.8 				"/>
			</g>
			<g>
				<path fill="#231F20" d="M36.3,21.1h-3.2c-0.1,0-0.2,0-0.2-0.1l-2-2.5c-0.1-0.1-0.1-0.2-0.1-0.2l0.7-3.1c0-0.1,0.1-0.2,0.2-0.2
					l2.9-1.4c0.1,0,0.2,0,0.2,0l2.9,1.4c0.1,0,0.1,0.1,0.2,0.2l0.7,3.1c0,0.1,0,0.2-0.1,0.2l-2,2.5C36.4,21.1,36.4,21.1,36.3,21.1z
					 M33.2,20.5h2.9l1.8-2.3l-0.7-2.9l-2.6-1.3L32,15.4l-0.7,2.9L33.2,20.5z"/>
			</g>
		</g>
		<g>
			<g>
				<polygon fill="#FFFFFF" points="33.8,17.2 25.1,17.2 21.7,14.9 25.1,13.7 				"/>
			</g>
			<g>
				<path fill="#231F20" d="M33.8,17.5C33.8,17.5,33.8,17.5,33.8,17.5h-8.7c-0.1,0-0.1,0-0.2,0l-3.4-2.3c-0.1-0.1-0.1-0.2-0.1-0.3
					c0-0.1,0.1-0.2,0.2-0.2l3.4-1.2c0.1,0,0.1,0,0.2,0l8.6,3.5c0.1,0,0.2,0.1,0.2,0.3C34,17.3,33.9,17.5,33.8,17.5z M25.2,16.9h7.1
					L25.1,14l-2.8,1L25.2,16.9z"/>
			</g>
		</g>
		<g>
			<g>
				<polygon fill="#FFFFFF" points="35.5,17.2 44.1,17.2 47.6,14.9 44.1,13.7 				"/>
			</g>
			<g>
				<path fill="#231F20" d="M44.1,17.5h-8.7c-0.1,0-0.2-0.1-0.3-0.2c0-0.1,0-0.3,0.2-0.3l8.7-3.5c0.1,0,0.1,0,0.2,0l3.4,1.2
					c0.1,0,0.2,0.1,0.2,0.2c0,0.1,0,0.2-0.1,0.3l-3.4,2.3C44.3,17.4,44.2,17.5,44.1,17.5z M36.9,16.9h7.1l2.9-2l-2.8-1L36.9,16.9z"
					/>
			</g>
		</g>
		<g>
			<g>
				<polygon fill="#FFFFFF" points="33.8,17.4 28.8,17.4 26.8,19.7 28.8,21 				"/>
			</g>
			<g>
				<path fill="#231F20" d="M28.8,21.2c-0.1,0-0.1,0-0.1,0l-2-1.2c-0.1,0-0.1-0.1-0.1-0.2c0-0.1,0-0.2,0.1-0.2l2-2.3
					c0.1-0.1,0.1-0.1,0.2-0.1h5c0.1,0,0.2,0.1,0.3,0.2c0,0.1,0,0.2-0.1,0.3l-5,3.5C28.9,21.2,28.8,21.2,28.8,21.2z M27.2,19.7
					l1.5,0.9l4.1-2.9h-4L27.2,19.7z"/>
			</g>
		</g>
		<g>
			<g>
				<polygon fill="#FFFFFF" points="35.5,17.4 40.5,17.4 42.4,19.7 40.5,21 				"/>
			</g>
			<g>
				<path fill="#231F20" d="M40.5,21.2c-0.1,0-0.1,0-0.2-0.1l-5-3.5c-0.1-0.1-0.1-0.2-0.1-0.3c0-0.1,0.1-0.2,0.3-0.2h5
					c0.1,0,0.2,0,0.2,0.1l2,2.3c0.1,0.1,0.1,0.1,0.1,0.2c0,0.1-0.1,0.2-0.1,0.2l-2,1.2C40.6,21.2,40.5,21.2,40.5,21.2z M36.4,17.7
					l4.1,2.9l1.5-0.9l-1.7-2H36.4z"/>
			</g>
		</g>
		<g>
			<g>
				<path fill="#231F20" d="M28,24.3c-0.1,0-0.1,0-0.2-0.1c-0.1-0.1-0.1-0.3,0-0.4l4.1-4.2c0.1-0.1,0.3-0.1,0.4,0
					c0.1,0.1,0.1,0.3,0,0.4l-4.1,4.2C28.2,24.3,28.1,24.3,28,24.3z"/>
			</g>
		</g>
		<g>
			<g>
				<path fill="#231F20" d="M27.1,29C27.1,29,27,29,27.1,29c-0.2,0-0.3-0.2-0.3-0.3l0.8-4.6c0-0.2,0.2-0.3,0.3-0.2
					c0.2,0,0.3,0.2,0.2,0.3l-0.8,4.6C27.3,28.9,27.2,29,27.1,29z"/>
			</g>
		</g>
		<g>
			<g>
				<path fill="#231F20" d="M41.8,24.2c-0.1,0-0.1,0-0.2-0.1l-4.4-4.2c-0.1-0.1-0.1-0.3,0-0.4c0.1-0.1,0.3-0.1,0.4,0l4.4,4.2
					c0.1,0.1,0.1,0.3,0,0.4C41.9,24.1,41.9,24.2,41.8,24.2z"/>
			</g>
		</g>
		<g>
			<g>
				<path fill="#231F20" d="M43.2,28.1c-0.1,0-0.2-0.1-0.3-0.2l-1.4-4.1c-0.1-0.1,0-0.3,0.2-0.4c0.1-0.1,0.3,0,0.4,0.2l1.4,4.1
					C43.5,27.9,43.5,28.1,43.2,28.1C43.3,28.1,43.3,28.1,43.2,28.1z"/>
			</g>
		</g>
		<g>
			<g>
				<path fill="#231F20" d="M31.7,15.5c-0.1,0-0.1,0-0.2,0l-1.7-1.2c-0.1-0.1-0.2-0.3-0.1-0.4c0.1-0.1,0.3-0.2,0.4-0.1l1.7,1.2
					c0.1,0.1,0.2,0.3,0.1,0.4C31.9,15.5,31.8,15.5,31.7,15.5z"/>
			</g>
		</g>
		<g>
			<g>
				<path fill="#231F20" d="M30,14.4c-0.1,0-0.2-0.1-0.3-0.2l-0.9-2.4c-0.1-0.1,0-0.3,0.2-0.4c0.1-0.1,0.3,0,0.4,0.2l0.9,2.4
					c0.1,0.1,0,0.3-0.2,0.4C30.1,14.4,30,14.4,30,14.4z"/>
			</g>
		</g>
		<g>
			<g>
				<path fill="#231F20" d="M37.4,15.5c-0.1,0-0.2,0-0.2-0.1c-0.1-0.1-0.1-0.3,0.1-0.4l1.7-1.2c0.1-0.1,0.3-0.1,0.4,0.1
					c0.1,0.1,0.1,0.3-0.1,0.4l-1.7,1.2C37.5,15.5,37.5,15.5,37.4,15.5z"/>
			</g>
		</g>
		<g>
			<g>
				<path fill="#231F20" d="M39.1,14.4c0,0-0.1,0-0.1,0c-0.1-0.1-0.2-0.2-0.2-0.4l0.9-2.4c0.1-0.1,0.2-0.2,0.4-0.2
					c0.1,0.1,0.2,0.2,0.2,0.4l-0.9,2.4C39.3,14.3,39.2,14.4,39.1,14.4z"/>
			</g>
		</g>
	</g>
	<g>
		<g>
			<polyline fill="#231F20" points="16.1,40.8 31,33.8 31,33.8 36.8,32.6 41.2,34.9 41.4,38.9 44.4,40.5 50.2,39.3 54.6,41.6 
				54.5,45.2 33.1,56.3 			"/>
		</g>
		<g>
			<path fill="#231F20" d="M33.1,56.6c-0.1,0-0.2-0.1-0.2-0.2c-0.1-0.1,0-0.3,0.1-0.4l21.2-11l0.1-3.3l-4.2-2.2l-5.6,1.2
				c-0.1,0-0.1,0-0.2,0l-3-1.6c-0.1,0-0.1-0.1-0.2-0.2L41,35.1l-4.2-2.2l-5.7,1.2l-14.9,7c-0.1,0.1-0.3,0-0.4-0.1
				c-0.1-0.1,0-0.3,0.1-0.4l14.9-7c0,0,0,0,0.1,0l5.8-1.2c0.1,0,0.1,0,0.2,0l4.4,2.3c0.1,0,0.1,0.1,0.2,0.2l0.2,3.8l2.8,1.4l5.6-1.2
				c0.1,0,0.1,0,0.2,0l4.4,2.3c0.1,0,0.2,0.1,0.2,0.3l-0.1,3.6c0,0.1-0.1,0.2-0.2,0.2L33.3,56.6C33.2,56.6,33.2,56.6,33.1,56.6z"/>
		</g>
	</g>
	<g>
		<g enable-background="new    ">
			<g>
				<g>
					<g>
						<polygon fill="#FFFFFF" points="19.6,29 19.6,39.7 18,43.1 18.1,32.4 						"/>
					</g>
					<g>
						<path fill="#231F20" d="M18,43.4C18,43.4,18,43.4,18,43.4c-0.2,0-0.3-0.1-0.3-0.3l0-10.7c0,0,0-0.1,0-0.1l1.6-3.4
							c0.1-0.1,0.2-0.2,0.3-0.2c0.1,0,0.2,0.1,0.2,0.3l0,10.7c0,0,0,0.1,0,0.1l-1.6,3.4C18.2,43.3,18.1,43.4,18,43.4z M18.3,32.4
							l0,9.3l1-2.2l0-9.3L18.3,32.4z"/>
					</g>
				</g>
			</g>
			<g>
				<g>
					<g>
						<polygon fill="#FFFFFF" points="19.6,29 18.1,32.4 12.2,33.3 7.9,30.8 9.4,27.4 15.3,26.5 						"/>
					</g>
					<g>
						<path fill="#231F20" d="M12.2,33.6c0,0-0.1,0-0.1,0L7.7,31c-0.1-0.1-0.2-0.2-0.1-0.4l1.6-3.4c0-0.1,0.1-0.1,0.2-0.2l5.9-0.9
							c0.1,0,0.1,0,0.2,0l4.3,2.5c0.1,0.1,0.2,0.2,0.1,0.4l-1.6,3.4c0,0.1-0.1,0.1-0.2,0.2L12.2,33.6C12.2,33.6,12.2,33.6,12.2,33.6
							z M8.2,30.7l4,2.3l5.6-0.9l1.4-3l-4-2.3l-5.6,0.9L8.2,30.7z"/>
					</g>
				</g>
				<g>
					<g>
						<polygon fill="#FFFFFF" points="9.8,30.2 10.5,28.8 15,28 17.7,29.6 17,31 12.5,31.7 						"/>
					</g>
					<g>
						<path fill="#231F20" d="M12.5,32c0,0-0.1,0-0.1,0l-2.7-1.5c-0.1-0.1-0.2-0.2-0.1-0.4l0.7-1.4c0-0.1,0.1-0.1,0.2-0.2l4.6-0.7
							c0.1,0,0.1,0,0.2,0l2.7,1.5c0.1,0.1,0.2,0.2,0.1,0.4l-0.7,1.4c0,0.1-0.1,0.1-0.2,0.2L12.5,32C12.5,32,12.5,32,12.5,32z
							 M10.2,30.1l2.4,1.4l4.3-0.7l0.5-1.1L15,28.3L10.7,29L10.2,30.1z"/>
					</g>
				</g>
			</g>
			<g>
				<g>
					<g>
						<polygon fill="#FFFFFF" points="18.1,32.4 18,43.1 12.2,44 12.2,33.3 						"/>
					</g>
					<g>
						<path fill="#231F20" d="M12.2,44.3c-0.1,0-0.1,0-0.2-0.1c-0.1-0.1-0.1-0.1-0.1-0.2l0-10.7c0-0.1,0.1-0.3,0.2-0.3l5.9-0.9
							c0.1,0,0.2,0,0.2,0.1s0.1,0.1,0.1,0.2l0,10.7c0,0.1-0.1,0.3-0.2,0.3L12.2,44.3C12.2,44.3,12.2,44.3,12.2,44.3z M12.5,33.5
							l0,10.1l5.3-0.8l0-10.1L12.5,33.5z"/>
					</g>
				</g>
			</g>
			<g>
				<g>
					<g>
						<polygon fill="#FFFFFF" points="12.2,33.3 12.2,44 7.9,41.5 7.9,30.8 						"/>
					</g>
					<g>
						<path fill="#231F20" d="M12.2,44.3c0,0-0.1,0-0.1,0l-4.3-2.5c-0.1-0.1-0.1-0.1-0.1-0.2l0-10.7c0-0.1,0.1-0.2,0.1-0.2
							c0.1-0.1,0.2,0,0.3,0l4.3,2.5c0.1,0.1,0.1,0.1,0.1,0.2l0,10.7c0,0.1-0.1,0.2-0.1,0.2C12.3,44.3,12.2,44.3,12.2,44.3z
							 M8.1,41.3l3.8,2.2l0-10l-3.8-2.2L8.1,41.3z"/>
					</g>
				</g>
			</g>
		</g>
	</g>
	<g>
		<g enable-background="new    ">
			<g>
				<g>
					<g>
						<polygon fill="#FFFFFF" points="12.2,28.1 12.2,44.1 10.6,47.5 10.6,31.5 						"/>
					</g>
					<g>
						<path fill="#231F20" d="M10.6,47.8C10.6,47.8,10.6,47.8,10.6,47.8c-0.2,0-0.3-0.1-0.3-0.3l0-16c0,0,0-0.1,0-0.1l1.6-3.4
							c0.1-0.1,0.2-0.2,0.3-0.2c0.1,0,0.2,0.1,0.2,0.3l0,16c0,0,0,0.1,0,0.1l-1.6,3.4C10.8,47.7,10.7,47.8,10.6,47.8z M10.9,31.6
							l0,14.6l1-2.2l0-14.6L10.9,31.6z"/>
					</g>
				</g>
			</g>
			<g>
				<g>
					<g>
						<polygon fill="#FFFFFF" points="12.2,28.1 10.6,31.5 4.7,32.4 0.4,29.9 2,26.5 7.9,25.6 						"/>
					</g>
					<g>
						<path fill="#231F20" d="M4.7,32.7c0,0-0.1,0-0.1,0l-4.3-2.5c-0.1-0.1-0.2-0.2-0.1-0.4l1.6-3.4c0-0.1,0.1-0.1,0.2-0.2l5.9-0.9
							c0.1,0,0.1,0,0.2,0l4.3,2.5c0.1,0.1,0.2,0.2,0.1,0.4l-1.6,3.4c0,0.1-0.1,0.1-0.2,0.2L4.7,32.7C4.8,32.7,4.8,32.7,4.7,32.7z
							 M0.8,29.8l4,2.3l5.6-0.9l1.4-3l-4-2.3l-5.6,0.9L0.8,29.8z"/>
					</g>
				</g>
				<g>
					<g>
						<polygon fill="#FFFFFF" points="2.4,29.3 3,27.9 7.6,27.2 10.2,28.7 9.6,30.2 5,30.9 						"/>
					</g>
					<g>
						<path fill="#231F20" d="M5,31.2c0,0-0.1,0-0.1,0l-2.7-1.5c-0.1-0.1-0.2-0.2-0.1-0.4l0.7-1.4c0-0.1,0.1-0.1,0.2-0.2l4.6-0.7
							c0.1,0,0.1,0,0.2,0l2.7,1.5c0.1,0.1,0.2,0.2,0.1,0.4l-0.7,1.4c0,0.1-0.1,0.1-0.2,0.2L5,31.2C5.1,31.2,5.1,31.2,5,31.2z
							 M2.7,29.2l2.4,1.4l4.3-0.7l0.5-1.1l-2.4-1.4l-4.3,0.7L2.7,29.2z"/>
					</g>
				</g>
			</g>
			<g>
				<g>
					<g>
						<polygon fill="#FFFFFF" points="10.6,31.5 10.6,47.5 4.7,48.4 4.7,32.4 						"/>
					</g>
					<g>
						<path fill="#231F20" d="M4.7,48.7c-0.1,0-0.1,0-0.2-0.1c-0.1-0.1-0.1-0.1-0.1-0.2l0-16c0-0.1,0.1-0.3,0.2-0.3l5.9-0.9
							c0.1,0,0.2,0,0.2,0.1c0.1,0.1,0.1,0.1,0.1,0.2l0,16c0,0.1-0.1,0.3-0.2,0.3L4.7,48.7C4.8,48.7,4.7,48.7,4.7,48.7z M5,32.7
							l0,15.4l5.3-0.8l0-15.4L5,32.7z"/>
					</g>
				</g>
			</g>
			<g>
				<g>
					<g>
						<polygon fill="#FFFFFF" points="4.7,32.4 4.7,48.4 0.4,45.9 0.4,29.9 						"/>
					</g>
					<g>
						<path fill="#231F20" d="M4.7,48.7c0,0-0.1,0-0.1,0l-4.3-2.5c-0.1-0.1-0.1-0.1-0.1-0.2l0-16c0-0.1,0.1-0.2,0.1-0.2
							c0.1,0,0.2,0,0.3,0l4.3,2.5C5,32.2,5,32.3,5,32.4l0,16c0,0.1-0.1,0.2-0.1,0.2C4.8,48.7,4.8,48.7,4.7,48.7z M0.7,45.8l3.8,2.2
							l0-15.3l-3.8-2.2L0.7,45.8z"/>
					</g>
				</g>
			</g>
		</g>
	</g>
	<g>
		<g enable-background="new    ">
			<g>
				<g>
					<g>
						<polygon fill="#FFFFFF" points="29.6,28.7 29.5,41.2 28,44.6 28,32.1 						"/>
					</g>
					<g>
						<path fill="#231F20" d="M28,44.9C28,44.9,27.9,44.9,28,44.9c-0.2,0-0.3-0.1-0.3-0.3l0-12.5c0,0,0-0.1,0-0.1l1.6-3.4
							c0.1-0.1,0.2-0.2,0.3-0.2c0.1,0,0.2,0.1,0.2,0.3l0,12.5c0,0,0,0.1,0,0.1l-1.6,3.4C28.2,44.8,28.1,44.9,28,44.9z M28.3,32.2
							l0,11.1l1-2.2l0-11.1L28.3,32.2z"/>
					</g>
				</g>
			</g>
			<g>
				<g>
					<g>
						<polygon fill="#FFFFFF" points="29.6,28.7 28,32.1 22.1,33 17.8,30.6 19.4,27.2 25.3,26.2 						"/>
					</g>
					<g>
						<path fill="#231F20" d="M22.1,33.3c0,0-0.1,0-0.1,0l-4.3-2.5c-0.1-0.1-0.2-0.2-0.1-0.4l1.6-3.4c0-0.1,0.1-0.1,0.2-0.2l5.9-0.9
							c0.1,0,0.1,0,0.2,0l4.3,2.5c0.1,0.1,0.2,0.2,0.1,0.4l-1.6,3.4c0,0.1-0.1,0.1-0.2,0.2L22.1,33.3C22.2,33.3,22.2,33.3,22.1,33.3
							z M18.2,30.4l4,2.3l5.6-0.9l1.4-3l-4-2.3l-5.6,0.9L18.2,30.4z"/>
					</g>
				</g>
				<g>
					<g>
						<polygon fill="#FFFFFF" points="19.8,29.9 20.4,28.5 25,27.8 27.6,29.3 27,30.8 22.4,31.5 						"/>
					</g>
					<g>
						<path fill="#231F20" d="M22.4,31.8c0,0-0.1,0-0.1,0l-2.7-1.5c-0.1-0.1-0.2-0.2-0.1-0.4l0.7-1.4c0-0.1,0.1-0.1,0.2-0.2l4.6-0.7
							c0.1,0,0.1,0,0.2,0l2.7,1.5c0.1,0.1,0.2,0.2,0.1,0.4l-0.7,1.4c0,0.1-0.1,0.1-0.2,0.2L22.4,31.8C22.5,31.8,22.4,31.8,22.4,31.8
							z M20.1,29.8l2.4,1.4l4.3-0.7l0.5-1.1l-2.4-1.4l-4.3,0.7L20.1,29.8z"/>
					</g>
				</g>
			</g>
			<g>
				<g>
					<g>
						<polygon fill="#FFFFFF" points="28,32.1 28,44.6 22.1,45.5 22.1,33 						"/>
					</g>
					<g>
						<path fill="#231F20" d="M22.1,45.8c-0.1,0-0.1,0-0.2-0.1c-0.1-0.1-0.1-0.1-0.1-0.2l0-12.5c0-0.1,0.1-0.3,0.2-0.3l5.9-0.9
							c0.1,0,0.2,0,0.2,0.1c0.1,0.1,0.1,0.1,0.1,0.2l0,12.5c0,0.1-0.1,0.3-0.2,0.3L22.1,45.8C22.2,45.8,22.1,45.8,22.1,45.8z
							 M22.4,33.3l0,11.9l5.3-0.8l0-11.9L22.4,33.3z"/>
					</g>
				</g>
			</g>
			<g>
				<g>
					<g>
						<polygon fill="#FFFFFF" points="22.1,33 22.1,45.5 17.8,43 17.8,30.6 						"/>
					</g>
					<g>
						<path fill="#231F20" d="M22.1,45.8c0,0-0.1,0-0.1,0l-4.3-2.5c-0.1-0.1-0.1-0.1-0.1-0.2l0-12.5c0-0.1,0.1-0.2,0.1-0.2
							c0.1,0,0.2,0,0.3,0l4.3,2.5c0.1,0.1,0.1,0.1,0.1,0.2l0,12.5c0,0.1-0.1,0.2-0.1,0.2C22.2,45.8,22.2,45.8,22.1,45.8z M18.1,42.8
							l3.8,2.2l0-11.8L18.1,31L18.1,42.8z"/>
					</g>
				</g>
			</g>
		</g>
	</g>
	<g>
		<g enable-background="new    ">
			<g>
				<g>
					<g>
						<polygon fill="#FFFFFF" points="22.1,34.9 22.1,45.6 20.5,49 20.6,38.3 						"/>
					</g>
					<g>
						<path fill="#231F20" d="M20.5,49.3C20.5,49.3,20.5,49.3,20.5,49.3c-0.2,0-0.3-0.1-0.3-0.3l0-10.7c0,0,0-0.1,0-0.1l1.6-3.4
							c0.1-0.1,0.2-0.2,0.3-0.2c0.1,0,0.2,0.1,0.2,0.3l0,10.7c0,0,0,0.1,0,0.1l-1.6,3.4C20.8,49.2,20.7,49.3,20.5,49.3z M20.8,38.4
							l0,9.3l1-2.2l0-9.3L20.8,38.4z"/>
					</g>
				</g>
			</g>
			<g>
				<g>
					<g>
						<polygon fill="#FFFFFF" points="22.1,34.9 20.6,38.3 14.7,39.2 10.4,36.7 11.9,33.3 17.8,32.4 						"/>
					</g>
					<g>
						<path fill="#231F20" d="M14.7,39.5c0,0-0.1,0-0.1,0L10.2,37c-0.1-0.1-0.2-0.2-0.1-0.4l1.6-3.4c0-0.1,0.1-0.1,0.2-0.2l5.9-0.9
							c0.1,0,0.1,0,0.2,0l4.3,2.5c0.1,0.1,0.2,0.2,0.1,0.4l-1.6,3.4c0,0.1-0.1,0.1-0.2,0.2L14.7,39.5C14.7,39.5,14.7,39.5,14.7,39.5
							z M10.7,36.6l4,2.3l5.6-0.9l1.4-3l-4-2.3l-5.6,0.9L10.7,36.6z"/>
					</g>
				</g>
				<g>
					<g>
						<polygon fill="#FFFFFF" points="12.3,36.1 13,34.7 17.5,34 20.2,35.5 19.5,37 15,37.7 						"/>
					</g>
					<g>
						<path fill="#231F20" d="M15,37.9c0,0-0.1,0-0.1,0l-2.7-1.5C12,36.3,12,36.1,12.1,36l0.7-1.4c0-0.1,0.1-0.1,0.2-0.2l4.6-0.7
							c0.1,0,0.1,0,0.2,0l2.7,1.5c0.1,0.1,0.2,0.2,0.1,0.4l-0.7,1.4c0,0.1-0.1,0.1-0.2,0.2L15,37.9C15,37.9,15,37.9,15,37.9z
							 M12.7,36l2.4,1.4l4.3-0.7l0.5-1.1l-2.4-1.4l-4.3,0.7L12.7,36z"/>
					</g>
				</g>
			</g>
			<g>
				<g>
					<g>
						<polygon fill="#FFFFFF" points="20.6,38.3 20.5,49 14.7,49.9 14.7,39.2 						"/>
					</g>
					<g>
						<path fill="#231F20" d="M14.7,50.2c-0.1,0-0.1,0-0.2-0.1c-0.1-0.1-0.1-0.1-0.1-0.2l0-10.7c0-0.1,0.1-0.3,0.2-0.3l5.9-0.9
							c0.1,0,0.2,0,0.2,0.1s0.1,0.1,0.1,0.2l0,10.7c0,0.1-0.1,0.3-0.2,0.3L14.7,50.2C14.7,50.2,14.7,50.2,14.7,50.2z M15,39.5
							l0,10.1l5.3-0.8l0-10.1L15,39.5z"/>
					</g>
				</g>
			</g>
			<g>
				<g>
					<g>
						<polygon fill="#FFFFFF" points="14.7,39.2 14.7,49.9 10.4,47.4 10.4,36.7 						"/>
					</g>
					<g>
						<path fill="#231F20" d="M14.7,50.2c0,0-0.1,0-0.1,0l-4.3-2.5c-0.1-0.1-0.1-0.1-0.1-0.2l0-10.7c0-0.1,0.1-0.2,0.1-0.2
							c0.1-0.1,0.2,0,0.3,0l4.3,2.5c0.1,0.1,0.1,0.1,0.1,0.2l0,10.7c0,0.1-0.1,0.2-0.1,0.2C14.8,50.2,14.7,50.2,14.7,50.2z
							 M10.6,47.3l3.8,2.2l0-10l-3.8-2.2L10.6,47.3z"/>
					</g>
				</g>
			</g>
		</g>
	</g>
	<g>
		<g enable-background="new    ">
			<g>
				<g>
					<g>
						<polygon fill="#FFFFFF" points="32.6,36.3 32.6,47 31.1,50.4 31.1,39.7 						"/>
					</g>
					<g>
						<path fill="#231F20" d="M31.1,50.7C31,50.7,31,50.6,31.1,50.7c-0.2,0-0.3-0.1-0.3-0.3l0-10.7c0,0,0-0.1,0-0.1l1.6-3.4
							c0.1-0.1,0.2-0.2,0.3-0.2c0.1,0,0.2,0.1,0.2,0.3l0,10.7c0,0,0,0.1,0,0.1l-1.6,3.4C31.3,50.6,31.2,50.7,31.1,50.7z M31.4,39.7
							l0,9.3l1-2.2l0-9.3L31.4,39.7z"/>
					</g>
				</g>
			</g>
			<g>
				<g>
					<g>
						<polygon fill="#FFFFFF" points="32.6,36.3 31.1,39.7 25.2,40.6 20.9,38.1 22.5,34.7 28.3,33.8 						"/>
					</g>
					<g>
						<path fill="#231F20" d="M25.2,40.9c0,0-0.1,0-0.1,0l-4.3-2.5c-0.1-0.1-0.2-0.2-0.1-0.4l1.6-3.4c0-0.1,0.1-0.1,0.2-0.2l5.9-0.9
							c0.1,0,0.1,0,0.2,0l4.3,2.5c0.1,0.1,0.2,0.2,0.1,0.4l-1.6,3.4c0,0.1-0.1,0.1-0.2,0.2L25.2,40.9C25.2,40.9,25.2,40.9,25.2,40.9
							z M21.3,38l4,2.3l5.6-0.9l1.4-3l-4-2.3l-5.6,0.9L21.3,38z"/>
					</g>
				</g>
				<g>
					<g>
						<polygon fill="#FFFFFF" points="22.8,37.5 23.5,36 28,35.3 30.7,36.9 30.1,38.3 25.5,39 						"/>
					</g>
					<g>
						<path fill="#231F20" d="M25.5,39.3c0,0-0.1,0-0.1,0l-2.7-1.5c-0.1-0.1-0.2-0.2-0.1-0.4l0.7-1.4c0-0.1,0.1-0.1,0.2-0.2l4.6-0.7
							c0.1,0,0.1,0,0.2,0l2.7,1.5C31,36.7,31,36.9,31,37l-0.7,1.4c0,0.1-0.1,0.1-0.2,0.2L25.5,39.3C25.5,39.3,25.5,39.3,25.5,39.3z
							 M23.2,37.4l2.4,1.4l4.3-0.7l0.5-1.1L28,35.6l-4.3,0.7L23.2,37.4z"/>
					</g>
				</g>
			</g>
			<g>
				<g>
					<g>
						<polygon fill="#FFFFFF" points="31.1,39.7 31.1,50.4 25.2,51.3 25.2,40.6 						"/>
					</g>
					<g>
						<path fill="#231F20" d="M25.2,51.6c-0.1,0-0.1,0-0.2-0.1c-0.1-0.1-0.1-0.1-0.1-0.2l0-10.7c0-0.1,0.1-0.3,0.2-0.3l5.9-0.9
							c0.1,0,0.2,0,0.2,0.1c0.1,0.1,0.1,0.1,0.1,0.2l0,10.7c0,0.1-0.1,0.3-0.2,0.3L25.2,51.6C25.2,51.6,25.2,51.6,25.2,51.6z
							 M25.5,40.8l0,10.1l5.3-0.8l0-10.1L25.5,40.8z"/>
					</g>
				</g>
			</g>
			<g>
				<g>
					<g>
						<polygon fill="#FFFFFF" points="25.2,40.6 25.2,51.3 20.9,48.8 20.9,38.1 						"/>
					</g>
					<g>
						<path fill="#231F20" d="M25.2,51.6c0,0-0.1,0-0.1,0L20.7,49c-0.1-0.1-0.1-0.1-0.1-0.2l0-10.7c0-0.1,0.1-0.2,0.1-0.2
							c0.1-0.1,0.2,0,0.3,0l4.3,2.5c0.1,0.1,0.1,0.1,0.1,0.2l0,10.7c0,0.1-0.1,0.2-0.1,0.2C25.3,51.5,25.2,51.6,25.2,51.6z
							 M21.2,48.6l3.8,2.2l0-10l-3.8-2.2L21.2,48.6z"/>
					</g>
				</g>
			</g>
		</g>
	</g>
	<g>
		<g enable-background="new    ">
			<g>
				<g>
					<g>
						<polygon fill="#FFFFFF" points="25.2,40.7 25.2,51.4 23.6,54.8 23.6,44.1 						"/>
					</g>
					<g>
						<path fill="#231F20" d="M23.6,55.1C23.6,55.1,23.6,55.1,23.6,55.1c-0.2,0-0.3-0.1-0.3-0.3l0-10.7c0,0,0-0.1,0-0.1l1.6-3.4
							c0.1-0.1,0.2-0.2,0.3-0.2c0.1,0,0.2,0.1,0.2,0.3l0,10.7c0,0,0,0.1,0,0.1l-1.6,3.4C23.8,55,23.7,55.1,23.6,55.1z M23.9,44.2
							l0,9.3l1-2.2l0-9.3L23.9,44.2z"/>
					</g>
				</g>
			</g>
			<g>
				<g>
					<g>
						<polygon fill="#FFFFFF" points="25.2,40.7 23.6,44.1 17.8,45 13.5,42.5 15,39.1 20.9,38.2 						"/>
					</g>
					<g>
						<path fill="#231F20" d="M17.8,45.3c0,0-0.1,0-0.1,0l-4.3-2.5c-0.1-0.1-0.2-0.2-0.1-0.4l1.6-3.4c0-0.1,0.1-0.1,0.2-0.2l5.9-0.9
							c0.1,0,0.1,0,0.2,0l4.3,2.5c0.1,0.1,0.2,0.2,0.1,0.4l-1.6,3.4c0,0.1-0.1,0.1-0.2,0.2L17.8,45.3C17.8,45.3,17.8,45.3,17.8,45.3
							z M13.8,42.4l4,2.3l5.6-0.9l1.4-3l-4-2.3l-5.6,0.9L13.8,42.4z"/>
					</g>
				</g>
				<g>
					<g>
						<polygon fill="#FFFFFF" points="15.4,41.9 16,40.5 20.6,39.8 23.3,41.3 22.6,42.7 18.1,43.4 						"/>
					</g>
					<g>
						<path fill="#231F20" d="M18.1,43.7c0,0-0.1,0-0.1,0l-2.7-1.5c-0.1-0.1-0.2-0.2-0.1-0.4l0.7-1.4c0-0.1,0.1-0.1,0.2-0.2l4.6-0.7
							c0.1,0,0.1,0,0.2,0l2.7,1.5c0.1,0.1,0.2,0.2,0.1,0.4l-0.7,1.4c0,0.1-0.1,0.1-0.2,0.2L18.1,43.7C18.1,43.7,18.1,43.7,18.1,43.7
							z M15.7,41.8l2.4,1.4l4.3-0.7l0.5-1.1l-2.4-1.4l-4.3,0.7L15.7,41.8z"/>
					</g>
				</g>
			</g>
			<g>
				<g>
					<g>
						<polygon fill="#FFFFFF" points="23.6,44.1 23.6,54.8 17.7,55.7 17.8,45 						"/>
					</g>
					<g>
						<path fill="#231F20" d="M17.7,56c-0.1,0-0.1,0-0.2-0.1c-0.1-0.1-0.1-0.1-0.1-0.2l0-10.7c0-0.1,0.1-0.3,0.2-0.3l5.9-0.9
							c0.1,0,0.2,0,0.2,0.1c0.1,0.1,0.1,0.1,0.1,0.2l0,10.7c0,0.1-0.1,0.3-0.2,0.3L17.7,56C17.8,56,17.8,56,17.7,56z M18,45.2
							l0,10.1l5.3-0.8l0-10.1L18,45.2z"/>
					</g>
				</g>
			</g>
			<g>
				<g>
					<g>
						<polygon fill="#FFFFFF" points="17.8,45 17.7,55.7 13.4,53.2 13.5,42.5 						"/>
					</g>
					<g>
						<path fill="#231F20" d="M17.7,56c0,0-0.1,0-0.1,0l-4.3-2.5c-0.1-0.1-0.1-0.1-0.1-0.2l0-10.7c0-0.1,0.1-0.2,0.1-0.2
							c0.1-0.1,0.2,0,0.3,0l4.3,2.5C18,44.8,18,44.9,18,45l0,10.7c0,0.1-0.1,0.2-0.1,0.2C17.8,56,17.8,56,17.7,56z M13.7,53.1
							l3.8,2.2l0-10L13.7,43L13.7,53.1z"/>
					</g>
				</g>
			</g>
		</g>
	</g>
	<g>
		<g enable-background="new    ">
			<g>
				<g>
					<g>
						<polygon fill="#FFFFFF" points="42.6,37.8 42.6,48.5 41,51.9 41,41.2 						"/>
					</g>
					<g>
						<path fill="#231F20" d="M41,52.2C41,52.2,41,52.2,41,52.2c-0.2,0-0.3-0.1-0.3-0.3l0-10.7c0,0,0-0.1,0-0.1l1.6-3.4
							c0.1-0.1,0.2-0.2,0.3-0.2c0.1,0,0.2,0.1,0.2,0.3l0,10.7c0,0,0,0.1,0,0.1L41.3,52C41.2,52.1,41.1,52.2,41,52.2z M41.3,41.3
							l0,9.3l1-2.2l0-9.3L41.3,41.3z"/>
					</g>
				</g>
			</g>
			<g>
				<g>
					<g>
						<polygon fill="#FFFFFF" points="42.6,37.8 41,41.2 35.2,42.1 30.8,39.6 32.4,36.2 38.3,35.3 						"/>
					</g>
					<g>
						<path fill="#231F20" d="M35.2,42.4c0,0-0.1,0-0.1,0l-4.3-2.5c-0.1-0.1-0.2-0.2-0.1-0.4l1.6-3.4c0-0.1,0.1-0.1,0.2-0.2l5.9-0.9
							c0.1,0,0.1,0,0.2,0l4.3,2.5c0.1,0.1,0.2,0.2,0.1,0.4l-1.6,3.4c0,0.1-0.1,0.1-0.2,0.2L35.2,42.4C35.2,42.4,35.2,42.4,35.2,42.4
							z M31.2,39.5l4,2.3l5.6-0.9l1.4-3l-4-2.3l-5.6,0.9L31.2,39.5z"/>
					</g>
				</g>
				<g>
					<g>
						<polygon fill="#FFFFFF" points="32.8,39 33.4,37.6 38,36.9 40.7,38.4 40,39.8 35.5,40.5 						"/>
					</g>
					<g>
						<path fill="#231F20" d="M35.5,40.8c0,0-0.1,0-0.1,0l-2.7-1.5c-0.1-0.1-0.2-0.2-0.1-0.4l0.7-1.4c0-0.1,0.1-0.1,0.2-0.2l4.6-0.7
							c0.1,0,0.1,0,0.2,0l2.7,1.5c0.1,0.1,0.2,0.2,0.1,0.4L40.3,40c0,0.1-0.1,0.1-0.2,0.2L35.5,40.8C35.5,40.8,35.5,40.8,35.5,40.8z
							 M33.1,38.9l2.4,1.4l4.3-0.7l0.5-1.1l-2.4-1.4l-4.3,0.7L33.1,38.9z"/>
					</g>
				</g>
			</g>
			<g>
				<g>
					<g>
						<polygon fill="#FFFFFF" points="41,41.2 41,51.9 35.1,52.8 35.2,42.1 						"/>
					</g>
					<g>
						<path fill="#231F20" d="M35.1,53.1c-0.1,0-0.1,0-0.2-0.1c-0.1-0.1-0.1-0.1-0.1-0.2l0-10.7c0-0.1,0.1-0.3,0.2-0.3l5.9-0.9
							c0.1,0,0.2,0,0.2,0.1c0.1,0.1,0.1,0.1,0.1,0.2l0,10.7c0,0.1-0.1,0.3-0.2,0.3L35.1,53.1C35.2,53.1,35.2,53.1,35.1,53.1z
							 M35.4,42.3l0,10.1l5.3-0.8l0-10.1L35.4,42.3z"/>
					</g>
				</g>
			</g>
			<g>
				<g>
					<g>
						<polygon fill="#FFFFFF" points="35.2,42.1 35.1,52.8 30.8,50.3 30.8,39.6 						"/>
					</g>
					<g>
						<path fill="#231F20" d="M35.1,53.1c0,0-0.1,0-0.1,0l-4.3-2.5c-0.1-0.1-0.1-0.1-0.1-0.2l0-10.7c0-0.1,0.1-0.2,0.1-0.2
							c0.1-0.1,0.2,0,0.3,0l4.3,2.5c0.1,0.1,0.1,0.1,0.1,0.2l0,10.7c0,0.1-0.1,0.2-0.1,0.2C35.2,53.1,35.2,53.1,35.1,53.1z
							 M31.1,50.1l3.8,2.2l0-10l-3.8-2.2L31.1,50.1z"/>
					</g>
				</g>
			</g>
		</g>
	</g>
	<g>
		<g enable-background="new    ">
			<g>
				<g>
					<g>
						<polygon fill="#FFFFFF" points="35.1,40.5 35.1,52.9 33.6,56.3 33.6,43.9 						"/>
					</g>
					<g>
						<path fill="#231F20" d="M33.6,56.6C33.5,56.6,33.5,56.6,33.6,56.6c-0.2,0-0.3-0.1-0.3-0.3l0-12.5c0,0,0-0.1,0-0.1l1.6-3.4
							c0.1-0.1,0.2-0.2,0.3-0.2c0.1,0,0.2,0.1,0.2,0.3l0,12.5c0,0,0,0.1,0,0.1l-1.6,3.4C33.8,56.5,33.7,56.6,33.6,56.6z M33.9,43.9
							l0,11.1l1-2.2l0-11.1L33.9,43.9z"/>
					</g>
				</g>
			</g>
			<g>
				<g>
					<g>
						<polygon fill="#FFFFFF" points="35.1,40.5 33.6,43.9 27.7,44.8 23.4,42.3 25,38.9 30.8,38 						"/>
					</g>
					<g>
						<path fill="#231F20" d="M27.7,45c0,0-0.1,0-0.1,0l-4.3-2.5c-0.1-0.1-0.2-0.2-0.1-0.4l1.6-3.4c0-0.1,0.1-0.1,0.2-0.2l5.9-0.9
							c0.1,0,0.1,0,0.2,0l4.3,2.5c0.1,0.1,0.2,0.2,0.1,0.4L33.8,44c0,0.1-0.1,0.1-0.2,0.2L27.7,45C27.7,45,27.7,45,27.7,45z
							 M23.8,42.2l4,2.3l5.6-0.9l1.4-3l-4-2.3l-5.6,0.9L23.8,42.2z"/>
					</g>
				</g>
				<g>
					<g>
						<polygon fill="#FFFFFF" points="25.3,41.7 26,40.2 30.5,39.5 33.2,41.1 32.6,42.5 28,43.2 						"/>
					</g>
					<g>
						<path fill="#231F20" d="M28,43.5c0,0-0.1,0-0.1,0l-2.7-1.5c-0.1-0.1-0.2-0.2-0.1-0.4l0.7-1.4c0-0.1,0.1-0.1,0.2-0.2l4.6-0.7
							c0.1,0,0.1,0,0.2,0l2.7,1.5c0.1,0.1,0.2,0.2,0.1,0.4l-0.7,1.4c0,0.1-0.1,0.1-0.2,0.2L28,43.5C28,43.5,28,43.5,28,43.5z
							 M25.7,41.5l2.4,1.4l4.3-0.7l0.5-1.1l-2.4-1.4l-4.3,0.7L25.7,41.5z"/>
					</g>
				</g>
			</g>
			<g>
				<g>
					<g>
						<polygon fill="#FFFFFF" points="33.6,43.9 33.6,56.3 27.7,57.2 27.7,44.8 						"/>
					</g>
					<g>
						<path fill="#231F20" d="M27.7,57.5c-0.1,0-0.1,0-0.2-0.1c-0.1-0.1-0.1-0.1-0.1-0.2l0-12.5c0-0.1,0.1-0.3,0.2-0.3l5.9-0.9
							c0.1,0,0.2,0,0.2,0.1c0.1,0.1,0.1,0.1,0.1,0.2l0,12.5c0,0.1-0.1,0.3-0.2,0.3L27.7,57.5C27.7,57.5,27.7,57.5,27.7,57.5z M28,45
							l0,11.9l5.3-0.8l0-11.9L28,45z"/>
					</g>
				</g>
			</g>
			<g>
				<g>
					<g>
						<polygon fill="#FFFFFF" points="27.7,44.8 27.7,57.2 23.4,54.7 23.4,42.3 						"/>
					</g>
					<g>
						<path fill="#231F20" d="M27.7,57.5c0,0-0.1,0-0.1,0L23.2,55c-0.1-0.1-0.1-0.1-0.1-0.2l0-12.5c0-0.1,0.1-0.2,0.1-0.2
							c0.1,0,0.2,0,0.3,0l4.3,2.5c0.1,0.1,0.1,0.1,0.1,0.2l0,12.5c0,0.1-0.1,0.2-0.1,0.2C27.8,57.5,27.7,57.5,27.7,57.5z M23.7,54.6
							l3.8,2.2l0-11.8l-3.8-2.2L23.7,54.6z"/>
					</g>
				</g>
			</g>
		</g>
	</g>
	<g>
		<g>
			<path fill="#231F20" d="M7.5,30.6c-0.2,0-0.3-0.1-0.3-0.3v-2.9c0-0.2,0.1-0.3,0.3-0.3s0.3,0.1,0.3,0.3v2.9
				C7.8,30.5,7.6,30.6,7.5,30.6z"/>
		</g>
	</g>
	<g>
		<g>
			<path fill="#231F20" d="M7,40c-0.2,0-0.3-0.1-0.3-0.3v-7.6c0-0.2,0.1-0.3,0.3-0.3s0.3,0.1,0.3,0.3v7.6C7.2,39.9,7.1,40,7,40z"/>
		</g>
	</g>
	<g>
		<g>
			<path fill="#231F20" d="M15,31.5c-0.2,0-0.3-0.1-0.3-0.3v-2.7c0-0.2,0.1-0.3,0.3-0.3c0.2,0,0.3,0.1,0.3,0.3v2.7
				C15.3,31.4,15.1,31.5,15,31.5z"/>
		</g>
	</g>
	<g>
		<g>
			<path fill="#231F20" d="M24.6,31.2c-0.2,0-0.3-0.1-0.3-0.3l0-2.9c0-0.2,0.1-0.3,0.3-0.3c0,0,0,0,0,0c0.2,0,0.3,0.1,0.3,0.3l0,2.9
				C24.8,31.1,24.7,31.2,24.6,31.2C24.6,31.2,24.6,31.2,24.6,31.2z"/>
		</g>
	</g>
	<g>
		<g>
			<path fill="#231F20" d="M17.2,37.5c-0.2,0-0.3-0.1-0.3-0.3v-2.9c0-0.2,0.1-0.3,0.3-0.3c0.2,0,0.3,0.1,0.3,0.3v2.9
				C17.5,37.4,17.4,37.5,17.2,37.5z"/>
		</g>
	</g>
	<g>
		<g>
			<path fill="#231F20" d="M20.3,42.6c-0.2,0-0.3-0.1-0.3-0.3v-2.5c0-0.2,0.1-0.3,0.3-0.3s0.3,0.1,0.3,0.3v2.5
				C20.6,42.5,20.5,42.6,20.3,42.6z"/>
		</g>
	</g>
	<g>
		<g>
			<path fill="#231F20" d="M28,38.7c-0.2,0-0.3-0.1-0.3-0.3v-2.9c0-0.2,0.1-0.3,0.3-0.3s0.3,0.1,0.3,0.3v2.9
				C28.3,38.6,28.2,38.7,28,38.7z"/>
		</g>
	</g>
	<g>
		<g>
			<path fill="#231F20" d="M30.5,43.1c-0.2,0-0.3-0.1-0.3-0.3v-3.1c0-0.2,0.1-0.3,0.3-0.3c0.2,0,0.3,0.1,0.3,0.3v3.1
				C30.8,43,30.7,43.1,30.5,43.1z"/>
		</g>
	</g>
	<g>
		<g>
			<path fill="#231F20" d="M37.8,40.1c-0.2,0-0.3-0.1-0.3-0.3v-2.4c0-0.2,0.1-0.3,0.3-0.3s0.3,0.1,0.3,0.3v2.4
				C38.1,40,38,40.1,37.8,40.1z"/>
		</g>
	</g>
</g>
</svg>
