<?xml version="1.0" encoding="utf-8"?>
<!-- Generator: Adobe Illustrator 18.1.1, SVG Export Plug-In . SVG Version: 6.00 Build 0)  -->
<!DOCTYPE svg PUBLIC "-//W3C//DTD SVG 1.1//EN" "http://www.w3.org/Graphics/SVG/1.1/DTD/svg11.dtd">
<svg version="1.1" id="Layer_1" xmlns="http://www.w3.org/2000/svg" xmlns:xlink="http://www.w3.org/1999/xlink" x="0px" y="0px"
	 viewBox="0 0 55 65" enable-background="new 0 0 55 65" xml:space="preserve">
<g>
	<g>
		<path fill="#FFFFFF" d="M25.6,53l0.5,2.2l1.7,2.1l9.9-6.6l-0.1-3.6l-4.1-2.3L33,18.2l3-2l0-2.9l0,0l0,0v0h0L27.2,8l-8.6,5l7.4,4.7
			l0.6,0.3l0,1.1l-0.6,1.3l0.6,0.4l-0.5,29.8c0.1,0,0.1-0.1,0.2-0.1c0.1,0,0.1-0.1,0.2-0.1c0,0,0,0,0.1,0l-0.1,3.1L25.6,53z
			 M30.5,19.2C30.5,19.2,30.5,19.2,30.5,19.2L30.5,19.2C30.5,19.2,30.5,19.2,30.5,19.2L30.5,19.2z"/>
	</g>
	<g>
		<g enable-background="new    ">
			<g>
				<g>
					<polyline fill="#FFFFFF" points="27.7,53.7 17.2,47.8 27.5,41.6 					"/>
					<path fill="#231F20" d="M27.7,53.9c0,0-0.1,0-0.1,0L17,48c-0.1,0-0.1-0.1-0.1-0.2c0-0.1,0-0.2,0.1-0.2l10.3-6.2
						c0.1-0.1,0.3,0,0.3,0.1c0.1,0.1,0,0.3-0.1,0.3l-10,6l10.2,5.7c0.1,0.1,0.2,0.2,0.1,0.3C27.9,53.9,27.8,53.9,27.7,53.9z"/>
				</g>
			</g>
			<g>
				<g>
					<polyline fill="#FFFFFF" points="28.9,56.4 27.7,57.1 27.7,53.7 28.7,53.2 					"/>
					<path fill="#231F20" d="M27.7,57.3c0,0-0.1,0-0.1,0c-0.1,0-0.1-0.1-0.1-0.2l0-3.4c0-0.1,0-0.2,0.1-0.2l0.9-0.6
						c0.1-0.1,0.3,0,0.3,0.1c0.1,0.1,0,0.3-0.1,0.3L28,53.8l0,2.9l0.8-0.5c0.1-0.1,0.3,0,0.3,0.1c0.1,0.1,0,0.3-0.1,0.3l-1.1,0.7
						C27.8,57.3,27.8,57.3,27.7,57.3z"/>
				</g>
			</g>
			<g>
				<g>
					<polygon fill="#FFFFFF" points="27.7,53.7 27.7,57.1 17.2,51.2 17.2,47.8 					"/>
					<path fill="#231F20" d="M27.7,57.3c0,0-0.1,0-0.1,0L17,51.4c-0.1,0-0.1-0.1-0.1-0.2l0-3.4c0-0.1,0-0.2,0.1-0.2
						c0.1,0,0.2,0,0.2,0l10.6,5.9c0.1,0,0.1,0.1,0.1,0.2l0,3.4c0,0,0,0,0,0C28,57.2,27.9,57.3,27.7,57.3
						C27.7,57.3,27.7,57.3,27.7,57.3z M17.4,51.1l10.1,5.7l0-2.9l-10.1-5.7L17.4,51.1z"/>
				</g>
			</g>
		</g>
	</g>
	<g>
		<g>
			<path fill="#231F20" d="M32.1,43.1c-0.1,0-0.2-0.1-0.2-0.2v-3.4c0-0.1,0.1-0.2,0.2-0.2c0.1,0,0.2,0.1,0.2,0.2v3.4
				C32.3,43,32.2,43.1,32.1,43.1z"/>
		</g>
		<g>
			<path fill="#231F20" d="M29.4,44.9c-0.3,0-0.4-0.2-0.4-0.5V42c0-0.3,0.2-0.8,0.6-1l0.5-0.3c0.1-0.1,0.3-0.1,0.4-0.1
				c0.3,0,0.4,0.2,0.4,0.5v2.5c0,0.3-0.2,0.8-0.6,1l-0.5,0.3C29.6,44.9,29.5,44.9,29.4,44.9z M30.4,41c0,0-0.1,0-0.1,0.1l-0.5,0.3
				c-0.2,0.1-0.4,0.4-0.4,0.6v2.5c0,0,0,0,0,0c0,0,0.1,0,0.1-0.1l0.5-0.3c0.2-0.1,0.4-0.4,0.4-0.6L30.4,41C30.4,41,30.4,41,30.4,41z
				"/>
		</g>
		<g>
			<path fill="#231F20" d="M33.8,41.9c-0.3,0-0.4-0.2-0.4-0.5V39c0-0.3,0.2-0.8,0.6-1l0.5-0.3c0.1-0.1,0.3-0.1,0.4-0.1
				c0.3,0,0.4,0.2,0.4,0.5v2.5c0,0.3-0.2,0.8-0.6,1l-0.5,0.3C34,41.9,33.9,41.9,33.8,41.9z M34.8,38c0,0-0.1,0-0.1,0.1l-0.5,0.3
				c-0.2,0.1-0.4,0.4-0.4,0.6v2.5c0,0,0,0,0,0c0,0,0.1,0,0.1-0.1l0.5-0.3c0.2-0.1,0.4-0.4,0.4-0.6L34.8,38C34.8,38,34.8,38,34.8,38z
				"/>
		</g>
	</g>
	<g>
		<g>
			<path fill="#231F20" d="M29.4,39.4c-0.1,0-0.1,0-0.2-0.1c-0.1-0.1,0-0.2,0.1-0.3c0.3-0.2,0.6-0.7,0.6-1v-2c0-0.1,0-0.1,0-0.1
				c0,0-0.2,0-0.3,0.1c-0.1,0.1-0.2,0-0.3-0.1c-0.1-0.1,0-0.2,0.1-0.3c0.3-0.2,0.6-0.2,0.8-0.1c0.2,0.1,0.3,0.3,0.3,0.5v2
				c0,0.5-0.4,1.1-0.8,1.4C29.5,39.4,29.5,39.4,29.4,39.4z"/>
		</g>
		<g>
			<path fill="#231F20" d="M33.9,36.3c-0.3,0-0.4-0.2-0.4-0.5v-2.5c0-0.3,0.2-0.8,0.6-1l0.5-0.3c0.1-0.1,0.3-0.1,0.4-0.1
				c0.3,0,0.4,0.2,0.4,0.5v2.5c0,0.3-0.2,0.8-0.6,1l-0.5,0.3C34.2,36.2,34,36.3,33.9,36.3z M34.9,32.3c0,0-0.1,0-0.1,0.1l-0.5,0.3
				c-0.2,0.1-0.4,0.4-0.4,0.6v2.5c0,0,0,0,0,0c0,0,0.1,0,0.1-0.1l0.5-0.3c0.2-0.1,0.4-0.4,0.4-0.6L34.9,32.3
				C34.9,32.3,34.9,32.3,34.9,32.3z"/>
		</g>
		<g>
			<path fill="#231F20" d="M31.9,37.7c-0.1,0-0.2-0.1-0.2-0.2v-3.4c0-0.1,0.1-0.2,0.2-0.2c0.1,0,0.2,0.1,0.2,0.2v3.4
				C32.1,37.6,32,37.7,31.9,37.7z"/>
		</g>
	</g>
	<g>
		<g>
			<path fill="#231F20" d="M31.8,54.7c-0.3,0-0.4-0.2-0.4-0.5v-2.5c0-0.3,0.2-0.8,0.6-1l0.5-0.3c0.1-0.1,0.3-0.1,0.4-0.1
				c0.3,0,0.4,0.2,0.4,0.5v2.5c0,0.3-0.2,0.8-0.6,1l-0.5,0.3C32,54.7,31.9,54.7,31.8,54.7z M32.8,50.7c0,0-0.1,0-0.1,0.1l-0.5,0.3
				c-0.2,0.1-0.4,0.4-0.4,0.6v2.5c0,0,0,0,0,0c0,0,0.1,0,0.1-0.1l0.5-0.3c0.2-0.1,0.4-0.4,0.4-0.6L32.8,50.7
				C32.8,50.7,32.8,50.7,32.8,50.7z"/>
		</g>
		<g>
			<path fill="#231F20" d="M30,56c-0.1,0-0.2-0.1-0.2-0.2v-3.4c0-0.1,0.1-0.2,0.2-0.2c0.1,0,0.2,0.1,0.2,0.2v3.4
				C30.2,55.9,30.1,56,30,56z"/>
		</g>
		<g>
			<path fill="#231F20" d="M34.7,52.7c-0.3,0-0.4-0.2-0.4-0.5v-2.5c0-0.3,0.2-0.8,0.6-1l0.5-0.3c0.1-0.1,0.3-0.1,0.4-0.1
				c0.3,0,0.4,0.2,0.4,0.5v2.5c0,0.3-0.2,0.8-0.6,1l-0.5,0.3C35,52.6,34.9,52.7,34.7,52.7z M35.7,48.7c0,0-0.1,0-0.1,0.1l-0.5,0.3
				c-0.2,0.1-0.4,0.4-0.4,0.6v2.5c0,0,0,0,0,0c0,0,0.1,0,0.1-0.1l0.5-0.3c0.2-0.1,0.4-0.4,0.4-0.6L35.7,48.7
				C35.7,48.7,35.7,48.7,35.7,48.7z"/>
		</g>
		<g>
			<path fill="#231F20" d="M37.5,50.8c-0.1,0-0.2-0.1-0.2-0.2v-3.4c0-0.1,0.1-0.2,0.2-0.2s0.2,0.1,0.2,0.2v3.4
				C37.7,50.7,37.6,50.8,37.5,50.8z"/>
		</g>
	</g>
	<g>
		<g>
			<path fill="#231F20" d="M29.2,50.9c-0.1,0-0.1,0-0.2-0.1c-0.1-0.1,0-0.2,0.1-0.3c0.3-0.2,0.6-0.7,0.6-1v-2c0-0.1,0-0.1,0-0.1
				c0,0-0.2,0-0.3,0.1c-0.1,0.1-0.2,0-0.3-0.1c-0.1-0.1,0-0.2,0.1-0.3c0.3-0.2,0.6-0.2,0.8-0.1c0.2,0.1,0.3,0.3,0.3,0.5v2
				c0,0.5-0.4,1.1-0.8,1.4C29.3,50.9,29.3,50.9,29.2,50.9z"/>
		</g>
		<g>
			<path fill="#231F20" d="M32.8,48.4c-0.3,0-0.4-0.2-0.4-0.5v-2.5c0-0.3,0.2-0.8,0.6-1l0.5-0.3c0.1-0.1,0.3-0.1,0.4-0.1
				c0.3,0,0.4,0.2,0.4,0.5V47c0,0.3-0.2,0.8-0.6,1l-0.5,0.3C33.1,48.4,32.9,48.4,32.8,48.4z M33.8,44.5c0,0-0.1,0-0.1,0.1l-0.5,0.3
				c-0.2,0.1-0.4,0.4-0.4,0.6v2.5c0,0,0,0,0,0c0,0,0.1,0,0.1-0.1l0.5-0.3c0.2-0.1,0.4-0.4,0.4-0.6L33.8,44.5
				C33.8,44.5,33.8,44.5,33.8,44.5z"/>
		</g>
		<g>
			<path fill="#231F20" d="M31.3,49.5c-0.1,0-0.2-0.1-0.2-0.2v-3.4c0-0.1,0.1-0.2,0.2-0.2s0.2,0.1,0.2,0.2v3.4
				C31.5,49.4,31.4,49.5,31.3,49.5z"/>
		</g>
		<g>
			<path fill="#231F20" d="M35.4,46.7c-0.1,0-0.2-0.1-0.2-0.2v-3.4c0-0.1,0.1-0.2,0.2-0.2s0.2,0.1,0.2,0.2v3.4
				C35.6,46.6,35.5,46.7,35.4,46.7z"/>
		</g>
	</g>
	<g>
		<g>
			<path fill="#231F20" d="M32.2,20.5c-0.1,0-0.2-0.1-0.2-0.2v-3.4c0-0.1,0.1-0.2,0.2-0.2s0.2,0.1,0.2,0.2v3.4
				C32.4,20.4,32.3,20.5,32.2,20.5z"/>
		</g>
		<g>
			<path fill="#231F20" d="M29.5,22.3c-0.3,0-0.4-0.2-0.4-0.5v-2.5c0-0.3,0.2-0.8,0.6-1l0.5-0.3c0.1-0.1,0.3-0.1,0.4-0.1
				c0.3,0,0.4,0.2,0.4,0.5v2.5c0,0.3-0.2,0.8-0.6,1l-0.5,0.3C29.7,22.2,29.6,22.3,29.5,22.3z M30.5,18.3c0,0-0.1,0-0.1,0.1l-0.5,0.3
				c-0.2,0.1-0.4,0.4-0.4,0.6v2.5c0,0,0,0,0,0c0,0,0.1,0,0.1-0.1l0.5-0.3c0.2-0.1,0.4-0.4,0.4-0.6L30.5,18.3
				C30.5,18.3,30.5,18.3,30.5,18.3z"/>
		</g>
		<g>
			<path fill="#231F20" d="M33.9,19.3c-0.3,0-0.4-0.2-0.4-0.5v-2.5c0-0.3,0.2-0.8,0.6-1l0.5-0.3c0.1-0.1,0.3-0.1,0.4-0.1
				c0.3,0,0.4,0.2,0.4,0.5v2.5c0,0.3-0.2,0.8-0.6,1l-0.5,0.3C34.1,19.2,34,19.3,33.9,19.3z M34.9,15.3c0,0-0.1,0-0.1,0.1l-0.5,0.3
				c-0.2,0.1-0.4,0.4-0.4,0.6v2.5c0,0,0,0,0,0c0,0,0.1,0,0.1-0.1l0.5-0.3c0.2-0.1,0.4-0.4,0.4-0.6L34.9,15.3
				C34.9,15.3,34.9,15.3,34.9,15.3z"/>
		</g>
		<g>
			<path fill="#231F20" d="M36.8,17.3c-0.3,0-0.4-0.2-0.4-0.5v-2.5c0-0.3,0.2-0.8,0.6-1l0.5-0.3c0.1-0.1,0.3-0.1,0.4-0.1
				c0.3,0,0.4,0.2,0.4,0.5v2.5c0,0.3-0.2,0.8-0.6,1l-0.5,0.3C37,17.2,36.9,17.3,36.8,17.3z M37.8,13.3c0,0-0.1,0-0.1,0.1l-0.5,0.3
				c-0.2,0.1-0.4,0.4-0.4,0.6v2.5c0,0,0,0,0,0c0,0,0.1,0,0.1-0.1l0.5-0.3c0.2-0.1,0.4-0.4,0.4-0.6L37.8,13.3
				C37.8,13.3,37.8,13.3,37.8,13.3z"/>
		</g>
	</g>
	<g>
		<g>
			<path fill="#231F20" d="M31.2,32.3c-0.3,0-0.4-0.2-0.4-0.5v-2.5c0-0.3,0.2-0.8,0.6-1l0.5-0.3c0.1-0.1,0.3-0.1,0.4-0.1
				c0.3,0,0.4,0.2,0.4,0.5v2.5c0,0.3-0.2,0.8-0.6,1l-0.5,0.3C31.5,32.3,31.3,32.3,31.2,32.3z M32.2,28.4c0,0-0.1,0-0.1,0.1l-0.5,0.3
				c-0.2,0.1-0.4,0.4-0.4,0.6v2.5c0,0,0,0,0,0c0,0,0.1,0,0.1-0.1l0.5-0.3c0.2-0.1,0.4-0.4,0.4-0.6L32.2,28.4
				C32.2,28.4,32.2,28.4,32.2,28.4z"/>
		</g>
		<g>
			<path fill="#231F20" d="M29.5,33.6c-0.1,0-0.2-0.1-0.2-0.2V30c0-0.1,0.1-0.2,0.2-0.2c0.1,0,0.2,0.1,0.2,0.2v3.4
				C29.7,33.5,29.6,33.6,29.5,33.6z"/>
		</g>
		<g>
			<path fill="#231F20" d="M34.2,30.3c-0.3,0-0.4-0.2-0.4-0.5v-2.5c0-0.3,0.2-0.8,0.6-1l0.5-0.3c0.1-0.1,0.3-0.1,0.4-0.1
				c0.3,0,0.4,0.2,0.4,0.5v2.5c0,0.3-0.2,0.8-0.6,1l-0.5,0.3C34.4,30.3,34.3,30.3,34.2,30.3z M35.2,26.4c0,0-0.1,0-0.1,0.1l-0.5,0.3
				c-0.2,0.1-0.4,0.4-0.4,0.6v2.5c0,0,0,0,0,0c0,0,0.1,0,0.1-0.1l0.5-0.3c0.2-0.1,0.4-0.4,0.4-0.6L35.2,26.4
				C35.2,26.4,35.2,26.4,35.2,26.4z"/>
		</g>
	</g>
	<g>
		<g>
			<path fill="#231F20" d="M29.3,28.4c-0.1,0-0.1,0-0.2-0.1c-0.1-0.1,0-0.2,0.1-0.3c0.3-0.2,0.6-0.7,0.6-1v-2c0-0.1,0-0.1,0-0.1
				c0,0-0.2,0-0.3,0.1c-0.1,0.1-0.2,0-0.3-0.1c-0.1-0.1,0-0.2,0.1-0.3c0.3-0.2,0.6-0.2,0.8-0.1c0.2,0.1,0.3,0.3,0.3,0.5v2
				c0,0.5-0.4,1.1-0.8,1.4C29.4,28.4,29.4,28.4,29.3,28.4z"/>
		</g>
		<g>
			<path fill="#231F20" d="M32.9,25.9c-0.3,0-0.4-0.2-0.4-0.5v-2.5c0-0.3,0.2-0.8,0.6-1l0.5-0.3c0.1-0.1,0.3-0.1,0.4-0.1
				c0.3,0,0.4,0.2,0.4,0.5v2.5c0,0.3-0.2,0.8-0.6,1l-0.5,0.3C33.2,25.8,33,25.9,32.9,25.9z M33.9,21.9c0,0-0.1,0-0.1,0.1l-0.5,0.3
				c-0.2,0.1-0.4,0.4-0.4,0.6v2.5c0,0,0,0,0,0c0,0,0.1,0,0.1-0.1l0.5-0.3c0.2-0.1,0.4-0.4,0.4-0.6L33.9,21.9
				C33.9,21.9,33.9,21.9,33.9,21.9z"/>
		</g>
		<g>
			<path fill="#231F20" d="M31.4,27c-0.1,0-0.2-0.1-0.2-0.2v-3.4c0-0.1,0.1-0.2,0.2-0.2s0.2,0.1,0.2,0.2v3.4
				C31.6,26.9,31.5,27,31.4,27z"/>
		</g>
		<g>
			<path fill="#231F20" d="M35.5,24.2c-0.1,0-0.2-0.1-0.2-0.2v-3.4c0-0.1,0.1-0.2,0.2-0.2s0.2,0.1,0.2,0.2V24
				C35.7,24.1,35.6,24.2,35.5,24.2z"/>
		</g>
	</g>
	<g>
		<path fill="#FFFFFF" d="M21.8,48.5C21.8,48.5,21.8,48.5,21.8,48.5l0,0.8c0.1,0,0.2,0,0.3,0c0,0,0,0,0,0c0.1,0,0.2,0,0.3,0
			c0,0,0,0,0,0c0.1,0,0.2,0,0.3,0.1c0,0,0,0,0.1,0c0.1,0,0.2,0.1,0.3,0.1c0.3,0.2,0.5,0.4,0.5,0.6l0.2-30.8c0-0.2-0.1-0.4-0.4-0.6
			c-0.1,0-0.1-0.1-0.2-0.1c0,0,0,0,0,0c0,0,0,0,0,0c0,0-0.1,0-0.1,0c0,0-0.1,0-0.1,0c0,0,0,0,0,0c0,0,0,0,0,0c0,0-0.1,0-0.1,0
			c0,0-0.1,0-0.1,0c0,0,0,0,0,0c0,0,0,0,0,0c0,0-0.1,0-0.1,0c0,0,0,0-0.1,0l0-0.3c0-0.1,0-0.2-0.1-0.3c-0.1-0.1-0.2-0.2-0.3-0.2
			c-0.1,0-0.1-0.5-0.7-0.5l-0.5,30.5c0,0,1.1,0.9,1,1.3"/>
		<path fill="#231F20" d="M23.5,50.4c-0.1,0-0.2-0.1-0.2-0.2c0-0.2-0.1-0.3-0.4-0.5c-0.1,0-0.1-0.1-0.2-0.1c0,0,0,0,0,0l0,0
			c-0.1,0-0.2,0-0.2-0.1l0,0c-0.1,0-0.2,0-0.3,0l0,0c-0.1,0-0.2,0-0.3,0c-0.1,0-0.1,0-0.2-0.1s-0.1-0.1-0.1-0.2l0-0.3
			c-0.1-0.2-0.5-0.7-1-1.1c-0.1,0-0.1-0.1-0.1-0.2L21,17.2c0-0.1,0-0.1,0.1-0.2c0,0,0.1-0.1,0.2-0.1c0.6,0,0.7,0.4,0.8,0.6
			c0,0,0,0,0,0c0.1,0.1,0.2,0.2,0.3,0.2c0.1,0.1,0.2,0.3,0.2,0.5l0,0.1c0,0,0.1,0,0.1,0c0,0,0.1,0,0.1,0c0,0,0,0,0,0
			c0.1,0,0.1,0,0.2,0c0,0,0.1,0,0.1,0l0,0c0,0,0,0,0,0c0,0,0,0,0,0c0.1,0,0.2,0.1,0.2,0.1c0.3,0.2,0.5,0.5,0.5,0.8l-0.2,30.8
			C23.8,50.3,23.7,50.4,23.5,50.4L23.5,50.4z M22.1,49C22.1,49,22.1,49,22.1,49l0.1,0c0.1,0,0.2,0,0.3,0l0,0c0.1,0,0.2,0,0.3,0.1
			l0,0c0,0,0,0,0,0c0.1,0,0.2,0.1,0.3,0.1c0,0,0.1,0.1,0.1,0.1l0.2-30c0-0.1-0.1-0.3-0.3-0.4c-0.1,0-0.1-0.1-0.2-0.1c0,0,0,0,0,0
			l-0.1,0c0,0,0,0,0,0c0,0-0.1,0-0.1,0c0,0,0,0,0,0c0,0-0.1,0-0.1,0c0,0-0.1,0-0.1,0l0,0c0,0,0,0,0,0c0,0-0.1,0-0.1,0c0,0,0,0,0,0
			l0,0c-0.1,0-0.1,0-0.2-0.1c0,0-0.1-0.1-0.1-0.2l0-0.3c0-0.1,0-0.1-0.1-0.2C22,18,21.9,18,21.8,17.9c-0.1,0-0.1-0.1-0.1-0.2
			c0-0.1-0.1-0.2-0.2-0.3L21,47.6c0.2,0.2,0.5,0.4,0.7,0.7c0.1,0,0.2,0,0.3,0.1c0,0,0,0,0,0.1c0,0,0,0.1,0,0.1l0,0.3
			C22.1,48.9,22.1,49,22.1,49C22.1,49,22.1,49,22.1,49z"/>
	</g>
	<g>
		<path fill="#FFFFFF" d="M25.2,19.6c-0.1,0-0.1-0.1-0.2-0.1c0,0,0,0,0,0c-0.1,0-0.1,0-0.2-0.1c0,0,0,0,0,0c0,0-0.1,0-0.1,0
			c0,0-0.1,0-0.1,0c0,0,0,0,0,0c0,0,0,0,0,0c0,0-0.1,0-0.1,0c0,0-0.1,0-0.1,0c0,0,0,0-0.1,0c0,0,0,0,0,0c0,0,0,0,0,0
			c-0.1,0-0.1,0-0.2,0c0,0,0,0,0,0c0,0,0,0-0.1,0c0,0,0,0-0.1,0c-0.1,0-0.1,0-0.2,0l-0.2,30.8c0.1,0,0.2,0,0.3-0.1c0,0,0,0,0.1,0
			c0.1,0,0.2,0,0.3,0c0,0,0,0,0,0c0.1,0,0.2,0,0.3,0c0,0,0,0,0,0c0.1,0,0.2,0,0.3,0.1c0.1,0,0.2,0,0.2,0.1c0.1,0,0.1,0.1,0.2,0.1
			c0.2,0.1,0.3,0.3,0.4,0.4l-0.1-30.9C25.5,19.8,25.4,19.7,25.2,19.6z"/>
		<path fill="#231F20" d="M25.7,51c-0.1,0-0.2,0-0.2-0.1c-0.1-0.1-0.2-0.2-0.3-0.3c-0.1,0-0.1-0.1-0.2-0.1c-0.1,0-0.1,0-0.2-0.1
			c-0.1,0-0.2,0-0.3-0.1l0,0c-0.1,0-0.2,0-0.2,0l-0.1,0c-0.1,0-0.2,0-0.3,0c0,0,0,0-0.1,0c-0.1,0-0.2,0-0.3,0.1c-0.1,0-0.1,0-0.2,0
			s-0.1-0.1-0.1-0.2l0.2-30.8c0-0.1,0.1-0.2,0.2-0.2c0.1,0,0.1,0,0.2,0c0,0,0,0,0.1,0l0,0c0,0,0,0,0.1,0l0,0c0,0,0,0,0,0
			c0.1,0,0.1,0,0.2,0c0,0,0,0,0,0l0.1,0c0,0,0,0,0,0c0.1,0,0.1,0,0.2,0c0,0,0,0,0.1,0l0,0c0,0,0,0,0,0c0,0,0.1,0,0.1,0
			c0,0,0.1,0,0.1,0l0,0c0.1,0,0.1,0,0.2,0.1c0,0,0,0,0,0c0.1,0,0.1,0.1,0.2,0.1c0.2,0.1,0.4,0.3,0.5,0.4c0,0,0,0.1,0,0.1L26,50.8
			C26,50.9,25.9,51,25.7,51C25.8,51,25.8,51,25.7,51z M24.3,49.9c0.1,0,0.2,0,0.3,0l0,0c0.1,0,0.2,0,0.4,0.1c0.1,0,0.2,0,0.3,0.1
			c0.1,0,0.2,0.1,0.2,0.1c0,0,0,0,0.1,0L25.4,20c-0.1-0.1-0.1-0.1-0.2-0.2c0,0-0.1,0-0.2-0.1c0,0,0,0,0,0c0,0-0.1,0-0.1,0l0,0
			c0,0-0.1,0-0.1,0c0,0-0.1,0-0.1,0l0,0c0,0,0,0,0,0l0,0c0,0,0,0,0,0c0,0-0.1,0-0.1,0l-0.1,0c0,0-0.1,0-0.1,0l0,0c0,0,0,0,0,0
			c0,0,0,0,0,0l0,0c0,0,0,0,0,0l-0.2,30.3c0,0,0,0,0,0c0,0,0,0,0.1,0C24,49.9,24.1,49.9,24.3,49.9L24.3,49.9z"/>
	</g>
	<g>
		<path fill="#FFFFFF" d="M27.5,50.6C27.5,50.6,27.5,50.6,27.5,50.6c0.1,0,0.2,0,0.2,0.1c0.1,0,0.2,0.1,0.2,0.1
			c0.1,0,0.1,0.1,0.2,0.1L27.7,20c0,0-0.1-0.1-0.2-0.1c-0.1,0-0.1-0.1-0.2-0.1c0,0,0,0,0,0c-0.1,0-0.1,0-0.2-0.1c0,0,0,0,0,0
			c0,0,0,0,0,0c0,0-0.1,0-0.1,0c0,0,0,0-0.1,0c0,0,0,0,0,0c0,0,0,0,0,0c0,0-0.1,0-0.1,0c0,0,0,0-0.1,0c0,0,0,0-0.1,0
			c0,0-0.1,0-0.1,0c0,0-0.1,0-0.1,0c0,0,0,0,0,0c0,0,0,0,0,0c-0.1,0-0.1,0-0.2,0c0,0,0,0,0,0c0,0-0.1,0-0.1,0c0,0-0.1,0-0.1,0
			c0,0,0,0,0,0c-0.1,0-0.2,0.1-0.3,0.1l0.1,30.9c0.1-0.1,0.2-0.1,0.3-0.1c0,0,0.1,0,0.1,0c0,0,0.1,0,0.1,0c0.1,0,0.2,0,0.3,0
			c0,0,0,0,0,0c0.1,0,0.2,0,0.3,0c0.1,0,0.2,0,0.3,0c0,0,0,0,0,0C27.4,50.5,27.4,50.5,27.5,50.6z"/>
		<path fill="#231F20" d="M28.1,51.1c-0.1,0-0.1,0-0.1,0c0,0-0.1-0.1-0.1-0.1c-0.1,0-0.1-0.1-0.2-0.1c-0.1,0-0.1,0-0.2-0.1l0,0
			c-0.1,0-0.1,0-0.2,0l0,0c-0.1,0-0.2,0-0.2,0c-0.1,0-0.2,0-0.3,0l0,0c-0.1,0-0.2,0-0.2,0c0,0-0.1,0-0.1,0l0,0c0,0-0.1,0-0.1,0
			c-0.1,0-0.2,0.1-0.3,0.1c-0.1,0-0.2,0-0.2,0c-0.1,0-0.1-0.1-0.1-0.2l-0.1-30.9c0-0.1,0-0.2,0.1-0.2c0.1,0,0.2-0.1,0.3-0.1
			c0,0,0,0,0,0c0,0,0.1,0,0.1,0c0,0,0,0,0,0l0,0c0,0,0.1,0,0.1,0c0,0,0,0,0,0c0.1,0,0.1,0,0.2,0c0,0,0,0,0,0l0.1,0c0,0,0.1,0,0.1,0
			c0,0,0.1,0,0.1,0l0,0c0,0,0,0,0.1,0c0,0,0.1,0,0.1,0c0,0,0.1,0,0.1,0c0,0,0,0,0,0l0.1,0c0,0,0,0,0.1,0c0,0,0.1,0,0.1,0
			c0,0,0,0,0,0c0,0,0,0,0,0c0.1,0,0.1,0,0.2,0.1c0,0,0,0,0,0c0.1,0,0.2,0.1,0.2,0.1c0.1,0,0.1,0.1,0.2,0.1c0.1,0,0.1,0.1,0.1,0.2
			l0.5,30.9c0,0.1,0,0.2-0.1,0.2C28.2,51.1,28.2,51.1,28.1,51.1z M26.9,50.3C26.9,50.3,27,50.3,26.9,50.3c0.2,0,0.3,0,0.4,0l0,0
			c0.1,0,0.2,0,0.2,0c0,0,0,0,0,0c0.1,0,0.2,0,0.2,0.1c0,0,0.1,0,0.1,0l-0.5-30.3c0,0,0,0,0,0c0,0-0.1-0.1-0.2-0.1c0,0,0,0,0,0
			c0,0-0.1,0-0.1,0l0,0c0,0-0.1,0-0.1,0c0,0,0,0,0,0l-0.1,0c0,0-0.1,0-0.1,0c0,0,0,0-0.1,0c0,0,0,0-0.1,0l0,0c0,0-0.1,0-0.1,0
			c0,0,0,0-0.1,0l-0.1,0c-0.1,0-0.1,0-0.2,0c0,0,0,0,0,0c0,0-0.1,0-0.1,0l0,0c0,0,0,0,0,0c0,0,0,0,0,0c0,0,0,0,0,0c0,0-0.1,0-0.1,0
			L26,50.4c0,0,0,0,0,0c0.1,0,0.1,0,0.2-0.1l0,0c0,0,0.1,0,0.1,0c0.1,0,0.2,0,0.3,0l0,0C26.7,50.3,26.8,50.3,26.9,50.3z"/>
	</g>
	<g>
		<g>
			<path fill="#FFFFFF" d="M27.7,20c0,0-0.1-0.1-0.2-0.1c-0.2-0.1-0.5-0.2-0.8-0.2c-0.4,0-0.8,0.1-1.1,0.2c-0.1-0.1-0.2-0.3-0.4-0.3
				c-0.1-0.1-0.2-0.1-0.4-0.1c-0.4-0.1-0.8-0.1-1.1,0c0-0.2-0.1-0.5-0.4-0.6c-0.3-0.2-0.7-0.2-1.1-0.2c0.2-0.2,0.2-0.4,0-0.7
				c-0.1-0.1-0.2-0.2-0.3-0.2c-0.2-0.1-0.4-0.2-0.6-0.2c0.3-0.2,0.4-0.4,0.4-0.6c0-0.2-0.2-0.4-0.4-0.5c-0.1,0-0.1-0.1-0.2-0.1
				c0.3-0.1,0.6-0.3,0.7-0.5c0.1-0.2,0-0.5-0.2-0.7c0.4,0,0.8-0.1,1-0.3c0.2-0.2,0.3-0.4,0.2-0.7c0.4,0.1,0.8,0,1.1-0.1
				c0.3-0.1,0.5-0.4,0.6-0.6c0.3,0.1,0.7,0.2,1.1,0.1c0.4-0.1,0.7-0.2,0.9-0.4c0,0,0.1,0.1,0.2,0.1c0.2,0.1,0.5,0.2,0.8,0.2"/>
			<path fill="#231F20" d="M27.7,20.2c0,0-0.1,0-0.1,0c0,0-0.1-0.1-0.1-0.1c-0.2-0.1-0.5-0.2-0.7-0.2c-0.4,0-0.7,0.1-0.9,0.2
				c-0.1,0-0.1,0-0.2,0c-0.1,0-0.1-0.1-0.1-0.1c0-0.1-0.1-0.2-0.3-0.3c-0.1-0.1-0.2-0.1-0.3-0.1c-0.3-0.1-0.7-0.1-1,0
				c-0.1,0-0.2,0-0.2,0c-0.1,0-0.1-0.1-0.1-0.2c0-0.2-0.2-0.3-0.3-0.4c-0.2-0.1-0.6-0.2-1-0.2c-0.1,0-0.2,0-0.2-0.1
				c0-0.1,0-0.2,0-0.2c0.1-0.1,0.1-0.3,0-0.4C22,18,21.9,18,21.8,17.9c-0.1-0.1-0.3-0.1-0.5-0.2c-0.1,0-0.2-0.1-0.2-0.2
				c0-0.1,0-0.2,0.1-0.2c0.1-0.1,0.3-0.2,0.3-0.4c0-0.1-0.1-0.2-0.3-0.3c0,0-0.1-0.1-0.2-0.1c-0.1,0-0.1-0.1-0.1-0.2
				c0-0.1,0.1-0.2,0.2-0.2c0.3-0.1,0.5-0.2,0.6-0.4c0.1-0.1,0-0.3-0.1-0.4c-0.1-0.1-0.1-0.2-0.1-0.2c0-0.1,0.1-0.2,0.2-0.2
				c0.4,0,0.7-0.1,0.9-0.3c0.1-0.1,0.2-0.3,0.1-0.4c0-0.1,0-0.2,0-0.2c0-0.1,0.1-0.1,0.2-0.1c0.4,0,0.7,0,1-0.1
				c0.2-0.1,0.4-0.3,0.4-0.4c0-0.1,0.1-0.1,0.1-0.2c0.1,0,0.1,0,0.2,0c0.3,0.1,0.7,0.1,1,0.1c0.3-0.1,0.6-0.2,0.7-0.4
				c0.1-0.1,0.2-0.1,0.3,0c0,0,0.1,0.1,0.1,0.1c0.2,0.1,0.5,0.2,0.7,0.2c0.1,0,0.2,0.1,0.2,0.2c0,0.1-0.1,0.2-0.2,0.2
				c-0.4,0-0.7-0.1-0.9-0.2c0,0,0,0,0,0c-0.2,0.2-0.5,0.3-0.9,0.4c-0.3,0.1-0.7,0-1,0c-0.1,0.2-0.3,0.4-0.6,0.5
				c-0.3,0.1-0.6,0.2-0.9,0.2c0,0.2-0.1,0.4-0.3,0.6c-0.2,0.2-0.4,0.3-0.7,0.3c0.1,0.2,0.1,0.4,0,0.6c-0.1,0.2-0.2,0.3-0.4,0.5
				c0.2,0.1,0.3,0.3,0.3,0.5c0,0.2,0,0.4-0.1,0.5c0.1,0,0.2,0.1,0.3,0.1c0.1,0.1,0.3,0.2,0.3,0.3c0.1,0.2,0.2,0.4,0.2,0.6
				c0.3,0,0.6,0.1,0.9,0.2c0.3,0.1,0.4,0.3,0.5,0.5c0.3-0.1,0.7,0,1,0c0.2,0,0.3,0.1,0.4,0.2c0.1,0.1,0.2,0.2,0.3,0.3
				c0.3-0.1,0.6-0.2,1-0.2c0.4,0,0.7,0.1,0.9,0.2c0.1,0,0.1,0.1,0.2,0.1c0.1,0.1,0.1,0.2,0,0.3C27.8,20.2,27.7,20.2,27.7,20.2z"/>
		</g>
	</g>
	<g>
		<g enable-background="new    ">
			<g>
				<g>
					<polyline fill="#FFFFFF" points="28.2,18 27.2,18.5 18.3,13.5 27,8.2 35.6,13.2 					"/>
					<path fill="#231F20" d="M27.2,18.7c0,0-0.1,0-0.1,0l-9-5c-0.1,0-0.1-0.1-0.1-0.2c0-0.1,0-0.2,0.1-0.2L26.9,8c0.1,0,0.2,0,0.2,0
						l8.6,5c0.1,0.1,0.1,0.2,0.1,0.3c-0.1,0.1-0.2,0.1-0.3,0.1L27,8.5l-8.3,5l8.5,4.8l0.9-0.5c0.1-0.1,0.3,0,0.3,0.1
						c0.1,0.1,0,0.3-0.1,0.3l-1,0.5C27.3,18.7,27.3,18.7,27.2,18.7z"/>
				</g>
			</g>
			<g>
				<g>
					<polyline fill="#FFFFFF" points="28.3,20.8 27.2,21.4 27.2,18.5 					"/>
					<path fill="#231F20" d="M27.2,21.6c0,0-0.1,0-0.1,0c-0.1,0-0.1-0.1-0.1-0.2l0-2.9c0-0.1,0.1-0.2,0.2-0.2h0
						c0.1,0,0.2,0.1,0.2,0.2l0,2.5l0.7-0.4c0.1-0.1,0.3,0,0.3,0.1c0.1,0.1,0,0.3-0.1,0.3l-1.1,0.6C27.3,21.6,27.3,21.6,27.2,21.6z"
						/>
				</g>
			</g>
			<g>
				<g>
					<polygon fill="#FFFFFF" points="27.2,18.5 27.2,21.4 18.3,16.4 18.3,13.5 					"/>
					<path fill="#231F20" d="M27.2,21.6C27.2,21.6,27.2,21.6,27.2,21.6c0,0-0.1,0-0.1,0l-9-5c-0.1,0-0.1-0.1-0.1-0.2l0-2.9
						c0-0.1,0-0.2,0.1-0.2c0.1,0,0.2,0,0.2,0l9,5c0.1,0,0.1,0.1,0.1,0.2l0,2.9c0,0,0,0,0,0C27.5,21.5,27.4,21.6,27.2,21.6z
						 M18.5,16.2L27,21l0-2.4l-8.5-4.8L18.5,16.2z"/>
				</g>
			</g>
		</g>
	</g>
	<g>
		<path fill="#231F20" d="M21.8,49.5C21.8,49.5,21.8,49.5,21.8,49.5c-0.1,0-0.2-0.1-0.2-0.2l0.1-30.7c0-0.1,0.1-0.2,0.2-0.2
			c0,0,0,0,0,0c0.1,0,0.2,0.1,0.2,0.2l-0.1,30.7C22.1,49.4,22,49.5,21.8,49.5z"/>
	</g>
</g>
</svg>
