<?xml version="1.0" encoding="utf-8"?>
<!-- Generator: Adobe Illustrator 18.1.1, SVG Export Plug-In . SVG Version: 6.00 Build 0)  -->
<!DOCTYPE svg PUBLIC "-//W3C//DTD SVG 1.1//EN" "http://www.w3.org/Graphics/SVG/1.1/DTD/svg11.dtd">
<svg version="1.1" id="Layer_1" xmlns="http://www.w3.org/2000/svg" xmlns:xlink="http://www.w3.org/1999/xlink" x="0px" y="0px"
	 viewBox="0 0 55 65" enable-background="new 0 0 55 65" xml:space="preserve">
<g>
	<g>
		<g>
			<path fill="#FFFFFF" d="M17.5,23.2l9.6,8.3l0.4,0c0,0,9.6-8.8,9.5-8.6s2.6,2.8,2.6,2.8l-11.2,9.5L25,34.5l-10.2-8.8L17.5,23.2z"
				/>
		</g>
	</g>
	<g>
		<g>
			<g>
				<polygon fill="#FFFFFF" points="27.1,33.8 27.1,34.5 29.4,34.4 27.2,33.7 27.2,33.7 25,34.5 27.1,34.5 				"/>
			</g>
		</g>
		<g>
			<g>
				<polygon fill="#FFFFFF" points="6.4,25.9 7.4,27.3 15.8,26.4 16.3,24.6 16.3,24.6 				"/>
			</g>
		</g>
		<g>
			<g>
				<polygon fill="#FFFFFF" points="16.3,24.6 16.3,24.6 16.3,24.6 				"/>
			</g>
		</g>
		<g>
			<g>
				<polygon fill="#FFFFFF" points="16.3,24.6 16.4,24.6 16.5,24.5 16.3,24.5 				"/>
			</g>
		</g>
		<g>
			<g>
				<polygon fill="#FFFFFF" points="20,14.9 18.9,14 16.5,24.5 18.4,23.9 18.4,23.9 				"/>
			</g>
		</g>
		<g>
			<g>
				<polygon fill="#FFFFFF" points="20,14.9 24,12 18.9,14 				"/>
			</g>
		</g>
		<g>
			<g>
				<polygon fill="#FFFFFF" points="17.5,14.4 14.9,23 14.9,23 16.3,24.6 16.3,24.6 16.3,24.5 16.5,24.5 18.9,14 				"/>
			</g>
		</g>
		<g>
			<g>
				<polygon fill="#FFFFFF" points="3.5,30.5 7.4,27.3 6.4,25.9 				"/>
			</g>
		</g>
		<g>
			<g>
				<polygon fill="#FFFFFF" points="14.9,9.6 14.9,9.6 17.5,14.4 18.9,14 				"/>
			</g>
		</g>
		<g>
			<g>
				<polygon fill="#FFFFFF" points="19.3,12.4 14.9,9.6 18.9,14 				"/>
			</g>
		</g>
		<g>
			<g>
				<polygon fill="#FFFFFF" points="24,12 19.3,12.4 18.9,14 				"/>
			</g>
		</g>
		<g>
			<g>
				<polygon fill="#FFFFFF" points="2,22.7 4.7,26.2 3.5,30.5 6.4,25.9 				"/>
			</g>
		</g>
		<g>
			<g>
				<polygon fill="#FFFFFF" points="6.8,24.4 2,22.7 6.4,25.9 				"/>
			</g>
		</g>
		<g>
			<g>
				<polygon fill="#FFFFFF" points="16.3,24.6 14.9,23 6.8,24.4 6.4,25.9 				"/>
			</g>
		</g>
		<g>
			<g>
				<polygon fill="#FFFFFF" points="37.1,14.4 39.7,9.6 39.7,9.6 35.7,13.9 				"/>
			</g>
		</g>
		<g>
			<g>
				<polygon fill="#FFFFFF" points="34.6,14.9 36.3,23.8 36.3,23.8 38.1,24.5 35.7,13.9 				"/>
			</g>
		</g>
		<g>
			<g>
				<polygon fill="#FFFFFF" points="30.6,12 34.6,14.9 35.7,13.9 				"/>
			</g>
		</g>
		<g>
			<g>
				<polygon fill="#FFFFFF" points="38.1,24.5 38.2,24.5 38.3,24.5 38.3,24.5 				"/>
			</g>
		</g>
		<g>
			<g>
				<polygon fill="#FFFFFF" points="35.2,12.4 30.6,12 35.7,13.9 				"/>
			</g>
		</g>
		<g>
			<g>
				<polygon fill="#FFFFFF" points="48.2,25.8 38.3,24.5 38.3,24.5 38.8,26.4 47.3,27.2 				"/>
			</g>
		</g>
		<g>
			<g>
				<polygon fill="#FFFFFF" points="39.7,23 39.7,23 37.1,14.4 35.7,13.9 38.1,24.5 38.3,24.5 38.3,24.5 38.3,24.5 				"/>
			</g>
		</g>
		<g>
			<g>
				<polygon fill="#FFFFFF" points="39.7,9.6 35.2,12.4 35.7,13.9 				"/>
			</g>
		</g>
		<g>
			<g>
				<polygon fill="#FFFFFF" points="38.3,24.5 38.3,24.5 38.3,24.5 				"/>
			</g>
		</g>
		<g>
			<g>
				<polygon fill="#FFFFFF" points="48.2,25.8 47.8,24.3 39.7,23 38.3,24.5 				"/>
			</g>
		</g>
		<g>
			<g>
				<polygon fill="#FFFFFF" points="47.3,27.2 51.1,30.4 48.2,25.8 				"/>
			</g>
		</g>
		<g>
			<g>
				<polygon fill="#FFFFFF" points="51.1,30.4 49.9,26.1 52.7,22.6 48.2,25.8 				"/>
			</g>
		</g>
		<g>
			<g>
				<polygon fill="#FFFFFF" points="52.7,22.6 47.8,24.3 48.2,25.8 				"/>
			</g>
		</g>
		<g>
			<g>
				<polygon fill="#FFFFFF" points="27.2,57.3 29.9,55.9 43.6,47.9 41.4,47.9 29.9,52.5 29.9,55.8 				"/>
			</g>
		</g>
		<g>
			<g>
				<polygon fill="#FFFFFF" points="27.2,55.7 27.1,34.5 25,34.5 24.7,55.8 27.2,57.3 27.1,55.8 				"/>
			</g>
		</g>
		<g>
			<g>
				<polygon fill="#FFFFFF" points="29.4,34.4 29.4,34.4 29.4,34.4 29.4,34.4 29.4,34.4 27.1,34.5 27.2,55.7 29.7,52.6 29.9,52.5 
					29.4,34.4 29.4,34.4 				"/>
			</g>
		</g>
		<g>
			<g>
				<polygon fill="#FFFFFF" points="27.2,55.7 27.2,57.3 29.9,55.8 29.9,52.5 29.7,52.6 				"/>
			</g>
		</g>
		<g>
			<g>
				<polygon fill="#FFFFFF" points="27.1,55.8 27.2,57.3 27.2,55.7 				"/>
			</g>
		</g>
	</g>
	<g>
		<g>
			<g>
				<polyline fill="#231F20" points="27.2,55.8 27.2,57.3 29.9,55.9 43.6,47.9 41.4,47.9 29.7,52.6 				"/>
			</g>
			<g>
				<path fill="#231F20" d="M27.2,57.5c0,0-0.1,0-0.1,0c-0.1,0-0.1-0.1-0.1-0.2l-0.1-1.4c0-0.1,0.1-0.3,0.2-0.3
					c0.1,0,0.3,0.1,0.3,0.2l0.1,1l2.3-1.2l12.9-7.5l-1.2,0l-11.7,4.7c-0.1,0.1-0.3,0-0.3-0.1c-0.1-0.1,0-0.3,0.1-0.3l11.7-4.7
					c0,0,0.1,0,0.1,0l2.2,0h0c0.1,0,0.2,0.1,0.3,0.2c0,0.1,0,0.2-0.1,0.3l-13.7,8c0,0,0,0,0,0l-2.7,1.4
					C27.3,57.5,27.3,57.5,27.2,57.5z"/>
			</g>
		</g>
		<g>
			<g>
				<polyline fill="#FFFFFF" points="29.4,34.4 29.9,55.8 27.2,57.3 24.7,55.8 25,34.5 				"/>
			</g>
			<g>
				<path fill="#231F20" d="M27.2,57.5c0,0-0.1,0-0.1,0L24.6,56c-0.1,0-0.1-0.1-0.1-0.2l0.3-21.3c0-0.1,0.1-0.3,0.3-0.3c0,0,0,0,0,0
					c0.1,0,0.3,0.1,0.3,0.3L25,55.7l2.2,1.3l2.4-1.3l-0.5-21.2c0-0.1,0.1-0.3,0.3-0.3c0.2,0,0.3,0.1,0.3,0.3l0.5,21.4
					c0,0.1-0.1,0.2-0.1,0.2l-2.6,1.5C27.3,57.5,27.3,57.5,27.2,57.5z"/>
			</g>
		</g>
		<g>
			<g>
				<path fill="#231F20" d="M27.2,57.5c-0.1,0-0.3-0.1-0.3-0.3l-0.1-23.4c0-0.1,0.1-0.3,0.3-0.3c0,0,0,0,0,0c0.1,0,0.3,0.1,0.3,0.3
					l0.1,23.4C27.5,57.4,27.4,57.5,27.2,57.5L27.2,57.5z"/>
			</g>
		</g>
		<g>
			<g>
				<path fill="#231F20" d="M29.4,34.7C29.4,34.7,29.3,34.7,29.4,34.7l-2.3-0.8c-0.1,0-0.2-0.2-0.2-0.3c0-0.1,0.2-0.2,0.3-0.2
					l2.2,0.7c0.1,0,0.2,0.2,0.2,0.3C29.6,34.6,29.5,34.7,29.4,34.7z"/>
			</g>
		</g>
		<g>
			<g>
				<path fill="#231F20" d="M25,34.8c-0.1,0-0.2-0.1-0.3-0.2c0-0.1,0-0.3,0.2-0.3l2.2-0.8c0.1,0,0.3,0,0.3,0.2c0,0.1,0,0.3-0.2,0.3
					L25,34.8C25.1,34.8,25.1,34.8,25,34.8z"/>
			</g>
		</g>
		<g>
			<g>
				<path fill="#231F20" d="M19.3,12.7c0,0-0.1,0-0.1,0l-4.5-2.8c-0.1-0.1-0.2-0.2-0.1-0.4c0.1-0.1,0.2-0.2,0.4-0.1l4.4,2.7l4.6-0.4
					c0.1,0,0.3,0.1,0.3,0.2c0,0.1-0.1,0.3-0.2,0.3L19.3,12.7C19.4,12.7,19.4,12.7,19.3,12.7z"/>
			</g>
		</g>
		<g>
			<g>
				<path fill="#231F20" d="M27.3,31.7c-0.1,0-0.1,0-0.2-0.1l-8.9-7.6c-0.1-0.1-0.1-0.2-0.1-0.2l1.7-8.9c0-0.1,0-0.1,0.1-0.2l4-2.9
					c0.1-0.1,0.3-0.1,0.4,0.1c0.1,0.1,0.1,0.3-0.1,0.4l-3.9,2.9l-1.6,8.7l8.8,7.5c0.1,0.1,0.1,0.3,0,0.4
					C27.4,31.7,27.4,31.7,27.3,31.7z"/>
			</g>
		</g>
		<g>
			<g>
				<path fill="#231F20" d="M25,34.8c-0.1,0-0.1,0-0.2-0.1l-9.1-8l-8.3,0.8l-3.8,3.2c-0.1,0.1-0.3,0.1-0.4,0c-0.1-0.1-0.1-0.3,0-0.4
					l3.8-3.2c0,0,0.1-0.1,0.1-0.1l8.5-0.8c0.1,0,0.1,0,0.2,0.1l9.2,8.1c0.1,0.1,0.1,0.3,0,0.4C25.2,34.7,25.1,34.8,25,34.8z"/>
			</g>
		</g>
		<g>
			<g>
				<path fill="#231F20" d="M3.5,30.8C3.5,30.8,3.5,30.8,3.5,30.8c-0.2,0-0.3-0.2-0.3-0.3l1.1-4.1l-2.6-3.4c-0.1-0.1-0.1-0.3,0-0.4
					c0.1-0.1,0.3-0.1,0.4,0l2.7,3.5C5,26.2,5,26.2,5,26.3l-1.2,4.3C3.8,30.7,3.7,30.8,3.5,30.8z"/>
			</g>
		</g>
		<g>
			<g>
				<path fill="#231F20" d="M6.9,24.6C6.8,24.6,6.8,24.6,6.9,24.6l-5-1.7c-0.1,0-0.2-0.2-0.2-0.3c0-0.1,0.2-0.2,0.3-0.2l4.8,1.6
					l7.9-1.3l2.5-8.3l-2.6-4.7c-0.1-0.1,0-0.3,0.1-0.4c0.1-0.1,0.3,0,0.4,0.1l2.7,4.8c0,0.1,0,0.1,0,0.2l-2.6,8.6
					c0,0.1-0.1,0.2-0.2,0.2L6.9,24.6C6.9,24.6,6.9,24.6,6.9,24.6z"/>
			</g>
		</g>
		<g>
			<g>
				<path fill="#231F20" d="M27.1,33.9c-0.1,0-0.1,0-0.2-0.1l-10.6-9l-9.8,1.3l-2.8,4.5c-0.1,0.1-0.2,0.2-0.4,0.1
					c-0.1-0.1-0.2-0.2-0.1-0.4l2.9-4.6c0-0.1,0.1-0.1,0.2-0.1l10-1.3c0.1,0,0.1,0,0.2,0.1l10.6,9.1c0.1,0.1,0.1,0.3,0,0.4
					C27.3,33.9,27.2,33.9,27.1,33.9z"/>
			</g>
		</g>
		<g>
			<g>
				<path fill="#231F20" d="M6.5,26.1c-0.1,0-0.1,0-0.2,0l-4.5-3.1c-0.1-0.1-0.1-0.2-0.1-0.4c0.1-0.1,0.2-0.1,0.4-0.1l4.5,3.1
					c0.1,0.1,0.1,0.2,0.1,0.4C6.6,26.1,6.5,26.1,6.5,26.1z"/>
			</g>
		</g>
		<g>
			<g>
				<path fill="#231F20" d="M16.5,24.8C16.4,24.8,16.4,24.8,16.5,24.8c-0.2,0-0.3-0.2-0.3-0.3l2.4-10.4l-3.9-4.2
					c-0.1-0.1-0.1-0.3,0-0.4c0.1-0.1,0.3-0.1,0.4,0l4,4.3c0.1,0.1,0.1,0.2,0.1,0.2l-2.4,10.6C16.7,24.7,16.6,24.8,16.5,24.8z"/>
			</g>
		</g>
		<g>
			<g>
				<path fill="#231F20" d="M18.9,14.3c-0.1,0-0.2-0.1-0.2-0.2c-0.1-0.1,0-0.3,0.2-0.3l5.1-2c0.1-0.1,0.3,0,0.3,0.2
					c0.1,0.1,0,0.3-0.2,0.3L18.9,14.3C19,14.3,18.9,14.3,18.9,14.3z"/>
			</g>
		</g>
		<g>
			<g>
				<path fill="#231F20" d="M16.4,24.8c-0.1,0-0.2-0.1-0.3-0.2c0-0.1,0-0.3,0.2-0.3l2-0.6c0.1,0,0.3,0,0.3,0.2c0,0.1,0,0.3-0.2,0.3
					L16.4,24.8C16.4,24.8,16.4,24.8,16.4,24.8z"/>
			</g>
		</g>
		<g>
			<g>
				<path fill="#231F20" d="M16.4,24.9c-0.1,0-0.1,0-0.2-0.1l-1.5-1.6c-0.1-0.1-0.1-0.3,0-0.4c0.1-0.1,0.3-0.1,0.4,0l1.5,1.6
					c0.1,0.1,0.1,0.3,0,0.4C16.5,24.9,16.4,24.9,16.4,24.9z"/>
			</g>
		</g>
		<g>
			<g>
				<path fill="#231F20" d="M15.8,26.7C15.8,26.7,15.8,26.7,15.8,26.7c-0.2-0.1-0.3-0.2-0.3-0.3l0.5-1.9c0-0.1,0.2-0.2,0.3-0.2
					c0.1,0,0.2,0.2,0.2,0.3l-0.5,1.9C16,26.6,15.9,26.7,15.8,26.7z"/>
			</g>
		</g>
		<g>
			<g>
				<path fill="#231F20" d="M7.4,27.5c-0.1,0-0.2,0-0.2-0.1L6.2,26c-0.1-0.1,0-0.3,0.1-0.4c0.1-0.1,0.3,0,0.4,0.1l0.9,1.4
					c0.1,0.1,0,0.3-0.1,0.4C7.5,27.5,7.4,27.5,7.4,27.5z"/>
			</g>
		</g>
		<g>
			<g>
				<path fill="#231F20" d="M6.5,26.1C6.4,26.1,6.4,26.1,6.5,26.1c-0.2,0-0.3-0.2-0.3-0.3l0.4-1.5c0-0.1,0.2-0.2,0.3-0.2
					c0.1,0,0.2,0.2,0.2,0.3l-0.4,1.5C6.7,26,6.6,26.1,6.5,26.1z"/>
			</g>
		</g>
		<g>
			<g>
				<path fill="#231F20" d="M20,15.2c-0.1,0-0.1,0-0.2-0.1l-1.1-1c-0.1-0.1-0.1-0.3,0-0.4c0.1-0.1,0.3-0.1,0.4,0l1.1,1
					c0.1,0.1,0.1,0.3,0,0.4C20.2,15.2,20.1,15.2,20,15.2z"/>
			</g>
		</g>
		<g>
			<g>
				<path fill="#231F20" d="M18.9,14.3C18.9,14.3,18.8,14.3,18.9,14.3c-0.2-0.1-0.3-0.2-0.3-0.3l0.5-1.6c0-0.1,0.2-0.2,0.3-0.2
					c0.1,0,0.2,0.2,0.2,0.3l-0.5,1.6C19.1,14.2,19,14.3,18.9,14.3z"/>
			</g>
		</g>
		<g>
			<g>
				<path fill="#231F20" d="M17.5,14.7c-0.1,0-0.2-0.1-0.3-0.2c0-0.1,0-0.3,0.2-0.3l1.4-0.4c0.1,0,0.3,0,0.3,0.2
					c0,0.1,0,0.3-0.2,0.3L17.5,14.7C17.6,14.7,17.5,14.7,17.5,14.7z"/>
			</g>
		</g>
		<g>
			<g>
				<path fill="#231F20" d="M27.3,34C27.3,34,27.3,34,27.3,34c-0.2,0-0.3-0.1-0.3-0.3l0-2.3c0-0.1,0.1-0.3,0.3-0.3
					c0.1,0,0.3,0.1,0.3,0.3l0,2.3C27.5,33.9,27.4,34,27.3,34z"/>
			</g>
		</g>
		<g>
			<g>
				
					<path fill="none" stroke="#000000" stroke-width="5" stroke-linecap="round" stroke-linejoin="round" stroke-miterlimit="10" d="
					M27.3,31.5"/>
			</g>
		</g>
		<g>
			<g>
				<path fill="#231F20" d="M29.4,34.7C29.4,34.7,29.3,34.7,29.4,34.7L27.3,34c-0.1,0-0.2-0.2-0.2-0.3c0-0.1,0.2-0.2,0.3-0.2l2,0.7
					c0.1,0,0.2,0.2,0.2,0.3C29.6,34.6,29.5,34.7,29.4,34.7z"/>
			</g>
		</g>
		<g>
			<g>
				<path fill="#231F20" d="M35.2,12.6C35.2,12.6,35.2,12.6,35.2,12.6l-4.7-0.4c-0.1,0-0.3-0.1-0.2-0.3c0-0.1,0.1-0.3,0.3-0.2
					l4.6,0.4l4.4-2.7c0.1-0.1,0.3,0,0.4,0.1c0.1,0.1,0,0.3-0.1,0.4l-4.4,2.8C35.3,12.6,35.3,12.6,35.2,12.6z"/>
			</g>
		</g>
		<g>
			<g>
				<path fill="#231F20" d="M27.3,31.7c-0.1,0-0.1,0-0.2-0.1c-0.1-0.1-0.1-0.3,0-0.4l8.9-7.5l-1.7-8.7l-3.9-2.8
					c-0.1-0.1-0.1-0.3-0.1-0.4c0.1-0.1,0.3-0.1,0.4-0.1l4,2.9c0.1,0,0.1,0.1,0.1,0.2l1.7,8.9c0,0.1,0,0.2-0.1,0.3l-9,7.6
					C27.4,31.7,27.4,31.7,27.3,31.7z"/>
			</g>
		</g>
		<g>
			<g>
				<path fill="#231F20" d="M29.4,34.7c-0.1,0-0.1,0-0.2-0.1c-0.1-0.1-0.1-0.3,0-0.4l9.4-8c0.1,0,0.1-0.1,0.2-0.1l8.5,0.8
					c0.1,0,0.1,0,0.1,0.1l3.9,3.2c0.1,0.1,0.1,0.3,0,0.4c-0.1,0.1-0.3,0.1-0.4,0l-3.8-3.2l-8.3-0.8l-9.3,8
					C29.5,34.7,29.5,34.7,29.4,34.7z"/>
			</g>
		</g>
		<g>
			<g>
				<path fill="#231F20" d="M51.1,30.6c-0.1,0-0.2-0.1-0.3-0.2l-1.2-4.2c0-0.1,0-0.2,0-0.2l2.7-3.5c0.1-0.1,0.3-0.1,0.4,0
					c0.1,0.1,0.1,0.3,0,0.4l-2.6,3.4l1.2,4.1C51.4,30.4,51.4,30.6,51.1,30.6C51.2,30.6,51.2,30.6,51.1,30.6z"/>
			</g>
		</g>
		<g>
			<g>
				<path fill="#231F20" d="M47.8,24.5C47.8,24.5,47.8,24.5,47.8,24.5l-8.2-1.3c-0.1,0-0.2-0.1-0.2-0.2l-2.6-8.6c0-0.1,0-0.1,0-0.2
					l2.6-4.8c0.1-0.1,0.2-0.2,0.4-0.1c0.1,0.1,0.2,0.2,0.1,0.4l-2.5,4.7l2.5,8.3l7.9,1.3l4.8-1.6c0.1,0,0.3,0,0.3,0.2s0,0.3-0.2,0.3
					L47.8,24.5C47.8,24.5,47.8,24.5,47.8,24.5z"/>
			</g>
		</g>
		<g>
			<g>
				<path fill="#231F20" d="M27.6,33.9c-0.1,0-0.1,0-0.2-0.1c-0.1-0.1-0.1-0.3,0-0.4L38,24.3c0.1,0,0.1-0.1,0.2-0.1l10,1.2
					c0.1,0,0.1,0.1,0.2,0.1l2.9,4.6c0.1,0.1,0,0.3-0.1,0.4c-0.1,0.1-0.3,0-0.4-0.1L48,26l-9.8-1.2l-10.5,9.1
					C27.7,33.9,27.6,33.9,27.6,33.9z"/>
			</g>
		</g>
		<g>
			<g>
				<path fill="#231F20" d="M48.2,26c-0.1,0-0.2,0-0.2-0.1c-0.1-0.1-0.1-0.3,0.1-0.4l4.5-3.2c0.1-0.1,0.3-0.1,0.4,0.1
					c0.1,0.1,0.1,0.3-0.1,0.4L48.4,26C48.3,26,48.3,26,48.2,26z"/>
			</g>
		</g>
		<g>
			<g>
				<path fill="#231F20" d="M38.2,24.8c-0.1,0-0.2-0.1-0.3-0.2L35.4,14c0-0.1,0-0.2,0.1-0.2l4-4.3c0.1-0.1,0.3-0.1,0.4,0
					c0.1,0.1,0.1,0.3,0,0.4L36,14l2.4,10.4C38.5,24.6,38.4,24.7,38.2,24.8C38.2,24.8,38.2,24.8,38.2,24.8z"/>
			</g>
		</g>
		<g>
			<g>
				<path fill="#231F20" d="M35.7,14.2C35.7,14.2,35.6,14.2,35.7,14.2l-5.2-2c-0.1-0.1-0.2-0.2-0.2-0.3c0.1-0.1,0.2-0.2,0.3-0.2
					l5.1,1.9c0.1,0.1,0.2,0.2,0.2,0.3C35.9,14.1,35.8,14.2,35.7,14.2z"/>
			</g>
		</g>
		<g>
			<g>
				<path fill="#231F20" d="M38.3,24.8C38.3,24.8,38.2,24.7,38.3,24.8l-2.2-0.7c-0.1,0-0.2-0.2-0.2-0.3c0-0.1,0.2-0.2,0.3-0.2
					l2.1,0.6c0.1,0,0.2,0.2,0.2,0.3C38.5,24.7,38.4,24.8,38.3,24.8z"/>
			</g>
		</g>
		<g>
			<g>
				<path fill="#231F20" d="M38.3,24.8c-0.1,0-0.1,0-0.2-0.1c-0.1-0.1-0.1-0.3,0-0.4l1.5-1.6c0.1-0.1,0.3-0.1,0.4,0
					c0.1,0.1,0.1,0.3,0,0.4l-1.5,1.6C38.4,24.8,38.3,24.8,38.3,24.8z"/>
			</g>
		</g>
		<g>
			<g>
				<path fill="#231F20" d="M38.8,26.6c-0.1,0-0.2-0.1-0.3-0.2L38,24.6c0-0.1,0-0.3,0.2-0.3c0.1,0,0.3,0,0.3,0.2l0.5,1.9
					C39.1,26.5,39,26.6,38.8,26.6C38.9,26.6,38.8,26.6,38.8,26.6z"/>
			</g>
		</g>
		<g>
			<g>
				<path fill="#231F20" d="M47.3,27.4c0,0-0.1,0-0.1,0C47,27.3,47,27.1,47.1,27l0.9-1.4c0.1-0.1,0.2-0.2,0.4-0.1
					c0.1,0.1,0.2,0.2,0.1,0.4l-0.9,1.4C47.5,27.4,47.4,27.4,47.3,27.4z"/>
			</g>
		</g>
		<g>
			<g>
				<path fill="#231F20" d="M48.2,26c-0.1,0-0.2-0.1-0.3-0.2l-0.4-1.5c0-0.1,0-0.3,0.2-0.3c0.1,0,0.3,0,0.3,0.2l0.4,1.5
					C48.5,25.8,48.4,26,48.2,26C48.2,26,48.2,26,48.2,26z"/>
			</g>
		</g>
		<g>
			<g>
				<path fill="#231F20" d="M34.6,15.2c-0.1,0-0.1,0-0.2-0.1c-0.1-0.1-0.1-0.3,0-0.4l1.1-1c0.1-0.1,0.3-0.1,0.4,0
					c0.1,0.1,0.1,0.3,0,0.4l-1.1,1C34.7,15.2,34.6,15.2,34.6,15.2z"/>
			</g>
		</g>
		<g>
			<g>
				<path fill="#231F20" d="M35.7,14.2c-0.1,0-0.2-0.1-0.3-0.2L35,12.5c0-0.1,0-0.3,0.2-0.3c0.1,0,0.3,0,0.3,0.2l0.5,1.6
					C36,14,35.9,14.2,35.7,14.2C35.8,14.2,35.7,14.2,35.7,14.2z"/>
			</g>
		</g>
		<g>
			<g>
				<path fill="#231F20" d="M37.1,14.6C37,14.6,37,14.6,37.1,14.6l-1.5-0.4c-0.1,0-0.2-0.2-0.2-0.3c0-0.1,0.2-0.2,0.3-0.2l1.4,0.4
					c0.1,0,0.2,0.2,0.2,0.3C37.3,14.6,37.2,14.6,37.1,14.6z"/>
			</g>
		</g>
		<g>
			<g>
				
					<path fill="none" stroke="#000000" stroke-width="5" stroke-linecap="round" stroke-linejoin="round" stroke-miterlimit="10" d="
					M27.3,31.5"/>
			</g>
		</g>
		<g>
			<g>
				<path fill="#231F20" d="M0.3,23.5c-0.1,0-0.2-0.1-0.3-0.2c0-0.1,0-0.3,0.2-0.3l1.7-0.5c0.1,0,0.3,0,0.3,0.2c0,0.1,0,0.3-0.2,0.3
					L0.3,23.5C0.3,23.5,0.3,23.5,0.3,23.5z"/>
			</g>
		</g>
		<g>
			<g>
				<path fill="#231F20" d="M2,23c-0.1,0-0.3-0.1-0.3-0.3l0-2c0-0.1,0.1-0.3,0.3-0.3c0,0,0,0,0,0c0.1,0,0.3,0.1,0.3,0.3l0,2
					C2.2,22.9,2.1,23,2,23L2,23z"/>
			</g>
		</g>
		<g>
			<g>
				<path fill="#231F20" d="M3.7,32.6c-0.1,0-0.3-0.1-0.3-0.2l-0.2-1.9c0-0.1,0.1-0.3,0.2-0.3c0.1,0,0.3,0.1,0.3,0.2L4,32.3
					C4,32.5,3.9,32.6,3.7,32.6C3.7,32.6,3.7,32.6,3.7,32.6z"/>
			</g>
		</g>
		<g>
			<g>
				<path fill="#231F20" d="M3.5,30.8C3.5,30.8,3.5,30.8,3.5,30.8l-1.8-0.1c-0.1,0-0.3-0.1-0.3-0.3c0-0.1,0.1-0.3,0.3-0.3l1.8,0.1
					c0.1,0,0.3,0.1,0.3,0.3C3.8,30.7,3.7,30.8,3.5,30.8z"/>
			</g>
		</g>
		<g>
			<g>
				<path fill="#231F20" d="M13,10c-0.1,0-0.3-0.1-0.3-0.2c0-0.1,0.1-0.3,0.2-0.3l1.9-0.1c0.1,0,0.3,0.1,0.3,0.2
					c0,0.1-0.1,0.3-0.2,0.3L13,10C13,10,13,10,13,10z"/>
			</g>
		</g>
		<g>
			<g>
				<path fill="#231F20" d="M14.9,9.9C14.9,9.9,14.8,9.9,14.9,9.9c-0.2,0-0.3-0.1-0.3-0.3l0.2-1.8c0-0.1,0.1-0.3,0.3-0.2
					c0.1,0,0.3,0.1,0.2,0.3l-0.2,1.8C15.1,9.8,15,9.9,14.9,9.9z"/>
			</g>
		</g>
		<g>
			<g>
				<path fill="#231F20" d="M24,12.3c0,0-0.1,0-0.1,0c-0.1-0.1-0.2-0.2-0.1-0.3l0.8-2c0.1-0.1,0.2-0.2,0.3-0.1
					c0.1,0.1,0.2,0.2,0.1,0.3l-0.8,2C24.2,12.2,24.1,12.3,24,12.3z"/>
			</g>
		</g>
		<g>
			<g>
				<path fill="#231F20" d="M25.8,13C25.8,13,25.7,13,25.8,13l-1.9-0.7c-0.1-0.1-0.2-0.2-0.2-0.3c0.1-0.1,0.2-0.2,0.3-0.2l1.8,0.7
					c0.1,0.1,0.2,0.2,0.2,0.3C26,12.9,25.9,13,25.8,13z"/>
			</g>
		</g>
		<g>
			<g>
				<path fill="#231F20" d="M54.4,23.4C54.4,23.4,54.4,23.3,54.4,23.4l-1.8-0.5c-0.1,0-0.2-0.2-0.2-0.3c0-0.1,0.2-0.2,0.3-0.2
					l1.8,0.5c0.1,0,0.2,0.2,0.2,0.3C54.7,23.3,54.5,23.4,54.4,23.4z"/>
			</g>
		</g>
		<g>
			<g>
				<path fill="#231F20" d="M52.7,22.9C52.7,22.9,52.7,22.9,52.7,22.9c-0.2,0-0.3-0.1-0.3-0.3l0.1-2c0-0.1,0.1-0.3,0.3-0.3
					c0.1,0,0.3,0.1,0.3,0.3l-0.1,2C52.9,22.7,52.8,22.9,52.7,22.9z"/>
			</g>
		</g>
		<g>
			<g>
				<path fill="#231F20" d="M51.1,32.5C51.1,32.5,51.1,32.5,51.1,32.5c-0.2,0-0.3-0.1-0.3-0.3l0.1-1.9c0-0.1,0.1-0.3,0.3-0.3
					c0.1,0,0.3,0.1,0.3,0.3l-0.1,1.9C51.3,32.4,51.2,32.5,51.1,32.5z"/>
			</g>
		</g>
		<g>
			<g>
				<path fill="#231F20" d="M51.1,30.6c-0.1,0-0.3-0.1-0.3-0.3c0-0.1,0.1-0.3,0.3-0.3L53,30c0.1,0,0.3,0.1,0.3,0.3
					c0,0.1-0.1,0.3-0.3,0.3L51.1,30.6C51.2,30.6,51.2,30.6,51.1,30.6z"/>
			</g>
		</g>
		<g>
			<g>
				<path fill="#231F20" d="M41.7,9.9C41.7,9.9,41.7,9.9,41.7,9.9l-2-0.1c-0.1,0-0.3-0.1-0.3-0.3c0-0.1,0.1-0.3,0.3-0.3l2,0.1
					c0.1,0,0.3,0.1,0.3,0.3C41.9,9.8,41.8,9.9,41.7,9.9z"/>
			</g>
		</g>
		<g>
			<g>
				<path fill="#231F20" d="M39.7,9.9c-0.1,0-0.3-0.1-0.3-0.3l-0.1-1.9c0-0.1,0.1-0.3,0.3-0.3c0.1,0,0.3,0.1,0.3,0.3l0.1,1.9
					C39.9,9.8,39.8,9.9,39.7,9.9C39.7,9.9,39.7,9.9,39.7,9.9z"/>
			</g>
		</g>
		<g>
			<g>
				<path fill="#231F20" d="M30.6,12.3c-0.1,0-0.2-0.1-0.2-0.2l-0.8-1.8c-0.1-0.1,0-0.3,0.1-0.3c0.1-0.1,0.3,0,0.3,0.1l0.8,1.8
					c0.1,0.1,0,0.3-0.1,0.3C30.6,12.3,30.6,12.3,30.6,12.3z"/>
			</g>
		</g>
		<g>
			<g>
				<path fill="#231F20" d="M28.9,13.1c-0.1,0-0.2-0.1-0.2-0.1c-0.1-0.1,0-0.3,0.1-0.4l1.7-0.8c0.1-0.1,0.3,0,0.4,0.1
					c0.1,0.1,0,0.3-0.1,0.4L29,13.1C28.9,13.1,28.9,13.1,28.9,13.1z"/>
			</g>
		</g>
	</g>
</g>
</svg>
