<?xml version="1.0" encoding="utf-8"?>
<!-- Generator: Adobe Illustrator 18.1.1, SVG Export Plug-In . SVG Version: 6.00 Build 0)  -->
<!DOCTYPE svg PUBLIC "-//W3C//DTD SVG 1.1//EN" "http://www.w3.org/Graphics/SVG/1.1/DTD/svg11.dtd">
<svg version="1.1" id="Layer_1" xmlns="http://www.w3.org/2000/svg" xmlns:xlink="http://www.w3.org/1999/xlink" x="0px" y="0px"
	 viewBox="0 0 55 65" enable-background="new 0 0 55 65" xml:space="preserve">
<g>
	<g>
		<g>
			<path fill="#FFFFFF" d="M2.7,43.3L2.7,43.3c2.9,1.7,7.7,1.7,10.6,0c2.9-1.7,2.9-4.4,0-6.1c-2.9-1.7-7.7-1.7-10.6,0
				C-0.2,38.9-0.2,41.6,2.7,43.3z"/>
			<path fill="#231F20" d="M8,44.8L8,44.8c-2,0-4-0.5-5.4-1.3c-1.5-0.9-2.3-2-2.3-3.3c0-1.2,0.8-2.4,2.3-3.3C4,36.1,5.9,35.7,8,35.7
				c2,0,4,0.5,5.4,1.3c1.5,0.9,2.3,2,2.3,3.3c0,1.2-0.8,2.4-2.3,3.3C12,44.4,10.1,44.8,8,44.8z M8,36.2c-2,0-3.8,0.4-5.2,1.2
				c-1.3,0.8-2.1,1.8-2.1,2.9c0,1.1,0.7,2.1,2.1,2.9c1.4,0.8,3.2,1.2,5.2,1.2h0c2,0,3.8-0.4,5.2-1.2c1.3-0.8,2.1-1.8,2.1-2.9
				c0-1.1-0.7-2.1-2.1-2.9C11.8,36.6,9.9,36.2,8,36.2z"/>
		</g>
		<g>
			<path fill="#FFFFFF" d="M8.7,37.9c-0.5-0.3-1.2-0.3-1.7,0l-0.4,0.2l-1.7,1c-0.5,0.3-0.5,0.7,0,1l1.3,0.7l1,0.6
				c0.5,0.3,1.2,0.3,1.7,0l2.1-1.2c0.5-0.3,0.5-0.7,0-1l-1-0.6L8.7,37.9z"/>
			<path fill="#231F20" d="M8,41.9L8,41.9c-0.4,0-0.7-0.1-0.9-0.2l-1-0.6l-1.2-0.7c-0.3-0.2-0.5-0.4-0.5-0.7c0-0.3,0.2-0.5,0.5-0.7
				L7,37.7c0.3-0.1,0.6-0.2,0.9-0.2c0.4,0,0.7,0.1,0.9,0.2l1.3,0.7l1,0.6c0.3,0.2,0.5,0.4,0.5,0.7c0,0.3-0.2,0.5-0.5,0.7L9,41.6
				C8.7,41.8,8.4,41.9,8,41.9z M7.9,37.9c-0.3,0-0.5,0.1-0.7,0.2l-2.1,1.2c-0.1,0.1-0.2,0.2-0.2,0.3c0,0.1,0.1,0.2,0.2,0.3l1.3,0.7
				l1,0.6c0.2,0.1,0.4,0.2,0.7,0.2c0.3,0,0.5-0.1,0.7-0.2l2.1-1.2c0.1-0.1,0.2-0.2,0.2-0.3c0-0.1-0.1-0.2-0.2-0.3l-1-0.6l-1.2-0.7
				C8.4,38,8.2,37.9,7.9,37.9z"/>
		</g>
		<g>
			<g>
				<path fill="#231F20" d="M8.1,38.4c-0.2-0.1-0.4-0.1-0.6,0c-0.2,0.1-0.2,0.2,0,0.3c0.2,0.1,0.4,0.1,0.6,0
					C8.3,38.7,8.3,38.5,8.1,38.4z"/>
			</g>
			<g>
				<path fill="#231F20" d="M9.1,39.6c0.2,0.1,0.4,0.1,0.6,0c0.2-0.1,0.2-0.2,0-0.3l0,0c-0.2-0.1-0.4-0.1-0.6,0
					C8.9,39.4,8.9,39.6,9.1,39.6z"/>
			</g>
			<g>
				<path fill="#231F20" d="M6,39.3c-0.2,0.1-0.2,0.2,0,0.3c0.2,0.1,0.4,0.1,0.6,0c0.2-0.1,0.2-0.2,0-0.3C6.4,39.2,6.1,39.2,6,39.3z
					"/>
			</g>
			<g>
				<path fill="#231F20" d="M7.5,40.6c0.2,0.1,0.4,0.1,0.6,0c0.2-0.1,0.2-0.2,0-0.3c-0.2-0.1-0.4-0.1-0.6,0
					C7.3,40.3,7.3,40.5,7.5,40.6z"/>
			</g>
		</g>
	</g>
	<g>
		<g>
			<path fill="#FFFFFF" d="M41.6,37.1L23.1,47.8c-2.9,1.7-2.9,4.5,0,6.2c3,1.7,7.8,1.7,10.7,0l9.2-5.4l9.2-5.4
				c2.9-1.7,2.9-4.5,0-6.2C49.3,35.4,44.5,35.4,41.6,37.1z"/>
			<path fill="#231F20" d="M28.5,55.6C28.5,55.6,28.5,55.6,28.5,55.6c-2.1,0-4-0.5-5.5-1.3c-1.5-0.9-2.3-2-2.3-3.3
				c0-1.3,0.8-2.4,2.3-3.3l18.5-10.7c1.5-0.8,3.4-1.3,5.5-1.3c2.1,0,4,0.5,5.5,1.3c1.5,0.9,2.3,2,2.3,3.3c0,1.3-0.8,2.4-2.3,3.3
				L34,54.2C32.5,55.1,30.6,55.6,28.5,55.6z M46.9,36.1c-2,0-3.8,0.4-5.2,1.2L23.2,48.1c-1.3,0.8-2.1,1.8-2.1,2.9
				c0,1.1,0.7,2.1,2.1,2.9c1.4,0.8,3.3,1.2,5.2,1.2h0c2,0,3.8-0.4,5.2-1.2l18.5-10.7c1.3-0.8,2.1-1.8,2.1-2.9c0-1.1-0.7-2.1-2.1-2.9
				C50.8,36.5,48.9,36.1,46.9,36.1z"/>
		</g>
		<g>
			<path fill="#FFFFFF" d="M39.5,42.1c-0.7-0.4-1.8-0.4-2.5,0l-0.6,0.4l-2.6,1.5c-0.7,0.4-0.7,1,0,1.4l1.9,1.1l1.9,1.1
				c0.7,0.4,1.8,0.4,2.5,0l3.2-1.9c0.7-0.4,0.7-1,0-1.4l-1.9-1.1L39.5,42.1z"/>
			<path fill="#231F20" d="M38.8,48.1L38.8,48.1c-0.5,0-1-0.1-1.4-0.3l-3.8-2.2C33.3,45.3,33,45,33,44.6c0-0.4,0.2-0.7,0.6-0.9
				l3.2-1.9c0.4-0.2,0.9-0.3,1.4-0.3c0.5,0,1,0.1,1.4,0.3l3.8,2.2c0.4,0.2,0.6,0.6,0.6,0.9c0,0.4-0.2,0.7-0.6,0.9l-3.2,1.9
				C39.8,48,39.3,48.1,38.8,48.1z M38.2,42c-0.4,0-0.8,0.1-1.1,0.3l-3.2,1.9c-0.2,0.1-0.4,0.3-0.4,0.5c0,0.2,0.1,0.4,0.4,0.5
				l3.8,2.2c0.3,0.2,0.7,0.3,1.1,0.3c0.4,0,0.8-0.1,1.1-0.3l3.2-1.9c0.2-0.1,0.4-0.3,0.4-0.5c0-0.2-0.1-0.4-0.4-0.5l-3.8-2.2
				C39.1,42.1,38.7,42,38.2,42z"/>
		</g>
		<g>
			<g>
				<path fill="#231F20" d="M38.7,42.6c-0.2-0.1-0.4-0.1-0.6,0c-0.2,0.1-0.2,0.2,0,0.3c0.2,0.1,0.4,0.1,0.6,0
					C38.8,42.9,38.8,42.7,38.7,42.6z"/>
			</g>
			<g>
				<path fill="#231F20" d="M39.6,43.9c0.2,0.1,0.4,0.1,0.6,0c0.2-0.1,0.2-0.2,0-0.3l0,0c-0.2-0.1-0.4-0.1-0.6,0
					C39.5,43.6,39.5,43.8,39.6,43.9z"/>
			</g>
			<g>
				<path fill="#231F20" d="M41.8,44.5c-0.2-0.1-0.4-0.1-0.6,0c-0.2,0.1-0.2,0.2,0,0.3c0.2,0.1,0.4,0.1,0.6,0l0,0
					C42,44.7,42,44.6,41.8,44.5z"/>
			</g>
			<g>
				<path fill="#231F20" d="M36.4,43.6c-0.2,0.1-0.2,0.2,0,0.3c0.2,0.1,0.4,0.1,0.6,0c0.2-0.1,0.2-0.2,0-0.3
					C36.9,43.5,36.6,43.5,36.4,43.6z"/>
			</g>
			<g>
				<path fill="#231F20" d="M38,44.8c0.2,0.1,0.4,0.1,0.6,0c0.2-0.1,0.2-0.2,0-0.3c-0.2-0.1-0.4-0.1-0.6,0
					C37.9,44.6,37.9,44.8,38,44.8z"/>
			</g>
			<g>
				<path fill="#231F20" d="M40.2,45.4c-0.2-0.1-0.4-0.1-0.6,0c-0.2,0.1-0.2,0.2,0,0.3c0.2,0.1,0.4,0.1,0.6,0
					C40.4,45.7,40.4,45.5,40.2,45.4z"/>
			</g>
			<g>
				<path fill="#231F20" d="M35.4,44.9c0.2-0.1,0.2-0.2,0-0.3c-0.2-0.1-0.4-0.1-0.6,0c-0.2,0.1-0.2,0.2,0,0.3l0,0
					C35,45,35.2,45,35.4,44.9z"/>
			</g>
			<g>
				<path fill="#231F20" d="M37,45.8c0.2-0.1,0.2-0.2,0-0.3c-0.2-0.1-0.4-0.1-0.6,0c-0.2,0.1-0.2,0.2,0,0.3l0,0
					C36.6,45.9,36.8,45.9,37,45.8z"/>
			</g>
			<g>
				<path fill="#231F20" d="M38.6,46.7c0.2-0.1,0.2-0.2,0-0.3c-0.2-0.1-0.4-0.1-0.6,0c-0.2,0.1-0.2,0.2,0,0.3l0,0
					C38.1,46.8,38.4,46.8,38.6,46.7L38.6,46.7z"/>
			</g>
		</g>
		<g>
			<g>
				<path fill="#231F20" d="M29.1,48.1c-0.2-0.1-0.4-0.1-0.6,0c-0.2,0.1-0.2,0.2,0,0.3c0.2,0.1,0.4,0.1,0.6,0
					C29.3,48.4,29.3,48.2,29.1,48.1z"/>
			</g>
			<g>
				<path fill="#231F20" d="M30.1,49.4c0.2,0.1,0.4,0.1,0.6,0c0.2-0.1,0.2-0.2,0-0.3l0,0c-0.2-0.1-0.4-0.1-0.6,0
					C29.9,49.2,29.9,49.3,30.1,49.4z"/>
			</g>
			<g>
				<path fill="#231F20" d="M32.3,50c-0.2-0.1-0.4-0.1-0.6,0c-0.2,0.1-0.2,0.2,0,0.3c0.2,0.1,0.4,0.1,0.6,0l0,0
					C32.4,50.2,32.4,50.1,32.3,50z"/>
			</g>
			<g>
				<path fill="#231F20" d="M26.9,49.1c-0.2,0.1-0.2,0.2,0,0.3c0.2,0.1,0.4,0.1,0.6,0c0.2-0.1,0.2-0.2,0-0.3
					C27.3,49,27.1,49,26.9,49.1z"/>
			</g>
			<g>
				<path fill="#231F20" d="M28.5,50.4c0.2,0.1,0.4,0.1,0.6,0c0.2-0.1,0.2-0.2,0-0.3c-0.2-0.1-0.4-0.1-0.6,0
					C28.3,50.1,28.3,50.3,28.5,50.4z"/>
			</g>
			<g>
				<path fill="#231F20" d="M30.7,50.9c-0.2-0.1-0.4-0.1-0.6,0c-0.2,0.1-0.2,0.2,0,0.3c0.2,0.1,0.4,0.1,0.6,0
					C30.8,51.2,30.8,51,30.7,50.9z"/>
			</g>
			<g>
				<path fill="#231F20" d="M25.9,50.4c0.2-0.1,0.2-0.2,0-0.3c-0.2-0.1-0.4-0.1-0.6,0c-0.2,0.1-0.2,0.2,0,0.3l0,0
					C25.4,50.5,25.7,50.5,25.9,50.4z"/>
			</g>
			<g>
				<path fill="#231F20" d="M27.4,51.3c0.2-0.1,0.2-0.2,0-0.3c-0.2-0.1-0.4-0.1-0.6,0c-0.2,0.1-0.2,0.2,0,0.3l0,0
					C27,51.4,27.3,51.4,27.4,51.3z"/>
			</g>
			<g>
				<path fill="#231F20" d="M29,52.2c0.2-0.1,0.2-0.2,0-0.3c-0.2-0.1-0.4-0.1-0.6,0c-0.2,0.1-0.2,0.2,0,0.3l0,0
					C28.6,52.3,28.9,52.3,29,52.2L29,52.2z"/>
			</g>
		</g>
		<g>
			<g>
				<path fill="#231F20" d="M47.1,38c-0.2-0.1-0.4-0.1-0.6,0c-0.2,0.1-0.2,0.2,0,0.3c0.2,0.1,0.4,0.1,0.6,0
					C47.2,38.2,47.2,38.1,47.1,38z"/>
			</g>
			<g>
				<path fill="#231F20" d="M48.1,39.3c0.2,0.1,0.4,0.1,0.6,0c0.2-0.1,0.2-0.2,0-0.3l0,0c-0.2-0.1-0.4-0.1-0.6,0
					C47.9,39,47.9,39.2,48.1,39.3z"/>
			</g>
			<g>
				<path fill="#231F20" d="M50.2,39.8c-0.2-0.1-0.4-0.1-0.6,0c-0.2,0.1-0.2,0.2,0,0.3c0.2,0.1,0.4,0.1,0.6,0l0,0
					C50.4,40.1,50.4,39.9,50.2,39.8z"/>
			</g>
			<g>
				<path fill="#231F20" d="M44.9,38.9c-0.2,0.1-0.2,0.2,0,0.3c0.2,0.1,0.4,0.1,0.6,0c0.2-0.1,0.2-0.2,0-0.3
					C45.3,38.8,45,38.8,44.9,38.9z"/>
			</g>
			<g>
				<path fill="#231F20" d="M46.4,40.2c0.2,0.1,0.4,0.1,0.6,0c0.2-0.1,0.2-0.2,0-0.3c-0.2-0.1-0.4-0.1-0.6,0
					C46.3,39.9,46.3,40.1,46.4,40.2z"/>
			</g>
			<g>
				<path fill="#231F20" d="M48.6,40.8c-0.2-0.1-0.4-0.1-0.6,0c-0.2,0.1-0.2,0.2,0,0.3c0.2,0.1,0.4,0.1,0.6,0
					C48.8,41,48.8,40.9,48.6,40.8z"/>
			</g>
			<g>
				<path fill="#231F20" d="M43.8,40.2c0.2-0.1,0.2-0.2,0-0.3c-0.2-0.1-0.4-0.1-0.6,0c-0.2,0.1-0.2,0.2,0,0.3l0,0
					C43.4,40.3,43.7,40.3,43.8,40.2z"/>
			</g>
			<g>
				<path fill="#231F20" d="M45.4,41.1c0.2-0.1,0.2-0.2,0-0.3c-0.2-0.1-0.4-0.1-0.6,0c-0.2,0.1-0.2,0.2,0,0.3l0,0
					C45,41.2,45.2,41.2,45.4,41.1z"/>
			</g>
			<g>
				<path fill="#231F20" d="M47,42.1c0.2-0.1,0.2-0.2,0-0.3c-0.2-0.1-0.4-0.1-0.6,0c-0.2,0.1-0.2,0.2,0,0.3l0,0
					C46.6,42.2,46.8,42.2,47,42.1L47,42.1z"/>
			</g>
		</g>
	</g>
	<g>
		<g>
			<path fill="#FFFFFF" d="M33.7,12.3L15.3,23c-2.9,1.7-2.9,4.5,0,6.2c3,1.7,7.8,1.7,10.7,0l9.2-5.4l9.2-5.4c2.9-1.7,2.9-4.5,0-6.2
				C41.5,10.6,36.7,10.6,33.7,12.3z"/>
			<path fill="#231F20" d="M20.6,30.7L20.6,30.7c-2.1,0-4-0.5-5.5-1.3c-1.5-0.9-2.3-2-2.3-3.3c0-1.3,0.8-2.4,2.3-3.3l18.5-10.7
				c1.5-0.8,3.4-1.3,5.5-1.3c2.1,0,4,0.5,5.5,1.3c1.5,0.9,2.3,2,2.3,3.3c0,1.3-0.8,2.4-2.3,3.3L26.1,29.4
				C24.6,30.3,22.7,30.7,20.6,30.7z M39.1,11.2c-2,0-3.8,0.4-5.2,1.2L15.4,23.2C14,24,13.3,25,13.3,26.1c0,1.1,0.7,2.1,2.1,2.9
				c1.4,0.8,3.3,1.2,5.2,1.2h0c2,0,3.8-0.4,5.2-1.2l18.5-10.7c1.3-0.8,2.1-1.8,2.1-2.9c0-1.1-0.7-2.1-2.1-2.9
				C42.9,11.7,41.1,11.2,39.1,11.2z"/>
		</g>
		<g>
			<path fill="#FFFFFF" d="M31.6,17.2c-0.7-0.4-1.8-0.4-2.5,0l-0.6,0.4l-2.6,1.5c-0.7,0.4-0.7,1,0,1.4l1.9,1.1l1.9,1.1
				c0.7,0.4,1.8,0.4,2.5,0l3.2-1.9c0.7-0.4,0.7-1,0-1.4l-1.9-1.1L31.6,17.2z"/>
			<path fill="#231F20" d="M30.9,23.3L30.9,23.3c-0.5,0-1-0.1-1.4-0.3l-3.8-2.2c-0.4-0.2-0.6-0.6-0.6-0.9c0-0.4,0.2-0.7,0.6-0.9
				L29,17c0.4-0.2,0.9-0.3,1.4-0.3c0.5,0,1,0.1,1.4,0.3l3.8,2.2c0.4,0.2,0.6,0.6,0.6,0.9c0,0.4-0.2,0.7-0.6,0.9l-3.2,1.9
				C31.9,23.1,31.5,23.3,30.9,23.3z M30.4,17.2c-0.4,0-0.8,0.1-1.1,0.3L26,19.3c-0.2,0.1-0.4,0.3-0.4,0.5c0,0.2,0.1,0.4,0.4,0.5
				l3.8,2.2c0.3,0.2,0.7,0.3,1.1,0.3c0.4,0,0.8-0.1,1.1-0.3l3.2-1.9c0.2-0.1,0.4-0.3,0.4-0.5c0-0.2-0.1-0.4-0.4-0.5l-3.8-2.2
				C31.2,17.3,30.8,17.2,30.4,17.2z"/>
		</g>
		<g>
			<g>
				<path fill="#231F20" d="M30.8,17.8c-0.2-0.1-0.4-0.1-0.6,0c-0.2,0.1-0.2,0.2,0,0.3c0.2,0.1,0.4,0.1,0.6,0
					C31,18.1,31,17.9,30.8,17.8z"/>
			</g>
			<g>
				<path fill="#231F20" d="M31.8,19.1c0.2,0.1,0.4,0.1,0.6,0c0.2-0.1,0.2-0.2,0-0.3l0,0c-0.2-0.1-0.4-0.1-0.6,0
					C31.6,18.8,31.6,19,31.8,19.1z"/>
			</g>
			<g>
				<path fill="#231F20" d="M34,19.6c-0.2-0.1-0.4-0.1-0.6,0c-0.2,0.1-0.2,0.2,0,0.3c0.2,0.1,0.4,0.1,0.6,0l0,0
					C34.1,19.9,34.1,19.7,34,19.6z"/>
			</g>
			<g>
				<path fill="#231F20" d="M28.6,18.8c-0.2,0.1-0.2,0.2,0,0.3c0.2,0.1,0.4,0.1,0.6,0c0.2-0.1,0.2-0.2,0-0.3
					C29,18.7,28.7,18.7,28.6,18.8z"/>
			</g>
			<g>
				<path fill="#231F20" d="M30.2,20c0.2,0.1,0.4,0.1,0.6,0c0.2-0.1,0.2-0.2,0-0.3c-0.2-0.1-0.4-0.1-0.6,0C30,19.8,30,19.9,30.2,20z
					"/>
			</g>
			<g>
				<path fill="#231F20" d="M32.3,20.6c-0.2-0.1-0.4-0.1-0.6,0c-0.2,0.1-0.2,0.2,0,0.3c0.2,0.1,0.4,0.1,0.6,0
					C32.5,20.8,32.5,20.7,32.3,20.6z"/>
			</g>
			<g>
				<path fill="#231F20" d="M27.5,20.1c0.2-0.1,0.2-0.2,0-0.3c-0.2-0.1-0.4-0.1-0.6,0c-0.2,0.1-0.2,0.2,0,0.3l0,0
					C27.1,20.1,27.4,20.1,27.5,20.1z"/>
			</g>
			<g>
				<path fill="#231F20" d="M29.1,21c0.2-0.1,0.2-0.2,0-0.3c-0.2-0.1-0.4-0.1-0.6,0c-0.2,0.1-0.2,0.2,0,0.3l0,0
					C28.7,21.1,29,21.1,29.1,21z"/>
			</g>
			<g>
				<path fill="#231F20" d="M30.7,21.9c0.2-0.1,0.2-0.2,0-0.3c-0.2-0.1-0.4-0.1-0.6,0c-0.2,0.1-0.2,0.2,0,0.3l0,0
					C30.3,22,30.5,22,30.7,21.9L30.7,21.9z"/>
			</g>
		</g>
		<g>
			<g>
				<path fill="#231F20" d="M21.3,23.3c-0.2-0.1-0.4-0.1-0.6,0c-0.2,0.1-0.2,0.2,0,0.3c0.2,0.1,0.4,0.1,0.6,0
					C21.4,23.6,21.4,23.4,21.3,23.3z"/>
			</g>
			<g>
				<path fill="#231F20" d="M22.2,24.6c0.2,0.1,0.4,0.1,0.6,0c0.2-0.1,0.2-0.2,0-0.3l0,0c-0.2-0.1-0.4-0.1-0.6,0
					C22.1,24.3,22.1,24.5,22.2,24.6z"/>
			</g>
			<g>
				<path fill="#231F20" d="M24.4,25.1c-0.2-0.1-0.4-0.1-0.6,0c-0.2,0.1-0.2,0.2,0,0.3c0.2,0.1,0.4,0.1,0.6,0l0,0
					C24.6,25.4,24.6,25.2,24.4,25.1z"/>
			</g>
			<g>
				<path fill="#231F20" d="M19,24.3c-0.2,0.1-0.2,0.2,0,0.3c0.2,0.1,0.4,0.1,0.6,0c0.2-0.1,0.2-0.2,0-0.3
					C19.5,24.2,19.2,24.2,19,24.3z"/>
			</g>
			<g>
				<path fill="#231F20" d="M20.6,25.5c0.2,0.1,0.4,0.1,0.6,0c0.2-0.1,0.2-0.2,0-0.3c-0.2-0.1-0.4-0.1-0.6,0
					C20.5,25.3,20.5,25.4,20.6,25.5z"/>
			</g>
			<g>
				<path fill="#231F20" d="M22.8,26.1c-0.2-0.1-0.4-0.1-0.6,0c-0.2,0.1-0.2,0.2,0,0.3c0.2,0.1,0.4,0.1,0.6,0
					C23,26.3,23,26.2,22.8,26.1z"/>
			</g>
			<g>
				<path fill="#231F20" d="M18,25.6c0.2-0.1,0.2-0.2,0-0.3c-0.2-0.1-0.4-0.1-0.6,0c-0.2,0.1-0.2,0.2,0,0.3l0,0
					C17.6,25.7,17.8,25.7,18,25.6z"/>
			</g>
			<g>
				<path fill="#231F20" d="M19.6,26.5c0.2-0.1,0.2-0.2,0-0.3c-0.2-0.1-0.4-0.1-0.6,0c-0.2,0.1-0.2,0.2,0,0.3l0,0
					C19.2,26.6,19.4,26.6,19.6,26.5z"/>
			</g>
			<g>
				<path fill="#231F20" d="M21.2,27.4c0.2-0.1,0.2-0.2,0-0.3c-0.2-0.1-0.4-0.1-0.6,0c-0.2,0.1-0.2,0.2,0,0.3l0,0
					C20.7,27.5,21,27.5,21.2,27.4L21.2,27.4z"/>
			</g>
		</g>
		<g>
			<g>
				<path fill="#231F20" d="M39.2,13.2c-0.2-0.1-0.4-0.1-0.6,0c-0.2,0.1-0.2,0.2,0,0.3c0.2,0.1,0.4,0.1,0.6,0
					C39.4,13.4,39.4,13.3,39.2,13.2z"/>
			</g>
			<g>
				<path fill="#231F20" d="M40.2,14.4c0.2,0.1,0.4,0.1,0.6,0c0.2-0.1,0.2-0.2,0-0.3l0,0c-0.2-0.1-0.4-0.1-0.6,0
					C40,14.2,40,14.3,40.2,14.4z"/>
			</g>
			<g>
				<path fill="#231F20" d="M42.4,15c-0.2-0.1-0.4-0.1-0.6,0c-0.2,0.1-0.2,0.2,0,0.3c0.2,0.1,0.4,0.1,0.6,0l0,0
					C42.5,15.2,42.5,15.1,42.4,15z"/>
			</g>
			<g>
				<path fill="#231F20" d="M37,14.1c-0.2,0.1-0.2,0.2,0,0.3c0.2,0.1,0.4,0.1,0.6,0c0.2-0.1,0.2-0.2,0-0.3C37.4,14,37.2,14,37,14.1z
					"/>
			</g>
			<g>
				<path fill="#231F20" d="M38.6,15.4c0.2,0.1,0.4,0.1,0.6,0c0.2-0.1,0.2-0.2,0-0.3c-0.2-0.1-0.4-0.1-0.6,0
					C38.4,15.1,38.4,15.3,38.6,15.4z"/>
			</g>
			<g>
				<path fill="#231F20" d="M40.8,15.9c-0.2-0.1-0.4-0.1-0.6,0c-0.2,0.1-0.2,0.2,0,0.3c0.2,0.1,0.4,0.1,0.6,0
					C40.9,16.2,40.9,16,40.8,15.9z"/>
			</g>
			<g>
				<path fill="#231F20" d="M36,15.4c0.2-0.1,0.2-0.2,0-0.3c-0.2-0.1-0.4-0.1-0.6,0c-0.2,0.1-0.2,0.2,0,0.3l0,0
					C35.5,15.5,35.8,15.5,36,15.4z"/>
			</g>
			<g>
				<path fill="#231F20" d="M37.5,16.3c0.2-0.1,0.2-0.2,0-0.3c-0.2-0.1-0.4-0.1-0.6,0c-0.2,0.1-0.2,0.2,0,0.3l0,0
					C37.1,16.4,37.4,16.4,37.5,16.3z"/>
			</g>
			<g>
				<path fill="#231F20" d="M39.1,17.2c0.2-0.1,0.2-0.2,0-0.3c-0.2-0.1-0.4-0.1-0.6,0c-0.2,0.1-0.2,0.2,0,0.3l0,0
					C38.7,17.3,39,17.3,39.1,17.2L39.1,17.2z"/>
			</g>
		</g>
		<g>
			<path fill="#FFFFFF" d="M26.6,11L42,19.9l3.1,1.8c2.9,1.7,2.9,4.5,0,6.2c-3,1.7-7.8,1.7-10.7,0l-3.2-1.8l-6.1-3.5l-9.2-5.4
				c-2.9-1.7-2.9-4.5,0-6.2C18.9,9.3,23.7,9.3,26.6,11z"/>
			<path fill="#231F20" d="M39.7,29.4c-2.1,0-4-0.5-5.5-1.3L15.8,17.4c-1.5-0.9-2.3-2-2.3-3.3c0-1.3,0.8-2.4,2.3-3.3
				c1.5-0.8,3.4-1.3,5.5-1.3c2.1,0,4,0.5,5.5,1.3l18.5,10.7c1.5,0.9,2.3,2,2.3,3.3c0,1.3-0.8,2.4-2.3,3.3
				C43.7,28.9,41.8,29.4,39.7,29.4z M21.3,9.9c-2,0-3.8,0.4-5.2,1.2C14.7,11.9,14,13,14,14.1c0,1.1,0.7,2.1,2.1,2.9l18.5,10.7
				c1.4,0.8,3.2,1.2,5.2,1.2c2,0,3.8-0.4,5.2-1.2c1.4-0.8,2.1-1.8,2.1-2.9c0-1.1-0.7-2.1-2.1-2.9L26.5,11.2
				C25.1,10.4,23.3,9.9,21.3,9.9z"/>
		</g>
		<g>
			<g>
				<path fill="#231F20" d="M39.1,22c0.2-0.1,0.4-0.1,0.6,0c0.2,0.1,0.2,0.2,0,0.3c-0.2,0.1-0.4,0.1-0.6,0
					C38.9,22.3,38.9,22.1,39.1,22z"/>
			</g>
			<g>
				<path fill="#231F20" d="M38.1,23.3c-0.2,0.1-0.4,0.1-0.6,0c-0.2-0.1-0.2-0.2,0-0.3l0,0c0.2-0.1,0.4-0.1,0.6,0
					C38.3,23,38.3,23.2,38.1,23.3z"/>
			</g>
			<g>
				<path fill="#231F20" d="M35.9,23.8c0.2-0.1,0.4-0.1,0.6,0c0.2,0.1,0.2,0.2,0,0.3c-0.2,0.1-0.4,0.1-0.6,0l0,0
					C35.8,24.1,35.8,23.9,35.9,23.8z"/>
			</g>
			<g>
				<path fill="#231F20" d="M41.3,23c0.2,0.1,0.2,0.2,0,0.3c-0.2,0.1-0.4,0.1-0.6,0c-0.2-0.1-0.2-0.2,0-0.3
					C40.9,22.9,41.2,22.9,41.3,23z"/>
			</g>
			<g>
				<path fill="#231F20" d="M39.8,24.2c-0.2,0.1-0.4,0.1-0.6,0c-0.2-0.1-0.2-0.2,0-0.3c0.2-0.1,0.4-0.1,0.6,0
					C39.9,24,39.9,24.1,39.8,24.2z"/>
			</g>
			<g>
				<path fill="#231F20" d="M37.6,24.8c0.2-0.1,0.4-0.1,0.6,0c0.2,0.1,0.2,0.2,0,0.3c-0.2,0.1-0.4,0.1-0.6,0
					C37.4,25,37.4,24.9,37.6,24.8z"/>
			</g>
			<g>
				<path fill="#231F20" d="M42.4,24.2c-0.2-0.1-0.2-0.2,0-0.3c0.2-0.1,0.4-0.1,0.6,0c0.2,0.1,0.2,0.2,0,0.3l0,0
					C42.8,24.3,42.5,24.3,42.4,24.2z"/>
			</g>
			<g>
				<path fill="#231F20" d="M40.8,25.2c-0.2-0.1-0.2-0.2,0-0.3c0.2-0.1,0.4-0.1,0.6,0c0.2,0.1,0.2,0.2,0,0.3l0,0
					C41.2,25.3,41,25.3,40.8,25.2z"/>
			</g>
			<g>
				<path fill="#231F20" d="M39.2,26.1c-0.2-0.1-0.2-0.2,0-0.3c0.2-0.1,0.4-0.1,0.6,0c0.2,0.1,0.2,0.2,0,0.3l0,0
					C39.6,26.2,39.4,26.2,39.2,26.1L39.2,26.1z"/>
			</g>
		</g>
		<g>
			<g>
				<path fill="#231F20" d="M21.2,11.8c0.2-0.1,0.4-0.1,0.6,0c0.2,0.1,0.2,0.2,0,0.3c-0.2,0.1-0.4,0.1-0.6,0
					C21,12.1,21,11.9,21.2,11.8z"/>
			</g>
			<g>
				<path fill="#231F20" d="M20.2,13.1c-0.2,0.1-0.4,0.1-0.6,0c-0.2-0.1-0.2-0.2,0-0.3l0,0c0.2-0.1,0.4-0.1,0.6,0
					C20.3,12.9,20.3,13,20.2,13.1z"/>
			</g>
			<g>
				<path fill="#231F20" d="M18,13.7c0.2-0.1,0.4-0.1,0.6,0c0.2,0.1,0.2,0.2,0,0.3c-0.2,0.1-0.4,0.1-0.6,0l0,0
					C17.8,13.9,17.8,13.8,18,13.7z"/>
			</g>
			<g>
				<path fill="#231F20" d="M23.4,12.8c0.2,0.1,0.2,0.2,0,0.3c-0.2,0.1-0.4,0.1-0.6,0c-0.2-0.1-0.2-0.2,0-0.3
					C22.9,12.7,23.2,12.7,23.4,12.8z"/>
			</g>
			<g>
				<path fill="#231F20" d="M21.8,14.1c-0.2,0.1-0.4,0.1-0.6,0c-0.2-0.1-0.2-0.2,0-0.3c0.2-0.1,0.4-0.1,0.6,0
					C22,13.8,22,14,21.8,14.1z"/>
			</g>
			<g>
				<path fill="#231F20" d="M19.6,14.6c0.2-0.1,0.4-0.1,0.6,0c0.2,0.1,0.2,0.2,0,0.3c-0.2,0.1-0.4,0.1-0.6,0
					C19.4,14.9,19.4,14.7,19.6,14.6z"/>
			</g>
			<g>
				<path fill="#231F20" d="M24.4,14.1c-0.2-0.1-0.2-0.2,0-0.3c0.2-0.1,0.4-0.1,0.6,0c0.2,0.1,0.2,0.2,0,0.3l0,0
					C24.8,14.2,24.6,14.2,24.4,14.1z"/>
			</g>
			<g>
				<path fill="#231F20" d="M22.8,15c-0.2-0.1-0.2-0.2,0-0.3c0.2-0.1,0.4-0.1,0.6,0c0.2,0.1,0.2,0.2,0,0.3l0,0
					C23.3,15.1,23,15.1,22.8,15z"/>
			</g>
			<g>
				<path fill="#231F20" d="M21.2,15.9c-0.2-0.1-0.2-0.2,0-0.3c0.2-0.1,0.4-0.1,0.6,0c0.2,0.1,0.2,0.2,0,0.3l0,0
					C21.7,16,21.4,16,21.2,15.9L21.2,15.9z"/>
			</g>
		</g>
		<g>
			<g>
				<g>
					<path fill="#231F20" d="M29.6,15c-0.2-0.1-0.4-0.1-0.6,0c-0.2,0.1-0.2,0.2,0,0.3c0.2,0.1,0.4,0.1,0.6,0
						C29.7,15.3,29.7,15.1,29.6,15z"/>
				</g>
				<g>
					<path fill="#231F20" d="M30.6,16.3c0.2,0.1,0.4,0.1,0.6,0c0.2-0.1,0.2-0.2,0-0.3l0,0c-0.2-0.1-0.4-0.1-0.6,0
						C30.4,16,30.4,16.2,30.6,16.3z"/>
				</g>
				<g>
					<path fill="#231F20" d="M32.7,16.9c-0.2-0.1-0.4-0.1-0.6,0c-0.2,0.1-0.2,0.2,0,0.3c0.2,0.1,0.4,0.1,0.6,0l0,0
						C32.9,17.1,32.9,17,32.7,16.9z"/>
				</g>
				<g>
					<path fill="#231F20" d="M27.3,16c-0.2,0.1-0.2,0.2,0,0.3c0.2,0.1,0.4,0.1,0.6,0c0.2-0.1,0.2-0.2,0-0.3
						C27.8,15.9,27.5,15.9,27.3,16z"/>
				</g>
				<g>
					<path fill="#231F20" d="M28.9,17.2c0.2,0.1,0.4,0.1,0.6,0c0.2-0.1,0.2-0.2,0-0.3c-0.2-0.1-0.4-0.1-0.6,0
						C28.8,17,28.8,17.1,28.9,17.2z"/>
				</g>
				<g>
					<path fill="#231F20" d="M31.1,17.8c-0.2-0.1-0.4-0.1-0.6,0c-0.2,0.1-0.2,0.2,0,0.3c0.2,0.1,0.4,0.1,0.6,0
						C31.3,18.1,31.3,17.9,31.1,17.8z"/>
				</g>
				<g>
					<path fill="#231F20" d="M26.3,17.3c0.2-0.1,0.2-0.2,0-0.3c-0.2-0.1-0.4-0.1-0.6,0c-0.2,0.1-0.2,0.2,0,0.3l0,0
						C25.9,17.4,26.1,17.4,26.3,17.3z"/>
				</g>
				<g>
					<path fill="#231F20" d="M27.9,18.2c0.2-0.1,0.2-0.2,0-0.3c-0.2-0.1-0.4-0.1-0.6,0c-0.2,0.1-0.2,0.2,0,0.3l0,0
						C27.5,18.3,27.7,18.3,27.9,18.2z"/>
				</g>
				<g>
					<path fill="#231F20" d="M29.5,19.1c0.2-0.1,0.2-0.2,0-0.3c-0.2-0.1-0.4-0.1-0.6,0c-0.2,0.1-0.2,0.2,0,0.3l0,0
						C29,19.2,29.3,19.2,29.5,19.1L29.5,19.1z"/>
				</g>
			</g>
			<g>
				<g>
					<path fill="#231F20" d="M32.7,16.9c-0.2-0.1-0.4-0.1-0.6,0c-0.2,0.1-0.2,0.2,0,0.3c0.2,0.1,0.4,0.1,0.6,0
						C32.9,17.1,32.9,17,32.7,16.9z"/>
				</g>
				<g>
					<path fill="#231F20" d="M33.7,18.1c0.2,0.1,0.4,0.1,0.6,0c0.2-0.1,0.2-0.2,0-0.3l0,0c-0.2-0.1-0.4-0.1-0.6,0
						C33.6,17.9,33.6,18,33.7,18.1z"/>
				</g>
				<g>
					<path fill="#231F20" d="M35.9,18.7c-0.2-0.1-0.4-0.1-0.6,0c-0.2,0.1-0.2,0.2,0,0.3c0.2,0.1,0.4,0.1,0.6,0l0,0
						C36.1,18.9,36.1,18.8,35.9,18.7z"/>
				</g>
				<g>
					<path fill="#231F20" d="M30.5,17.8c-0.2,0.1-0.2,0.2,0,0.3c0.2,0.1,0.4,0.1,0.6,0c0.2-0.1,0.2-0.2,0-0.3
						C30.9,17.7,30.7,17.7,30.5,17.8z"/>
				</g>
				<g>
					<path fill="#231F20" d="M32.1,19.1c0.2,0.1,0.4,0.1,0.6,0c0.2-0.1,0.2-0.2,0-0.3c-0.2-0.1-0.4-0.1-0.6,0
						C31.9,18.8,31.9,19,32.1,19.1z"/>
				</g>
				<g>
					<path fill="#231F20" d="M34.3,19.6c-0.2-0.1-0.4-0.1-0.6,0c-0.2,0.1-0.2,0.2,0,0.3c0.2,0.1,0.4,0.1,0.6,0
						C34.4,19.9,34.4,19.7,34.3,19.6z"/>
				</g>
				<g>
					<path fill="#231F20" d="M29.5,19.1c0.2-0.1,0.2-0.2,0-0.3c-0.2-0.1-0.4-0.1-0.6,0c-0.2,0.1-0.2,0.2,0,0.3l0,0
						C29,19.2,29.3,19.2,29.5,19.1z"/>
				</g>
				<g>
					<path fill="#231F20" d="M31.1,20c0.2-0.1,0.2-0.2,0-0.3c-0.2-0.1-0.4-0.1-0.6,0c-0.2,0.1-0.2,0.2,0,0.3l0,0
						C30.6,20.1,30.9,20.1,31.1,20z"/>
				</g>
				<g>
					<path fill="#231F20" d="M32.6,20.9c0.2-0.1,0.2-0.2,0-0.3c-0.2-0.1-0.4-0.1-0.6,0c-0.2,0.1-0.2,0.2,0,0.3l0,0
						C32.2,21,32.5,21,32.6,20.9L32.6,20.9z"/>
				</g>
			</g>
			<g>
				<g>
					<path fill="#231F20" d="M27.9,16c-0.2-0.1-0.4-0.1-0.6,0c-0.2,0.1-0.2,0.2,0,0.3c0.2,0.1,0.4,0.1,0.6,0
						C28.1,16.2,28.1,16.1,27.9,16z"/>
				</g>
				<g>
					<path fill="#231F20" d="M28.9,17.2c0.2,0.1,0.4,0.1,0.6,0c0.2-0.1,0.2-0.2,0-0.3l0,0c-0.2-0.1-0.4-0.1-0.6,0
						C28.8,17,28.8,17.1,28.9,17.2z"/>
				</g>
				<g>
					<path fill="#231F20" d="M31.1,17.8c-0.2-0.1-0.4-0.1-0.6,0c-0.2,0.1-0.2,0.2,0,0.3c0.2,0.1,0.4,0.1,0.6,0l0,0
						C31.3,18.1,31.3,17.9,31.1,17.8z"/>
				</g>
				<g>
					<path fill="#231F20" d="M25.7,16.9c-0.2,0.1-0.2,0.2,0,0.3c0.2,0.1,0.4,0.1,0.6,0c0.2-0.1,0.2-0.2,0-0.3
						C26.1,16.8,25.9,16.8,25.7,16.9z"/>
				</g>
				<g>
					<path fill="#231F20" d="M27.3,18.2c0.2,0.1,0.4,0.1,0.6,0c0.2-0.1,0.2-0.2,0-0.3c-0.2-0.1-0.4-0.1-0.6,0
						C27.1,17.9,27.1,18.1,27.3,18.2z"/>
				</g>
				<g>
					<path fill="#231F20" d="M29.5,18.8c-0.2-0.1-0.4-0.1-0.6,0c-0.2,0.1-0.2,0.2,0,0.3c0.2,0.1,0.4,0.1,0.6,0
						C29.6,19,29.6,18.9,29.5,18.8z"/>
				</g>
				<g>
					<path fill="#231F20" d="M24.7,18.2c0.2-0.1,0.2-0.2,0-0.3c-0.2-0.1-0.4-0.1-0.6,0c-0.2,0.1-0.2,0.2,0,0.3l0,0
						C24.2,18.3,24.5,18.3,24.7,18.2z"/>
				</g>
				<g>
					<path fill="#231F20" d="M26.3,19.1c0.2-0.1,0.2-0.2,0-0.3c-0.2-0.1-0.4-0.1-0.6,0c-0.2,0.1-0.2,0.2,0,0.3l0,0
						C25.8,19.2,26.1,19.2,26.3,19.1z"/>
				</g>
				<g>
					<path fill="#231F20" d="M27.8,20.1c0.2-0.1,0.2-0.2,0-0.3c-0.2-0.1-0.4-0.1-0.6,0c-0.2,0.1-0.2,0.2,0,0.3l0,0
						C27.4,20.1,27.7,20.1,27.8,20.1L27.8,20.1z"/>
				</g>
			</g>
			<g>
				<g>
					<path fill="#231F20" d="M31.1,17.8c-0.2-0.1-0.4-0.1-0.6,0c-0.2,0.1-0.2,0.2,0,0.3c0.2,0.1,0.4,0.1,0.6,0
						C31.3,18.1,31.3,17.9,31.1,17.8z"/>
				</g>
				<g>
					<path fill="#231F20" d="M32.1,19.1c0.2,0.1,0.4,0.1,0.6,0c0.2-0.1,0.2-0.2,0-0.3l0,0c-0.2-0.1-0.4-0.1-0.6,0
						C31.9,18.8,31.9,19,32.1,19.1z"/>
				</g>
				<g>
					<path fill="#231F20" d="M34.3,19.6c-0.2-0.1-0.4-0.1-0.6,0c-0.2,0.1-0.2,0.2,0,0.3c0.2,0.1,0.4,0.1,0.6,0l0,0
						C34.4,19.9,34.4,19.7,34.3,19.6z"/>
				</g>
				<g>
					<path fill="#231F20" d="M28.9,18.8c-0.2,0.1-0.2,0.2,0,0.3c0.2,0.1,0.4,0.1,0.6,0c0.2-0.1,0.2-0.2,0-0.3
						C29.3,18.7,29,18.7,28.9,18.8z"/>
				</g>
				<g>
					<path fill="#231F20" d="M30.5,20c0.2,0.1,0.4,0.1,0.6,0c0.2-0.1,0.2-0.2,0-0.3c-0.2-0.1-0.4-0.1-0.6,0
						C30.3,19.8,30.3,19.9,30.5,20z"/>
				</g>
				<g>
					<path fill="#231F20" d="M32.6,20.6c-0.2-0.1-0.4-0.1-0.6,0c-0.2,0.1-0.2,0.2,0,0.3c0.2,0.1,0.4,0.1,0.6,0
						C32.8,20.8,32.8,20.7,32.6,20.6z"/>
				</g>
				<g>
					<path fill="#231F20" d="M27.8,20.1c0.2-0.1,0.2-0.2,0-0.3c-0.2-0.1-0.4-0.1-0.6,0c-0.2,0.1-0.2,0.2,0,0.3l0,0
						C27.4,20.1,27.7,20.1,27.8,20.1z"/>
				</g>
				<g>
					<path fill="#231F20" d="M29.4,21c0.2-0.1,0.2-0.2,0-0.3c-0.2-0.1-0.4-0.1-0.6,0c-0.2,0.1-0.2,0.2,0,0.3l0,0
						C29,21.1,29.3,21.1,29.4,21z"/>
				</g>
				<g>
					<path fill="#231F20" d="M31,21.9c0.2-0.1,0.2-0.2,0-0.3c-0.2-0.1-0.4-0.1-0.6,0c-0.2,0.1-0.2,0.2,0,0.3l0,0
						C30.6,22,30.8,22,31,21.9L31,21.9z"/>
				</g>
			</g>
		</g>
	</g>
</g>
</svg>
