<?xml version="1.0" encoding="utf-8"?>
<!-- Generator: Adobe Illustrator 18.1.1, SVG Export Plug-In . SVG Version: 6.00 Build 0)  -->
<!DOCTYPE svg PUBLIC "-//W3C//DTD SVG 1.1//EN" "http://www.w3.org/Graphics/SVG/1.1/DTD/svg11.dtd">
<svg version="1.1" id="Layer_1" xmlns="http://www.w3.org/2000/svg" xmlns:xlink="http://www.w3.org/1999/xlink" x="0px" y="0px"
	 viewBox="0 0 55 65" enable-background="new 0 0 55 65" xml:space="preserve">
<g>
	<g>
		<polyline fill="#231F20" points="33.7,53 43,46.6 43.8,43.1 40.7,40.5 36.9,40.5 		"/>
		<path fill="#231F20" d="M33.7,53.2c-0.1,0-0.1,0-0.2-0.1c-0.1-0.1,0-0.2,0.1-0.3l9.3-6.4l0.7-3.3l-2.9-2.5h-3.7
			c-0.1,0-0.2-0.1-0.2-0.2c0-0.1,0.1-0.2,0.2-0.2h3.8c0.1,0,0.1,0,0.1,0.1l3.1,2.6c0.1,0.1,0.1,0.1,0.1,0.2l-0.8,3.5
			c0,0.1,0,0.1-0.1,0.1l-9.3,6.4C33.8,53.2,33.7,53.2,33.7,53.2z"/>
	</g>
	<g>
		<g enable-background="new    ">
			<g>
				<g>
					<polygon fill="#FFFFFF" points="35.7,48.6 35.5,50.4 33.7,53 28.5,54.5 22.4,54 19,52 18.6,50.1 20.6,45.9 25.6,44.4 
						31.2,44.9 					"/>
					<path fill="#231F20" d="M28.5,54.7C28.5,54.7,28.5,54.7,28.5,54.7l-6.1-0.5c0,0-0.1,0-0.1,0l-3.4-2c-0.1,0-0.1-0.1-0.1-0.1
						l-0.4-1.8c0,0,0-0.1,0-0.1l2-4.3c0-0.1,0.1-0.1,0.1-0.1l5-1.5c0,0,0.1,0,0.1,0l5.5,0.5c0,0,0.1,0,0.1,0l4.6,3.6
						c0.1,0,0.1,0.1,0.1,0.2l-0.3,1.9c0,0,0,0.1,0,0.1l-1.7,2.6c0,0-0.1,0.1-0.1,0.1L28.5,54.7C28.5,54.7,28.5,54.7,28.5,54.7z
						 M22.5,53.8l6,0.5l5.1-1.5l1.7-2.5l0.3-1.7l-4.4-3.5l-5.4-0.5l-4.8,1.4l-2,4.1l0.4,1.7L22.5,53.8z"/>
				</g>
			</g>
		</g>
	</g>
	<g>
		<g enable-background="new    ">
			<g>
				<g>
					<polygon fill="#FFFFFF" points="16.2,31.5 18.6,50.1 17.7,46.9 15,27.3 					"/>
					<path fill="#231F20" d="M18.6,50.4c-0.1,0-0.2-0.1-0.2-0.2L17.5,47c0,0,0,0,0,0l-2.7-19.6c0-0.1,0.1-0.2,0.2-0.2
						c0.1,0,0.2,0,0.3,0.2l1.2,4.2c0,0,0,0,0,0l2.4,18.6c0,0,0,0,0,0.1C18.8,50.3,18.7,50.4,18.6,50.4
						C18.6,50.4,18.6,50.4,18.6,50.4z M17.9,46.9l0.1,0.3l-2-15.6l-0.3-1.1L17.9,46.9z"/>
				</g>
			</g>
			<g>
				<g>
					<polygon fill="#FFFFFF" points="38.5,29.5 35.7,48.6 33.2,51.5 35.2,33.3 					"/>
					<path fill="#231F20" d="M33.2,51.7C33.2,51.7,33.1,51.7,33.2,51.7C33,51.6,33,51.6,33,51.5l2-18.2c0,0,0-0.1,0.1-0.1l3.3-3.8
						c0.1-0.1,0.2-0.1,0.3-0.1c0.1,0,0.1,0.1,0.1,0.2L36,48.6c0,0,0,0.1-0.1,0.1l-2.5,2.9C33.3,51.7,33.3,51.7,33.2,51.7z
						 M35.4,33.3l-1.9,17.5l2-2.3l2.7-18.3L35.4,33.3z"/>
				</g>
			</g>
			<g>
				<g>
					<polygon fill="#FFFFFF" points="21.4,34.5 22.6,52.5 18.6,50.1 16.2,31.5 					"/>
					<path fill="#231F20" d="M22.6,52.7c0,0-0.1,0-0.1,0l-4-2.3c-0.1,0-0.1-0.1-0.1-0.2L16,31.5c0-0.1,0-0.2,0.1-0.2
						c0.1,0,0.2,0,0.2,0l5.2,3c0.1,0,0.1,0.1,0.1,0.2l1.2,17.9c0,0,0,0,0,0C22.8,52.6,22.7,52.7,22.6,52.7
						C22.6,52.7,22.6,52.7,22.6,52.7z M18.8,50l3.6,2.1l-1.2-17.4l-4.7-2.7L18.8,50z"/>
				</g>
			</g>
			<g>
				<g>
					<polygon fill="#FFFFFF" points="37.4,25.2 38.5,29.5 35.2,33.3 28.7,35.2 21.4,34.5 16.2,31.5 15,27.3 18.3,23.5 24.9,21.6 
						32.1,22.2 					"/>
					<path fill="#231F20" d="M28.7,35.4C28.7,35.4,28.7,35.4,28.7,35.4l-7.3-0.7c0,0-0.1,0-0.1,0l-5.2-3c0,0-0.1-0.1-0.1-0.1
						l-1.2-4.2c0-0.1,0-0.1,0-0.2l3.3-3.8c0,0,0.1-0.1,0.1-0.1l6.6-1.9c0,0,0.1,0,0.1,0l7.3,0.7c0,0,0.1,0,0.1,0l5.2,3
						c0,0,0.1,0.1,0.1,0.1l1.2,4.2c0,0.1,0,0.1,0,0.2l-3.3,3.8c0,0-0.1,0.1-0.1,0.1L28.7,35.4C28.7,35.4,28.7,35.4,28.7,35.4z
						 M21.5,34.3l7.2,0.7l6.5-1.9l3.2-3.7l-1.1-4l-5.1-2.9l-7.2-0.7l-6.5,1.9l-3.2,3.7l1.1,4L21.5,34.3z"/>
				</g>
			</g>
			<g>
				<g>
					<polygon fill="#FFFFFF" points="35.2,33.3 33.2,51.5 28.2,53 28.7,35.2 					"/>
					<path fill="#231F20" d="M28.2,53.2c0,0-0.1,0-0.1,0C28,53.1,28,53,28,53l0.5-17.8c0-0.1,0.1-0.2,0.2-0.2l6.6-1.9
						c0.1,0,0.1,0,0.2,0c0.1,0,0.1,0.1,0.1,0.2l-2,18.2c0,0.1-0.1,0.2-0.2,0.2L28.2,53.2C28.2,53.2,28.2,53.2,28.2,53.2z M28.9,35.4
						l-0.5,17.3l4.6-1.4l2-17.8L28.9,35.4z"/>
				</g>
			</g>
			<g>
				<g>
					<polygon fill="#FFFFFF" points="28.7,35.2 28.2,53 22.6,52.5 21.4,34.5 					"/>
					<path fill="#231F20" d="M28.2,53.2C28.2,53.2,28.2,53.2,28.2,53.2l-5.6-0.5c-0.1,0-0.2-0.1-0.2-0.2l-1.2-17.9
						c0-0.1,0-0.1,0.1-0.2c0,0,0.1-0.1,0.2-0.1l7.3,0.7c0.1,0,0.2,0.1,0.2,0.2L28.4,53c0,0.1,0,0.1-0.1,0.2
						C28.3,53.2,28.2,53.2,28.2,53.2z M22.8,52.3l5.2,0.5l0.5-17.3l-6.8-0.6L22.8,52.3z"/>
				</g>
			</g>
		</g>
	</g>
	<g>
		<g enable-background="new    ">
			<g>
				<g>
					<polyline fill="#FFFFFF" points="33.5,12.2 28.9,13 21.7,14.5 15.1,17.8 11.7,21.6 12.2,22.8 16.8,21.9 23.7,19.4 30.3,16.1 
						34,13.4 33.5,12.2 					"/>
					<path fill="#231F20" d="M12.2,23c-0.1,0-0.2-0.1-0.2-0.1l-0.5-1.2c0-0.1,0-0.2,0-0.2l3.4-3.8c0,0,0,0,0.1,0l6.6-3.3
						c0,0,0,0,0.1,0l7.2-1.5l4.6-0.8c0.1,0,0.2,0,0.2,0.1l0.5,1.2c0,0.1,0,0.2-0.1,0.3l-3.8,2.8c0,0,0,0,0,0l-6.6,3.3c0,0,0,0,0,0
						l-6.9,2.5c0,0,0,0,0,0L12.2,23C12.2,23,12.2,23,12.2,23z M11.9,21.6l0.4,0.9l4.4-0.8l6.9-2.5l6.6-3.3l3.6-2.6l-0.4-0.9L29,13.2
						l-7.2,1.5L15.3,18L11.9,21.6z"/>
				</g>
			</g>
		</g>
	</g>
	<g>
		<g enable-background="new    ">
			<g>
				<g>
					<polyline fill="#FFFFFF" points="33,10.7 28.1,10.5 21.2,13 14.6,16.3 11.2,20.1 11.7,21.3 16.3,20.4 23.2,17.9 29.7,14.6 
						33.5,11.9 33,10.7 					"/>
					<path fill="#231F20" d="M11.7,21.5c-0.1,0-0.2-0.1-0.2-0.1L11,20.2c0-0.1,0-0.2,0-0.2l3.4-3.8c0,0,0,0,0.1,0l6.6-3.3
						c0,0,0,0,0,0l6.9-2.5c0,0,0.1,0,0.1,0l4.9,0.2c0.1,0,0.2,0.1,0.2,0.1l0.5,1.2c0,0.1,0,0.2-0.1,0.3l-3.8,2.8c0,0,0,0,0,0
						l-6.6,3.3c0,0,0,0,0,0l-6.9,2.5c0,0,0,0,0,0L11.7,21.5C11.7,21.5,11.7,21.5,11.7,21.5z M11.4,20.1l0.4,0.9l4.4-0.8l6.9-2.5
						l6.6-3.3l3.6-2.6l-0.4-0.9l-4.7-0.2l-6.9,2.5l-6.5,3.2L11.4,20.1z"/>
				</g>
			</g>
		</g>
	</g>
	<g>
		<g>
			<polygon fill="#FFFFFF" points="19.5,14.7 20.2,13.6 21.5,13.1 22.8,13.4 23.7,14.4 25,13.8 23.5,12.1 21.4,11.6 19.3,12.5 
				18.1,14.4 18.3,16.6 19.7,16.1 			"/>
			<path fill="#231F20" d="M18.3,16.8c0,0-0.1,0-0.1,0c-0.1,0-0.1-0.1-0.1-0.2l-0.2-2.2c0,0,0-0.1,0-0.1l1.2-1.9
				c0,0,0.1-0.1,0.1-0.1l2.1-0.9c0,0,0.1,0,0.1,0l2.2,0.5c0,0,0.1,0,0.1,0.1l1.5,1.7c0,0.1,0.1,0.1,0,0.2c0,0.1-0.1,0.1-0.1,0.2
				l-1.3,0.6c-0.1,0-0.2,0-0.3-0.1l-0.8-1l-1.2-0.3l-1.1,0.5l-0.6,1l0.1,1.3c0,0.1,0,0.2-0.1,0.2L18.3,16.8
				C18.4,16.8,18.4,16.8,18.3,16.8z M18.4,14.4l0.2,1.9l0.9-0.4l-0.1-1.2c0,0,0-0.1,0-0.1l0.7-1.1c0,0,0.1-0.1,0.1-0.1l1.2-0.5
				c0,0,0.1,0,0.1,0l1.3,0.3c0,0,0.1,0,0.1,0.1l0.8,0.9l0.9-0.4l-1.2-1.4l-2-0.5l-1.9,0.8L18.4,14.4z"/>
		</g>
	</g>
	<g>
		<polygon fill="#FFFFFF" points="25.8,24.5 29.2,20 34.3,18.5 34.4,16.6 40.7,21.2 34.2,25.6 34.2,24 32.3,24.5 31,26.3 30.9,34.5 
			28.7,35.2 25.7,35 		"/>
		<path fill="#231F20" d="M28.7,35.4C28.7,35.4,28.7,35.4,28.7,35.4l-3-0.2c-0.1,0-0.2-0.1-0.2-0.2l0.1-10.5c0,0,0-0.1,0-0.1
			l3.4-4.5c0,0,0.1-0.1,0.1-0.1l5-1.5l0-1.7c0-0.1,0-0.2,0.1-0.2c0.1,0,0.2,0,0.2,0l6.4,4.6c0.1,0,0.1,0.1,0.1,0.2
			c0,0.1,0,0.1-0.1,0.2l-6.5,4.4c-0.1,0-0.2,0-0.2,0c-0.1,0-0.1-0.1-0.1-0.2l0-1.3l-1.5,0.5l-1.3,1.7l-0.1,8.1
			c0,0.1-0.1,0.2-0.2,0.2L28.7,35.4C28.7,35.4,28.7,35.4,28.7,35.4z M25.9,34.8l2.8,0.2l2.1-0.6l0.1-8c0,0,0-0.1,0-0.1l1.3-1.8
			c0,0,0.1-0.1,0.1-0.1l1.9-0.6c0.1,0,0.1,0,0.2,0c0.1,0,0.1,0.1,0.1,0.2l0,1.2l5.9-4L34.6,17l0,1.4c0,0.1-0.1,0.2-0.2,0.2l-5.1,1.5
			L26,24.6L25.9,34.8z"/>
	</g>
	<g>
		<polyline fill="#231F20" points="31,29.3 34.2,25.6 35.9,24.4 37.8,26.6 32.9,33.9 30.9,34.5 		"/>
		<path fill="#231F20" d="M30.9,34.7c-0.1,0-0.2-0.1-0.2-0.2c0-0.1,0-0.2,0.1-0.3l1.9-0.6l4.7-7.1l-1.6-1.9l-1.6,1l-3.2,3.7
			c-0.1,0.1-0.2,0.1-0.3,0c-0.1-0.1-0.1-0.2,0-0.3l3.2-3.7c0,0,0,0,0,0l1.8-1.2c0.1-0.1,0.2,0,0.3,0l1.8,2.2c0.1,0.1,0.1,0.2,0,0.3
			l-4.9,7.3c0,0-0.1,0.1-0.1,0.1L30.9,34.7C31,34.7,31,34.7,30.9,34.7z"/>
	</g>
</g>
</svg>
