<?xml version="1.0" encoding="utf-8"?>
<!-- Generator: Adobe Illustrator 18.1.1, SVG Export Plug-In . SVG Version: 6.00 Build 0)  -->
<!DOCTYPE svg PUBLIC "-//W3C//DTD SVG 1.1//EN" "http://www.w3.org/Graphics/SVG/1.1/DTD/svg11.dtd">
<svg version="1.1" id="Layer_1" xmlns="http://www.w3.org/2000/svg" xmlns:xlink="http://www.w3.org/1999/xlink" x="0px" y="0px"
	 viewBox="0 0 55 65" enable-background="new 0 0 55 65" xml:space="preserve">
<g>
	<g>
		<polygon fill="#231F20" points="48.3,34.5 50.2,31.7 32.6,21.3 31.9,23.2 48.3,32.7 48.3,33.5 		"/>
		<path fill="#231F20" d="M48.3,34.7C48.3,34.7,48.3,34.7,48.3,34.7c-0.2,0-0.2-0.1-0.2-0.2l0-1l0-0.7l-16.3-9.4
			c-0.1-0.1-0.1-0.2-0.1-0.3l0.7-1.9c0-0.1,0.1-0.1,0.1-0.1c0.1,0,0.1,0,0.2,0l17.6,10.3c0.1,0,0.1,0.1,0.1,0.1c0,0.1,0,0.1,0,0.2
			l-1.9,2.8C48.5,34.7,48.4,34.7,48.3,34.7z M32.2,23.1l16.2,9.3c0.1,0,0.1,0.1,0.1,0.2l0,0.8l0,0.3l1.4-2L32.7,21.6L32.2,23.1z"/>
	</g>
	<g>
		<polygon fill="#231F20" points="33.8,42.9 36,40.2 19.6,30.6 17.4,31.7 33.8,41.1 33.8,41.9 		"/>
		<path fill="#231F20" d="M33.8,43.1C33.8,43.1,33.7,43.1,33.8,43.1c-0.2,0-0.2-0.1-0.2-0.2l0-1l0-0.7l-16.3-9.4
			c-0.1,0-0.1-0.1-0.1-0.2c0-0.1,0.1-0.2,0.1-0.2l2.2-1c0.1,0,0.1,0,0.2,0L36.1,40c0.1,0,0.1,0.1,0.1,0.2c0,0.1,0,0.1,0,0.2L34,43
			C33.9,43.1,33.9,43.1,33.8,43.1z M17.9,31.7l16,9.2c0.1,0,0.1,0.1,0.1,0.2l0,0.8l0,0.4l1.7-2l-16.1-9.4L17.9,31.7z"/>
	</g>
	<g>
		<g enable-background="new    ">
			<g>
				<g>
					<polygon fill="#FFFFFF" points="38,39.5 20.3,29.2 30.6,23.2 48.3,33.5 					"/>
					<path fill="#231F20" d="M38,39.7c0,0-0.1,0-0.1,0L20.1,29.3c-0.1,0-0.1-0.1-0.1-0.2c0-0.1,0-0.2,0.1-0.2l10.3-6
						c0.1,0,0.2,0,0.2,0l17.7,10.3c0.1,0,0.1,0.1,0.1,0.2c0,0.1,0,0.2-0.1,0.2l-10.3,6C38.1,39.7,38,39.7,38,39.7z M20.7,29.2
						l17.3,10l9.9-5.7l-17.3-10L20.7,29.2z"/>
				</g>
			</g>
			<g>
				<g>
					<polygon fill="#FFFFFF" points="36.7,41.2 19,30.9 19,29.8 36.7,40.1 					"/>
					<path fill="#231F20" d="M36.7,41.4C36.7,41.4,36.7,41.4,36.7,41.4c0,0-0.1,0-0.1,0L18.9,31c-0.1,0-0.1-0.1-0.1-0.2l0-1.1
						c0-0.1,0-0.2,0.1-0.2c0.1,0,0.2,0,0.2,0l17.7,10.3c0.1,0,0.1,0.1,0.1,0.2l0,1c0,0,0,0,0,0C37,41.3,36.9,41.4,36.7,41.4z
						 M19.2,30.7l17.3,10l0-0.5l-17.3-10L19.2,30.7z"/>
				</g>
			</g>
			<g>
				<g>
					<polygon fill="#FFFFFF" points="36.7,40.1 19,29.8 18.6,29.3 36.4,39.6 					"/>
					<path fill="#231F20" d="M36.7,40.3c0,0-0.1,0-0.1,0L18.9,30c0,0,0,0-0.1-0.1l-0.4-0.5c-0.1-0.1-0.1-0.2,0-0.3
						c0.1-0.1,0.2-0.1,0.3,0l17.7,10.3c0,0,0,0,0.1,0.1l0.4,0.5c0,0,0.1,0.1,0.1,0.1C37,40.2,36.9,40.3,36.7,40.3L36.7,40.3
						C36.7,40.3,36.7,40.3,36.7,40.3z"/>
				</g>
			</g>
			<g>
				<g>
					<polygon fill="#FFFFFF" points="36,37.9 18.3,27.6 19.5,27.7 37.3,38 					"/>
					<path fill="#231F20" d="M37.3,38.2C37.3,38.2,37.3,38.2,37.3,38.2L36,38.1c0,0-0.1,0-0.1,0L18.2,27.8c-0.1-0.1-0.1-0.2-0.1-0.3
						c0-0.1,0.1-0.2,0.2-0.2l1.2,0.1c0,0,0.1,0,0.1,0l17.7,10.3c0.1,0,0.1,0.1,0.1,0.2C37.5,38.1,37.4,38.2,37.3,38.2
						C37.3,38.2,37.3,38.2,37.3,38.2z M36.1,37.7l0.2,0l-16.8-9.8l-0.2,0L36.1,37.7z"/>
				</g>
			</g>
			<g>
				<g>
					<polygon fill="#FFFFFF" points="32.7,42.5 15,32.2 15,31.7 32.7,42 					"/>
					<path fill="#231F20" d="M32.7,42.7C32.7,42.7,32.7,42.7,32.7,42.7c0,0-0.1,0-0.1,0L14.9,32.4c-0.1,0-0.1-0.1-0.1-0.2l0-0.4
						c0-0.1,0-0.2,0.1-0.2c0.1,0,0.2,0,0.2,0l17.7,10.3c0.1,0,0.1,0.1,0.1,0.2l0,0.4c0,0,0,0,0,0C32.9,42.6,32.8,42.7,32.7,42.7z"/>
				</g>
			</g>
			<g>
				<g>
					<polygon fill="#FFFFFF" points="34.6,38.7 16.9,28.4 18.3,27.6 36,37.9 					"/>
					<path fill="#231F20" d="M34.6,38.9c0,0-0.1,0-0.1,0L16.8,28.6c-0.1,0-0.1-0.1-0.1-0.2c0-0.1,0-0.2,0.1-0.2l1.4-0.8
						c0.1,0,0.2,0,0.2,0l17.7,10.3c0.1,0,0.1,0.1,0.1,0.2c0,0.1,0,0.2-0.1,0.2l-1.4,0.8C34.7,38.9,34.7,38.9,34.6,38.9z M17.3,28.4
						l17.3,10l1-0.6l-17.3-10L17.3,28.4z"/>
				</g>
			</g>
			<g>
				<g>
					<polygon fill="#FFFFFF" points="33.4,40.2 15.7,29.9 16.9,28.4 34.6,38.7 					"/>
					<path fill="#231F20" d="M33.4,40.5c0,0-0.1,0-0.1,0L15.6,30.1c-0.1,0-0.1-0.1-0.1-0.1c0-0.1,0-0.1,0-0.2l1.2-1.5
						c0.1-0.1,0.2-0.1,0.3-0.1l17.7,10.3c0.1,0,0.1,0.1,0.1,0.1c0,0.1,0,0.1,0,0.2l-1.2,1.5C33.5,40.4,33.5,40.5,33.4,40.5z
						 M16,29.9L33.4,40l0.9-1.2L17,28.7L16,29.9z"/>
				</g>
			</g>
			<g>
				<g>
					<polygon fill="#FFFFFF" points="32.7,42 15,31.7 15.7,29.9 33.4,40.2 					"/>
					<path fill="#231F20" d="M32.7,42.3c0,0-0.1,0-0.1,0L14.9,31.9c-0.1-0.1-0.1-0.2-0.1-0.3l0.7-1.8c0-0.1,0.1-0.1,0.1-0.1
						c0.1,0,0.1,0,0.2,0L33.5,40c0.1,0.1,0.1,0.2,0.1,0.3l-0.7,1.8C32.9,42.2,32.8,42.2,32.7,42.3C32.8,42.3,32.7,42.3,32.7,42.3z
						 M15.3,31.7l17.3,10.1l0.5-1.4L15.8,30.3L15.3,31.7z"/>
				</g>
			</g>
			<g>
				<g>
					<polygon fill="#FFFFFF" points="22.6,49.3 4.9,39 4.9,38 22.6,48.3 					"/>
					<path fill="#231F20" d="M22.6,49.5C22.6,49.5,22.6,49.5,22.6,49.5c0,0-0.1,0-0.1,0L4.8,39.2c-0.1,0-0.1-0.1-0.1-0.2l0-1
						c0-0.1,0-0.2,0.1-0.2c0.1,0,0.2,0,0.2,0l17.7,10.3c0.1,0,0.1,0.1,0.1,0.2l0,1c0,0,0,0,0,0C22.8,49.4,22.7,49.5,22.6,49.5z
						 M5.1,38.9l17.3,10l0-0.5l-17.3-10L5.1,38.9z"/>
				</g>
			</g>
			<g>
				<g>
					<polygon fill="#FFFFFF" points="36,37.9 37.3,38 38,39 38,39.5 48.3,33.5 48.3,34.5 38,40.4 37.1,41 36.7,41.2 36.7,40.1 
						36.4,39.6 35.7,39.5 35,40 34.3,40.8 34,41.7 34,42.8 33.9,42.8 32.7,43.5 22.6,49.3 22.6,48.3 32.7,42.5 32.7,42 33.4,40.2 
						34.6,38.7 					"/>
					<path fill="#231F20" d="M22.6,49.5c0,0-0.1,0-0.1,0c-0.1,0-0.1-0.1-0.1-0.2l0-1c0-0.1,0-0.2,0.1-0.2l10-5.8l0-0.3
						c0,0,0-0.1,0-0.1l0.7-1.8c0,0,0,0,0-0.1l1.2-1.5c0,0,0,0,0.1-0.1l1.4-0.8c0,0,0.1,0,0.1,0l1.2,0.1c0.1,0,0.1,0,0.2,0.1l0.7,1
						c0,0,0,0.1,0,0.1l0,0.1l10-5.8c0.1,0,0.2,0,0.2,0c0.1,0,0.1,0.1,0.1,0.2l0,1c0,0.1,0,0.2-0.1,0.2l-11.6,6.7c-0.1,0-0.2,0-0.2,0
						c-0.1,0-0.1-0.1-0.1-0.2l0-1l-0.3-0.4l-0.5,0l-0.6,0.4l-0.6,0.7l-0.3,0.9l0,1c0,0.1,0,0.2-0.1,0.2l-11.3,6.6
						C22.7,49.5,22.6,49.5,22.6,49.5z M22.8,48.5l0,0.5l10.9-6.3l0-0.9c0,0,0-0.1,0-0.1l0.4-1c0,0,0,0,0-0.1l0.6-0.8
						c0,0,0,0,0.1-0.1l0.7-0.4c0,0,0.1,0,0.1,0l0.6,0.1c0.1,0,0.1,0,0.2,0.1l0.4,0.5c0,0,0,0.1,0,0.1l0,0.7l11.1-6.4l0-0.5l-10,5.8
						c-0.1,0-0.2,0-0.2,0c-0.1,0-0.1-0.1-0.1-0.2l0-0.4l-0.6-0.9l-1.1-0.1l-1.3,0.8l-1.2,1.5l-0.7,1.7l0,0.4c0,0.1,0,0.2-0.1,0.2
						L22.8,48.5z"/>
				</g>
			</g>
			<g>
				<g>
					<polygon fill="#FFFFFF" points="22.6,48.3 4.9,38 15,32.2 32.7,42.5 					"/>
					<path fill="#231F20" d="M22.6,48.6c0,0-0.1,0-0.1,0L4.8,38.2c-0.1,0-0.1-0.1-0.1-0.2c0-0.1,0-0.2,0.1-0.2L14.9,32
						c0.1,0,0.2,0,0.2,0l17.7,10.3c0.1,0,0.1,0.1,0.1,0.2c0,0.1,0,0.2-0.1,0.2l-10.1,5.8C22.7,48.5,22.6,48.6,22.6,48.6z M5.3,38
						l17.3,10l9.7-5.6L15,32.4L5.3,38z"/>
				</g>
			</g>
		</g>
	</g>
	<g>
		<path fill="#FFFFFF" d="M30.5,22.4c0,0-1.5-0.8-1.7-0.8c-0.1-0.1-2.1-0.2-2.1-0.2l-6.6,3.3l-2.4,2.6v0.7L35.4,38l2.6-3l6.6-3.3
			c0,0,2,0.1,2.1,0.2c0.1,0.1,1.7,0.8,1.7,0.8L30.5,22.4z"/>
		<path fill="#231F20" d="M35.4,38.2c0,0-0.1,0-0.1,0L17.6,28.1c-0.1,0-0.1-0.1-0.1-0.2v-0.7c0-0.1,0-0.1,0.1-0.1l2.4-2.6
			c0,0,0,0,0.1,0l6.6-3.3c0,0,0.1,0,0.1,0c2,0.1,2.1,0.2,2.2,0.2c0.1,0.1,1.6,0.8,1.7,0.8c0,0,0,0,0,0l17.8,10.3
			c0.1,0.1,0.1,0.2,0.1,0.3c-0.1,0.1-0.2,0.1-0.3,0.1c-0.1,0-1.4-0.7-1.6-0.8c-0.2,0-1.1-0.1-2-0.2l-6.5,3.3l-2.6,3
			C35.5,38.2,35.4,38.2,35.4,38.2z M18,27.8l17.4,9.9l2.5-2.9c0,0,0,0,0.1-0.1l6.6-3.3c0,0,0.1,0,0.1,0c0.6,0,1,0.1,1.4,0.1l-15.5-9
			c-0.1-0.1-1.4-0.7-1.6-0.8c-0.2,0-1.1-0.1-2-0.2l-6.5,3.3L18,27.3V27.8z"/>
	</g>
	<g>
		<polyline fill="#FFFFFF" points="22.6,44.6 22.6,48.3 32.7,42.5 33.4,40.2 34.6,38.7 35.4,38.3 33.7,37.4 31.6,37.6 25,41.3 
			22.6,44.6 		"/>
		<path fill="#231F20" d="M22.6,48.6c0,0-0.1,0-0.1,0c-0.1,0-0.1-0.1-0.1-0.2v-3.8c0,0,0-0.1,0-0.1l2.4-3.3c0,0,0,0,0.1-0.1l6.6-3.7
			c0,0,0.1,0,0.1,0l2.1-0.2c0,0,0.1,0,0.1,0l1.7,0.8c0.1,0,0.1,0.1,0.1,0.2c0,0.1,0,0.2-0.1,0.2l-0.7,0.4l-1.2,1.5l-0.7,2.2
			c0,0.1-0.1,0.1-0.1,0.1l-10.1,5.8C22.7,48.5,22.6,48.6,22.6,48.6z M22.8,44.6V48l9.7-5.6l0.7-2.2c0,0,0-0.1,0-0.1l1.2-1.5
			c0,0,0,0,0.1,0l0.4-0.2l-1.3-0.6l-2,0.2l-6.5,3.6L22.8,44.6z"/>
	</g>
	<g>
		<path fill="#FFFFFF" d="M17.6,28c0,0-1.5-0.8-1.7-0.8c-0.1-0.1-2.1,0.2-2.1,0.2L7.2,31l-2.4,3.3h0l17.8,10.3l0-0.1l2.4-3.3
			l6.6-3.7c0,0,2-0.2,2.1-0.2s1.7,0.8,1.7,0.8L17.6,28z"/>
		<path fill="#231F20" d="M22.6,44.9c0,0-0.1,0-0.1,0L4.7,34.5c-0.1,0-0.1-0.2-0.1-0.2c0,0,0-0.1,0.1-0.1L7,30.9c0,0,0,0,0.1-0.1
			l6.6-3.7c0,0,0.1,0,0.1,0c0.1,0,1.6-0.2,2-0.2c0.1,0,0.1,0,0.2,0c0.1,0.1,1.6,0.8,1.7,0.8c0,0,0,0,0,0l17.8,10.3
			c0.1,0.1,0.1,0.2,0.1,0.3c-0.1,0.1-0.2,0.1-0.3,0.1c-0.1,0-1.4-0.7-1.6-0.8c0,0,0,0,0,0c-0.4,0-1.7,0.2-1.9,0.2l-6.5,3.6l-2.3,3.2
			l0,0C22.8,44.7,22.7,44.8,22.6,44.9C22.7,44.8,22.6,44.9,22.6,44.9z M5.1,34.3l17.4,10.1l2.3-3.1c0,0,0,0,0.1-0.1l6.6-3.7
			c0,0,0.1,0,0.1,0c0,0,1-0.1,1.6-0.2l-15.7-9.1c-0.1-0.1-1.4-0.7-1.6-0.8c0,0,0,0,0,0c-0.4,0-1.7,0.2-1.9,0.2l-6.5,3.6L5.1,34.3z"
			/>
	</g>
	<g>
		<polygon fill="#FFFFFF" points="4.8,34.3 4.9,38 22.6,48.3 22.6,44.6 		"/>
		<path fill="#231F20" d="M22.6,48.6c0,0-0.1,0-0.1,0L4.8,38.2c-0.1,0-0.1-0.1-0.1-0.2l-0.1-3.7c0-0.1,0-0.2,0.1-0.2
			c0.1,0,0.2,0,0.2,0l17.8,10.2c0.1,0,0.1,0.1,0.1,0.2v3.8c0,0.1,0,0.2-0.1,0.2C22.7,48.5,22.6,48.6,22.6,48.6z M5.1,37.9L22.4,48
			v-3.3L5,34.7L5.1,37.9z"/>
	</g>
	<g>
		<polygon fill="#FFFFFF" points="48.3,32.7 48.3,33.5 38,39.5 38,39 37.3,38 36,37.9 35.4,38 37.9,35 44.6,31.7 46.7,31.9 		"/>
		<path fill="#231F20" d="M38,39.7c0,0-0.1,0-0.1,0c-0.1,0-0.1-0.1-0.1-0.2l0-0.4l-0.6-0.9l-1.1-0.1l-0.7,0.1c-0.1,0-0.2,0-0.2-0.1
			c0-0.1,0-0.2,0-0.2l2.6-3c0,0,0,0,0.1-0.1l6.6-3.3c0,0,0.1,0,0.1,0l2.1,0.2c0,0,0.1,0,0.1,0l1.7,0.8c0.1,0,0.1,0.1,0.1,0.2l0,0.8
			c0,0.1,0,0.1-0.1,0.2l-10.3,6C38.1,39.7,38,39.7,38,39.7z M36,37.7C36.1,37.7,36.1,37.7,36,37.7l1.2,0.1c0.1,0,0.1,0,0.2,0.1
			l0.7,1c0,0,0,0.1,0,0.1l0,0.1l9.9-5.7l0-0.6l-1.5-0.7l-2-0.2l-6.5,3.3l-2.2,2.5L36,37.7C36,37.7,36,37.7,36,37.7z"/>
	</g>
	<g>
		<g>
			<polygon fill="#FFFFFF" points="17.4,18.7 16.8,22.4 14.7,22.7 14.3,19.4 15.9,17.1 			"/>
			<path fill="#231F20" d="M14.7,22.9c0,0-0.1,0-0.1,0c0,0-0.1-0.1-0.1-0.1l-0.3-3.3c0-0.1,0-0.1,0-0.1l1.5-2.3
				c0-0.1,0.1-0.1,0.2-0.1c0.1,0,0.1,0,0.2,0.1l1.5,1.6c0,0.1,0.1,0.1,0.1,0.2L17,22.5c0,0.1-0.1,0.2-0.2,0.2L14.7,22.9
				C14.7,22.9,14.7,22.9,14.7,22.9z M14.6,19.4l0.3,3l1.7-0.2l0.6-3.4l-1.3-1.4L14.6,19.4z"/>
		</g>
		<g>
			<polygon fill="#FFFFFF" points="17.4,18.7 21.2,18.5 21.7,16.6 18.5,15.7 15.9,17.1 			"/>
			<path fill="#231F20" d="M17.4,18.9c-0.1,0-0.1,0-0.2-0.1l-1.5-1.6c0,0-0.1-0.1-0.1-0.2c0-0.1,0.1-0.1,0.1-0.2l2.6-1.4
				c0,0,0.1,0,0.2,0l3.1,0.9c0.1,0,0.2,0.1,0.2,0.3l-0.4,1.9c0,0.1-0.1,0.2-0.2,0.2L17.4,18.9C17.4,18.9,17.4,18.9,17.4,18.9z
				 M16.2,17.1l1.3,1.4l3.5-0.2l0.3-1.6l-2.9-0.8L16.2,17.1z"/>
		</g>
		<g>
			<polygon fill="#FFFFFF" points="21.7,16.6 23.2,18.4 23.7,22 22.8,21.8 21.2,18.5 			"/>
			<path fill="#231F20" d="M23.7,22.2C23.7,22.2,23.7,22.2,23.7,22.2L22.7,22c-0.1,0-0.1-0.1-0.2-0.1L21,18.6c0,0,0-0.1,0-0.1
				l0.4-1.9c0-0.1,0.1-0.1,0.2-0.2c0.1,0,0.2,0,0.2,0.1l1.5,1.8c0,0,0,0.1,0,0.1l0.5,3.6c0,0,0,0,0,0.1
				C23.9,22.1,23.8,22.2,23.7,22.2L23.7,22.2z M22.9,21.6l0.5,0.1L23,18.4l-1.2-1.4l-0.3,1.4L22.9,21.6z"/>
		</g>
		<g>
			<polygon fill="#FFFFFF" points="22.8,21.8 19.9,24.3 16.8,22.4 17.4,18.7 21.2,18.5 			"/>
			<path fill="#231F20" d="M19.9,24.5c0,0-0.1,0-0.1,0l-3.1-1.8c-0.1,0-0.1-0.1-0.1-0.2l0.7-3.7c0-0.1,0.1-0.2,0.2-0.2l3.8-0.2
				c0.1,0,0.2,0,0.2,0.1l1.5,3.3c0,0.1,0,0.2-0.1,0.3l-2.9,2.4C20,24.5,20,24.5,19.9,24.5z M17,22.3l2.9,1.7l2.6-2.2l-1.4-3
				l-3.5,0.2L17,22.3z"/>
		</g>
		<g>
			<polygon fill="#FFFFFF" points="19.9,24.3 20.1,25.1 16.5,24.3 14.7,22.7 16.8,22.4 			"/>
			<path fill="#231F20" d="M20.1,25.3C20,25.3,20,25.3,20.1,25.3l-3.6-0.8c0,0-0.1,0-0.1,0l-1.9-1.6c-0.1-0.1-0.1-0.1-0.1-0.2
				c0-0.1,0.1-0.1,0.2-0.2l2.1-0.2c0,0,0.1,0,0.1,0l3.1,1.8c0.1,0,0.1,0.1,0.1,0.2l0.1,0.8c0,0,0,0,0,0.1
				C20.3,25.2,20.2,25.3,20.1,25.3C20.1,25.3,20.1,25.3,20.1,25.3z M16.7,24.1l3.1,0.7l-0.1-0.4l-3-1.7l-1.5,0.2L16.7,24.1z"/>
		</g>
		<g>
			<polygon fill="#FFFFFF" points="23.7,22 22.8,21.8 19.9,24.3 20.1,25.1 			"/>
			<path fill="#231F20" d="M20.1,25.3C20,25.3,20,25.3,20.1,25.3c-0.1,0-0.2-0.1-0.2-0.2l-0.1-0.8c0-0.1,0-0.2,0.1-0.2l2.9-2.4
				c0.1,0,0.1-0.1,0.2,0l0.9,0.2c0.1,0,0.1,0.1,0.2,0.2c0,0.1,0,0.2-0.1,0.2l-3.6,3.1C20.2,25.3,20.1,25.3,20.1,25.3z M20.2,24.4
				l0.1,0.3l3-2.6l-0.3-0.1L20.2,24.4z"/>
		</g>
	</g>
	<g>
		<g enable-background="new    ">
			<g>
				<g>
					<polyline fill="#231F20" points="36,28.2 33.4,26.7 29.7,27.3 28.7,29.4 31.4,30.9 35.1,30.4 36,28.2 					"/>
					<path fill="#231F20" d="M31.4,31.2c0,0-0.1,0-0.1,0l-2.7-1.6c-0.1-0.1-0.1-0.2-0.1-0.3l1-2.1c0-0.1,0.1-0.1,0.2-0.1l3.7-0.6
						c0,0,0.1,0,0.1,0l2.7,1.6c0.1,0.1,0.1,0.2,0.1,0.3l-1,2.1c0,0.1-0.1,0.1-0.2,0.1L31.4,31.2C31.4,31.1,31.4,31.2,31.4,31.2z
						 M29,29.3l2.5,1.4l3.5-0.5l0.8-1.8l-2.5-1.4l-3.5,0.5L29,29.3z"/>
				</g>
			</g>
		</g>
	</g>
	<g>
		<g enable-background="new    ">
			<g>
				<g>
					<polyline fill="#231F20" points="23.6,28 20.9,26.4 17.6,27.7 16.3,29.1 19,30.7 23,30.8 23.6,28 					"/>
					<path fill="#231F20" d="M23,31C23,31,23,31,23,31l-4-0.1c0,0-0.1,0-0.1,0l-2.7-1.6c-0.1,0-0.1-0.1-0.1-0.2c0-0.1,0-0.1,0.1-0.2
						l1.3-1.5c0,0,0.1,0,0.1-0.1l3.3-1.2c0.1,0,0.1,0,0.2,0l2.7,1.6c0.1,0,0.1,0.1,0.1,0.2l-0.6,2.8C23.2,30.9,23.1,31,23,31z
						 M19,30.5l3.8,0.1l0.6-2.4l-2.5-1.4l-3.2,1.2l-1.1,1.2L19,30.5z"/>
				</g>
			</g>
		</g>
	</g>
	<g>
		<g>
			<polygon fill="#FFFFFF" points="30.9,25.4 28.1,29 25.8,24.1 			"/>
			<path fill="#231F20" d="M28.1,29.3C28.1,29.3,28,29.3,28.1,29.3c-0.1,0-0.2-0.1-0.2-0.1l-2.3-5c0-0.1,0-0.2,0-0.2
				c0.1-0.1,0.1-0.1,0.2-0.1l5.1,1.4c0.1,0,0.1,0.1,0.2,0.1c0,0.1,0,0.1,0,0.2l-2.9,3.6C28.2,29.2,28.1,29.3,28.1,29.3z M26.2,24.4
				l1.9,4.2l2.4-3.1L26.2,24.4z"/>
		</g>
		<g>
			<polygon fill="#FFFFFF" points="30.9,25.4 30,20.7 25.8,24.1 			"/>
			<path fill="#231F20" d="M30.9,25.7C30.9,25.7,30.9,25.7,30.9,25.7l-5.2-1.4c-0.1,0-0.1-0.1-0.2-0.2c0-0.1,0-0.2,0.1-0.2l4.2-3.4
				c0.1,0,0.1-0.1,0.2,0c0.1,0,0.1,0.1,0.1,0.2l0.9,4.8c0,0.1,0,0.1-0.1,0.2C31,25.6,31,25.7,30.9,25.7z M26.3,24l4.4,1.2l-0.8-4.1
				L26.3,24z"/>
		</g>
		<g>
			<polygon fill="#FFFFFF" points="34.6,23.2 30.9,25.4 30,20.7 			"/>
			<path fill="#231F20" d="M30.9,25.7C30.9,25.7,30.9,25.6,30.9,25.7c-0.2,0-0.2-0.1-0.2-0.2l-0.9-4.8c0-0.1,0-0.2,0.1-0.2
				c0.1,0,0.2-0.1,0.2,0l4.6,2.5c0.1,0,0.1,0.1,0.1,0.2c0,0.1,0,0.2-0.1,0.2L31,25.6C31,25.6,31,25.7,30.9,25.7z M30.3,21.1l0.7,4
				l3.1-1.9L30.3,21.1z"/>
		</g>
		<g>
			<path fill="#FFFFFF" d="M34.6,23.2c0,0-1.2,5.2-1.2,5.1c0-0.1-2.5-2.8-2.5-2.8L34.6,23.2z"/>
			<path fill="#231F20" d="M33.4,28.5c-0.1,0-0.2-0.1-0.2-0.1c-0.1-0.2-1.6-1.8-2.5-2.8c0,0-0.1-0.1-0.1-0.2c0-0.1,0-0.1,0.1-0.2
				l3.7-2.3c0.1,0,0.2,0,0.2,0c0.1,0.1,0.1,0.1,0.1,0.2c0,0-0.3,1.3-0.6,2.5C33.6,28.5,33.6,28.5,33.4,28.5z M31.3,25.5
				c1.2,1.3,1.8,2,2.1,2.3c0.2-0.8,0.6-2.7,1-4.2L31.3,25.5z"/>
		</g>
		<g>
			<polygon fill="#FFFFFF" points="33.4,28.3 28.1,29 30.9,25.4 			"/>
			<path fill="#231F20" d="M28.1,29.3c-0.1,0-0.1,0-0.2-0.1c0-0.1,0-0.2,0-0.2l2.9-3.6c0-0.1,0.1-0.1,0.2-0.1c0.1,0,0.1,0,0.2,0.1
				l2.5,2.8c0.1,0.1,0.1,0.1,0,0.2c0,0.1-0.1,0.1-0.2,0.1L28.1,29.3C28.1,29.3,28.1,29.3,28.1,29.3z M30.9,25.8l-2.4,3l4.4-0.7
				L30.9,25.8z"/>
		</g>
		<g>
			<polygon fill="#FFFFFF" points="30,20.7 26.9,21.2 25.8,24.1 			"/>
			<path fill="#231F20" d="M25.8,24.3c0,0-0.1,0-0.1,0c-0.1-0.1-0.1-0.2-0.1-0.3l1.1-2.9c0-0.1,0.1-0.1,0.2-0.1l3.1-0.5
				c0.1,0,0.2,0,0.2,0.1c0,0.1,0,0.2-0.1,0.3l-4.2,3.4C25.9,24.3,25.9,24.3,25.8,24.3z M27.1,21.4l-0.8,2l3-2.4L27.1,21.4z"/>
		</g>
		<g>
			<polygon fill="#FFFFFF" points="28.1,29 25.8,26.5 25.8,24.1 			"/>
			<path fill="#231F20" d="M28.1,29.3c-0.1,0-0.1,0-0.2-0.1l-2.3-2.6c0,0-0.1-0.1-0.1-0.1v-2.4c0-0.1,0.1-0.2,0.2-0.2
				c0.1,0,0.2,0,0.2,0.1l2.2,4.9c0,0,0,0.1,0,0.1C28.3,29.2,28.2,29.3,28.1,29.3C28.1,29.3,28.1,29.3,28.1,29.3z M26,26.4l1.2,1.4
				L26,25.1V26.4z"/>
		</g>
		<g>
			<polygon fill="#FFFFFF" points="34.6,23.2 30,20.7 32,20.7 			"/>
			<path fill="#231F20" d="M34.6,23.4c0,0-0.1,0-0.1,0l-4.6-2.5c-0.1,0-0.1-0.1-0.1-0.2c0-0.1,0.1-0.2,0.2-0.2H32
				c0.1,0,0.1,0,0.2,0.1l2.7,2.5c0.1,0,0.1,0.1,0.1,0.2C34.9,23.3,34.8,23.4,34.6,23.4C34.6,23.4,34.6,23.4,34.6,23.4z M30.9,20.9
				l2.4,1.3l-1.4-1.3H30.9z"/>
		</g>
	</g>
	<g>
		<g enable-background="new    ">
			<defs>
				<polygon id="SVGID_10_" enable-background="new    " points="16.4,39.1 20.8,36.6 25.2,39.1 20.8,41.7 				"/>
			</defs>
			<defs>
				<path id="SVGID_11_" enable-background="new    " d="M20.8,41.9c0,0-0.1,0-0.1,0l-4.4-2.5c-0.1,0-0.1-0.1-0.1-0.2
					c0-0.1,0-0.2,0.1-0.2l4.4-2.5c0.1,0,0.2,0,0.2,0l4.4,2.5c0.1,0,0.1,0.1,0.1,0.2c0,0.1,0,0.2-0.1,0.2l-4.4,2.5
					C20.9,41.9,20.8,41.9,20.8,41.9z M16.8,39.1l4,2.3l3.9-2.3l-4-2.3L16.8,39.1z"/>
			</defs>
			<use xlink:href="#SVGID_10_"  overflow="visible" fill="#231F20"/>
			<use xlink:href="#SVGID_11_"  overflow="visible" fill="#231F20"/>
			<clipPath id="SVGID_4_">
				<use xlink:href="#SVGID_10_"  overflow="visible"/>
			</clipPath>
			<clipPath id="SVGID_5_" clip-path="url(#SVGID_4_)">
				<use xlink:href="#SVGID_11_"  overflow="visible"/>
			</clipPath>
			<g clip-path="url(#SVGID_5_)">
				<g>
					<polyline fill="#231F20" points="23.2,39.2 20.8,37.7 18.3,39.2 20.8,40.6 23.2,39.2 					"/>
					<path fill="#231F20" d="M20.8,40.8c0,0-0.1,0-0.1,0l-2.4-1.4c-0.1,0-0.1-0.1-0.1-0.2c0-0.1,0-0.2,0.1-0.2l2.4-1.4
						c0.1,0,0.2,0,0.2,0l2.4,1.4c0.1,0,0.1,0.1,0.1,0.2c0,0.1,0,0.2-0.1,0.2l-2.4,1.4C20.9,40.8,20.8,40.8,20.8,40.8z M18.8,39.2
						l2,1.2l2-1.1l-2-1.2L18.8,39.2z"/>
				</g>
				<g>
					<path fill="#231F20" d="M18.3,39.2l2.4-1.4l2.4,1.4l-2.4,1.4L18.3,39.2 M24.7,38.9l-3.4-2c-0.1-0.1-0.3-0.1-0.5-0.1
						c-0.2,0-0.4,0-0.5,0.1l-3.4,2c-0.1,0.1-0.2,0.2-0.2,0.3c0,0.1,0.1,0.2,0.2,0.3l3.4,2c0.1,0.1,0.3,0.1,0.5,0.1
						c0.2,0,0.4,0,0.5-0.1l-0.5-0.3l0.5-0.3l-0.5,0.3l0.5,0.3l3.4-2c0.1-0.1,0.2-0.2,0.2-0.3C24.9,39,24.8,38.9,24.7,38.9"/>
					<path fill="#231F20" d="M20.8,41.7L20.8,41.7L20.8,41.7c-0.2,0-0.5-0.1-0.6-0.1l-3.4-2c-0.2-0.1-0.3-0.3-0.3-0.5
						c0-0.2,0.1-0.4,0.3-0.5l3.4-2c0.2-0.1,0.4-0.1,0.6-0.1c0,0,0,0,0,0c0.2,0,0.4,0.1,0.6,0.1l3.4,2c0.2,0.1,0.3,0.3,0.3,0.5
						c0,0,0,0,0,0c0,0.2-0.1,0.4-0.3,0.5l-3.4,2c0,0,0,0,0,0C21.2,41.7,21,41.7,20.8,41.7z M20.8,37c-0.1,0-0.3,0-0.4,0.1l-3.4,2
						c-0.1,0-0.1,0.1-0.1,0.1c0,0,0,0.1,0.1,0.1l3.4,2c0.1,0,0.2,0.1,0.2,0.1c-0.1,0-0.1-0.1-0.1-0.2v0c0-0.1,0-0.1,0.1-0.2l0.5-0.3
						c0.1-0.1,0.2,0,0.3,0.1c0,0,0,0.1,0,0.1c0,0.1,0,0.1-0.1,0.2l-0.2,0.1l0.1,0l3.3-1.9c0.1,0,0.1-0.1,0.1-0.1c0,0,0-0.1-0.1-0.1
						l-3.4-2C21,37,20.9,37,20.8,37z M20.8,40.8c0,0-0.1,0-0.1,0l-2.4-1.4c-0.1,0-0.1-0.1-0.1-0.2c0-0.1,0-0.2,0.1-0.2l2.4-1.4
						c0.1,0,0.2,0,0.2,0l2.4,1.4c0.1,0,0.1,0.1,0.1,0.2c0,0.1,0,0.2-0.1,0.2l-2.4,1.4C20.9,40.8,20.8,40.8,20.8,40.8z M18.8,39.2
						l2,1.2l2-1.1l-2-1.2L18.8,39.2z"/>
				</g>
			</g>
		</g>
	</g>
	<g>
		<g>
			<path fill="#FFFFFF" d="M25.2,33.3c0,0-1.6,5.1-1.6,4.9c0-0.1-3-8.1-3-8.1L25.2,33.3z"/>
			<path fill="#231F20" d="M23.5,38.4c-0.1,0-0.2-0.1-0.2-0.2c0-0.1-2-5.3-3-8.1c0-0.1,0-0.2,0.1-0.2c0.1-0.1,0.2-0.1,0.3,0l4.6,3.1
				c0.1,0.1,0.1,0.2,0.1,0.2c0,0-0.4,1.2-0.8,2.5C23.7,38.4,23.7,38.4,23.5,38.4z M21,30.7c0.6,1.6,2,5.5,2.5,6.9
				c0.3-0.9,0.9-2.9,1.4-4.2L21,30.7z"/>
		</g>
		<g>
			<polygon fill="#FFFFFF" points="23.5,38.2 15.3,36.7 20.6,30.1 			"/>
			<path fill="#231F20" d="M23.5,38.4C23.5,38.4,23.5,38.4,23.5,38.4l-8.2-1.5c-0.1,0-0.1-0.1-0.2-0.1c0-0.1,0-0.2,0-0.2l5.2-6.6
				c0-0.1,0.1-0.1,0.2-0.1c0.1,0,0.1,0.1,0.2,0.1l2.9,8c0,0,0,0.1,0,0.1C23.7,38.3,23.6,38.4,23.5,38.4L23.5,38.4z M15.7,36.6
				l7.4,1.4l-2.7-7.3L15.7,36.6z"/>
		</g>
		<g>
			<polygon fill="#FFFFFF" points="20.6,30.1 17.8,32.2 15.3,36.7 			"/>
			<path fill="#231F20" d="M15.3,36.9c0,0-0.1,0-0.1,0c-0.1-0.1-0.1-0.2-0.1-0.3l2.4-4.6c0,0,0-0.1,0.1-0.1l2.8-2
				c0.1-0.1,0.2-0.1,0.3,0c0.1,0.1,0.1,0.2,0,0.3l-5.2,6.6C15.5,36.9,15.4,36.9,15.3,36.9z M18,32.3l-1.3,2.4l2.7-3.4L18,32.3z"/>
		</g>
		<g>
			<path fill="#FFFFFF" d="M23.5,38.2l-2.9,0.9l-5.3-2.4C15.3,36.7,23.7,38.4,23.5,38.2z"/>
			<path fill="#231F20" d="M20.6,39.4C20.6,39.4,20.5,39.4,20.6,39.4l-5.3-2.5c-0.1,0-0.2-0.2-0.1-0.3c0-0.1,0.1-0.2,0.3-0.1
				c3,0.6,7.5,1.5,8.1,1.5c0.1,0,0.2,0,0.2,0.1c0.1,0.1,0.1,0.2,0,0.2c0,0-0.1,0.1-0.2,0.1L20.6,39.4C20.6,39.4,20.6,39.4,20.6,39.4
				z M17.1,37.3l3.5,1.6l1.9-0.6C21.2,38.1,18.8,37.6,17.1,37.3z"/>
		</g>
	</g>
</g>
</svg>
