<?xml version="1.0" encoding="utf-8"?>
<!-- Generator: Adobe Illustrator 18.1.1, SVG Export Plug-In . SVG Version: 6.00 Build 0)  -->
<!DOCTYPE svg PUBLIC "-//W3C//DTD SVG 1.1//EN" "http://www.w3.org/Graphics/SVG/1.1/DTD/svg11.dtd">
<svg version="1.1" id="Layer_1" xmlns="http://www.w3.org/2000/svg" xmlns:xlink="http://www.w3.org/1999/xlink" x="0px" y="0px"
	 viewBox="0 0 55 65" enable-background="new 0 0 55 65" xml:space="preserve">
<g>
	<g>
		<ellipse fill="#FFFFFF" cx="30.4" cy="52.7" rx="8.7" ry="2.7"/>
	</g>
	<g>
		<g>
			<path fill="#FFFFFF" d="M21.7,52.5c-0.2-2.4,0.8-5.1,1-6.8c0.2-1.7-0.1-3.6-0.1-3.6c-1.4-6-1.6-13.3-2.1-13.5
				c-0.6-0.1-0.8,9.7-0.9,12.8c-0.1,3-1.4,15.5-1.4,15.5c1.9,1.7,1.2,6.2,1.2,6.2l-0.6,0.1l-0.1,1.4c-1.2,0-3-1.1-3.5-3.2
				c-0.5-2.3-0.1-3.2,0.6-5.1c0.3-0.9-1-7.4-1.3-10.6c-0.3-3.1,0.6-7.5,0.6-7.5c0.2-4.2-0.8-10.9,0.3-14.6c0.9-2.9,7.1-3.9,7.1-3.9
				c1.4-0.8,4.3-2.1,4.3-2.1v-2.9c0,0-1.6-4.2-1.6-9.2S30,0.3,30,0.3h0.4h0.6h0.3c0,0,4.8,0.2,4.8,5.2c0,7.9-1.6,9-1.6,9v3.1
				c0,0,2.9,1.3,4.3,2.1c0,0,6.3,1,7.1,3.9c1.1,3.8,0,10.5,0.3,14.6c0,0,0.9,4.4,0.6,7.5c-0.3,3.1-1.7,9.7-1.3,10.6
				c0.7,1.9,1.2,2.8,0.6,5.1c-0.5,2.1-2.4,3.2-3.5,3.2l-0.1-1.4l-0.6-0.1c0,0-0.7-4.5,1.2-6.2c0,0-1.3-12.5-1.4-15.5
				c-0.1-3-0.3-12.9-0.9-12.8c-0.6,0.1-0.8,7.4-2.1,13.5c0,0-0.3,1.9-0.1,3.6c0.2,1.7,1.3,4.4,1,6.8"/>
			<path fill="#231F20" d="M42.4,64.9c-0.1,0-0.2-0.1-0.3-0.2L42,63.4l-0.4-0.1c-0.1,0-0.2-0.1-0.2-0.2c0-0.2-0.7-4.5,1.1-6.3
				c-0.1-1.3-1.3-12.6-1.4-15.4c0-0.4,0-1-0.1-1.6c-0.1-2.8-0.3-8.9-0.6-10.5c-0.2,0.7-0.3,2.1-0.5,3.6c-0.3,2.6-0.7,6.2-1.4,9.4
				c0,0.1-0.3,1.9-0.1,3.5c0.1,0.6,0.2,1.2,0.4,1.9c0.4,1.5,0.8,3.3,0.6,4.9c0,0.1-0.1,0.2-0.3,0.2c-0.1,0-0.2-0.1-0.2-0.3
				c0.2-1.6-0.3-3.3-0.6-4.8c-0.2-0.7-0.3-1.4-0.4-2c-0.2-1.8,0-3.6,0.1-3.7c0,0,0,0,0,0c0.7-3.2,1.1-6.7,1.4-9.3
				c0.4-3.5,0.5-4.2,0.9-4.3c0.1,0,0.2,0,0.3,0.1c0.2,0.1,0.4,0.3,0.6,4.4c0.1,2.3,0.2,4.9,0.3,6.9c0,0.7,0,1.2,0.1,1.6
				c0.1,3,1.4,15.4,1.4,15.5c0,0.1,0,0.2-0.1,0.2c-1.5,1.4-1.2,5-1.1,5.8l0.4,0.1c0.1,0,0.2,0.1,0.2,0.2l0.1,1.1
				c1.6-0.2,2.8-1.8,3.1-3c0.5-2.1,0.2-3-0.5-4.7L45,56.3c-0.2-0.6,0.1-2.8,0.7-6.4c0.3-1.6,0.5-3.1,0.6-4.2
				c0.3-3.1-0.6-7.4-0.6-7.5c0,0,0,0,0,0c-0.1-1.5,0-3.4,0.1-5.3c0.2-3.4,0.3-6.9-0.4-9.2c-0.8-2.7-6.9-3.7-6.9-3.7c0,0-0.1,0-0.1,0
				c-1.4-0.8-4.2-2.1-4.3-2.1c-0.1,0-0.1-0.1-0.1-0.2v-3.1c0-0.1,0-0.2,0.1-0.2c0,0,1.5-1.2,1.5-8.8c0-4.6-4.3-5-4.5-5H30
				c-0.3,0-4.5,0.3-4.5,5c0,4.9,1.6,9,1.6,9.1c0,0,0,0.1,0,0.1v2.9c0,0.1-0.1,0.2-0.1,0.2c0,0-2.9,1.3-4.3,2.1c0,0-0.1,0-0.1,0
				c-0.1,0-6.1,1-6.9,3.7c-0.7,2.4-0.5,5.9-0.4,9.2c0.1,2,0.2,3.8,0.1,5.3c0,0,0,0,0,0c0,0-0.9,4.4-0.6,7.5c0.1,1.1,0.4,2.6,0.6,4.2
				c0.6,3.6,0.9,5.8,0.7,6.4L16,56.7c-0.7,1.7-1,2.6-0.5,4.7c0.3,1.2,1.5,2.8,3.1,3l0.1-1.1c0-0.1,0.1-0.2,0.2-0.2l0.4-0.1
				c0.1-0.8,0.4-4.4-1.1-5.8C18,57,18,57,18,56.9c0-0.1,1.3-12.5,1.4-15.5c0-0.4,0-1,0.1-1.6c0.1-1.9,0.2-4.6,0.3-6.9
				c0.2-4.1,0.5-4.3,0.6-4.4c0.1-0.1,0.2-0.1,0.3-0.1c0.4,0.1,0.5,0.8,0.9,4.3c0.3,2.6,0.7,6.2,1.4,9.3c0,0,0,0,0,0
				c0,0.1,0.3,1.9,0.1,3.7c-0.1,0.6-0.2,1.3-0.4,2c-0.4,1.5-0.8,3.2-0.6,4.8c0,0.1-0.1,0.3-0.2,0.3c-0.1,0-0.3-0.1-0.3-0.2
				c-0.2-1.7,0.3-3.4,0.6-4.9c0.2-0.7,0.3-1.4,0.4-1.9c0.2-1.6,0-3.4-0.1-3.5c-0.7-3.2-1.1-6.7-1.4-9.4c-0.2-1.4-0.3-2.9-0.5-3.6
				c-0.3,1.7-0.5,7.8-0.6,10.5c0,0.7,0,1.2-0.1,1.6c-0.1,2.8-1.2,14.1-1.4,15.4c1.8,1.8,1.2,6.1,1.1,6.3c0,0.1-0.1,0.2-0.2,0.2
				l-0.4,0.1L19,64.6c0,0.1-0.1,0.2-0.3,0.2c-1.2,0-3.2-1.1-3.8-3.4c-0.5-2.3-0.2-3.2,0.5-5l0.1-0.3c0.2-0.5-0.3-3.6-0.7-6.2
				c-0.3-1.6-0.5-3.1-0.6-4.3c-0.3-3.1,0.5-7.2,0.6-7.6c0.1-1.5,0-3.3-0.1-5.3c-0.2-3.4-0.3-7,0.4-9.4c0.9-2.9,6.7-4,7.3-4.1
				c1.2-0.7,3.5-1.7,4.1-2v-2.7c-0.2-0.5-1.6-4.5-1.6-9.2c0-5.2,4.9-5.5,5-5.5c0,0,0,0,0,0h1.2c0,0,0,0,0,0c0,0,5,0.3,5,5.5
				c0,6.9-1.2,8.7-1.6,9.1v2.8c0.6,0.3,2.9,1.3,4.1,2c0.6,0.1,6.4,1.2,7.3,4.1c0.7,2.4,0.6,6,0.4,9.4c-0.1,1.9-0.2,3.8-0.1,5.3
				c0.1,0.4,0.9,4.5,0.6,7.6c-0.1,1.1-0.4,2.6-0.6,4.3c-0.4,2.5-0.9,5.7-0.7,6.2l0.1,0.3c0.7,1.7,1,2.7,0.5,5
				C45.6,63.8,43.6,64.9,42.4,64.9z"/>
		</g>
		<g>
			<path fill="#231F20" d="M34.3,19.3c-0.1,0-0.3-0.1-0.3-0.3v-1.5c0-0.1,0.1-0.3,0.3-0.3s0.3,0.1,0.3,0.3V19
				C34.5,19.2,34.4,19.3,34.3,19.3z"/>
		</g>
		<g>
			<path fill="#231F20" d="M31,16c-0.1,0-0.3-0.1-0.3-0.3c0-0.1,0.1-0.3,0.3-0.3c2.2,0,3.2-1.3,3.2-1.3c0.1-0.1,0.2-0.1,0.4-0.1
				c0.1,0.1,0.1,0.2,0.1,0.4C34.6,14.5,33.5,16,31,16z"/>
		</g>
		<g>
			<path fill="#231F20" d="M42.6,63.5c-0.1,0-0.2,0-0.2-0.1c-0.1-0.1-0.1-0.3,0-0.4c0,0,0.4-0.3,0.5-0.9c0-0.2,0.1-0.4,0.1-0.7
				c0.1-1.2,0.3-2.2,0.5-2.5c0.1-0.1,0.2-0.1,0.4-0.1c0.1,0.1,0.1,0.2,0.1,0.4c-0.2,0.3-0.3,1.6-0.4,2.2c0,0.3-0.1,0.6-0.1,0.7
				c-0.1,0.8-0.6,1.2-0.7,1.2C42.8,63.4,42.7,63.5,42.6,63.5z"/>
		</g>
		<g>
			<path fill="#231F20" d="M26.8,19.3c-0.1,0-0.3-0.1-0.3-0.3v-1.5c0-0.1,0.1-0.3,0.3-0.3c0.1,0,0.3,0.1,0.3,0.3V19
				C27.1,19.2,27,19.3,26.8,19.3z"/>
		</g>
		<g>
			<path fill="#231F20" d="M18.5,63.5c-0.1,0-0.1,0-0.2-0.1c0,0-0.5-0.4-0.7-1.2c0-0.2-0.1-0.4-0.1-0.7c-0.1-0.7-0.2-2-0.4-2.2
				c-0.1-0.1-0.1-0.3,0.1-0.4c0.1-0.1,0.3-0.1,0.4,0.1c0.2,0.3,0.4,1.3,0.5,2.5c0,0.3,0.1,0.5,0.1,0.7c0.1,0.6,0.5,0.9,0.5,0.9
				c0.1,0.1,0.1,0.2,0,0.4C18.6,63.4,18.6,63.5,18.5,63.5z"/>
		</g>
		<g>
			<path fill="#231F20" d="M22.4,40.9c0.5,0.1,1.7-0.8,1.9-0.1c0.1,0.4,0.1,0.9,0.1,1.2c0,0.2,0,1.3,1.3,1.1
				c1.3-0.2,0.8-1.5,0.8-1.5s-0.3-0.4-0.5-0.8c-0.2-0.4,0.6-0.4,0.6-0.4l2.6,0c0,0,0-1.5,0-2.2c0-0.8-0.8-0.5-1.2-0.3
				c-0.4,0.2-0.8,0.4-1.2,0.2c-0.4-0.2-0.8-0.6-0.5-1.3c0.4-0.7,1.1-0.4,2-0.3c1,0,0.5-0.7,0.5-0.7l-1-1.9c0,0-0.5,0.2-1.3,0.4
				c-1,0.3-1.5,0.2-1.6,0c-0.2-0.2-0.2-0.5,0-1.1c0.2-0.6-0.1-0.8-0.3-1c-0.2-0.2-0.9-0.3-1.5,0.2c-0.6,0.5-0.1,1.4,0.2,2
				c0.2,0.5-1.7,0.3-1.7,0.3"/>
			<path fill="#231F20" d="M25.4,43.4c-0.4,0-0.7-0.1-0.9-0.3c-0.3-0.3-0.4-0.8-0.3-1.1c0-0.2,0-0.8,0-1.1c0-0.1-0.1-0.1-0.1-0.1
				c-0.1-0.1-0.5,0.1-0.8,0.2c-0.3,0.1-0.6,0.2-0.9,0.2c-0.1,0-0.2-0.2-0.2-0.3c0-0.1,0.2-0.2,0.3-0.2c0.1,0,0.4-0.1,0.6-0.2
				c0.4-0.1,0.8-0.3,1.2-0.1c0.1,0.1,0.2,0.2,0.3,0.4c0.1,0.4,0.1,1,0.1,1.3c0,0.1,0,0.4,0.2,0.6c0.2,0.2,0.4,0.2,0.8,0.2
				c0.3,0,0.5-0.1,0.6-0.3c0.2-0.3,0.1-0.7,0-0.8c-0.1-0.1-0.4-0.4-0.5-0.8c-0.1-0.2,0-0.3,0-0.5c0.2-0.3,0.7-0.3,0.8-0.3
				c0,0,0,0,0,0l2.3,0c0-0.5,0-1.4,0-2c0-0.1,0-0.2-0.1-0.2c-0.1-0.1-0.3-0.1-0.8,0.1c-0.5,0.2-1,0.4-1.4,0.1
				c-1-0.6-0.8-1.3-0.6-1.7c0.3-0.7,0.9-0.6,1.6-0.5c0.2,0,0.4,0,0.7,0c0.2,0,0.3,0,0.3-0.1c0,0,0-0.2-0.1-0.3c0,0,0,0,0,0L27.6,34
				c-0.2,0.1-0.6,0.2-1.1,0.3c-0.9,0.3-1.6,0.3-1.9,0c-0.3-0.3-0.3-0.8-0.1-1.4c0.1-0.4,0-0.5-0.2-0.7c0,0,0,0-0.1-0.1
				c-0.1-0.1-0.7-0.2-1.2,0.2c-0.4,0.3-0.1,0.9,0.2,1.5c0,0.1,0,0.1,0.1,0.1c0.1,0.1,0.1,0.3,0,0.4c-0.3,0.3-1.2,0.3-1.9,0.2
				c-0.1,0-0.2-0.1-0.2-0.3c0-0.1,0.1-0.2,0.3-0.2c0.6,0.1,1.2,0.1,1.4,0c0,0,0,0,0-0.1c-0.3-0.6-0.7-1.5-0.1-2.1
				c0.7-0.6,1.5-0.5,1.9-0.2c0,0,0,0,0.1,0.1c0.2,0.2,0.5,0.5,0.3,1.2c-0.2,0.5-0.1,0.8,0,0.9c0,0,0.3,0.2,1.4-0.1
				c0.7-0.2,1.2-0.4,1.2-0.4c0.1,0,0.2,0,0.3,0.1l1,1.9c0.1,0.1,0.3,0.5,0.1,0.8c-0.1,0.2-0.4,0.3-0.8,0.3c-0.3,0-0.5,0-0.7-0.1
				c-0.7-0.1-0.9-0.1-1.1,0.3c-0.1,0.3-0.2,0.6,0.4,1c0.2,0.1,0.5,0,1-0.2c0.4-0.2,0.9-0.3,1.2-0.1c0.1,0.1,0.3,0.3,0.3,0.7
				c0,0.8,0,2.2,0,2.2c0,0.1-0.1,0.2-0.3,0.2l-2.6,0c-0.1,0-0.3,0-0.4,0.1c0,0,0,0,0,0c0.1,0.4,0.4,0.7,0.4,0.7c0,0,0,0,0,0.1
				c0,0,0.3,0.8,0,1.3c-0.2,0.3-0.5,0.5-0.9,0.5C25.6,43.4,25.5,43.4,25.4,43.4z"/>
		</g>
		<g>
			<path fill="#FFFFFF" d="M17.3,32.5c0-0.8-0.8-0.5-1.2-0.3c-0.4,0.2-0.8,0.4-1.2,0.2c-0.4-0.2-0.8-0.6-0.5-1.3
				c0.4-0.7,1.1-0.4,2-0.3c1,0,0.5-0.7,0.5-0.7l-1-1.9c0,0-0.5,0.2-1.3,0.4c-1,0.3-1.5,0.2-1.6,0c-0.2-0.2-0.2-0.5,0-1.1
				c0.2-0.6-0.1-0.8-0.3-1c-0.2-0.2-0.9-0.3-1.5,0.2c-0.6,0.5-0.1,1.4,0.2,2c0.2,0.5-0.7,0.4-0.7,0.4l-2.4,0L9.4,36
				c0,0,2.8-1.1,3.1-0.8c0.3,0.3,0.1,0.9,0.1,1.2c0,0.2,0,1.3,1.3,1.1c1.3-0.2,0.8-1.5,0.8-1.5s-0.3-0.4-0.5-0.8
				c-0.2-0.4,0.6-0.4,0.6-0.4l2.6,0C17.3,34.8,17.4,33.3,17.3,32.5z"/>
			<path fill="#231F20" d="M13.6,37.7c-0.4,0-0.8-0.1-1-0.4c-0.3-0.3-0.3-0.8-0.3-1c0,0,0-0.1,0-0.2c0-0.2,0.1-0.6,0-0.8
				c0,0,0,0,0,0c-0.5,0-2.2,0.6-2.8,0.8c-0.1,0-0.2,0-0.2,0c-0.1,0-0.1-0.1-0.1-0.2L8.1,29c0-0.1,0-0.1,0.1-0.2
				c0-0.1,0.1-0.1,0.2-0.1l2.4,0h0c0,0,0,0,0,0c0,0,0.1,0,0.2,0c0.1,0,0.2,0,0.2,0c0,0,0,0,0,0c0,0,0-0.1-0.1-0.1
				c-0.3-0.6-0.7-1.5-0.1-2.1c0.3-0.3,0.7-0.4,1.1-0.4c0.3,0,0.6,0.1,0.7,0.3c0,0,0,0,0.1,0.1c0.2,0.2,0.5,0.5,0.3,1.2
				c-0.2,0.5-0.1,0.8,0,0.9c0,0,0.1,0.1,0.4,0.1c0.3,0,0.6-0.1,1-0.2c0.7-0.2,1.2-0.4,1.2-0.4c0.1,0,0.2,0,0.3,0.1l1,1.9
				c0.1,0.1,0.3,0.5,0.1,0.8c-0.1,0.2-0.4,0.3-0.8,0.3l0,0c-0.3,0-0.5,0-0.7-0.1c-0.2,0-0.4,0-0.5,0c-0.3,0-0.5,0.1-0.6,0.3
				c-0.1,0.3-0.2,0.6,0.4,1c0.1,0,0.2,0.1,0.2,0.1c0.2,0,0.5-0.1,0.7-0.2c0.2-0.1,0.5-0.2,0.8-0.2c0.4,0,0.7,0.3,0.7,0.8
				c0,0.8,0,2.2,0,2.2c0,0.1-0.1,0.2-0.3,0.2l-2.6,0c-0.1,0-0.3,0-0.4,0.1c0,0,0,0,0,0c0.1,0.4,0.4,0.7,0.4,0.7c0,0,0,0,0,0.1
				c0,0,0.3,0.8,0,1.3c-0.2,0.3-0.5,0.5-0.9,0.5C13.8,37.7,13.7,37.7,13.6,37.7z M12.3,34.9c0.1,0,0.2,0,0.3,0.1
				c0.4,0.3,0.2,0.9,0.2,1.3c0,0.1,0,0.1,0,0.1c0,0.1,0,0.4,0.2,0.6c0.2,0.2,0.4,0.3,0.8,0.2c0.3,0,0.5-0.1,0.6-0.3
				c0.2-0.3,0.1-0.7,0-0.8c-0.1-0.1-0.4-0.4-0.5-0.8c-0.1-0.2,0-0.3,0-0.5c0.2-0.3,0.7-0.3,0.8-0.3l2.3,0c0-0.5,0-1.4,0-2
				c0-0.3-0.1-0.3-0.2-0.3c-0.2,0-0.4,0.1-0.6,0.2c-0.3,0.1-0.6,0.3-0.9,0.3c-0.2,0-0.4,0-0.5-0.1c-1-0.6-0.8-1.3-0.6-1.7
				c0.3-0.5,0.7-0.6,1-0.6c0.2,0,0.4,0,0.5,0c0.2,0,0.4,0,0.7,0l0,0c0.2,0,0.3,0,0.3-0.1c0,0,0-0.2-0.1-0.3c0,0,0,0,0,0l-0.9-1.7
				c-0.2,0.1-0.6,0.2-1.1,0.3c-0.4,0.1-0.8,0.2-1.2,0.2c-0.3,0-0.6-0.1-0.7-0.2c-0.3-0.3-0.3-0.8-0.1-1.4c0.1-0.4,0-0.5-0.2-0.7
				c0,0,0,0-0.1-0.1c0-0.1-0.2-0.1-0.4-0.1c-0.2,0-0.5,0-0.8,0.3c-0.4,0.3-0.1,0.9,0.2,1.5c0,0.1,0,0.1,0.1,0.1
				c0.1,0.2,0.1,0.4,0,0.5c-0.1,0.2-0.3,0.3-0.7,0.3c-0.1,0-0.2,0-0.2,0l-2.1,0l1,6.5C10.3,35.4,11.7,34.9,12.3,34.9z"/>
		</g>
	</g>
</g>
</svg>
