<?xml version="1.0" encoding="utf-8"?>
<!-- Generator: Adobe Illustrator 18.1.1, SVG Export Plug-In . SVG Version: 6.00 Build 0)  -->
<!DOCTYPE svg PUBLIC "-//W3C//DTD SVG 1.1//EN" "http://www.w3.org/Graphics/SVG/1.1/DTD/svg11.dtd">
<svg version="1.1" id="Layer_1" xmlns="http://www.w3.org/2000/svg" xmlns:xlink="http://www.w3.org/1999/xlink" x="0px" y="0px"
	 viewBox="0 0 55 65" enable-background="new 0 0 55 65" xml:space="preserve">
<g>
	<g>
		<ellipse fill="#FFFFFF" cx="27.4" cy="52.9" rx="8.7" ry="2.7"/>
	</g>
	<g>
		<g>
			<path fill="#FFFFFF" d="M18.7,52.6c-0.2-2.4,0.8-5.1,1-6.8c0.2-1.7-0.1-3.6-0.1-3.6c-1.4-6-1.6-13.3-2.1-13.5
				c-0.6-0.1-0.8,9.7-0.9,12.8c-0.1,3-1.4,15.5-1.4,15.5c1.9,1.7,1.2,6.2,1.2,6.2l-0.6,0.1l-0.1,1.4c-1.2,0-3-1.1-3.5-3.2
				c-0.5-2.3-0.1-3.2,0.6-5.1c0.3-0.9-1-7.4-1.3-10.6c-0.3-3.1,0.6-7.5,0.6-7.5c0.2-4.2-0.8-10.9,0.3-14.7c0.9-2.9,7.1-3.9,7.1-3.9
				c1.4-0.8,4.3-2.1,4.3-2.1v-2.9c0,0-1.6-4.2-1.6-9.2s4.8-5.2,4.8-5.2h0.3h0.5h0.4c0,0,4.7,0.2,4.7,5.2c0,7.9-1.6,9-1.6,9v3.1
				c0,0,2.9,1.3,4.3,2.1c0,0,6.3,1,7.1,3.9c1.1,3.8,0,10.5,0.3,14.7c0,0,0.9,4.4,0.6,7.5c-0.3,3.1-1.7,9.7-1.3,10.6
				c0.7,1.9,1.2,2.8,0.6,5.1c-0.5,2.1-2.4,3.2-3.5,3.2l-0.1-1.4l-0.6-0.1c0,0-0.7-4.5,1.2-6.2c0,0-1.3-12.5-1.4-15.5
				c-0.1-3-0.3-12.9-0.9-12.8c-0.6,0.1-0.8,7.4-2.1,13.5c0,0-0.3,1.9-0.1,3.6c0.2,1.7,1.3,4.4,1,6.8"/>
			<path fill="#231F20" d="M39.3,64.9c-0.1,0-0.2-0.1-0.3-0.2L39,63.5l-0.4-0.1c-0.1,0-0.2-0.1-0.2-0.2c0-0.2-0.7-4.5,1.1-6.3
				c-0.1-1.3-1.3-12.6-1.4-15.4c0-0.4,0-1-0.1-1.6C38,37,37.8,31,37.5,29.3c-0.2,0.7-0.3,2.1-0.5,3.6c-0.3,2.6-0.7,6.2-1.4,9.4
				c0,0.1-0.3,1.9-0.1,3.5c0.1,0.6,0.2,1.2,0.4,1.9c0.4,1.5,0.8,3.3,0.6,4.9c0,0.1-0.1,0.2-0.3,0.2c-0.1,0-0.2-0.1-0.2-0.3
				c0.2-1.6-0.3-3.3-0.6-4.8c-0.2-0.7-0.3-1.4-0.4-2c-0.2-1.8,0-3.6,0.1-3.7c0,0,0,0,0,0c0.7-3.2,1.1-6.7,1.4-9.3
				c0.4-3.5,0.5-4.3,0.9-4.3c0.1,0,0.2,0,0.3,0.1c0.2,0.1,0.4,0.3,0.6,4.4c0.1,2.3,0.2,4.9,0.3,6.9c0,0.7,0,1.2,0.1,1.6
				c0.1,3,1.4,15.4,1.4,15.5c0,0.1,0,0.2-0.1,0.2c-1.5,1.4-1.2,5-1.1,5.8l0.4,0.1c0.1,0,0.2,0.1,0.2,0.2l0.1,1.1
				c1.6-0.2,2.8-1.8,3.1-3c0.5-2.1,0.2-3-0.5-4.7L42,56.4c-0.2-0.6,0.1-2.8,0.7-6.4c0.3-1.6,0.5-3.1,0.6-4.2
				c0.3-3.1-0.6-7.4-0.6-7.5c0,0,0,0,0,0c-0.1-1.5,0-3.4,0.1-5.4c0.2-3.4,0.3-6.9-0.4-9.3c-0.8-2.7-6.9-3.7-6.9-3.7c0,0-0.1,0-0.1,0
				c-1.4-0.8-4.2-2.1-4.3-2.1c-0.1,0-0.2-0.1-0.2-0.2v-3.1c0-0.1,0-0.2,0.1-0.2c0,0,1.5-1.2,1.5-8.8c0-2-0.8-3.4-2.2-4.3
				c-1.1-0.6-2.2-0.7-2.2-0.7h-1.2c-0.3,0-4.5,0.3-4.5,5c0,4.9,1.6,9,1.6,9.1c0,0,0,0.1,0,0.1v2.9c0,0.1-0.1,0.2-0.2,0.2
				c0,0-2.9,1.3-4.3,2.1c0,0-0.1,0-0.1,0c-0.1,0-6.1,1-6.9,3.7c-0.7,2.4-0.5,5.9-0.4,9.3c0.1,2,0.2,3.8,0.1,5.4c0,0,0,0,0,0
				c0,0-0.9,4.4-0.6,7.5c0.1,1.1,0.4,2.6,0.6,4.2c0.6,3.6,0.9,5.8,0.7,6.4l-0.1,0.3c-0.7,1.7-1,2.6-0.5,4.7c0.3,1.2,1.5,2.8,3.1,3
				l0.1-1.1c0-0.1,0.1-0.2,0.2-0.2l0.4-0.1c0.1-0.8,0.4-4.4-1.1-5.8c-0.1-0.1-0.1-0.1-0.1-0.2c0-0.1,1.3-12.5,1.4-15.5
				c0-0.4,0-1,0.1-1.6c0.1-1.9,0.2-4.6,0.3-6.9c0.2-4.1,0.5-4.3,0.6-4.4c0.1-0.1,0.2-0.1,0.3-0.1c0.4,0.1,0.5,0.8,0.9,4.3
				c0.3,2.6,0.7,6.2,1.4,9.3c0,0,0,0,0,0c0,0.1,0.3,1.9,0.1,3.7c-0.1,0.6-0.2,1.3-0.4,2c-0.4,1.5-0.8,3.2-0.6,4.8
				c0,0.1-0.1,0.3-0.2,0.3c-0.1,0-0.3-0.1-0.3-0.2c-0.2-1.7,0.3-3.4,0.6-4.9c0.2-0.7,0.3-1.4,0.4-1.9c0.2-1.6,0-3.4-0.1-3.5
				c-0.7-3.2-1.1-6.8-1.4-9.4c-0.2-1.4-0.3-2.9-0.5-3.6C17.2,31,17,37,16.9,39.8c0,0.7,0,1.2-0.1,1.6c-0.1,2.8-1.2,14.1-1.4,15.4
				c1.8,1.8,1.2,6.1,1.1,6.3c0,0.1-0.1,0.2-0.2,0.2L16,63.5l-0.1,1.2c0,0.1-0.1,0.2-0.3,0.2c-1.2,0-3.2-1.1-3.8-3.4
				c-0.5-2.3-0.2-3.2,0.5-5l0.1-0.3c0.2-0.5-0.3-3.7-0.7-6.2c-0.3-1.6-0.5-3.1-0.6-4.3c-0.3-3.1,0.5-7.2,0.6-7.6
				c0.1-1.5,0-3.3-0.1-5.3c-0.2-3.4-0.3-7,0.4-9.4c0.9-2.9,6.7-4,7.3-4.1c1.2-0.7,3.5-1.7,4.1-2v-2.7c-0.2-0.5-1.6-4.5-1.6-9.2
				c0-5.2,4.9-5.5,5-5.5c0,0,0,0,0,0h1.2c0,0,0,0,0,0c0,0,5,0.3,5,5.5c0,6.9-1.2,8.7-1.6,9.1v2.8c0.6,0.3,2.9,1.3,4.1,2
				c0.6,0.1,6.4,1.2,7.3,4.1c0.7,2.4,0.6,6,0.4,9.4c-0.1,1.9-0.2,3.8-0.1,5.3c0.1,0.4,0.9,4.5,0.6,7.6c-0.1,1.1-0.4,2.7-0.6,4.3
				c-0.4,2.5-0.9,5.7-0.7,6.2l0.1,0.3c0.7,1.7,1.1,2.7,0.5,5C42.6,63.8,40.5,64.9,39.3,64.9z"/>
		</g>
		<g>
			<path fill="#231F20" d="M31.2,19.4c-0.1,0-0.3-0.1-0.3-0.3v-1.5c0-0.1,0.1-0.3,0.3-0.3s0.3,0.1,0.3,0.3v1.5
				C31.5,19.3,31.4,19.4,31.2,19.4z"/>
		</g>
		<g>
			<path fill="#231F20" d="M27.9,16c-0.1,0-0.3-0.1-0.3-0.3c0-0.1,0.1-0.3,0.3-0.3c0.9,0,1.8-0.2,2.5-0.7c0.5-0.3,0.8-0.7,0.8-0.7
				c0.1-0.1,0.2-0.1,0.4-0.1c0.1,0.1,0.1,0.2,0.1,0.4C31.5,14.6,30.4,16,27.9,16z"/>
		</g>
		<g>
			<path fill="#231F20" d="M39.6,63.6c-0.1,0-0.2,0-0.2-0.1c-0.1-0.1-0.1-0.3,0-0.4c0,0,0.4-0.3,0.5-0.9c0-0.2,0.1-0.4,0.1-0.7
				c0.1-1.2,0.3-2.2,0.5-2.5c0.1-0.1,0.2-0.1,0.4-0.1c0.1,0.1,0.1,0.2,0.1,0.4c-0.2,0.3-0.3,1.6-0.4,2.2c0,0.3-0.1,0.6-0.1,0.7
				c-0.1,0.8-0.6,1.2-0.7,1.2C39.7,63.6,39.6,63.6,39.6,63.6z"/>
		</g>
		<g>
			<path fill="#231F20" d="M23.8,19.4c-0.1,0-0.3-0.1-0.3-0.3v-1.5c0-0.1,0.1-0.3,0.3-0.3c0.1,0,0.3,0.1,0.3,0.3v1.5
				C24,19.3,23.9,19.4,23.8,19.4z"/>
		</g>
		<g>
			<path fill="#231F20" d="M15.4,63.6c-0.1,0-0.1,0-0.2-0.1c0,0-0.5-0.4-0.7-1.2c0-0.2-0.1-0.4-0.1-0.7c-0.1-0.7-0.2-2-0.4-2.2
				C14,59.2,14,59.1,14.1,59c0.1-0.1,0.3-0.1,0.4,0.1c0.2,0.3,0.4,1.3,0.5,2.5c0,0.3,0.1,0.5,0.1,0.7c0.1,0.6,0.5,0.9,0.5,0.9
				c0.1,0.1,0.1,0.2,0,0.4C15.6,63.6,15.5,63.6,15.4,63.6z"/>
		</g>
		<g>
			<g>
				<path fill="#231F20" d="M34.4,26.9c-0.1,0-0.2-0.1-0.2-0.2c0-0.1,0.1-0.3,0.2-0.3c1.7-0.2,2.3-0.4,2.6-0.5
					c-0.2-0.1-0.9-0.3-2.6-0.5c-1.8-0.2-4.3-0.3-6.9-0.3s-5.1,0.1-6.9,0.3c-1.7,0.2-2.3,0.4-2.6,0.5c0.2,0.1,0.9,0.3,2.6,0.5
					c0.1,0,0.2,0.1,0.2,0.3c0,0.1-0.1,0.2-0.3,0.2c-2.9-0.3-3.1-0.7-3.1-1c0-0.3,0.2-0.7,3.1-1c1.9-0.2,4.3-0.3,7-0.3s5.1,0.1,7,0.3
					c2.9,0.3,3.1,0.7,3.1,1C37.5,26.3,37.3,26.6,34.4,26.9C34.4,26.9,34.4,26.9,34.4,26.9z"/>
			</g>
			<g>
				<path fill="#231F20" d="M33.8,29.6c-0.1,0-0.2-0.1-0.2-0.2c0-0.1,0.1-0.3,0.2-0.3c1.6-0.2,2.1-0.4,2.3-0.5
					c-0.2-0.1-0.8-0.3-2.3-0.5c-1.7-0.2-3.9-0.3-6.3-0.3c-2.4,0-4.6,0.1-6.3,0.3c-1.6,0.2-2.1,0.4-2.3,0.5c0.2,0.1,0.8,0.3,2.3,0.5
					c0.1,0,0.2,0.1,0.2,0.3c0,0.1-0.1,0.2-0.3,0.2c-2.6-0.3-2.9-0.7-2.9-1c0-0.3,0.2-0.7,2.9-1c1.7-0.2,4-0.3,6.4-0.3
					c2.4,0,4.7,0.1,6.4,0.3c2.6,0.3,2.9,0.7,2.9,1C36.7,28.9,36.5,29.3,33.8,29.6C33.8,29.6,33.8,29.6,33.8,29.6z"/>
			</g>
			<g>
				<path fill="#231F20" d="M33.2,32.2c-0.1,0-0.2-0.1-0.2-0.2c0-0.1,0.1-0.3,0.2-0.3c1.4-0.2,1.9-0.4,2.1-0.4
					c-0.2-0.1-0.7-0.3-2.1-0.4c-1.5-0.2-3.6-0.3-5.8-0.3s-4.2,0.1-5.8,0.3c-1.4,0.2-1.9,0.4-2.1,0.4c0.2,0.1,0.7,0.3,2.1,0.4
					c0.1,0,0.2,0.1,0.2,0.3c0,0.1-0.1,0.2-0.3,0.2c-2.3-0.3-2.6-0.6-2.6-0.9c0-0.3,0.3-0.7,2.6-0.9c1.6-0.2,3.6-0.3,5.8-0.3
					s4.3,0.1,5.8,0.3c2.3,0.3,2.6,0.6,2.6,0.9C35.9,31.6,35.5,31.9,33.2,32.2C33.2,32.2,33.2,32.2,33.2,32.2z"/>
			</g>
			<g>
				<path fill="#231F20" d="M32.6,34.8c-0.1,0-0.2-0.1-0.2-0.2c0-0.1,0.1-0.3,0.2-0.3c1.3-0.2,1.7-0.3,1.9-0.4
					c-0.2-0.1-0.6-0.3-1.9-0.4c-1.4-0.2-3.2-0.3-5.2-0.3c-2,0-3.8,0.1-5.2,0.3c-1.3,0.2-1.7,0.3-1.9,0.4c0.2,0.1,0.6,0.3,1.9,0.4
					c0.1,0,0.2,0.1,0.2,0.3c0,0.1-0.1,0.2-0.3,0.2c-2.1-0.3-2.4-0.6-2.4-0.9c0-0.3,0.3-0.7,2.4-0.9c1.4-0.2,3.3-0.3,5.2-0.3
					c2,0,3.8,0.1,5.2,0.3c2.1,0.3,2.4,0.6,2.4,0.9C35,34.2,34.7,34.5,32.6,34.8C32.6,34.8,32.6,34.8,32.6,34.8z"/>
			</g>
			<g>
				<path fill="#231F20" d="M32,37.4c-0.1,0-0.2-0.1-0.2-0.2c0-0.1,0.1-0.3,0.2-0.3c1.1-0.2,1.5-0.3,1.7-0.4
					c-0.1-0.1-0.5-0.3-1.7-0.4c-1.2-0.2-2.9-0.3-4.6-0.3s-3.4,0.1-4.6,0.3c-1.1,0.2-1.5,0.3-1.7,0.4c0.1,0.1,0.5,0.3,1.7,0.4
					c0.1,0,0.2,0.1,0.2,0.3c0,0.1-0.1,0.2-0.3,0.2c-1.9-0.3-2.1-0.6-2.1-0.9c0-0.3,0.3-0.6,2.1-0.9c1.2-0.2,2.9-0.3,4.7-0.3
					s3.4,0.1,4.7,0.3c1.9,0.3,2.1,0.6,2.1,0.9C34.2,36.8,34,37.1,32,37.4C32.1,37.4,32.1,37.4,32,37.4z"/>
			</g>
		</g>
		<g>
			<path fill="#231F20" d="M27.3,42.6c-0.1,0-0.1,0-0.2-0.1c-0.1-0.1-0.1-0.2-0.1-0.3c0.1-1,0.1-12.2,0-19.7c0-0.1,0.1-0.3,0.2-0.3
				c0.1,0,0.3,0.1,0.3,0.2c0,0,0.1,5,0.1,9.9c0,2.9,0,5.2,0,6.8c0,3.3-0.1,3.3-0.2,3.4C27.4,42.6,27.3,42.6,27.3,42.6z"/>
		</g>
		<g>
			<path fill="#FFFFFF" d="M26.4,25.7l-1.6-0.9c0,0-1,0-1,1l0.8,1"/>
			<path fill="#231F20" d="M24.6,27.1c-0.1,0-0.1,0-0.2-0.1l-0.8-1c0,0-0.1-0.1-0.1-0.2c0-0.9,0.8-1.2,1.2-1.2c0,0,0.1,0,0.1,0
				l1.6,0.9c0.1,0.1,0.2,0.2,0.1,0.3c-0.1,0.1-0.2,0.2-0.3,0.1l-1.5-0.8c-0.2,0-0.6,0.1-0.7,0.6l0.8,0.9c0.1,0.1,0.1,0.3,0,0.4
				C24.8,27.1,24.7,27.1,24.6,27.1z"/>
		</g>
		<g>
			<path fill="#FFFFFF" d="M30.1,26.6L30.1,26.6c0,0-0.2-0.9,0.3-1.7c0,0,0-0.6-1.2-0.7c0,0-0.2,0.9-1,1.4c-0.4-0.1-0.9-0.1-1.3,0
				c-1.7,0.3-2.8,1.6-2.6,2.9c0.3,1.3,2.1,3.8,3.8,3.4c1.7-0.3,2.5-3.3,2.2-4.6C30.4,27,30.3,26.8,30.1,26.6z"/>
			<path fill="#231F20" d="M27.9,32.2L27.9,32.2c-1.8,0-3.5-2.4-3.8-3.7c-0.3-1.4,1-2.8,2.8-3.2c0.4-0.1,0.9-0.1,1.3,0
				c0.7-0.4,0.8-1.1,0.8-1.1c0-0.1,0.1-0.2,0.3-0.2c1.4,0.1,1.4,0.9,1.4,0.9c0,0.1,0,0.1,0,0.1c-0.5,0.7-0.3,1.5-0.3,1.5
				c0.2,0.2,0.2,0.5,0.3,0.7c0.3,1.3-0.5,4.5-2.4,4.9C28.1,32.2,28,32.2,27.9,32.2z M27.7,25.7c-0.2,0-0.5,0-0.7,0.1
				c-1.5,0.3-2.6,1.5-2.4,2.6c0.2,1.1,1.8,3.3,3.3,3.3h0c0.1,0,0.2,0,0.3,0c1.5-0.3,2.3-3.1,2-4.3c0-0.2-0.1-0.4-0.3-0.6
				c0-0.1,0-0.1,0-0.2c0-0.3-0.1-1,0.3-1.8c-0.1-0.1-0.3-0.3-0.7-0.4c-0.1,0.3-0.4,1-1.1,1.3c0,0-0.1,0-0.2,0
				C28.1,25.8,27.9,25.7,27.7,25.7z"/>
		</g>
	</g>
</g>
</svg>
