<?xml version="1.0" encoding="utf-8"?>
<!-- Generator: Adobe Illustrator 18.1.1, SVG Export Plug-In . SVG Version: 6.00 Build 0)  -->
<!DOCTYPE svg PUBLIC "-//W3C//DTD SVG 1.1//EN" "http://www.w3.org/Graphics/SVG/1.1/DTD/svg11.dtd">
<svg version="1.1" id="Layer_1" xmlns="http://www.w3.org/2000/svg" xmlns:xlink="http://www.w3.org/1999/xlink" x="0px" y="0px"
	 viewBox="0 0 55 65" enable-background="new 0 0 55 65" xml:space="preserve">
<g>
	<g>
		<g enable-background="new    ">
			<g>
				<g>
					<g>
						<polygon fill="#FFFFFF" points="21.7,42.6 24.6,49.3 18.8,45.9 						"/>
					</g>
					<g>
						<path fill="#231F20" d="M24.6,49.6c-0.1,0-0.1,0-0.2,0l-5.9-3.4c-0.1,0-0.1-0.1-0.2-0.2s0-0.2,0.1-0.3l3-3.3
							c0.1-0.1,0.2-0.1,0.3-0.1c0.1,0,0.2,0.1,0.2,0.2l2.9,6.7c0,0,0,0.1,0,0.2C25,49.4,24.8,49.6,24.6,49.6
							C24.6,49.6,24.6,49.6,24.6,49.6z M19.3,45.8l4.7,2.7l-2.3-5.3L19.3,45.8z"/>
					</g>
				</g>
			</g>
			<g>
				<g>
					<g>
						<polygon fill="#FFFFFF" points="21.7,42.6 30.1,37.5 33.1,44.2 24.6,49.3 						"/>
					</g>
					<g>
						<path fill="#231F20" d="M24.6,49.6C24.6,49.6,24.6,49.6,24.6,49.6c-0.2,0-0.3-0.1-0.3-0.2l-2.9-6.7c-0.1-0.1,0-0.3,0.1-0.4
							l8.4-5.1c0.1,0,0.2-0.1,0.3,0c0.1,0,0.2,0.1,0.2,0.2l2.9,6.7c0.1,0.1,0,0.3-0.1,0.4l-8.4,5.1C24.8,49.6,24.7,49.6,24.6,49.6z
							 M22.1,42.7l2.7,6.1l7.9-4.7L30,38L22.1,42.7z"/>
					</g>
				</g>
			</g>
			<g>
				<g>
					<g>
						<polygon fill="#FFFFFF" points="21.7,42.6 27.2,39.2 30.1,37.5 21.7,42.6 						"/>
					</g>
					<g>
						<path fill="#231F20" d="M21.7,42.9c-0.1,0-0.2-0.1-0.3-0.2c-0.1-0.2,0-0.3,0.1-0.4l5.5-3.4c0,0,0,0,0,0l3-1.7
							c0.2-0.1,0.3,0,0.4,0.1c0.1,0.2,0,0.3-0.1,0.4l-8.4,5.1C21.8,42.9,21.8,42.9,21.7,42.9z"/>
					</g>
				</g>
			</g>
		</g>
	</g>
	<g>
		<g enable-background="new    ">
			<g>
				<g>
					<g>
						<polygon fill="#FFFFFF" points="10,31.4 42.6,50.7 46.3,48.6 13.6,29.3 						"/>
					</g>
					<g>
						<path fill="#231F20" d="M42.6,51c-0.1,0-0.1,0-0.2,0L9.8,31.7c-0.1-0.1-0.2-0.2-0.2-0.3s0.1-0.2,0.2-0.3l3.6-2.1
							c0.1-0.1,0.2-0.1,0.3,0l32.7,19.3c0.1,0.1,0.2,0.2,0.2,0.3c0,0.1-0.1,0.2-0.2,0.3L42.8,51C42.8,51,42.7,51,42.6,51z
							 M10.6,31.4l32,18.9l3-1.7l-32-18.9L10.6,31.4z"/>
					</g>
				</g>
			</g>
			<g>
				<g>
					<g>
						<polygon fill="#FFFFFF" points="10,31.4 10,33.3 42.6,52.6 42.6,50.7 						"/>
					</g>
					<g>
						<path fill="#231F20" d="M42.6,52.9c-0.1,0-0.1,0-0.2,0L9.8,33.6c-0.1-0.1-0.2-0.2-0.2-0.3l0-1.9c0-0.1,0.1-0.2,0.2-0.3
							c0.1-0.1,0.2-0.1,0.3,0l32.7,19.3c0.1,0.1,0.2,0.2,0.2,0.3l0,1.9c0,0.1-0.1,0.2-0.2,0.3C42.8,52.9,42.7,52.9,42.6,52.9z
							 M10.3,33.2l32,18.9l0-1.2L10.3,32L10.3,33.2z"/>
					</g>
				</g>
			</g>
			<g>
				<g>
					<g>
						<polygon fill="#FFFFFF" points="42.6,50.7 42.6,52.6 46.3,50.5 46.3,48.6 						"/>
					</g>
					<g>
						<path fill="#231F20" d="M42.6,52.9c-0.1,0-0.1,0-0.2,0c-0.1-0.1-0.2-0.2-0.2-0.3l0-1.9c0-0.1,0.1-0.2,0.2-0.3l3.6-2.1
							c0.1-0.1,0.2-0.1,0.3,0c0.1,0.1,0.2,0.2,0.2,0.3l0,1.9c0,0.1-0.1,0.2-0.2,0.3l-3.6,2.1C42.8,52.9,42.7,52.9,42.6,52.9z
							 M43,50.9l0,1.2l3-1.7l0-1.2L43,50.9z"/>
					</g>
				</g>
			</g>
		</g>
	</g>
	<g>
		<g enable-background="new    ">
			<g>
				<g>
					<g>
						<polygon fill="#FFFFFF" points="22.1,29.9 22.1,31.7 19.1,35.2 13,37 6.4,36.4 1.6,33.6 0.5,29.7 0.5,27.9 9.5,24.4 
							16.2,25.1 						"/>
					</g>
					<g>
						<path fill="#231F20" d="M13,37.3C13,37.3,13,37.3,13,37.3l-6.7-0.6c0,0-0.1,0-0.1,0l-4.8-2.8c-0.1,0-0.1-0.1-0.1-0.2l-1.1-3.9
							c0,0,0-0.1,0-0.1v-1.8c0-0.1,0.1-0.3,0.2-0.3l9.1-3.5c0,0,0.1,0,0.1,0l6.7,0.6c0.1,0,0.1,0,0.2,0.1l5.9,4.8
							c0.1,0.1,0.1,0.2,0.1,0.2v1.8c0,0.1,0,0.2-0.1,0.2l-3,3.5c0,0-0.1,0.1-0.2,0.1L13,37.3C13.1,37.3,13.1,37.3,13,37.3z M6.5,36
							l6.5,0.6l5.9-1.7l2.9-3.3V30l-5.7-4.7l-6.5-0.6l-8.8,3.4v1.5l1,3.7L6.5,36z"/>
					</g>
				</g>
			</g>
		</g>
	</g>
	<g>
		<g enable-background="new    ">
			<g>
				<g>
					<g>
						<polygon fill="#FFFFFF" points="21,26 22.1,29.9 19.1,33.4 13,35.2 6.4,34.5 1.6,31.8 0.5,27.9 3.5,24.4 9.5,22.6 16.2,23.3 
													"/>
					</g>
					<g>
						<path fill="#231F20" d="M13,35.5C13,35.5,13,35.5,13,35.5l-6.7-0.6c0,0-0.1,0-0.1,0l-4.8-2.8c-0.1,0-0.1-0.1-0.1-0.2L0.2,28
							c0-0.1,0-0.2,0.1-0.3l3.1-3.5c0,0,0.1-0.1,0.2-0.1l6-1.8c0,0,0.1,0,0.1,0l6.7,0.6c0,0,0.1,0,0.1,0l4.8,2.8
							c0.1,0,0.1,0.1,0.1,0.2l1.1,3.9c0,0.1,0,0.2-0.1,0.3l-3,3.5c0,0-0.1,0.1-0.2,0.1L13,35.5C13.1,35.5,13.1,35.5,13,35.5z
							 M6.5,34.2l6.5,0.6l5.9-1.7l2.9-3.3l-1-3.6l-4.6-2.7L9.6,23l-5.9,1.7L0.8,28l1,3.6L6.5,34.2z"/>
					</g>
				</g>
			</g>
		</g>
	</g>
	<g>
		<g enable-background="new    ">
			<g>
				<g>
					<g>
						<polygon fill="#231F20" points="19.6,25.3 20.4,27.9 18.3,30.2 14.3,31.4 9.9,31 6.7,29.2 5.9,26.6 8,24.3 12,23.1 16.4,23.5 
													"/>
					</g>
					<g>
						<path fill="#231F20" d="M14.3,31.7C14.3,31.7,14.3,31.7,14.3,31.7l-4.5-0.4c0,0-0.1,0-0.1,0l-3.2-1.8c-0.1,0-0.1-0.1-0.1-0.2
							l-0.7-2.6c0-0.1,0-0.2,0.1-0.3l2-2.3c0,0,0.1-0.1,0.2-0.1l4-1.2c0,0,0.1,0,0.1,0l4.5,0.4c0,0,0.1,0,0.1,0l3.2,1.8
							c0.1,0,0.1,0.1,0.1,0.2l0.7,2.6c0,0.1,0,0.2-0.1,0.3l-2,2.3c0,0-0.1,0.1-0.2,0.1L14.3,31.7C14.4,31.7,14.3,31.7,14.3,31.7z
							 M10,30.7l4.3,0.4l3.9-1.1l1.9-2.1l-0.6-2.3l-3-1.7L12,23.4l-3.9,1.1l-1.9,2.1L6.9,29L10,30.7z"/>
					</g>
				</g>
			</g>
		</g>
	</g>
	<g>
		<g enable-background="new    ">
			<g>
				<g>
					<g>
						<polygon fill="#FFFFFF" points="54.5,47.2 54.5,49 51.5,52.5 45.5,54.3 38.8,53.6 34,50.9 32.9,47 32.9,45.2 42,41.7 
							48.6,42.3 						"/>
					</g>
					<g>
						<path fill="#231F20" d="M45.5,54.6C45.4,54.6,45.4,54.6,45.5,54.6L38.7,54c0,0-0.1,0-0.1,0l-4.8-2.8c-0.1,0-0.1-0.1-0.1-0.2
							l-1.1-3.9c0,0,0-0.1,0-0.1v-1.8c0-0.1,0.1-0.3,0.2-0.3l9.1-3.5c0,0,0.1,0,0.1,0l6.7,0.6c0.1,0,0.1,0,0.2,0.1l5.9,4.8
							c0.1,0.1,0.1,0.2,0.1,0.2V49c0,0.1,0,0.2-0.1,0.2l-3,3.5c0,0-0.1,0.1-0.2,0.1L45.5,54.6C45.5,54.6,45.5,54.6,45.5,54.6z
							 M38.9,53.3l6.5,0.6l5.9-1.7l2.9-3.3v-1.5l-5.7-4.7L42,42.1l-8.8,3.4V47l1,3.7L38.9,53.3z"/>
					</g>
				</g>
			</g>
		</g>
	</g>
	<g>
		<g enable-background="new    ">
			<g>
				<g>
					<g>
						<polygon fill="#FFFFFF" points="53.4,43.3 54.5,47.2 51.5,50.7 45.5,52.4 38.8,51.8 34,49.1 32.9,45.2 36,41.7 42,39.9 
							48.6,40.5 						"/>
					</g>
					<g>
						<path fill="#231F20" d="M45.5,52.8C45.4,52.8,45.4,52.8,45.5,52.8l-6.7-0.6c0,0-0.1,0-0.1,0l-4.8-2.8c-0.1,0-0.1-0.1-0.1-0.2
							l-1.1-3.9c0-0.1,0-0.2,0.1-0.3l3.1-3.5c0,0,0.1-0.1,0.2-0.1l6-1.8c0,0,0.1,0,0.1,0l6.7,0.6c0,0,0.1,0,0.1,0l4.8,2.8
							c0.1,0,0.1,0.1,0.1,0.2l1.1,3.9c0,0.1,0,0.2-0.1,0.3l-3,3.5c0,0-0.1,0.1-0.2,0.1L45.5,52.8C45.5,52.8,45.5,52.8,45.5,52.8z
							 M38.9,51.5l6.5,0.6l5.9-1.7l2.9-3.3l-1-3.6l-4.6-2.7L42,40.3L36.1,42l-2.9,3.3l1,3.6L38.9,51.5z"/>
					</g>
				</g>
			</g>
		</g>
	</g>
	<g>
		<g>
			<ellipse fill="#231F20" cx="45.4" cy="44.6" rx="7.2" ry="3.2"/>
		</g>
		<g>
			<path fill="#231F20" d="M45.4,48.1c-4.2,0-7.5-1.5-7.5-3.5c0-2,3.3-3.5,7.5-3.5s7.5,1.5,7.5,3.5C53,46.5,49.7,48.1,45.4,48.1z
				 M45.4,41.7c-3.7,0-6.9,1.3-6.9,2.8s3.2,2.8,6.9,2.8s6.9-1.3,6.9-2.8S49.2,41.7,45.4,41.7z"/>
		</g>
	</g>
	<g>
		<g>
			<circle fill="#FFFFFF" cx="44" cy="37.8" r="10.1"/>
		</g>
		<g>
			<path fill="#231F20" d="M44,48.2c-5.7,0-10.4-4.7-10.4-10.4S38.2,27.4,44,27.4S54.4,32,54.4,37.8S49.7,48.2,44,48.2z M44,28
				c-5.4,0-9.8,4.4-9.8,9.8s4.4,9.8,9.8,9.8s9.8-4.4,9.8-9.8S49.3,28,44,28z"/>
		</g>
	</g>
	<g>
		<g>
			<g>
				<path fill="#231F20" d="M53.1,40.7c0.1,0,0.1-0.1,0.2-0.1c0.2-0.7,0.2-1.5,0.2-2.2c0-0.5,0-0.9-0.1-1.4c0,0,0,0,0,0
					c0,0-0.1,0.1-0.1,0.2c0,0.4,0.1,0.8,0.1,1.2C53.4,39.1,53.3,39.9,53.1,40.7z"/>
			</g>
		</g>
		<g>
			<g>
				<path fill="#231F20" d="M37.6,32.6c0.2-0.2,0.5-0.4,0.7-0.6c0.4-0.5,0.5-1,0.3-1.5c0-0.1-0.1-0.3-0.2-0.4
					c-1.5,1-2.7,2.3-3.5,3.9C35.5,33.7,36.9,32.9,37.6,32.6C37.8,32.4,37.3,32.9,37.6,32.6z"/>
			</g>
		</g>
		<g>
			<g>
				<path fill="#231F20" d="M37.3,45.6c0-0.2-0.1-0.3-0.2-0.4c-0.1-0.1-0.2-0.2-0.2-0.4c0-0.1,0.1-0.2,0.2-0.2
					c0.1,0,0.2-0.1,0.3-0.3c0.1-0.2,0-0.4-0.1-0.6c0-0.1-0.1-0.1-0.1-0.2c-0.1-0.2,0-0.4,0.1-0.7c0.1-0.3,0.2-0.6,0-1
					c-0.2-0.2-0.5-0.3-0.7-0.4c0,0-0.1,0-0.1-0.1c-0.1,0-0.2-0.1-0.3-0.1c-0.2-0.1-0.3-0.3-0.5-0.4l0,0c-0.3-0.5-0.8-0.8-1.2-1.2
					c-0.1-0.1-0.3-0.2-0.4-0.4l0,0c-0.1-0.1-0.1-0.1-0.2-0.2c-0.1-1,3.7,7,3.5,6.8C37.3,45.7,37.3,45.6,37.3,45.6z"/>
			</g>
		</g>
		<g>
			<g>
				<path fill="#231F20" d="M47.2,29.8c0.1-0.1,0.3-0.2,0.3-0.4c0-0.2-0.2-0.3-0.5-0.4C46.9,29,46.7,29,46.5,29c-0.2,0-0.4,0-0.6,0
					c-0.1,0-0.2,0-0.2,0c-0.8,0-1.4,0.4-2,1.2c0,0.1-0.2,0.2-0.1,0.4c0,0.1,0.2,0.2,0.3,0.2c0,0,0,0-0.1,0c0,0-0.1,0.1-0.1,0.2
					c0,0.3,0,0.3-0.1,0.4c0,0,0,0,0,0c0,0,0,0,0,0c0,0,0,0,0,0c0,0,0,0,0,0c0,0,0,0,0,0c0,0,0,0,0,0c0,0,0,0,0,0c0,0,0,0,0,0
					c-0.1,0.2-0.3,0.2-0.5,0.2c-0.1,0-0.2,0-0.2,0c0,0,0.1-0.1,0.1-0.1c0-0.2-0.1-0.4-0.2-0.4l0,0c-0.1-0.1-0.1-0.1-0.1-0.1
					c0,0,0,0,0,0c0,0,0-0.1,0-0.2c0-0.2-0.1-0.4-0.3-0.4c0,0-0.1,0-0.2,0c-0.1,0-0.2,0.2-0.3,0.3c0,0,0,0,0,0.1
					c-0.1,0.2-0.1,0.3-0.1,0.4C41.8,31,41.7,31,41.6,31c-0.1,0-0.1,0-0.2,0.1c-0.2,0.1-0.3,0.3-0.2,0.5c0,0.2,0.2,0.3,0.4,0.3
					c0.1,0,0.2,0,0.3-0.1c0,0,0.1-0.1,0.1-0.2c0,0,0,0,0,0.1c0.1,0.1,0.3,0.2,0.5,0.2h0c0,0,0.1,0,0.1,0c-0.1,0-0.2,0.1-0.2,0.2
					c-0.2,0.2,0,0.4,0,0.5l0,0c0,0,0,0,0,0c0,0-0.1,0-0.1,0c-0.1,0-0.1,0-0.2,0c-0.2,0-0.3,0-0.4,0c0,0,0,0,0,0
					c-0.4,0.2-0.7,0.6-0.6,0.9c0,0.2,0.2,0.5,1,0.6c0,0-0.1,0-0.1,0c-0.4,0.1-0.7,0.2-1,0.4c-0.1,0.1-0.2,0.3-0.3,0.5
					c0,0.1-0.1,0.2-0.1,0.3c0,0.1-0.1,0.1-0.2,0.2c-0.1,0.1-0.2,0.2-0.3,0.4c0,0,0,0,0,0c-0.1,0.3-0.1,0.7-0.2,1c0,0.1,0,0.2,0,0.3
					c0,0.8,0,1.8,1.1,2.4c0.1,0.1,0.2,0.1,0.4,0.1c0.2,0,0.3,0,0.5-0.1c0.1,0,0.2-0.1,0.3-0.1c0.2,0,0.3,0,0.5,0c0.2,0,0.3,0,0.5,0
					c0.2,0,0.3,0,0.5,0.1c0.2,0.1,0.2,0.1,0.3,0.1c0,0,0.1,0,0.1,0c0.1,0,0.1,0,0.2-0.1c0,0,0,0,0,0c0,0-0.1,0.1-0.1,0.1
					c-0.1,0.1-0.1,0.2-0.1,0.4c0,0.3,0.3,0.6,0.5,0.8c0.2,0.2,0.3,0.3,0.3,0.5c0.1,0.3,0,0.7,0,1c0,0.3-0.1,0.5-0.1,0.8
					c0,0.4,0.2,0.7,0.3,1c0.1,0.1,0.1,0.2,0.2,0.3c0.1,0.1,0.1,0.2,0.1,0.3c0.1,0.3,0.2,0.4,0.6,0.4c0,0,0.1,0,0.1,0
					c1.2-0.1,1.9-1,2.2-1.8c0.1-0.2,0.2-0.3,0.3-0.4c0.1,0,0.1-0.1,0.2-0.2c0,0,0,0,0,0.1c0,0,0,0.1,0,0.1c-0.1,0.2-0.2,0.5-0.1,0.7
					c0,0.1,0.1,0.2,0.2,0.2c0,0,0.1,0,0.1,0c0.2,0,0.4-0.2,0.6-0.4c0.1-0.1,0.1-0.2,0.2-0.3c0,0,0-0.1,0-0.1
					c0.1-0.1,0.1-0.2,0.2-0.3c0.1-0.1,0.1-0.1,0.2-0.2c0,0,0.2-0.3,0.1-0.5c0-0.1-0.1-0.1-0.1-0.2c-0.1-0.1-0.3,0-0.5,0.1
					c-0.1,0-0.1,0.1-0.2,0.2c0,0,0,0,0,0c-0.1,0-0.1,0-0.2,0c-0.1,0-0.2,0.1-0.2,0.2c0-0.2,0-0.4,0-0.6c0-0.2,0-0.4,0-0.6
					c0.1-0.4,0.5-0.7,0.8-1c0.4-0.4,0.8-0.8,1-1.3c0.1-0.3,0.1-0.5,0-0.6c-0.1-0.2-0.4-0.2-0.6-0.2c0,0-0.1,0-0.1,0
					c-0.1,0-0.1,0-0.2,0c-0.3,0-0.5,0-0.6-0.2c-0.2-0.3-0.7-1.6-0.7-2.2c0.3,0.1,0.5,0.6,0.7,1.1c0.2,0.5,0.4,0.9,0.7,1.1
					c0.2,0.1,0.5,0,0.7-0.1c0.4-0.2,0.9-0.8,1-1.3c0-0.1,0-0.3-0.1-0.4c0.2,0.1,0.4,0.1,0.5,0.1c0.3,0,0.5,0.1,0.6,0.2
					c0.2,0.2,0.3,0.7,0.4,1.2c0.1,0.7,0.2,1.3,0.7,1.5c0.1,0,0.2,0,0.2-0.1c0.2-0.3,0.1-0.7,0.1-1.1c0-0.3-0.1-0.5,0-0.8
					c0-0.1,0-0.1,0.1-0.2c-0.3-2.4-1.5-4.6-3.2-6.2c0,0-0.1,0-0.1,0.1c-0.1-0.1-0.1-0.1-0.2-0.2C50.3,30,49.8,30,49.5,30
					c-0.1,0-0.1,0-0.2,0c0,0-0.1,0-0.1,0l-0.1,0c-0.4,0-0.5,0-0.5-0.1c0,0,0-0.1,0.1-0.1c0.1-0.1,0.1-0.1,0.3-0.1
					c0.1,0,0.3,0,0.5-0.1c0.1,0.1,0.3,0.1,0.5,0.2c0.1,0,0.1,0,0.2,0.1c0.1,0,0.2,0.1,0.3,0.2l0,0c0.1,0.1,0.1,0.1,0.2,0
					c-0.4-0.4-0.9-0.7-1.4-1c-0.4,0.1-1.1,0.3-1.2,0.4C47.7,29.7,47.4,29.8,47.2,29.8z M45.6,29.9c0,0,0.1,0,0.1,0.1
					c0,0,0,0.1,0,0.1c0,0.1,0,0.3,0.1,0.3c0,0,0,0,0,0c0,0,0.1,0,0.1,0.1c-0.1,0-0.1,0-0.2,0.1c-0.1,0.1-0.4,0.2-0.6,0.2
					C45.1,30.6,45.6,30,45.6,29.9z M47.7,34.4c-0.1,0.2-0.3,0.2-0.5,0.2c0,0,0,0,0,0c-0.1-0.1-0.2-0.2-0.4-0.2c0,0-0.1,0-0.1,0
					c-0.1,0-0.2,0-0.2,0c0,0-0.1,0-0.1,0c0,0,0,0,0,0c-0.1,0-0.2,0-0.3,0c-0.2,0-0.3,0-0.5,0c-0.1,0-0.1,0-0.2,0
					c-0.3-0.1-0.5-0.2-0.6-0.4c-0.2-0.3-0.5-0.6-1-0.6c0,0,0,0,0,0c-0.3,0-0.6,0.1-0.9,0.2c0,0,0.1-0.1,0.1-0.1l0,0c0,0,0,0,0,0
					c0-0.1,0.1-0.2,0.1-0.4c0,0,0,0,0,0c0,0,0,0,0.1,0c0.1,0,0.1,0,0.2,0c0.1,0,0.1,0,0.2,0c0.1,0,0.1,0,0.1,0
					c0.2-0.1,0.3-0.1,0.4-0.1c0.2,0,0.4,0.1,0.6,0.2c0.1,0.1,0.3,0.1,0.4,0.2c0,0,0.1,0,0.1,0.1c0,0,0.1,0,0.1,0.1
					c0,0.1,0.1,0.2,0.2,0.2c0,0,0,0,0.1,0c0,0,0.2,0,0.2-0.1c0-0.1,0-0.1,0.1-0.1c0,0,0,0,0.1,0c0,0,0,0,0,0c0,0,0,0,0,0l0,0
					c0.1,0.2,0.3,0.5,0.6,0.5c0,0,0.1,0,0.1,0c0,0,0.1,0,0.2-0.1c0-0.1,0-0.2,0-0.2c0,0,0,0,0,0c0.2,0.1,0.3,0.3,0.4,0.3
					c0.1,0,0.2,0.1,0.3,0.1c0.1,0,0.2,0,0.3,0.1C47.8,34.2,47.8,34.3,47.7,34.4z"/>
			</g>
		</g>
		<g>
			<g>
				<path fill="#231F20" d="M52.3,41.4c-0.2,0.1-0.4,0.3-0.4,0.5c0,0.1,0,0.2,0,0.2c0,0.1,0.1,0.1,0.2,0.1c0,0,0,0,0,0
					c-0.1,0.1,0.5-0.4,0.5-0.3l-0.7,0.7c-0.1,0.3-0.2,0.5-0.3,0.7c-0.1,0.1-0.2,0.2-0.4,0.2c-0.1,0-0.2,0.1-0.3,0.1
					c-0.2,0.1-0.3,0.3-0.4,0.5l0,0c-0.1,0.1-0.1,0.3-0.2,0.4c0,0.1-0.1,0.2-0.1,0.4l0,0c-0.1,0.1-0.1,0.3-0.1,0.5
					c1.5-1.3,2.6-3,3.1-5c-0.3,0.2-0.5,0.4-0.7,0.6C52.4,41.3,52.3,41.4,52.3,41.4z"/>
			</g>
		</g>
	</g>
	<g>
		<g>
			<g enable-background="new    ">
				<g>
					<g>
						<g>
							<polygon fill="#FFFFFF" points="2.7,12.7 4.3,11.7 8.2,10.7 6.5,11.7 							"/>
						</g>
						<g>
							<path fill="#231F20" d="M2.7,13c-0.1,0-0.2-0.1-0.3-0.2c-0.1-0.1,0-0.3,0.1-0.4l1.7-1c0,0,0.1,0,0.1,0l3.8-1
								c0.2,0,0.3,0,0.4,0.2c0.1,0.1,0,0.3-0.1,0.4l-1.7,1c0,0-0.1,0-0.1,0L2.7,13C2.7,13,2.7,13,2.7,13z"/>
						</g>
					</g>
				</g>
				<g>
					<g>
						<g>
							<polygon fill="#FFFFFF" points="16.5,25.8 18.1,24.9 16.7,29.2 15,30.2 							"/>
						</g>
						<g>
							<path fill="#231F20" d="M15,30.5c-0.1,0-0.1,0-0.2-0.1c-0.1-0.1-0.1-0.2-0.1-0.4l1.5-4.3c0-0.1,0.1-0.1,0.1-0.2l1.7-1
								c0.1-0.1,0.3-0.1,0.4,0c0.1,0.1,0.1,0.2,0.1,0.4L17,29.3c0,0.1-0.1,0.1-0.1,0.2l-1.7,1C15.1,30.5,15,30.5,15,30.5z
								 M16.7,26.1l-1.2,3.4l0.8-0.5l1.2-3.4L16.7,26.1z"/>
						</g>
					</g>
				</g>
				<g>
					<g>
						<g>
							<polygon fill="#FFFFFF" points="6.5,11.7 8.2,10.7 12.9,13.5 11.2,14.4 							"/>
						</g>
						<g>
							<path fill="#231F20" d="M11.2,14.8c-0.1,0-0.1,0-0.2,0L6.3,12c-0.1-0.1-0.2-0.2-0.2-0.3c0-0.1,0.1-0.2,0.2-0.3l1.7-1
								c0.1-0.1,0.2-0.1,0.3,0l4.7,2.7c0.1,0.1,0.2,0.2,0.2,0.3c0,0.1-0.1,0.2-0.2,0.3l-1.7,1C11.3,14.8,11.3,14.8,11.2,14.8z
								 M7.1,11.7l4.1,2.4l1-0.6l-4.1-2.4L7.1,11.7z"/>
						</g>
					</g>
				</g>
				<g>
					<g>
						<g>
							<polygon fill="#FFFFFF" points="11.2,14.4 15,19.8 16.5,25.8 15,30.2 11.2,31.2 6.4,28.4 2.6,23 1.2,17 2.7,12.7 6.5,11.7 
															"/>
						</g>
						<g>
							<path fill="#231F20" d="M11.2,31.5c-0.1,0-0.1,0-0.2,0l-4.7-2.7c0,0-0.1-0.1-0.1-0.1l-3.8-5.4c0,0,0-0.1-0.1-0.1l-1.4-6
								c0-0.1,0-0.1,0-0.2l1.5-4.3c0-0.1,0.1-0.2,0.2-0.2l3.8-1c0.1,0,0.2,0,0.2,0l4.7,2.7c0,0,0.1,0.1,0.1,0.1l3.8,5.4
								c0,0,0,0.1,0.1,0.1l1.4,6c0,0.1,0,0.1,0,0.2l-1.5,4.3c0,0.1-0.1,0.2-0.2,0.2L11.2,31.5C11.2,31.5,11.2,31.5,11.2,31.5z
								 M6.7,28.2l4.5,2.6l3.5-0.9l1.4-4.1L14.7,20L11,14.7l-4.5-2.6L2.9,13L1.5,17l1.4,5.9L6.7,28.2z"/>
						</g>
					</g>
				</g>
				<g>
					<g>
						<g>
							<polygon fill="#FFFFFF" points="11.2,14.4 12.9,13.5 16.7,18.9 15,19.8 							"/>
						</g>
						<g>
							<path fill="#231F20" d="M15,20.2c-0.1,0-0.2,0-0.3-0.1l-3.8-5.4c-0.1-0.1-0.1-0.2-0.1-0.3c0-0.1,0.1-0.2,0.2-0.2l1.7-1
								c0.1-0.1,0.3,0,0.4,0.1l3.8,5.4c0.1,0.1,0.1,0.2,0.1,0.3c0,0.1-0.1,0.2-0.2,0.2l-1.7,1C15.1,20.2,15.1,20.2,15,20.2z
								 M11.7,14.5l3.4,4.9l1.1-0.6l-3.4-4.9L11.7,14.5z"/>
						</g>
					</g>
				</g>
				<g>
					<g>
						<g>
							<polygon fill="#FFFFFF" points="15,19.8 16.7,18.9 18.1,24.9 16.5,25.8 							"/>
						</g>
						<g>
							<path fill="#231F20" d="M16.5,26.2c0,0-0.1,0-0.1,0c-0.1,0-0.2-0.1-0.2-0.2l-1.4-6c0-0.1,0-0.3,0.2-0.4l1.7-1
								c0.1-0.1,0.2-0.1,0.3,0c0.1,0,0.2,0.1,0.2,0.2l1.4,6c0,0.1,0,0.3-0.2,0.4l-1.7,1C16.6,26.2,16.5,26.2,16.5,26.2z M15.4,20
								l1.3,5.4l1.1-0.6l-1.3-5.4L15.4,20z"/>
						</g>
					</g>
				</g>
			</g>
		</g>
		<g>
			<g>
				<path fill="#FFFFFF" d="M11.7,20.2c-0.6-0.8-1.3-1.5-2-2C8,17,6.6,17,6,18c-0.2,0.3-0.4,0.8-0.4,1.4s0.1,1.3,0.4,2
					c0.6,1.9,2.1,3.9,3.7,5c0.7,0.5,1.4,0.8,2,0.9"/>
			</g>
			<g>
				<path fill="#231F20" d="M11.7,27.6C11.7,27.6,11.7,27.6,11.7,27.6c-0.7-0.1-1.5-0.4-2.2-1c-1.6-1.2-3.1-3.2-3.8-5.2
					c-0.3-0.8-0.4-1.5-0.4-2.1c0-0.7,0.1-1.2,0.4-1.6C6,17.4,6.4,17.1,6.9,17c0.8-0.1,1.9,0.2,3,1c0.7,0.5,1.5,1.2,2.1,2.1
					c0.1,0.1,0.1,0.3-0.1,0.5c-0.1,0.1-0.3,0.1-0.5-0.1c-0.6-0.8-1.3-1.4-2-1.9c-0.9-0.7-1.8-1-2.5-0.8c-0.3,0.1-0.6,0.2-0.8,0.5
					c-0.2,0.3-0.3,0.7-0.3,1.3c0,0.6,0.1,1.2,0.4,1.9c0.6,1.9,2.1,3.8,3.6,4.9c0.7,0.5,1.3,0.8,1.9,0.8c0.2,0,0.3,0.2,0.3,0.4
					C12,27.5,11.9,27.6,11.7,27.6z"/>
			</g>
		</g>
		<g>
			<g>
				<path fill="#231F20" d="M9,21.1c-0.1,0-0.1,0-0.2-0.1l-4.4-3.1c-0.1-0.1-0.2-0.3-0.1-0.4c0.1-0.1,0.3-0.2,0.4-0.1l4.4,3.1
					c0.1,0.1,0.2,0.3,0.1,0.4C9.2,21.1,9.1,21.1,9,21.1z"/>
			</g>
		</g>
		<g>
			<g>
				<path fill="#231F20" d="M9,23.4c-0.1,0-0.1,0-0.2-0.1l-4.4-3.1c-0.1-0.1-0.2-0.3-0.1-0.4c0.1-0.1,0.3-0.2,0.4-0.1l4.4,3.1
					c0.1,0.1,0.2,0.3,0.1,0.4C9.2,23.3,9.1,23.4,9,23.4z"/>
			</g>
		</g>
	</g>
	<g>
		<g>
			<polygon fill="#231F20" points="24.2,41.7 28.1,46.7 30.8,45.6 			"/>
		</g>
		<g>
			<path fill="#231F20" d="M28.1,47c-0.1,0-0.2,0-0.3-0.1L24,41.9c-0.1-0.1-0.1-0.3,0-0.4c0.1-0.1,0.3-0.1,0.4-0.1l6.5,3.9
				c0.1,0.1,0.2,0.2,0.2,0.3c0,0.1-0.1,0.2-0.2,0.3L28.2,47C28.2,47,28.1,47,28.1,47z M25.5,42.9l2.7,3.4l1.8-0.7L25.5,42.9z"/>
		</g>
	</g>
</g>
</svg>
