<?xml version="1.0" encoding="utf-8"?>
<!-- Generator: Adobe Illustrator 18.1.1, SVG Export Plug-In . SVG Version: 6.00 Build 0)  -->
<!DOCTYPE svg PUBLIC "-//W3C//DTD SVG 1.1//EN" "http://www.w3.org/Graphics/SVG/1.1/DTD/svg11.dtd">
<svg version="1.1" id="Layer_1" xmlns="http://www.w3.org/2000/svg" xmlns:xlink="http://www.w3.org/1999/xlink" x="0px" y="0px"
	 viewBox="0 0 55 65" enable-background="new 0 0 55 65" xml:space="preserve">
<g>
	<g>
		<g>
			<g>
				<polygon fill="#FFFFFF" points="31.1,51.8 33.1,48.4 32.4,44.5 29.3,41.9 25.4,41.9 22.3,44.5 21.7,48.4 23.6,51.8 27.4,53.2 
					31.1,51.8 				"/>
			</g>
			<g>
				<path fill="#231F20" d="M27.4,53.4C27.3,53.4,27.3,53.4,27.4,53.4L23.6,52c-0.1,0-0.1-0.1-0.1-0.1l-2-3.4c0-0.1,0-0.1,0-0.2
					l0.7-3.9c0-0.1,0-0.1,0.1-0.1l3-2.5c0,0,0.1-0.1,0.2-0.1h0l4,0c0.1,0,0.1,0,0.2,0.1l3,2.5c0,0,0.1,0.1,0.1,0.1l0.7,3.9
					c0,0.1,0,0.1,0,0.2l-2,3.4c0,0.1-0.1,0.1-0.1,0.1L27.4,53.4C27.4,53.4,27.4,53.4,27.4,53.4z M23.8,51.6l3.5,1.3l3.5-1.3l1.9-3.3
					l-0.7-3.7l-2.9-2.4l-3.8,0l-2.9,2.4l-0.7,3.7L23.8,51.6z"/>
			</g>
		</g>
		<g>
			<g>
				<path fill="#231F20" d="M30.8,51.8c-0.1,0-0.2-0.1-0.2-0.2c0-0.6-0.1-1.2-0.2-1.7c-0.2-0.7-0.9-0.9-0.9-0.9c0,0,0,0,0,0
					c-0.4-0.2-1.1-0.6-1.2-0.6c-0.1,0-0.1-0.1-0.1-0.2v-0.9c0-0.1,0-0.2,0.1-0.2c0.1-0.1,0.3-0.5,0.3-2.3c0-1.1-1-1.2-1.1-1.2h-0.3
					c-0.1,0-0.2-0.1-0.2-0.2s0.1-0.2,0.2-0.2h0.3c0,0,0,0,0,0c0,0,1.5,0.1,1.5,1.7c0,1.7-0.3,2.3-0.4,2.6V48c0.2,0.1,0.7,0.3,1,0.5
					c0.1,0.1,0.9,0.4,1.2,1.3c0.2,0.6,0.2,1.2,0.3,1.8C31,51.7,30.9,51.8,30.8,51.8C30.8,51.8,30.8,51.8,30.8,51.8z"/>
			</g>
		</g>
		<g>
			<g>
				<path fill="#231F20" d="M28.3,48.8c-0.1,0-0.2-0.1-0.2-0.2v-0.4c0-0.1,0.1-0.2,0.2-0.2c0.1,0,0.2,0.1,0.2,0.2v0.4
					C28.6,48.7,28.4,48.8,28.3,48.8z"/>
			</g>
		</g>
		<g>
			<g>
				
					<path fill="none" stroke="#221F1F" stroke-width="5" stroke-linecap="round" stroke-linejoin="round" stroke-miterlimit="10" d="
					M28.3,47.2"/>
			</g>
		</g>
		<g>
			<g>
				
					<path fill="none" stroke="#221F1F" stroke-width="5" stroke-linecap="round" stroke-linejoin="round" stroke-miterlimit="10" d="
					M27.2,43.4"/>
			</g>
		</g>
		<g>
			<g>
				<path fill="#231F20" d="M23.8,51.8C23.8,51.8,23.8,51.8,23.8,51.8c-0.2,0-0.3-0.1-0.2-0.3c0-0.1,0-0.3,0-0.4c0-0.5,0-1,0.2-1.5
					c0.2-0.6,0.6-1,1.2-1.2c0.3-0.2,0.8-0.4,1-0.5v-0.6c-0.1-0.2-0.4-1.3-0.4-2.6c0-1.6,1.5-1.7,1.5-1.7c0,0,0,0,0,0h0.3
					c0.1,0,0.2,0.1,0.2,0.2s-0.1,0.2-0.2,0.2h-0.3c0,0-0.3,0-0.6,0.2c-0.3,0.2-0.5,0.5-0.5,1c0,1.3,0.4,2.4,0.4,2.4c0,0,0,0.1,0,0.1
					v0.8c0,0.1-0.1,0.2-0.1,0.2c0,0-0.8,0.3-1.2,0.6c0,0,0,0,0,0c-0.4,0.2-0.8,0.5-0.9,0.9c-0.2,0.4-0.2,0.9-0.2,1.3
					c0,0.1,0,0.3,0,0.4C24,51.7,23.9,51.8,23.8,51.8z"/>
			</g>
		</g>
		<g>
			<g>
				
					<path fill="none" stroke="#221F1F" stroke-width="5" stroke-linecap="round" stroke-linejoin="round" stroke-miterlimit="10" d="
					M27.1,43.4"/>
			</g>
		</g>
	</g>
	<g>
		<g>
			<g>
				<polygon fill="#FFFFFF" points="16.2,41 18.2,37.6 17.5,33.7 14.5,31.1 10.5,31.1 7.5,33.7 6.8,37.6 8.8,41 12.5,42.3 16.2,41 
									"/>
			</g>
			<g>
				<path fill="#231F20" d="M12.5,42.6C12.5,42.6,12.4,42.6,12.5,42.6l-3.8-1.4c-0.1,0-0.1-0.1-0.1-0.1l-2-3.4c0-0.1,0-0.1,0-0.2
					l0.7-3.9c0-0.1,0-0.1,0.1-0.1l3-2.5c0,0,0.1-0.1,0.2-0.1h0l4,0c0.1,0,0.1,0,0.2,0.1l3,2.5c0,0,0.1,0.1,0.1,0.1l0.7,3.9
					c0,0.1,0,0.1,0,0.2l-2,3.4c0,0.1-0.1,0.1-0.1,0.1L12.5,42.6C12.5,42.6,12.5,42.6,12.5,42.6z M8.9,40.8l3.5,1.3l3.5-1.3l1.9-3.3
					l-0.7-3.7l-2.9-2.4l-3.8,0l-2.9,2.4l-0.7,3.7L8.9,40.8z"/>
			</g>
		</g>
		<g>
			<g>
				<path fill="#231F20" d="M15.9,41c-0.1,0-0.2-0.1-0.2-0.2c0-0.6-0.1-1.2-0.2-1.7c-0.2-0.7-0.9-0.9-0.9-0.9c0,0,0,0,0,0
					c-0.4-0.2-1.1-0.6-1.2-0.6c-0.1,0-0.1-0.1-0.1-0.2v-0.9c0-0.1,0-0.2,0.1-0.2c0.1-0.1,0.3-0.5,0.3-2.3c0-1.1-1-1.2-1.1-1.2h-0.3
					c-0.1,0-0.2-0.1-0.2-0.2s0.1-0.2,0.2-0.2h0.3c0,0,0,0,0,0c0,0,1.5,0.1,1.5,1.7c0,1.7-0.3,2.3-0.4,2.6v0.6c0.2,0.1,0.7,0.3,1,0.5
					c0.1,0.1,0.9,0.4,1.2,1.3c0.2,0.6,0.2,1.2,0.3,1.8C16.2,40.9,16.1,41,15.9,41C15.9,41,15.9,41,15.9,41z"/>
			</g>
		</g>
		<g>
			<g>
				<path fill="#231F20" d="M13.4,38c-0.1,0-0.2-0.1-0.2-0.2v-0.4c0-0.1,0.1-0.2,0.2-0.2c0.1,0,0.2,0.1,0.2,0.2v0.4
					C13.7,37.9,13.6,38,13.4,38z"/>
			</g>
		</g>
		<g>
			<g>
				
					<path fill="none" stroke="#221F1F" stroke-width="5" stroke-linecap="round" stroke-linejoin="round" stroke-miterlimit="10" d="
					M13.5,36.4"/>
			</g>
		</g>
		<g>
			<g>
				
					<path fill="none" stroke="#221F1F" stroke-width="5" stroke-linecap="round" stroke-linejoin="round" stroke-miterlimit="10" d="
					M12.3,32.6"/>
			</g>
		</g>
		<g>
			<g>
				<path fill="#231F20" d="M8.9,41C8.9,41,8.9,41,8.9,41c-0.2,0-0.3-0.1-0.2-0.3c0-0.1,0-0.3,0-0.4c0-0.5,0-1,0.2-1.5
					c0.2-0.6,0.6-1,1.2-1.2c0.3-0.2,0.8-0.4,1-0.5v-0.6c-0.1-0.2-0.4-1.3-0.4-2.6c0-1.6,1.5-1.7,1.5-1.7c0,0,0,0,0,0h0.3
					c0.1,0,0.2,0.1,0.2,0.2s-0.1,0.2-0.2,0.2h-0.3c0,0-0.3,0-0.6,0.2c-0.3,0.2-0.5,0.5-0.5,1c0,1.3,0.4,2.4,0.4,2.4c0,0,0,0.1,0,0.1
					v0.8c0,0.1-0.1,0.2-0.1,0.2c0,0-0.8,0.3-1.2,0.6c0,0,0,0,0,0c-0.4,0.2-0.8,0.5-0.9,0.9c-0.2,0.4-0.2,0.9-0.2,1.3
					c0,0.1,0,0.3,0,0.4C9.2,40.9,9,41,8.9,41z"/>
			</g>
		</g>
		<g>
			<g>
				
					<path fill="none" stroke="#221F1F" stroke-width="5" stroke-linecap="round" stroke-linejoin="round" stroke-miterlimit="10" d="
					M12.2,32.6"/>
			</g>
		</g>
	</g>
	<g>
		<g>
			<path fill="none" stroke="#221F1F" stroke-width="5" stroke-linecap="round" stroke-linejoin="round" stroke-miterlimit="10" d="
				M19.2,15.2"/>
		</g>
	</g>
	<g>
		<g>
			<g>
				<polygon fill="#FFFFFF" points="21.9,23.5 23.9,20.1 23.2,16.2 20.2,13.7 16.2,13.7 13.2,16.2 12.5,20.1 14.5,23.5 18.2,24.9 
					21.9,23.5 				"/>
			</g>
			<g>
				<path fill="#231F20" d="M18.2,25.1C18.2,25.1,18.1,25.1,18.2,25.1l-3.8-1.4c-0.1,0-0.1-0.1-0.1-0.1l-2-3.4c0-0.1,0-0.1,0-0.2
					l0.7-3.9c0-0.1,0-0.1,0.1-0.1l3-2.5c0,0,0.1-0.1,0.2-0.1h0l4,0c0.1,0,0.1,0,0.2,0.1l3,2.5c0,0,0.1,0.1,0.1,0.1l0.7,3.9
					c0,0.1,0,0.1,0,0.2l-2,3.4c0,0.1-0.1,0.1-0.1,0.1L18.2,25.1C18.2,25.1,18.2,25.1,18.2,25.1z M14.6,23.3l3.5,1.3l3.5-1.3l1.9-3.3
					L23,16.3l-2.9-2.4l-3.8,0l-2.9,2.4L12.8,20L14.6,23.3z"/>
			</g>
		</g>
		<g>
			<g>
				<path fill="#231F20" d="M21.6,23.6c-0.1,0-0.2-0.1-0.2-0.2c0-0.6-0.1-1.2-0.2-1.7c-0.2-0.7-0.9-0.9-0.9-0.9c0,0,0,0,0,0
					c-0.4-0.2-1.1-0.6-1.2-0.6c-0.1,0-0.1-0.1-0.1-0.2V19c0-0.1,0-0.2,0.1-0.2c0.1-0.1,0.3-0.5,0.3-2.3c0-1.1-1-1.2-1.1-1.2H18
					c-0.1,0-0.2-0.1-0.2-0.2c0-0.1,0.1-0.2,0.2-0.2h0.3c0,0,0,0,0,0c0,0,1.5,0.1,1.5,1.7c0,1.7-0.3,2.3-0.4,2.6v0.6
					c0.2,0.1,0.7,0.3,1,0.5c0.1,0.1,0.9,0.4,1.2,1.3c0.2,0.6,0.2,1.2,0.3,1.8C21.9,23.4,21.8,23.6,21.6,23.6
					C21.6,23.6,21.6,23.6,21.6,23.6z"/>
			</g>
		</g>
		<g>
			<g>
				
					<path fill="none" stroke="#221F1F" stroke-width="5" stroke-linecap="round" stroke-linejoin="round" stroke-miterlimit="10" d="
					M19.2,19"/>
			</g>
		</g>
		<g>
			<g>
				<path fill="#231F20" d="M14.6,23.6C14.6,23.6,14.6,23.6,14.6,23.6c-0.2,0-0.3-0.1-0.2-0.3c0-0.1,0-0.3,0-0.4c0-0.5,0-1,0.2-1.5
					c0.2-0.6,0.6-1,1.2-1.2c0.3-0.2,0.8-0.4,1-0.5v-0.6c-0.1-0.2-0.4-1.3-0.4-2.6c0-1.6,1.5-1.7,1.5-1.7c0,0,0,0,0,0h0.3
					c0.1,0,0.2,0.1,0.2,0.2c0,0.1-0.1,0.2-0.2,0.2H18c0,0-0.3,0-0.6,0.2c-0.3,0.2-0.5,0.5-0.5,1c0,1.3,0.4,2.4,0.4,2.4
					c0,0,0,0.1,0,0.1v0.8c0,0.1-0.1,0.2-0.1,0.2c0,0-0.8,0.3-1.2,0.6c0,0,0,0,0,0c-0.4,0.2-0.8,0.5-0.9,0.9
					c-0.2,0.4-0.2,0.9-0.2,1.3c0,0.1,0,0.3,0,0.4C14.9,23.5,14.7,23.6,14.6,23.6z"/>
			</g>
		</g>
	</g>
	<g>
		<g>
			<path fill="none" stroke="#221F1F" stroke-width="5" stroke-linecap="round" stroke-linejoin="round" stroke-miterlimit="10" d="
				M19.1,15.2"/>
		</g>
	</g>
	<g>
		<g>
			<g>
				<polygon fill="#FFFFFF" points="46.2,41.1 48.2,37.7 47.5,33.8 44.5,31.2 40.6,31.2 37.5,33.8 36.8,37.7 38.8,41.1 42.5,42.5 
					46.2,41.1 				"/>
			</g>
			<g>
				<path fill="#231F20" d="M42.5,42.7C42.5,42.7,42.5,42.7,42.5,42.7l-3.8-1.4c-0.1,0-0.1-0.1-0.1-0.1l-2-3.4c0-0.1,0-0.1,0-0.2
					l0.7-3.9c0-0.1,0-0.1,0.1-0.1l3-2.5c0,0,0.1-0.1,0.2-0.1h0l4,0c0.1,0,0.1,0,0.2,0.1l3,2.5c0,0,0.1,0.1,0.1,0.1l0.7,3.9
					c0,0.1,0,0.1,0,0.2l-2,3.4c0,0.1-0.1,0.1-0.1,0.1L42.5,42.7C42.6,42.7,42.6,42.7,42.5,42.7z M39,40.9l3.5,1.3l3.5-1.3l1.9-3.3
					l-0.7-3.7l-2.9-2.4l-3.8,0l-2.9,2.4l-0.7,3.7L39,40.9z"/>
			</g>
		</g>
		<g>
			<g>
				<path fill="#231F20" d="M46,41.1c-0.1,0-0.2-0.1-0.2-0.2c0-0.6-0.1-1.2-0.2-1.7c-0.2-0.7-0.9-0.9-0.9-0.9c0,0,0,0,0,0
					c-0.4-0.2-1.1-0.6-1.2-0.6c-0.1,0-0.1-0.1-0.1-0.2v-0.9c0-0.1,0-0.2,0.1-0.2c0.1-0.1,0.3-0.5,0.3-2.3c0-1.1-1-1.2-1.1-1.2h-0.3
					c-0.1,0-0.2-0.1-0.2-0.2s0.1-0.2,0.2-0.2h0.3c0,0,0,0,0,0c0,0,1.5,0.1,1.5,1.7c0,1.7-0.3,2.3-0.4,2.6v0.6c0.2,0.1,0.7,0.3,1,0.5
					c0.1,0.1,0.9,0.4,1.2,1.3c0.2,0.6,0.2,1.2,0.3,1.8C46.2,41,46.1,41.1,46,41.1C46,41.1,46,41.1,46,41.1z"/>
			</g>
		</g>
		<g>
			<g>
				<path fill="#231F20" d="M43.5,38.1c-0.1,0-0.2-0.1-0.2-0.2v-0.4c0-0.1,0.1-0.2,0.2-0.2s0.2,0.1,0.2,0.2v0.4
					C43.7,38,43.6,38.1,43.5,38.1z"/>
			</g>
		</g>
		<g>
			<g>
				
					<path fill="none" stroke="#221F1F" stroke-width="5" stroke-linecap="round" stroke-linejoin="round" stroke-miterlimit="10" d="
					M42.4,32.7"/>
			</g>
		</g>
		<g>
			<g>
				<path fill="#231F20" d="M38.9,41.1C38.9,41.1,38.9,41.1,38.9,41.1c-0.2,0-0.3-0.1-0.2-0.3c0-0.1,0-0.3,0-0.4c0-0.5,0-1,0.2-1.5
					c0.2-0.6,0.6-1,1.2-1.2c0.3-0.2,0.8-0.4,1-0.5v-0.6c-0.1-0.2-0.4-1.3-0.4-2.6c0-1.6,1.5-1.7,1.5-1.7c0,0,0,0,0,0h0.3
					c0.1,0,0.2,0.1,0.2,0.2s-0.1,0.2-0.2,0.2h-0.3c0,0-0.3,0-0.6,0.2c-0.3,0.2-0.5,0.5-0.5,1c0,1.3,0.4,2.4,0.4,2.4c0,0,0,0.1,0,0.1
					v0.8c0,0.1-0.1,0.2-0.1,0.2c0,0-0.8,0.3-1.2,0.6c0,0,0,0,0,0c-0.4,0.2-0.8,0.5-0.9,0.9c-0.2,0.4-0.2,0.9-0.2,1.3
					c0,0.1,0,0.3,0,0.4C39.2,41,39.1,41.1,38.9,41.1z"/>
			</g>
		</g>
		<g>
			<g>
				
					<path fill="none" stroke="#221F1F" stroke-width="5" stroke-linecap="round" stroke-linejoin="round" stroke-miterlimit="10" d="
					M42.2,32.7"/>
			</g>
		</g>
	</g>
	<g>
		<g>
			<path fill="none" stroke="#221F1F" stroke-width="5" stroke-linecap="round" stroke-linejoin="round" stroke-miterlimit="10" d="
				M34,15.1"/>
		</g>
	</g>
	<g>
		<g>
			<g>
				<polygon fill="#FFFFFF" points="40.2,23.6 42.2,20.2 41.5,16.3 38.5,13.7 34.5,13.7 31.5,16.3 30.8,20.2 32.8,23.6 36.5,25 
					40.2,23.6 				"/>
			</g>
			<g>
				<path fill="#231F20" d="M36.5,25.2C36.4,25.2,36.4,25.2,36.5,25.2l-3.8-1.4c-0.1,0-0.1-0.1-0.1-0.1l-2-3.4c0-0.1,0-0.1,0-0.2
					l0.7-3.9c0-0.1,0-0.1,0.1-0.1l3-2.5c0,0,0.1-0.1,0.2-0.1h0l4,0c0.1,0,0.1,0,0.2,0.1l3,2.5c0,0,0.1,0.1,0.1,0.1l0.7,3.9
					c0,0.1,0,0.1,0,0.2l-2,3.4c0,0.1-0.1,0.1-0.1,0.1L36.5,25.2C36.5,25.2,36.5,25.2,36.5,25.2z M32.9,23.4l3.5,1.3l3.5-1.3l1.9-3.3
					l-0.7-3.7L38.4,14l-3.8,0l-2.9,2.4L31,20.1L32.9,23.4z"/>
			</g>
		</g>
		<g>
			<g>
				<path fill="#231F20" d="M39.9,23.6c-0.1,0-0.2-0.1-0.2-0.2c0-0.6-0.1-1.2-0.2-1.7c-0.2-0.7-0.9-0.9-0.9-0.9c0,0,0,0,0,0
					c-0.4-0.2-1.1-0.6-1.2-0.6c-0.1,0-0.1-0.1-0.1-0.2v-0.9c0-0.1,0-0.1,0.1-0.2c0,0,0.4-0.4,0.4-2.3c0-0.5-0.2-0.8-0.5-1
					c-0.3-0.1-0.5-0.2-0.6-0.2h-0.3c-0.1,0-0.2-0.1-0.2-0.2c0-0.1,0.1-0.2,0.2-0.2h0.3c0,0,0,0,0,0c0,0,1.5,0.1,1.5,1.7
					c0,1.7-0.3,2.3-0.4,2.6v0.6c0.2,0.1,0.7,0.3,1,0.5c0.1,0.1,0.9,0.4,1.2,1.3c0.2,0.6,0.2,1.2,0.3,1.8
					C40.2,23.5,40.1,23.6,39.9,23.6C39.9,23.6,39.9,23.6,39.9,23.6z"/>
			</g>
		</g>
		<g>
			<g>
				<path fill="#231F20" d="M37.4,20.6c-0.1,0-0.2-0.1-0.2-0.2v-0.4c0-0.1,0.1-0.2,0.2-0.2s0.2,0.1,0.2,0.2v0.4
					C37.7,20.5,37.6,20.6,37.4,20.6z"/>
			</g>
		</g>
		<g>
			<g>
				
					<path fill="none" stroke="#221F1F" stroke-width="5" stroke-linecap="round" stroke-linejoin="round" stroke-miterlimit="10" d="
					M37.5,19"/>
			</g>
		</g>
		<g>
			<g>
				<path fill="#231F20" d="M32.9,23.6C32.9,23.6,32.9,23.6,32.9,23.6c-0.2,0-0.3-0.1-0.2-0.3c0-0.1,0-0.3,0-0.4c0-0.5,0-1,0.2-1.5
					c0.2-0.6,0.6-1,1.2-1.2c0.3-0.2,0.8-0.4,1-0.5v-0.6c-0.1-0.2-0.4-1.3-0.4-2.6c0-1.6,1.5-1.7,1.5-1.7c0,0,0,0,0,0h0.3
					c0.1,0,0.2,0.1,0.2,0.2c0,0.1-0.1,0.2-0.2,0.2h-0.3c0,0-0.3,0-0.6,0.2c-0.3,0.2-0.5,0.5-0.5,1c0,1.3,0.4,2.4,0.4,2.4
					c0,0,0,0.1,0,0.1v0.8c0,0.1-0.1,0.2-0.1,0.2c0,0-0.8,0.3-1.2,0.6c0,0,0,0,0,0c-0.4,0.2-0.8,0.5-0.9,0.9
					c-0.2,0.4-0.2,0.9-0.2,1.3c0,0.1,0,0.3,0,0.4C33.1,23.5,33,23.6,32.9,23.6z"/>
			</g>
		</g>
	</g>
	<g>
		<g>
			<path fill="none" stroke="#221F1F" stroke-width="5" stroke-linecap="round" stroke-linejoin="round" stroke-miterlimit="10" d="
				M33.9,15.1"/>
		</g>
	</g>
	<g>
		<g>
			<g>
				<g>
					<path fill="#231F20" d="M17.9,35.3c-0.1,0-0.2-0.1-0.2-0.2c0-0.1,0-0.3,0.2-0.3l9.3-3c0.1,0,0.3,0,0.3,0.2c0,0.1,0,0.3-0.2,0.3
						L17.9,35.3C18,35.3,17.9,35.3,17.9,35.3z"/>
				</g>
			</g>
		</g>
		<g>
			<g>
				<g>
					<path fill="#231F20" d="M27.4,32c-0.1,0-0.2,0-0.2-0.1l-5.8-8c-0.1-0.1-0.1-0.3,0.1-0.3c0.1-0.1,0.3-0.1,0.3,0.1l5.8,8
						c0.1,0.1,0.1,0.3-0.1,0.3C27.5,32,27.4,32,27.4,32z"/>
				</g>
			</g>
		</g>
		<g>
			<g>
				<g>
					<path fill="#231F20" d="M27.6,32c-0.1,0-0.1,0-0.1,0c-0.1-0.1-0.1-0.2-0.1-0.3l5.8-8c0.1-0.1,0.2-0.1,0.3-0.1
						c0.1,0.1,0.1,0.2,0.1,0.3l-5.8,8C27.8,31.9,27.7,32,27.6,32z"/>
				</g>
			</g>
		</g>
		<g>
			<g>
				<g>
					<path fill="#231F20" d="M37,35.3C37,35.3,37,35.3,37,35.3l-9.4-3c-0.1,0-0.2-0.2-0.2-0.3c0-0.1,0.2-0.2,0.3-0.2l9.3,3
						c0.1,0,0.2,0.2,0.2,0.3C37.2,35.2,37.1,35.3,37,35.3z"/>
				</g>
			</g>
		</g>
		<g>
			<g>
				<g>
					<path fill="#231F20" d="M27.5,42.2c-0.1,0-0.2-0.1-0.2-0.2v-9.8c0-0.1,0.1-0.2,0.2-0.2c0.1,0,0.2,0.1,0.2,0.2v9.8
						C27.7,42.1,27.6,42.2,27.5,42.2z"/>
				</g>
			</g>
		</g>
	</g>
</g>
</svg>
