<?xml version="1.0" encoding="utf-8"?>
<!-- Generator: Adobe Illustrator 18.1.1, SVG Export Plug-In . SVG Version: 6.00 Build 0)  -->
<!DOCTYPE svg PUBLIC "-//W3C//DTD SVG 1.1//EN" "http://www.w3.org/Graphics/SVG/1.1/DTD/svg11.dtd">
<svg version="1.1" id="Layer_1" xmlns="http://www.w3.org/2000/svg" xmlns:xlink="http://www.w3.org/1999/xlink" x="0px" y="0px"
	 viewBox="0 0 55 65" enable-background="new 0 0 55 65" xml:space="preserve">
<g>
	<g>
		<g>
			<g>
				<path fill="#231F20" d="M52.9,23.5c-0.1,0-0.1,0-0.2-0.1l-1.2-1.2c-0.1-0.1-0.1-0.2,0-0.3c0.1-0.1,0.2-0.1,0.3,0l1.2,1.2
					c0.1,0.1,0.1,0.2,0,0.3C53,23.5,52.9,23.5,52.9,23.5z"/>
			</g>
		</g>
	</g>
	<g>
		<g>
			<g>
				<g>
					<polygon fill="#231F20" points="50.7,25.3 36.5,34 37,32.4 35.7,29.9 34.1,29 33.5,29.2 33.1,28.4 32.4,28.7 32,27.8 31.3,28 
						30.8,27.3 27.8,28.2 26.2,27.3 10,36.7 7,39.2 5.6,43.2 7,45.7 8.6,46.6 9.3,46.4 9.7,47.2 10.4,46.9 10.9,47.8 11.4,47.6 
						11.8,48.3 13.4,49.2 16.4,48.3 32.6,38.9 35.7,36.4 36.1,35.1 36.1,35.1 38.3,34.5 52.1,25.6 54.4,24 					"/>
				</g>
			</g>
			<g>
				<g>
					<path fill="#231F20" d="M13.4,49.5c0,0-0.1,0-0.1,0l-1.6-0.9c0,0-0.1-0.1-0.1-0.1l-0.3-0.6L10.9,48c-0.1,0-0.2,0-0.3-0.1
						l-0.4-0.7l-0.5,0.2c-0.1,0-0.2,0-0.3-0.1l-0.3-0.6l-0.5,0.2c-0.1,0-0.1,0-0.2,0l-1.6-0.9c0,0-0.1-0.1-0.1-0.1l-1.4-2.5
						c0-0.1,0-0.1,0-0.2l1.3-4c0,0,0-0.1,0.1-0.1l3-2.5c0,0,0,0,0,0l16.2-9.4c0.1,0,0.2,0,0.2,0l1.5,0.9l2.9-0.9
						c0.1,0,0.2,0,0.3,0.1l0.3,0.6l0.5-0.2c0.1,0,0.2,0,0.3,0.1l0.4,0.7l0.5-0.2c0.1,0,0.2,0,0.3,0.1l0.3,0.6l0.4-0.1
						c0.1,0,0.1,0,0.2,0l1.6,0.9c0,0,0.1,0.1,0.1,0.1l1.4,2.5c0,0.1,0,0.1,0,0.2l-0.4,1.1l13.7-8.4c0,0,0,0,0,0l3.7-1.3
						c0.1,0,0.2,0,0.3,0.1c0.1,0.1,0,0.2-0.1,0.3l-2.3,1.6l-13.8,8.9c0,0,0,0-0.1,0l-2.1,0.6l-0.4,1.2c0,0,0,0.1-0.1,0.1l-3,2.6
						c0,0,0,0,0,0l-16.2,9.4c0,0,0,0,0,0L13.4,49.5C13.4,49.5,13.4,49.5,13.4,49.5z M12,48.2l1.4,0.8l2.9-0.9l16.2-9.3l3-2.5
						l0.4-1.2c0-0.1,0.1-0.1,0.2-0.2l2.2-0.6L52,25.4l0.9-0.6l-2.1,0.7l-14.2,8.7c-0.1,0.1-0.2,0-0.3,0c-0.1-0.1-0.1-0.2-0.1-0.3
						l0.5-1.6l-1.3-2.3l-1.4-0.8l-0.5,0.1c-0.1,0-0.2,0-0.3-0.1L33,28.7l-0.5,0.2c-0.1,0-0.2,0-0.3-0.1l-0.4-0.7l-0.5,0.2
						c-0.1,0-0.2,0-0.3-0.1l-0.3-0.6l-2.9,0.9c-0.1,0-0.1,0-0.2,0l-1.4-0.8l-16.1,9.3l-3,2.5l-1.3,3.9l1.3,2.3l1.4,0.8l0.6-0.2
						c0.1,0,0.2,0,0.3,0.1l0.3,0.6l0.5-0.2c0.1,0,0.2,0,0.3,0.1l0.4,0.7l0.4-0.1c0.1,0,0.2,0,0.3,0.1L12,48.2z"/>
				</g>
			</g>
		</g>
		<g>
			<g enable-background="new    ">
				<g>
					<g>
						<g>
							<g>
								<polyline fill="#FFFFFF" points="37,16.8 37,19.2 35.2,19.1 35.2,21.5 33.4,21.4 33.4,23.8 31.6,23.7 31.6,26.1 29.8,25.9 
									29.8,28.3 28,28.2 28,30.6 29.2,32.1 40.4,16.7 39.7,15.8 38.8,16.9 37,16.8 								"/>
							</g>
						</g>
						<g>
							<g>
								<path fill="#231F20" d="M29.2,32.4c-0.1,0-0.1,0-0.2-0.1l-1.1-1.5c0,0,0-0.1,0-0.1l0-2.4c0-0.1,0-0.1,0.1-0.2
									c0,0,0.1-0.1,0.2-0.1l1.5,0.1l0-2.1c0-0.1,0-0.1,0.1-0.2c0,0,0.1-0.1,0.2-0.1l1.5,0.1l0-2.1c0-0.1,0-0.1,0.1-0.2
									c0,0,0.1-0.1,0.2-0.1l1.5,0.1l0-2.1c0-0.1,0-0.1,0.1-0.2c0,0,0.1-0.1,0.2-0.1l1.5,0.1l0-2.1c0-0.1,0-0.1,0.1-0.2
									c0,0,0.1-0.1,0.2-0.1l1.5,0.1l0-2.1c0-0.1,0-0.1,0.1-0.2c0,0,0.1-0.1,0.2-0.1l1.7,0.1l0.8-1.1c0-0.1,0.1-0.1,0.2-0.1
									c0.1,0,0.1,0,0.2,0.1l0.7,0.9c0.1,0.1,0.1,0.2,0,0.3L29.4,32.3C29.3,32.3,29.3,32.4,29.2,32.4
									C29.2,32.4,29.2,32.4,29.2,32.4z M28.3,30.5l0.9,1.2l10.9-15l-0.4-0.6l-0.7,0.9c0,0.1-0.1,0.1-0.2,0.1l-1.5-0.1l0,2.1
									c0,0.1,0,0.1-0.1,0.2c0,0-0.1,0.1-0.2,0.1l-1.5-0.1l0,2.1c0,0.1,0,0.1-0.1,0.2c0,0-0.1,0.1-0.2,0.1l-1.5-0.1l0,2.1
									c0,0.1,0,0.1-0.1,0.2c0,0-0.1,0.1-0.2,0.1l-1.5-0.1l0,2.1c0,0.1,0,0.1-0.1,0.2c0,0-0.1,0.1-0.2,0.1l-1.5-0.1l0,2.1
									c0,0.1,0,0.1-0.1,0.2c0,0-0.1,0.1-0.2,0.1l-1.5-0.1L28.3,30.5z"/>
							</g>
						</g>
					</g>
				</g>
			</g>
		</g>
		<g>
			<g enable-background="new    ">
				<g>
					<g>
						<g>
							<g>
								<polygon fill="#FFFFFF" points="26.3,27.7 24.7,26.8 27.8,25.9 29.3,26.8 								"/>
							</g>
						</g>
						<g>
							<g>
								<path fill="#231F20" d="M26.3,28c0,0-0.1,0-0.1,0L24.6,27c-0.1,0-0.1-0.1-0.1-0.2c0-0.1,0.1-0.2,0.2-0.2l3-1
									c0.1,0,0.1,0,0.2,0l1.6,0.9c0.1,0,0.1,0.1,0.1,0.2c0,0.1-0.1,0.2-0.2,0.2L26.3,28C26.3,28,26.3,28,26.3,28z M25.3,26.9
									l1,0.6l2.4-0.8l-1-0.6L25.3,26.9z"/>
							</g>
						</g>
					</g>
				</g>
				<g>
					<g>
						<g>
							<g>
								<polygon fill="#FFFFFF" points="10,37.1 8.5,36.2 24.7,26.8 26.3,27.7 								"/>
							</g>
						</g>
						<g>
							<g>
								<path fill="#231F20" d="M10,37.3c0,0-0.1,0-0.1,0l-1.6-0.9c-0.1,0-0.1-0.1-0.1-0.2c0-0.1,0-0.2,0.1-0.2l16.2-9.4
									c0.1,0,0.2,0,0.2,0l1.6,0.9c0.1,0,0.1,0.1,0.1,0.2c0,0.1,0,0.2-0.1,0.2l-16.2,9.4C10.1,37.3,10.1,37.3,10,37.3z M9,36.2
									l1.1,0.6l15.8-9.1l-1.1-0.6L9,36.2z"/>
							</g>
						</g>
					</g>
				</g>
				<g>
					<g>
						<g>
							<g>
								<polygon fill="#FFFFFF" points="7,46.1 5.5,45.2 4.1,42.7 5.7,43.7 								"/>
							</g>
						</g>
						<g>
							<g>
								<path fill="#231F20" d="M7,46.3c0,0-0.1,0-0.1,0l-1.6-0.9c0,0-0.1-0.1-0.1-0.1l-1.4-2.5c-0.1-0.1,0-0.2,0-0.3
									c0.1-0.1,0.2-0.1,0.3,0l1.6,0.9c0,0,0.1,0.1,0.1,0.1L7.2,46c0,0,0,0.1,0,0.1C7.3,46.2,7.2,46.3,7,46.3C7,46.3,7,46.3,7,46.3
									z M5.7,45l0.8,0.4l-0.9-1.7l-0.8-0.4L5.7,45z"/>
							</g>
						</g>
					</g>
				</g>
				<g>
					<g>
						<g>
							<g>
								<polygon fill="#FFFFFF" points="26.3,27.7 29.3,26.8 30.7,29.2 29.3,33.2 26.3,35.8 10.1,45.2 7,46.1 5.7,43.7 7,39.6 
									10,37.1 								"/>
							</g>
						</g>
						<g>
							<g>
								<path fill="#231F20" d="M7,46.3c-0.1,0-0.2,0-0.2-0.1l-1.4-2.5c0-0.1,0-0.1,0-0.2l1.3-4c0,0,0-0.1,0.1-0.1l3-2.5
									c0,0,0,0,0,0l16.2-9.4c0,0,0,0,0,0l3-1c0.1,0,0.2,0,0.3,0.1l1.4,2.5c0,0.1,0,0.1,0,0.2l-1.3,4c0,0,0,0.1-0.1,0.1l-3,2.6
									c0,0,0,0,0,0l-16.2,9.4c0,0,0,0,0,0L7,46.3C7.1,46.3,7.1,46.3,7,46.3z M5.9,43.6l1.2,2.2l2.8-0.9l16.2-9.3l3-2.5l1.3-3.9
									L29.2,27l-2.8,0.9l-16.2,9.3l-3,2.5L5.9,43.6z"/>
							</g>
						</g>
					</g>
				</g>
				<g>
					<g>
						<g>
							<g>
								<polygon fill="#FFFFFF" points="5.7,43.7 4.1,42.7 5.5,38.7 7,39.6 								"/>
							</g>
						</g>
						<g>
							<g>
								<path fill="#231F20" d="M5.7,43.9c0,0-0.1,0-0.1,0L4,42.9c-0.1-0.1-0.1-0.2-0.1-0.3l1.3-4c0-0.1,0.1-0.1,0.1-0.1
									c0.1,0,0.1,0,0.2,0l1.6,0.9c0.1,0.1,0.1,0.2,0.1,0.3l-1.3,4C5.9,43.8,5.8,43.8,5.7,43.9C5.7,43.9,5.7,43.9,5.7,43.9z
									 M4.4,42.6l1.1,0.7l1.2-3.6l-1.1-0.7L4.4,42.6z"/>
							</g>
						</g>
					</g>
				</g>
				<g>
					<g>
						<g>
							<g>
								<polygon fill="#FFFFFF" points="7,39.6 5.5,38.7 8.5,36.2 10,37.1 								"/>
							</g>
						</g>
						<g>
							<g>
								<path fill="#231F20" d="M7,39.9c0,0-0.1,0-0.1,0l-1.6-0.9c-0.1,0-0.1-0.1-0.1-0.2c0-0.1,0-0.2,0.1-0.2l3-2.5
									c0.1-0.1,0.2-0.1,0.3,0l1.6,0.9c0.1,0,0.1,0.1,0.1,0.2c0,0.1,0,0.2-0.1,0.2l-3,2.5C7.1,39.9,7.1,39.9,7,39.9z M5.9,38.7
									L7,39.3l2.6-2.2l-1.1-0.7L5.9,38.7z"/>
							</g>
						</g>
					</g>
				</g>
			</g>
		</g>
		<g enable-background="new    ">
			<g>
				<g>
					<g>
						<g>
							<polygon fill="#FFFFFF" points="27.4,28.3 30.5,27.3 31.8,29.8 30.5,33.8 27.4,36.3 11.2,45.7 8.2,46.7 6.8,44.2 8.2,40.2 
								11.2,37.7 							"/>
						</g>
					</g>
					<g>
						<g>
							<path fill="#231F20" d="M8.2,46.9c-0.1,0-0.2,0-0.2-0.1l-1.4-2.5c0-0.1,0-0.1,0-0.2l1.3-4C8,40.1,8,40,8,40l3-2.5
								c0,0,0,0,0,0l16.2-9.4c0,0,0,0,0,0l3-1c0.1,0,0.2,0,0.3,0.1l1.4,2.5c0,0.1,0,0.1,0,0.2l-1.3,4c0,0,0,0.1-0.1,0.1l-3,2.6
								c0,0,0,0,0,0l-16.2,9.4c0,0,0,0,0,0L8.2,46.9C8.2,46.9,8.2,46.9,8.2,46.9z M7.1,44.2l1.2,2.2l2.8-0.9l16.2-9.3l3-2.5l1.3-3.9
								l-1.2-2.2l-2.8,0.9l-16.2,9.3l-3,2.5L7.1,44.2z"/>
						</g>
					</g>
				</g>
			</g>
		</g>
		<g enable-background="new    ">
			<g>
				<g>
					<g>
						<g>
							<polygon fill="#FFFFFF" points="28.6,28.9 31.6,27.9 33,30.4 31.6,34.4 28.6,37 12.4,46.3 9.4,47.3 8,44.8 9.3,40.8 
								12.4,38.3 							"/>
						</g>
					</g>
					<g>
						<g>
							<path fill="#231F20" d="M9.4,47.5c-0.1,0-0.2,0-0.2-0.1l-1.4-2.5c0-0.1,0-0.1,0-0.2l1.3-4c0,0,0-0.1,0.1-0.1l3-2.5
								c0,0,0,0,0,0l16.2-9.4c0,0,0,0,0,0l3-1c0.1,0,0.2,0,0.3,0.1l1.4,2.5c0,0.1,0,0.1,0,0.2l-1.3,4c0,0,0,0.1-0.1,0.1l-3,2.6
								c0,0,0,0,0,0l-16.2,9.4c0,0,0,0,0,0L9.4,47.5C9.4,47.5,9.4,47.5,9.4,47.5z M8.2,44.8L9.5,47l2.8-0.9l16.2-9.3l3-2.5l1.3-3.9
								l-1.2-2.2l-2.8,0.9l-16.2,9.3l-3,2.5L8.2,44.8z"/>
						</g>
					</g>
				</g>
			</g>
		</g>
		<g>
			<g>
				<g>
					<polygon fill="#FFFFFF" points="54.7,20.6 54,20.2 51.3,19.9 47.4,20.5 34.7,26.8 23.1,37.4 24.7,37 23.8,37.8 34.6,34.6 
						36.8,34 52.5,24.3 54.7,22.5 					"/>
				</g>
			</g>
			<g>
				<g>
					<path fill="#231F20" d="M23.8,38c-0.1,0-0.2,0-0.2-0.1c-0.1-0.1,0-0.2,0-0.3l0.2-0.1l-0.7,0.2c-0.1,0-0.2,0-0.3-0.1
						c0-0.1,0-0.2,0-0.3l11.6-10.6c0,0,0,0,0.1,0l12.7-6.3c0,0,0,0,0.1,0l3.9-0.7c0,0,0,0,0.1,0L54,20c0,0,0.1,0,0.1,0l0.7,0.4
						c0.1,0,0.1,0.1,0.1,0.2l0,1.9c0,0.1,0,0.1-0.1,0.2l-2.3,1.8c0,0,0,0,0,0l-15.7,9.7c0,0,0,0-0.1,0l-2.2,0.6L23.8,38
						C23.9,38,23.9,38,23.8,38z M24.7,36.8c0.1,0,0.2,0,0.2,0.1c0,0.1,0,0.2,0,0.3l-0.1,0.1l9.8-2.9l2.2-0.6l15.6-9.7l2.2-1.7l0-1.7
						l-0.6-0.3l-2.6-0.3l-3.8,0.6L34.9,27L23.9,37L24.7,36.8C24.6,36.8,24.7,36.8,24.7,36.8z"/>
				</g>
			</g>
		</g>
		<g>
			<g enable-background="new    ">
				<g>
					<g>
						<g>
							
								<path fill="#FFFFFF" stroke="#221F1F" stroke-width="5" stroke-linecap="round" stroke-linejoin="round" stroke-miterlimit="10" d="
								M52.7,24.7"/>
						</g>
					</g>
				</g>
				<g>
					<g>
						<g>
							
								<path fill="#FFFFFF" stroke="#221F1F" stroke-width="5" stroke-linecap="round" stroke-linejoin="round" stroke-miterlimit="10" d="
								M24.1,38.2"/>
						</g>
					</g>
				</g>
				<g>
					<g>
						<g>
							<line fill="#FFFFFF" x1="48.4" y1="21.4" x2="35.7" y2="27.7"/>
						</g>
					</g>
					<g>
						<g>
							<path fill="#231F20" d="M35.7,27.9c-0.1,0-0.2,0-0.2-0.1c-0.1-0.1,0-0.3,0.1-0.3l12.7-6.3c0.1-0.1,0.3,0,0.3,0.1
								c0.1,0.1,0,0.3-0.1,0.3l-12.7,6.3C35.8,27.9,35.8,27.9,35.7,27.9z"/>
						</g>
					</g>
				</g>
			</g>
		</g>
		<g>
			<g enable-background="new    ">
				<g>
					<g>
						<g>
							<g>
								<polygon fill="#FFFFFF" points="31.1,30.4 29.5,29.5 32.6,28.5 34.1,29.4 								"/>
							</g>
						</g>
						<g>
							<g>
								<path fill="#231F20" d="M31.1,30.6c0,0-0.1,0-0.1,0l-1.6-0.9c-0.1,0-0.1-0.1-0.1-0.2c0-0.1,0.1-0.2,0.2-0.2l3-1
									c0.1,0,0.1,0,0.2,0l1.6,0.9c0.1,0,0.1,0.1,0.1,0.2c0,0.1-0.1,0.2-0.2,0.2L31.1,30.6C31.1,30.6,31.1,30.6,31.1,30.6z
									 M30.1,29.5l1,0.6l2.4-0.8l-1-0.6L30.1,29.5z"/>
							</g>
						</g>
					</g>
				</g>
				<g>
					<g>
						<g>
							<g>
								<polygon fill="#FFFFFF" points="14.9,39.7 13.3,38.8 29.5,29.5 31.1,30.4 								"/>
							</g>
						</g>
						<g>
							<g>
								<path fill="#231F20" d="M14.9,40c0,0-0.1,0-0.1,0L13.2,39c-0.1,0-0.1-0.1-0.1-0.2c0-0.1,0-0.2,0.1-0.2l16.2-9.4
									c0.1,0,0.2,0,0.2,0l1.6,0.9c0.1,0,0.1,0.1,0.1,0.2c0,0.1,0,0.2-0.1,0.2L15,39.9C14.9,40,14.9,40,14.9,40z M13.8,38.8
									l1.1,0.6l15.8-9.1l-1.1-0.6L13.8,38.8z"/>
							</g>
						</g>
					</g>
				</g>
				<g>
					<g>
						<g>
							<g>
								<polygon fill="#FFFFFF" points="11.9,48.7 10.3,47.8 8.9,45.4 10.5,46.3 								"/>
							</g>
						</g>
						<g>
							<g>
								<path fill="#231F20" d="M11.9,49c0,0-0.1,0-0.1,0L10.2,48c0,0-0.1-0.1-0.1-0.1l-1.4-2.5c-0.1-0.1,0-0.2,0-0.3
									c0.1-0.1,0.2-0.1,0.3,0l1.6,0.9c0,0,0.1,0.1,0.1,0.1l1.4,2.4c0,0,0,0.1,0,0.1C12.1,48.9,12,49,11.9,49
									C11.9,49,11.9,49,11.9,49z M10.5,47.7l0.8,0.4l-0.9-1.7L9.6,46L10.5,47.7z"/>
							</g>
						</g>
					</g>
				</g>
				<g>
					<g>
						<g>
							<g>
								<polygon fill="#FFFFFF" points="31.1,30.4 34.1,29.4 35.5,31.9 34.2,35.9 31.1,38.4 14.9,47.8 11.9,48.7 10.5,46.3 
									11.8,42.3 14.9,39.7 								"/>
							</g>
						</g>
						<g>
							<g>
								<path fill="#231F20" d="M11.9,49c-0.1,0-0.2,0-0.2-0.1l-1.4-2.5c0-0.1,0-0.1,0-0.2l1.3-4c0,0,0-0.1,0.1-0.1l3-2.5
									c0,0,0,0,0,0L31,30.2c0,0,0,0,0,0l3-1c0.1,0,0.2,0,0.3,0.1l1.4,2.5c0,0.1,0,0.1,0,0.2l-1.3,4c0,0,0,0.1-0.1,0.1l-3,2.6
									c0,0,0,0,0,0L15,48c0,0,0,0,0,0L11.9,49C11.9,49,11.9,49,11.9,49z M10.8,46.3l1.2,2.2l2.8-0.9L31,38.2l3-2.5l1.3-3.9
									L34,29.7l-2.8,0.9L15,39.9l-3,2.5L10.8,46.3z"/>
							</g>
						</g>
					</g>
				</g>
				<g>
					<g>
						<g>
							<g>
								<polygon fill="#FFFFFF" points="10.5,46.3 8.9,45.4 10.3,41.4 11.8,42.3 								"/>
							</g>
						</g>
						<g>
							<g>
								<path fill="#231F20" d="M10.5,46.5c0,0-0.1,0-0.1,0l-1.6-0.9c-0.1-0.1-0.1-0.2-0.1-0.3l1.3-4c0-0.1,0.1-0.1,0.1-0.1
									c0.1,0,0.1,0,0.2,0l1.6,0.9c0.1,0.1,0.1,0.2,0.1,0.3l-1.3,4C10.7,46.4,10.7,46.5,10.5,46.5C10.6,46.5,10.5,46.5,10.5,46.5z
									 M9.2,45.3l1.1,0.7l1.2-3.6l-1.1-0.7L9.2,45.3z"/>
							</g>
						</g>
					</g>
				</g>
				<g>
					<g>
						<g>
							<g>
								<polygon fill="#FFFFFF" points="11.8,42.3 10.3,41.4 13.3,38.8 14.9,39.7 								"/>
							</g>
						</g>
						<g>
							<g>
								<path fill="#231F20" d="M11.8,42.5c0,0-0.1,0-0.1,0l-1.6-0.9c-0.1,0-0.1-0.1-0.1-0.2c0-0.1,0-0.2,0.1-0.2l3-2.5
									c0.1-0.1,0.2-0.1,0.3,0l1.6,0.9c0.1,0,0.1,0.1,0.1,0.2c0,0.1,0,0.2-0.1,0.2l-3,2.5C12,42.5,11.9,42.5,11.8,42.5z M10.7,41.3
									l1.1,0.7l2.6-2.2l-1.1-0.7L10.7,41.3z"/>
							</g>
						</g>
					</g>
				</g>
			</g>
		</g>
		<g>
			<g>
				<g>
					<path fill="#231F20" d="M42.3,29.6c-0.1,0-0.1,0-0.2-0.1l-3-3c-0.1-0.1-0.1-0.2,0-0.3c0.1-0.1,0.2-0.1,0.3,0l3,3
						c0.1,0.1,0.1,0.2,0,0.3C42.4,29.6,42.3,29.6,42.3,29.6z"/>
				</g>
			</g>
		</g>
		<g>
			<g>
				<g>
					<path fill="#231F20" d="M43.8,28.8c-0.1,0-0.1,0-0.2-0.1l-3-2.9c-0.1-0.1-0.1-0.2,0-0.3c0.1-0.1,0.2-0.1,0.3,0l3,2.9
						c0.1,0.1,0.1,0.2,0,0.3C43.9,28.7,43.8,28.8,43.8,28.8z"/>
				</g>
			</g>
		</g>
		<g>
			<g>
				<g>
					<path fill="#FFFFFF" d="M6.4,37.9l-1.1,0.7c0,0,0,0.5-0.1,1c-0.1,0.3-0.3,0.6-0.7,0.5c-0.7-0.2-0.4-1.4-0.2-1.8
						c0-0.1,0.1-0.1,0.1-0.1l-3.3,0.3l-0.5,1.4l6.5,3.6l1.1-3.1L6.4,37.9z"/>
				</g>
			</g>
			<g>
				<g>
					<path fill="#231F20" d="M7.1,43.5c0,0-0.1,0-0.1,0l-6.5-3.6c-0.1-0.1-0.1-0.2-0.1-0.3l0.5-1.4c0-0.1,0.1-0.2,0.2-0.2l3.3-0.3
						c0.1,0,0.2,0,0.2,0.1c0,0.1,0.1,0.2,0,0.2c0,0,0,0.1,0,0.1c-0.2,0.5-0.3,1.1-0.1,1.4c0,0.1,0.1,0.1,0.2,0.2c0,0,0.1,0,0.1,0
						c0,0,0.2,0,0.3-0.3c0.1-0.4,0.1-0.9,0.1-0.9c0-0.1,0-0.2,0.1-0.2l1.1-0.7c0.1-0.1,0.2,0,0.3,0.1L8.4,40c0,0.1,0.1,0.1,0,0.2
						l-1.1,3.1C7.3,43.4,7.3,43.5,7.1,43.5C7.2,43.5,7.1,43.5,7.1,43.5z M0.9,39.6L7,42.9l0.9-2.7l-1.6-2l-0.8,0.5
						c0,0.2,0,0.6-0.1,0.9c-0.2,0.6-0.5,0.6-0.7,0.6c-0.1,0-0.1,0-0.2,0C4.2,40.1,4.1,40,4,39.8c-0.2-0.4-0.1-1.1,0-1.5l-2.8,0.2
						L0.9,39.6z"/>
				</g>
			</g>
		</g>
		<g>
			<g>
				<g>
					<g>
						<path d="M14,43.7L14,43.7c0.1-0.1,0.1-0.1,0.1-0.1c0,0,0-0.1,0-0.1l0-0.1l0-1.6l1.4-0.8l0,1.6l0,0.1c0,0,0,0.1,0,0.1
							c0,0,0.1,0,0.1,0l1.4-0.8l0,1.6l-1.4,0.8c0,0-0.1,0-0.1,0.1c0,0,0,0.1,0,0.1l0,1.6l-1.4,0.8l0-1.6c0,0,0-0.1,0-0.1
							c0,0-0.1,0-0.1,0l-0.1,0L12.7,46l0-1.6L14,43.7z"/>
					</g>
				</g>
			</g>
		</g>
	</g>
</g>
</svg>
